<svg width="78" height="78" viewBox="0 0 78 78" fill="none" xmlns="http://www.w3.org/2000/svg">
<path fill-rule="evenodd" clip-rule="evenodd" d="M39 78C60.5391 78 78 60.5391 78 39C78 17.4609 60.5391 0 39 0C17.4609 0 0 17.4609 0 39C0 60.5391 17.4609 78 39 78ZM60.2563 30.7724C61.5335 29.5113 61.5466 27.4535 60.2855 26.1763C59.0243 24.899 56.9666 24.886 55.6894 26.1471L33.4195 48.1357L22.3103 37.1667C21.0331 35.9056 18.9753 35.9187 17.7142 37.1959C16.4531 38.4732 16.4662 40.5309 17.7434 41.792L31.1361 55.0156C32.4019 56.2654 34.4372 56.2654 35.703 55.0156L60.2563 30.7724Z" fill="#32AF55"/>
</svg>
