<svg width="294" height="256" viewBox="0 0 294 256" fill="none" xmlns="http://www.w3.org/2000/svg">
<path d="M284.806 25.9443C282.084 25.4423 279.06 24.9725 276.336 24.6738C275.72 24.606 275.612 25.5778 276.199 25.7395C279.162 26.5526 282.513 27.1701 283.685 27.4335C278.696 62.9767 267.65 99.2683 271.365 126.052C271.442 126.605 272.313 126.488 272.31 125.932C272.228 111.699 272.147 103.924 274.799 87.0192C277.917 67.1532 283.782 43.7452 285.446 26.7466C285.432 26.5641 285.364 26.39 285.249 26.2469C285.135 26.1038 284.981 25.9984 284.806 25.9443Z" fill="#212941"/>
<path d="M259.544 5.40699C259.598 5.26222 259.598 5.10312 259.545 4.95831C259.491 4.8135 259.388 4.69247 259.253 4.61698C255.834 3.34933 252.296 2.42891 248.692 1.86961C245.033 1.21367 241.342 0.755112 237.633 0.495934C215.665 -1.03329 170.91 4.97733 149.317 14.801C149.269 14.7408 149.211 14.6888 149.146 14.647C144.157 11.4977 134.042 8.99365 128.266 7.87099C102.197 2.77359 60.0929 -2.57021 35.3128 6.61743C35.2129 6.66427 35.133 6.74531 35.0877 6.8459C35.0423 6.94649 35.0345 7.05999 35.0656 7.16586C35.0966 7.27173 35.1646 7.36298 35.2571 7.42311C35.3496 7.48325 35.4606 7.50828 35.57 7.4937C50.1935 3.74827 65.3359 2.44738 80.384 3.6437C92.8872 4.39214 115.541 7.40129 125.082 9.08759C129.105 9.77684 133.089 10.6764 137.017 11.7826C140.953 12.9453 144.803 14.3799 148.54 16.0761C148.639 16.12 148.749 16.1368 148.857 16.1246C148.965 16.1124 149.068 16.0718 149.156 16.0068C161.641 12.3447 170.562 8.80269 190.89 5.55021C203.056 3.60211 222.46 1.70946 234.507 2.16221C238.645 2.31036 242.768 2.72186 246.853 3.39421C256.756 5.05125 259.204 6.77451 259.544 5.40699Z" fill="#212941"/>
<path d="M260.629 6.5926C260.629 6.45822 260.575 6.32935 260.48 6.23434C260.385 6.13932 260.257 6.08594 260.122 6.08594C259.988 6.08594 259.859 6.13932 259.764 6.23434C259.669 6.32935 259.615 6.45822 259.615 6.5926C259.211 10.9245 259.045 15.2754 259.118 19.6256C259.032 23.9191 259.101 78.027 259.238 87.8322C259.834 88.2254 260.4 88.6619 260.932 89.1381C260.938 88.9703 260.763 8.18804 260.629 6.5926Z" fill="#212941"/>
<path d="M274.108 18.7324C270.412 18.0671 265.638 17.3202 261.418 18.3889C261.293 18.425 261.186 18.5044 261.115 18.6129C261.043 18.7214 261.013 18.8518 261.03 18.9805C261.046 19.1092 261.108 19.2278 261.205 19.3147C261.301 19.4017 261.425 19.4513 261.555 19.4546C265.372 19.4041 269.185 19.6912 272.951 20.3124C271.565 48.2311 266.997 72.0364 265.276 96.6425C265.897 98.1968 266.391 99.7991 266.753 101.433C268.413 73.2869 273.693 48.057 274.761 19.6086C274.765 19.4108 274.703 19.2172 274.584 19.0585C274.466 18.8998 274.298 18.785 274.108 18.7324Z" fill="#212941"/>
<path d="M123.46 30.4784C131.562 31.7195 139.455 34.0717 146.915 37.4685C147.761 37.795 148.264 36.506 147.531 36.0425C142.571 32.8993 132.41 30.386 126.651 29.2665C117.537 27.4831 81.2822 21.7821 58.6827 23.222C50.1982 23.6068 41.813 25.2084 33.7839 27.9775C33.6299 13.9897 34.058 18.9038 34.058 6.83944C34.058 6.71691 34.0094 6.5994 33.9227 6.51276C33.8361 6.42612 33.7186 6.37744 33.5961 6.37744C33.4735 6.37744 33.356 6.42612 33.2694 6.51276C33.1827 6.5994 33.1341 6.71691 33.1341 6.83944C32.0807 23.6331 31.1921 99.8647 31.3307 123.345C31.9467 123.052 32.5627 122.744 33.1787 122.452C32.8091 93.218 33.804 30.9974 33.7809 28.9338C41.1331 27.0807 48.6203 25.8114 56.1725 25.1377C63.6889 24.5961 71.2339 24.5734 78.7535 25.07C90.7562 25.7753 113.45 28.7105 123.46 30.4784Z" fill="#212941"/>
<path d="M215.221 143.299C194.625 143.576 161.15 146.907 149.813 150.047C149.754 150.062 149.698 150.09 149.651 150.128C149.603 150.167 149.564 150.215 149.537 150.27C149.575 150.113 149.557 149.948 149.485 149.803C149.413 149.658 149.291 149.544 149.143 149.48C140.627 145.444 100.953 142.453 76.3672 142.818C76.4031 143.434 76.4545 144.05 76.5212 144.666C77.0356 144.666 77.5515 144.652 78.0612 144.649C123.382 144.418 147.315 150.986 148.707 150.986C148.867 150.982 149.023 150.933 149.156 150.844C149.29 150.756 149.396 150.633 149.463 150.487C149.446 150.549 149.446 150.615 149.463 150.677C149.48 150.797 149.544 150.906 149.64 150.979C149.736 151.053 149.857 151.086 149.978 151.071C155.46 150.638 193.544 142.926 239.298 145.49L239.401 143.739C231.469 143.331 223.409 143.184 215.221 143.299Z" fill="#212941"/>
<path d="M194.706 17.5652C194.936 17.4504 195.139 17.2891 195.304 17.0915C195.468 16.8939 195.589 16.6643 195.66 16.4174C195.731 16.1704 195.75 15.9114 195.716 15.6567C195.681 15.402 195.594 15.1573 195.461 14.938C195.282 14.6452 195.029 14.4053 194.727 14.2429C194.426 14.0805 194.086 14.0015 193.743 14.014C193.732 14.1175 193.69 14.2153 193.623 14.2948C193.556 14.3744 193.466 14.4321 193.366 14.4606C192.92 14.6542 192.563 15.0101 192.369 15.4562C192.175 15.9024 192.157 16.4057 192.319 16.8645C192.555 17.2607 192.932 17.5531 193.375 17.683C193.818 17.8129 194.293 17.7709 194.706 17.5652Z" fill="#FF9500"/>
<path d="M192.162 13.3751C192.124 13.4343 192.104 13.5029 192.104 13.573C192.104 13.6431 192.124 13.7118 192.162 13.7709C191.606 14.1393 191.185 14.6785 190.963 15.3073C190.74 15.936 190.729 16.62 190.93 17.2559C191.095 17.6662 191.342 18.0385 191.656 18.3501C191.97 18.6617 192.344 18.9061 192.755 19.0684C193.167 19.2307 193.607 19.3074 194.049 19.2939C194.491 19.2804 194.926 19.177 195.327 18.99C195.754 18.7853 196.135 18.4943 196.445 18.1353C196.755 17.7764 196.988 17.3572 197.128 16.9041C197.268 16.451 197.313 15.9738 197.26 15.5025C197.207 15.0311 197.058 14.5758 196.82 14.1652C195.956 12.6714 193.278 11.6303 192.162 13.3751ZM194.704 17.5655C194.291 17.7716 193.815 17.8136 193.372 17.683C192.93 17.5525 192.553 17.259 192.317 16.8617C192.154 16.4029 192.172 15.8993 192.366 15.453C192.561 15.0066 192.918 14.6508 193.365 14.4578C193.465 14.4293 193.554 14.3716 193.621 14.292C193.689 14.2125 193.73 14.1147 193.742 14.0112C194.084 14.0007 194.423 14.0806 194.724 14.2429C195.026 14.4051 195.279 14.6439 195.459 14.9352C195.592 15.1551 195.677 15.4 195.711 15.6545C195.745 15.9091 195.726 16.1679 195.655 16.4147C195.584 16.6616 195.463 16.8911 195.299 17.0891C195.136 17.2871 194.933 17.4493 194.704 17.5655Z" fill="#212941"/>
<path d="M209.542 14.9383C209.773 14.8243 209.977 14.6635 210.142 14.466C210.307 14.2685 210.429 14.0388 210.5 13.7914C210.571 13.5441 210.589 13.2847 210.554 13.0298C210.519 12.7748 210.432 12.53 210.296 12.311C210.118 12.0183 209.865 11.7784 209.563 11.616C209.262 11.4535 208.922 11.3745 208.579 11.387C208.568 11.4905 208.526 11.5883 208.459 11.6679C208.392 11.7474 208.302 11.8051 208.202 11.8336C207.756 12.0273 207.399 12.3831 207.205 12.8293C207.01 13.2754 206.993 13.7787 207.155 14.2376C207.391 14.6338 207.768 14.9261 208.211 15.0561C208.654 15.186 209.129 15.1439 209.542 14.9383Z" fill="#FF9500"/>
<path d="M207 10.7477C206.962 10.8068 206.942 10.8755 206.942 10.9456C206.942 11.0157 206.962 11.0844 207 11.1435C206.444 11.5116 206.023 12.0509 205.801 12.6797C205.578 13.3085 205.567 13.9926 205.768 14.6285C205.933 15.0387 206.18 15.411 206.494 15.7226C206.807 16.0342 207.181 16.2786 207.593 16.4409C208.004 16.6031 208.444 16.6799 208.886 16.6664C209.328 16.653 209.762 16.5496 210.163 16.3625C210.591 16.1578 210.972 15.8668 211.282 15.5079C211.592 15.1489 211.824 14.7297 211.965 14.2766C212.105 13.8236 212.15 13.3464 212.097 12.875C212.044 12.4037 211.894 11.9484 211.657 11.5377C210.795 10.0439 208.116 9.00287 207 10.7477ZM209.543 14.938C209.129 15.1438 208.654 15.1856 208.211 15.055C207.768 14.9245 207.391 14.6313 207.155 14.2343C206.992 13.7755 207.01 13.2719 207.204 12.8255C207.399 12.3791 207.756 12.0234 208.203 11.8303C208.303 11.8018 208.392 11.7441 208.459 11.6646C208.527 11.585 208.569 11.4872 208.58 11.3837C208.922 11.3733 209.261 11.4532 209.562 11.6154C209.864 11.7776 210.117 12.0164 210.297 12.3077C210.43 12.5276 210.516 12.7725 210.55 13.0271C210.584 13.2817 210.564 13.5406 210.494 13.7875C210.423 14.0344 210.302 14.264 210.138 14.462C209.974 14.66 209.772 14.822 209.543 14.938Z" fill="#212941"/>
<path d="M224.377 14.1648C224.607 14.0501 224.811 13.8889 224.976 13.6914C225.14 13.4938 225.262 13.2643 225.333 13.0173C225.404 12.7703 225.423 12.5112 225.389 12.2565C225.354 12.0018 225.267 11.757 225.134 11.5375C224.955 11.2449 224.701 11.0051 224.399 10.8427C224.097 10.6804 223.758 10.6013 223.415 10.6135C223.404 10.7171 223.362 10.815 223.295 10.8946C223.227 10.9742 223.138 11.0319 223.038 11.0601C222.591 11.2541 222.235 11.6099 222.041 12.056C221.847 12.5021 221.829 13.0052 221.99 13.4641C222.226 13.8606 222.604 14.1532 223.046 14.2831C223.489 14.4131 223.965 14.3708 224.377 14.1648Z" fill="#FF9500"/>
<path d="M221.844 9.97448C221.806 10.0333 221.785 10.1021 221.785 10.1724C221.785 10.2427 221.806 10.3114 221.844 10.3703C221.288 10.7382 220.866 11.2775 220.644 11.9064C220.422 12.5352 220.411 13.2194 220.612 13.8553C220.777 14.2655 221.024 14.6378 221.338 14.9494C221.651 15.261 222.025 15.5055 222.436 15.6679C222.848 15.8303 223.288 15.9073 223.73 15.894C224.172 15.8807 224.606 15.7776 225.007 15.5909C225.435 15.3862 225.816 15.0951 226.126 14.736C226.437 14.377 226.669 13.9576 226.809 13.5043C226.95 13.0511 226.995 12.5737 226.942 12.1022C226.889 11.6306 226.739 11.1752 226.501 10.7645C225.632 9.26608 222.953 8.22966 221.844 9.97448ZM224.385 14.1648C223.972 14.3706 223.496 14.4124 223.053 14.2818C222.61 14.1513 222.233 13.8581 221.998 13.461C221.835 13.0022 221.853 12.4988 222.047 12.0525C222.242 11.6063 222.598 11.2505 223.045 11.0571C223.145 11.0288 223.235 10.9712 223.302 10.8916C223.369 10.812 223.411 10.7141 223.422 10.6105C223.765 10.6003 224.104 10.6803 224.406 10.8424C224.707 11.0046 224.961 11.2433 225.141 11.5345C225.273 11.7549 225.359 12.0002 225.392 12.2551C225.425 12.51 225.405 12.769 225.334 13.0159C225.262 13.2628 225.14 13.4923 224.976 13.69C224.812 13.8877 224.608 14.0493 224.379 14.1648H224.385Z" fill="#212941"/>
<path d="M107.917 55.2227C107.659 42.4608 99.2595 35.7756 90.9343 37.1585C86.1164 38.1115 81.6646 40.4028 78.0891 43.7698C76.3607 45.277 74.994 47.1542 74.0905 49.2619C73.187 51.3697 72.7698 53.6539 72.8701 55.945C73.349 64.2394 79.3535 70.8276 82.0392 78.0794C84.1182 83.6896 84.0797 86.0874 83.4653 89.3784C83.4524 89.4419 83.4583 89.5077 83.4822 89.5678C83.3765 90.0931 83.447 90.6386 83.6829 91.1197C83.9187 91.6008 84.3066 91.9907 84.7866 92.229C85.8392 92.6664 86.9819 92.8434 88.1176 92.7449C89.5775 92.7156 91.0205 92.6586 92.4804 92.5724C94.1975 92.4707 97.1805 92.7602 97.4254 90.4087C97.5439 89.2752 97.2714 88.1079 97.3391 86.9745C97.9644 76.37 108.219 70.0714 107.917 55.2227Z" fill="#FF9500"/>
<path d="M233.204 112.269C232.299 112.269 231.567 112.954 231.59 114.33C231.105 117.123 234.074 117.922 234.613 115.617C235.196 114.602 234.863 111.967 233.204 112.269Z" fill="#212941"/>
<path d="M232.722 108.096C232.466 108.25 232.551 108.712 232.876 108.698C233.142 108.65 233.415 108.656 233.679 108.716C233.943 108.776 234.192 108.888 234.411 109.046C234.63 109.204 234.816 109.405 234.956 109.636C235.096 109.867 235.189 110.124 235.228 110.392C235.265 110.735 235.158 111.356 235.503 111.578C235.879 111.819 236.206 111.439 236.344 111.131C236.497 110.648 236.502 110.131 236.361 109.646C236.219 109.16 235.936 108.727 235.548 108.402C235.161 108.077 234.685 107.874 234.182 107.82C233.679 107.765 233.171 107.861 232.722 108.096Z" fill="#212941"/>
<path d="M237.859 126.985C237.831 126.936 237.791 126.893 237.744 126.862C237.696 126.83 237.642 126.81 237.585 126.803C237.528 126.797 237.47 126.803 237.417 126.823C237.363 126.842 237.315 126.874 237.276 126.916C236.886 127.43 236.648 128.043 236.589 128.686C235.919 131.484 234.365 131.932 232.759 130.815C232.415 130.575 232.053 130.969 232.124 131.313C232.508 133.17 235.059 133.028 236.245 132.137C236.983 131.571 237.529 130.792 237.808 129.905C238.012 129.447 238.121 128.952 238.13 128.451C238.139 127.949 238.047 127.451 237.859 126.985Z" fill="#212941"/>
<path d="M68.3188 173.401C64.6011 174.831 61.067 176.699 57.7914 178.965C55.1996 180.648 18.7062 205.337 18.2796 205.616C16.6514 206.637 15.1066 207.786 13.6596 209.05C13.592 209.117 13.5465 209.203 13.5292 209.296C13.5119 209.389 13.5238 209.485 13.5631 209.572C13.6025 209.658 13.6674 209.73 13.7492 209.778C13.8309 209.826 13.9254 209.848 14.02 209.84C15.6597 209.048 17.2285 208.117 18.7093 207.058C56.7257 181.612 58.8663 179.529 68.7485 174.484C68.8742 174.415 68.9705 174.303 69.0191 174.168C69.0678 174.033 69.0655 173.885 69.0127 173.752C68.9598 173.619 68.8601 173.51 68.7323 173.445C68.6045 173.38 68.4574 173.365 68.3188 173.401Z" fill="#212941"/>
<path d="M251.183 8.10378C249.626 8.73242 248.191 9.62716 246.942 10.748C246.202 9.70655 245.331 8.76591 244.348 7.94978C244.241 7.85345 244.104 7.79762 243.96 7.79198C243.816 7.78633 243.675 7.83123 243.561 7.91887C243.447 8.00651 243.367 8.13137 243.335 8.27176C243.303 8.41216 243.322 8.55922 243.387 8.68744C243.974 9.76544 244.89 10.8327 245.602 11.8983C244.883 12.5338 244.191 13.1981 243.524 13.8911C242.749 14.5142 242.214 15.3883 242.014 16.3628C242.014 16.4373 242.032 16.5108 242.065 16.5774C242.099 16.6439 242.147 16.7018 242.207 16.7466C242.267 16.7913 242.336 16.8216 242.409 16.8352C242.483 16.8488 242.558 16.8452 242.63 16.8248C243.729 16.5168 244.002 15.6898 246.544 13.2828C247.473 14.6973 248.327 16.1592 249.104 17.6626C249.566 18.5558 249.923 19.546 250.924 19.9464C251.035 19.9736 251.153 19.9567 251.252 19.8993C251.352 19.8419 251.425 19.7485 251.457 19.6384C251.532 19.1278 251.502 18.6074 251.37 18.1087C251.237 17.6099 251.005 17.1433 250.687 16.737C249.48 14.5025 248.586 13.1781 247.904 12.117C249.193 11.0868 250.542 10.1674 251.754 9.06012C251.839 8.96805 251.892 8.85088 251.905 8.72615C251.918 8.60142 251.891 8.47583 251.826 8.36818C251.762 8.26052 251.665 8.17658 251.549 8.12892C251.433 8.08126 251.304 8.07244 251.183 8.10378Z" fill="#3A5AB7"/>
<path d="M54.0494 15.831C53.9293 17.7021 53.8431 19.5917 53.6367 21.4628C54.9334 21.5013 55.035 21.4967 56.0576 21.4967C55.8697 19.5224 55.8343 17.5142 55.8004 15.5215L54.0494 15.831Z" fill="#212941"/>
<path d="M62.0345 14.097C61.9482 14.06 61.862 14.0277 61.7757 13.9938C59.8524 10.9928 57.6997 8.14502 55.337 5.47608C55.2252 5.36446 55.0738 5.30176 54.9158 5.30176C54.7579 5.30176 54.6064 5.36446 54.4946 5.47608C53.8355 6.18448 47.7895 13.8937 47.7818 13.9076C47.7278 14.0011 47.6993 14.1071 47.6992 14.215C47.6991 14.323 47.7274 14.4291 47.7812 14.5226C47.835 14.6162 47.9125 14.694 48.0058 14.7482C48.0992 14.8025 48.2051 14.8312 48.313 14.8316C49.1724 14.9332 49.9963 15.0549 50.8556 15.0888C50.8202 15.5877 50.8833 16.136 50.8725 16.618C50.8387 17.9732 50.8371 19.3484 50.8371 20.7051C50.8436 20.8761 50.9145 21.0383 51.0357 21.1591C51.1568 21.2799 51.3191 21.3505 51.4901 21.3566C52.006 21.3874 52.5203 21.4089 53.0301 21.4259C52.9068 19.4243 52.9413 17.4161 53.1333 15.4199C53.1357 15.3186 53.1703 15.2208 53.2321 15.1405C53.2938 15.0602 53.3795 15.0017 53.4767 14.9733C54.3714 14.8193 55.2461 14.6545 56.1547 14.5113C56.2255 14.4924 56.2997 14.49 56.3715 14.5044C56.4434 14.5187 56.5109 14.5494 56.569 14.5941C56.6271 14.6388 56.6741 14.6962 56.7064 14.7619C56.7387 14.8277 56.7555 14.9 56.7553 14.9733C56.7738 17.1539 56.9617 19.3176 57.0141 21.4982C57.8765 21.4982 58.4093 21.5752 58.765 21.2934C59.4165 20.776 59.1239 19.3345 59.1423 18.6308C59.1731 17.5143 59.1947 16.3993 59.2286 15.2828C60.1262 15.2967 61.0232 15.2276 61.9082 15.0764C62.0097 15.0482 62.1007 14.9907 62.1697 14.911C62.2387 14.8314 62.2827 14.7331 62.2962 14.6286C62.3097 14.5241 62.2921 14.4179 62.2455 14.3233C62.1989 14.2288 62.1255 14.1501 62.0345 14.097Z" fill="#212941"/>
<path d="M206.777 109.315C205.381 106.606 199.341 99.8258 198.259 98.1025C198.023 97.7268 197.912 97.2909 197.675 96.9506C199.205 95.9374 200.652 94.8046 202.003 93.5626C205.945 90.3609 206.566 90.0206 206.655 89.0966C206.652 88.9122 206.577 88.7364 206.445 88.6076C206.313 88.4789 206.135 88.4077 205.951 88.4098C205.905 88.3026 205.835 88.2078 205.746 88.1331C205.656 88.0585 205.55 88.006 205.437 87.9801C203.658 87.5566 201.815 87.2101 200.027 86.9329C190.359 85.4068 180.888 82.9566 175.062 84.067C174.847 84.0817 174.637 84.1392 174.445 84.236C174.253 84.3328 174.082 84.4669 173.942 84.6306C173.48 85.2466 173.396 85.3328 172.947 92.4446C172.384 101.377 171.993 109.406 171.985 109.565C171.83 112.011 171.817 114.464 171.946 116.912C171.878 116.988 171.835 117.083 171.825 117.184C171.814 117.286 171.836 117.388 171.888 117.476C171.94 117.564 172.018 117.633 172.111 117.673C172.205 117.714 172.309 117.723 172.408 117.701C174.566 116.663 176.524 115.256 178.196 113.543C179.12 112.773 180.044 111.865 180.994 110.985C181.726 110.41 182.389 109.753 182.97 109.026C186.117 113.442 189.619 117.595 193.442 121.441C193.871 121.689 194.093 121.441 194.333 121.253C195.699 120.145 207.095 110.781 207.299 110.176C207.335 109.993 207.301 109.804 207.204 109.644C207.108 109.485 206.955 109.368 206.777 109.315ZM194.052 119.91C193.881 119.689 189.005 114.39 183.68 108.062C183.526 107.977 183.247 107.168 182.374 107.495C181.464 108.023 180.665 108.723 180.022 109.555C176.953 112.562 173.942 114.964 173.032 115.772C173.311 113.462 175.14 85.8826 175.145 85.7286C175.147 85.6575 175.164 85.5875 175.193 85.5229C175.223 85.4583 175.266 85.4005 175.319 85.3529C175.562 85.1311 175.678 85.2189 177.498 85.3251C179.094 85.4191 180.732 85.5007 182.34 85.704C187.872 86.4001 201.983 89.246 204.054 89.5155C202.612 90.8907 197.646 94.9193 196.497 96.4024C196.402 96.412 196.311 96.4421 196.229 96.4906C196.147 96.5391 196.077 96.6048 196.023 96.6832C195.969 96.7616 195.933 96.8508 195.917 96.9445C195.901 97.0383 195.906 97.1344 195.93 97.2263C196.002 97.419 196.094 97.6034 196.206 97.776C196.423 98.307 196.706 98.8088 197.047 99.2698C197.509 99.8612 204.185 108.322 205.651 109.693C205.004 110.118 194.923 118.774 194.052 119.91Z" fill="#212941"/>
<path d="M230.096 41.6742C228.515 41.346 226.893 41.2649 225.288 41.4339C209.697 41.6419 194.154 43.211 178.837 46.1232C178.356 46.2233 178.459 47.0472 178.957 46.981C194.08 44.8385 209.315 43.5716 224.584 43.1864C226.435 43.3381 228.297 43.2167 230.113 42.8261C230.236 42.7867 230.343 42.7088 230.418 42.604C230.493 42.4991 230.533 42.3729 230.531 42.2438C230.529 42.1148 230.486 41.9898 230.407 41.8872C230.329 41.7846 230.22 41.7099 230.096 41.6742Z" fill="#212941"/>
<path d="M223.622 52.7853C225.3 52.8135 226.969 52.5402 228.55 51.9783C228.629 51.9302 228.692 51.8601 228.731 51.7766C228.77 51.6932 228.784 51.6001 228.771 51.5087C228.758 51.4174 228.719 51.3318 228.658 51.2625C228.597 51.1933 228.517 51.1434 228.428 51.119C226.38 50.5508 225.63 51.0651 209.901 51.909C203.702 52.2417 184.159 52.8792 180.622 53.1287C180.476 53.1287 180.336 53.1866 180.233 53.2897C180.13 53.3928 180.072 53.5327 180.072 53.6785C180.072 53.8243 180.13 53.9641 180.233 54.0672C180.336 54.1703 180.476 54.2283 180.622 54.2283C191.824 54.6071 212.386 53.5769 223.622 52.7853Z" fill="#212941"/>
<path d="M228.036 61.4724C226.958 61.4524 192.604 62.6305 180.865 63.6531C180.746 63.6531 180.633 63.7001 180.549 63.7839C180.465 63.8676 180.418 63.9812 180.418 64.0997C180.418 64.2181 180.465 64.3317 180.549 64.4155C180.633 64.4992 180.746 64.5463 180.865 64.5463C193.074 64.5801 205.301 63.9888 217.517 63.516C221.002 63.382 224.554 63.3836 228.042 63.054C228.252 63.0532 228.453 62.9691 228.601 62.8202C228.748 62.6713 228.831 62.4699 228.83 62.2601C228.829 62.0504 228.745 61.8496 228.596 61.7019C228.448 61.5541 228.246 61.4716 228.036 61.4724Z" fill="#212941"/>
<path d="M101.822 95.2166C101.595 93.1422 99.3575 92.6464 97.2708 93.1222C97.1723 93.1483 97.0851 93.2063 97.023 93.287C96.9608 93.3678 96.9271 93.4669 96.9271 93.5688C96.9271 93.6707 96.9608 93.7698 97.023 93.8506C97.0851 93.9314 97.1723 93.9893 97.2708 94.0154C98.3334 94.2279 100.132 93.96 100.482 95.1997C100.552 95.4115 100.571 95.6368 100.539 95.8575C100.506 96.0782 100.421 96.2881 100.292 96.4702C99.921 96.849 99.4773 97.1491 98.9876 97.3529C98.4979 97.5566 97.9721 97.6597 97.4418 97.656C97.2912 97.6836 97.1551 97.7632 97.0572 97.8808C96.9592 97.9984 96.9056 98.1466 96.9056 98.2997C96.9056 98.4528 96.9592 98.601 97.0572 98.7186C97.1551 98.8362 97.2912 98.9158 97.4418 98.9434C98.0897 98.8757 98.7381 99.0672 99.2451 99.4763C99.4613 99.6429 99.6197 99.8732 99.6979 100.135C99.7761 100.396 99.7702 100.676 99.681 100.934C99.5919 101.192 99.4239 101.415 99.2009 101.573C98.9779 101.73 98.7111 101.813 98.4381 101.811C98.1766 101.751 97.9271 101.647 97.7005 101.503C97.0768 101.164 96.5686 102.244 97.1846 102.689C97.49 102.883 97.8273 103.022 98.181 103.1C98.5372 103.189 98.8613 103.376 99.1162 103.641C99.371 103.905 99.5465 104.236 99.6224 104.595C99.6665 104.802 99.6356 105.017 99.535 105.202C99.4345 105.388 99.2711 105.531 99.0742 105.607C97.7605 106.278 88.9949 107.173 83.8928 105.95C82.9148 105.783 82.0108 105.322 81.301 104.629C80.8498 104.104 81.0716 103.562 81.6783 103.272C82.1704 103.092 82.6961 103.021 83.2183 103.066C85.5283 103.22 91.1355 103.708 91.1847 101.526C91.1881 101.466 91.1791 101.406 91.1582 101.349C91.1372 101.293 91.1048 101.241 91.0631 101.198C91.0213 101.154 90.971 101.12 90.9153 101.097C90.8597 101.074 90.7999 101.063 90.7397 101.064C90.4767 101.064 90.2197 101.142 90.0005 101.287C89.0662 101.754 88.0165 101.939 86.979 101.82C85.6869 101.82 81.6521 102.023 80.8483 101.03C80.7648 100.926 80.7064 100.805 80.6775 100.675C80.6487 100.544 80.6502 100.41 80.6819 100.28C80.9422 98.7663 82.7609 99.5425 85.9025 99.2499C87.19 99.1298 90.6842 99.1898 91.5528 98.4075C91.5992 98.365 91.6346 98.3119 91.656 98.2527C91.6775 98.1935 91.6842 98.1301 91.6757 98.0677C91.6672 98.0053 91.6438 97.946 91.6074 97.8946C91.5709 97.8433 91.5226 97.8016 91.4666 97.773C90.5657 97.3788 89.7371 97.7823 86.9852 97.8762C86.0612 97.907 85.7208 98.0471 84.8553 98.0471C84.0669 98.0133 83.2812 97.933 82.5022 97.8069C82.2139 97.7675 81.9387 97.6618 81.6982 97.498C81.4576 97.3342 81.2585 97.1167 81.1162 96.8629C81.0299 96.6776 80.991 96.4737 81.0031 96.2697C81.0152 96.0656 81.0779 95.8678 81.1855 95.694C82.5484 93.0006 87.595 95.403 94.9562 93.9261C95.4459 93.8275 95.3227 93.0883 94.8361 93.0668C92.9249 92.9882 90.4255 93.2208 87.1438 93.0329C84.5258 92.8789 81.4535 92.7033 80.0521 94.9394C79.7003 95.4833 79.5682 96.1405 79.6826 96.778C79.7969 97.4156 80.1492 97.9859 80.6681 98.3736C80.2701 98.5187 79.9265 98.7827 79.6837 99.1299C79.441 99.477 79.311 99.8904 79.3113 100.314C79.2829 100.743 79.384 101.17 79.6015 101.54C79.819 101.911 80.1429 102.207 80.531 102.391C80.1175 102.69 79.8326 103.134 79.7338 103.635C79.6349 104.135 79.7294 104.655 79.9982 105.088C81.0854 106.836 83.4509 107.259 85.5791 107.509C89.6078 107.975 93.6816 107.883 97.6851 107.235C98.6586 107.198 99.5885 106.821 100.312 106.169C100.714 105.634 100.889 104.962 100.8 104.299C100.71 103.636 100.362 103.035 99.8318 102.627C100.145 102.407 100.406 102.121 100.597 101.79C100.788 101.459 100.905 101.09 100.94 100.709C100.974 100.328 100.925 99.9436 100.796 99.5835C100.667 99.2233 100.461 98.8956 100.192 98.6231C100.074 98.5014 99.952 98.3998 99.8318 98.2966C100.326 98.0661 100.766 97.7327 101.121 97.3187C101.399 97.0515 101.609 96.7204 101.731 96.3542C101.853 95.988 101.884 95.5976 101.822 95.2166Z" fill="#212941"/>
<path d="M98.5757 57.7656C98.1737 55.9854 97.1897 54.1666 95.4156 54.6225C94.8249 54.7838 94.2787 55.0776 93.8186 55.4818C93.5357 55.0405 93.1583 54.6675 92.7138 54.3898C92.2693 54.112 91.7686 53.9363 91.248 53.8755C90.7273 53.8146 90.1997 53.8701 89.7031 54.0379C89.2065 54.2057 88.7533 54.4816 88.3763 54.8458C88.1972 54.4534 87.925 54.1107 87.5832 53.8476C87.2414 53.5845 86.8405 53.409 86.4154 53.3362C85.9903 53.2635 85.5538 53.2958 85.144 53.4303C84.7342 53.5649 84.3636 53.7975 84.0643 54.1081C80.7594 57.1157 83.2558 64.9297 84.5971 69.1847C87.4384 78.2045 87.3691 82.0683 86.7608 90.255C86.73 90.6554 87.3306 90.7324 87.4476 90.3397C88.3708 86.7944 88.6153 83.1065 88.1684 79.4704C87.3522 70.506 83.5761 65.3024 83.7024 58.5033C83.764 55.1984 85.5704 54.1435 86.5175 54.6533C86.9786 54.9744 87.3369 55.422 87.5493 55.9422C86.643 57.8855 86.4484 60.0855 86.9995 62.1577C87.05 62.3314 87.1374 62.4922 87.2557 62.6291C87.3741 62.7659 87.5206 62.8756 87.6852 62.9506C87.8499 63.0256 88.0288 63.0642 88.2097 63.0637C88.3906 63.0632 88.5693 63.0236 88.7335 62.9477C89.5544 62.4949 89.6806 61.2306 89.7469 60.5607C89.8568 58.9912 89.5858 57.4183 88.9568 55.9761C89.1771 55.6655 89.4761 55.4191 89.823 55.2621C90.1699 55.1052 90.5524 55.0433 90.9311 55.0829C91.3439 55.1535 91.7385 55.3053 92.0922 55.5295C92.4459 55.7536 92.7516 56.0457 92.9916 56.3888C92.5136 57.0047 92.1529 57.7031 91.9275 58.4494C91.4131 60.168 92.0815 62.5119 93.9711 62.1577C95.6651 61.8497 95.4895 59.8862 95.0491 58.2261C94.8916 57.6025 94.667 56.9979 94.3792 56.4227C96.0732 54.9305 96.857 55.6142 97.4191 57.7456C97.8277 59.327 97.701 60.9993 97.0588 62.5011C96.201 64.5231 93.3982 67.6924 92.5774 70.0225C91.7396 72.4018 91.0743 82.2978 92.4911 87.1257C92.622 87.5738 93.4151 87.5045 93.332 87.0056C93.1349 84.7726 92.8515 82.4041 92.8515 79.88C92.789 76.682 93.071 73.4866 93.6923 70.3489C94.2082 68.8705 97.3883 64.4615 97.935 63.3081C98.7659 61.5852 98.9916 59.6326 98.5757 57.7656ZM93.5614 57.3698C94.0933 58.3396 94.3263 59.4449 94.2313 60.5468C94.2032 60.6423 94.1533 60.73 94.0855 60.8028C94.0178 60.8757 93.934 60.9319 93.8408 60.9668C93.7476 61.0017 93.6475 61.0146 93.5485 61.0042C93.4496 60.9939 93.3543 60.9607 93.2704 60.9072C92.9705 60.3529 92.8383 59.7233 92.89 59.0952C92.9416 58.4671 93.175 57.8676 93.5614 57.3698ZM88.5133 60.2727C88.4764 61.8651 88.0128 62.1854 87.9805 60.5468C87.8944 59.5667 87.964 58.5792 88.1868 57.6208C88.4157 58.4858 88.5256 59.378 88.5133 60.2727Z" fill="#212941"/>
<path d="M68.0086 118.021C60.4476 120.399 53.0139 123.164 45.7371 126.306C35.0926 131.045 13.026 141.86 8.35361 144.973C8.2008 145.076 8.08609 145.226 8.02713 145.401C5.77565 162.957 9.33459 202.71 10.7406 205.521C10.6621 205.829 11.0055 206.157 11.2888 205.967C13.4448 204.735 13.3802 202.937 32.7718 190.547C52.1635 178.158 64.1047 172.198 67.2879 169.847C67.4232 169.754 67.5184 169.614 67.5543 169.454C67.5902 169.294 67.5642 169.126 67.4814 168.984C67.3986 168.843 67.2652 168.738 67.1082 168.691C66.9511 168.643 66.782 168.658 66.6349 168.73C64.6837 169.577 22.9497 193.087 11.7524 204.413C9.31188 189.218 8.26597 173.831 8.62773 158.444C8.67701 153.837 8.93573 151.022 8.90185 145.926C13.0999 144.036 37.9478 130.153 56.0905 123.551C63.7181 120.779 65.4337 120.453 67.4588 119.567C67.4449 119.743 67.0261 164.775 67.6652 168.713C67.6929 168.815 67.7531 168.904 67.8365 168.968C67.92 169.031 68.0221 169.066 68.1272 169.066C68.2322 169.066 68.3343 169.031 68.4178 168.968C68.5013 168.904 68.5615 168.815 68.5892 168.713C69.1944 164.911 68.9156 120.085 68.7432 118.588C68.7378 118.5 68.7137 118.414 68.6726 118.337C68.6315 118.259 68.5742 118.191 68.5046 118.138C68.435 118.084 68.3547 118.046 68.2692 118.026C68.1836 118.006 68.0948 118.004 68.0086 118.021Z" fill="#212941"/>
<path d="M140.389 176.458C140.291 176.367 140.167 176.307 140.035 176.285C139.902 176.263 139.766 176.281 139.644 176.336C139.521 176.391 139.417 176.481 139.345 176.594C139.273 176.707 139.236 176.84 139.239 176.974C139.214 176.899 139.172 176.831 139.118 176.774C139.063 176.717 138.997 176.673 138.923 176.645C138.849 176.618 138.771 176.606 138.692 176.612C138.613 176.619 138.537 176.642 138.469 176.681C136.351 177.93 134.342 179.354 132.463 180.939C133.013 181.266 133.562 181.609 134.112 181.919C135.829 180.511 137.559 179.081 139.126 177.541C139.174 177.496 139.212 177.443 139.238 177.384C139.265 177.324 139.279 177.261 139.28 177.196C139.498 177.993 139.989 178.723 140.14 179.506C140.389 181.007 140.077 182.547 139.264 183.833C139.177 183.953 139.074 184.073 138.972 184.193C139.213 184.261 140.311 184.554 140.603 184.64V184.623C142.225 182.333 142.199 178.001 140.389 176.458Z" fill="#212941"/>
<path d="M131.408 176.028C133.835 176.392 136.292 176.507 138.742 176.372C139.273 176.304 139.478 175.537 138.879 175.377C134.892 174.309 107.564 173.929 77.1108 172.354C76.0941 172.271 75.0733 172.247 74.0539 172.284C74.5344 162.702 74.2248 153.104 74.1232 143.522C73.8983 122.47 74.8223 120.556 74.02 114.226C74.0173 113.833 73.934 113.444 73.775 113.083C73.6161 112.723 73.385 112.399 73.096 112.132C72.7635 111.919 72.3897 111.778 71.9991 111.719C71.6086 111.66 71.2099 111.683 70.8291 111.789C54.0554 114.827 26.531 128.382 11.4313 136.583C9.24914 137.767 6.99612 138.879 4.94022 140.24C3.39098 141.266 1.67696 142.25 1.50602 144.173C0.6082 149.398 -0.0185807 188.661 2.24368 205.271C2.66256 208.351 3.58348 211.813 6.45096 212.86C5.798 216.695 8.72862 219.636 12.3584 221.022C18.0672 223.586 46.2107 225.14 74.4004 228.424C78.8661 229.048 83.3708 229.352 87.88 229.334C90.96 229.249 94.8177 229.18 95.2474 227.806C95.2474 227.806 95.9357 225.054 93.7197 224.319C89.497 222.921 87.7137 223.034 82.7287 223.169C80.7883 223.221 80.2786 222.707 79.6718 220.285C79.6091 220.06 79.5744 219.829 79.5686 219.596C54.1694 218.136 14.4097 211.722 8.7009 211.354C8.60399 211.164 8.43906 211.017 8.2389 210.943C4.335 201.304 5.16506 190.024 4.81702 179.841C4.43202 168.765 4.65378 157.718 4.93714 146.63C4.90048 145.212 5.36206 143.827 6.24152 142.715C8.59997 140.804 11.097 139.07 13.7121 137.528C33.0391 126.131 48.6408 118.828 70.053 113.247C70.9954 113.002 72.363 112.477 72.6802 113.78C73.4841 117.023 72.6448 125.288 72.8173 141.654C72.9266 151.972 73.0744 162.311 73.0236 172.631C73.0214 172.712 73.0393 172.792 73.0759 172.864C73.1125 172.936 73.1665 172.998 73.2331 173.044C73.2997 173.09 73.3767 173.118 73.4571 173.127C73.5375 173.135 73.6188 173.124 73.6935 173.093C78.0764 174.263 116.073 174.804 131.408 176.028Z" fill="#212941"/>
<path d="M250.642 137.821C248.32 137.581 246.313 138.366 241.764 138.474C238.819 138.718 235.86 138.243 233.14 137.088C230.699 135.821 230.522 133.121 230.684 130.682C230.882 127.66 231.24 124.656 231.508 121.649C231.505 121.468 231.431 121.295 231.303 121.167C231.175 121.039 231.002 120.965 230.821 120.963C229.843 120.87 228.863 120.784 227.885 120.688C227.355 120.685 226.826 120.634 226.305 120.534C225.822 120.38 225.797 120.091 225.928 119.624C226.127 118.907 229.208 112.757 231.286 106.179C234.113 106.5 236.973 106.39 239.768 105.854C239.923 108.088 240.703 110.233 242.018 112.046C243.392 110.486 245.132 109.294 247.083 108.576C246.997 106.465 247.046 104.352 246.98 102.262C246.777 95.7189 246.07 88.6026 246.07 88.1991C239.012 84.8496 233.259 77.8349 224.915 78.4109C223.089 78.4437 221.309 78.9871 219.777 79.9795C218.244 80.9718 217.02 82.3735 216.243 84.0257C214.666 87.771 215.652 92.1338 217.167 95.7374C219.206 100.579 221.889 103.63 227.006 105.25C228.001 105.568 229.017 105.815 230.046 105.989C229.405 107.694 228.603 110.284 225.976 116.138C225.391 117.442 223.744 119.707 224.825 121.135C225.455 121.967 226.312 121.845 230.061 122.233C229.735 125.359 229.291 128.536 229.219 131.678C229.066 132.92 229.26 134.181 229.778 135.32C230.296 136.46 231.119 137.434 232.156 138.135C235.097 139.517 238.342 140.125 241.584 139.903C241.413 141.714 241.953 143.48 240.814 145.587C240.502 145.99 240.301 146.468 240.23 146.973C240.232 147.078 240.274 147.177 240.348 147.251C240.422 147.325 240.521 147.367 240.626 147.369C241.93 147.36 242.543 145.29 242.737 144.243C243.032 142.787 242.985 141.282 242.6 139.848C245.38 139.793 248.139 139.342 250.791 138.508C251.218 138.371 250.961 137.856 250.642 137.821ZM224.705 97.8441C224.697 98.0147 224.626 98.1763 224.505 98.2971C224.385 98.4179 224.223 98.4892 224.052 98.4971C221.839 98.8051 220.224 94.8735 219.622 93.1733C218.643 90.6612 218.674 87.8677 219.708 85.3778C219.786 85.2521 219.902 85.155 220.04 85.1007C220.177 85.0464 220.328 85.0379 220.471 85.0764C220.614 85.115 220.74 85.1986 220.832 85.3148C220.923 85.4309 220.975 85.5735 220.979 85.7212C221.109 89.8577 220.915 92.3355 223.812 95.9207C224.388 96.6352 224.779 96.9355 224.705 97.8441Z" fill="#212941"/>
<path d="M265.333 105.452C264.835 101.14 263.878 96.5706 260.765 93.3458C259.778 92.3171 258.592 91.4993 257.28 90.9419C258.548 97.1892 259.095 103.561 258.911 109.933C260.452 111.294 261.567 113.071 262.122 115.051C262.647 117.327 262.608 119.697 262.006 121.954C261.404 124.212 260.259 126.288 258.671 128C257.308 129.378 255.618 130.389 253.76 130.937C253.85 131.286 254.031 131.605 254.284 131.861C254.537 132.117 254.854 132.301 255.201 132.396C255.922 132.57 256.659 132.674 257.4 132.704C256.761 135.519 255.999 144.038 258.324 145.222C258.384 145.256 258.45 145.276 258.519 145.28C258.587 145.284 258.655 145.273 258.718 145.246C258.781 145.22 258.838 145.179 258.883 145.127C258.927 145.076 258.96 145.014 258.977 144.948C259.245 143.508 257.231 142.597 258.582 132.721C259.165 132.704 259.767 132.677 260.385 132.653C260.601 132.642 260.81 132.575 260.991 132.457C261.172 132.34 261.318 132.176 261.415 131.983C261.723 131.242 261.929 130.454 262.222 129.699C265.173 121.979 266.239 113.667 265.333 105.452Z" fill="#212941"/>
<path d="M257.211 111.016C257.194 107.341 257.047 103.665 256.764 100.094C256.518 96.5831 256.089 93.0876 255.477 89.6219C255.328 89.01 254.978 88.4658 254.482 88.0765C253.987 87.6873 253.376 87.4755 252.746 87.4751C251.271 87.5224 249.805 87.7122 248.366 88.0418C246.23 89.0567 248.14 92.2876 248.366 104.235C248.405 106.208 248.306 107.851 248.402 109.902C247.553 110.294 246.793 110.856 246.169 111.551C246.077 111.654 246.024 111.785 246.019 111.922C246.013 112.06 246.056 112.195 246.139 112.304C246.222 112.414 246.341 112.491 246.475 112.522C246.609 112.553 246.75 112.537 246.873 112.475C248.967 111.319 252.931 109.714 256.404 112.44C262.196 116.989 258.694 127.926 250.616 128.049C248.988 128.045 247.396 127.571 246.031 126.684C244.665 125.798 243.584 124.537 242.916 123.052C242.189 121.301 242.041 119.362 242.495 117.52C242.949 115.679 243.982 114.031 245.44 112.819C245.813 112.511 245.333 111.852 244.925 112.149C243.316 113.272 242.093 114.864 241.422 116.708C240.752 118.552 240.668 120.558 241.181 122.452C241.763 124.491 242.989 126.287 244.676 127.571C246.363 128.856 248.421 129.56 250.541 129.579C260.208 129.579 264.556 116.384 257.211 111.016ZM249.203 96.1099C248.473 88.5793 248.788 89.3862 249.22 89.2076C250.068 89.0344 250.93 88.9421 251.796 88.9319C253.49 88.6732 253.998 89.0305 254.32 90.7014C255.301 97.1582 255.811 103.678 255.848 110.209C253.914 109.245 251.7 109.001 249.603 109.52C249.871 105.047 249.739 100.559 249.209 96.1099H249.203Z" fill="#212941"/>
<path d="M248.779 115.17C247.908 115.546 247.174 116.181 246.678 116.99C246.181 117.798 245.947 118.74 246.007 119.687C246.069 120.625 246.395 121.526 246.948 122.286C247.501 123.046 248.258 123.634 249.132 123.981C250.04 124.289 251.016 124.338 251.95 124.123C252.885 123.907 253.74 123.436 254.422 122.761C255.42 121.764 255.982 120.411 255.983 119C255.958 118.745 255.867 118.5 255.719 118.289C255.572 118.079 255.374 117.91 255.143 117.798C255.088 117.767 255.028 117.749 254.966 117.745C254.904 117.741 254.842 117.75 254.784 117.773C254.727 117.796 254.675 117.832 254.633 117.878C254.591 117.924 254.56 117.978 254.542 118.038C254.365 118.698 254.597 119.285 254.456 119.91C254.332 120.424 254.105 120.907 253.788 121.329C253.471 121.751 253.071 122.105 252.613 122.367C252.155 122.629 251.647 122.794 251.123 122.853C250.598 122.912 250.067 122.863 249.562 122.709C248.925 122.453 248.374 122.023 247.973 121.467C247.571 120.91 247.336 120.252 247.295 119.567C247.305 118.835 247.467 118.114 247.772 117.449C248.077 116.783 248.517 116.189 249.064 115.703C249.307 115.461 249.112 115.047 248.779 115.17Z" fill="#212941"/>
<path d="M149.199 187.173C138.999 188.396 133.917 183.764 127.804 181.095C124.686 179.621 121.319 178.745 117.878 178.512C114.691 178.213 111.503 179.086 108.914 180.969C108.346 181.448 109.068 182.153 109.635 181.913C112.657 180.503 115.999 179.922 119.32 180.229C130.562 181.461 136.26 191.07 149.319 187.94C149.715 187.826 149.629 187.123 149.199 187.173Z" fill="#212941"/>
<path d="M106.216 185.627C109.959 184.908 113.803 184.897 117.551 185.593C119.572 185.944 121.551 186.502 123.458 187.26C126.503 188.429 128.463 189.584 129.794 189.664C129.859 189.662 129.922 189.642 129.976 189.606C130.03 189.569 130.072 189.518 130.097 189.458C130.123 189.398 130.13 189.332 130.119 189.268C130.108 189.204 130.078 189.145 130.034 189.097C129.2 188.283 128.214 187.641 127.132 187.207C124.069 185.638 120.777 184.56 117.378 184.013C113.55 183.266 109.591 183.575 105.925 184.907C105.48 185.102 105.787 185.727 106.216 185.627Z" fill="#212941"/>
<path d="M105.41 190.264C111.458 190.007 116.237 190.572 121.363 193.806C122.662 194.773 124.009 195.673 125.4 196.502C125.674 196.638 126.07 196.348 125.862 196.04C124.322 193.73 119.97 191.39 117.344 190.442C113.495 189.034 109.325 188.754 105.323 189.635C105.252 189.66 105.192 189.708 105.153 189.772C105.114 189.836 105.098 189.912 105.109 189.986C105.119 190.06 105.155 190.128 105.21 190.179C105.265 190.229 105.336 190.26 105.41 190.264Z" fill="#212941"/>
<path d="M105.409 194.385C107.2 194.26 107.836 194.947 114.957 198.543C115.864 199.131 116.89 199.512 117.961 199.66C118.026 199.658 118.089 199.637 118.142 199.601C118.196 199.564 118.238 199.513 118.263 199.453C118.288 199.394 118.296 199.328 118.285 199.264C118.274 199.2 118.245 199.141 118.202 199.093C117.289 198.271 116.229 197.629 115.077 197.203C113.845 196.577 112.613 195.962 111.367 195.355C109.448 194.404 107.534 193.169 105.341 193.672C105.26 193.696 105.19 193.748 105.143 193.818C105.095 193.888 105.074 193.972 105.082 194.057C105.09 194.141 105.127 194.22 105.186 194.279C105.246 194.339 105.325 194.377 105.409 194.385Z" fill="#212941"/>
<path d="M124.832 207.504C121.464 206.052 117.891 205.139 114.528 203.59C107.855 200.51 104.618 197.363 96.3082 198.009C93.3801 198.088 90.5133 198.865 87.946 200.276C87.8315 200.346 87.7461 200.455 87.7049 200.583C87.6637 200.711 87.6695 200.85 87.7213 200.974C87.773 201.098 87.8674 201.2 87.9873 201.261C88.1072 201.321 88.2449 201.337 88.3756 201.306C94.0736 199.791 99.8132 198.657 105.479 200.998C108.673 202.318 111.607 204.2 114.804 205.549C117.894 207.001 121.199 207.947 124.59 208.348C125.037 208.379 125.242 207.681 124.832 207.504Z" fill="#212941"/>
<path d="M110.75 209.891C105.668 206.041 100.804 203.215 94.4532 202.869C91.0845 202.77 87.7424 203.495 84.7173 204.98C83.9355 205.21 83.2487 205.686 82.7585 206.337C82.7272 206.393 82.7092 206.456 82.7057 206.52C82.7022 206.584 82.7133 206.648 82.7382 206.708C82.7631 206.767 82.8012 206.82 82.8495 206.862C82.8978 206.905 82.9552 206.936 83.0172 206.953C84.491 207.307 86.3497 206.164 87.7049 205.664C89.7941 204.854 92.0239 204.468 94.2638 204.53C100.017 204.751 105.561 207.597 110.372 210.524C110.808 210.792 111.13 210.181 110.75 209.891Z" fill="#212941"/>
<path d="M105.572 214.528C98.9504 210.955 95.1004 209.292 87.5544 209.96C86.0144 210.099 84.0124 210.141 82.8328 211.231C82.7742 211.296 82.7355 211.377 82.7211 211.463C82.7067 211.55 82.7173 211.639 82.7515 211.72C82.7857 211.8 82.8423 211.87 82.9145 211.92C82.9867 211.969 83.0716 211.998 83.1593 212.001C84.6993 212.018 86.3178 211.423 87.8809 211.28C95.1297 210.61 98.6501 212.332 105.328 215.058C105.649 215.215 105.854 214.685 105.572 214.528Z" fill="#212941"/>
<path d="M121.947 236.749C118.009 232.651 112.487 231.252 107.368 229.203C97.1129 225.109 96.7125 218.979 86.8858 219.448C85.0675 219.431 83.2656 219.794 81.5959 220.514C81.3017 220.668 81.4927 221.03 81.7499 221.062C83.859 221.094 85.9679 220.991 88.0639 220.754C95.2018 220.754 97.5487 225.544 102.866 228.48C108.84 231.782 116.418 232.375 121.48 237.205C121.509 237.241 121.545 237.27 121.585 237.292C121.626 237.313 121.671 237.326 121.717 237.329C121.763 237.332 121.809 237.325 121.852 237.309C121.895 237.293 121.934 237.268 121.967 237.236C122 237.204 122.026 237.165 122.043 237.123C122.06 237.08 122.068 237.034 122.066 236.988C122.064 236.942 122.052 236.897 122.032 236.856C122.011 236.814 121.982 236.778 121.947 236.749Z" fill="#212941"/>
<path d="M84.7685 216.228C89.8181 216.382 92.1713 215.626 95.9812 217.499C96.8446 218.058 97.7972 218.464 98.7979 218.701C98.8623 218.702 98.9259 218.686 98.9817 218.653C99.0375 218.621 99.0836 218.574 99.1151 218.518C99.1467 218.462 99.1624 218.398 99.1608 218.334C99.1592 218.269 99.1402 218.206 99.1059 218.152C98.3455 217.282 97.3761 216.62 96.2892 216.228C95.2256 215.715 94.0916 215.362 92.9243 215.181C90.178 214.754 87.3737 214.888 84.6807 215.575C84.6085 215.602 84.5474 215.652 84.5076 215.718C84.4679 215.783 84.4517 215.861 84.462 215.937C84.4722 216.013 84.5082 216.084 84.564 216.137C84.6197 216.19 84.6918 216.222 84.7685 216.228Z" fill="#212941"/>
<path d="M280.58 253.062C287.062 235.893 293.219 218.075 293.306 199.519C293.442 167.926 276.57 148.789 257.468 144.706C249.85 143.144 241.926 144.266 235.042 147.883C217.375 156.769 211.877 170.737 200.286 180.596C193.784 186.126 187.079 188.658 176.999 188.393C168.034 188.157 152.193 184.951 142.949 182.949C142.864 182.926 142.773 182.932 142.692 182.966C142.611 183 142.544 183.061 142.502 183.138C137.699 192.519 132.595 203.004 132.541 203.158C129.123 202.013 125.613 201.163 122.049 200.617C121.98 200.616 121.912 200.633 121.852 200.666C121.792 200.699 121.741 200.748 121.706 200.807C110.504 220.899 108.391 232.984 107.282 233.983C107.245 234.019 107.216 234.062 107.196 234.109C107.176 234.156 107.166 234.207 107.166 234.258C107.166 234.309 107.176 234.36 107.196 234.407C107.216 234.454 107.245 234.497 107.282 234.533C111.411 237.922 116.07 240.608 121.071 242.482C155.684 257.217 167.682 256.025 186.478 255.397C192.068 255.342 197.631 254.622 203.05 253.25C205.711 252.509 203.717 253.074 280.58 253.062ZM146.075 206.148C142.541 206.164 139.044 205.421 135.823 203.967C135.73 203.911 135.661 203.824 135.627 203.721C135.593 203.618 135.598 203.507 135.639 203.407C135.681 203.307 135.757 203.226 135.854 203.177C135.951 203.129 136.061 203.117 136.166 203.143C140.551 204.606 156.533 204.98 160.997 204.98C189.333 204.98 203.347 196.958 214.968 182.469C218.653 177.875 221.444 173.136 225.633 166.687C225.726 166.527 225.879 166.412 226.057 166.365C226.236 166.318 226.426 166.345 226.585 166.438C226.744 166.531 226.86 166.684 226.907 166.863C226.953 167.041 226.927 167.231 226.834 167.39C223.63 174.021 219.541 180.186 214.677 185.716C196.476 206.888 173.923 207.939 146.075 206.148ZM268.197 204.243C264.485 212.569 257.805 219.367 251.214 225.518C244.885 231.475 238.087 236.914 230.886 241.78C223.997 246.379 216.282 250.404 208.012 251.655C207.918 251.677 207.819 251.662 207.735 251.613C207.652 251.564 207.591 251.484 207.565 251.391C207.538 251.298 207.549 251.199 207.594 251.113C207.639 251.028 207.715 250.963 207.807 250.932C216.142 247.956 224.061 243.922 231.369 238.93C237.983 234.217 244.265 229.055 250.169 223.48C256.313 217.619 262.503 211.254 266.019 203.423C269.766 195.078 269.629 184.911 268.115 176.011C266.307 165.395 261.718 160.336 254.549 157.105C253.484 156.626 254.309 155.177 255.287 155.354C264.773 157.062 269.395 168.028 270.639 176.475C271.987 185.629 272.028 195.656 268.197 204.243Z" fill="#3A5AB7"/>
<path d="M103.506 186.45C103.198 186.066 103.472 186.251 95.806 185.49C97.1423 184.36 98.4147 183.156 99.6175 181.885C100.013 181.472 99.4805 180.665 98.9661 181.043C97.1797 182.366 95.5134 183.825 93.8487 185.284C89.8647 184.873 85.8977 184.409 81.9306 183.927C83.7384 182.58 85.4376 181.094 87.0126 179.481C87.0862 179.402 87.1292 179.3 87.134 179.192C87.1387 179.085 87.105 178.979 87.0387 178.894C86.9725 178.809 86.8781 178.75 86.7726 178.729C86.667 178.707 86.5572 178.724 86.4628 178.776C84.1735 180.223 82.014 181.866 80.0087 183.687C76.5976 183.276 72.8 182.763 69.9802 182.486C72.1853 181.097 74.2807 179.541 76.248 177.832C76.6269 177.488 76.1448 176.956 75.7337 177.162C72.8881 178.655 70.1764 180.39 67.6286 182.349C65.7306 182.249 63.8274 182.329 61.9445 182.589C61.5318 182.64 61.6365 183.345 62.0477 183.31C63.443 183.23 64.8419 183.235 66.2365 183.326C63.6185 185.164 57.343 189.63 56.8271 190.007C55.7491 189.87 54.6465 189.75 53.5469 189.611C53.1172 189.56 53.0325 190.264 53.4437 190.35C54.1998 190.504 54.9375 190.658 55.6936 190.797C52.7225 192.944 49.7688 195.124 46.8325 197.339C45.1847 197.254 43.5184 197.219 41.8706 197.236C41.7726 197.236 41.6786 197.275 41.6093 197.344C41.5399 197.413 41.501 197.507 41.501 197.605C41.501 197.703 41.5399 197.797 41.6093 197.867C41.6786 197.936 41.7726 197.975 41.8706 197.975C43.1026 198.06 44.3608 198.163 45.5959 198.283C43.8803 199.578 36.7901 204.994 36.3559 205.425C34.5002 205.322 32.646 205.255 30.7734 205.255C30.3268 205.255 30.3452 205.906 30.7734 205.941C32.2687 206.061 33.7456 206.182 35.2209 206.336C33.6516 207.592 32.9109 208.062 32.4735 208.86C32.4494 208.901 32.4383 208.948 32.4418 208.996C32.4453 209.044 32.4631 209.089 32.493 209.126C32.5229 209.164 32.5634 209.191 32.6092 209.205C32.6549 209.218 32.7037 209.218 32.7492 209.203C33.5192 209.009 33.7579 208.716 36.6808 206.525C36.6977 206.508 36.7332 206.491 36.7501 206.473C40.8881 206.919 45.0261 207.469 49.1656 208.053C47.9459 209.049 46.7093 210.029 45.5081 211.04C45.2155 211.282 45.5928 211.796 45.9193 211.59C47.5162 210.512 49.0963 209.393 50.6424 208.276C54.6464 208.843 58.6273 209.443 62.6283 209.993C61.598 210.8 60.5847 211.626 59.6237 212.5C59.5662 212.562 59.5325 212.641 59.5286 212.725C59.5247 212.809 59.551 212.892 59.6026 212.958C59.6543 213.025 59.7279 213.07 59.8103 213.087C59.8927 213.104 59.9783 213.091 60.0518 213.05C61.5118 212.191 62.9024 211.213 64.2945 210.216C68.1923 210.749 72.107 211.213 76.0216 211.573C74.9744 212.397 73.9272 213.239 72.897 214.08C72.5536 214.356 73.0002 214.94 73.359 214.681C74.2491 214.065 76.8194 212.354 77.6787 211.649L79.3912 211.763C79.534 211.772 79.6767 211.743 79.805 211.68C79.9334 211.617 80.0429 211.521 80.1227 211.402C80.1718 211.329 80.2007 211.244 80.2065 211.156C80.2123 211.067 80.1949 210.979 80.1558 210.9C80.1168 210.821 80.0577 210.753 79.9843 210.704C79.9109 210.655 79.8258 210.626 79.7377 210.62L78.903 210.564C79.385 210.138 79.964 209.64 80.6185 209.138C80.6674 209.101 80.7056 209.052 80.7295 208.995C80.7534 208.938 80.7621 208.876 80.7548 208.815C80.7475 208.754 80.7245 208.696 80.6879 208.647C80.6513 208.597 80.6024 208.558 80.5462 208.533C80.4292 208.482 80.3006 208.463 80.1738 208.478C80.0469 208.494 79.9266 208.543 79.8254 208.621C79.0755 209.205 78.3147 209.788 77.5663 210.372C71.8683 209.91 66.7262 209.155 65.8623 209.049C71.3246 204.951 72.1593 204.344 74.8605 202.284C77.4523 202.672 80.0441 203.031 82.6498 203.325C82.735 203.334 82.8211 203.323 82.9013 203.292C82.9815 203.262 83.0535 203.214 83.1118 203.151C83.4783 202.755 83.1118 202.073 82.5358 202.007C80.4337 201.766 78.4302 201.488 76.2973 201.184C78.9584 199.141 81.6195 197.063 84.2483 194.967C96.7346 196.438 97.828 196.674 98.692 195.737C100.609 193.648 101.449 193.714 101.393 193.104C101.344 192.525 100.42 192.429 99.9286 192.824C99.6945 193.012 97.8481 194.475 97.1782 195.024C93.8302 194.681 86.2226 193.822 85.7591 193.754C87.6656 192.214 93.4005 187.503 94.3831 186.679C96.9164 186.939 99.4651 187.186 103.036 187.517C103.162 187.522 103.286 187.489 103.393 187.422C103.499 187.355 103.584 187.258 103.634 187.143C103.685 187.028 103.7 186.9 103.677 186.777C103.654 186.653 103.594 186.539 103.506 186.45ZM68.4895 183.499C71.1876 183.788 74.2214 184.269 78.6042 184.856C75.9431 186.984 70.1558 191.587 69.9325 191.775C68.4387 191.57 61.0544 190.557 58.8568 190.264C61.0975 188.658 66.2057 185.047 68.4895 183.499ZM57.6032 191.157C61.2253 191.827 64.8412 192.377 68.4895 192.908C65.9649 194.901 63.4296 196.888 60.8834 198.868C55.917 198.135 52.3934 197.742 48.9315 197.459C50.4561 196.392 51.1784 195.76 57.6032 191.157ZM50.6317 206.904C46.4275 206.333 42.2602 205.826 38.0268 205.547C38.7968 204.97 43.463 201.472 47.5578 198.472C51.5618 198.868 55.5427 199.366 59.5098 199.932C57.7572 201.304 51.8267 205.943 50.6317 206.904ZM64.1837 208.844C60.1997 208.294 56.2342 207.694 52.2502 207.127C55.3302 204.86 58.3455 202.543 61.3685 200.206C68.719 201.338 69.0855 201.438 73.148 202.062C67.7903 206.214 66.1795 207.344 64.179 208.85L64.1837 208.844ZM74.5725 200.963C70.6239 200.379 66.6923 199.743 62.7422 199.159C65.3007 197.185 67.8478 195.193 70.3837 193.184C74.4878 193.749 77.4677 194.173 82.4388 194.781C79.826 196.859 77.2023 198.919 74.5679 200.963H74.5725ZM83.9326 193.561C79.8968 193.081 75.861 192.568 71.8251 192.021C76.0802 188.658 76.3497 188.436 80.4984 185.119C83.3212 185.484 87.6918 186 92.4673 186.505C90.9181 187.828 84.4116 193.236 83.928 193.561H83.9326Z" fill="#212941"/>
</svg>
