<svg width="294" height="220" viewBox="0 0 294 220" fill="none" xmlns="http://www.w3.org/2000/svg">
<path d="M203.958 173.285C203.958 156.945 169.187 143.643 126.081 143.33V150.685C128.6 150.71 131.118 150.795 133.636 150.939C150.359 151.91 184.55 158.014 184.55 173.547C183.124 190.696 145.044 195.569 127.962 195.941C109.892 196.379 67.85 191.843 64.5714 174.853C63.6812 168.782 68.4506 164.407 73.7159 161.241L73.7775 161.216C72.5963 160.383 71.526 159.368 70.3679 158.504C68.1072 156.84 65.6707 155.43 63.1022 154.298C51.8602 159.462 45.0996 166.081 45.0996 173.285C45.1753 176.325 46.266 179.252 48.1981 181.601C48.6324 187.468 48.5323 193.434 48.5862 199.294C78.8949 220.72 119.443 221.889 154.555 215.096C171.413 211.85 187.819 206.735 201.561 196.197C201.544 190.446 201.865 184.699 202.521 178.986C203.45 177.228 203.943 175.273 203.958 173.285Z" fill="#3A5AB7"/>
<path d="M91.7945 154.352L91.8192 154.327C98.7009 152.686 105.706 151.613 112.763 151.118C115.946 150.878 119.138 150.737 122.34 150.696V143.341C110.533 143.408 98.758 144.583 87.1699 146.849C89.7294 148.637 92.0687 151.599 91.7945 154.352Z" fill="#3A5AB7"/>
<path d="M203.308 177.129C202.929 178.226 202.421 179.274 201.795 180.252C201.581 182.366 201.379 184.485 201.217 186.606C200.992 189.686 200.843 192.789 200.868 195.846C194.171 200.83 186.781 204.808 178.933 207.653C170.955 210.547 162.745 212.757 154.392 214.258C136.46 217.859 118.088 218.732 99.896 216.847C81.918 214.745 64.476 209.245 49.5195 198.806C49.4933 194.974 49.5195 191.116 49.4317 187.285C49.3875 185.808 49.3218 184.332 49.2346 182.859C48.4418 181.98 47.7305 181.03 47.1094 180.022C47.3219 182.44 47.4328 184.887 47.4913 187.334C47.6145 191.329 47.5899 195.342 47.6145 199.315C47.6192 199.467 47.6587 199.615 47.73 199.749C47.8014 199.882 47.9025 199.997 48.0257 200.085C63.3179 210.885 81.1957 216.597 99.6726 218.719C118.05 220.586 136.605 219.654 154.703 215.957C163.132 214.389 171.411 212.104 179.451 209.127C187.527 206.136 195.112 201.959 201.958 196.734L202.232 196.186C202.144 193.038 202.269 189.872 202.494 186.694C202.719 183.515 203.008 180.301 203.308 177.129Z" fill="#212941"/>
<path d="M48.2202 63.0669C48.2561 64.0564 48.1723 65.0466 47.9707 66.016C47.6061 67.3614 46.8013 68.5458 45.6847 69.3802C44.5682 70.2145 43.2042 70.6507 41.8107 70.6191C38.2687 70.4651 34.2955 68.463 31.1108 66.9739C29.6801 66.2901 27.8013 63.7645 26.4569 64.7101C24.3671 66.2147 28.0492 68.5293 28.9332 69.387C29.2814 69.7301 29.6017 70.1004 29.8911 70.4943C30.7321 71.8048 31.4853 73.1697 32.1456 74.5799C33.9936 77.9772 36.9843 81.6639 41.2902 80.552C42.1284 80.3684 42.8983 79.9533 43.5124 79.3539C44.0461 78.777 44.468 78.106 44.7567 77.375C45.1907 76.2164 45.422 74.9916 45.4405 73.7545C46.1484 75.5811 47.366 77.166 48.9486 78.3206C49.4322 78.64 49.9919 78.8254 50.5706 78.8581C51.1493 78.8907 51.7263 78.7694 52.2428 78.5065C52.7593 78.2435 53.1969 77.8483 53.5109 77.3612C53.825 76.8741 54.0043 76.3124 54.0306 75.7334C54.0853 74.117 53.7879 72.5079 53.1589 71.0179C52.3258 68.4923 51.2801 66.0037 50.5717 63.4719L48.2202 63.0669Z" fill="#FF9500"/>
<path d="M203.871 86.3595C200.268 85.2985 196.608 84.4388 192.909 83.7846C186.825 82.5033 180.331 81.222 174.246 83.087C179.342 75.4892 185.661 68.7878 192.946 63.2548C197.5 59.6589 202.34 56.2879 208.014 54.8064C208.249 56.243 208.796 57.6104 209.617 58.8124C210.438 60.0143 211.513 61.0214 212.766 61.7626C210.167 70.0355 207.205 78.0866 203.933 86.1115" fill="#3A5AB7"/>
<path d="M187.419 148.321C194.288 151.56 201.518 153.97 208.956 155.499C226.686 158.96 248.908 160.266 266.078 153.409C265.916 149.664 266.452 137.683 266.078 133.962C253.624 138.729 241.438 138.305 227.994 132.718C224.783 131.375 218.948 128.015 216.752 125.229C211.414 129.484 205.33 135.892 198.438 136.911C195.438 137.347 189.106 136.774 186.791 134.585C186.854 139.015 187.407 148.321 187.407 148.321" fill="#3A5AB7"/>
<path d="M232.99 97.1302C232.99 97.1302 247.409 100.018 251.721 98.9967C264.674 95.9167 278.97 94.9157 291.673 90.8855C287.922 73.348 265.581 53.8208 247.286 54.4552C246.911 55.2439 246.377 55.9468 245.718 56.5204C248.755 57.2673 248.755 60.1163 246.975 62.243C252.998 65.939 247.847 74.5245 242.012 74.9095C240.164 81.3175 235.268 90.8732 232.99 97.1302Z" fill="#3A5AB7"/>
<path d="M219.439 23.1147C219.077 22.9242 218.703 22.7581 218.319 22.6173C218.046 22.5542 217.156 22.6065 216.975 22.953C216.773 23.3411 217.129 23.9817 217.486 24.2466C217.862 24.4789 218.257 24.6788 218.667 24.8441C219.163 25.0536 220.415 25.1013 220.597 24.6208C220.798 24.0788 219.888 23.3796 219.439 23.1147Z" fill="#212941"/>
<path d="M231.462 22.505C231.346 21.9275 229.922 21.9583 229.745 21.9706C228.952 22.0864 228.183 22.3298 227.468 22.6913C227.314 22.7945 226.558 23.5214 226.709 23.9357C226.86 24.3499 227.941 24.3977 228.095 24.3838C228.769 24.2137 229.433 24.0081 230.085 23.7678C230.379 23.6354 231.57 23.044 231.462 22.505Z" fill="#212941"/>
<path d="M228.243 40.0655C227.106 39.7899 226.036 39.291 225.095 38.5979C224.895 38.4506 224.647 38.3864 224.401 38.4189C224.155 38.4513 223.931 38.5779 223.777 38.7719C223.124 39.5381 222.385 40.2269 221.574 40.8247C220.432 41.6732 220.027 42.0059 220.23 42.4294C220.469 43.0454 221.77 42.6126 222.371 42.3678C223.248 41.95 224.033 41.3622 224.681 40.6384C225.787 41.3351 227.058 41.7296 228.364 41.7826C229.013 41.7991 229.662 41.7615 230.305 41.6702C230.455 41.6711 230.6 41.6153 230.711 41.5139C230.821 41.4125 230.89 41.2731 230.902 41.1235C230.905 40.4212 230.334 40.6368 228.243 40.0655Z" fill="#212941"/>
<path d="M245.03 25.8637C244.282 25.6105 243.486 25.534 242.704 25.6404C242.339 25.6987 241.978 25.7862 241.626 25.9022C241.559 25.9253 241.492 25.9499 241.428 25.9746C241.505 25.8857 241.562 25.7816 241.596 25.6691C241.63 25.5566 241.64 25.4382 241.625 25.3216C241.563 24.7056 241.515 23.5506 241.067 19.8392C241.974 19.5834 242.851 19.2334 243.685 18.7951C244.239 18.5698 244.699 18.1619 244.988 17.6391C245.278 17.1164 245.38 16.5102 245.278 15.9214C245.213 15.5953 245.052 15.296 244.816 15.0621C245.063 14.918 245.3 14.7558 245.524 14.577C246.406 13.9498 247.116 13.1117 247.591 12.1392C247.892 11.6169 248.03 11.0159 247.985 10.4145C247.941 9.81303 247.716 9.23885 247.341 8.76659C246.839 8.19109 246.176 7.77959 245.438 7.58541C246.184 6.79702 246.711 5.82782 246.969 4.77337C247.141 4.04363 247.056 3.27653 246.727 2.60266C246.398 1.92878 245.845 1.38977 245.164 1.07737C244.343 0.596601 243.413 0.332869 242.462 0.311045C241.511 0.28922 240.57 0.510023 239.728 0.952631C237.795 1.85507 235.108 4.16815 233.414 4.69791C229.232 5.96533 224.42 5.55107 220.213 7.17423C217.618 8.16668 215.476 10.074 214.191 12.5365C213.528 13.8204 213.074 15.2024 212.848 16.6298C212.742 17.395 212.713 18.1688 212.761 18.9398C212.761 19.0122 212.776 19.0838 212.804 19.1503C212.833 19.2168 212.874 19.2768 212.927 19.3268C212.979 19.3767 213.041 19.4155 213.109 19.4408C213.177 19.4662 213.249 19.4775 213.321 19.4742C213.606 19.4619 213.714 19.2463 213.856 19.0384C215.931 16.0107 218.095 13.9071 221.743 14.6217C224.131 15.3087 226.404 16.3467 228.487 17.7017C230.215 18.751 232.072 19.571 234.011 20.141C234.038 20.927 234.226 21.6992 234.561 22.4104C234.897 23.1216 235.374 23.7569 235.964 24.2775C237.148 25.5291 238.771 26.2736 240.493 26.3549C240.381 26.4244 240.296 26.5308 240.254 26.6558C240.212 26.7808 240.215 26.9165 240.262 27.0397C240.31 27.1628 240.398 27.2656 240.513 27.3304C240.628 27.3951 240.762 27.4178 240.892 27.3944C241.415 27.3821 241.95 27.4191 242.51 27.4314C243.144 27.4002 243.779 27.4762 244.388 27.6562C244.71 27.7748 245.003 27.9593 245.25 28.198C245.497 28.4366 245.691 28.7242 245.82 29.0422C246.302 30.1926 245.341 31.092 244.164 31.5062C243.686 31.6719 243.197 31.8032 242.7 31.8989C242.397 31.1976 241.885 30.6063 241.235 30.2049C240.08 29.5135 239.004 30.148 238.05 31.1012C237.434 31.7172 236.868 32.769 236.147 33.5283C236.027 33.7042 235.87 33.852 235.688 33.9615C235.505 34.071 235.301 34.1397 235.089 34.1627C234.804 34.1351 234.528 34.0458 234.281 33.9009C233.335 33.4035 232.402 32.5704 231.618 32.1962C229.345 31.0413 226.808 30.5058 224.263 30.6438C224.202 29.3668 224.051 28.0956 223.81 26.84C223.568 26.0608 223.229 25.4109 222.778 25.454C222.201 25.5002 221.994 26.8662 221.994 27.0957C222.07 28.3825 222.251 29.6609 222.536 30.918C220.788 31.3898 219.261 32.4623 218.224 33.9471C218.012 34.2721 217.664 34.9312 217.228 35.5025C217.169 35.6088 217.093 35.7053 217.005 35.789V35.7643C216.735 34.823 216.301 33.9368 215.724 33.1463C215.558 32.9603 215.352 32.8151 215.12 32.7224C214.889 32.6297 214.64 32.5919 214.391 32.612C214.215 32.6287 214.046 32.6884 213.899 32.7859C213.751 32.8834 213.63 33.0156 213.546 33.171C213.291 33.7676 213.172 34.4137 213.198 35.0621L213.179 35.9969C212.722 35.9486 212.271 35.8526 211.833 35.7104C211.174 35.5359 210.589 35.1516 210.167 34.6155C209.805 34.1537 209.617 33.5794 209.635 32.993C209.653 32.4065 209.876 31.8449 210.266 31.4061C210.66 30.9084 211.164 30.5081 211.738 30.2363C212.312 29.9644 212.94 29.8283 213.575 29.8384C213.708 29.8432 213.84 29.8214 213.964 29.7743C214.088 29.7272 214.201 29.6558 214.298 29.5643C214.388 29.4752 214.458 29.3685 214.506 29.2509C214.553 29.1333 214.575 29.0072 214.572 28.8805C214.572 27.2512 214.509 25.6214 214.384 23.991C214.359 23.4551 214.261 22.913 214.197 22.3848C214.134 21.8566 214.073 21.3284 214.011 20.7925C214.017 20.7185 214.007 20.6441 213.983 20.574C213.959 20.5039 213.92 20.4395 213.87 20.3848C213.82 20.3301 213.76 20.2862 213.692 20.2559C213.624 20.2257 213.551 20.2096 213.477 20.2088C213.327 20.2062 213.183 20.2618 213.074 20.3638C212.964 20.4658 212.899 20.6063 212.891 20.7555C212.83 21.3161 212.73 21.8504 212.705 22.4095C212.642 22.9577 212.605 23.4875 212.58 24.0526C212.58 25.3601 212.642 26.6706 212.668 27.9719C211.125 28.1916 209.728 29.0043 208.774 30.2373C208.118 30.9972 207.759 31.9686 207.764 32.9723C207.768 33.976 208.136 34.9441 208.798 35.6981C209.349 36.3371 210.076 36.8002 210.888 37.0302C211.621 37.2277 212.38 37.3134 213.139 37.2843C212.952 39.006 212.111 40.7647 211.804 42.5203C211.667 43.1193 211.615 43.7348 211.65 44.3483C211.643 44.8247 211.756 45.2952 211.978 45.717C212.199 46.1388 212.523 46.4984 212.919 46.763C213.323 47.0133 213.787 47.1505 214.262 47.1603C214.032 48.876 214.129 50.6198 214.549 52.2993C214.758 53.0454 215.13 53.736 215.638 54.3216C216.146 54.9073 216.777 55.3736 217.485 55.6873C217.551 55.7195 217.623 55.7382 217.697 55.7424C217.77 55.7466 217.844 55.7363 217.913 55.712C217.983 55.6876 218.047 55.6498 218.101 55.6006C218.156 55.5515 218.201 55.4919 218.232 55.4255C218.291 55.2897 218.296 55.1362 218.245 54.9971C218.194 54.858 218.091 54.744 217.958 54.6786C217.44 54.3931 216.99 53.9982 216.64 53.5214C216.29 53.0446 216.047 52.4973 215.93 51.9174C215.6 50.0055 215.684 48.045 216.178 46.1686C216.193 46.01 216.169 45.85 216.109 45.7027C216.048 45.5553 215.952 45.425 215.83 45.3231C215.7 45.2299 215.547 45.1727 215.388 45.1573C215.229 45.1419 215.068 45.1688 214.923 45.2353C214.764 45.3154 214.59 45.3572 214.412 45.3572C214.235 45.3572 214.06 45.3154 213.902 45.2353C213.763 45.1248 213.652 44.9821 213.581 44.8195C213.509 44.6569 213.478 44.4793 213.491 44.3021C213.513 43.3106 213.69 42.3287 214.014 41.3915C214.338 40.3135 214.698 39.2355 214.923 38.1683C215.047 37.5673 215.099 36.9536 215.077 36.3403L215.101 36.0662C215.126 36.1844 215.159 36.3007 215.2 36.4142C215.334 36.8488 215.509 37.2696 215.724 37.6709C215.82 37.8056 215.947 37.9161 216.094 37.9939C216.24 38.0716 216.403 38.1144 216.569 38.119C216.891 38.1101 217.208 38.0347 217.499 37.8977C217.791 37.7607 218.051 37.565 218.263 37.3228C218.827 36.6085 219.346 35.8602 219.818 35.0821C220.262 34.4142 220.845 33.8511 221.529 33.4322C222.212 33.0132 222.978 32.7485 223.775 32.6566C226.18 32.3807 228.613 32.8222 230.768 33.9256C231.525 34.2875 232.462 35.1206 233.386 35.5934C233.922 35.8945 234.525 36.057 235.14 36.0662C235.86 36.0297 236.544 35.7388 237.069 35.2454C237.978 34.4861 238.599 33.1664 239.346 32.421C239.558 32.1746 240.062 31.6217 240.34 31.785C240.707 32.0703 241.007 32.4319 241.219 32.8446C241.432 33.2572 241.552 33.7112 241.572 34.1751C241.768 35.8358 241.684 37.5177 241.324 39.1508C241.206 39.6906 240.967 40.1968 240.627 40.6323C240.504 40.7945 240.337 40.9173 240.145 40.9857C239.954 41.0541 239.747 41.065 239.549 41.0173C239.435 40.9872 239.315 40.9854 239.2 41.0123C239.085 41.0391 238.979 41.0937 238.89 41.1713C238.808 41.2499 238.745 41.3463 238.706 41.4532C238.667 41.56 238.654 41.6743 238.666 41.7873C238.907 42.9528 239.032 44.1392 239.039 45.3293C238.968 46.3684 238.804 47.3992 238.549 48.4093C237.983 48.9252 237.396 49.4303 236.8 49.9139C235.351 51.0966 234.014 51.979 232.856 53.037C231.458 54.2351 231.205 54.6216 231.487 55.0159C231.874 55.5302 232.445 55.1175 233.826 54.3999C236.058 53.0336 238.143 51.4411 240.048 49.6474C241.231 48.5194 242.275 47.2537 243.157 45.8775C243.444 45.4417 243.693 44.9936 243.941 44.5331C244.025 44.4044 244.055 44.2476 244.023 44.0972C243.992 43.9467 243.902 43.8149 243.773 43.7308C243.644 43.6466 243.488 43.617 243.337 43.6485C243.187 43.68 243.055 43.77 242.971 43.8986C242.07 44.9767 241.105 46.0001 240.082 46.9632C240.186 46.4394 240.257 45.9097 240.296 45.377C240.323 44.4087 240.282 43.4396 240.171 42.4772C240.592 42.4235 240.991 42.2605 241.329 42.0044C242.079 41.3708 242.602 40.511 242.821 39.5543C243.291 37.7232 243.439 35.8242 243.257 33.9425C243.22 33.6761 243.173 33.4143 243.112 33.1617C243.748 33.1781 244.383 33.115 245.004 32.9739C245.495 32.8813 245.961 32.6832 246.369 32.3933C246.776 32.1033 247.116 31.7284 247.365 31.2944C247.614 30.8604 247.766 30.3775 247.81 29.8792C247.854 29.3808 247.79 28.8788 247.622 28.4078C247.399 27.8219 247.052 27.2911 246.604 26.852C246.157 26.4129 245.62 26.0757 245.03 25.8637ZM239.667 24.3237C238.772 24.065 237.958 23.5809 237.304 22.9177C236.573 22.1846 235.966 21.3372 235.508 20.409C235.676 20.4259 235.844 20.4398 236.011 20.4475C237.267 20.4901 238.523 20.3904 239.755 20.1503C239.634 21.539 239.605 22.9342 239.667 24.3268V24.3237ZM236.085 18.6257C233.664 18.3423 231.338 17.5169 229.28 16.211C227.025 14.8266 224.571 13.7986 222.002 13.1633C220.498 12.9044 218.951 13.093 217.553 13.7057C216.155 14.3184 214.968 15.3282 214.139 16.6098C214.414 15.425 214.876 14.2913 215.506 13.2511C216.699 11.1748 218.612 9.60789 220.883 8.84667C224.631 7.46991 229.868 7.76867 233.983 6.50741C236.195 5.82981 238.435 3.65533 240.541 2.68667C241.102 2.37605 241.735 2.21735 242.376 2.22626C243.018 2.23518 243.646 2.4114 244.198 2.73749C244.404 2.82238 244.589 2.95124 244.74 3.11503C244.89 3.27883 245.004 3.47362 245.071 3.68575C245.139 3.89788 245.159 4.12222 245.131 4.34308C245.103 4.56394 245.027 4.77597 244.908 4.96433C244.396 6.00025 243.608 6.87438 242.63 7.48993C242.441 7.59755 242.296 7.76999 242.223 7.97562C242.15 8.18126 242.154 8.40631 242.233 8.60951C242.294 8.81925 242.428 9.00055 242.61 9.12121C242.792 9.24188 243.011 9.29411 243.228 9.26863C244.048 9.14453 244.886 9.30254 245.604 9.71677C245.838 9.91097 245.992 10.1839 246.038 10.4841C246.084 10.7843 246.018 11.0909 245.854 11.3461C245.508 12.024 245.004 12.6087 244.384 13.0509C243.738 13.5357 243.021 13.918 242.258 14.1843C242.038 14.2439 241.847 14.3814 241.721 14.5713C241.595 14.7611 241.542 14.9903 241.572 15.2161C241.608 15.4404 241.72 15.6453 241.891 15.7952C242.061 15.9452 242.279 16.0307 242.506 16.0369C242.797 16.0369 243.38 16.1278 243.476 16.3865C243.476 16.6637 243.077 16.9733 242.817 17.1319C240.731 18.18 238.419 18.6958 236.085 18.6334V18.6257Z" fill="#212941"/>
<path d="M240.448 54.7664C239.921 54.7048 239.912 55.0652 239.453 56.1231C238.934 57.2179 238.26 58.2319 237.451 59.1338C236.712 59.9208 235.876 60.6107 234.963 61.1867C233.841 62.0829 233.347 62.3632 233.544 62.8668C233.852 63.4982 235.238 63.0116 235.896 62.7544C237.017 62.15 238.03 61.3642 238.894 60.429C239.725 59.5551 240.343 58.501 240.699 57.349C240.905 56.5266 241.275 54.8896 240.448 54.7664Z" fill="#212941"/>
<path d="M241.876 60.4227C241.3 60.3257 241.367 60.7908 240.546 62.1891C239.853 63.533 238.931 64.7457 237.822 65.7727C237.276 66.438 236.543 67.3127 236.95 67.7377C237.327 68.2398 238.672 67.442 238.89 67.2896C240.441 66.1058 241.595 64.4784 242.2 62.6234C242.374 61.6055 242.575 60.5567 241.876 60.4227Z" fill="#212941"/>
<path d="M199.03 89.3394C196.714 89.4494 194.531 90.4581 192.946 92.1514C192.473 92.6411 191.595 93.599 192.074 94.081C192.455 94.4814 192.832 94.0887 193.593 93.5944C195.198 92.3123 197.108 91.4682 199.137 91.1442C200.566 90.8562 200.92 90.8362 200.977 90.3604C201.028 89.6489 199.734 89.4117 199.03 89.3394Z" fill="#212941"/>
<path d="M248.463 91.7757C248.338 91.2244 248.001 90.1987 247.405 90.2465C246.809 90.2942 246.658 91.6879 246.658 91.8512C246.655 93.1307 246.717 94.4095 246.845 95.6827C247.053 96.8023 247.197 97.8864 247.841 97.8387C248.314 97.8202 248.442 97.5307 248.662 95.6827C248.704 94.3771 248.638 93.0702 248.463 91.7757Z" fill="#212941"/>
<path d="M126.081 157.452V162.491C128.331 161.863 130.512 160.951 132.825 160.54C132.272 161.809 131.729 163.092 131.195 164.39C141.754 165.497 149.521 169.153 149.521 173.49C149.521 178.69 138.279 182.921 124.489 182.921C110.666 182.921 99.4544 178.69 99.4544 173.49C99.4544 169.165 107.168 165.517 117.688 164.404C117.092 163.076 116.508 161.743 115.971 160.4C118.088 161.065 120.221 161.595 122.33 162.211V157.471C99.864 157.896 81.9492 164.915 81.9492 173.5C81.9492 182.346 101.022 189.55 124.489 189.55C147.955 189.55 167.028 182.346 167.028 173.5C167.034 164.833 148.825 157.768 126.081 157.452Z" fill="#3A5AB7"/>
<path d="M128.872 170.302C128.667 170.839 128.467 171.375 128.271 171.911C125.844 171.811 123.37 171.849 120.906 171.799C120.724 171.333 120.537 170.867 120.345 170.403C117.573 170.999 115.705 172.125 115.705 173.411C115.705 175.316 119.798 176.858 124.862 176.858C129.925 176.858 134.019 175.318 134.019 173.411C134.019 172.048 131.921 170.865 128.872 170.302Z" fill="#FF9500"/>
<path d="M293.29 91.6385C290.225 72.4655 275.315 53.0846 255.868 50.8655C253.065 50.5633 250.236 50.6093 247.444 51.0026C247.369 51.0082 247.295 51.0289 247.228 51.0636C247.16 51.0984 247.101 51.1463 247.052 51.2046C247.004 51.2629 246.968 51.3304 246.946 51.4029C246.924 51.4755 246.917 51.5518 246.926 51.6271C246.934 51.7024 246.957 51.7752 246.995 51.8412C247.032 51.9073 247.082 51.9651 247.142 52.0113C247.202 52.0575 247.271 52.0912 247.344 52.1102C247.418 52.1293 247.494 52.1333 247.569 52.1221C250.266 51.8864 252.982 51.9784 255.657 52.3963C274.128 55.2761 287.958 72.9306 291.265 90.9409C278.067 92.233 266.198 95.6872 253.94 97.7708C253.791 97.7988 253.659 97.8839 253.572 98.0079C253.485 98.1319 253.45 98.2851 253.474 98.4346C253.498 98.5842 253.58 98.7183 253.702 98.8084C253.824 98.8984 253.976 98.9372 254.126 98.9166C264.181 97.4844 274.283 95.1528 284.383 93.6729C284.915 96.0411 285.306 98.439 285.553 100.854C285.986 105.517 285.255 110.215 283.424 114.526C281.593 118.836 278.721 122.625 275.064 125.551C269.653 130.127 262.98 132.952 255.928 133.651C242.259 134.656 228.712 130.487 217.973 121.972C221.741 117.709 224.836 112.897 227.152 107.701C228.62 104.525 229.914 101.271 231.029 97.9541C233.623 98.3837 232.763 98.3591 236.607 98.8473C237.322 98.9428 247.817 100.304 250.058 100.541C253.319 100.9 255.662 100.982 258.394 101.063C258.471 101.071 258.548 101.063 258.622 101.041C258.696 101.018 258.765 100.98 258.824 100.931C258.883 100.881 258.932 100.819 258.967 100.75C259.002 100.681 259.023 100.606 259.028 100.529C259.035 100.453 259.027 100.376 259.004 100.304C258.981 100.231 258.943 100.164 258.893 100.106C258.843 100.049 258.782 100.002 258.713 99.9685C258.645 99.9352 258.57 99.9164 258.494 99.913C256.646 99.6743 253.278 99.1214 250.841 98.7687C250.687 98.7472 242.12 97.5829 239.291 97.2626C236.692 96.9183 234.076 96.7229 231.454 96.6774C232.132 94.6292 232.765 92.561 233.37 90.4882C235.112 84.7024 236.604 78.855 238.421 73.3187C239.728 72.5892 240.909 71.6531 241.917 70.5467C243.014 69.3232 243.738 67.8124 244.007 66.1916C244.019 66.1154 244.016 66.0374 243.998 65.9624C243.98 65.8874 243.946 65.817 243.9 65.7553C243.853 65.6937 243.794 65.6421 243.727 65.6038C243.66 65.5655 243.586 65.5412 243.509 65.5325C243.36 65.51 243.207 65.5469 243.084 65.6351C242.961 65.7234 242.877 65.8562 242.85 66.0052C242.604 67.3935 241.963 68.6812 241.002 69.7136C239.996 70.7494 238.828 71.6148 237.543 72.2761C237.383 72.3512 237.259 72.4853 237.195 72.6503C235.267 78.2359 233.575 84.1341 231.772 90.0061C230.06 95.7817 227.951 101.432 225.458 106.915C219.926 118.652 208.915 131.247 196.405 132.161C186.559 132.852 177.641 125.58 174.484 116.383C171.464 107.605 173.7 97.1333 175.491 88.0904C175.514 87.9445 175.483 87.7951 175.403 87.671C175.323 87.5469 175.199 87.4571 175.056 87.4189C174.914 87.3869 174.764 87.4104 174.638 87.4848C174.512 87.5592 174.42 87.6789 174.379 87.8193C173.632 87.4066 172.653 86.8399 172.092 86.4734C171.881 86.3471 171.676 86.2147 171.476 86.0791C174.489 85.6618 177.532 85.5072 180.571 85.6171C188.493 86.3438 196.355 87.6116 204.104 89.4117C203.628 90.541 203.149 91.6704 202.667 92.7997C198.693 93.3223 195.074 95.3592 192.565 98.4854C192.512 98.5409 192.472 98.6068 192.447 98.6787C192.421 98.7507 192.411 98.8271 192.417 98.9032C192.423 98.9794 192.444 99.0534 192.48 99.1207C192.516 99.1879 192.566 99.2469 192.626 99.2939C192.684 99.3424 192.751 99.3791 192.823 99.4017C192.895 99.4243 192.971 99.4324 193.046 99.4255C193.121 99.4186 193.194 99.3969 193.261 99.3616C193.328 99.3264 193.387 99.2782 193.435 99.22C196.023 96.3945 199.603 94.678 203.426 94.429C203.573 94.4052 203.711 94.3465 203.831 94.2578C203.95 94.169 204.045 94.0529 204.11 93.9193C205.23 91.3567 206.388 88.8188 207.481 86.2547C211.126 78.144 214.102 69.7486 216.378 61.1527C216.434 60.955 216.421 60.7443 216.342 60.5547C216.263 60.3651 216.122 60.2079 215.942 60.1086C214.633 59.4532 213.515 58.4721 212.696 57.2596C211.815 56.0684 211.324 54.6346 211.29 53.1539C211.295 53.0778 211.285 53.0014 211.261 52.9292C211.236 52.857 211.197 52.7905 211.146 52.7337C211.095 52.6769 211.033 52.631 210.964 52.5987C210.895 52.5665 210.82 52.5485 210.744 52.5459C210.667 52.5433 210.591 52.5561 210.52 52.5836C210.449 52.6111 210.384 52.6527 210.329 52.7059C210.275 52.7591 210.231 52.8228 210.202 52.8932C210.172 52.9635 210.157 53.0391 210.158 53.1154C210.036 54.8616 210.452 56.6031 211.351 58.105C212.116 59.409 213.17 60.5202 214.431 61.3529C212.099 69.5991 209.194 77.6724 205.738 85.514C205.353 86.4575 204.963 87.3994 204.569 88.3399C196.191 85.5349 187.448 83.9661 178.617 83.6829C175.969 83.6672 173.338 84.1176 170.846 85.0135C172.411 82.4437 174.11 79.9578 175.936 77.566C181.362 70.1676 188.166 63.8861 195.973 59.066C198.577 57.5613 201.288 56.2513 204.085 55.1467C205.267 54.6986 206.449 54.3012 207.667 53.964C207.741 53.95 207.811 53.9212 207.873 53.8795C207.935 53.8378 207.988 53.784 208.029 53.7212C208.069 53.6585 208.097 53.5882 208.11 53.5145C208.123 53.4408 208.12 53.3653 208.103 53.2925C208.068 53.1452 207.977 53.0174 207.85 52.936C207.722 52.8546 207.568 52.8262 207.42 52.8567C206.137 53.0827 204.866 53.3736 203.613 53.7284C200.604 54.5908 197.718 55.8372 195.027 57.4367C186.94 62.3109 179.939 68.7943 174.46 76.4849C172.46 79.2811 170.648 82.2069 169.035 85.2429C168.952 85.3917 168.926 85.5654 168.96 85.7322C168.995 85.8989 169.088 86.0478 169.223 86.1515C169.772 86.5859 170.355 86.9772 170.965 87.3219C171.775 87.8193 173.171 88.5324 174.114 88.9897C171.906 98.5146 169.648 107.699 172.746 116.982C174.737 122.857 178.749 127.834 184.069 131.024C183.907 133.456 183.827 135.906 183.791 138.347C183.767 142.266 183.916 146.201 184.041 150.091C184.059 150.247 184.113 150.397 184.2 150.529C184.286 150.661 184.402 150.771 184.538 150.85C187.085 152.214 189.896 153.231 192.7 154.463C197.673 156.643 202.444 162.066 205.231 167.213C207.216 170.594 207.797 174.618 206.848 178.422C206.812 178.549 206.802 178.682 206.819 178.812C206.836 178.943 206.88 179.069 206.948 179.181C207.021 179.294 207.116 179.39 207.227 179.465C207.338 179.54 207.463 179.591 207.595 179.616L221.617 182.217C222.364 185.078 223.172 187.941 223.894 190.815C224.392 192.855 224.889 194.896 225.3 196.948C225.317 197.076 225.362 197.197 225.433 197.304C225.505 197.411 225.599 197.5 225.71 197.564C226.574 198.087 227.521 198.457 228.51 198.659C234.713 200.07 242.955 198.119 248.952 196.269C249.125 196.212 249.276 196.103 249.383 195.955C249.49 195.808 249.548 195.631 249.549 195.448C249.614 186.338 248.65 178.082 248.08 169.644C247.866 166.452 247.878 162.485 247.529 158.938C253.945 158.149 260.289 156.853 266.5 155.062C266.67 155.014 266.821 154.914 266.932 154.776C267.042 154.638 267.107 154.468 267.116 154.292C267.116 145.283 266.78 139.828 266.685 132.897C270.171 131.45 273.41 129.469 276.287 127.026C280.176 123.924 283.208 119.879 285.095 115.276C286.981 110.673 287.66 105.664 287.067 100.725C286.697 98.293 286.186 95.8851 285.538 93.5127C287.837 93.1939 290.136 92.926 292.431 92.7427C292.689 92.7109 292.924 92.5814 293.09 92.3808C293.172 92.2774 293.233 92.1582 293.267 92.0305C293.301 91.9028 293.309 91.7694 293.29 91.6385ZM243.539 173.308C243.269 174.232 239.932 173.064 239.296 172.81C238.14 172.342 237.048 171.727 236.048 170.981C234.607 169.933 233.438 168.556 232.639 166.963C232.395 166.393 231.633 164.328 232.428 164.051C232.922 163.897 233.019 164.186 234.232 166.091C234.991 167.407 236.017 168.549 237.245 169.444C238.117 170.113 239.054 170.693 240.043 171.173C243.223 172.77 243.762 172.612 243.539 173.308ZM265.481 153.625C260.359 154.993 255.156 156.033 249.902 156.736C241.717 157.864 233.453 158.321 225.193 158.103C216.944 157.921 208.739 156.853 200.719 154.919C195.573 153.685 190.587 151.857 185.864 149.47C185.615 145.774 185.391 142.054 185.267 138.334C185.213 136.112 185.177 133.882 185.233 131.666C188.702 133.5 192.613 134.335 196.529 134.078C204.289 133.525 211.918 128.344 217.165 122.836C227.953 132.042 241.941 136.613 256.084 135.555C259.317 135.248 262.495 134.507 265.531 133.354C265.49 138.154 265.624 149.105 265.481 153.625Z" fill="#212941"/>
<path d="M129.906 31.514C129.511 31.0951 129.049 31.5294 127.792 32.2486C127.53 32.4226 127.293 32.6089 127.033 32.7706C125.79 32.2116 125.992 32.2255 125.59 32.0499C124.536 31.5879 124.213 31.4786 123.922 31.7635C123.448 32.2255 124.269 33.3035 124.538 33.5422C125.208 34.0383 125.946 34.4365 126.728 34.7249C126.87 34.7856 127.024 34.8115 127.178 34.8005C127.331 34.7896 127.48 34.742 127.612 34.6618C128.084 34.3821 128.519 34.0436 128.905 33.6546C129.263 33.3343 130.416 32.0622 129.906 31.514Z" fill="#212941"/>
<path d="M127.094 26.2133C127.081 25.8714 126.89 23.1102 126.77 22.7544C126.746 22.6004 126.297 21.2914 125.751 21.3361C125.201 21.4069 124.981 22.7313 124.967 22.8915C124.978 24.1311 125.094 25.3676 125.315 26.5875C125.43 27.1619 125.777 28.668 126.447 28.5895C127.117 28.5109 127.106 26.4304 127.094 26.2133Z" fill="#212941"/>
<path d="M123.05 18.0867C122.427 17.5919 121.775 17.1348 121.098 16.7176C120.956 16.6298 119.847 16.3988 119.579 16.7808C119.311 17.1627 119.733 17.8926 120.064 18.2237C120.688 18.7342 121.358 19.1843 122.066 19.5682C122.374 19.6944 123.568 20.141 123.846 19.6544C124.136 19.2016 123.66 18.6457 123.05 18.0867Z" fill="#212941"/>
<path d="M132.305 15.3699C131.92 14.8416 130.816 15.3545 130.252 15.6779C129.402 16.2469 128.627 16.9194 127.942 17.6799C127.618 18.2219 127.3 18.9119 127.634 19.2476C128.007 19.6665 129.097 19.1044 129.389 18.8503C130.141 18.2368 130.86 17.5845 131.544 16.896C131.688 16.7466 132.595 15.8057 132.305 15.3699Z" fill="#212941"/>
<path d="M138.037 19.6959C138.898 18.2023 139.434 16.5433 139.609 14.828C139.74 12.7664 139.116 10.7276 137.855 9.0915C137.923 7.83515 137.592 6.58945 136.91 5.53256C135.805 3.9348 134.243 2.70778 132.43 2.01212C129.956 0.978798 127.213 0.77826 124.616 1.44078C121.027 2.56639 117.585 4.11741 114.364 6.06078C113.4 6.5962 112.371 7.00608 111.302 7.28046C110.662 7.43077 109.998 7.45172 109.35 7.34206C109.136 7.2996 108.915 7.329 108.72 7.42567C108.525 7.52234 108.367 7.68084 108.272 7.87644C108.183 8.07361 108.162 8.29505 108.214 8.50511C108.266 8.71517 108.387 8.90164 108.558 9.03452C109.183 9.56274 109.827 9.99702 110.449 10.4282C109.833 10.4559 108.495 10.4051 107.887 10.3774C107.678 10.3619 107.469 10.4173 107.296 10.5347C107.122 10.652 106.993 10.8245 106.929 11.0242C106.863 11.2255 106.865 11.4428 106.935 11.6428C107.004 11.8428 107.137 12.0145 107.314 12.1315C109.427 13.4822 111.76 14.4546 114.207 15.0051C114.186 16.0397 114.285 17.0732 114.501 18.0851C114.715 19.0092 115.06 19.898 115.525 20.7247C114.345 21.2956 113.429 22.2985 112.967 23.5259C112.649 24.333 112.584 25.2181 112.782 26.0629C112.98 26.9077 113.431 27.672 114.075 28.2537C114.483 28.6371 114.96 28.9405 115.481 29.1485C115.913 29.3195 116.364 29.4409 116.823 29.5104C116.929 31.3182 117.333 33.0962 118.018 34.7725C118.533 36.0008 119.3 37.1073 120.27 38.0204C120.355 39.8037 120.578 41.7364 120.656 42.511C119.645 42.8293 118.652 43.2036 117.683 43.6321C117.543 43.6908 117.43 43.8003 117.368 43.9385C117.305 44.0768 117.297 44.2336 117.345 44.3775C117.372 44.4492 117.412 44.515 117.464 44.571C117.516 44.6269 117.578 44.672 117.648 44.7034C117.718 44.7348 117.793 44.752 117.869 44.7539C117.945 44.7559 118.021 44.7426 118.092 44.7148C119.239 44.3097 120.417 44.0007 121.614 43.7908C121.795 43.7563 121.956 43.6555 122.067 43.5082C122.177 43.3609 122.228 43.1777 122.21 42.9946C122.138 41.567 122.099 40.2226 122.09 39.351C123.106 39.8395 124.222 40.0867 125.349 40.0732C125.965 40.0301 127.873 39.7976 127.776 38.9783C127.702 38.3623 127.228 38.5902 125.361 38.2699C123.96 38.1724 122.627 37.6235 121.564 36.7054C120.5 35.7874 119.763 34.5495 119.461 33.1771C118.977 31.7029 118.726 30.1625 118.715 28.611C118.719 28.3615 118.624 28.1206 118.45 27.9411C118.277 27.7615 118.04 27.658 117.791 27.6531C117.339 27.6512 116.89 27.5801 116.46 27.4421C116.065 27.3357 115.702 27.1348 115.402 26.8569C115.032 26.5293 114.769 26.0971 114.649 25.6174C114.53 25.1377 114.558 24.633 114.731 24.1696C114.894 23.7145 115.153 23.3 115.491 22.9545C115.829 22.6089 116.238 22.3405 116.689 22.1676C116.855 22.2244 117.034 22.2345 117.205 22.1969C117.396 22.1517 117.569 22.0506 117.702 21.9066C117.835 21.7626 117.922 21.5822 117.952 21.3884C118.031 20.7585 118.756 16.2263 118.808 15.5718C124.259 15.608 129.61 14.1123 134.252 11.2552C134.338 12.3871 134.175 17.9573 134.07 19.3926C134.059 19.5072 134.072 19.6228 134.106 19.7326C134.141 19.8424 134.197 19.9442 134.271 20.0322C134.345 20.1202 134.436 20.1926 134.539 20.2451C134.641 20.2976 134.753 20.3292 134.868 20.3381C136.421 20.4921 138.245 21.7934 137.653 23.6353C137.455 24.2235 137.118 24.7549 136.669 25.184C136.221 25.6131 135.675 25.9272 135.079 26.0993C134.887 26.1502 134.718 26.2612 134.594 26.4159C134.471 26.5706 134.4 26.7608 134.393 26.9586C134.341 28.9689 134.091 30.9692 133.648 32.9307C133.405 34.1412 132.86 35.2706 132.063 36.214C131.919 36.388 131.836 36.6043 131.826 36.83C131.877 37.737 131.902 38.6333 131.98 39.5542C132.043 40.4382 132.134 41.3329 132.217 42.2415C132.22 42.3376 132.242 42.4322 132.282 42.5196C132.322 42.6071 132.379 42.6856 132.45 42.7507C132.52 42.8157 132.603 42.8659 132.694 42.8983C132.784 42.9306 132.88 42.9445 132.976 42.9391C134.341 42.8972 135.707 42.9801 137.056 43.1871C137.131 43.2009 137.207 43.1996 137.281 43.1831C137.355 43.1667 137.425 43.1354 137.487 43.0913C137.549 43.0471 137.601 42.991 137.64 42.9262C137.68 42.8615 137.706 42.7894 137.717 42.7143C137.733 42.6396 137.734 42.5622 137.718 42.4873C137.703 42.4124 137.672 42.3415 137.627 42.2793C137.583 42.2172 137.525 42.1651 137.459 42.1265C137.393 42.0878 137.32 42.0636 137.244 42.0552C136.077 41.7864 134.894 41.591 133.702 41.47L133.628 37.1657C134.499 36.0555 135.128 34.7756 135.476 33.4081C135.937 31.5375 136.201 29.6235 136.261 27.6978C137.021 27.3725 137.701 26.888 138.257 26.2769C138.813 25.6658 139.231 24.9425 139.483 24.1558C139.746 23.3551 139.747 22.4916 139.487 21.6901C139.227 20.8885 138.719 20.1902 138.037 19.6959Z" fill="#212941"/>
<path d="M43.9748 39.7436C43.7053 38.0731 43.3397 36.4194 42.8799 34.791C42.8013 34.5076 42.1207 32.963 41.5355 33.1493C40.9857 33.2818 41.0365 34.7663 41.1012 35.1282C41.3849 36.79 41.7586 38.435 42.2208 40.0562C42.6458 41.4222 43.0277 42.628 43.6884 42.4694C44.2951 42.3231 44.1458 41.1281 43.9748 39.7436Z" fill="#212941"/>
<path d="M45.2824 45.9037C45.2862 45.7689 45.2417 45.6371 45.157 45.5321C45.0723 45.4271 44.953 45.3557 44.8204 45.3309C44.7426 45.2957 44.6578 45.2788 44.5724 45.2816C42.0192 45.007 39.4489 44.9236 36.8832 45.0321C36.6305 45.0433 36.3919 45.1521 36.2179 45.3357C36.0438 45.5192 35.9477 45.7632 35.95 46.0162C35.9351 47.0426 36.1388 48.0605 36.5475 49.0022C36.8527 49.6858 37.3129 50.289 37.8916 50.764C38.4703 51.239 39.1516 51.5727 39.8816 51.7388C40.6188 51.9146 41.3896 51.8897 42.1138 51.6665C42.838 51.4433 43.4892 51.0301 43.9996 50.4698C44.5305 49.8466 44.9201 49.1157 45.1416 48.3274C45.3631 47.5392 45.4111 46.7123 45.2824 45.9037ZM42.7814 49.2763C42.463 49.5898 42.0674 49.8134 41.6346 49.9245C41.2019 50.0357 40.7475 50.0304 40.3174 49.9093C39.8711 49.8005 39.4559 49.5902 39.1042 49.2948C38.7524 48.9994 38.4735 48.6268 38.2892 48.206C38.1049 47.7956 37.9874 47.3584 37.9412 46.9109C39.9896 46.9694 42.039 46.8364 44.0627 46.5136C43.9944 47.5619 43.5375 48.547 42.7814 49.2763Z" fill="#212941"/>
<path d="M54.7397 72.8228C54.0806 70.5205 52.6745 68.2444 52.3388 65.9544C52.3298 65.8809 52.3064 65.8099 52.27 65.7454C52.2335 65.6809 52.1847 65.6243 52.1264 65.5787C52.068 65.533 52.0013 65.4994 51.9299 65.4795C51.8586 65.4597 51.784 65.4542 51.7105 65.4632C51.637 65.4722 51.566 65.4956 51.5015 65.532C51.437 65.5685 51.3804 65.6172 51.3347 65.6756C51.2891 65.7339 51.2554 65.8007 51.2356 65.872C51.2158 65.9434 51.2102 66.018 51.2192 66.0915C51.4302 68.4431 52.6745 70.8331 53.2105 73.1955C53.4626 74.1042 53.4922 75.0603 53.2967 75.9829C53.277 76.3357 53.1772 76.6794 53.0048 76.9879C52.8325 77.2964 52.592 77.5615 52.3018 77.7631C51.9134 77.9273 51.4769 77.9361 51.0822 77.7878C49.0458 77.0431 47.3493 75.5841 46.3082 73.6821C46.2211 73.488 46.0696 73.3298 45.8793 73.2344C45.6891 73.139 45.4718 73.1122 45.2641 73.1586C45.0521 73.1942 44.8587 73.3013 44.7161 73.4622C44.5735 73.623 44.4902 73.8278 44.4802 74.0425C44.5111 75.0936 44.3011 76.1379 43.8663 77.0953C43.4315 78.0528 42.7833 78.8981 41.9715 79.5665C40.5655 80.512 38.6251 80.3873 36.4476 78.7457C35.6297 78.1051 34.9123 77.3457 34.3193 76.4926C33.4492 75.236 32.7269 73.8192 31.9554 72.4748C31.4119 71.5166 30.7962 70.6012 30.1135 69.7367C29.511 69.0374 28.8404 68.3997 28.1115 67.8332C27.3745 67.3125 26.6027 66.8427 25.8015 66.4272C25.6674 66.3549 25.5103 66.338 25.3638 66.38C25.2174 66.422 25.0931 66.5197 25.0177 66.652C24.9801 66.7154 24.9557 66.7858 24.9461 66.8588C24.9365 66.9319 24.9417 67.0061 24.9616 67.0771C24.9814 67.1481 25.0155 67.2143 25.0617 67.2717C25.1078 67.3291 25.1652 67.3766 25.2302 67.4113C25.9276 67.8549 26.585 68.3583 27.1952 68.9158C27.7997 69.4528 28.3347 70.0633 28.7876 70.733C29.3768 71.5641 29.9009 72.4393 30.3553 73.3511C31.0777 74.8076 31.8925 76.2165 32.7947 77.5691C33.4711 78.6106 34.3261 79.5245 35.3203 80.2687C38.3433 82.5587 41.0552 82.4971 43.0588 81.1527C44.4672 80.1273 45.4737 78.6426 45.9047 76.9546L45.9278 77.0193C46.2358 77.891 46.6116 78.7487 46.9611 79.6081C47.5448 81.0387 48.167 82.4694 48.8091 83.9001C49.208 84.8456 49.6192 85.7912 50.0535 86.7367C50.3399 87.3527 50.651 87.9811 50.9251 88.6032C51.3979 89.5488 51.8337 90.4512 52.3111 91.4029C52.3341 91.4723 52.3711 91.5362 52.42 91.5906C52.4688 91.645 52.5283 91.6888 52.5948 91.7191C52.6613 91.7495 52.7333 91.7658 52.8064 91.767C52.8795 91.7683 52.952 91.7544 53.0195 91.7263C53.0927 91.704 53.1604 91.6666 53.2183 91.6166C53.2762 91.5666 53.323 91.5051 53.3558 91.4359C53.3885 91.3668 53.4065 91.2916 53.4085 91.2151C53.4105 91.1386 53.3966 91.0625 53.3675 90.9917C53.0195 89.7982 52.6838 88.6032 52.2726 87.4205C52.1186 86.9585 51.9369 86.4873 51.7382 86.0345C51.4887 85.3369 51.2146 84.6485 50.9051 83.9678C50.5309 83.0099 50.1212 82.0644 49.6854 81.1065C49.3512 80.3149 49.0217 79.5157 48.6813 78.7195C49.282 79.1015 49.9366 79.3911 50.6233 79.5788C51.4633 79.8237 52.3648 79.744 53.1488 79.3555C53.6763 79.0224 54.1182 78.5702 54.4392 78.0353C54.7601 77.5004 54.9511 76.8976 54.9968 76.2755C55.159 75.1195 55.0713 73.9421 54.7397 72.8228Z" fill="#212941"/>
<path d="M80.8612 157.113C79.8316 155.306 78.4377 153.733 76.7679 152.493C76.5754 152.355 75.1987 151.583 74.8137 152.094C74.3886 152.663 75.4173 153.602 75.8716 154.149C76.5816 154.857 77.1899 155.321 79.1441 157.507C80.3515 158.598 80.6087 159.01 81.0845 158.676C81.5604 158.342 81.2108 157.812 80.8612 157.113Z" fill="#212941"/>
<path d="M84.9532 155.584C84.1759 153.736 83.0621 152.048 81.6684 150.607C81.5144 150.453 80.2824 149.456 79.8204 149.886C79.3153 150.316 80.2378 151.745 80.518 152.076C80.6243 152.23 83.0929 155.576 83.23 155.758C84.3742 157.223 84.5682 157.337 84.9471 157.144C85.483 156.859 85.2043 156.334 84.9532 155.584Z" fill="#212941"/>
<path d="M90.3807 154.56C88.0584 151.631 85.6642 148.759 83.1982 145.944C83.2098 145.883 83.2129 145.821 83.2074 145.759C80.6503 129.153 77.1145 112.713 72.6184 96.5237C73.1101 96.3378 73.6009 96.1489 74.0906 95.9569C74.3222 95.865 74.508 95.685 74.6073 95.4565C74.7065 95.2279 74.7112 94.9693 74.6204 94.7373C74.3472 93.9631 74.1189 93.1738 73.9366 92.3734C73.4623 90.433 73.1527 88.4417 72.7169 86.5014C71.4638 80.4785 69.0014 74.7727 65.4789 69.7292C63.2668 66.6776 60.1237 64.4268 56.5223 63.3151C56.7018 62.4089 56.6813 61.4744 56.4622 60.577C56.2416 59.7223 55.8479 58.9219 55.3057 58.2254C56.1024 57.4142 56.8308 56.5386 57.4832 55.6074C58.2315 54.6783 58.7444 53.5823 58.9785 52.4126C59.2126 51.2428 59.1608 50.0339 58.8277 48.8884C58.3896 47.6183 57.767 46.4196 56.9797 45.331C55.3627 42.827 54.3324 41.056 54.6697 38.1515C55.0461 36.0168 55.2832 33.8598 55.3796 31.6943C55.2563 28.3534 54.0754 25.1378 52.007 22.5113C49.9539 19.9137 47.2122 17.9452 44.0945 16.8302C39.2721 15.2015 34.0067 15.5006 29.3998 17.6649C27.9104 18.3394 26.639 19.4165 25.7288 20.7748C24.8187 22.1331 24.306 23.7186 24.2485 25.3526C23.186 25.5685 22.1824 26.0102 21.3056 26.6479C20.4287 27.2856 19.6992 28.1043 19.1665 29.0486C17.5156 32.0973 16.8587 35.5858 17.2877 39.0262C17.4494 40.209 17.9468 41.4902 18.1085 42.7469C18.2356 43.418 18.1578 44.1118 17.8852 44.7381C17.3383 45.7809 16.5166 46.6543 15.509 47.2637C14.3269 47.9836 13.2333 48.8395 12.2504 49.8139C11.379 50.7468 10.7585 51.8855 10.447 53.1234C10.2318 53.9797 10.2752 54.8805 10.5718 55.7121C10.8613 56.5205 11.3434 57.2462 11.9762 57.8266C12.2504 58.0884 12.7231 58.3501 13.0712 58.6735C13.1984 58.7616 13.2944 58.8878 13.3453 59.0339C13.3696 59.2277 13.3548 59.4245 13.3019 59.6125C13.249 59.8005 13.1591 59.9761 13.0373 60.1288C12.66 60.668 12.2485 61.1824 11.8053 61.6688C10.2813 62.3209 8.86688 63.2039 7.61188 64.2869C6.1143 65.539 4.83557 67.0316 3.8281 68.7036C1.39559 72.7714 0.323666 77.509 0.768122 82.2279C1.26554 88.7852 3.84812 95.3794 4.92612 102.148C5.32812 105.202 5.29442 108.297 4.82602 111.342C4.32816 114.495 3.99558 117.672 3.82964 120.86C3.79564 122.496 3.89866 124.131 4.13764 125.75C4.41046 127.796 5.1676 129.747 6.34612 131.441C7.52464 133.136 9.09053 134.524 10.9136 135.492C11.5493 135.837 12.2067 136.14 12.8818 136.4L12.757 136.562C10.9483 138.712 9.62785 141.23 8.887 143.94C7.81531 147.901 7.40784 152.012 7.68118 156.106C8.14318 164.045 10.082 171.908 10.4532 179.822C10.6381 183.165 10.4382 186.517 9.8572 189.814C9.82979 189.926 9.8266 190.043 9.84784 190.157C9.86909 190.27 9.91427 190.378 9.9804 190.473C10.9385 191.791 12.1744 192.883 13.6009 193.671C15.6973 194.799 17.968 195.566 20.3184 195.941C20.3217 199.971 20.5892 203.997 21.1192 207.992C21.2563 208.901 21.3672 209.784 21.5042 210.693C21.503 210.767 21.5166 210.84 21.5444 210.909C21.5721 210.977 21.6134 211.04 21.6657 211.092C21.718 211.144 21.7803 211.185 21.8489 211.213C21.9175 211.24 21.9909 211.254 22.0648 211.252C22.1416 211.253 22.2177 211.237 22.2883 211.207C22.3588 211.176 22.4224 211.132 22.4749 211.076C22.5273 211.019 22.5677 210.953 22.5933 210.881C22.6189 210.808 22.6293 210.731 22.6238 210.655C22.6869 209.672 22.7485 208.69 22.7485 207.695C22.7485 205.043 22.2311 198.841 22.0278 196.453C22.0155 196.363 22.0032 196.274 21.9893 196.186C27.1701 196.402 32.3596 196.274 37.5233 195.801C37.2271 199.542 37.1936 203.298 37.4232 207.043C37.4478 207.878 37.5464 208.699 37.6342 209.532C37.6711 210.092 37.7589 210.639 37.7959 211.187C37.803 211.338 37.8677 211.48 37.9767 211.584C38.0856 211.688 38.2304 211.746 38.3811 211.746C38.4562 211.747 38.5307 211.732 38.6002 211.703C38.6697 211.675 38.7329 211.633 38.7861 211.58C38.8393 211.527 38.8815 211.464 38.9103 211.394C38.9391 211.325 38.954 211.25 38.954 211.175C39.0032 210.129 39.108 209.096 39.1649 208.052C39.2342 206.745 39.2281 195.985 39.1988 195.6L39.4806 195.564C42.3994 195.205 45.2675 194.513 48.0292 193.502L48.2155 193.323C48.003 190.243 49.061 186.817 48.9362 183.755C48.9196 183.273 48.8682 182.792 48.7822 182.317C46.5144 179.841 45.2082 176.635 45.1001 173.279C45.1001 166.503 51.0892 160.244 61.15 155.227C61.1377 154.429 61.1253 153.621 61.0791 152.812C61.0648 152.52 61.0458 152.228 61.0222 151.937C63.2244 152.812 65.3804 153.736 67.3824 154.722C70.9775 156.284 74.1688 158.646 76.7132 161.627C76.7574 161.689 76.8134 161.742 76.8781 161.783C76.9427 161.823 77.0148 161.851 77.0901 161.863C77.1653 161.876 77.2424 161.874 77.3167 161.856C77.3911 161.839 77.4613 161.807 77.5233 161.763C77.6449 161.671 77.7258 161.535 77.7488 161.384C77.7718 161.234 77.7351 161.08 77.6465 160.956C75.0974 157.714 71.8284 155.111 68.0985 153.353C63.8927 151.241 59.5678 149.375 55.1455 147.766C53.1712 147.011 51.2324 146.278 49.3905 145.543C47.4255 144.724 45.4851 143.868 43.5478 142.969C43.1474 142.765 42.7562 142.56 42.3805 142.353C39.2693 140.639 36.3396 138.615 33.6363 136.311C29.6934 132.954 26.2116 129.091 23.2814 124.821C20.7694 121.227 18.544 117.442 16.6255 113.499C15.6553 111.522 14.7221 109.531 13.8766 107.502C13.0342 105.543 12.2519 103.574 11.5266 101.569C15.5752 94.7758 19.6193 90.0572 28.482 86.1256C49.6508 115.127 63.5493 127.19 79.9642 144.681C83.1982 148.152 86.4214 151.66 89.469 155.293C89.5665 155.414 89.7077 155.49 89.8618 155.507C90.0159 155.523 90.1701 155.478 90.2906 155.38C90.4111 155.283 90.488 155.141 90.5043 154.987C90.5206 154.833 90.4751 154.679 90.3776 154.559L90.3807 154.56ZM34.6758 55.0391C33.8012 54.677 33.0187 54.1238 32.3856 53.4201C31.7524 52.7164 31.2848 51.8799 31.0168 50.972C30.4596 49.0975 30.417 47.1075 30.8936 45.2109C30.9113 45.1031 30.9067 44.9929 30.8803 44.887C30.8538 44.781 30.8059 44.6816 30.7396 44.5949C30.6718 44.5071 30.5851 44.4358 30.4859 44.3862C30.3867 44.3366 30.2776 44.31 30.1667 44.3084C29.4198 44.2961 28.6375 44.4332 27.8906 44.4085C27.6378 44.404 27.3867 44.3662 27.1437 44.2961C26.7128 44.1602 26.3305 43.9022 26.0433 43.5534C25.756 43.2047 25.576 42.7801 25.5252 42.3311C25.4568 41.8734 25.5042 41.4059 25.6629 40.9712C25.8216 40.5365 26.0866 40.1484 26.4338 39.8424C26.773 39.6011 27.1666 39.4472 27.5795 39.3943C28.9395 39.3277 30.2942 39.1781 31.6359 38.9462C34.728 37.9378 37.5694 36.2814 39.9704 34.0875C41.8987 32.294 43.312 30.0171 44.0637 27.4932C46.0427 30.0942 47.2537 33.1974 47.5595 36.4514C48.1381 40.6561 47.9781 44.9296 47.0867 49.0794C46.4599 51.377 45.1586 54.1614 42.3481 54.8189C41.598 55.027 40.8329 55.1768 40.0597 55.2671C39.1603 55.4288 38.5489 55.5751 38.5043 56.1387C38.4596 56.7024 39.111 57.0627 39.9349 57.1212C40.4059 57.1409 40.8776 57.1074 41.341 57.0211C41.5483 56.9915 41.7539 56.9509 41.957 56.8995C42.0062 58.0822 41.9739 59.8825 41.8723 61.3085C41.8684 61.538 41.9445 61.7617 42.0875 61.9413C42.2305 62.1208 42.4315 62.245 42.6561 62.2926C44.2654 62.6375 45.9071 62.9086 47.5456 63.1719C47.6863 64.1718 47.5807 65.1909 47.2379 66.1407C46.8952 67.0905 46.3258 67.9422 45.579 68.6219C43.999 69.8663 41.5612 70.028 38.5366 68.9838C36.1253 68.0942 33.7876 67.0164 31.545 65.7606C29.5184 64.695 27.4763 63.6046 25.4143 62.7084C26.9158 62.2725 28.4465 61.829 30.0143 61.4964C31.3536 61.1834 32.7206 61.0039 34.0953 60.9604C34.2605 60.9609 34.4194 60.8967 34.5379 60.7816C34.6565 60.6665 34.7253 60.5096 34.7297 60.3444L35.0655 55.6675C35.0687 55.5362 35.0336 55.4068 34.9644 55.2952C34.8952 55.1836 34.7949 55.0946 34.6758 55.0391ZM15.0116 114.272C16.908 118.339 19.1514 122.236 21.7167 125.918C24.4199 129.823 27.5574 133.409 31.0692 136.607C28.7092 136.845 26.3355 136.921 23.9651 136.832C17.0582 136.533 15.2919 135.769 13.8781 135.208C13.1179 134.916 12.3798 134.568 11.6698 134.169C10.0777 133.291 8.71936 132.044 7.70863 130.533C6.69791 129.022 6.06429 127.29 5.8609 125.483C5.47531 122.423 5.52717 119.323 6.0149 116.277C6.28594 114.107 6.6309 111.945 6.85882 109.775C6.96335 110.091 7.17112 110.362 7.44864 110.545C8.02466 110.832 8.66736 110.958 9.30893 110.91C9.95049 110.861 10.5671 110.641 11.0938 110.271C11.7086 109.905 12.2795 109.47 12.7955 108.975C13.467 110.77 14.2015 112.537 15.0116 114.272ZM12.3659 107.77C11.9008 108.209 11.3836 108.588 10.8259 108.901C10.4648 109.133 10.0591 109.288 9.63474 109.354C9.21039 109.421 8.77682 109.398 8.36186 109.287C8.63636 107.656 9.15173 106.076 9.89108 104.596C10.156 104.042 10.4409 103.491 10.7396 102.947C11.2524 104.564 11.7884 106.178 12.3659 107.77ZM77.9267 140.066C55.01 114.937 72.7893 136.896 33.1358 89.9125C31.9793 88.4957 30.7997 87.0712 29.6354 85.6436C30.4054 85.3356 31.1754 85.0353 31.9547 84.7889C32.1015 84.7526 32.2286 84.6611 32.3098 84.5335C32.391 84.4059 32.4198 84.2519 32.3905 84.1036C32.3472 83.9626 32.2531 83.8427 32.1266 83.767C32 83.6914 31.8498 83.6653 31.7052 83.6939C30.7142 83.8643 29.7341 84.0926 28.7699 84.3777C19.5299 87.0188 12.0871 95.11 8.22788 103.837C7.72811 104.97 7.33575 106.147 7.05594 107.353C7.06518 107.156 7.07288 106.957 7.07904 106.759C7.13918 105.119 7.04327 103.478 6.7926 101.857C5.73462 95.1377 3.17206 88.6127 2.7116 82.0985C2.27339 77.7728 3.24576 73.4215 5.4836 69.6938C6.36626 68.2017 7.49331 66.8685 8.8177 65.7499C10.331 64.3778 12.1605 63.4019 14.1428 62.909C16.1252 62.4162 18.1987 62.4219 20.1783 62.9255C23.8599 63.9736 27.396 65.478 30.7042 67.4038C33.0476 68.6664 35.4899 69.7361 38.0069 70.6024C41.6905 71.7589 44.6504 71.3231 46.4923 69.7446C47.3478 68.9387 47.9992 67.9407 48.3926 66.8331C48.786 65.7255 48.91 64.5402 48.7545 63.3752C50.8993 63.7155 53.0228 64.1782 55.1147 64.7612C55.2911 64.8195 55.4809 64.8238 55.6598 64.7736C55.8387 64.7234 55.9985 64.6209 56.1188 64.4794C57.1828 64.8647 58.1971 65.3755 59.1403 66.0009C61.0403 67.308 62.6884 68.9477 64.0051 70.8411C67.3004 75.7206 69.6202 81.1916 70.8366 86.9526C71.2724 88.8822 71.5958 90.8842 72.0563 92.8385C72.2103 93.3975 72.3412 93.958 72.529 94.5047C70.6441 95.2332 70.3099 95.3178 67.601 96.4251C67.4547 94.6576 67.0772 92.917 66.4784 91.2476C65.8796 89.3577 65.1594 87.5084 64.3224 85.7113C63.8681 84.7688 62.7408 82.8269 62.382 82.2648C62.3121 82.1304 62.1929 82.0283 62.0493 81.9798C61.9058 81.9313 61.7491 81.9401 61.612 82.0045C61.5437 82.0356 61.4825 82.0802 61.432 82.1357C61.3816 82.1912 61.3429 82.2563 61.3184 82.3272C61.294 82.3981 61.2841 82.4732 61.2896 82.548C61.2951 82.6228 61.3157 82.6957 61.3502 82.7622C62.3127 85.3895 61.9308 84.4424 62.7362 86.5707C65.6991 94.4924 64.595 91.4478 65.9486 97.6894C66.7574 100.763 66.7791 103.99 66.0118 107.074C65.4039 110.122 64.374 113.07 62.9518 115.834C62.8957 115.929 62.861 116.034 62.8501 116.144C62.8392 116.254 62.8523 116.364 62.8886 116.468C63.3434 117.646 63.7255 118.851 64.0329 120.076C64.5072 121.924 64.8799 123.822 65.2279 125.725C65.2518 125.873 65.3331 126.006 65.4542 126.094C65.5753 126.183 65.7264 126.22 65.8747 126.198C66.0287 126.176 66.1681 126.095 66.2634 125.972C66.3588 125.849 66.4027 125.693 66.386 125.539C66.061 123.586 65.8131 121.656 65.4142 119.753C65.1701 118.571 64.846 117.407 64.444 116.27C65.9801 113.502 67.1073 110.527 67.7905 107.436C68.4675 104.444 68.5314 101.346 67.9783 98.3285C68.7714 97.999 70.564 97.3137 71.4464 96.978C71.4834 97.132 81.1992 141.612 81.7459 144.301C80.4862 142.875 79.2132 141.463 77.9267 140.066Z" fill="#212941"/>
<path d="M37.884 36.5266C37.1633 36.5266 36.5781 37.3598 36.5781 38.3746C36.5781 39.3895 37.1633 40.2411 37.884 40.2411C38.6048 40.2411 39.1915 39.4079 39.1915 38.3746C39.1915 37.3413 38.6063 36.5266 37.884 36.5266Z" fill="#212941"/>
<path d="M45.6692 36.3003C44.9485 36.3003 44.3633 37.135 44.3633 38.1483C44.3633 39.1616 44.9485 40.0148 45.6692 40.0148C46.3899 40.0148 46.9751 39.1816 46.9751 38.1483C46.9751 37.1149 46.3838 36.3003 45.6692 36.3003Z" fill="#212941"/>
<path d="M218.664 27.2374C218.284 27.1357 217.882 27.1555 217.515 27.2939C217.147 27.4323 216.832 27.6825 216.614 28.0092C216.395 28.3359 216.285 28.7228 216.298 29.1155C216.311 29.5082 216.446 29.8869 216.686 30.1986C216.925 30.5103 217.256 30.7392 217.632 30.8532C218.008 30.9671 218.41 30.9605 218.782 30.8341C219.154 30.7077 219.477 30.4679 219.706 30.1485C219.935 29.8291 220.058 29.446 220.058 29.0531C220.107 28.6286 219.989 28.2016 219.729 27.8627C219.469 27.5237 219.087 27.2994 218.664 27.2374Z" fill="#212941"/>
<path d="M230.7 26.5197C230.32 26.4177 229.918 26.4373 229.55 26.5756C229.182 26.7139 228.866 26.9641 228.648 27.291C228.429 27.6179 228.318 28.0051 228.331 28.3981C228.344 28.7912 228.479 29.1704 228.719 29.4825C228.958 29.7945 229.289 30.0238 229.665 30.138C230.042 30.2522 230.444 30.2456 230.817 30.1192C231.189 29.9928 231.513 29.753 231.742 29.4333C231.971 29.1136 232.094 28.7302 232.094 28.3369C232.143 27.9123 232.025 27.4851 231.765 27.1459C231.505 26.8067 231.123 26.5821 230.7 26.5197Z" fill="#212941"/>
<path d="M114.857 85.1199C112.766 84.5976 110.585 84.5549 108.475 84.9952C106.195 85.384 104.052 86.3523 102.254 87.8072C101.508 88.5772 100.926 88.9283 101.308 89.475C101.655 89.8862 102.029 89.666 103.125 89.0762C104.92 88.0864 106.841 87.3455 108.836 86.874C110.754 86.5462 112.704 86.4428 114.646 86.566C115.981 86.6322 116.677 86.8971 116.811 86.2303C116.985 85.5265 115.912 85.3448 114.857 85.1199Z" fill="#212941"/>
<path d="M109.318 91.0704C109.191 90.4267 107.571 90.5576 107.266 90.5977C106.17 90.7874 105.109 91.1399 104.118 91.6433C103.614 92.1469 103.012 92.5981 103.285 93.0617C103.528 93.5483 104.686 93.3558 105.09 93.2357C105.787 93.0108 105.552 93.0355 107.378 92.4657C108.12 92.1685 109.468 91.7142 109.318 91.0704Z" fill="#212941"/>
<path d="M162.9 84.3375C162.317 83.9515 161.698 83.6219 161.052 83.3535C156.453 81.4778 150.135 82.4033 145.774 83.8155C144.561 84.2226 143.386 84.738 142.265 85.3555C142.125 85.412 142.013 85.5216 141.954 85.6603C141.895 85.799 141.893 85.9555 141.949 86.0955C142.005 86.2355 142.114 86.3476 142.253 86.4072C142.391 86.4668 142.548 86.469 142.688 86.4135C144.025 86.0793 144.171 86.1332 146.284 85.5926C151.12 84.3606 157.863 83.2595 162.371 85.3432C162.503 85.4118 162.657 85.4255 162.799 85.3814C162.941 85.3373 163.06 85.2389 163.13 85.1075C163.201 84.9748 163.216 84.8195 163.173 84.6754C163.13 84.5312 163.032 84.4098 162.9 84.3375Z" fill="#212941"/>
<path d="M160.438 85.5142C158.734 85.5556 157.049 85.8749 155.448 86.4597C155.006 86.6522 153.834 87.316 154.042 87.9412C154.284 88.5572 155.71 88.2138 156.381 88.1029C157.585 87.7934 158.807 87.5563 160.039 87.393C162.657 86.9725 163.08 86.931 163.119 86.3473C163.094 85.6019 161.209 85.5403 160.438 85.5142Z" fill="#212941"/>
<path d="M168.428 104.167C168.308 104.075 168.157 104.034 168.008 104.053C167.859 104.071 167.723 104.148 167.63 104.267C166.241 105.778 164.731 107.172 163.115 108.435C160.191 110.769 156.82 112.479 153.211 113.46C151.477 113.922 148.437 114.384 148.059 114.444C147.462 114.531 146.864 114.631 146.23 114.68C146.084 114.684 145.946 114.743 145.843 114.847C145.74 114.95 145.681 115.089 145.678 115.234C145.675 115.38 145.728 115.521 145.826 115.629C145.924 115.736 146.06 115.802 146.205 115.812C146.852 115.887 147.511 115.949 148.133 115.975C150.011 116.034 151.886 115.807 153.696 115.302C157.589 114.301 161.201 112.425 164.259 109.815C165.881 108.393 167.311 106.766 168.514 104.975C168.564 104.918 168.602 104.85 168.625 104.777C168.648 104.705 168.655 104.628 168.647 104.552C168.639 104.476 168.615 104.403 168.578 104.336C168.54 104.27 168.489 104.212 168.428 104.167Z" fill="#212941"/>
<path d="M165.102 88.9513C165.08 88.8797 165.045 88.8131 164.997 88.7555C164.95 88.6978 164.891 88.6502 164.825 88.6155C164.759 88.5808 164.687 88.5596 164.612 88.5533C164.538 88.547 164.463 88.5556 164.392 88.5786C162.527 89.0751 160.734 89.8068 159.054 90.7562C155.563 92.9594 152.45 95.7113 149.836 98.9058C146.783 102.335 147.372 101.883 142.732 106.632C141.885 107.49 141.076 108.349 140.192 109.17C140.083 109.268 140.015 109.405 140.004 109.551C139.992 109.698 140.038 109.843 140.131 109.957C140.224 110.071 140.357 110.145 140.503 110.163C140.649 110.181 140.796 110.142 140.914 110.054C141.512 109.655 142.096 109.244 142.693 108.796C143.291 108.348 143.876 107.913 144.41 107.441C146.844 105.164 149.138 102.741 151.279 100.187C153.797 97.1449 156.704 94.4468 159.926 92.1622C161.43 91.1586 163.04 90.3241 164.727 89.6735C164.8 89.6515 164.867 89.6152 164.926 89.5667C164.984 89.5182 165.032 89.4586 165.067 89.3913C165.102 89.324 165.123 89.2504 165.129 89.1748C165.135 89.0992 165.125 89.0232 165.102 88.9513Z" fill="#212941"/>
<path d="M119.796 22.5281C120.119 21.9121 121.114 21.8074 122.035 22.2925C122.956 22.7776 123.428 23.6492 123.105 24.2714C122.782 24.8935 121.774 24.9798 120.866 24.507C119.957 24.0342 119.472 23.1379 119.788 22.5281" fill="#212941"/>
<path d="M132.294 21.9629C131.97 21.3469 130.974 21.2406 130.053 21.7257C129.132 22.2108 128.667 23.0948 128.984 23.7046C129.301 24.3145 130.315 24.4269 131.223 23.9402C132.132 23.4536 132.617 22.5727 132.301 21.9629" fill="#212941"/>
<path d="M200.4 163.15C195.945 158.222 188.234 153.844 178.241 150.422C170.645 147.888 162.842 146.025 154.921 144.853C154.687 142.279 154.536 139.656 154.536 137.019C154.536 134.491 154.69 131.964 154.932 129.498C156.609 129.085 158.191 128.356 159.595 127.35C161.343 125.975 162.575 124.05 163.09 121.887C163.716 118.809 163.771 115.642 163.252 112.544C163.23 112.39 163.149 112.251 163.026 112.156C162.903 112.06 162.748 112.017 162.593 112.034C162.52 112.044 162.449 112.068 162.385 112.105C162.321 112.142 162.266 112.192 162.221 112.251C162.177 112.31 162.145 112.378 162.128 112.45C162.111 112.521 162.108 112.596 162.12 112.669C162.521 115.615 162.377 118.609 161.697 121.502C161.222 123.325 160.134 124.929 158.617 126.044C155.939 127.66 152.873 128.52 149.745 128.533C143.563 128.953 143.046 128.225 126.953 128.459C126.933 125.165 126.913 121.895 126.89 118.74C129.046 115.953 131.437 113.356 134.035 110.977C134.217 110.78 134.315 110.521 134.308 110.254C134 106.883 133.722 103.511 133.475 100.14C133.225 96.7808 133.002 93.4082 132.84 90.0233V89.9247C132.847 89.8413 132.837 89.7573 132.811 89.6778C132.784 89.5984 132.742 89.5252 132.686 89.4627C132.635 89.4077 132.573 89.3635 132.505 89.3325C132.436 89.3015 132.362 89.2843 132.287 89.282C132.212 89.2798 132.137 89.2924 132.067 89.3191C131.997 89.3459 131.932 89.3863 131.878 89.4381C130.045 91.2292 128.31 93.1179 126.68 95.096C126.653 92.3718 126.628 90.784 126.628 90.784C126.628 90.7086 126.612 90.6339 126.582 90.5646C126.552 90.4952 126.509 90.4325 126.455 90.3802C126.4 90.328 126.336 90.2871 126.265 90.2602C126.195 90.2333 126.12 90.2208 126.044 90.2235L122.348 90.1619C122.265 90.1578 122.183 90.1709 122.105 90.2002C122.027 90.2295 121.957 90.2744 121.897 90.3321C121.838 90.3899 121.791 90.4593 121.759 90.5359C121.728 90.6126 121.712 90.695 121.714 90.7779C121.714 90.7779 121.664 92.9154 121.604 96.4913C120.02 95.1499 118.617 93.8979 116.424 91.705C116.284 91.5636 116.104 91.4688 115.908 91.4332C115.713 91.3977 115.511 91.4232 115.33 91.5063C115.157 91.5883 115.014 91.7222 114.92 91.8894C114.826 92.0566 114.786 92.2489 114.807 92.4395C115.206 97.7402 115.304 103.066 115.615 108.379C115.666 109.709 115.769 111.054 115.889 112.383C115.92 112.638 116.044 112.872 116.238 113.042C117.836 114.358 119.14 115.624 121.369 117.737C121.347 125.02 121.34 132.96 121.34 140.455C121.34 140.853 121.186 142.667 120.311 142.667C120.107 142.658 119.914 142.57 119.775 142.421C119.635 142.272 119.559 142.075 119.564 141.87C119.439 138.566 119.219 131.437 119.159 129.295C119.154 129.132 119.084 128.977 118.965 128.866C118.846 128.754 118.688 128.694 118.524 128.699C113.375 129.052 108.202 128.762 103.124 127.836C100.252 127.285 97.5652 126.018 95.312 124.153C93.1122 122.209 91.69 119.536 91.308 116.625C91.1552 115.343 91.0714 114.053 91.057 112.761C93.3733 114.997 96.0858 116.782 99.0557 118.025C100.957 118.799 102.946 119.338 104.979 119.63C106.31 119.818 107.652 119.909 108.996 119.904C109.147 119.904 109.292 119.848 109.402 119.747C109.513 119.645 109.582 119.505 109.594 119.356C109.599 119.205 109.544 119.058 109.442 118.946C109.34 118.835 109.198 118.768 109.047 118.76C107.757 118.663 106.476 118.472 105.214 118.187C103.345 117.775 101.523 117.171 99.778 116.383C96.8808 115.066 94.2427 113.24 91.9887 110.993C88.8353 107.797 86.4007 103.964 84.8477 99.7514C84.1637 98.0316 83.6173 96.2602 83.2137 94.4538C88.362 93.2927 94.2263 92.4195 99.4022 91.5725C99.5532 91.5478 99.6885 91.465 99.7792 91.3418C99.8698 91.2186 99.9086 91.0649 99.8873 90.9134C99.8773 90.8388 99.8526 90.7669 99.8145 90.702C99.7765 90.6371 99.7259 90.5804 99.6656 90.5352C99.6054 90.49 99.5368 90.4573 99.4638 90.439C99.3908 90.4206 99.3149 90.417 99.2405 90.4283C92.4413 91.1597 85.6874 92.2646 79.0095 93.7378C78.9197 90.953 79.1158 88.1664 79.5947 85.4217C80.3763 80.7696 81.8087 76.2505 83.8498 71.9976C87.1555 64.8561 92.1184 58.6071 98.3258 53.7701C101.49 51.4643 104.92 49.5461 108.541 48.0567C109.511 51.9067 113.184 62.6174 115.759 65.2601C116.067 65.6381 116.465 65.9329 116.917 66.1178C117.517 66.3365 118.177 66.3189 118.765 66.0686C122.615 64.5778 125.824 56.7131 126.827 54.8589C126.867 54.7949 126.893 54.7234 126.905 54.6487C126.917 54.574 126.913 54.4977 126.895 54.4245C126.876 54.3512 126.843 54.2825 126.797 54.2224C126.751 54.1623 126.694 54.1122 126.628 54.075C126.496 53.9975 126.338 53.9749 126.189 54.012C126.04 54.0492 125.912 54.1431 125.832 54.2737C124.176 56.8193 121.366 62.2324 118.603 64.0157C118.28 64.239 117.905 64.4639 117.57 64.3391C117.335 64.2027 117.131 64.0192 116.971 63.8001C115.224 61.5009 112.072 53.573 109.654 47.6132C111.194 46.9572 112.768 46.3227 114.368 45.6666C118.963 48.2038 123.3 51.1812 127.319 54.5571C127.179 55.5735 127.051 56.5159 126.982 57.4245C126.785 60.1704 126.843 63.5183 126.857 65.5234V74.7927C126.882 76.2356 126.907 77.8295 126.931 79.6329C126.925 79.7089 126.934 79.7854 126.958 79.8576C126.983 79.9298 127.022 79.9961 127.074 80.0523C127.125 80.1085 127.188 80.1534 127.258 80.184C127.328 80.2147 127.403 80.2305 127.479 80.2304C127.632 80.2402 127.782 80.1894 127.898 80.089C128.013 79.9887 128.084 79.8469 128.095 79.6945C128.294 77.8034 128.456 76.1617 128.581 74.631C128.852 70.841 128.765 68.4109 128.792 65.3124C128.744 62.8053 128.792 59.7792 128.691 57.1504C128.642 56.2788 128.556 55.3964 128.468 54.4138C128.476 54.3245 128.458 54.2349 128.417 54.1551C136.319 48.2739 136.375 47.7687 142.381 43.1472C143.747 43.6205 145.079 44.1256 146.377 44.6626C142.527 53.034 139.065 60.7386 136.972 62.639C136.499 63.0609 136.002 63.3967 135.48 63.235C134.676 62.8706 134.012 62.255 133.589 61.4809C132.686 60.2489 130.701 56.3804 129.739 54.9867C129.655 54.859 129.525 54.7691 129.376 54.7365C129.227 54.704 129.071 54.7313 128.943 54.8127C128.821 54.8946 128.734 55.0189 128.699 55.1613C128.665 55.3038 128.684 55.454 128.755 55.5827C129.631 58.0061 130.728 60.3443 132.03 62.5681C132.696 63.7002 133.714 64.583 134.928 65.0814C135.388 65.2039 135.869 65.2217 136.336 65.1335C136.803 65.0452 137.245 64.8533 137.628 64.5717C141.313 62.1077 145.944 49.338 147.443 45.1215C155.441 48.4972 162.564 53.6537 168.269 60.1981C171.27 63.6508 173.886 67.4204 176.07 71.4401C176.103 71.508 176.149 71.5686 176.206 71.6181C176.263 71.6676 176.33 71.705 176.402 71.7282C176.474 71.7514 176.55 71.7597 176.625 71.7528C176.7 71.7459 176.773 71.7239 176.84 71.688C176.971 71.6154 177.07 71.4954 177.117 71.3524C177.163 71.2094 177.153 71.054 177.089 70.918C175.061 66.6924 172.547 62.7175 169.599 59.0739C162.452 50.6691 153.067 44.4648 142.535 41.1822C142.387 41.1296 142.23 41.1146 142.075 41.1385C141.921 41.1625 141.775 41.2246 141.651 41.3192C135.029 46.392 132.68 48.913 127.652 53.2789C123.742 49.6911 119.46 46.5316 114.879 43.8541C114.757 43.7857 114.621 43.7448 114.482 43.7341C114.342 43.7235 114.202 43.7434 114.071 43.7925C107.784 46.3473 102.521 48.2692 97.1754 52.2625C86.8469 60.4325 79.9297 72.155 77.7714 85.1461C77.2683 88.3758 77.1221 91.6511 77.3356 94.9128C77.3472 95.0427 77.388 95.1684 77.4549 95.2803C77.5218 95.3923 77.6132 95.4878 77.7221 95.5596C77.8235 95.6316 77.9397 95.6801 78.0623 95.7017C78.1848 95.7233 78.3106 95.7173 78.4305 95.6843C79.6358 95.3435 80.8493 95.0283 82.0711 94.7387C82.2015 96.6506 82.5592 98.5402 83.1367 100.367C84.5827 104.598 86.9233 108.468 89.999 111.713C89.7486 113.396 89.7304 115.106 89.9451 116.795C90.1951 120.108 91.6729 123.21 94.0892 125.491C96.35 127.47 99.0702 128.851 102.002 129.509C102.073 132.523 102.125 135.558 102.268 138.583C102.365 140.375 102.498 142.178 102.659 143.973C97.2 144.602 91.9625 145.454 87.0545 146.483C86.9814 146.498 86.912 146.527 86.8503 146.569C86.7887 146.611 86.7361 146.665 86.6955 146.728C86.6549 146.791 86.6272 146.861 86.6141 146.934C86.6009 147.008 86.6024 147.083 86.6187 147.156C86.6332 147.228 86.6618 147.296 86.7028 147.357C86.7438 147.418 86.7965 147.47 86.8578 147.51C86.9191 147.551 86.9877 147.578 87.0598 147.592C87.1319 147.606 87.206 147.605 87.2778 147.59C93.4204 146.422 99.6211 145.583 105.853 145.077C110.847 144.652 116.017 144.408 121.353 144.368C121.353 146.349 121.353 148.28 121.353 150.145C111.36 150.341 101.417 151.62 91.6991 153.958C91.6254 153.974 91.5559 154.006 91.4951 154.05C91.4343 154.095 91.3835 154.152 91.3461 154.218C91.3086 154.283 91.2854 154.356 91.2777 154.431C91.2701 154.506 91.2783 154.582 91.3018 154.654C91.3173 154.728 91.3476 154.797 91.3908 154.859C91.4339 154.92 91.4892 154.972 91.5531 155.012C91.617 155.052 91.6883 155.078 91.7626 155.089C91.837 155.1 91.9128 155.096 91.9856 155.077C101.624 152.884 111.47 151.734 121.355 151.648C121.355 153.362 121.355 155.011 121.355 156.576C112.601 156.68 103.91 158.079 95.5645 160.726C90.1283 162.574 85.9596 164.969 83.5217 167.656C82.724 168.404 82.0882 169.308 81.6536 170.312C81.219 171.316 80.9947 172.398 80.9947 173.491C80.9947 174.585 81.219 175.667 81.6536 176.671C82.0882 177.674 82.724 178.578 83.5217 179.326C85.9596 182.014 90.1283 184.408 95.5645 186.269C104.925 189.206 114.695 190.625 124.504 190.474C130.37 190.497 136.227 190.019 142.011 189.044C145.871 188.386 149.67 187.412 153.37 186.132C157.157 184.916 160.69 183.019 163.796 180.534C164.91 179.713 165.829 178.656 166.488 177.439C167.146 176.221 167.527 174.873 167.604 173.491C167.555 171.382 166.695 169.372 165.203 167.88C162.826 165.205 158.708 162.798 153.345 160.925C144.839 158.165 135.965 156.703 127.022 156.587C127.022 155.033 127.022 153.394 127.022 151.691C144.897 152.216 177.588 156.773 183.118 170.812C189.475 186.458 148.314 195.57 122.596 195.21C114.452 195.152 106.327 194.403 98.3088 192.971C75.2704 188.582 68.5221 180.634 69.3199 181.362C64.9663 177.394 65.1757 173.579 65.188 173.735C64.7707 168.936 69.8311 164.439 73.9984 161.927C74.1218 161.85 74.2105 161.729 74.2458 161.588C74.281 161.446 74.2601 161.297 74.1873 161.171C74.1145 161.045 73.9957 160.953 73.8558 160.913C73.716 160.873 73.5661 160.889 73.4378 160.957C68.5252 163.738 63.6958 168.098 63.6958 173.773C63.6958 191.05 105.023 197.006 122.596 197.126C147.111 197.469 191.861 188.745 184.894 170.165C179.966 155.399 146.086 150.508 127.016 150.134C127.016 148.286 127.016 146.364 127.007 144.398C131.674 144.468 136.261 144.706 140.691 145.06C153.257 145.932 165.67 148.339 177.651 152.227C184.458 154.338 190.83 157.654 196.464 162.018C200.622 165.528 202.995 169.396 202.995 173.49C202.995 177.583 200.619 181.441 196.464 184.949C190.83 189.313 184.458 192.63 177.651 194.742C163.603 199.568 144.966 202.505 124.521 202.517C104.078 202.554 85.4159 199.631 71.3681 194.853C61.7261 191.568 54.2356 187.425 49.8928 182.687C48.5979 181.507 47.5646 180.069 46.8596 178.466C46.1545 176.863 45.7933 175.129 45.7993 173.378C45.8052 171.626 46.1782 169.896 46.8941 168.297C47.6101 166.699 48.6531 165.268 49.9559 164.097C53.7931 160.237 58.3384 157.152 63.3431 155.011C63.48 154.947 63.5864 154.831 63.6399 154.69C63.6933 154.548 63.6896 154.391 63.6296 154.252C63.6 154.184 63.5571 154.122 63.5033 154.07C63.4496 154.019 63.386 153.978 63.3164 153.952C63.2468 153.925 63.1726 153.912 63.0981 153.915C63.0236 153.917 62.9504 153.934 62.8827 153.966C57.6941 156.114 52.9738 159.252 48.9857 163.206C47.5485 164.491 46.3955 166.062 45.6003 167.818C44.8051 169.575 44.3853 171.478 44.3678 173.405C44.3502 175.333 44.7353 177.244 45.4984 179.014C46.2615 180.785 47.3858 182.376 48.7994 183.688C53.2407 188.603 60.8791 193.006 70.809 196.44C84.977 201.356 103.83 204.354 124.521 204.379C145.213 204.404 164.061 201.43 178.267 196.553C188.22 193.131 195.934 188.751 200.389 183.837C201.81 182.514 202.943 180.913 203.718 179.133C204.493 177.353 204.893 175.433 204.893 173.491C204.893 171.55 204.493 169.63 203.718 167.85C202.943 166.07 201.81 164.468 200.389 163.146L200.4 163.15ZM125.471 91.3661C125.471 96.9101 125.317 100.883 125.185 131.28C125.12 142.811 125.097 154.346 125.089 162.132C124.902 162.183 124.715 162.232 124.526 162.279C124.122 162.125 123.717 161.971 123.314 161.817C123.323 149.758 123.371 105.439 122.97 91.3969L125.471 91.3661ZM152.871 162.325C157.985 164.042 161.979 166.219 164.293 168.72C165.591 169.981 166.362 171.687 166.449 173.494H166.488C166.368 174.694 165.987 175.853 165.372 176.891C164.757 177.928 163.924 178.819 162.929 179.5C159.894 181.78 156.477 183.5 152.839 184.582C149.203 185.762 145.479 186.652 141.703 187.243C136.017 188.157 130.266 188.607 124.507 188.588C114.904 188.729 105.34 187.329 96.1805 184.441C92.5893 183.332 89.2264 181.587 86.2522 179.289C85.2376 178.698 84.3958 177.85 83.8107 176.832C83.2257 175.814 82.9178 174.66 82.9178 173.485C82.9178 172.311 83.2257 171.157 83.8107 170.138C84.3958 169.12 85.2376 168.272 86.2522 167.681C89.2312 165.387 92.5924 163.638 96.1805 162.514C104.323 159.917 112.802 158.526 121.347 158.385C121.347 159.34 121.347 160.258 121.347 161.134L121.244 161.1C120.399 160.826 119.59 160.552 118.743 160.29C117.896 160.029 117.063 159.781 116.242 159.494C116.078 159.444 115.903 159.443 115.737 159.489C115.572 159.535 115.423 159.628 115.309 159.756C115.19 159.882 115.11 160.038 115.077 160.208C115.044 160.378 115.06 160.553 115.123 160.714C115.409 161.498 115.72 162.282 116.068 163.053C116.148 163.246 116.23 163.438 116.311 163.629C113.265 163.984 110.263 164.645 107.349 165.6C104.63 166.386 102.144 167.826 100.111 169.794C99.6024 170.265 99.1966 170.836 98.9183 171.471C98.64 172.106 98.4953 172.791 98.4929 173.484C98.4906 174.178 98.6309 174.864 98.9049 175.501C99.1789 176.137 99.581 176.711 100.086 177.186C101.376 178.501 102.91 179.553 104.603 180.283C110.916 182.837 117.689 184.057 124.497 183.866C127.965 183.873 131.428 183.586 134.848 183.008C137.14 182.605 139.395 182.018 141.592 181.253C143.843 180.502 145.939 179.347 147.777 177.845C148.458 177.334 149.019 176.678 149.418 175.925C149.818 175.173 150.046 174.341 150.087 173.49C150.047 172.637 149.814 171.805 149.407 171.055C149 170.305 148.428 169.657 147.735 169.159C145.904 167.67 143.811 166.535 141.564 165.813C138.599 164.797 135.538 164.09 132.428 163.701C132.802 162.753 133.179 161.81 133.575 160.877C133.636 160.738 133.658 160.585 133.641 160.435C133.623 160.284 133.566 160.141 133.475 160.019C133.381 159.9 133.255 159.808 133.113 159.756C132.97 159.703 132.815 159.691 132.666 159.721C132.069 159.845 131.484 159.995 130.886 160.169C129.575 160.569 128.299 161.068 127.013 161.515V158.356C135.782 158.381 144.497 159.717 152.871 162.319V162.325ZM117.329 170.382C115.625 171.166 114.754 172.31 114.741 173.417C114.727 174.525 115.625 175.658 117.329 176.454C119.723 177.427 122.293 177.893 124.875 177.822C127.063 177.858 129.238 177.495 131.296 176.751C132.01 176.481 132.684 176.113 133.298 175.658C133.681 175.42 134 175.091 134.226 174.7C134.451 174.309 134.577 173.868 134.591 173.417H134.604C134.64 172.41 133.82 171.391 132.294 170.619C131.591 170.276 130.856 170.001 130.101 169.8C130.162 169.646 131.368 166.475 131.825 165.3C134.978 165.608 138.09 166.245 141.11 167.202C143.577 167.877 145.847 169.131 147.732 170.859C148.455 171.555 148.89 172.496 148.952 173.497C148.883 174.167 148.665 174.813 148.314 175.388C147.963 175.963 147.488 176.452 146.924 176.819C145.162 178.114 143.187 179.091 141.088 179.705C138.952 180.371 136.768 180.875 134.556 181.211C131.235 181.74 127.877 181.998 124.515 181.981C118.914 182.063 113.336 181.249 107.992 179.568C105.922 178.924 103.981 177.922 102.257 176.607C101.75 176.249 101.327 175.785 101.015 175.248C100.704 174.712 100.512 174.114 100.453 173.496C100.509 172.877 100.7 172.278 101.011 171.741C101.323 171.204 101.748 170.741 102.257 170.385C103.974 169.056 105.917 168.048 107.992 167.411C110.952 166.429 114.006 165.758 117.105 165.409C117.75 166.862 118.41 168.312 119.034 169.774C118.451 169.929 117.881 170.131 117.329 170.376V170.382ZM119.75 171.528C119.833 171.737 119.917 171.947 119.997 172.158C120.072 172.337 120.198 172.491 120.359 172.601C120.521 172.71 120.71 172.77 120.905 172.774C123.343 172.826 125.587 172.774 128.246 172.874C128.448 172.883 128.648 172.828 128.815 172.716C128.983 172.604 129.11 172.44 129.178 172.25C129.3 171.916 129.425 171.58 129.549 171.244C129.99 171.335 130.405 171.44 130.792 171.552C131.656 171.819 133.422 172.516 133.455 173.417C133.422 174.292 131.607 174.948 130.754 175.198C128.833 175.697 126.854 175.94 124.869 175.918C122.883 175.949 120.904 175.659 119.009 175.061C118.329 174.826 116.658 174.095 116.658 173.417C116.658 172.74 118.293 172.008 119.009 171.763C119.246 171.676 119.493 171.596 119.75 171.522V171.528ZM131.394 161.672C130.958 162.68 130.523 163.7 130.087 164.721C129.217 166.786 128.433 168.879 127.649 170.941L126.094 170.904L125.228 170.892C125.26 170.658 125.276 170.441 125.311 170.094C125.367 169.555 125.334 166.418 125.274 165.876C125.251 165.722 124.997 164.27 124.403 164.247C123.808 164.224 123.469 165.727 123.469 165.925C123.391 167.01 123.379 168.099 123.432 169.185C123.469 169.521 123.494 169.871 123.531 170.206C123.549 170.36 123.591 170.599 123.648 170.878C122.958 170.878 122.262 170.866 121.564 170.853C120.884 169.078 118.589 164.168 117.571 161.797C118.355 162.028 122.179 162.827 123.816 163.264C123.878 163.352 123.964 163.419 124.063 163.459C124.162 163.499 124.271 163.509 124.376 163.489C124.992 163.401 125.596 163.264 126.18 163.127C127.935 162.696 129.652 162.086 131.394 161.663V161.672Z" fill="#212941"/>
</svg>
