<svg width="294" height="254" viewBox="0 0 294 254" fill="none" xmlns="http://www.w3.org/2000/svg">
<path d="M289.255 233.689C283.417 224.2 268.533 201.041 265.555 190.488C261.453 175.987 263.289 145.48 265.596 130.554C265.622 130.381 265.606 130.204 265.55 130.038C265.493 129.872 265.398 129.723 265.272 129.601C265.146 129.48 264.992 129.39 264.824 129.34C264.657 129.29 264.479 129.28 264.307 129.313C259.778 130.154 237.108 134.212 230.301 135.41C227.232 135.952 224.107 136.868 221.001 137.503C216.886 138.334 216.76 137.832 216.238 138.591C209.349 148.62 206.793 161.945 205.02 173.981C201.872 195.387 201.518 216.686 201.316 238.319C201.313 238.596 201.403 238.866 201.573 239.086C201.742 239.306 201.981 239.462 202.25 239.529C206.378 240.434 210.59 240.902 214.816 240.926C215.136 240.938 215.449 240.825 215.687 240.611C215.925 240.397 216.071 240.098 216.093 239.779C217.137 225.561 217.034 195.173 221.443 182.235C224.061 174.51 228.835 167.659 233.697 161.12C235.614 160.877 237.642 160.94 239.713 160.874C247.036 195.448 252.26 207.536 273.603 236.18C276.81 240.481 284.133 237.831 288.825 235.228C288.933 235.169 289.024 235.085 289.093 234.983C289.162 234.882 289.206 234.766 289.221 234.644C289.321 234.506 289.377 234.342 289.383 234.172C289.389 234.002 289.345 233.834 289.255 233.689Z" fill="#212941"/>
<path d="M202.579 27.1155C203.066 26.7099 203.623 26.3967 204.222 26.1915C204.942 25.8398 205.77 25.7802 206.532 26.0251C206.721 26.1442 206.949 26.1834 207.167 26.1342C207.385 26.0849 207.574 25.9513 207.693 25.7626C207.812 25.5739 207.851 25.3456 207.802 25.128C207.753 24.9104 207.619 24.7212 207.43 24.6022C206.959 24.1641 206.383 23.8543 205.758 23.7023C205.133 23.5504 204.479 23.5614 203.859 23.7343C203.239 23.9072 202.674 24.2362 202.218 24.6899C201.762 25.1435 201.43 25.7067 201.253 26.3254C201.159 26.5001 201.135 26.7047 201.188 26.8963C201.24 27.088 201.365 27.2519 201.536 27.3537C201.706 27.4555 201.91 27.4874 202.103 27.4428C202.297 27.3981 202.466 27.2802 202.575 27.1139L202.579 27.1155Z" fill="#212941"/>
<path d="M194.304 29.4132C194.778 29.113 195.281 28.8602 195.805 28.6586C196.365 28.3474 197.021 28.2552 197.645 28.3999C197.742 28.4576 197.85 28.4953 197.962 28.5105C198.074 28.5257 198.188 28.5182 198.296 28.4885C198.405 28.4587 198.507 28.4073 198.596 28.3373C198.684 28.2673 198.758 28.1802 198.812 28.0811C198.866 27.982 198.899 27.8731 198.91 27.7607C198.921 27.6484 198.91 27.535 198.876 27.4273C198.842 27.3196 198.787 27.2199 198.713 27.134C198.64 27.0481 198.55 26.978 198.449 26.9276C198.031 26.5586 197.527 26.3012 196.982 26.1791C196.438 26.0571 195.872 26.0745 195.336 26.2296C194.801 26.3847 194.313 26.6726 193.918 27.0665C193.523 27.4604 193.234 27.9477 193.078 28.483C192.955 28.6464 192.903 28.8518 192.932 29.0539C192.96 29.2561 193.068 29.4385 193.232 29.561C193.395 29.6836 193.601 29.7362 193.803 29.7073C194.005 29.6784 194.187 29.5704 194.31 29.407L194.304 29.4132Z" fill="#212941"/>
<path d="M199.348 29.9383C199.145 31.3455 199.11 32.7718 199.243 34.1872C199.404 35.6265 199.714 37.0453 200.167 38.4207C200.188 38.5291 200.229 38.6324 200.289 38.7248C200.349 38.8172 200.427 38.8969 200.518 38.9592C200.609 39.0216 200.711 39.0654 200.819 39.0882C200.927 39.111 201.038 39.1123 201.147 39.0921C201.255 39.0719 201.359 39.0305 201.451 38.9703C201.543 38.9102 201.623 38.8324 201.685 38.7414C201.748 38.6505 201.792 38.5482 201.814 38.4403C201.837 38.3324 201.838 38.2211 201.818 38.1127C201.584 34.9895 202.106 34.429 200.876 29.7967C200.875 29.6905 200.851 29.5858 200.808 29.489C200.764 29.3922 200.701 29.3056 200.622 29.2344C200.543 29.1632 200.451 29.1091 200.35 29.0754C200.249 29.0417 200.143 29.0292 200.037 29.0387C199.931 29.0482 199.829 29.0794 199.736 29.1305C199.643 29.1815 199.561 29.2512 199.496 29.3353C199.431 29.4193 199.385 29.5159 199.359 29.6189C199.333 29.7219 199.329 29.8291 199.347 29.9337L199.348 29.9383Z" fill="#212941"/>
<path d="M208.139 37.6414C208.271 37.6484 208.4 37.6861 208.516 37.7516C208.631 37.8171 208.73 37.9085 208.804 38.0187C209.342 38.7893 209.675 39.6838 209.773 40.6184C209.871 41.5531 209.73 42.4972 209.363 43.3625C207.926 46.7921 203.311 47.3172 200.739 43.6967C200.557 43.4434 200.478 43.1306 200.518 42.8214C200.558 42.5122 200.713 42.2295 200.953 42.0304C202.955 40.3376 205.145 38.8804 207.479 37.6876C207.579 37.6328 207.69 37.6002 207.804 37.5923C207.918 37.5843 208.032 37.601 208.139 37.6414ZM207.629 39.4771C205.973 40.6921 204.731 41.9811 203.471 43.076C203.856 43.4077 204.328 43.6216 204.831 43.692C207.185 44.191 208.323 41.3759 207.627 39.4771H207.629Z" fill="#212941"/>
<path d="M204.386 30.2451C204.459 30.7134 204.661 31.1418 204.949 31.4362C205.238 31.7307 205.588 31.867 205.923 31.8152C206.258 31.7633 206.55 31.5276 206.736 31.1599C206.922 30.7922 206.985 30.3226 206.913 29.8544C206.84 29.3861 206.638 28.9577 206.35 28.6633C206.062 28.3688 205.711 28.2325 205.376 28.2843C205.041 28.3362 204.749 28.5719 204.563 28.9396C204.378 29.3073 204.314 29.7769 204.386 30.2451Z" fill="#212941"/>
<path d="M195.088 32.7554C195.16 33.2236 195.363 33.6521 195.651 33.9465C195.939 34.2409 196.289 34.3772 196.624 34.3254C196.959 34.2736 197.251 34.0379 197.437 33.6702C197.623 33.3024 197.686 32.8328 197.614 32.3646C197.541 31.8964 197.339 31.4679 197.051 31.1735C196.763 30.8791 196.413 30.7428 196.078 30.7946C195.743 30.8464 195.45 31.0821 195.264 31.4498C195.079 31.8176 195.015 32.2872 195.088 32.7554Z" fill="#212941"/>
<path d="M179.533 9.61191C179.312 11.3976 179.699 13.2057 180.631 14.7447C181.568 15.8882 182.823 16.7276 184.238 17.1564C186.517 18.0511 187.135 18.3606 187.742 20.5921C188.322 22.7004 188.756 24.9041 191.016 25.5925C191.227 25.6699 191.461 25.66 191.666 25.565C191.87 25.47 192.028 25.2976 192.106 25.0858C192.183 24.8741 192.173 24.6402 192.078 24.4357C191.983 24.2313 191.811 24.0729 191.599 23.9955C190.149 23.3795 190.196 21.1681 189.793 19.4741C188.658 14.5938 184.053 15.3053 182.365 13.3572C181.596 12.3112 181.151 11.0625 181.086 9.76591C181.106 9.56006 181.044 9.35452 180.913 9.19453C180.782 9.03453 180.592 8.93317 180.386 8.91275C180.285 8.90263 180.182 8.9127 180.084 8.94236C179.986 8.97203 179.894 9.02071 179.815 9.08563C179.655 9.21675 179.554 9.40606 179.533 9.61191Z" fill="#212941"/>
<path d="M188.171 5.61238C187.287 8.19034 188.187 10.0984 190.005 11.9556C191.629 13.5911 193.15 14.6183 193.343 16.5756C193.369 16.7849 193.471 16.977 193.631 17.1149C193.79 17.2528 193.995 17.3266 194.206 17.322C194.417 17.3174 194.619 17.2347 194.772 17.09C194.925 16.9453 195.02 16.7489 195.037 16.5387C195.357 11.2411 189.226 10.0707 189.685 5.95733C189.73 5.75522 189.693 5.54366 189.582 5.36882C189.471 5.19398 189.296 5.07006 189.094 5.0241C188.994 5.00165 188.892 4.9991 188.792 5.01657C188.691 5.03405 188.596 5.07121 188.51 5.12591C188.424 5.18061 188.35 5.25176 188.292 5.33526C188.234 5.41876 188.193 5.51294 188.171 5.61238Z" fill="#212941"/>
<path d="M199.927 2.4969C199.273 3.34835 198.934 4.40008 198.967 5.47335C199.001 6.54662 199.405 7.57521 200.11 8.38432C201.075 9.79958 202.25 10.8345 202.442 12.6347C202.531 13.402 202.473 14.1791 202.271 14.9247C202.203 15.134 202.219 15.3614 202.315 15.5592C202.412 15.7571 202.58 15.9101 202.787 15.9861C202.993 16.0622 203.221 16.0554 203.423 15.9672C203.624 15.879 203.784 15.7162 203.868 15.513C204.296 14.5825 204.531 13.5752 204.561 12.5516C204.689 7.85918 199.801 6.55788 201.275 3.28076C201.379 3.10207 201.407 2.88941 201.354 2.68956C201.302 2.4897 201.172 2.31903 200.993 2.21508C200.814 2.11114 200.602 2.08243 200.402 2.13528C200.202 2.18813 200.031 2.31821 199.927 2.4969Z" fill="#212941"/>
<path d="M210.654 1.30816C207.997 5.68022 212.255 8.8249 211.27 12.4562C211.023 13.2849 210.685 14.0835 210.261 14.8371C210.201 14.9315 210.161 15.0368 210.142 15.1469C210.123 15.2569 210.126 15.3697 210.15 15.4787C210.175 15.5876 210.221 15.6907 210.285 15.7819C210.35 15.8732 210.432 15.9509 210.526 16.0105C210.62 16.0702 210.726 16.1107 210.836 16.1296C210.946 16.1486 211.059 16.1457 211.168 16.1211C211.277 16.0965 211.38 16.0507 211.471 15.9863C211.562 15.9219 211.64 15.8401 211.699 15.7457C212.477 14.7778 213.083 13.684 213.492 12.5117C214.508 9.16986 212.149 5.9605 211.878 4.11558C211.752 3.40051 211.814 2.66495 212.058 1.98114C212.108 1.88824 212.138 1.78623 212.148 1.68128C212.157 1.57632 212.145 1.47058 212.112 1.37042C212.079 1.27026 212.027 1.17776 211.957 1.09849C211.888 1.01921 211.803 0.954808 211.708 0.90915C211.613 0.863492 211.51 0.837524 211.405 0.832812C211.299 0.828101 211.194 0.844744 211.096 0.881736C210.997 0.918728 210.907 0.975306 210.831 1.04806C210.754 1.12082 210.694 1.20824 210.652 1.30508L210.654 1.30816Z" fill="#212941"/>
<path d="M220.864 21.5268C222.079 18.0726 225.07 17.0084 221.797 9.77815C220.607 7.16015 219.747 5.37529 221.096 2.57095C221.147 2.48176 221.179 2.38349 221.192 2.28175C221.205 2.18 221.197 2.07678 221.17 1.97796C221.142 1.87915 221.096 1.78668 221.033 1.70584C220.97 1.625 220.891 1.55737 220.802 1.50681C220.713 1.45625 220.615 1.42375 220.513 1.41117C220.411 1.39859 220.308 1.40618 220.209 1.43349C220.11 1.4608 220.018 1.50731 219.937 1.57036C219.856 1.63341 219.789 1.71176 219.738 1.80095C215.866 7.86547 221.836 12.1313 220.713 16.3385C220.296 17.8939 219.311 19.2538 218.857 20.8892C218.669 22.1876 218.547 23.4947 218.491 24.8055C218.461 24.9964 218.243 25.8665 218.098 26.3855C216.658 26.3429 215.227 26.6146 213.903 27.1817C213.885 26.6384 213.895 26.0946 213.932 25.5524C214.134 22.7018 214.892 22.3184 214.416 21.593C214.334 21.4652 214.224 21.3583 214.093 21.281C213.963 21.2037 213.816 21.1581 213.664 21.148C210.584 20.9539 209.442 22.0904 207.276 20.1932C207.123 20.0613 206.925 19.994 206.723 20.0055C206.521 20.017 206.331 20.1064 206.194 20.2549C206.057 20.4034 205.982 20.5994 205.987 20.8016C205.991 21.0038 206.073 21.1964 206.217 21.3389C208.515 23.518 209.959 23.0021 212.264 23.0329C211.76 24.9661 211.585 26.9706 211.747 28.9619C211.764 29.1422 211.823 29.3159 211.92 29.4687C212.017 29.6215 212.149 29.7491 212.305 29.8409C212.461 29.9327 212.636 29.986 212.817 29.9965C212.998 30.007 213.178 29.9744 213.344 29.9013C216.236 28.6693 219.623 27.8454 220.154 30.9316C220.591 33.5496 218.092 34.5814 215.483 35.0511C215.185 35.1028 214.918 35.2646 214.735 35.5043C214.551 35.7439 214.464 36.0439 214.491 36.3447C215.075 40.3995 214.074 44.5232 211.696 47.8593C211.21 48.4552 211.376 48.868 213.62 54.6537C213.7 54.8693 213.859 55.0464 214.065 55.1498C214.27 55.2531 214.507 55.2751 214.728 55.2112C215.614 54.9238 216.517 54.6929 217.431 54.5198C217.542 54.502 217.647 54.4626 217.743 54.4039C217.838 54.3452 217.92 54.2683 217.986 54.1777C218.051 54.087 218.098 53.9843 218.124 53.8755C218.15 53.7667 218.154 53.6538 218.136 53.5434C218.119 53.433 218.079 53.3271 218.021 53.2319C217.962 53.1367 217.885 53.054 217.794 52.9885C217.704 52.923 217.601 52.876 217.492 52.8502C217.383 52.8244 217.271 52.8203 217.16 52.8381C216.592 52.9182 215.936 53.0383 215.058 53.2508C214.465 51.5568 214.031 50.3587 213.607 48.7555C216.055 45.4294 217.239 41.3405 216.948 37.2209C218.669 36.9143 220.251 36.077 221.472 34.8262C221.963 34.229 222.317 33.5314 222.509 32.7826C222.701 32.0337 222.727 31.2519 222.584 30.492C222.441 29.7322 222.134 29.013 221.683 28.3849C221.232 27.7568 220.649 27.2352 219.975 26.8567C219.647 26.7027 219.783 27.0246 220.242 25.1628C220.534 23.9908 220.459 22.6695 220.864 21.5268Z" fill="#212941"/>
<path d="M209.311 50.1538C207.515 50.5723 205.64 50.517 203.872 49.9932C202.103 49.4695 200.501 48.4954 199.222 47.1662C195.3 43.3363 192.068 35.8657 191.984 27.8069C191.987 27.7046 191.97 27.6027 191.933 27.5071C191.896 27.4115 191.841 27.3241 191.771 27.2498C191.7 27.1755 191.616 27.1158 191.523 27.0741C191.429 27.0325 191.328 27.0096 191.226 27.0069C191.124 27.0041 191.022 27.0216 190.926 27.0582C190.831 27.0949 190.743 27.15 190.669 27.2204C190.595 27.2908 190.535 27.3752 190.493 27.4687C190.451 27.5622 190.429 27.663 190.426 27.7653C190.233 30.9627 190.474 34.1716 191.144 37.3041C193.076 44.5421 197.745 51.9048 205.114 52.4762C205.372 53.5265 205.841 55.0434 206.192 56.263C205.284 57.0638 204.679 57.7507 203.882 58.5176C203.715 58.6697 203.616 58.882 203.605 59.1077C203.594 59.3334 203.674 59.5541 203.826 59.7211C203.978 59.8881 204.191 59.9879 204.416 59.9985C204.642 60.009 204.863 59.9295 205.03 59.7773C205.923 58.9235 206.864 58.1219 207.849 57.3764C208.001 57.2633 208.117 57.1079 208.181 56.9296C208.246 56.7514 208.256 56.5581 208.211 56.3739C207.923 55.1619 207.326 52.5701 207.307 52.4885C208.165 52.3736 209.002 52.1377 209.793 51.7878C210.01 51.7239 210.192 51.5765 210.3 51.3781C210.408 51.1797 210.433 50.9465 210.369 50.7298C210.305 50.5131 210.158 50.3307 209.959 50.2227C209.761 50.1147 209.528 50.0899 209.311 50.1538Z" fill="#212941"/>
<path d="M219.381 113.68C213.797 112.943 210.812 114.969 206.648 118.656C206.556 118.723 206.478 118.807 206.42 118.905C206.361 119.002 206.322 119.11 206.306 119.222C206.289 119.335 206.296 119.449 206.324 119.559C206.353 119.669 206.403 119.773 206.472 119.863C206.541 119.953 206.628 120.029 206.726 120.085C206.825 120.141 206.934 120.177 207.047 120.191C207.16 120.204 207.274 120.195 207.383 120.164C207.493 120.132 207.594 120.08 207.683 120.008C217.639 113.497 220.091 116.285 220.143 114.478C220.145 114.376 220.128 114.274 220.091 114.178C220.054 114.083 219.998 113.995 219.927 113.921C219.857 113.847 219.772 113.788 219.678 113.746C219.584 113.705 219.483 113.683 219.381 113.68Z" fill="#212941"/>
<path d="M210.91 120.195C206.958 122.723 205.624 124.903 203.345 129.033C203.283 129.126 203.24 129.23 203.218 129.339C203.196 129.449 203.196 129.562 203.217 129.671C203.239 129.781 203.282 129.885 203.344 129.978C203.406 130.071 203.486 130.151 203.578 130.213C203.671 130.275 203.775 130.319 203.885 130.341C203.995 130.363 204.107 130.363 204.217 130.341C204.327 130.319 204.431 130.276 204.524 130.214C204.617 130.152 204.697 130.073 204.759 129.98L211.906 121.396C212.057 121.261 212.151 121.073 212.166 120.872C212.181 120.67 212.118 120.47 211.988 120.314C211.859 120.158 211.674 120.058 211.473 120.036C211.272 120.014 211.07 120.071 210.91 120.195Z" fill="#212941"/>
<path d="M211.258 125.117C208.903 126.864 207.059 129.21 205.916 131.911C205.795 132.102 205.754 132.333 205.804 132.553C205.853 132.774 205.988 132.966 206.178 133.087C206.369 133.208 206.6 133.248 206.821 133.199C207.041 133.15 207.233 133.015 207.354 132.824C208.392 131.535 209.219 130.836 210.621 129.02C211.289 128.094 211.899 127.127 212.447 126.125C212.581 125.968 212.646 125.763 212.63 125.557C212.613 125.351 212.515 125.16 212.357 125.026C212.199 124.893 211.995 124.827 211.789 124.844C211.583 124.861 211.392 124.959 211.258 125.117Z" fill="#212941"/>
<path d="M214.607 127.519C212.14 129.348 210.231 131.828 209.094 134.68C209.032 134.776 208.991 134.884 208.972 134.997C208.954 135.11 208.958 135.225 208.985 135.336C209.012 135.447 209.061 135.552 209.129 135.643C209.197 135.735 209.283 135.812 209.381 135.87C209.48 135.928 209.589 135.966 209.702 135.98C209.815 135.995 209.931 135.987 210.041 135.957C210.151 135.926 210.254 135.873 210.343 135.802C210.432 135.731 210.507 135.643 210.561 135.542C211.331 134.493 212.649 133.124 213.864 131.526C214.559 130.567 215.2 129.57 215.783 128.54C215.913 128.383 215.976 128.181 215.959 127.978C215.942 127.775 215.846 127.587 215.692 127.453C215.537 127.32 215.337 127.253 215.134 127.266C214.93 127.278 214.74 127.37 214.604 127.522L214.607 127.519Z" fill="#212941"/>
<path d="M213.067 137.669C219.418 130.131 228.068 129.969 228.939 124.404C228.981 124.185 228.936 123.958 228.812 123.773C228.689 123.588 228.498 123.458 228.28 123.412C228.062 123.366 227.835 123.407 227.647 123.527C227.46 123.647 227.326 123.835 227.276 124.052C226.269 128.32 217.969 127.046 211.807 136.753C211.693 136.92 211.649 137.125 211.683 137.325C211.718 137.524 211.829 137.702 211.993 137.821C212.156 137.941 212.36 137.991 212.561 137.963C212.761 137.934 212.943 137.829 213.067 137.669Z" fill="#212941"/>
<path d="M119.49 119.403C120.155 118.9 120.926 118.556 121.744 118.396C122.563 118.236 123.407 118.264 124.212 118.479C126.877 119.147 129.333 120.47 131.356 122.329C131.432 122.411 131.523 122.477 131.624 122.524C131.726 122.571 131.836 122.597 131.947 122.6C132.059 122.604 132.17 122.586 132.274 122.546C132.379 122.507 132.475 122.447 132.556 122.371C132.721 122.216 132.818 122.003 132.826 121.777C132.834 121.551 132.753 121.331 132.599 121.165C128.727 116.476 122.305 113.677 118.397 118.288C118.319 118.359 118.257 118.444 118.213 118.54C118.17 118.635 118.146 118.739 118.143 118.843C118.14 118.948 118.158 119.053 118.197 119.15C118.235 119.248 118.293 119.337 118.366 119.412C118.44 119.487 118.528 119.546 118.625 119.586C118.722 119.626 118.826 119.646 118.931 119.646C119.035 119.645 119.139 119.622 119.235 119.581C119.331 119.539 119.418 119.478 119.49 119.402V119.403Z" fill="#212941"/>
<path d="M120.105 114.032C122.695 113.19 125.51 113.372 127.971 114.54C128.166 114.653 128.397 114.685 128.615 114.627C128.723 114.599 128.824 114.549 128.913 114.482C129.001 114.414 129.076 114.33 129.132 114.233C129.188 114.137 129.225 114.031 129.24 113.92C129.255 113.81 129.248 113.697 129.219 113.589C129.191 113.482 129.142 113.38 129.074 113.292C129.006 113.203 128.922 113.128 128.826 113.072C125.619 110.722 122.295 110.12 119.267 112.718C119.178 112.772 119.101 112.843 119.04 112.927C118.978 113.011 118.935 113.106 118.911 113.207C118.887 113.309 118.884 113.414 118.902 113.516C118.919 113.618 118.957 113.716 119.013 113.804C119.069 113.892 119.142 113.967 119.227 114.026C119.313 114.085 119.409 114.127 119.511 114.148C119.613 114.169 119.717 114.17 119.819 114.15C119.921 114.13 120.018 114.09 120.105 114.032Z" fill="#212941"/>
<path d="M122.601 109.452C125.153 108.99 129.283 111.089 131.513 112.401C131.697 112.514 131.917 112.554 132.13 112.511C132.342 112.468 132.53 112.346 132.655 112.17C132.781 111.994 132.835 111.777 132.806 111.562C132.778 111.348 132.669 111.152 132.501 111.015C130.912 109.427 128.972 108.233 126.839 107.528C125.263 107.098 123.585 107.257 122.117 107.975C122.016 108.003 121.921 108.051 121.839 108.117C121.757 108.183 121.689 108.265 121.639 108.358C121.59 108.45 121.559 108.552 121.55 108.657C121.541 108.762 121.553 108.867 121.585 108.968C121.618 109.068 121.671 109.16 121.74 109.239C121.809 109.318 121.894 109.383 121.989 109.428C122.084 109.474 122.187 109.499 122.292 109.504C122.397 109.509 122.502 109.492 122.601 109.455V109.452Z" fill="#212941"/>
<path d="M128.142 133.491C129.91 133.427 131.608 132.784 132.974 131.66C134.789 129.962 136.194 127.874 137.083 125.554C137.196 125.358 137.226 125.125 137.167 124.907C137.109 124.689 136.965 124.503 136.77 124.39C136.574 124.277 136.341 124.247 136.123 124.306C135.905 124.365 135.719 124.508 135.606 124.704C133.806 127.322 130.912 131.038 127.874 131.955C127.67 131.991 127.489 132.106 127.37 132.275C127.251 132.444 127.205 132.654 127.24 132.857C127.276 133.061 127.391 133.242 127.56 133.361C127.729 133.48 127.938 133.526 128.142 133.491Z" fill="#212941"/>
<path d="M208.351 152.445C207.901 151.253 207.365 147.055 206.891 144.476C206.155 141.075 205.623 137.634 205.297 134.17C205.288 134.029 205.244 133.891 205.169 133.771C205.094 133.65 204.99 133.55 204.868 133.479C204.269 133.212 203.742 132.809 203.327 132.302C202.912 131.795 202.621 131.199 202.476 130.56C202.332 129.921 202.339 129.257 202.497 128.621C202.654 127.985 202.958 127.395 203.383 126.897C203.522 126.704 203.581 126.465 203.546 126.23C200.868 107.705 195.384 77.9417 202.899 60.746C202.995 60.5257 203.022 60.2816 202.976 60.0457C202.931 59.8099 202.815 59.5934 202.644 59.4246C202.473 59.2558 202.255 59.1427 202.019 59.1002C201.782 59.0576 201.539 59.0875 201.319 59.186C195.393 61.866 190.036 65.6571 185.538 70.3541C174.899 80.706 162.424 99.859 137.348 108.877C137.149 108.949 136.972 109.071 136.834 109.231C136.697 109.392 136.604 109.586 136.564 109.793C135.246 116.747 137.83 124.947 143.62 129.028C143.758 129.127 143.916 129.194 144.082 129.227C144.248 129.259 144.42 129.255 144.584 129.216C158.708 125.786 172.15 118.079 183.873 109.678C184.145 124.835 185.783 139.937 188.765 154.8C188.801 154.988 188.894 155.161 189.032 155.294C189.17 155.427 189.346 155.514 189.535 155.542C195.713 156.365 201.998 155.678 207.852 153.54C207.957 153.501 208.053 153.442 208.135 153.366C208.216 153.29 208.282 153.198 208.329 153.096C208.375 152.995 208.401 152.885 208.405 152.773C208.409 152.661 208.39 152.55 208.351 152.445Z" fill="#3A5AB7"/>
<path d="M270.914 94.2625C274.884 78.6977 264.241 63.1545 250.11 56.0905C241.22 51.6568 232.77 51.5583 222.915 51.3735C222.651 51.3689 222.393 51.4509 222.18 51.6069C221.967 51.7629 221.811 51.9843 221.736 52.2374C220.952 54.9487 220.404 57.7229 220.1 60.5288C219 74.1737 219.103 87.889 220.408 101.516C222.529 100.438 233.786 94.6321 237.978 92.1219L235.254 86.0835C235.152 85.8816 235.134 85.6473 235.205 85.4323C235.275 85.2173 235.428 85.0391 235.63 84.937C235.832 84.8349 236.067 84.8172 236.282 84.8878C236.497 84.9584 236.675 85.1116 236.777 85.3135C237.621 86.8535 239.549 90.3047 240.413 92.0895C240.527 92.3335 240.549 92.6107 240.474 92.8695C240.399 93.1282 240.232 93.3508 240.005 93.4956C236.954 95.5572 233.763 97.405 230.457 99.0257C226.915 100.747 218.183 104.272 218.027 104.331C217.879 104.398 217.746 104.495 217.636 104.615C217.526 104.734 217.44 104.875 217.385 105.028C217.33 105.181 217.306 105.343 217.314 105.506C217.323 105.668 217.364 105.828 217.434 105.974C220.546 112.228 224.477 118.038 229.125 123.253C229.267 123.415 229.452 123.536 229.657 123.603C243.209 117.247 251.724 113.517 258.137 109.944C258.33 109.835 258.558 109.805 258.773 109.862C258.988 109.918 259.172 110.056 259.287 110.247C259.401 110.437 259.436 110.665 259.385 110.881C259.334 111.097 259.2 111.285 259.013 111.404C244.229 120.581 238.395 121.893 230.032 125.187C229.912 125.236 229.783 125.256 229.654 125.244C229.921 133.179 230.884 141.076 232.531 148.843C232.56 148.997 232.622 149.143 232.711 149.272C232.801 149.401 232.916 149.509 233.051 149.59C233.185 149.671 233.335 149.723 233.49 149.743C233.646 149.762 233.804 149.748 233.954 149.702C246.952 145.655 259.295 141.362 270.187 133.12C271.439 132.18 269.477 132.578 265.259 105.974C265.236 105.822 265.171 105.679 265.071 105.561C267.751 102.221 269.737 98.38 270.914 94.2625Z" fill="#3A5AB7"/>
<path d="M202.989 61.7793C203.693 64.1109 204.05 66.6827 206.223 68.0317C208.498 69.4439 210.971 67.9208 212.928 66.1052C216.253 62.7187 218.892 58.7207 220.698 54.3319C220.798 54.1301 220.815 53.8966 220.743 53.6827C220.672 53.4689 220.518 53.2922 220.316 53.1915C220.115 53.0908 219.881 53.0744 219.667 53.1459C219.453 53.2174 219.277 53.3709 219.176 53.5727C217.089 57.5224 214.417 61.1343 211.251 64.2864C210.25 65.1966 208.533 66.6935 207.337 66.0621C205.875 65.3321 205.196 62.9543 204.454 61.2419C204.382 61.0476 204.237 60.8897 204.049 60.8028C203.861 60.7158 203.647 60.707 203.453 60.7783C203.258 60.8496 203.101 60.9951 203.014 61.1828C202.927 61.3705 202.918 61.5851 202.989 61.7793Z" fill="#212941"/>
<path d="M213.547 248.814C213.441 246.847 213.304 244.764 213.018 242.808C212.996 242.696 212.996 242.581 213.02 242.469C213.043 242.357 213.089 242.251 213.154 242.158C213.219 242.064 213.303 241.984 213.399 241.923C213.496 241.863 213.603 241.822 213.716 241.803C213.829 241.785 213.944 241.789 214.055 241.816C214.166 241.843 214.27 241.892 214.362 241.961C214.453 242.029 214.53 242.115 214.588 242.213C214.646 242.312 214.683 242.421 214.698 242.534C215.126 244.896 215.349 247.223 215.552 249.618C215.57 249.866 215.492 250.111 215.335 250.304C215.178 250.497 214.953 250.623 214.707 250.656C210.179 251.29 194.322 253.814 188.294 252.966C186.881 252.819 185.527 252.318 184.358 251.51C184.096 251.355 183.901 251.107 183.811 250.816C183.721 250.525 183.742 250.21 183.87 249.934C184.269 248.946 185.316 249.036 186.08 248.688C187.132 248.216 188.533 247.56 190.084 246.957C192.904 245.879 196.45 245.833 198.883 244.862C201.086 243.992 201.363 243.014 202.546 240.821C202.593 240.73 202.658 240.65 202.737 240.584C202.816 240.518 202.907 240.468 203.005 240.438C203.103 240.407 203.206 240.396 203.308 240.405C203.411 240.414 203.51 240.443 203.601 240.491C203.692 240.539 203.773 240.604 203.839 240.683C203.905 240.761 203.954 240.852 203.985 240.95C204.016 241.048 204.027 241.152 204.018 241.254C204.008 241.356 203.979 241.456 203.932 241.547C202.743 243.887 202.369 245.347 199.632 246.598C197.063 247.773 193.567 247.953 190.957 249.083L188.083 250.426C192.566 251.247 209.007 249.348 213.547 248.814Z" fill="#212941"/>
<path d="M263.685 249.059C270.615 249.059 266.132 248.891 277.465 247.991L280.993 247.623C283.266 247.449 286.931 247.499 289.346 246.314C292.108 244.967 291.671 242.067 290.088 239.475C289.709 238.849 289.284 238.253 288.856 237.674C288.783 237.585 288.729 237.483 288.696 237.373C288.664 237.263 288.654 237.147 288.667 237.033C288.68 236.919 288.716 236.809 288.773 236.71C288.829 236.61 288.905 236.523 288.997 236.453C289.088 236.383 289.192 236.333 289.303 236.304C289.414 236.276 289.53 236.27 289.643 236.288C289.757 236.305 289.865 236.345 289.963 236.405C290.061 236.466 290.145 236.545 290.211 236.639C290.687 237.244 291.163 237.871 291.597 238.516C293.924 242.039 294.266 246.105 290.304 248.195C287.621 249.609 284.285 249.696 277.659 250.389C270.103 251.179 270.154 251.273 267.579 251.481C265.617 251.644 262.411 251.695 260.694 250.734C260.457 250.645 260.246 250.499 260.078 250.309C259.911 250.119 259.792 249.892 259.732 249.646C259.672 249.4 259.673 249.143 259.734 248.897C259.796 248.652 259.917 248.425 260.086 248.236C260.979 247.331 269.62 244.331 270.836 243.917C273.588 242.98 276.109 242.437 277.104 239.688C277.137 239.591 277.188 239.501 277.255 239.423C277.323 239.346 277.405 239.282 277.496 239.237C277.588 239.191 277.688 239.164 277.791 239.157C277.893 239.149 277.996 239.162 278.093 239.195C278.19 239.228 278.28 239.279 278.357 239.346C278.435 239.414 278.498 239.495 278.544 239.587C278.59 239.679 278.617 239.779 278.624 239.881C278.631 239.984 278.618 240.086 278.586 240.184C277.04 244.964 273.017 244.702 263.685 249.059ZM262.046 248.942C262.027 248.885 262.003 248.831 261.975 248.778C261.946 248.729 261.892 248.537 261.854 248.612C261.767 248.771 261.858 248.875 262.046 248.942Z" fill="#212941"/>
<path d="M118.737 42.4616C118.625 65.0088 118.551 71.004 118.696 87.5036C118.696 87.6285 118.745 87.7484 118.834 87.8368C118.922 87.9252 119.042 87.9748 119.167 87.9748C119.292 87.9748 119.412 87.9252 119.5 87.8368C119.588 87.7484 119.638 87.6285 119.638 87.5036C119.73 54.3936 119.723 52.7288 119.596 42.4616C119.596 42.3477 119.551 42.2384 119.471 42.1578C119.39 42.0773 119.281 42.032 119.167 42.032C119.053 42.032 118.944 42.0773 118.863 42.1578C118.782 42.2384 118.737 42.3477 118.737 42.4616Z" fill="#FF9500"/>
<path d="M118.716 147.557V205.11C118.712 205.172 118.721 205.233 118.742 205.291C118.763 205.349 118.796 205.402 118.838 205.446C118.88 205.491 118.931 205.527 118.987 205.551C119.044 205.575 119.105 205.588 119.166 205.588C119.228 205.588 119.288 205.575 119.345 205.551C119.401 205.527 119.452 205.491 119.494 205.446C119.536 205.402 119.569 205.349 119.59 205.291C119.611 205.233 119.62 205.172 119.617 205.11V147.557C119.61 147.443 119.559 147.335 119.476 147.256C119.392 147.177 119.281 147.133 119.166 147.133C119.051 147.133 118.94 147.177 118.856 147.256C118.773 147.335 118.722 147.443 118.716 147.557Z" fill="#FF9500"/>
<path d="M138.733 135.046V205.116C138.73 205.178 138.739 205.239 138.76 205.297C138.781 205.355 138.813 205.408 138.855 205.452C138.898 205.497 138.948 205.533 139.005 205.557C139.061 205.581 139.122 205.594 139.184 205.594C139.245 205.594 139.306 205.581 139.362 205.557C139.419 205.533 139.47 205.497 139.512 205.452C139.554 205.408 139.587 205.355 139.608 205.297C139.629 205.239 139.638 205.178 139.634 205.116V135.046C139.627 134.932 139.577 134.824 139.493 134.745C139.41 134.666 139.299 134.622 139.184 134.622C139.069 134.622 138.958 134.666 138.874 134.745C138.79 134.824 138.74 134.932 138.733 135.046Z" fill="#FF9500"/>
<path d="M138.733 29.9505V100.021C138.73 100.082 138.739 100.143 138.76 100.201C138.781 100.259 138.813 100.312 138.855 100.356C138.898 100.401 138.948 100.437 139.005 100.461C139.061 100.486 139.122 100.498 139.184 100.498C139.245 100.498 139.306 100.486 139.362 100.461C139.419 100.437 139.47 100.401 139.512 100.356C139.554 100.312 139.587 100.259 139.608 100.201C139.629 100.143 139.638 100.082 139.634 100.021V29.9505C139.627 29.8356 139.577 29.7276 139.493 29.6486C139.41 29.5696 139.299 29.5256 139.184 29.5256C139.069 29.5256 138.958 29.5696 138.874 29.6486C138.79 29.7276 138.74 29.8356 138.733 29.9505Z" fill="#FF9500"/>
<path d="M152.236 32.0189C147.695 27.4715 142.233 23.9495 136.218 21.6897C130.202 19.4299 123.772 18.4849 117.361 18.918C110.949 19.3512 104.705 21.1526 99.0475 24.201C93.3904 27.2494 88.4518 31.4741 84.5641 36.5909C80.6764 41.7076 77.9297 47.5977 76.5088 53.8648C75.0879 60.1319 75.0258 66.6307 76.3267 72.9238C77.6276 79.2169 80.2612 85.1584 84.0505 90.3485C87.8398 95.5386 92.6967 99.8569 98.2945 103.013C97.4321 106.502 72.0668 210.001 70.958 214.543C66.4566 216.344 31.0982 231.38 1.21907 244.366C1.00995 244.456 0.845016 244.625 0.76054 244.836C0.676064 245.048 0.678972 245.284 0.768623 245.493C0.858274 245.702 1.02733 245.867 1.23859 245.951C1.44985 246.036 1.68602 246.033 1.89513 245.943C53.3897 223.981 55.7643 223.028 71.9297 215.849C72.4918 215.599 70.6761 223.264 100.868 102.696C100.933 102.434 100.91 102.159 100.801 101.912C100.692 101.666 100.505 101.463 100.267 101.336C91.3129 96.4958 84.3832 88.615 80.7282 79.1151C77.0733 69.6153 76.9339 59.1219 80.3352 49.5284C83.7365 39.9348 90.4544 31.8726 99.277 26.7965C108.1 21.7203 118.446 19.9644 128.449 21.8456C120.459 24.9512 113.526 30.2826 108.474 37.208C103.421 44.1333 100.46 52.3622 99.941 60.9192C99.4223 69.4762 101.368 78.0024 105.547 85.4874C109.727 92.9723 115.964 99.102 123.521 103.15C123.719 103.247 123.946 103.264 124.156 103.197C124.366 103.131 124.542 102.985 124.647 102.791C124.752 102.598 124.777 102.371 124.718 102.159C124.66 101.946 124.521 101.765 124.331 101.653C116.865 97.6158 110.765 91.4528 106.805 83.945C102.846 76.4373 101.204 67.9229 102.089 59.4811C102.974 51.0394 106.345 43.0504 111.775 36.5268C117.206 30.0032 124.451 25.2387 132.592 22.8374C140.536 25.1819 147.632 29.7781 153.019 36.0701C158.407 42.3621 161.856 50.0804 162.949 58.2913C164.042 66.5022 162.733 74.854 159.18 82.3365C155.626 89.819 149.981 96.1117 142.927 100.453C142.734 100.572 142.597 100.762 142.545 100.982C142.492 101.201 142.53 101.433 142.648 101.625C142.766 101.818 142.956 101.955 143.176 102.007C143.396 102.06 143.628 102.022 143.82 101.904C149.608 98.3789 154.52 93.5865 158.187 87.8877C161.854 82.189 164.181 75.7324 164.991 69.0043C165.801 62.2761 165.074 55.4519 162.865 49.0454C160.656 42.6389 157.021 36.8173 152.236 32.0189Z" fill="#212941"/>
<path d="M180.248 251.161C180.248 251.161 107.193 208.061 103.833 206.165C109.187 206.955 171.718 215.961 171.718 215.961C172.059 215.962 172.394 215.863 172.679 215.675C172.965 215.488 173.189 215.22 173.324 214.906L151.513 129.846C151.461 129.645 151.332 129.474 151.154 129.368C150.976 129.263 150.764 129.233 150.563 129.284C150.363 129.336 150.191 129.465 150.086 129.643C149.981 129.821 149.951 130.033 150.002 130.234C150.002 130.234 170.452 210.808 171.365 214.182C167.58 213.585 104.282 203.763 100.486 203.187C101.453 199.26 116.9 134.404 118.323 128.276C118.751 129.063 119.357 129.738 120.093 130.248C120.829 130.758 121.673 131.089 122.56 131.214C123.446 131.339 124.35 131.254 125.198 130.968C126.046 130.681 126.815 130.2 127.444 129.562C127.971 129.028 128.385 128.394 128.662 127.697C128.94 127 129.074 126.254 129.057 125.504C129.04 124.754 128.873 124.015 128.565 123.331C128.258 122.647 127.816 122.032 127.265 121.522C126.46 120.762 125.45 120.252 124.36 120.055C123.27 119.859 122.146 119.984 121.126 120.415C120.106 120.846 119.233 121.564 118.613 122.483C117.994 123.401 117.656 124.48 117.639 125.588C117.536 125.638 117.446 125.71 117.374 125.798C117.303 125.887 117.251 125.99 117.223 126.1C96.4115 209.368 97.5019 204.217 97.9515 204.888C98.3258 205.443 98.8263 205.424 99.6825 205.551C99.8365 205.757 96.1544 203.901 179.376 252.641C179.572 252.747 179.801 252.773 180.015 252.713C180.23 252.654 180.413 252.513 180.526 252.321C180.639 252.129 180.673 251.901 180.621 251.685C180.569 251.468 180.435 251.28 180.248 251.161ZM120.793 122.905C121.272 122.368 121.907 121.995 122.61 121.838C123.312 121.681 124.046 121.749 124.708 122.031C125.37 122.313 125.927 122.795 126.3 123.411C126.674 124.026 126.845 124.742 126.79 125.46C126.768 126.024 126.61 126.575 126.329 127.065C126.047 127.555 125.651 127.969 125.174 128.272C124.697 128.575 124.154 128.757 123.591 128.803C123.028 128.849 122.462 128.758 121.942 128.537C121.422 128.316 120.963 127.972 120.606 127.535C120.248 127.097 120.002 126.579 119.889 126.026C119.776 125.472 119.8 124.9 119.957 124.357C120.114 123.814 120.401 123.318 120.793 122.911V122.905Z" fill="#212941"/>
</svg>
