<svg preserveAspectRatio="xMidYMid meet" width="530px" height="100%" viewBox="0 0 510 408" fill="none" xmlns="http://www.w3.org/2000/svg">
<path d="M492.401 217.607C503.952 217.607 325.804 217.494 326.356 217.564C325.552 217.395 325.212 218.622 326.016 218.791C327.383 219.04 490.699 219.354 492.527 218.622C493.459 218.622 493.106 217.43 492.401 217.607Z" fill="#3A5AB7"/>
<path d="M347.49 210.968C347.452 211.609 348.508 211.63 348.508 210.757C349.162 208.792 348.886 167.834 348.805 166.917C350.355 167.062 350.432 166.963 360.919 167.043C360.919 167.043 360.664 207.2 360.707 208.639C360.707 209.403 360.833 210.207 360.79 210.968C360.75 211.604 361.723 211.563 361.766 210.968C361.766 211.177 361.852 210.558 361.852 210.333C362.535 203.486 362.104 173.001 362.104 166.649C362.186 166.564 362.233 166.45 362.233 166.332C362.233 166.213 362.186 166.099 362.104 166.014C361.847 165.837 361.558 165.711 361.253 165.646C360.948 165.58 360.634 165.575 360.327 165.631C360.059 165.631 349.583 165.727 348.465 165.885C348.173 165.652 347.744 165.824 347.744 166.395C347.476 168.003 347.356 208.398 347.364 208.669C347.474 209.43 347.516 210.2 347.49 210.968Z" fill="#3A5AB7" class="svg-animation--coin svg-animation--coin-4"/>
<path d="M378.116 210.448C378.073 211.083 379.049 211.04 379.089 210.448C379.089 210.531 379.089 210.405 379.132 210.279C379.132 210.194 379.132 210.108 379.175 210.068C379.727 207.87 379.387 169.495 379.387 154.324C380.898 154.458 391.857 154.409 391.586 154.409C391.484 155.114 391.355 210.727 391.374 210.451C391.331 211.086 392.307 211.043 392.35 210.451C392.35 210.534 392.35 210.365 392.39 210.282C392.383 210.195 392.398 210.108 392.433 210.027C392.969 207.883 392.701 154.659 392.602 154.015L392.644 153.973C392.726 153.887 392.771 153.773 392.771 153.655C392.771 153.537 392.726 153.423 392.644 153.337C392.117 152.999 391.485 152.864 390.865 152.957C390.597 152.957 380.319 153.061 379.089 153.252C379.047 153.192 378.989 153.145 378.922 153.117C378.854 153.09 378.78 153.082 378.708 153.096C378.637 153.11 378.57 153.144 378.518 153.194C378.465 153.245 378.428 153.309 378.411 153.38C378.411 153.659 377.95 212.924 378.116 210.448Z" fill="#3A5AB7" class="svg-animation--coin svg-animation--coin-3" />
<path d="M409.799 210.448C409.756 211.084 410.732 211.084 410.775 210.448C410.923 209.439 410.994 208.419 410.986 207.399C411.324 199.983 411.107 141.229 411.029 140.597C412.147 140.696 411.881 140.683 423.229 140.683C423.229 141.184 423.1 141.326 423.1 141.698V210.448C423.1 210.507 423.111 210.565 423.134 210.619C423.156 210.673 423.189 210.722 423.23 210.763C423.271 210.804 423.321 210.837 423.375 210.859C423.429 210.882 423.486 210.893 423.545 210.893C423.603 210.893 423.661 210.882 423.715 210.859C423.769 210.837 423.818 210.804 423.859 210.763C423.901 210.722 423.933 210.673 423.956 210.619C423.978 210.565 423.99 210.507 423.99 210.448C424.312 207.566 424.453 204.666 424.413 201.765C424.654 186.339 424.097 140.259 424.37 140.259C424.453 140.174 424.499 140.06 424.499 139.942C424.499 139.823 424.453 139.709 424.37 139.624C423.585 139.088 424.405 139.195 412.511 139.412C411.959 139.413 411.407 139.455 410.86 139.538C410.826 139.47 410.772 139.413 410.705 139.375C410.639 139.337 410.562 139.319 410.486 139.324C410.409 139.328 410.336 139.355 410.274 139.401C410.213 139.446 410.166 139.509 410.139 139.581C410.139 139.801 409.979 139.822 410.054 140.047C409.727 141.693 409.783 210.722 409.799 210.448Z" fill="#3A5AB7" class="svg-animation--coin svg-animation--coin-2"/>
<path d="M409.799 210.448C409.756 211.084 410.732 211.084 410.775 210.448C410.923 209.439 410.994 208.419 410.986 207.399C411.324 199.983 411.107 141.229 411.029 140.597C412.147 140.696 411.881 140.683 423.229 140.683C423.229 141.184 423.1 141.326 423.1 141.698V210.448C423.1 210.507 423.111 210.565 423.134 210.619C423.156 210.673 423.189 210.722 423.23 210.763C423.271 210.804 423.321 210.837 423.375 210.859C423.429 210.882 423.486 210.893 423.545 210.893C423.603 210.893 423.661 210.882 423.715 210.859C423.769 210.837 423.818 210.804 423.859 210.763C423.901 210.722 423.933 210.673 423.956 210.619C423.978 210.565 423.99 210.507 423.99 210.448C424.312 207.566 424.453 204.666 424.413 201.765C424.654 186.339 424.097 140.259 424.37 140.259C424.453 140.174 424.499 140.06 424.499 139.942C424.499 139.823 424.453 139.709 424.37 139.624C423.585 139.088 424.405 139.195 412.511 139.412C411.959 139.413 411.407 139.455 410.86 139.538C410.826 139.47 410.772 139.413 410.705 139.375C410.639 139.337 410.562 139.319 410.486 139.324C410.409 139.328 410.336 139.355 410.274 139.401C410.213 139.446 410.166 139.509 410.139 139.581C410.139 139.801 409.979 139.822 410.054 140.047C409.727 141.693 409.783 210.722 409.799 210.448Z" fill="#3A5AB7" class="svg-animation--coin svg-animation--coin-2"/>
<path d="M442.502 210.164V210.376C442.459 211.011 443.434 211.011 443.477 210.376V210.121C443.471 210.02 443.484 209.919 443.517 209.824C444.053 206.659 443.785 131.75 443.689 130.868C445.206 131.002 456.159 130.954 455.888 130.954C455.866 131.212 455.815 131.468 455.738 131.715V210.333C455.738 210.454 455.786 210.57 455.872 210.655C455.957 210.741 456.073 210.789 456.194 210.789C456.315 210.789 456.43 210.741 456.516 210.655C456.601 210.57 456.649 210.454 456.649 210.333V210.078C456.642 209.964 456.657 209.85 456.692 209.741C457.172 206.86 457.043 131.364 456.861 130.825V130.568C457.03 130.568 457.196 130.137 456.947 129.89C456.872 129.819 456.786 129.761 456.692 129.719C455.174 129.387 453.608 129.344 452.075 129.593C449.192 129.52 446.307 129.605 443.434 129.847C443.348 129.507 442.756 129.507 442.713 129.847C442.713 130.003 442.563 130.222 442.63 130.356C442.448 131.447 442.225 206.736 442.333 209.861C442.502 209.982 442.502 210.065 442.502 210.164Z" fill="#3A5AB7" class="svg-animation--coin svg-animation--coin-1"/>
<path d="M444.367 109.04C440.823 108.214 437.202 107.764 433.564 107.7C433.44 107.702 433.321 107.75 433.228 107.833C433.136 107.916 433.077 108.03 433.062 108.153C433.047 108.276 433.076 108.401 433.145 108.504C433.214 108.607 433.318 108.682 433.438 108.715C436.739 109.551 440.093 110.159 443.477 110.535C438.604 114.092 433.526 117.36 428.271 120.323C396.172 138.563 362.412 143.797 349.313 146.922C348.551 147.093 348.889 148.152 349.61 148.023C352.998 147.557 356.388 146.838 359.732 146.118C386.739 140.366 413.673 131.64 436.705 116.793C439.422 115.075 443.359 112.309 444.209 111.666C444.136 112.181 444.209 112.309 443.785 115.394C443.533 117.299 443.067 119.165 442.855 121.07C442.77 122.003 444.195 122.129 444.463 121.282C445.149 118.198 445.617 115.07 445.862 111.921C446.085 109.396 446.393 109.294 444.367 109.04Z" fill="#FF9500" class="svg-animation__arrow svg-animation__arrow-4" />
<path d="M507.904 1.44838C507.889 1.32568 507.849 1.20734 507.787 1.10027C507.725 0.993192 507.642 0.899517 507.544 0.824692C507.445 0.749867 507.333 0.695391 507.213 0.664435C507.093 0.633479 506.968 0.626662 506.846 0.644382C506.578 0.644382 31.8963 1.73514 31.6229 1.87182C31.5193 1.73824 31.3763 1.64071 31.2141 1.5931C31.0519 1.54548 30.8788 1.5502 30.7194 1.60659C30.56 1.66297 30.4225 1.76815 30.3264 1.90718C30.2302 2.04621 30.1803 2.21201 30.1838 2.38102C30.1838 5.67474 31.5961 255.504 31.4112 257.337C31.3683 258.482 33.1478 258.482 33.2336 257.337C33.5847 250.737 33.59 250.211 31.9204 3.60846C37.4653 3.68886 505.659 2.21218 506.168 2.21218C506.168 14.969 507.567 254.529 507.395 256.236C507.355 257.38 509.132 257.38 509.218 256.236C510.458 232.912 507.939 1.7941 507.904 1.44838Z" fill="#212941"/>
<path d="M115.371 241.708C115.332 241.585 115.266 241.473 115.176 241.38C115.087 241.287 114.978 241.216 114.857 241.172C112.739 234.367 109.924 227.8 106.458 221.573C107.468 219.871 107.184 207.637 106.943 204.483C106.936 204.355 106.902 204.23 106.842 204.117C106.782 204.004 106.698 203.906 106.595 203.829C106.493 203.752 106.375 203.699 106.25 203.673C106.125 203.647 105.995 203.649 105.871 203.679C92.4386 206.072 77.8782 211.134 68.8064 221.342C68.0784 221.95 67.5237 222.738 67.1984 223.628C66.9867 224.644 67.7076 225.789 68.0453 226.724C70.3766 232.626 73.0614 238.382 76.0853 243.962C76.125 244.027 76.1799 244.081 76.2452 244.12C76.3105 244.16 76.3844 244.182 76.4605 244.187C73.8823 248.802 77.5325 255.443 81.9732 255.443C82.0563 256.29 82.3967 257.137 82.5226 257.943C83.3266 262.376 81.6275 264.868 82.0134 266.286C82.0347 266.358 82.0717 266.424 82.1218 266.479C82.1718 266.535 82.2337 266.579 82.3028 266.607C82.372 266.636 82.4466 266.648 82.5213 266.644C82.5959 266.64 82.6687 266.619 82.7344 266.584C84.7872 265.15 84.5541 257.472 83.4955 255.231C85.1598 254.804 86.6082 253.778 87.5637 252.35C87.6207 252.25 87.6478 252.136 87.6419 252.022C87.636 251.907 87.5974 251.796 87.5305 251.703C87.4636 251.61 87.3714 251.537 87.2647 251.495C87.158 251.452 87.0413 251.441 86.9286 251.463C85.3929 251.857 81.9223 256.308 78.583 251.546C75.8441 247.663 77.7362 242.97 80.8691 243.158C81.5755 243.266 82.2613 243.481 82.9032 243.795C83.1712 243.884 84.4951 243.434 84.5112 242.723C84.597 239.239 85.1437 235.772 85.4438 232.304C85.535 231.232 85.275 230.95 86.205 230.484C92.5178 227.437 98.9854 224.721 105.581 222.347C106.275 224.028 107.908 227.303 108.189 228.155C107.608 228.016 107.002 228.017 106.42 228.156C105.839 228.296 105.299 228.571 104.844 228.959C104.76 229.046 104.707 229.159 104.692 229.279C104.677 229.399 104.702 229.521 104.762 229.626C104.823 229.732 104.916 229.814 105.027 229.862C105.139 229.91 105.263 229.92 105.38 229.892C106.217 229.615 107.118 229.6 107.964 229.849C108.216 229.9 108.583 229.953 108.768 229.766C110.49 233.748 111.997 237.821 113.281 241.965C110.032 244.925 105.936 246.791 101.57 247.3C97.205 247.809 92.7897 246.936 88.9466 244.803C87.5798 243.439 86.5668 244.881 87.4217 245.733C89.7016 247.975 91.3141 250.805 92.0795 253.91C92.5539 255.914 92.168 257.241 94.0279 257.89C97.266 259.112 100.667 259.849 104.121 260.076C104.024 261.098 104.432 263.751 105.337 264.332C105.635 264.498 106.141 264.373 106.184 263.992C106.316 263.215 105.538 261.95 105.297 260.111C112.959 260.058 118.778 252.94 115.371 241.708ZM109.612 253.146C109.163 253.573 108.597 253.857 107.987 253.962C107.376 254.067 106.748 253.99 106.182 253.738C105.648 253.496 105.188 253.119 104.845 252.643C104.503 252.168 104.291 251.611 104.231 251.029C104.231 250.688 104.657 250.517 104.826 250.688C105.587 251.452 106.139 252.741 107.409 252.723C108.679 252.704 109.403 251.334 109.91 250.943C110.861 250.193 111.351 251.731 109.604 253.146H109.612Z" fill="#212941"/>
<path d="M106.936 238.32C107.459 239.223 107.859 240.192 108.123 241.201C108.123 242.029 106.365 242.19 105.537 242.131C105.124 242.131 104.575 242.606 104.776 243.107C104.831 243.257 104.928 243.387 105.056 243.482C105.184 243.577 105.337 243.633 105.497 243.643C106.167 243.755 106.855 243.706 107.504 243.5C108.152 243.294 108.742 242.937 109.225 242.458C110.071 241.314 109.308 239.872 108.798 238.73C107.724 236.145 106.089 233.83 104.012 231.953C103.631 231.655 102.996 232.036 103.294 232.489C104.643 234.345 105.86 236.293 106.936 238.32Z" fill="#212941"/>
<path d="M95.5006 235.525C95.7812 234.934 96.1539 234.391 96.6047 233.917C97.055 233.504 97.3203 233.563 97.7357 232.982C98.3842 232.07 97.4168 231.658 96.8191 231.816C96.2318 232.078 95.7121 232.471 95.2997 232.965C94.8873 233.459 94.593 234.04 94.4393 234.665C94.2383 235.68 95.2084 236.104 95.5006 235.525Z" fill="#212941"/>
<path d="M24.7583 286.906C26.0338 285.135 26.7565 283.027 26.8353 280.846C26.3213 278.656 25.6127 276.516 24.7181 274.452C24.2512 272.161 24.4265 269.786 25.2246 267.588C25.2675 267.165 24.6753 266.996 24.4207 267.251C23.8473 267.996 23.4283 268.849 23.1881 269.758C22.9479 270.667 22.8914 271.615 23.0217 272.546C23.212 276.893 26.6745 279.64 24.9701 283.559C24.0983 285.099 23.3344 286.699 22.684 288.345C22.2606 289.827 22.2177 292.199 23.8686 293.005C23.9457 293.047 24.0343 293.063 24.1211 293.05C24.2079 293.038 24.2883 292.997 24.3504 292.935C24.4124 292.873 24.4527 292.793 24.4654 292.706C24.4781 292.619 24.4624 292.531 24.4207 292.453C23.9431 291.592 23.7213 290.613 23.7811 289.63C23.8409 288.648 24.1799 287.702 24.7583 286.906Z" fill="#212941"/>
<path d="M17.0514 267.589C17.172 268.438 17.1345 269.623 17.7696 270.269C17.8469 270.337 17.9398 270.386 18.0403 270.411C18.1407 270.436 18.2457 270.436 18.3461 270.411C18.4465 270.385 18.5392 270.336 18.6163 270.267C18.6933 270.198 18.7522 270.111 18.788 270.014C19.182 269.06 18.4289 267.91 18.2788 264.592C18.1529 262.77 18.11 260.907 18.0242 259.085C17.984 258.579 17.2202 258.45 17.1345 258.959C16.7037 261.818 16.6757 264.722 17.0514 267.589Z" fill="#212941"/>
<path d="M12.2637 270.258C12.3082 270.892 12.5447 271.498 12.9417 271.994C13.0124 272.069 13.1018 272.123 13.2006 272.152C13.2995 272.18 13.4041 272.181 13.5035 272.155C13.6029 272.129 13.6936 272.077 13.7659 272.004C13.8382 271.931 13.8896 271.839 13.9146 271.74C14.0559 271.151 14.0271 270.534 13.8315 269.96C13.0704 265.651 12.6447 261.289 12.5585 256.914C12.5183 256.448 11.7974 256.279 11.7116 256.788C11.0911 261.275 11.2781 265.837 12.2637 270.258Z" fill="#212941"/>
<path d="M6.83192 270.089C7.08652 270.936 7.21248 272.206 8.14512 272.586C8.2576 272.623 8.37972 272.618 8.48871 272.572C8.59769 272.526 8.68609 272.441 8.7374 272.335C9.394 271.153 7.786 270.231 6.3656 260.896C6.27984 260.304 5.26412 260.43 5.2936 261.025C5.47435 264.093 5.9902 267.133 6.83192 270.089Z" fill="#212941"/>
<path d="M9.51208 291.1C4.59428 283.06 3.61608 274.977 1.42384 266.321C1.2952 265.785 0.351838 265.897 0.448318 266.45C1.17301 274.937 3.56261 283.199 7.48064 290.762C8.07292 291.834 8.79384 292.88 9.38612 293.938C10.6457 296.098 10.5358 296.543 11.2085 296.905C11.2828 296.942 11.3641 296.962 11.447 296.964C11.5298 296.967 11.6122 296.951 11.6885 296.919C11.7648 296.887 11.8333 296.838 11.8892 296.777C11.9451 296.716 11.9872 296.644 12.0125 296.565C12.4386 295.56 11.4336 294.244 9.51208 291.1Z" fill="#212941"/>
<path d="M6.75711 276.526C6.70172 276.588 6.66959 276.666 6.6663 276.749C6.663 276.832 6.68875 276.913 6.73907 276.979C6.78939 277.044 6.86111 277.09 6.94176 277.108C7.02241 277.126 7.1069 277.116 7.18055 277.078C14.5452 273.31 16.7749 275.288 18.9136 274.918C19.3799 274.832 19.337 274.24 19.0422 273.986C17.4717 272.79 10.5118 272.774 6.75711 276.526Z" fill="#212941"/>
<path d="M370.916 281.101C372.138 279.421 372.835 277.417 372.92 275.342C372.442 273.252 371.776 271.211 370.929 269.242C370.512 267.061 370.688 264.808 371.438 262.719C371.478 262.295 370.929 262.167 370.674 262.421C370.134 263.134 369.74 263.946 369.515 264.811C369.289 265.676 369.237 266.577 369.361 267.462C369.546 271.56 372.786 274.162 371.224 277.882C370.411 279.347 369.691 280.86 369.066 282.414C368.683 283.813 368.6 286.099 370.165 286.863C370.236 286.902 370.318 286.917 370.398 286.905C370.479 286.894 370.553 286.856 370.61 286.799C370.668 286.742 370.705 286.667 370.717 286.587C370.728 286.507 370.713 286.425 370.674 286.354C370.236 285.538 370.026 284.619 370.069 283.694C370.111 282.769 370.404 281.873 370.916 281.101Z" fill="#212941"/>
<path d="M363.541 262.759C363.64 263.563 363.624 264.71 364.219 265.303C364.292 265.371 364.381 265.42 364.479 265.444C364.576 265.469 364.678 265.469 364.775 265.443C364.872 265.418 364.961 265.368 365.034 265.299C365.107 265.23 365.161 265.144 365.191 265.048C365.334 264.21 365.261 263.35 364.98 262.548C364.662 259.934 364.493 257.304 364.473 254.671C364.43 254.205 363.709 254.033 363.624 254.542C363.202 257.263 363.174 260.031 363.541 262.759Z" fill="#212941"/>
<path d="M359.013 265.303C359.07 265.901 359.29 266.471 359.648 266.954C359.719 267.019 359.805 267.065 359.898 267.089C359.992 267.112 360.09 267.11 360.183 267.085C360.276 267.06 360.361 267.012 360.43 266.944C360.499 266.877 360.55 266.794 360.578 266.702C360.719 266.14 360.691 265.55 360.495 265.005C359.78 260.904 359.369 256.756 359.265 252.594C359.225 252.171 358.547 252.002 358.461 252.468C357.877 256.745 358.064 261.092 359.013 265.303Z" fill="#212941"/>
<path d="M353.843 265.133C354.076 265.937 354.226 267.165 355.073 267.505C355.186 267.537 355.306 267.529 355.414 267.483C355.522 267.437 355.611 267.355 355.665 267.251C356.319 266.071 354.593 264.957 353.419 256.365C353.336 255.77 352.361 255.941 352.404 256.49C352.566 259.415 353.048 262.314 353.843 265.133Z" fill="#212941"/>
<path d="M356.387 285.127C351.691 277.355 350.879 270.387 348.676 261.575C348.55 261.066 347.661 261.151 347.744 261.701C348.45 269.773 350.726 277.63 354.444 284.829C355.036 285.845 355.671 286.863 356.263 287.879C357.478 289.959 357.303 290.396 358 290.717C358.068 290.755 358.144 290.777 358.222 290.782C358.3 290.787 358.378 290.775 358.45 290.747C358.523 290.719 358.589 290.675 358.643 290.619C358.697 290.563 358.738 290.496 358.764 290.422C359.083 289.613 358.614 288.809 356.387 285.127Z" fill="#212941"/>
<path d="M362.402 268.183C360.83 268.075 359.253 268.29 357.767 268.814C356.281 269.338 354.918 270.16 353.762 271.231C353.464 271.528 353.845 271.911 354.185 271.74C361.008 268.256 363.509 270.038 365.326 269.708C365.789 269.623 365.749 269.073 365.452 268.819C364.512 268.332 363.457 268.113 362.402 268.183Z" fill="#212941"/>
<path d="M199.364 260.685C198.133 259.626 196.566 259.16 195.295 258.227C194.022 257.105 192.574 256.199 191.007 255.547C190.291 255.307 189.526 255.243 188.78 255.362C188.033 255.48 187.326 255.777 186.719 256.228C182.431 259.404 183.235 261.588 183.795 264.994C184.072 266.958 183.985 268.957 183.541 270.89C183.515 270.987 183.525 271.091 183.568 271.182C183.611 271.272 183.686 271.345 183.778 271.386C183.87 271.427 183.973 271.434 184.07 271.405C184.166 271.377 184.25 271.315 184.305 271.23C186.985 266.406 183.176 262.204 185.575 259.286C186.315 258.227 187.344 257.403 188.539 256.911C191.219 256.107 193.537 259.157 195.614 260.301C196.796 260.759 197.864 261.467 198.747 262.376C198.936 262.568 199.074 262.804 199.151 263.062C199.228 263.32 199.24 263.593 199.188 263.857C199.135 264.122 199.018 264.369 198.848 264.578C198.678 264.787 198.459 264.951 198.211 265.056C197.236 265.388 196.197 265.493 195.175 265.361C194.152 265.229 193.174 264.864 192.315 264.295C191.779 263.847 191.213 263.436 190.621 263.065C190.238 262.853 189.9 263.233 190.069 263.617C190.973 264.758 192.161 265.641 193.515 266.177C194.869 266.712 196.34 266.881 197.78 266.666C198.479 266.654 199.156 266.414 199.707 265.982C200.258 265.55 200.653 264.951 200.832 264.274C201.011 263.597 200.965 262.881 200.7 262.233C200.435 261.585 199.966 261.042 199.364 260.685Z" fill="#212941"/>
<path d="M195.424 255.475C197.273 252.16 198.94 246.767 200.465 244.377C200.717 243.996 201.001 243.656 201.269 243.275C200.764 247.729 199.9 252.135 198.686 256.45C198.6 257.043 199.447 257.592 199.787 256.914C201.236 252.753 202.189 248.435 202.625 244.05C202.709 243.329 202.751 242.396 202.116 241.93C200.345 240.437 198.179 245.714 197.33 247.861C196.273 250.223 195.34 252.638 194.535 255.097C194.508 255.209 194.522 255.328 194.574 255.431C194.627 255.534 194.714 255.616 194.82 255.661C194.927 255.706 195.046 255.712 195.156 255.678C195.267 255.644 195.362 255.572 195.424 255.475Z" fill="#212941"/>
<path d="M199.575 259.414C199.307 259.875 199.955 260.43 200.336 260.007C201.072 259.155 201.964 258.452 202.962 257.932C204.723 257.051 205.005 258.058 205.758 258.187C206.562 258.385 206.913 256.847 204.954 256.311C203.852 256.25 202.757 256.511 201.802 257.062C200.847 257.613 200.073 258.431 199.575 259.414Z" fill="#212941"/>
<path d="M202.369 261.786C201.989 262.084 202.495 262.676 202.876 262.464C204.074 261.768 204.929 260.83 205.757 260.347C207.116 259.666 207.555 260.489 208.257 260.771C208.959 261.052 209.297 259.506 207.622 258.948C205.21 258.136 203.305 261.052 202.369 261.786Z" fill="#212941"/>
<path d="M209.23 263.989C208.877 262.185 206.454 262.553 205.079 264.201C204.784 264.539 205.165 265.174 205.588 264.879C205.969 264.624 207.537 263.692 207.96 264.201C208.129 264.413 207.96 265.217 207.877 265.471C207.022 269.746 197.795 274.404 197.795 278.941C197.801 279.048 197.84 279.15 197.907 279.233C197.974 279.317 198.066 279.377 198.169 279.405C198.273 279.433 198.382 279.428 198.482 279.39C198.583 279.353 198.668 279.285 198.728 279.195C199.633 277.347 200.834 275.658 202.284 274.197C204.484 271.935 210.002 267.899 209.23 263.989Z" fill="#212941"/>
<path d="M196.228 280.466C191.494 278.489 187.049 275.882 183.013 272.715C182.839 272.62 182.639 272.581 182.442 272.604C182.245 272.626 182.06 272.709 181.911 272.841C175.829 277.732 170.342 283.319 165.563 289.489C164.271 293.913 163.531 298.48 163.36 303.085C163.358 303.218 163.309 303.347 163.222 303.447C163.134 303.548 163.014 303.615 162.882 303.635C162.75 303.656 162.615 303.629 162.501 303.56C162.387 303.49 162.301 303.383 162.259 303.256C161.136 299.571 162.782 293.876 164.164 289.532C163.149 288.514 157.092 282.5 155.144 280.509C145.241 270.593 134.676 258.801 119.942 258.533C115.996 258.424 112.096 259.392 108.659 261.333C105.834 262.965 104.301 266.358 96.0174 267.152C92.2774 267.565 88.4944 267.343 84.8284 266.495C81.8 265.423 84.0834 263.954 77.4557 263.954C64.3023 264.305 53.3357 276.084 47.1289 287.887C44.1546 293.711 41.616 299.748 39.5337 305.947C41.4365 309.096 47.8632 321.092 48.2303 324.739C48.2705 325.332 47.5094 325.417 47.2119 324.994C45.6656 322.775 45.7487 320.54 40.6459 311.141C37.3495 304.496 32.6014 298.677 26.7528 294.115C25.3003 292.901 24.9706 292.74 22.899 293.649C22.3978 293.871 11.3053 298.451 11.0373 298.561C10.845 298.619 10.676 298.736 10.5542 298.896C10.4325 299.056 10.3642 299.25 10.3593 299.451C10.2494 301.137 15.0412 320.199 26.8386 338.335C30.4378 343.842 34.8786 349.307 41.3669 351.467C48.426 353.879 53.7083 351.507 58.945 346.171C63.5244 341.41 67.5207 336.121 70.8495 330.416C69.6033 325.436 67.2021 315.587 66.3177 310.506C66.2933 310.38 66.3176 310.25 66.3858 310.142C66.454 310.033 66.5608 309.955 66.6847 309.922C66.8086 309.89 66.9401 309.906 67.0526 309.967C67.1652 310.028 67.2502 310.13 67.2905 310.251C71.6509 324.26 71.6053 334.88 84.1504 355.787C84.2762 355.998 84.4792 356.152 84.7165 356.215C84.9537 356.279 85.2063 356.247 85.4207 356.128C108.415 345.089 132.538 337.049 157.347 343.25C157.451 343.277 157.56 343.281 157.665 343.259C157.771 343.238 157.87 343.193 157.956 343.128C158.041 343.062 158.111 342.978 158.159 342.882C158.207 342.786 158.233 342.68 158.234 342.572C157.992 338.4 156.943 334.314 155.144 330.542C150.424 319.87 141.561 304.789 141.714 292.63C141.714 292.164 142.478 292.038 142.561 292.504C144.874 306.07 147.401 310.147 155.438 327.076C164.749 327.711 171.186 326.487 177.17 319.326C186.003 308.034 192.679 295.211 196.866 281.5C197.032 281.101 196.694 280.632 196.228 280.466ZM120.872 317.699C118.636 316.26 116.562 314.584 114.686 312.701C112.857 310.86 111.391 308.691 110.366 306.306C110.197 305.883 110.918 305.585 111.13 305.966C113.697 311.299 119.54 315.008 121.421 316.978C121.503 317.055 121.554 317.16 121.563 317.273C121.573 317.385 121.54 317.497 121.472 317.586C121.403 317.676 121.304 317.737 121.193 317.758C121.083 317.779 120.968 317.758 120.872 317.699Z" fill="#3A5AB7"/>
<path d="M297.975 226.458C290.015 206.865 258.501 207.543 252.565 232.89C251.452 237.279 251.299 241.855 252.118 246.308C252.938 250.76 254.709 254.983 257.311 258.688C257.563 258.986 258.072 258.731 257.847 258.35C253.932 251.713 252.282 243.981 253.146 236.323C255.765 216.022 275.463 209.288 288.388 217.218C295.841 221.838 298.251 228.568 298.68 237.085C299.032 241.643 298.348 246.222 296.677 250.477C295.005 254.733 292.392 258.555 289.032 261.655C288.396 262.191 289.329 263.094 289.921 262.542C300.649 253.553 302.137 236.696 297.975 226.458Z" fill="#212941"/>
<path d="M277.006 244.546C275.993 244.686 275.015 245.017 274.125 245.521C273.702 245.733 273.999 246.368 274.423 246.283C277.786 245.366 279.461 245.792 280.051 245.436C280.119 245.397 280.178 245.342 280.221 245.276C280.264 245.21 280.291 245.134 280.299 245.056C280.308 244.977 280.297 244.898 280.269 244.824C280.241 244.75 280.195 244.684 280.136 244.632C279.12 244.321 278.038 244.292 277.006 244.546Z" fill="#212941"/>
<path d="M260.019 244.468C259.933 244.49 259.857 244.542 259.807 244.615C259.756 244.688 259.734 244.777 259.745 244.865C259.755 244.953 259.798 245.035 259.864 245.094C259.93 245.153 260.016 245.186 260.105 245.186C262.069 245.237 264.026 245.464 265.95 245.864C266.085 245.83 266.207 245.755 266.298 245.649C266.389 245.543 266.446 245.411 266.459 245.272C266.459 244.09 262.144 243.806 260.019 244.468Z" fill="#212941"/>
<path d="M270.228 244.122C270.145 243.699 269.51 243.825 269.51 244.208C269.554 246.286 268.83 248.307 267.476 249.884C267.135 250.265 266.629 250.602 266.629 251.154C266.629 252.352 269.639 253.944 270.314 253.103C270.396 253.009 270.441 252.888 270.441 252.764C270.441 252.639 270.396 252.519 270.314 252.425C270.059 252.087 269.424 252.127 269.044 252.001C268.743 251.881 267.899 251.393 267.899 251.197C268.839 250.3 269.543 249.185 269.949 247.951C270.355 246.717 270.451 245.402 270.228 244.122Z" fill="#212941"/>
<path d="M268.916 259.54C269.471 259.767 270.067 259.877 270.666 259.862C271.266 259.848 271.856 259.71 272.4 259.457C272.816 259.281 273.171 258.986 273.42 258.609C273.669 258.232 273.801 257.789 273.799 257.338C273.926 256.439 273.778 255.524 273.375 254.711C272.874 254.084 272.18 254.502 272.247 255.223C272.409 255.684 272.486 256.171 272.475 256.66C272.489 257.041 272.43 257.422 272.303 257.782C271.785 258.197 271.156 258.449 270.494 258.506C269.833 258.563 269.17 258.422 268.589 258.101C267.849 257.809 267.514 258.881 268.916 259.54Z" fill="#212941"/>
<path d="M83.8927 356.586C79.9531 363.251 71.7657 393.358 71.8622 396.826C71.8622 397.333 72.626 397.587 72.8377 397.081C73.9097 394.937 75.1988 385.05 81.6469 365.862C82.5607 362.916 83.6215 360.018 84.8253 357.178C85.163 356.492 84.2679 355.956 83.8927 356.586Z" fill="#212941"/>
<path d="M158.359 344.217C158.323 344.09 158.239 343.982 158.125 343.916C158.011 343.85 157.875 343.831 157.747 343.864C157.619 343.897 157.509 343.979 157.441 344.092C157.373 344.205 157.352 344.341 157.383 344.469C160.271 356.597 162.309 368.911 163.483 381.322C164.158 390.53 164.08 390.33 164.332 391.828C164.458 392.546 165.431 392.294 165.474 391.659C165.988 385.305 163.099 358.636 158.359 344.217Z" fill="#212941"/>
<path d="M132.902 378.018C131.367 378.42 122.501 386.594 118.798 395.851C118.626 396.317 119.347 396.614 119.602 396.191C121.826 391.988 124.542 388.063 127.692 384.501C127.524 386.447 127.481 388.438 127.438 390.397C127.179 392.553 127.222 394.735 127.564 396.88C127.597 396.996 127.667 397.099 127.764 397.172C127.861 397.245 127.979 397.284 128.1 397.284C128.221 397.284 128.339 397.245 128.436 397.172C128.532 397.099 128.603 396.996 128.636 396.88C129.011 394.741 129.125 392.564 128.976 390.397C129.086 388.02 129.048 385.638 128.861 383.265C129.129 383.011 129.188 382.901 129.443 382.646C132.222 379.867 132.945 379.744 133.422 378.833C133.706 378.358 133.369 377.897 132.902 378.018Z" fill="#212941"/>
<path d="M131.8 346.335C131.714 345.826 130.867 345.952 130.867 346.461C131.165 351.553 131.671 356.586 131.969 361.667C132.285 366.408 132.534 376.139 132.816 376.833C132.851 376.941 132.919 377.034 133.01 377.1C133.102 377.166 133.212 377.202 133.325 377.202C133.438 377.202 133.548 377.166 133.639 377.1C133.731 377.034 133.799 376.941 133.834 376.833C134.022 366.628 133.341 356.425 131.8 346.335Z" fill="#212941"/>
<path d="M126.294 371.749C126.257 374.367 126.514 376.981 127.057 379.543C127.082 379.63 127.135 379.707 127.208 379.761C127.28 379.816 127.369 379.846 127.459 379.846C127.55 379.846 127.639 379.816 127.711 379.761C127.784 379.707 127.836 379.63 127.861 379.543C128.044 378.28 128.059 376.998 127.904 375.732C127.218 365.124 126.72 357.127 125.492 348.154C125.449 347.688 124.728 347.688 124.771 348.154C125.09 356.109 125.8 364.084 126.294 371.749Z" fill="#212941"/>
<path d="M303.27 351.416C302.391 350.486 301.393 349.675 300.303 349.004C300.472 347.776 301.043 345.657 301.024 344.895C299.148 344.059 279.539 334.004 278.108 333.248C276.392 332.43 274.751 331.465 273.203 330.362C252.926 340.503 253.835 340.849 249.22 342.69C249.525 344.93 249.963 347.151 250.533 349.339C241.483 354.825 234.317 362.936 229.988 372.593C228.558 375.299 227.57 378.217 227.064 381.236C227.067 381.38 227.116 381.519 227.204 381.632C227.292 381.746 227.415 381.828 227.553 381.866C227.692 381.904 227.839 381.896 227.972 381.843C228.106 381.791 228.219 381.696 228.295 381.574C230.323 377.286 230.087 374.973 234.727 367.426C248.175 345.911 262.848 345.059 288.268 348.195C300.145 349.695 300.282 350.465 304.884 356.117C310.665 363.44 315.517 371.452 319.329 379.969C322.162 386.109 322.478 387.851 323.649 389.713C323.717 389.823 323.822 389.904 323.945 389.943C324.068 389.981 324.201 389.974 324.319 389.923C324.437 389.871 324.533 389.779 324.588 389.663C324.644 389.546 324.656 389.414 324.622 389.29C324.255 386.015 315.194 363.757 303.27 351.416Z" fill="#212941"/>
<path d="M323.475 301.603C323.383 291.345 320.624 281.287 315.469 272.418C313.273 268.612 309.715 265.781 305.513 264.496C302.703 263.683 299.751 263.48 296.856 263.901C293.96 264.322 291.188 265.357 288.726 266.937C287.613 263.281 287.338 259.421 287.922 255.644C288.662 255.597 289.385 255.4 290.046 255.063C290.707 254.727 291.292 254.258 291.764 253.686C292.237 253.114 292.587 252.452 292.793 251.739C292.999 251.027 293.057 250.28 292.963 249.544C292.617 247.132 290.714 245.028 288.514 245.435C288.514 244.556 288.187 244.615 287.329 241.75C287.244 241.496 287.161 241.241 287.075 240.989C287.142 240.982 287.208 240.96 287.265 240.925C287.323 240.889 287.372 240.841 287.409 240.784C287.446 240.727 287.469 240.662 287.477 240.594C287.485 240.527 287.478 240.459 287.455 240.394C285.989 236.415 266.551 231.818 259.415 235.736C259.372 235.672 259.311 235.621 259.239 235.59C259.168 235.559 259.089 235.55 259.013 235.564C258.936 235.577 258.865 235.612 258.809 235.665C258.752 235.719 258.712 235.787 258.694 235.862C258.087 239.703 257.762 243.582 257.721 247.47C257.624 255.66 259.969 265.174 268.098 266.404C268.022 267.654 267.821 268.893 267.497 270.102C261.234 266.412 253.087 268.025 247.384 272.123C240.818 276.824 236.795 284.11 233.025 291.054C226.158 303.683 215.519 325.894 224.341 337.185C226.765 340.093 230.115 342.08 233.829 342.813C238.814 343.78 243.964 343.455 248.788 341.87C250.809 340.878 265.198 332.058 294.742 318.669C284.175 313.706 269.451 315.721 258.187 318.712C252.788 320.023 247.577 322.015 242.681 324.64C240.767 326.066 240.135 324.841 240.971 323.97C243.198 322.455 245.609 321.228 248.145 320.32C248.149 317.006 248.753 313.72 249.927 310.621C250.245 309.52 250.809 308.506 251.578 307.657C251.657 307.586 251.756 307.542 251.861 307.53C251.966 307.517 252.073 307.538 252.166 307.589C252.259 307.64 252.333 307.718 252.38 307.814C252.426 307.909 252.442 308.016 252.425 308.121C252.09 310.291 249.989 311.792 249.418 319.813C256.868 317.237 264.582 315.503 272.418 314.644C280.431 313.84 289.35 313.907 296.053 318.329C297.254 318.088 298.473 317.946 299.698 317.905C299.698 317.637 299.807 316.15 299.824 315.874C299.92 314.295 299.866 306.837 299.866 306.258C299.866 305.749 300.713 305.58 300.799 306.129C301.316 310.047 301.444 314.006 301.18 317.948C302.448 318.017 303.709 318.187 304.95 318.457C305.923 318.669 307.424 318.83 307.957 319.728C307.995 319.796 308.017 319.872 308.022 319.95C308.027 320.027 308.015 320.105 307.987 320.178C307.959 320.251 307.916 320.316 307.86 320.371C307.803 320.425 307.736 320.466 307.663 320.491C306.899 320.746 306.205 320.261 304.696 319.98C301.708 319.388 298.641 319.318 295.629 319.771C290.444 322.132 284.966 324.57 274.189 329.893C276.065 330.517 283.149 334.165 283.805 334.511C305.125 345.482 306.191 346.927 312.184 343.448C315.999 340.966 318.922 337.33 320.529 333.071C323.796 325.176 323.877 310.107 323.475 301.603ZM273.956 289.275C272.013 282.936 270.422 276.494 269.191 269.979C269.488 268.867 269.595 267.714 269.51 266.567C273.306 266.606 276.968 265.164 279.718 262.547C281.241 261.376 282.473 259.868 283.317 258.141C283.529 257.589 282.781 257.337 282.428 257.632C280.478 260.114 278.097 262.224 275.398 263.86C274.098 264.56 272.673 264.994 271.204 265.139C269.735 265.284 268.252 265.136 266.841 264.705C265.366 264.126 264.042 263.22 262.97 262.053C261.899 260.887 261.107 259.491 260.655 257.972C257.766 250.334 259.803 240.199 259.64 236.664C261.402 236.162 263.2 235.793 265.018 235.562C270.737 235.162 276.471 236.061 281.793 238.191C283.499 238.731 285.062 239.647 286.367 240.871C286.359 241.281 286.374 241.691 286.41 242.099C286.603 243.211 286.945 244.293 287.426 245.315C287.535 245.484 287.679 245.628 287.849 245.736C287.468 245.913 287.156 246.212 286.962 246.585C286.917 246.675 286.905 246.778 286.928 246.876C286.951 246.974 287.007 247.061 287.088 247.121C287.168 247.181 287.268 247.212 287.368 247.206C287.469 247.201 287.564 247.16 287.638 247.092C288.828 245.862 291.553 247.435 291.658 250.308C291.666 250.866 291.557 251.419 291.339 251.933C291.122 252.447 290.799 252.91 290.393 253.292C289.987 253.674 289.505 253.968 288.979 254.154C288.453 254.34 287.894 254.415 287.337 254.373C287.184 254.37 287.034 254.418 286.911 254.509C286.788 254.601 286.7 254.732 286.659 254.88C286.067 258.068 286.067 261.339 286.659 264.528C286.767 265.176 287.056 267.267 287.745 267.824C287 269.151 274.136 289.007 273.956 289.275Z" fill="#212941"/>
<path d="M422.085 246.537C421.311 247.028 421.329 248.335 420.011 248.697C418.911 248.795 417.816 248.46 416.958 247.765C416.885 247.695 416.789 247.653 416.687 247.648C416.586 247.642 416.486 247.672 416.405 247.733C416.324 247.794 416.267 247.882 416.245 247.981C416.223 248.08 416.236 248.184 416.283 248.274C416.716 248.896 417.314 249.385 418.01 249.684C418.707 249.983 419.473 250.082 420.222 249.968C420.729 249.843 421.203 249.611 421.613 249.288C422.022 248.964 422.357 248.556 422.594 248.092C422.844 247.779 422.978 247.39 422.975 246.99C422.966 246.891 422.932 246.795 422.876 246.713C422.82 246.63 422.744 246.563 422.655 246.518C422.566 246.473 422.467 246.451 422.368 246.454C422.268 246.457 422.171 246.486 422.085 246.537Z" fill="#212941"/>
<path d="M429.075 311.516C428.762 311.274 428.393 311.114 428.003 311.05C425.323 310.155 424.122 305.993 422.155 303.763C420.363 302.071 418.338 300.645 416.141 299.529C415.588 299.063 415.14 298.484 414.828 297.832C414.49 297.157 413.643 297.663 413.726 298.298C414.185 301.196 418.593 301.622 421.394 304.907C423.299 307.18 423.86 310.125 426.69 311.854C427.325 312.194 428.34 312.701 429.019 312.277C429.073 312.231 429.117 312.175 429.149 312.112C429.181 312.048 429.201 311.979 429.206 311.909C429.211 311.838 429.202 311.767 429.18 311.699C429.157 311.632 429.122 311.57 429.075 311.516Z" fill="#212941"/>
<path d="M405.48 305.457C407.514 306.598 409.716 307.412 412.003 307.869C412.936 308.04 414.504 308.504 415.35 307.869C415.405 307.834 415.452 307.787 415.487 307.732C415.521 307.677 415.544 307.616 415.552 307.551C415.56 307.487 415.554 307.421 415.534 307.359C415.514 307.297 415.481 307.241 415.436 307.193C414.563 306.32 413.893 306.971 409.251 305.54C407.227 304.742 405.247 303.838 403.32 302.83C403.232 302.808 403.14 302.812 403.055 302.842C402.969 302.872 402.895 302.926 402.84 302.998C402.786 303.07 402.754 303.157 402.749 303.247C402.744 303.338 402.765 303.428 402.811 303.506C403.549 304.341 404.46 305.007 405.48 305.457Z" fill="#212941"/>
<path d="M411.961 313.076C413.076 313.213 413.193 313.221 413.909 312.864C414.206 312.736 414.121 312.355 413.909 312.184C412.763 311.622 411.533 311.25 410.267 311.085C406.598 309.876 403.38 307.587 401.034 304.519C400.651 304.052 399.962 304.645 400.23 305.154C401.511 307.232 403.219 309.013 405.242 310.379C407.264 311.745 409.555 312.664 411.961 313.076Z" fill="#212941"/>
<path d="M404.844 314.395C405.788 314.931 409.502 316.807 410.52 316.429C410.589 316.403 410.651 316.363 410.703 316.312C410.755 316.261 410.797 316.2 410.825 316.132C410.853 316.065 410.866 315.992 410.865 315.919C410.864 315.846 410.848 315.774 410.818 315.708C410.076 314.472 405.994 314.789 401.073 309.863C401 309.793 400.904 309.752 400.803 309.746C400.701 309.74 400.601 309.77 400.52 309.832C400.439 309.893 400.383 309.98 400.36 310.079C400.338 310.178 400.351 310.282 400.398 310.372C401.509 312.073 403.04 313.459 404.844 314.395Z" fill="#212941"/>
<path d="M416.197 322.571C409.856 320.62 406.246 319.819 401.837 315.413C401.765 315.345 401.671 315.305 401.572 315.3C401.474 315.296 401.376 315.328 401.299 315.389C401.221 315.451 401.169 315.539 401.151 315.636C401.133 315.734 401.151 315.834 401.202 315.919C405.099 322.646 415.993 323.019 422.551 326.594C423.408 327.182 424.332 327.666 425.303 328.036C425.391 328.057 425.483 328.052 425.568 328.022C425.653 327.992 425.728 327.937 425.782 327.865C425.836 327.792 425.868 327.706 425.873 327.616C425.879 327.526 425.858 327.436 425.812 327.358C424.644 325.214 418.539 323.295 416.197 322.571Z" fill="#212941"/>
<path d="M445.045 269.03C439.975 269.202 434.923 269.711 429.922 270.555C417.488 272.557 405.332 276.011 393.704 280.846C393.48 280.904 393.274 281.017 393.106 281.175C392.937 281.333 392.811 281.531 392.739 281.75C392.668 281.97 392.653 282.204 392.696 282.432C392.739 282.659 392.839 282.871 392.986 283.049C399.295 293.697 400.377 296.216 403.912 301.858C404.21 302.367 404.931 301.941 404.716 301.391C402.221 296.002 395.307 284.274 394.72 283.347C393.98 282.055 393.916 282.275 394.379 282.034C409.29 275.894 425.042 272.037 441.103 270.595C442.244 270.512 443.346 270.427 444.447 270.258C444.886 271.507 445.439 272.713 446.101 273.86C458.903 300.317 460.141 308.292 461.942 311.262C462.154 311.642 462.918 311.516 462.832 311.007C462.411 306.376 446.54 269.196 445.045 269.03Z" fill="#212941"/>
<path d="M440.681 334.897C437.317 334.629 422.752 337.553 419.458 338.244C413.648 325.233 413.533 324.935 412.758 323.968C412.503 323.63 411.994 324.011 412.08 324.351C412.423 326.064 418.434 338.992 418.56 339.26C418.89 339.914 418.868 339.453 430.039 337.48C433.673 337.114 437.281 336.52 440.842 335.701C441.273 335.588 441.147 334.934 440.681 334.897Z" fill="#212941"/>
<path d="M476.771 261.998C472.097 253.628 465.895 251.83 456.566 252.974C451.922 253.396 447.428 254.836 443.402 257.19C441.531 252.938 440.451 248.381 440.216 243.742C441.113 243.682 441.97 243.344 442.668 242.776C443.366 242.209 443.871 241.438 444.112 240.571C455.489 234.257 456.073 220.801 450.544 209.215C441.239 189.884 413.043 193.058 404.416 209.258C402.48 212.478 401.796 216.297 402.493 219.988C403.19 223.68 405.221 226.986 408.198 229.278C401.675 231.483 402.05 239.414 408.061 240.52C407.956 247.521 408.924 254.154 415.388 256.745C417.028 257.417 418.783 257.761 420.555 257.758C420.619 259.197 420.496 260.639 420.188 262.046C416.064 261.069 411.829 260.638 407.592 260.765C394.873 261.033 389.368 271.994 384.718 283.722C382.822 288.152 381.385 292.766 380.43 297.489C380.43 297.996 381.194 298.253 381.406 297.744C382.148 295.846 382.784 293.908 383.311 291.939C385.178 286.211 387.443 280.62 390.089 275.208C393.434 268.81 398.686 262.925 406.268 262.33C410.844 262.108 415.43 262.364 419.952 263.094C419.924 263.186 419.917 263.284 419.932 263.379C419.946 263.475 419.981 263.566 420.035 263.646C422.364 266.353 426.432 266.353 429.737 266.141C433.592 266.105 437.351 264.927 440.537 262.756C446.404 258.353 440.776 259.045 448.931 256.273C454.942 254.226 463.371 252.873 468.876 255.764C473.279 258.144 475.691 262.842 477.685 267.414C480.953 275.15 483.19 283.282 484.336 291.601C485.518 299.815 486.346 315.619 484.336 323.667C481.761 334.146 473.946 339.262 463.58 339.169C457.977 338.766 452.466 337.524 447.232 335.484C441.336 333.621 426.864 329.052 425.5 328.58C427.594 323.366 429.115 317.941 430.034 312.398C430.117 312.02 430.117 311.637 430.541 311.465C430.954 311.347 431.382 311.291 431.811 311.299C440.405 310.412 449.078 310.655 457.609 312.02C461.281 312.597 464.916 313.388 468.495 314.389C469.004 314.518 469.554 314.518 470.103 314.601C470.231 314.598 470.355 314.553 470.456 314.474C470.557 314.395 470.63 314.285 470.663 314.161C470.696 314.037 470.689 313.906 470.642 313.787C470.594 313.667 470.51 313.567 470.4 313.499C468.661 312.631 470.344 313.138 464.724 311.72C454.04 309.244 443.021 308.543 432.109 309.646C427.36 310.155 429.608 310.283 426.213 322.014C424.141 329.207 424.047 329.561 424.857 329.807C430.999 331.758 449.298 337.601 452.305 338.536C460.613 341.045 469.572 341.918 477.127 336.882C479.727 358.229 479.96 356.838 479.456 357.087C479.104 357.222 478.731 357.294 478.355 357.299C465.276 359.398 452.036 360.319 438.792 360.051C424.388 360.051 410.202 359.928 396.392 356.878C396.639 344.108 397.643 331.363 399.399 318.712C399.442 318.163 398.595 318.074 398.467 318.583C397.931 321.041 397.494 323.539 397.11 326.039C396.105 326.039 392.954 330.785 385.718 332.519C383.591 333.062 381.377 333.169 379.208 332.834C377.038 332.499 374.959 331.729 373.095 330.571C362.911 324.064 360.033 302.372 357.211 291.349C361.389 291.47 365.787 289.069 369.791 287.364C370.131 287.198 370.466 287.061 370.806 286.898C371.892 286.386 371.634 286.598 373.264 288.774C382.507 301.697 383.212 311.522 384.828 314.529C385.008 314.861 385.426 314.655 385.463 314.36C385.226 311.156 384.482 308.01 383.26 305.039C381.119 299.06 378.168 293.402 374.491 288.224C371.669 284.371 372.559 284.657 366.987 287.123C357.907 291.306 355.999 289.787 356.227 290.894C356.174 290.939 356.134 290.999 356.112 291.065C356.089 291.132 356.086 291.203 356.101 291.272C357.442 301.44 360.045 311.402 363.852 320.926C365.464 325.024 368.123 328.628 371.562 331.378C379.157 336.904 390.59 334.626 396.891 327.864C395.644 337.672 394.98 347.544 394.902 357.43C394.913 357.59 394.971 357.744 395.069 357.872C395.167 357.999 395.3 358.096 395.452 358.148C409.241 360.766 423.272 361.888 437.302 361.496C451.386 361.867 465.473 360.874 479.365 358.532C479.726 358.519 480.077 358.406 480.377 358.203C480.676 358.001 480.913 357.718 481.059 357.387C481.193 356.468 481.135 355.531 480.89 354.635C480.635 352.601 480.381 350.567 480.086 348.575C478.432 335.524 478.572 336.247 478.178 336.038C485.54 330.381 486.834 321.472 486.99 312.146C487.266 296.069 484.677 275.765 476.771 261.998ZM404.925 235.163C405.092 234.097 405.578 233.107 406.321 232.323C407.063 231.54 408.026 231.002 409.082 230.779C409.669 230.787 410.247 230.918 410.781 231.162C411.315 231.406 411.792 231.758 412.182 232.196C412.573 232.634 412.868 233.149 413.049 233.707C413.23 234.265 413.292 234.855 413.233 235.439C413.094 236.339 412.682 237.174 412.053 237.833C411.425 238.492 410.609 238.942 409.717 239.124C409.135 239.228 408.537 239.205 407.964 239.054C407.392 238.904 406.859 238.631 406.403 238.254C405.947 237.877 405.579 237.405 405.324 236.872C405.068 236.338 404.932 235.755 404.925 235.163ZM432.972 264.201C429.123 265.123 425.079 264.772 421.448 263.199C422.024 261.424 422.069 259.52 421.579 257.721C427.243 256.961 432.384 254.01 435.895 249.501C436.289 249.003 435.507 248.137 434.88 248.697C432.358 251.268 429.458 253.437 426.28 255.129C420.086 257.956 412.344 256.45 410.2 249.453C409.429 246.611 409.1 243.668 409.224 240.727C410.452 240.622 411.617 240.143 412.564 239.354C413.511 238.566 414.194 237.506 414.52 236.318C414.597 235.955 414.654 235.589 414.689 235.219L415.704 234.967C415.198 236.701 414.817 238.481 414.477 240.26C414.222 241.6 413.587 243.744 415.493 244.114C417.148 244.405 418.853 244.074 420.279 243.184C420.421 243.089 420.52 242.944 420.558 242.778C420.596 242.612 420.568 242.437 420.482 242.291C420.395 242.144 420.255 242.036 420.092 241.989C419.928 241.942 419.752 241.959 419.601 242.037C419 242.36 418.359 242.603 417.696 242.761C417.042 242.928 416.358 242.928 415.704 242.761C415.343 242.56 415.42 242.085 416.171 238.693C416.467 237.422 416.806 236.151 417.186 234.879C417.816 234.93 418.432 235.088 419.009 235.345C418.973 236.117 419.099 236.887 419.378 237.608C419.658 238.328 420.084 238.982 420.63 239.528C421.177 240.074 421.831 240.5 422.551 240.779C423.271 241.058 424.042 241.183 424.814 241.147C426.061 241.062 427.251 240.592 428.222 239.804C429.192 239.016 429.895 237.947 430.235 236.744C430.418 235.946 430.432 235.118 430.277 234.313C430.122 233.509 429.801 232.745 429.335 232.072C428.868 231.398 428.267 230.829 427.568 230.401C426.869 229.973 426.089 229.696 425.277 229.586C423.972 229.637 422.712 230.075 421.656 230.845C420.601 231.614 419.798 232.679 419.349 233.906C418.808 233.68 418.236 233.538 417.653 233.483C418.033 232.255 418.374 231.071 418.725 229.838C418.851 229.374 418.122 229.034 417.875 229.5C417.227 230.785 416.676 232.116 416.224 233.483C415.695 233.532 415.179 233.676 414.699 233.906C414.509 232.794 414.005 231.76 413.244 230.926C412.484 230.092 411.501 229.494 410.411 229.203C410.594 228.072 410.947 226.22 411.049 225.823C413.386 223.618 422.782 224.526 425.829 224.925C429.018 225.38 432.163 226.103 435.231 227.086C436.099 227.354 436.279 227.354 436.418 228.313C436.735 230.671 437.422 232.964 438.455 235.107C437.849 235.702 438.391 236.35 438.876 236.066C440.824 234.879 442.689 236.744 442.941 238.693C443.021 239.158 442.993 239.635 442.86 240.088C442.727 240.54 442.492 240.957 442.173 241.304C441.854 241.652 441.459 241.922 441.02 242.094C440.58 242.265 440.107 242.334 439.637 242.295C439.527 242.266 439.412 242.264 439.301 242.287C439.19 242.309 439.086 242.357 438.996 242.427C438.907 242.496 438.834 242.585 438.784 242.686C438.734 242.788 438.707 242.899 438.707 243.013C438.806 247.033 440.258 255.177 442.587 258.316C441.502 259.93 440.081 261.291 438.421 262.307C436.762 263.322 434.903 263.968 432.972 264.201ZM420.855 234.421C421.247 233.287 423.943 230.342 426.322 231.542C427.153 231.912 427.843 232.539 428.29 233.331C428.736 234.124 428.916 235.039 428.801 235.941C428.687 236.843 428.285 237.684 427.655 238.34C427.025 238.996 426.201 239.432 425.304 239.582C424.624 239.72 423.92 239.674 423.263 239.449C422.607 239.225 422.022 238.829 421.569 238.304C421.116 237.778 420.811 237.141 420.686 236.459C420.56 235.777 420.619 235.073 420.855 234.421Z" fill="#212941"/>
<path d="M399.76 359.126C397.493 362.986 390.578 390.97 390.061 396.74C389.975 397.504 391.163 397.63 391.374 396.909C391.999 394.69 392.714 389.92 394.59 382.169C397.316 370.878 398.817 366.743 399.717 363.447C400.178 362.106 400.537 360.733 400.789 359.338C400.861 358.829 400.012 358.7 399.76 359.126Z" fill="#212941"/>
<path d="M434.876 389.202V388.99C434.879 388.88 434.842 388.772 434.772 388.686C434.703 388.601 434.604 388.543 434.496 388.524C434.072 387.803 433.649 387.125 433.182 386.447C433.119 386.348 433.02 386.278 432.906 386.252C432.792 386.226 432.672 386.245 432.572 386.306C432.473 386.367 432.401 386.465 432.372 386.578C432.343 386.692 432.36 386.812 432.419 386.913C432.802 387.717 433.182 388.521 433.563 389.287C431.647 393.604 430.171 398.102 429.157 402.714C429.14 402.778 429.136 402.845 429.145 402.911C429.154 402.976 429.176 403.039 429.21 403.096C429.243 403.154 429.288 403.203 429.34 403.243C429.393 403.283 429.453 403.313 429.517 403.329C429.581 403.346 429.648 403.35 429.714 403.341C429.779 403.332 429.843 403.31 429.9 403.276C429.957 403.243 430.007 403.199 430.047 403.146C430.087 403.093 430.116 403.033 430.133 402.969C431.041 400.466 432.673 394.393 434.327 390.81C436.888 396.043 439.039 401.467 440.759 407.034C441.056 407.755 441.989 407.203 441.903 406.568C440.172 400.55 437.817 394.73 434.876 389.202Z" fill="#212941"/>
<path d="M474.61 368.657C473.91 365.573 472.99 362.544 471.855 359.593C471.686 359.17 470.925 359.381 471.008 359.805C471.488 363.64 471.903 363.594 479.048 392.209C479.659 395.306 480.465 398.362 481.46 401.358C481.672 401.908 482.605 401.908 482.562 401.232C482.211 397.855 475.462 371.937 474.61 368.657Z" fill="#212941"/>
<path d="M165.349 111.963C163.535 100.19 156.548 88.1999 145.357 84.5578C134.161 81.6599 122.279 83.1961 112.189 88.8458C97.4061 97.1056 92.6062 111.639 96.1358 127.733C100.936 149.333 118.951 163.535 119.347 178.181C116.067 179.274 114.129 184.881 117.442 187.293C116.874 187.707 116.411 188.248 116.089 188.872C115.767 189.496 115.595 190.187 115.587 190.889C115.579 191.592 115.734 192.287 116.041 192.918C116.348 193.55 116.799 194.102 117.356 194.529C116.7 195.197 116.292 196.07 116.2 197.002C116.108 197.934 116.337 198.869 116.849 199.653C117.762 200.78 118.902 201.702 120.195 202.359C121.488 203.017 122.905 203.394 124.353 203.467C127.603 204.213 130.941 204.498 134.269 204.314C142.845 203.652 144.772 198.686 142.358 195.968C143.021 195.604 143.588 195.086 144.009 194.457C144.43 193.828 144.693 193.107 144.776 192.355C144.86 191.603 144.761 190.842 144.487 190.136C144.214 189.43 143.775 188.801 143.207 188.301C144.521 186.887 145.244 185.025 145.228 183.096C145.326 182.604 145.326 182.097 145.228 181.605C145.13 181.112 144.936 180.644 144.657 180.227C144.377 179.81 144.018 179.452 143.6 179.174C143.182 178.896 142.714 178.704 142.221 178.607C143.666 164.805 155.085 156.312 162.088 137.689C165.327 129.526 166.449 120.676 165.349 111.963ZM130.488 116.327C129.317 115.155 128.773 113.111 130.148 112.089C131.166 111.371 132.096 112.43 132.182 113.403C132.168 113.993 132.005 114.57 131.709 115.081C131.413 115.592 130.993 116.021 130.488 116.327ZM129.81 118.824C129.979 118.739 130.107 118.655 130.276 118.572C132.654 120.471 135.55 121.608 138.584 121.834C137.695 124.417 137.016 127.127 136.381 129.753C132.429 145.679 130.647 162.065 131.086 178.468C129.349 178.382 127.602 178.296 125.833 178.213C127.645 161.385 126.873 133.382 122.234 120.392C124.853 120.549 127.468 120.008 129.81 118.824ZM161.79 132.591C155.38 154.332 141.605 162.875 140.399 178.931C140.358 178.974 140.273 179.06 140.273 179.103C137.815 178.848 135.36 178.637 132.86 178.508C132.533 166.003 133.498 153.498 135.741 141.192C136.898 134.614 138.482 128.119 140.484 121.748C141.833 121.732 143.155 121.373 144.327 120.706C145.498 120.039 146.482 119.085 147.184 117.935C149.312 113.379 143.277 109.359 139.265 120.054C136.571 119.993 133.964 119.09 131.809 117.471C136.443 113.4 132.672 108.908 129.606 110.396C127.543 111.398 126.631 114.317 129.014 117.259C126.755 118.413 124.204 118.87 121.684 118.572C120.957 116.374 119.757 114.361 118.168 112.676C115.006 110.058 111.27 113.137 112.832 115.766C114.741 118.12 117.46 119.676 120.457 120.129C121.916 124.653 122.937 129.306 123.507 134.025C126.489 154.069 124.565 173.917 124.565 178.034C122.172 177.926 121.108 177.859 120.668 177.908C120.668 164.366 106.974 153.171 99.9548 134.492C94.1338 118.966 95.5864 103.101 108.595 93.1499C119.489 84.7695 139.067 81.3043 150.191 88.7439C156.314 93.3354 160.656 99.9073 162.476 107.34C164.673 115.649 164.435 124.414 161.79 132.591ZM141.205 119.926C141.663 118.875 142.216 117.869 142.856 116.919C145.769 112.714 146.876 116.418 144.732 118.318C143.729 119.171 142.507 119.728 141.205 119.926ZM119.685 118.189C118.18 117.775 116.771 117.07 115.536 116.115C114.985 115.769 114.533 115.288 114.223 114.716C113.896 113.66 116.037 112.229 117.908 114.97C118.598 115.986 119.193 117.064 119.685 118.189Z" fill="#FF9500"/>
<path d="M49.5816 27.1604C49.863 27.1898 80.5624 27.6106 84.0196 27.5838C87.1042 27.7845 90.2016 27.6425 93.2549 27.1604C93.7641 26.9915 93.8472 26.1447 93.2549 26.0589C91.9068 25.8826 90.5435 25.8548 89.1893 25.9758C80.8143 26.2277 54.0652 25.3353 49.4128 25.9329C48.6409 25.9758 48.9089 27.0907 49.5816 27.1604Z" fill="#212941"/>
<path d="M49.5816 39.9115C49.7397 39.9115 79.678 40.3671 84.0196 40.3349C87.1042 40.5356 90.2016 40.3936 93.2549 39.9115C93.7641 39.7427 93.8472 38.8931 93.2549 38.81C91.9069 38.6329 90.5436 38.6041 89.1893 38.7243C80.8143 38.9789 54.0652 38.0864 49.4128 38.6814C48.6409 38.7671 48.9089 39.8606 49.5816 39.9115Z" fill="#212941"/>
<path d="M210.462 32.2444C210.609 32.2444 240.55 32.7 244.9 32.6678C247.983 32.8686 251.08 32.7266 254.132 32.2444C254.641 32.0756 254.725 31.2287 254.132 31.1429C252.784 30.9671 251.421 30.9384 250.067 31.0572C241.692 31.3118 214.943 30.4193 210.29 31.017C209.529 31.1 209.826 32.1962 210.462 32.2444Z" fill="#212941"/>
<path d="M210.46 45.0359C210.728 45.0653 241.082 45.4888 244.899 45.4593C247.982 45.66 251.079 45.518 254.131 45.0359C254.64 44.867 254.723 44.0201 254.131 43.9344C252.783 43.7581 251.42 43.7302 250.066 43.8513C241.691 44.1032 214.941 43.2108 210.289 43.8084C209.528 43.8513 209.823 44.9662 210.46 45.0359Z" fill="#212941"/>
<path d="M101.168 81.9746C97.5015 73.1979 93.0649 64.7631 87.9101 56.7692C89.4779 57.1927 94.3421 58.4228 95.197 58.6774C96.0214 59.0423 96.9261 59.1881 97.8234 59.1008C97.9516 59.0651 98.0682 58.9965 98.1617 58.9018C98.2552 58.8071 98.3223 58.6896 98.3565 58.561C98.3906 58.4323 98.3905 58.297 98.3562 58.1684C98.322 58.0398 98.2547 57.9224 98.1611 57.8278C97.3321 57.3002 96.3878 56.9811 95.4087 56.8979C94.4332 56.6433 90.6222 55.7106 89.6896 55.4989C87.3875 54.9629 86.0743 54.0598 85.3266 56.3029C84.313 59.1213 83.5068 62.01 82.9146 64.9459C82.879 65.0753 82.8963 65.2135 82.9627 65.3301C83.029 65.4467 83.139 65.5321 83.2683 65.5677C83.3977 65.6032 83.5359 65.5859 83.6525 65.5196C83.7691 65.4532 83.8545 65.3433 83.8901 65.2139C84.9643 62.8465 85.8427 60.395 86.5165 57.8841C91.5052 65.7982 96.0443 73.9869 100.112 82.4115C100.412 82.9903 101.42 82.5696 101.168 81.9746Z" fill="#FF9500" class="svg-animation__arrow svg-animation__arrow-1" />
<path d="M192.88 63.9273C192.657 62.6998 191.524 62.8043 188.136 62.3621C186.183 62.0682 184.214 61.8839 182.24 61.8101C182.122 61.8142 182.01 61.8602 181.922 61.9397C181.835 62.0193 181.779 62.1272 181.764 62.2444C181.748 62.3615 181.775 62.4802 181.84 62.5794C181.904 62.6785 182.001 62.7516 182.114 62.7856C184.637 63.4785 187.217 63.9457 189.822 64.1819C182.883 70.412 175.57 76.2125 167.924 81.5509C167.331 81.9744 167.838 82.9472 168.516 82.5667C172.768 80.0122 176.859 77.1973 180.764 74.1381C186.761 69.5821 190.948 65.5621 191.216 65.3691C191.047 67.02 190.58 72.1039 190.495 72.9937C190.276 73.8575 190.291 74.7639 190.538 75.6201C190.607 75.7314 190.704 75.8232 190.819 75.8868C190.934 75.9504 191.063 75.9838 191.194 75.9838C191.326 75.9838 191.455 75.9504 191.569 75.8868C191.684 75.8232 191.781 75.7314 191.851 75.6201C192.092 75.1947 192.21 74.7099 192.188 74.2211C192.443 71.3401 193.065 64.6964 192.88 63.9273Z" fill="#FF9500" class="svg-animation__arrow svg-animation__arrow-2" />
<path d="M205.376 138.099C203.417 135.842 201.28 133.746 198.987 131.83C198.89 131.746 198.764 131.702 198.636 131.706C198.507 131.711 198.385 131.764 198.294 131.855C198.203 131.946 198.15 132.068 198.145 132.197C198.14 132.325 198.185 132.451 198.269 132.548C199.794 134.637 201.51 136.581 203.393 138.353C201.815 138.621 192.534 138.777 189.966 138.734C185.094 138.691 180.182 138.522 175.309 138.268C174.674 138.225 174.505 139.326 175.141 139.412C184.589 140.486 194.115 140.713 203.605 140.09C196.68 147.27 196.873 146.969 196.744 147.594C196.709 147.723 196.708 147.859 196.742 147.988C196.776 148.117 196.844 148.235 196.938 148.33C197.033 148.425 197.15 148.493 197.28 148.527C197.409 148.562 197.545 148.562 197.674 148.527C198.625 148.259 198.708 147.693 203.902 142.172C204.582 141.532 205.21 140.839 205.778 140.098C206.392 139.369 205.928 138.688 205.376 138.099Z" fill="#FF9500" class="svg-animation__arrow svg-animation__arrow-3" />
<path d="M308.268 90.4459C302.294 85.8123 295.17 82.8945 287.662 82.0063C280.154 81.1181 272.546 82.2931 265.656 85.4049C265.504 85.3352 265.336 85.3076 265.17 85.3249C265.004 85.3421 264.846 85.4037 264.711 85.5031C264.577 85.6025 264.472 85.7361 264.407 85.8899C264.342 86.0438 264.32 86.2122 264.342 86.3777C267.31 103.469 271.385 120.349 276.542 136.912C276.592 137.069 276.687 137.209 276.814 137.316C276.94 137.422 277.095 137.49 277.259 137.512C277.423 137.534 277.59 137.51 277.74 137.441C277.891 137.372 278.019 137.262 278.11 137.123C310.12 88.8513 308.938 91.1159 308.268 90.4459Z" fill="#FF9500"  />
<path d="M492.697 51.8995C492.375 50.8496 491.798 49.8958 491.018 49.1234C490.237 48.351 489.277 47.7842 488.224 47.4735C487.171 47.1629 486.057 47.1182 484.982 47.3433C483.908 47.5685 482.905 48.0566 482.065 48.7639C481.647 46.3734 482.508 31.8424 481.653 27.3239C481.411 26.059 481.28 26.0509 479.82 26.0697C478.23 26.0938 459.435 26.1822 459.36 26.1983C458.784 26.2948 458.363 27.2998 459.318 28.0743C459.865 28.7251 460.26 29.4895 460.475 30.312C460.69 31.1344 460.719 31.9944 460.561 32.8297C460.403 33.665 460.061 34.4546 459.56 35.1413C459.059 35.8281 458.411 36.3948 457.664 36.8004C456.878 37.2105 456.011 37.4421 455.126 37.4788C454.24 37.5154 453.357 37.3562 452.54 37.0124C451.723 36.6687 450.992 36.1488 450.399 35.49C449.806 34.8313 449.366 34.0497 449.109 33.2012C448.431 30.7892 450.211 29.007 451.184 26.9728C451.226 26.8874 451.245 26.7925 451.241 26.6973C451.236 26.6021 451.206 26.5098 451.155 26.4291C451.105 26.3485 451.034 26.2822 450.95 26.2366C450.867 26.191 450.773 26.1677 450.677 26.1688L374.345 26C374.245 25.9997 374.146 26.0191 374.054 26.0572C373.961 26.0953 373.877 26.1514 373.806 26.2221C373.736 26.2929 373.68 26.3769 373.642 26.4694C373.603 26.5619 373.584 26.6611 373.584 26.7611C373.667 30.0227 373.879 45.5694 373.922 50.0584C373.054 49.4149 372.046 48.9867 370.98 48.8088C369.915 48.631 368.822 48.7087 367.792 49.0354C366.762 49.3622 365.825 49.9288 365.057 50.6885C364.288 51.4483 363.712 52.3795 363.374 53.4057C362.764 55.0366 362.69 56.8194 363.163 58.4951C363.636 60.1708 364.631 61.6522 366.003 62.724C367.185 63.5617 368.598 64.0116 370.047 64.0116C371.496 64.0116 372.909 63.5617 374.091 62.724C374.091 63.7398 374.303 83.9872 374.303 83.9872C374.305 84.1507 374.36 84.3091 374.459 84.439C374.559 84.5688 374.697 84.6632 374.855 84.7081C375.755 84.9171 398.591 84.8796 398.321 84.8769C397.189 85.9843 396.371 87.3712 395.949 88.8969C395.676 90.1577 395.764 91.47 396.204 92.6828C396.644 93.8956 397.417 94.9594 398.435 95.7517C399.453 96.544 400.675 97.0327 401.958 97.1613C403.242 97.2899 404.536 97.0532 405.691 96.4786C406.754 96.0236 407.702 95.3371 408.466 94.4692C409.23 93.6014 409.79 92.574 410.107 91.462C410.423 90.3499 410.488 89.1813 410.296 88.0412C410.103 86.901 409.659 85.8182 408.995 84.8716C453.154 84.8716 450.299 85.1395 450.932 84.7456C451.395 84.4079 450.803 83.9416 450.591 83.6441C449.874 82.7693 449.407 81.7156 449.242 80.596C449.078 79.4764 449.221 78.3331 449.656 77.2885C450.091 76.2439 450.803 75.3375 451.714 74.6664C452.625 73.9953 453.702 73.5848 454.829 73.4789C455.741 73.4716 456.643 73.6608 457.476 74.0335C458.308 74.4063 459.051 74.9538 459.653 75.639C460.377 76.4554 460.809 77.4905 460.878 78.58C460.948 79.6696 460.651 80.7511 460.036 81.6529C459.358 82.942 457.803 84.9305 459.189 85.0833C459.189 85.0833 480.594 84.9332 481.256 84.9144C482.698 85.2119 482.698 84.6598 482.698 84.4079C482.698 76.6118 482.4 68.8639 482.315 61.0678C487.656 63.8362 494.383 57.758 492.697 51.8995ZM488.589 59.0578C484.402 62.1773 481.047 57.1818 480.624 59.5241C480.709 67.4435 480.752 75.3227 481.004 83.2448C474.143 83.3708 467.323 83.3708 460.462 83.3708C465.374 77.8232 458.586 69.7322 452.154 72.4846C451.164 72.9189 450.277 73.5574 449.55 74.3581C448.824 75.1589 448.275 76.104 447.939 77.1315C447.603 78.1591 447.488 79.246 447.601 80.3211C447.714 81.3963 448.053 82.4355 448.595 83.3708C442.2 83.3279 435.803 83.3708 429.406 83.2448C429.237 76.1696 429.111 69.0971 429.026 62.0728C427.985 63.0338 426.67 63.6447 425.264 63.8197C423.859 63.9947 422.434 63.7249 421.189 63.0483C419.9 62.331 418.816 61.2971 418.037 60.0442C417.259 58.7912 416.812 57.3606 416.74 55.8874C416.673 54.7938 416.854 53.6992 417.269 52.6851C417.683 51.671 418.322 50.7637 419.136 50.0307C419.951 49.2978 420.92 48.7581 421.972 48.452C423.024 48.1459 424.131 48.0812 425.212 48.2628C425.929 48.312 426.627 48.511 427.263 48.8471C427.898 49.1832 428.456 49.6488 428.9 50.2138C428.814 42.6723 428.728 35.1334 428.602 27.5919C435.423 27.7206 442.241 27.7206 449.104 27.7206C444.36 33.2682 451.178 41.1902 457.533 38.4781C461.472 36.8701 463.758 31.2769 460.923 27.7581C467.355 27.7152 473.8 27.7983 480.195 27.6294C480.833 30.0924 479.179 53.4673 481.637 51.393C487.356 43.8086 495.747 53.7166 488.589 59.0578Z" fill="#3A5AB7"/>
<path d="M306.743 99.5525C306.603 99.8205 280.479 139.131 280.648 138.86C280.242 139.484 279.667 139.979 278.989 140.288C278.312 140.597 277.561 140.707 276.824 140.605C276.087 140.503 275.394 140.193 274.826 139.712C274.258 139.231 273.839 138.598 273.618 137.887C268.98 123.066 265.204 107.989 262.308 92.7319C249.867 98.6406 240.207 109.151 235.366 122.046C224.472 152.785 246.641 182.255 280.184 178.594C300.657 176.399 317.868 162.452 321.354 142.039C322.825 134.298 322.25 126.307 319.688 118.856C317.125 111.405 312.663 104.752 306.743 99.5525Z" fill="#3A5AB7"/>
<path d="M99.4554 238.087C97.5634 238.374 98.7962 240.818 100.227 240.36C100.519 240.25 100.758 240.031 100.891 239.749C101.025 239.468 101.043 239.145 100.943 238.849C100.843 238.554 100.631 238.309 100.354 238.167C100.076 238.024 99.7538 237.996 99.4554 238.087Z" fill="#212941"/>
<path d="M109.008 234.507C108.822 234.571 108.655 234.679 108.519 234.822C108.383 234.964 108.283 235.136 108.227 235.325C108.171 235.513 108.161 235.712 108.197 235.905C108.233 236.099 108.314 236.281 108.434 236.436C108.645 236.662 108.928 236.808 109.234 236.85C109.54 236.891 109.851 236.826 110.115 236.664C110.324 236.479 110.471 236.235 110.537 235.963C110.602 235.692 110.583 235.407 110.482 235.147C110.371 234.867 110.153 234.643 109.877 234.523C109.601 234.403 109.288 234.397 109.008 234.507Z" fill="#212941"/>
<path d="M406.597 235.421C406.326 235.533 406.11 235.748 405.997 236.019C405.884 236.29 405.884 236.595 405.996 236.867C406.108 237.138 406.323 237.354 406.594 237.467C406.865 237.58 407.17 237.58 407.442 237.468C408.551 237.112 408.114 234.866 406.597 235.421Z" fill="#212941"/>
<path d="M422.232 235.892C422.097 235.947 421.974 236.027 421.87 236.129C421.765 236.231 421.682 236.352 421.625 236.486C421.567 236.62 421.537 236.764 421.535 236.91C421.534 237.056 421.561 237.2 421.615 237.336C421.669 237.471 421.749 237.594 421.851 237.699C421.953 237.803 422.074 237.886 422.208 237.943C422.342 238.001 422.486 238.031 422.632 238.033C422.778 238.035 422.923 238.008 423.058 237.953C424.181 237.5 423.685 235.391 422.232 235.892Z" fill="#212941"/>
</svg>
