<svg preserveAspectRatio="xMidYMid meet" width="530px" height="100%" viewBox="0 0 524 404" fill="none" xmlns="http://www.w3.org/2000/svg">
<path d="M305.93 208.619C304.372 210.587 303.42 212.967 303.191 215.467C303.534 218.718 308.157 218.206 310.208 217.343C310.357 217.324 310.501 217.276 310.632 217.201C310.762 217.126 310.876 217.025 310.967 216.905C311.057 216.785 311.123 216.648 311.16 216.502C311.197 216.356 311.205 216.204 311.182 216.056C311.159 215.907 311.107 215.764 311.028 215.636C310.949 215.508 310.845 215.397 310.723 215.309C310.6 215.222 310.461 215.16 310.314 215.127C310.167 215.094 310.015 215.091 309.867 215.118C308.498 215.118 306.959 215.973 306.102 214.604C305.59 213.749 306.959 211.181 307.814 209.3C308.838 207.759 307.471 206.561 305.938 208.614" fill="#212941"/>
<path d="M318.085 218.718C316.209 221.457 313.797 221.114 310.723 221.285C309.525 221.285 309.525 222.998 310.723 223.341C316.544 224.196 319.623 222.312 320.478 220.43C321.507 218.375 319.623 216.493 318.085 218.718Z" fill="#212941"/>
<path d="M297.202 193.215C297.714 190.819 297.885 188.927 298.571 186.539C298.614 186.367 298.621 186.189 298.592 186.014C298.564 185.839 298.5 185.672 298.405 185.523C298.311 185.373 298.186 185.245 298.04 185.145C297.895 185.044 297.73 184.975 297.556 184.94C297.383 184.905 297.204 184.906 297.031 184.942C296.858 184.978 296.694 185.049 296.549 185.151C296.403 185.252 296.28 185.382 296.187 185.532C296.093 185.682 296.031 185.85 296.004 186.024C295.315 188.3 294.968 190.666 294.975 193.043C294.975 193.325 295.082 193.597 295.273 193.804C295.465 194.01 295.728 194.137 296.009 194.159C296.29 194.181 296.569 194.095 296.79 193.92C297.011 193.745 297.158 193.493 297.202 193.215Z" fill="#212941"/>
<path d="M328.869 203.828C329.724 203.996 331.605 204.854 332.803 205.194C334.679 205.537 334.516 203.828 332.977 202.798C331.752 202.003 330.428 201.372 329.038 200.922C329.038 198.867 328.183 198.012 325.444 197.669C321.635 197.258 317.804 197.087 313.973 197.157C313.341 197.063 312.694 197.16 312.116 197.434C311.538 197.707 311.054 198.146 310.725 198.695C309.402 198.022 307.882 197.841 306.437 198.183C306.094 196.814 305.065 196.471 303.696 196.128C300.231 195.638 296.741 195.353 293.244 195.273C290.162 195.273 289.647 196.471 289.478 199.21C289.307 201.777 288.964 206.229 290.333 208.282C292.389 211.364 301.115 211.535 303.856 209.651C305.909 208.11 306.764 202.975 306.936 200.579C307.546 200.399 308.191 200.368 308.816 200.487C309.441 200.606 310.028 200.873 310.53 201.265C310.361 203.833 310.53 209.305 312.242 211.181C314.638 213.749 324.396 214.604 326.963 212.036C328.333 210.327 328.502 207.588 328.839 203.822L328.869 203.828ZM297.376 200.392C295.152 200.563 294.294 200.049 294.294 202.619C294.294 204.157 294.125 206.907 292.927 206.553C291.386 205.87 291.215 200.389 292.756 198.679C293.435 198.248 294.197 197.964 294.993 197.846C295.789 197.728 296.601 197.779 297.376 197.996C299.089 198.51 298.748 200.22 297.376 200.392ZM320.156 201.59C318.787 201.933 317.589 201.59 316.56 202.447C315.362 203.474 316.56 208.094 314.684 208.266C312.459 208.437 313.317 201.933 313.829 200.906C314.684 199.194 318.277 199.365 319.993 199.537C320.848 199.537 321.022 201.249 320.164 201.59" fill="#212941"/>
<path d="M299.083 252.952C299.083 253.234 299.19 253.506 299.382 253.713C299.574 253.919 299.836 254.046 300.117 254.068C300.399 254.09 300.678 254.004 300.899 253.829C301.12 253.654 301.267 253.402 301.31 253.124C301.577 248.922 302.149 244.745 303.023 240.627C307.64 241.313 316.372 241.141 320.14 238.751C321.335 237.893 320.14 236.355 318.939 236.695C313.549 238.304 307.851 238.598 302.323 237.553C295.99 236.183 294.109 233.101 294.109 226.597C294.133 222.362 294.419 218.132 294.967 213.931C295.479 211.364 293.091 211.536 292.74 213.074C291.844 217.584 291.385 222.17 291.37 226.769C291.542 233.788 293.597 238.236 300.445 240.292C299.471 244.442 299.01 248.695 299.072 252.958" fill="#212941"/>
<path d="M294.12 182.259C301.479 187.394 320.309 188.423 332.98 187.908C332.796 194.421 333.781 200.914 335.891 207.078C336.745 209.474 339.313 205.537 342.735 207.421C347.023 209.817 345.147 218.718 341.712 218.889C339.656 219.061 336.062 215.467 335.379 218.375C333.503 227.277 331.091 243.709 331.954 252.437C332.125 253.807 334.009 253.295 334.178 252.097C334.54 241.632 335.742 231.214 337.775 220.942C346.846 225.565 349.414 213.926 347.691 208.791C347.038 207.027 345.761 205.564 344.102 204.68C348.848 198.477 351.487 190.92 351.633 183.111C350.95 171.986 340.337 168.221 336.74 174.554C332.452 170.617 318.768 158.12 301.479 159.49C284.022 161.031 286.761 177.121 294.12 182.27V182.259ZM301.822 163.954C307.944 163.779 313.992 165.321 319.283 168.406C320.478 169.261 319.794 170.802 318.428 170.282C313.876 168.175 308.89 167.177 303.878 167.371C300.281 167.371 294.12 168.569 295.147 173.535C295.49 174.905 293.606 175.245 293.091 174.047C291.041 168.401 296.859 164.131 301.822 163.949" fill="#212941"/>
<path d="M188.853 303.105C175.158 297.97 82.5532 281.025 65.0957 278.629C63.8204 294.053 61.5339 309.376 58.251 324.5C62.5666 325.896 67.0649 326.646 71.6001 326.727C70.5709 321.249 66.8082 293.862 78.7905 292.836C92.3111 291.638 104.805 320.906 108.745 329.637C117.302 328.78 137.844 327.925 142.808 329.637C147.771 331.35 162.147 344.016 174.986 362.333C182.517 362.333 247.563 362.162 261.77 362.333C248.587 348.129 202.373 308.243 188.853 303.105Z" fill="#212941"/>
<path d="M141.781 333.572C135.617 331.696 117.817 333.231 110.114 333.915C113.196 341.105 119.355 367.635 111.484 380.815C126.202 378.419 165.403 370.202 171.392 367.635C168.654 362.5 152.391 336.815 141.781 333.572Z" fill="#212941"/>
<path d="M440.469 236.006C438.416 215.467 366.354 188.251 354.543 185.512C353.263 191.93 351.133 198.149 348.21 204.004C354.029 207.77 350.778 219.066 346.841 222.496C358.361 226.973 369.377 232.653 379.706 239.442C382.099 237.73 384.155 235.845 386.379 233.964C387.408 233.107 388.791 233.793 387.751 235.334C380.389 246.973 350.263 254.675 339.307 255.873C331.093 277.099 291.041 324.682 279.227 329.477C276.831 308.423 283.85 263.919 286.246 253.134C279.058 249.382 249.104 229.172 245.164 221.81C244.481 220.612 245.679 219.414 246.877 220.612C248.898 223.09 251.194 225.33 253.722 227.288C262.282 222.837 284.542 218.045 288.642 217.53C288.642 216.675 289.328 213.765 289.328 212.224C285.22 211.198 286.246 200.585 286.418 197.334C286.59 196.17 287.199 195.115 288.121 194.384C289.043 193.653 290.208 193.3 291.381 193.397C291.552 191.684 292.236 186.893 292.75 183.481C280.254 183.996 209.049 197.347 201.689 217.887C193.649 240.482 227.021 275.4 238.491 288.58C239.493 283.115 240.927 277.738 242.779 272.5C243.294 271.302 244.835 271.645 244.492 273.014C241.069 289.96 235.248 310.159 236.452 334.636C243.982 340.285 260.076 353.977 266.578 362.537H351.306C354.902 354.32 369.452 317.862 376.64 310.671C385.712 303.483 442.541 256.583 440.485 236.041L440.469 236.006ZM270.514 282.601C267.947 285.68 261.614 289.789 261.614 291.501C265.675 305.577 268.256 320.038 269.317 334.649C269.488 337.045 267.947 336.019 267.775 334.821C266.376 320.949 263.625 307.247 259.561 293.91C258.532 290.488 259.218 289.29 262.129 286.551C263.667 285.182 265.72 283.469 268.633 280.73C266.118 279.001 263.716 277.114 261.44 275.081C259.39 273.205 258.873 272.342 260.759 269.774C265.667 264.523 271.461 260.178 277.876 256.937C279.929 256.254 280.101 257.795 279.074 258.478C272.967 262.509 267.289 267.154 262.129 272.342C264.545 274.526 267.119 276.529 269.831 278.334C272.055 279.875 272.398 280.387 270.514 282.622V282.601ZM352.335 282.794C346.024 287.373 339.112 291.059 331.793 293.747C332.476 294.773 336.416 300.423 338.297 302.819C339.666 304.695 338.64 305.901 337.099 307.27C321.564 321.26 304.018 332.841 285.048 341.628C282.995 342.657 282.821 340.773 284.022 340.089C303.059 330.657 320.688 318.616 336.4 304.314C335.542 302.945 331.948 298.496 330.236 295.414C328.695 292.675 329.035 292.16 331.945 290.962C338.873 288.08 345.472 284.465 351.63 280.178C349.559 274.66 347.9 268.996 346.667 263.232C346.495 262.034 348.379 261.523 348.72 262.721C350.596 268.885 351.287 272.135 353.514 278.297C354.369 280.35 354.369 281.379 352.316 282.748" fill="#212941"/>
<path d="M57.0503 241.141C54.3114 228.304 48.15 231.898 47.1343 245.764C46.1186 259.631 42.5113 282.212 42.171 284.962C39.9466 284.619 38.0598 284.276 36.35 283.935C35.4924 287.529 32.4131 305.673 32.4131 309.267C35.3236 310.979 48.6753 314.061 57.0691 314.573C63.0616 278.629 61.1775 260.654 57.0691 241.141H57.0503ZM42.5086 289.239C41.6578 295.125 40.4577 300.956 38.9148 306.699C38.5717 307.897 37.2022 307.554 37.3738 306.356C38.2021 300.537 39.3455 294.766 40.7988 289.07C41.4822 287.358 42.6748 288.213 42.5086 289.239Z" fill="#212941"/>
<path d="M78.7904 297.113C67.4915 299.852 76.9144 340.261 80.6664 352.23C83.743 351.375 94.0154 349.663 96.5829 350.354C98.2927 350.694 98.8073 351.895 97.0948 352.064C90.7496 352.865 84.4614 354.066 78.2678 355.661C77.9274 357.537 78.9538 360.967 81.5213 368.498C84.9436 378.253 93.1579 385.1 103.428 381.335C113.697 377.57 112.502 363.191 109.763 347.958C106.681 333.065 90.4216 294.211 78.7823 297.119L78.7904 297.113ZM85.6297 305.159C85.1125 304.132 85.9701 303.283 86.6562 304.304C95.0446 316.114 97.9524 330.15 100.348 342.815C100.691 344.691 98.8073 344.691 98.4723 343.33C95.2188 329.126 92.4798 318.339 85.6351 305.159H85.6297ZM100.185 378.248C98.3088 380.815 97.2743 379.446 97.9577 378.248C101.211 372.601 100.185 365.582 98.4723 357.194C98.1292 355.141 99.8418 354.626 100.525 356.682C102.066 361.473 103.433 373.97 100.185 378.248Z" fill="#212941"/>
<path d="M281.967 324.16C287.26 319.895 292.08 315.074 296.345 309.782C297.371 302.42 299.599 286.16 300.282 281.025C299.767 280.854 296.688 279.996 295.833 279.827C293.094 284.115 284.022 299.852 282.31 303.277C281.795 311.834 281.795 317.312 281.967 324.16Z" fill="#3A5AB7"/>
<path d="M296.687 270.412C296.248 272.781 296.133 275.199 296.344 277.6C298.149 277.818 299.927 278.219 301.651 278.798C303.77 276.858 305.717 274.74 307.472 272.465C312.775 277.771 322.876 272.125 328.011 268.528C329.209 267.673 328.869 266.132 327.499 266.818C317.741 271.782 309.524 276.23 306.274 264.763C315.387 263.898 324.325 261.707 332.806 258.258C334.172 257.575 334.344 255.862 332.806 256.205C323.219 258.773 314.831 262.195 304.398 262.024C301.664 259.997 299.193 257.641 297.038 255.007C295.497 253.131 293.956 254.493 295.666 256.717C297.393 259.12 299.405 261.304 301.659 263.222C296.867 268.357 292.415 271.61 290.362 262.367C290.019 260.654 288.31 261.512 288.486 262.71C289.001 267.502 291.74 272.626 296.703 270.412" fill="#3A5AB7"/>
<path d="M76.563 367.806C64.9238 367.466 16.4828 368.149 3.13104 368.149C0.732437 368.149 -0.637043 370.888 2.61648 371.059C23.6706 372.257 53.2685 370.545 76.5604 371.403C77.0373 371.403 77.4947 371.213 77.8319 370.876C78.1692 370.539 78.3586 370.081 78.3586 369.604C78.3586 369.127 78.1692 368.67 77.8319 368.333C77.4947 367.995 77.0373 367.806 76.5604 367.806" fill="#3A5AB7"/>
<path d="M421.46 353.42C422.489 352.565 421.46 351.367 420.265 351.71C418.521 352.58 417.035 353.89 415.953 355.512C414.872 357.133 414.233 359.009 414.101 360.953C413.932 367.629 424.202 370.197 432.416 361.637C433.855 360.389 434.931 358.777 435.534 356.971C436.136 355.164 436.241 353.228 435.838 351.367C434.471 346.744 427.798 345.717 424.37 348.628C423.172 349.654 424.37 351.024 425.74 350.504C429.68 348.963 431.904 349.818 432.759 351.53C433.785 353.755 432.587 357.694 429.162 360.602C424.03 364.711 416.834 366.249 417.354 359.747C417.949 357.226 419.4 354.99 421.46 353.42Z" fill="#FF9500"/>
<path d="M347.01 365.582C295.661 365.753 228.554 366.268 177.725 366.951C176.356 366.951 176.184 369.518 177.554 369.518C228.565 370.033 296.516 369.347 347.198 369.004C349.591 369.004 349.251 365.582 347.024 365.582" fill="#3A5AB7"/>
<path d="M521.775 366.265C511.163 366.437 494.903 366.096 485.145 366.951C484.814 367.014 484.517 367.195 484.31 367.461C484.104 367.728 484.001 368.06 484.022 368.396C484.043 368.733 484.186 369.05 484.425 369.288C484.663 369.526 484.98 369.669 485.317 369.69C497.811 370.374 509.11 369.69 521.604 369.862C523.659 369.862 524 366.265 521.775 366.265Z" fill="#3A5AB7"/>
<path d="M491.478 312.349C485.145 311.151 401.615 312.52 395.454 313.032C385.002 313.718 376.452 313.718 371.832 324.671C362.074 347.952 354.029 369.175 344.957 391.259C341.02 400.671 339.651 400.328 331.434 397.248C325.787 395.024 305.931 387.833 301.308 385.095C296.516 382.527 294.12 379.105 301.479 378.59C315.683 377.564 332.299 377.392 345.815 377.221C347.181 377.221 347.181 374.996 345.815 374.653C338.624 373.455 312.264 374.31 301.139 374.996C290.687 375.68 291.381 382.87 298.572 387.324C306.445 392.29 321.85 396.911 330.922 400.333C341.374 404.441 342.904 403.415 347.696 392.293C356.084 372.608 364.13 352.409 372.172 332.553C378.165 318.003 378.848 317.149 395.622 315.937C425.579 313.713 465.804 314.739 486.858 315.082C495.586 315.254 494.045 319.37 492.333 326.035C487.884 344.01 469.054 386.63 468.028 388.512C462.722 399.296 458.613 398.784 445.436 399.296C413.083 400.322 377.65 401.172 348.379 400.837C346.67 400.837 346.841 403.404 348.551 403.576C380.046 404.602 413.943 403.404 445.436 402.549C459.13 402.206 464.091 402.89 470.092 391.594C480.5 370.886 489.036 349.29 495.597 327.062C496.967 321.415 498.679 313.713 491.489 312.343" fill="#FF9500"/>
    <g class="svg-animation--money svg-animation--money-6">
        <path d="M6.55573 209.474C7.41065 212.899 8.26825 213.926 10.4926 210.503C16.6566 201.601 27.9528 195.268 37.365 189.961C48.8354 183.457 61.3296 178.322 74.6813 178.151C76.0508 178.151 76.5573 176.098 75.7078 175.24C70.2122 170.054 65.3303 164.254 61.158 157.954C61.0447 157.727 60.8457 157.554 60.605 157.474C60.3643 157.393 60.1014 157.412 59.8743 157.525C59.6472 157.639 59.4745 157.838 59.3941 158.078C59.3136 158.319 59.3322 158.582 59.4455 158.809C62.9867 165.026 67.3647 170.728 72.4569 175.755C59.6533 176.896 47.2902 180.998 36.3439 187.737C28.1297 192.357 14.6064 200.065 9.12853 207.936C7.61542 199.795 6.69998 191.555 6.38957 183.28C12.791 176.516 20.3949 171.003 28.8131 167.02C37.5059 162.774 46.9057 160.163 56.5431 159.318C58.2556 159.147 58.2556 157.091 56.5431 157.263C46.9031 157.954 37.459 160.33 28.6389 164.282C19.9257 168.198 12.0278 173.721 5.35777 180.56C3.13337 182.958 3.81677 183.127 3.81677 186.381C4.02242 194.151 4.93924 201.885 6.55573 209.488" fill="#3A5AB7"/>
        <path d="M31.5467 170.963C30.495 171.804 29.6987 172.921 29.2475 174.19C28.7962 175.459 28.708 176.828 28.9926 178.144C29.2772 179.46 29.9234 180.671 30.8585 181.64C31.7936 182.609 32.9805 183.297 34.2857 183.629C40.2781 184.998 44.8958 177.982 43.1859 172.673C41.4734 167.197 34.1141 168.052 35.4836 170.62C36.3385 172.332 39.249 169.593 40.6185 173.187C41.988 176.61 39.249 181.576 35.3121 181.227C31.8871 181.056 29.4911 176.435 32.9162 172.667C33.7711 171.641 32.4016 170.103 31.5467 170.958" fill="#3A5AB7"/>
    </g>
<path d="M140.411 181.916C125.006 189.45 117.473 215.807 101.213 227.447C96.3352 221.99 90.2344 217.765 83.4101 215.119C95.052 214.264 115.417 206.559 122.439 196.975C123.12 196.117 122.096 194.919 121.238 195.777C111.652 205.693 92.6534 212.723 78.7898 212.208C74.6813 212.037 76.5627 214.433 78.6156 215.462C87.0067 219.75 91.4555 221.28 98.4744 228.47C99.8439 229.84 100.527 230.523 101.554 229.84C120.552 218.712 123.798 194.579 139.039 185.164C137.151 189.365 135.827 193.797 135.102 198.344C131.985 199.218 129.035 200.607 126.376 202.453C125.175 203.136 126.033 204.849 127.574 203.991C129.786 202.742 132.142 201.766 134.59 201.083C136.986 200.569 136.646 201.255 137.669 197.318C138.611 193.032 140.109 188.888 142.124 184.99C143.833 182.594 145.031 179.684 140.411 181.908" fill="#3A5AB7" class="svg-animation--money svg-animation--money-5"/>
<path d="M178.58 279.141C184.254 278.379 189.628 276.136 194.159 272.637C195.526 271.61 193.987 270.241 192.958 269.898C170.878 261.512 155.974 243.366 154.79 219.575C160.186 221.426 165.856 222.352 171.561 222.314C169.21 231.966 169.807 242.101 173.274 251.411C173.788 252.78 175.501 252.269 174.986 250.728C171.561 237.89 171.907 234.465 174.129 221.457C174.129 221.288 173.96 219.581 172.762 219.581C163.004 219.581 163.004 219.066 154.104 216.842C153.763 216.67 152.391 216.842 152.391 217.868C151.022 242.173 169.168 263.227 190.734 271.959C186.61 274.607 181.92 276.247 177.044 276.745C169.342 268.359 168.141 266.987 163.178 255.691C162.666 254.664 161.302 254.836 161.637 256.034C163.885 263.823 167.931 270.976 173.448 276.917C175.503 278.458 175.503 279.312 178.583 279.141" fill="#3A5AB7" class="svg-animation--money svg-animation--money-4" />
<path d="M172.756 135.188C161.972 123.548 144.169 123.377 129.45 124.736C128.081 124.907 128.252 126.448 129.622 126.448C143.485 126.277 158.719 125.762 169.506 135.863C163.06 137.991 156.861 140.802 151.014 144.249C148.407 139.572 144.714 135.59 140.245 132.641C135.777 129.692 130.664 127.861 125.339 127.303C114.555 126.448 98.9787 128.844 92.8174 138.602C92.3028 139.457 93.1604 141.169 94.3584 140.826C103.606 138.475 112.978 136.646 122.431 135.348C123.97 135.177 123.627 133.472 122.086 133.636C113.665 134.293 105.309 135.609 97.0947 137.573C104.457 130.728 115.241 129.359 124.825 129.871C129.889 130.335 134.759 132.047 139.001 134.853C143.243 137.659 146.723 141.472 149.132 145.951C149.43 146.285 149.807 146.539 150.228 146.688C150.65 146.838 151.103 146.878 151.544 146.805C157.701 143.347 164.176 140.489 170.88 138.27C172.421 137.755 173.962 136.557 172.756 135.188Z" fill="#3A5AB7"/>
<path d="M238.835 160.35C241.914 161.376 242.083 161.548 244.65 159.324C249.739 155.102 255.053 151.159 260.569 147.513C262.282 146.486 261.255 144.774 260.229 144.259C241.571 136.219 235.573 125.089 227.024 107.972C226.509 106.774 226.166 104.89 224.966 104.89C221.889 104.89 210.59 106.766 207.851 108.999C207.731 109.062 207.626 109.149 207.541 109.255C207.456 109.361 207.393 109.483 207.357 109.614C207.32 109.744 207.311 109.881 207.329 110.015C207.347 110.15 207.393 110.279 207.462 110.395C207.532 110.512 207.625 110.613 207.735 110.692C207.845 110.772 207.97 110.828 208.102 110.857C208.235 110.887 208.372 110.889 208.505 110.864C208.638 110.839 208.765 110.787 208.878 110.711C211.105 109.17 221.374 107.972 223.942 107.629C232.328 125.261 238.32 137.243 257.662 146.143C251.973 149.668 246.642 153.739 241.742 158.297C219.15 152.305 210.59 129.889 204.6 111.226C204.257 110.028 202.204 110.711 202.545 111.909C207.339 131.594 218.464 153.846 238.835 160.35Z" fill="#3A5AB7"/>
<path d="M220.689 129.372C215.039 137.757 227.021 147.515 233.526 140.153C234.6 139.073 235.309 137.684 235.555 136.18C235.801 134.677 235.57 133.134 234.895 131.768C231.987 126.976 225.312 127.831 226.338 130.398C227.021 132.111 229.932 129.712 232.502 132.794C234.378 135.19 231.647 140.834 226.855 139.813C225.9 139.595 225.009 139.153 224.257 138.524C223.505 137.896 222.913 137.098 222.529 136.196C222.144 135.294 221.979 134.314 222.046 133.336C222.114 132.358 222.412 131.41 222.916 130.57C223.002 130.285 222.987 129.98 222.873 129.705C222.76 129.43 222.555 129.203 222.293 129.062C222.031 128.921 221.729 128.875 221.437 128.931C221.145 128.988 220.882 129.143 220.691 129.372" fill="#3A5AB7"/>
<g class="svg-animation--money svg-animation--money-1">
    <path d="M341.864 119.783C339.988 119.783 339.811 122.522 346.827 121.324C355.219 119.783 357.443 112.764 353.675 108.487C349.907 104.209 336.729 108.658 339.471 114.991C339.755 115.737 340.242 116.388 340.877 116.872C341.511 117.356 342.268 117.653 343.062 117.73C344.432 117.899 344.606 116.361 343.236 116.018C340.154 115.503 340.824 109.685 348.883 109.342C355.73 109.17 353.675 120.126 341.864 119.794" fill="#3A5AB7"/>
    <path d="M315.175 129.71C315.311 129.914 315.522 130.056 315.763 130.104C316.004 130.152 316.254 130.103 316.458 129.967C316.663 129.831 316.804 129.619 316.853 129.378C316.901 129.138 316.852 128.888 316.716 128.683C313.805 123.548 311.238 118.413 308.499 113.279C319.111 114.82 331.434 109.854 341.02 105.917C350.607 101.98 359.85 96.3329 365.84 87.6015C370.172 92.5689 374.23 97.7697 377.994 103.18C374.228 111.395 361.56 120.126 353.338 124.063C343.41 128.741 332.638 131.361 321.671 131.765C320.301 131.765 320.13 133.641 321.499 133.641C337.933 134.839 356.589 127.308 369.257 116.867C373.313 113.864 376.792 110.153 379.527 105.911C380.896 103.344 381.068 102.832 379.184 100.265C375.247 94.9581 371.31 89.8125 367.03 85.0287C366.346 84.1738 365.154 83.3189 364.462 84.5168C359.499 93.4171 348.382 99.9215 339.3 103.687C328.347 108.31 319.618 111.218 307.636 110.534C304.211 110.363 304.211 111.389 305.58 114.128C308.507 119.481 311.706 124.68 315.166 129.704" fill="#3A5AB7"/>
</g>
<path d="M317.399 56.4489C330.064 44.6382 336.4 24.6132 334.859 7.49606C334.687 5.95506 333.146 5.78354 333.146 7.32454C334.001 26.8376 328.012 40.8728 315.686 55.0821C314.488 56.4489 316.201 57.6469 317.399 56.4489Z" fill="#3A5AB7"/>

        <path d="M344.617 31.9726C344.593 42.1848 342.066 52.2354 337.255 61.2436C331.957 59.1633 326.447 57.6705 320.824 56.7921C320.548 56.7852 320.279 56.879 320.067 57.056C319.855 57.233 319.715 57.481 319.673 57.7538C319.63 58.0266 319.689 58.3054 319.837 58.5383C319.985 58.7712 320.213 58.9421 320.478 59.0192C326.253 60.2875 331.919 62.0043 337.426 64.1541C337.79 64.2511 338.176 64.2185 338.518 64.0621C338.861 63.9056 339.138 63.6349 339.302 63.2965C344.79 53.4662 347.622 42.3757 347.519 31.1177C347.519 24.0988 344.952 7.32468 339.817 0.833716C338.276 -1.04228 337.59 0.833718 338.105 2.03168C342.42 11.4265 344.64 21.6475 344.612 31.986" fill="#3A5AB7" />
        <path d="M335.885 38.4769C334.687 37.622 333.146 38.4769 334.009 39.8464C335.21 41.902 340.688 43.2715 342.4 33.1705C343.255 28.0357 339.83 25.8113 336.748 28.3787C335.553 29.2336 336.577 30.0912 337.434 29.7482C338.12 29.4051 341.028 27.8722 340.002 33.3421C339.144 36.2525 337.434 39.6749 335.893 38.4769" fill="#3A5AB7"/>

<path d="M240.716 89.1422C243.627 89.3138 248.93 89.6568 252.87 89.4853C257.158 89.1422 257.158 88.2873 254.923 85.7199C248.59 78.1891 247.049 64.6658 248.759 55.4359C250.635 44.6516 256.799 35.0679 268.272 31.8144C270.817 34.7146 273.897 37.0976 277.344 38.8333C267.344 42.2222 258.344 48.0456 251.155 55.7789C250.128 56.8054 251.667 57.8318 252.524 56.8054C260.082 49.5058 269.306 44.1593 279.396 41.2292C285.217 39.3532 280.594 37.6353 278.199 36.0943C275.566 34.7506 273.19 32.9544 271.18 30.7879C269.304 28.735 268.784 28.5635 266.388 29.4184C261.053 31.2559 256.328 34.53 252.734 38.8803C249.141 43.2307 246.817 48.4884 246.02 54.0744C244.307 63.4893 246.02 79.237 252.696 86.7705C247.84 86.9389 242.978 86.7562 238.149 86.2237C236.938 78.9202 237.347 71.44 239.347 64.312C239.69 62.7737 238.149 62.2592 237.471 63.6286C234.56 69.2781 234.048 80.9173 235.932 87.2502C236.273 88.9627 238.497 88.9627 240.724 89.1262" fill="#3A5AB7" class="svg-animation--money svg-animation--money-2"/>
    <g class="svg-animation--money svg-animation--money-3">
        <path d="M153.249 70.1442C148.797 74.2526 152.394 79.8994 159.579 79.3875C164.376 79.0445 168.653 74.5957 165.914 70.1442C165.081 69.0451 163.899 68.2611 162.563 67.9204C161.226 67.5796 159.813 67.7022 158.555 68.2682C158.361 68.3484 158.197 68.4887 158.088 68.6687C157.979 68.8486 157.93 69.0588 157.949 69.2683C157.968 69.4779 158.053 69.676 158.193 69.8336C158.332 69.9911 158.518 70.1 158.724 70.1442C160.096 70.4872 161.978 69.9727 163.175 71.1706C165.403 73.2262 162.835 76.3055 160.268 76.8201C156.671 77.5035 151.877 75.9625 154.444 71.5137C155.13 70.1442 154.444 69.1177 153.249 70.1442Z" fill="#3A5AB7"/>
        <path d="M120.726 67.2334C140.068 83.1526 169.851 88.8021 193.987 84.6936C197.066 84.1791 197.409 83.4957 195.356 80.5852C193.28 77.4821 191.557 74.156 190.222 70.6692C188.852 66.5634 188.678 66.2204 185.255 66.2204C170.098 66.4183 155.177 62.4466 142.124 54.7393C140.923 54.0532 139.712 55.2512 140.923 56.2776C153.763 65.864 170.708 68.6056 186.285 68.946C187.945 73.6868 190.246 78.1782 193.124 82.295C180.618 84.6198 167.758 84.2337 155.414 81.1628C143.069 78.092 131.527 72.4079 121.568 64.4945C127.355 61.8034 132.717 58.2823 137.487 54.0425C138.514 53.1876 137.316 51.3035 135.775 52.673C131.059 56.7174 125.747 60.0088 120.027 62.4309C116.605 63.8004 118.486 65.3414 120.713 67.2227" fill="#3A5AB7"/>
    </g>
<path d="M441.829 92.7389C439.798 96.3359 436.991 99.435 433.612 101.811C426.175 98.9727 419.454 94.5312 413.927 88.802C412.901 87.7756 411.874 89.145 412.901 90.1715C417.935 95.9148 424.039 100.624 430.873 104.035C433.443 105.233 433.612 105.233 436.008 103.523C439.813 100.48 442.958 96.6943 445.251 92.3959C445.766 91.3694 445.766 89.8284 444.225 90C432.414 91.1979 420.26 89.8284 411.529 80.7566C402.971 71.8564 401.077 61.072 402.971 49.2613C407.788 48.983 412.601 49.8634 417.007 51.8287C411.872 63.1249 412.555 73.9093 418.376 80.2367C419.231 81.0943 420.252 80.4083 419.574 79.3818C417.323 75.5267 416.094 71.1603 416.004 66.6969C415.915 62.2335 416.967 57.8212 419.062 53.8789C419.917 52.0029 420.257 50.4539 418.204 49.2559C413.773 47.1708 408.89 46.2292 404 46.517C401.433 46.6885 400.918 46.86 400.407 48.9129C399.049 54.8088 399.186 60.9502 400.803 66.7801C402.421 72.6099 405.468 77.9437 409.669 82.2976C418.569 91.7125 429.525 93.5939 441.847 92.7497" fill="#3A5AB7" class="svg-animation--money svg-animation--money-3" />
<path d="M442.364 145.8C442.876 143.233 443.048 142.55 439.625 143.062C434.957 143.867 430.484 145.552 426.445 148.028C422.337 150.595 423.02 150.764 424.218 154.872C427.131 164.788 431.752 174.385 439.968 181.061C449.54 188.326 460.892 192.879 472.831 194.241C474.543 194.413 474.886 192.532 473.002 192.189C461.773 190.714 451.137 186.284 442.182 179.351C431.91 170.963 428.487 162.063 425.92 151.793C430.157 149.041 434.852 147.07 439.784 145.972C437.908 154.36 441.66 169.593 445.261 177.296C445.776 178.494 447.137 177.982 446.805 176.784C443.892 168.053 440.47 154.872 442.354 145.8" fill="#3A5AB7" class="svg-animation--money svg-animation--money-7"/>
<path d="M469.569 196.809C467.856 197.664 462.209 202.115 457.758 202.973C451.562 197.17 445.784 190.936 440.469 184.317C439.614 183.288 438.416 184.146 439.1 185.172C443.652 192.146 449.054 198.528 455.18 204.171C457.056 205.883 457.233 205.712 459.8 204.857C463.868 203.399 467.596 201.128 470.756 198.181C471.954 196.811 470.584 196.305 469.558 196.811" fill="#3A5AB7"/>
</svg>
