<svg preserveAspectRatio="xMidYMid meet" width="340px" height="100%" viewBox="0 0 336 341" fill="none" xmlns="http://www.w3.org/2000/svg">
<path fill-rule="evenodd" clip-rule="evenodd" d="M177.417 267.876C224.782 257.509 287.89 236.938 277.52 166.353C267.149 95.7676 222.694 68.5518 167.696 68.5518C112.699 68.5518 50.2137 110.045 62.48 196.001C74.7463 281.958 130.052 278.242 177.417 267.876ZM21.7319 182.79C19.7761 163.149 21.8542 143.716 27.4363 125.499L11.5093 116.967C8.82468 115.53 7.81506 112.189 9.25021 109.505L30.9947 68.9092C32.4344 66.2254 35.7755 65.2154 38.4602 66.6528L54.3871 75.1845C66.4614 60.4464 81.4874 47.9488 98.9174 38.6937L93.6929 21.4063C92.8101 18.4921 94.458 15.4158 97.3736 14.5348L141.456 1.20511C144.371 0.324104 147.445 1.97203 148.328 4.88624L153.552 22.1737C173.196 20.2183 187.507 27.4163 205.725 32.9953L214.257 17.0679C215.694 14.3841 219.035 13.3741 221.719 14.8115L262.315 36.5574C264.998 37.9948 266.008 41.3355 264.571 44.0188L256.039 59.9466C270.777 72.0204 288.395 81.9265 297.65 99.3597L314.938 94.1325C317.852 93.2515 320.928 94.8994 321.809 97.8131L335.139 141.896C336.02 144.81 334.372 147.886 331.458 148.768L314.17 153.995C316.125 173.635 314.047 193.069 308.468 211.286L324.396 219.818C327.08 221.255 328.09 224.596 326.652 227.28L304.906 267.876C303.469 270.559 300.128 271.57 297.445 270.132L281.517 261.6C269.443 276.339 254.417 288.836 236.984 298.091L242.211 315.379C243.092 318.292 241.444 321.369 238.531 322.25L194.447 335.578C191.536 336.46 188.458 334.812 187.575 331.897L182.35 314.611C162.711 316.567 143.276 314.488 125.058 308.909L116.528 324.837C115.089 327.52 111.748 328.529 109.063 327.093L68.4669 305.347C65.7868 303.91 64.7727 300.569 66.2123 297.886L74.7462 281.958C60.0055 269.884 47.5102 254.858 38.2519 237.425L20.9668 242.652C18.0512 243.533 14.9727 241.886 14.0944 238.971L0.766113 194.889C-0.116699 191.975 1.53122 188.898 4.44678 188.017L21.7319 182.79Z" fill="#3A5AB7" class="svg-animation--gear" />
<path fill-rule="evenodd" clip-rule="evenodd" d="M107.024 83.6817L108.559 83.6299L108.603 84.9938C108.676 87.4479 108.642 90.0732 108.605 92.9355C108.58 94.9303 108.553 97.0402 108.559 99.2875L108.814 103.725C108.807 107.86 108.778 113.614 108.727 120.989L108.56 141.983C109.688 142.358 110.536 143.332 110.706 144.517C111.637 144.659 112.352 145.449 112.352 146.4C112.352 147.073 111.994 147.665 111.454 148.005L112.111 149.592C112.402 150.297 112.884 150.9 113.503 151.335C116.216 153.244 117.813 156.335 117.775 159.604C117.774 159.691 117.772 159.777 117.769 159.864C117.757 160.177 117.488 160.419 117.168 160.41C116.848 160.399 116.598 160.135 116.61 159.822C116.613 159.745 116.615 159.668 116.616 159.591C116.649 156.692 114.721 153.951 112.314 152.258C111.517 151.697 110.898 150.923 110.524 150.018L110.328 148.306H109.503C109.503 148.306 109.217 149.847 109.217 151.052C109.217 152.257 109.503 154.644 109.503 154.644H110.454C111.542 154.644 112.427 155.511 112.427 156.577C112.427 157.643 111.542 158.51 110.454 158.51H110.317C109.229 158.51 108.856 157.953 108.856 156.577C108.856 155.856 108.776 155.341 107.601 155.341C106.425 155.341 106.728 156.577 106.728 156.577C106.728 157.643 105.842 158.51 104.754 158.51H104.618C103.53 158.51 102.645 157.643 102.645 156.577C102.645 155.511 104.48 154.609 105.568 154.609C105.568 154.609 105.858 152.441 105.858 151.335C105.858 150.404 105.568 148.5 105.568 148.5H106.728C106.728 148.5 106.486 150.277 106.486 151.362C106.486 152.447 106.728 154.609 106.728 154.609C106.728 154.609 107.367 154.725 107.672 154.731C107.976 154.738 108.344 154.644 108.344 154.644C108.344 154.644 108.598 152.426 108.598 151.362C108.598 150.298 108.344 148.306 108.344 148.306H106.728H105.568H104.744L104.036 150.018C103.68 150.878 102.615 151.633 101.803 152.209L101.7 152.281C99.3476 153.952 98.4553 156.646 98.4553 159.488C98.4553 161.888 99.4166 164.138 101.162 165.823C102.907 167.508 105.218 168.929 107.672 168.894C109.617 168.866 111.606 167.794 113.161 166.632C114.666 165.507 116.616 162.43 116.94 161.72C117.265 161.01 117.418 162.131 117.323 162.43C116.698 164.411 115.421 166.199 113.725 167.466C111.971 168.777 109.884 169.486 107.689 169.517C104.922 169.556 102.316 168.532 100.348 166.632C98.3799 164.732 97.2958 162.195 97.2958 159.488C97.2958 156.283 98.8792 153.245 101.531 151.362C102.177 150.903 102.672 150.291 102.961 149.592L103.618 148.005C103.078 147.665 102.72 147.073 102.72 146.4C102.72 145.449 103.434 144.659 104.365 144.517C104.557 143.181 105.61 142.113 106.956 141.87L107.031 141.87L107.92 122.348C107.973 114.916 107.278 100.063 107.278 100.063C107.265 94.3517 107.195 89.3439 107.067 85.0407L107.024 83.6817ZM105.568 156.577C105.568 157.016 105.203 157.374 104.754 157.374H104.618C104.581 157.374 104.545 157.375 104.509 157.375C104.112 157.382 103.804 157.386 103.804 156.577C103.804 155.694 105.568 155.341 105.568 155.341V156.577ZM109.503 156.577C109.333 158.171 111.636 157.687 111.711 156.577C111.786 155.466 109.503 155.341 109.503 155.341V156.577ZM107.536 142.954C108.5 142.954 109.311 143.612 109.524 144.494H105.548C105.761 143.612 106.571 142.954 107.536 142.954ZM104.913 145.63H104.665C104.232 145.63 103.879 145.975 103.879 146.4C103.879 146.825 104.232 147.17 104.665 147.17H110.406C110.84 147.17 111.192 146.825 111.192 146.4C111.192 145.975 110.84 145.63 110.406 145.63H110.158H104.913ZM93.7171 150.574H94.7305C95.0162 150.574 95.2478 150.345 95.2478 150.062C95.2478 149.779 95.0162 149.55 94.7305 149.55H93.7171C93.4314 149.55 93.1998 149.779 93.1998 150.062C93.1998 150.345 93.4314 150.574 93.7171 150.574ZM94.5606 154.609L95.5356 154.199C95.601 154.171 95.6687 154.158 95.7351 154.158C95.9478 154.158 96.149 154.292 96.233 154.512C96.3433 154.8 96.2099 155.128 95.935 155.243L94.9599 155.654C94.685 155.769 94.3728 155.629 94.2625 155.341C94.1522 155.053 94.2857 154.725 94.5606 154.609ZM95.4922 145.117L96.4058 145.849C96.6634 146.056 97.0168 145.982 97.1949 145.683C97.3732 145.384 97.3089 144.975 97.0513 144.768L96.1378 144.035C96.0393 143.956 95.9268 143.918 95.8155 143.918C95.6357 143.918 95.4587 144.017 95.3486 144.202C95.1704 144.5 95.2346 144.91 95.4922 145.117ZM121.866 150.574H120.853C120.567 150.574 120.336 150.345 120.336 150.062C120.336 149.779 120.567 149.55 120.853 149.55H121.866C122.152 149.55 122.384 149.779 122.384 150.062C122.384 150.345 122.152 150.574 121.866 150.574ZM119.178 145.849L120.091 145.117C120.349 144.91 120.413 144.5 120.235 144.202C120.125 144.017 119.948 143.918 119.768 143.918C119.657 143.918 119.544 143.956 119.446 144.035L118.532 144.768C118.275 144.975 118.21 145.384 118.389 145.683C118.567 145.981 118.92 146.056 119.178 145.849Z" fill="#FF9500" class="svg-animation--lamp" />
<path d="M182.662 226.648C177.014 228.135 174.116 231.672 171.669 234.967C169.217 238.261 174.608 236.694 177.583 235.504C180.557 234.315 187.72 229.918 187.72 229.918L211.467 222.736V211.752L204.365 211.337C204.365 211.337 188.314 225.161 182.662 226.648Z" fill="white"/>
<path d="M207.267 146.207C202.188 165.43 199.567 183.822 199.152 201.466C199.152 201.466 194.396 202.061 194.99 206.223C195.584 210.385 208.071 221.681 208.071 221.681L212.398 207.34L214.016 154.496L207.267 146.207Z" fill="white"/>
<path d="M224.296 157.766L227.741 168.168C235.617 191.991 239.496 204.083 239.612 205.216C239.685 205.92 239.258 206.447 238.599 206.626C238.203 206.733 237.719 206.728 237.118 206.638C236.183 206.5 234.932 206.149 233.423 205.627C232.255 205.224 230.994 204.74 229.717 204.217L229.179 203.996C229.005 203.923 228.835 203.851 228.67 203.782L227.817 203.414L227.573 203.306L227.431 203.081C227.18 202.68 226.821 201.971 226.467 201C226.157 200.146 225.909 199.232 225.746 198.266L225.689 197.902C225.638 197.547 225.151 196.726 224.147 195.325L223.448 194.367C222.874 193.593 221.769 192.115 221.658 191.965L221.009 191.086C220.388 190.24 219.847 189.485 219.317 188.723C216.663 184.9 214.786 181.555 213.68 178.335C212.741 175.604 212.412 173.074 212.783 170.748C213.353 167.196 213.135 163.804 212.304 160.619C211.613 157.973 213.797 155.532 216.945 154.635C220.199 153.708 223.298 154.758 224.296 157.766Z" fill="white"/>
<path d="M218.529 142.384C216.61 144.42 215 145.974 213.699 147.043C211.507 148.845 208.364 150.776 204.272 152.836C216.79 155.735 224.434 156.308 227.204 154.556C227.204 154.556 226.05 149.127 224.393 146.802C223.159 145.07 218.529 142.384 218.529 142.384Z" fill="white"/>
<path d="M198.616 116.215C201.217 126.093 208.323 136.406 215.891 134.415C223.458 132.423 227.646 118.921 225.045 109.042C222.444 99.1636 214.201 92.7702 206.634 94.7619C199.066 96.7536 196.015 106.337 198.616 116.215Z" fill="white"/>
<path d="M196.884 119.365C199.828 130.67 207.87 142.473 216.434 140.193C224.998 137.914 229.738 122.462 226.794 111.157C223.851 99.8517 214.522 92.5351 205.958 94.8144C197.394 97.0937 193.941 108.061 196.884 119.365Z" fill="white"/>
<path fill-rule="evenodd" clip-rule="evenodd" d="M210.552 96.1147C204.716 96.4463 200.457 98.3634 198.069 101.742L197.8 102.132C196.619 103.836 195.627 104.909 195.192 108.134L195.151 108.477C194.903 110.599 194.83 112.837 194.957 113.58C195.026 113.894 195.161 114.003 195.331 113.97C195.717 113.895 196.715 112.12 198.327 108.645L199.68 110.229C200.416 111.079 201.977 111.881 202.902 112.483C203.828 113.086 210.552 96.1147 210.552 96.1147Z" fill="white"/>
<path fill-rule="evenodd" clip-rule="evenodd" d="M204.66 128.205C201.41 129.561 198.941 131.321 198.287 130.589C197.633 129.857 199.865 127.627 201.599 124.6C203.414 121.589 205.139 117.796 205.461 116.253L206.287 112.353C208.702 115.4 210.962 125.623 204.66 128.205Z" fill="white"/>
<path d="M166.88 314.374L167.056 325.219H173.225L175.072 312.776L166.88 314.374Z" fill="white"/>
<path d="M234.437 256.705C234.437 256.705 194.413 255.822 181.831 254.007C167.864 251.992 160.225 247.231 157.188 247.794C155.764 248.057 147.363 249.546 129.832 251.411C122.418 252.199 103.173 252.32 103.173 252.32L95.7032 236.422C95.7032 236.422 148.267 225.869 164.886 230.436C170.113 231.873 181.433 233.946 194.892 233.189C206.531 232.535 238.184 226.387 238.184 226.387C238.184 226.387 250.964 230.974 248.65 242.256C246.337 253.538 234.437 256.705 234.437 256.705Z" fill="white"/>
<path fill-rule="evenodd" clip-rule="evenodd" d="M99.9854 243.224L97.5252 236.1C97.5252 236.1 150 226.311 166.619 230.879C171.847 232.316 176.57 234.685 190.029 233.928C195.182 233.638 203.991 232.432 216.457 230.31C222.764 229.237 223.777 229.634 218.82 232.875C207.327 240.391 181.761 238.62 158.564 235.233C115.453 228.938 99.9854 243.224 99.9854 243.224Z" fill="white"/>
<path d="M173.843 316.837C176.455 319.722 179.916 324.473 178.134 329.23L147.214 338.743C147.214 338.743 146.026 335.174 147.808 332.205C149.595 329.23 166.465 317.494 166.465 317.494L173.843 316.837Z" fill="white"/>
<path d="M252.392 254.436C252.392 254.436 238.666 258.769 227.613 260.393C216.56 262.017 194.513 262.941 194.513 262.941C194.513 262.941 187.63 266.683 187.186 268.416C187.013 269.09 185.97 278.009 183.086 289.402C181.729 294.762 174.48 318.997 174.48 318.997L164.886 314.75C164.886 314.75 165.271 270.205 171.396 255.43C177.52 240.656 240.477 226.306 240.477 226.306C240.477 226.306 253.839 223.889 257.476 234.816C261.114 245.743 252.392 254.436 252.392 254.436Z" fill="white"/>
<path fill-rule="evenodd" clip-rule="evenodd" d="M172.945 317.461L163.35 313.214C163.607 283.517 165.777 263.744 169.86 253.895C169.86 253.895 165.687 306.329 172.945 317.461Z" fill="white"/>
<path d="M89.2778 243.809C86.89 246.882 82.8118 251.115 77.8182 250.186L63.0806 221.388C63.0806 221.388 66.8727 219.711 70.1066 220.95C73.3464 222.193 87.5922 237.059 87.5922 237.059L89.2778 243.809Z" fill="white"/>
<path fill-rule="evenodd" clip-rule="evenodd" d="M80.7397 250.722C74.5554 243.655 71.001 227.761 65.9082 222.292C64.1106 220.362 61.7788 219.928 64.2886 224.499C68.8808 232.86 77.7066 250.722 77.7066 250.722C78.1736 250.956 78.7511 250.722 79.2734 250.722H80.7397Z" fill="white"/>
<path d="M182.662 226.648C177.014 228.134 174.116 231.672 171.669 234.966C169.216 238.261 174.608 236.693 177.582 235.504C180.557 234.315 186.248 229.802 186.248 229.802L182.662 226.648Z" fill="white"/>
<path d="M234.102 213.27C234.102 213.27 202.312 226.927 197.832 226.945C193.357 226.963 182.375 232.296 181.781 236.458C181.059 241.521 200.213 234.08 200.213 234.08C200.213 234.08 243.022 234.08 250.154 226.945C257.29 219.81 252.534 204.946 252.534 204.946L234.102 213.27Z" fill="white"/>
<path d="M241.834 149.653C241.834 149.653 234.102 154.409 232.915 169.868C231.727 185.326 236.483 203.758 236.483 203.758C236.483 203.758 233.509 206.136 232.915 208.514C232.321 210.892 234.128 214.031 234.128 214.031C234.128 214.031 251.939 222.783 253.129 223.378C254.318 223.972 259.074 222.189 259.074 217.432C259.074 212.676 257.29 208.514 257.29 208.514C256.437 177.136 261.452 146.68 241.834 149.653Z" fill="white"/>
<path fill-rule="evenodd" clip-rule="evenodd" d="M210.341 116.759C208.512 114.31 204.647 113.513 203.615 117.379C203.615 117.379 202.823 119.711 204.42 121.152C209.313 125.568 212.169 119.208 210.341 116.759Z" fill="white"/>
<path fill-rule="evenodd" clip-rule="evenodd" d="M200.129 119.416C198.391 117.089 194.719 116.332 193.739 120.005C193.739 120.005 192.987 122.221 194.504 123.59C199.153 127.784 201.866 121.742 200.129 119.416Z" fill="white"/>
<path d="M214.354 149.193C214.354 149.193 214.354 177.773 213.934 193.744C213.515 209.715 217.175 225.451 224.169 237.757C231.163 250.063 230.211 267.667 235.367 268.976C276.145 279.326 265.166 152.664 250.078 144.57C234.99 136.476 230.006 134.762 230.006 134.762" fill="white"/>
<path fill-rule="evenodd" clip-rule="evenodd" d="M78.6099 248.354C78.9959 249.107 79.629 249.422 80.4733 249.469C83.4793 249.636 85.8628 248.31 87.9893 246.377C88.7954 245.645 89.5102 244.812 90.318 244.081C90.8864 243.567 91.4955 243.233 92.3823 243.551C93.0614 243.794 93.8582 243.702 94.6008 243.778C96.2753 243.949 97.9456 244.172 99.6234 244.294C100.693 244.372 100.719 245.284 100.97 245.914C101.538 247.338 101.963 248.82 102.414 250.289C102.59 250.859 102.868 251.084 103.509 251.077C106.707 251.037 109.906 251.041 113.104 251.067C114.561 251.078 116.019 251.253 117.473 251.22C120.209 251.158 122.948 251.07 125.676 250.861C128.315 250.658 130.94 250.278 133.573 249.997C135.422 249.799 137.283 249.695 139.125 249.445C141.267 249.154 143.391 248.73 145.528 248.402C146.597 248.238 147.684 248.189 148.755 248.032C150.591 247.762 152.426 247.481 154.25 247.141C155.942 246.826 157.535 247.153 159.128 247.679C162.229 248.702 165.338 249.703 168.449 250.698C169.003 250.875 169.167 251.02 168.917 251.692C168 254.158 167.142 256.65 166.396 259.172C165.869 260.952 165.505 262.786 165.167 264.614C164.753 266.853 164.407 269.108 164.099 271.365C163.863 273.089 163.713 274.826 163.559 276.56C163.362 278.764 163.176 280.97 163.027 283.178C162.88 285.376 162.755 287.578 162.672 289.78C162.53 293.519 162.424 297.259 162.312 301C162.244 303.265 162.201 305.53 162.127 307.795C162.105 308.452 161.894 309.127 161.994 309.758C162.07 310.234 162.408 310.899 162.796 311.049C163.795 311.434 164.084 312.178 164.076 313.202C164.064 314.51 163.9 315.819 163.934 317.124C163.956 317.956 163.638 318.536 163.033 318.977C160.285 320.982 157.51 322.949 154.764 324.955C153.46 325.908 152.174 326.888 150.925 327.909C149.587 329.004 148.275 330.134 147 331.3C145.729 332.463 145.053 333.884 144.838 335.657C144.672 337.031 144.848 338.308 145.077 339.616C145.197 340.296 145.585 340.575 146.294 340.344C149.268 339.373 152.238 338.384 155.227 337.459C160.164 335.931 165.115 334.447 170.061 332.946C171.823 332.411 173.586 331.876 175.351 331.348C176.432 331.024 176.661 330.055 176.861 329.177C177.432 326.681 176.695 324.41 175.379 322.317C174.573 321.036 173.634 319.839 172.753 318.605C172.034 317.598 172.22 316.566 172.576 315.476C173.735 311.928 174.875 308.372 175.971 304.804C177.053 301.281 178.125 297.754 179.105 294.202C180.141 290.449 181.082 286.668 182.029 282.89C182.541 280.846 183.025 278.792 183.44 276.727C183.75 275.182 183.926 273.61 184.17 272.052C184.461 270.191 184.636 268.298 185.115 266.485C185.322 265.705 186.079 264.992 186.739 264.426C188.176 263.195 189.827 262.278 191.621 261.652C192.064 261.497 192.544 261.39 193.012 261.372C195.237 261.288 197.465 261.266 199.69 261.177C201.863 261.089 204.036 260.968 206.206 260.822C208.444 260.672 210.681 260.491 212.916 260.29C215.307 260.075 217.707 259.905 220.082 259.562C222.599 259.199 225.093 258.67 227.591 258.182C228.403 258.023 228.996 258.516 229.122 259.661C229.398 262.165 230.249 264.492 231.259 266.771C231.988 268.414 233.363 269.236 235.06 269.516C236.271 269.716 237.511 269.907 238.729 269.861C242.196 269.73 245.288 268.586 248.039 266.387C251.527 263.598 253.568 259.872 255.305 255.899C256.084 254.119 257.086 252.42 257.698 250.588C258.361 248.597 258.697 246.497 259.16 244.441C259.519 242.84 259.886 241.24 260.189 239.629C260.428 238.355 260.579 237.063 260.761 235.778C261.002 234.071 261.24 232.364 261.47 230.655C261.546 230.09 261.621 229.522 261.645 228.953C261.719 227.172 261.756 225.39 261.831 223.609C261.937 221.112 262.135 218.617 262.168 216.119C262.224 211.847 262.219 207.573 262.167 203.3C262.145 201.424 261.986 199.546 261.818 197.676C261.626 195.549 261.335 193.432 261.124 191.308C260.972 189.791 260.925 188.263 260.751 186.75C260.496 184.529 260.216 182.309 259.861 180.103C259.439 177.478 258.956 174.863 258.445 172.254C257.479 167.317 256.354 162.41 254.514 157.719C253.341 154.731 252.118 151.682 249.724 149.426C248.688 148.449 247.248 147.887 245.961 147.194C242.428 145.291 238.876 143.423 235.341 141.523C235.176 141.435 235.034 141.176 235.007 140.98C234.913 140.299 234.955 139.589 234.788 138.931C234.679 138.502 234.378 138.031 234.022 137.772C232.83 136.902 231.58 136.109 230.337 135.312C230.114 135.169 229.799 135.044 229.555 135.084C228.244 135.295 227.586 134.489 227.137 133.496C226.528 132.152 225.973 130.777 225.501 129.379C224.719 127.065 223.93 124.744 223.339 122.378C223.135 121.561 223.449 120.588 223.633 119.708C224.008 117.918 224.319 116.096 224.923 114.381C225.309 113.284 226.091 112.289 226.838 111.364C228.768 108.971 229.782 106.291 229.458 103.22C229.317 101.887 228.745 100.645 227.747 99.6758C226.574 98.5358 225.37 97.4263 224.193 96.29C223.335 95.4616 223.396 94.8283 224.514 94.0186C226.078 92.8852 227.578 91.6607 229.074 90.4372C230.352 89.3923 230.902 87.8994 231.24 86.3691C231.701 84.287 231.756 82.1866 230.907 80.1545C229.549 76.9044 227.592 74.2222 224.009 73.2109C220.851 72.3197 217.702 72.38 214.868 74.1699C212.293 75.7963 210.658 78.2187 209.938 81.2086C209.094 84.7173 210.055 87.8748 211.828 90.8781C211.977 91.1297 211.992 91.4599 212.069 91.7536C211.805 91.8034 211.543 91.886 211.278 91.8981C207.867 92.0535 204.477 92.4321 201.423 94.0577C197.414 96.1914 194.892 99.5731 193.78 103.975C193.613 104.633 193.615 105.342 193.593 106.029C193.519 108.372 193.512 110.719 193.374 113.058C193.345 113.546 192.971 114.145 192.572 114.458C190.655 115.959 190.003 119.636 191.786 121.812C191.964 122.03 192.116 122.269 192.291 122.49C192.976 123.352 193.969 123.77 194.958 123.594C195.8 123.444 195.872 123.728 196.15 124.35C196.743 125.676 197.455 126.96 198.222 128.197C199.249 129.855 200.299 131.511 201.487 133.054C202.205 133.986 203.174 134.736 204.083 135.506C205.185 136.439 206.351 137.298 207.474 138.208C208.034 138.662 208.648 138.897 209.363 138.793C210.105 138.686 210.522 139.104 210.74 139.704C211.159 140.865 211.538 142.042 211.869 143.231C211.939 143.481 211.791 143.846 211.64 144.095C210.316 146.274 209.002 148.459 207.619 150.6C206.496 152.338 205.22 153.978 204.134 155.737C203.462 156.824 203.017 158.052 202.473 159.218C201.524 161.253 200.555 163.278 199.648 165.331C199.461 165.754 199.41 166.295 199.475 166.756C199.57 167.427 200.232 167.642 200.95 167.208C201.784 166.705 202.569 166.116 203.35 165.531C203.833 165.168 204.268 164.741 204.727 164.345C204.78 164.3 204.852 164.275 204.914 164.241C204.924 164.321 204.952 164.403 204.941 164.481C204.813 165.384 204.71 166.292 204.537 167.187C204.359 168.111 204.087 169.017 203.9 169.939C203.527 171.772 203.166 173.608 202.833 175.448C202.457 177.517 202.096 179.59 201.77 181.667C201.603 182.736 201.546 183.821 201.402 184.893C201.183 186.514 200.909 188.128 200.705 189.751C200.593 190.638 200.569 191.536 200.52 192.43C200.453 193.648 200.408 194.868 200.338 196.086C200.166 199.091 199.992 202.097 199.802 205.101C199.755 205.846 199.317 206.419 198.647 206.632C196.739 207.238 195.405 209.465 195.726 211.325C195.801 211.757 195.897 212.204 196.087 212.594C196.543 213.529 195.948 214.06 195.356 214.546C194.395 215.336 193.394 216.078 192.39 216.814C190.007 218.56 187.607 220.284 185.224 222.031C183.065 223.613 180.683 224.713 178.127 225.492C176.075 226.119 174.33 227.305 172.689 228.673C171.883 229.345 171.186 230.339 169.909 230.094C168.103 229.746 166.302 229.37 164.5 228.998C163.957 228.886 163.423 228.723 162.878 228.629C160.977 228.301 159.854 226.956 158.735 225.565C157.903 224.53 156.974 223.572 156.108 222.563C154.404 220.578 152.718 218.578 151.015 216.592C150.168 215.605 149.297 214.639 148.442 213.66C146.032 210.899 143.636 208.125 141.211 205.377C139.94 203.937 138.617 202.543 137.323 201.122C136.975 200.74 136.603 200.367 136.327 199.935C135.909 199.278 135.481 199.076 134.663 199.341C132.875 199.92 132.907 199.809 134.157 201.181C136.397 203.638 138.562 206.162 140.767 208.651C141.845 209.867 142.959 211.052 144.029 212.276C145.905 214.424 147.754 216.597 149.626 218.748C150.955 220.275 152.301 221.788 153.646 223.301C154.687 224.471 155.742 225.629 156.78 226.803C156.87 226.905 156.942 227.189 156.91 227.209C156.656 227.368 156.371 227.603 156.104 227.593C153.93 227.508 151.76 227.341 149.586 227.267C147.959 227.212 146.327 227.211 144.7 227.268C142.615 227.34 140.527 227.429 138.451 227.629C136.138 227.85 133.838 228.207 131.532 228.499C129.167 228.799 126.795 229.046 124.439 229.401C122.084 229.756 119.749 230.235 117.399 230.626C115.453 230.949 113.493 231.19 111.55 231.528C109.072 231.959 106.606 232.461 104.131 232.915C102.394 233.234 100.649 233.513 98.9122 233.832C97.237 234.14 95.5708 234.497 93.8939 234.795C92.8371 234.982 91.7709 235.172 90.703 235.216C90.2552 235.234 89.685 234.991 89.3529 234.675C86.8124 232.258 84.3503 229.759 81.7987 227.355C78.9432 224.664 75.9569 222.124 72.7371 219.865C71.2639 218.832 69.6139 219.012 68.009 219.152C67.0733 219.233 66.1689 219.683 65.2525 219.975C64.5005 220.214 64.4336 220.678 64.768 221.334C66.2871 224.316 67.7792 227.311 69.299 230.292C70.6125 232.869 71.9501 235.433 73.3215 238.047C75.1134 241.513 76.8589 244.934 78.6099 248.354ZM219.197 226.367C218.399 224.057 217.698 221.709 217.068 219.348C216.659 217.814 216.427 216.23 216.164 214.66C215.894 213.047 215.668 211.426 215.449 209.805C215.196 207.923 214.801 206.039 214.771 204.151C214.709 200.359 214.866 196.564 214.908 192.771C214.933 190.452 214.947 188.133 214.901 185.815C214.866 183.992 215.927 182.633 216.7 181.138C217.215 180.142 217.758 179.138 218.086 178.075C218.69 176.126 219.18 174.138 219.647 172.15C219.967 170.791 220.202 169.409 220.412 168.028C220.656 166.429 221.181 164.928 221.863 163.478C221.921 163.356 222.4 163.267 222.452 163.336C222.726 163.704 222.931 164.125 223.153 164.532C223.549 165.256 224.149 165.945 224.287 166.716C224.561 168.256 225.271 169.578 225.996 170.9C226.448 171.723 227.209 171.744 227.737 170.989C228.305 170.178 228.918 169.358 229.281 168.45C230.133 166.316 230.896 164.142 231.605 161.955C232.538 159.081 233.417 156.189 234.254 153.286C234.691 151.77 235.126 150.23 235.31 148.672C235.49 147.144 235.347 145.578 235.352 144.029C235.353 143.89 235.395 143.752 235.418 143.613C235.481 143.663 235.538 143.722 235.607 143.76C237.231 144.653 238.844 145.565 240.483 146.429C242.109 147.286 243.743 148.132 245.406 148.912C247.229 149.766 249.058 150.648 250.114 152.438C251.256 154.375 252.591 156.221 253.279 158.404C253.989 160.655 254.791 162.88 255.409 165.155C256.04 167.483 256.47 169.864 257.039 172.21C257.403 173.708 258.002 175.161 258.241 176.674C258.604 178.983 258.829 181.322 258.96 183.657C259.072 185.661 259.063 187.67 259.334 189.666C259.544 191.216 259.686 192.775 259.875 194.328C260.163 196.692 260.681 199.052 260.718 201.419C260.8 206.661 260.584 211.906 260.608 217.149C260.621 219.897 260.211 222.584 259.888 225.292C259.528 228.299 259.316 231.323 258.973 234.333C258.74 236.378 258.506 238.435 258.07 240.442C257.36 243.71 256.597 246.976 255.649 250.181C254.466 254.181 252.729 257.948 250.283 261.365C248.754 263.501 246.889 265.25 244.585 266.507C241.463 268.212 238.114 268.064 234.759 267.544C234.209 267.458 233.497 267.035 233.261 266.567C232.601 265.253 232.024 263.867 231.648 262.448C231.113 260.432 230.877 258.337 230.353 256.317C229.489 252.987 228.401 249.713 227.587 246.372C226.916 243.62 225.638 241.136 224.527 238.578C223.71 236.695 222.743 234.876 221.754 232.941C220.895 230.752 219.965 228.587 219.197 226.367ZM189.723 260.362C188.107 261.35 186.523 262.397 184.986 263.503C184.025 264.193 183.336 265.196 183.125 266.356C182.638 269.042 182.315 271.758 181.844 274.447C181.513 276.335 181.038 278.197 180.645 280.074C180.325 281.601 180.03 283.134 179.726 284.666C179.428 286.171 179.138 287.677 178.836 289.181C178.606 290.327 178.368 291.472 178.125 292.616C177.733 294.466 177.421 296.338 176.914 298.156C176.415 299.946 175.665 301.666 175.117 303.445C174.205 306.405 173.074 309.271 171.764 312.077C171.453 312.742 170.93 312.608 170.621 312.487C168.66 311.719 166.726 310.882 164.805 310.019C164.198 309.747 163.876 309.219 163.904 308.499C163.98 306.541 164.032 304.582 164.086 302.623C164.15 300.28 164.205 297.937 164.265 295.594C164.324 293.3 164.337 291.003 164.456 288.712C164.572 286.474 164.792 284.241 164.977 282.006C165.208 279.223 165.423 276.438 165.696 273.658C165.885 271.739 166.057 269.809 166.42 267.918C167.049 264.645 167.821 261.4 168.53 258.142C169.356 254.345 170.951 251.037 174.106 248.553C176.509 246.66 179.03 244.971 181.755 243.62C184.771 242.127 187.819 240.673 190.949 239.445C194.527 238.042 198.002 236.269 201.941 235.946C203.833 235.791 205.711 235.459 207.6 235.258C209.116 235.097 210.644 235.051 212.159 234.885C214.557 234.623 216.946 234.274 219.346 234.039C219.683 234.006 220.189 234.322 220.396 234.626C220.87 235.326 221.227 236.109 221.598 236.875C222.754 239.266 224.109 241.589 224.989 244.08C226.152 247.37 226.941 250.793 227.884 254.161C228.418 256.069 228.43 256.154 226.766 256.503C224.841 256.906 222.886 257.174 220.936 257.442C219.66 257.618 218.368 257.667 217.088 257.814C214.662 258.092 212.242 258.426 209.815 258.688C208.27 258.854 206.717 258.955 205.166 259.047C202.847 259.185 200.527 259.313 198.206 259.398C196.816 259.448 195.423 259.407 193.854 259.407C192.396 259.38 190.973 259.598 189.723 260.362ZM120.075 249.28C118.58 249.35 117.084 249.424 115.588 249.455C112.119 249.529 108.65 249.588 105.18 249.63C104.488 249.638 103.864 249.351 103.677 248.638C102.672 244.801 100.695 241.243 100.441 237.182C100.377 236.153 100.823 235.426 101.875 235.242C102.971 235.05 104.054 234.781 105.147 234.572C106.523 234.31 107.904 234.08 109.281 233.827C110.518 233.6 111.753 233.364 112.987 233.125C113.891 232.95 114.791 232.758 115.695 232.587C117.426 232.26 119.158 231.939 120.891 231.622C122.076 231.405 123.259 231.182 124.448 230.992C125.37 230.844 126.301 230.75 127.226 230.616C129.178 230.331 131.13 230.035 133.081 229.743C134.196 229.576 135.309 229.393 136.426 229.242C137.915 229.041 139.409 228.701 140.9 228.71C144.641 228.731 148.383 228.895 152.122 229.041C153.911 229.111 155.703 229.21 157.48 229.411C158.475 229.523 159.432 229.838 160.153 230.676C161.329 232.042 162.591 233.332 163.778 234.688C164.528 235.544 165.23 236.444 165.916 237.353C166.822 238.555 167.928 239.286 169.509 239.164C172.099 238.963 174.692 238.816 177.282 238.617C178.243 238.544 179.199 238.4 180.155 238.267C181.775 238.04 183.391 237.777 185.013 237.564C186.565 237.361 188.121 237.193 189.678 237.033C190.117 236.988 190.566 237.013 191.009 237.037C191.097 237.042 191.177 237.193 191.261 237.276C191.17 237.318 191.078 237.356 190.99 237.402C190.211 237.809 189.452 238.262 188.65 238.616C186.298 239.655 183.873 240.543 181.58 241.696C178.25 243.371 175.143 245.415 172.319 247.873C171.443 248.636 170.602 249.202 169.165 249.01C166.889 248.708 164.761 248.146 162.717 247.152C159.967 245.814 157.169 244.716 154.007 245.372C152.178 245.751 150.338 246.083 148.511 246.475C147.354 246.723 146.225 247.132 145.059 247.305C143.612 247.52 142.14 247.558 140.68 247.685C138.024 247.917 135.369 248.162 132.713 248.393C130.91 248.549 129.105 248.69 127.212 248.927C124.833 249.045 122.454 249.169 120.075 249.28ZM212.61 197.963C212.584 198.673 212.612 199.384 212.6 200.094C212.545 203.415 212.493 206.735 212.419 210.055C212.397 211.018 212.439 212.012 212.219 212.936C211.772 214.806 211.186 216.645 210.615 218.484C210.37 219.271 210.03 220.021 209.14 220.333C208.366 220.604 207.616 220.945 206.84 221.211C205.689 221.606 205.336 221.457 204.585 220.404C204.336 220.055 204.05 219.733 203.771 219.408C201.972 217.31 200.119 215.256 198.386 213.105C197.108 211.518 197.33 208.963 199.471 208.143C199.701 208.055 199.929 207.949 200.168 207.9C201.434 207.637 201.375 207.641 201.417 206.445C201.567 202.174 201.066 197.891 201.737 193.624C202.005 191.92 201.895 190.159 202.141 188.45C202.524 185.792 203.055 183.154 203.542 180.511C204.002 178.011 204.464 175.511 204.968 173.02C205.345 171.161 205.797 169.318 206.202 167.464C206.511 166.051 206.754 164.621 207.128 163.225C207.229 162.848 207.697 162.568 207.996 162.244C208.347 162.583 208.961 162.891 209.004 163.265C209.218 165.158 209.51 167.089 209.344 168.968C209.153 171.126 208.829 173.266 209.241 175.41C209.711 177.851 210.492 180.196 211.815 182.333C212.549 183.517 213.096 184.746 212.972 186.212C212.848 187.662 212.808 189.121 212.787 190.577C212.758 192.649 212.78 194.721 212.78 196.971C212.721 197.301 212.623 197.631 212.61 197.963ZM221.928 124.591C222.077 124.822 222.285 125.035 222.367 125.288C223.211 127.871 223.982 130.479 224.884 133.04C225.427 134.584 226.28 135.961 227.691 136.931C228.715 137.636 229.671 138.44 230.673 139.178C231.168 139.541 231.063 139.856 230.755 140.298C229.832 141.62 228.857 142.92 228.087 144.33C227.024 146.275 226.114 148.305 225.168 150.312C224.247 152.268 223.284 154.211 222.486 156.217C221.808 157.922 221.443 159.752 220.746 161.447C220.115 162.98 219.439 164.49 219.21 166.131C219.133 166.689 218.952 166.694 218.529 166.692C215.988 166.683 213.534 166.347 211.391 164.835C211.208 164.705 211.053 164.439 211.018 164.216C210.934 163.676 210.948 163.122 210.885 162.578C210.84 162.194 210.59 161.779 210.68 161.445C211.014 160.201 211.458 158.987 211.846 157.757C212.588 155.409 213.561 153.085 213.627 150.606C213.695 148.085 213.468 145.552 213.295 143.029C213.225 142 213.023 140.968 212.763 139.967C212.458 138.794 212.53 138.473 213.589 137.901C215.332 136.959 216.834 135.692 217.908 134.059C219.661 131.393 221.007 128.525 221.488 125.208C221.634 125.003 221.781 124.797 221.928 124.591ZM196.649 123.804C196.601 123.708 196.17 123.409 196.811 123.301C197.459 123.192 198.19 122.878 198.635 122.414C199.507 121.504 200.229 120.444 200.963 119.41C201.17 119.118 201.244 118.94 201.535 119.291C201.72 119.514 201.961 119.69 202.146 119.913C203.749 121.85 206.054 122.672 208.213 122.134C210.801 121.489 212.379 118.73 212.414 116.336C212.428 115.381 212.73 114.582 213.492 114.033C214.761 113.119 216.065 112.255 217.369 111.392C218.099 110.909 218.794 111.067 218.983 111.829C219.449 113.716 220.03 115.607 220.193 117.528C220.394 119.904 220.298 122.304 219.731 124.675C218.775 128.67 217.534 132.467 214.273 135.283C212.171 137.098 209.575 137.506 207.072 136.408C204.591 135.319 203.067 133.305 201.585 131.209C200.338 129.447 199.096 127.682 197.763 125.83C197.387 125.158 196.996 124.492 196.649 123.804ZM89.2255 242.466C87.5022 244.659 85.4977 246.49 82.7544 247.375C81.0603 247.922 80.44 247.826 79.5021 246.038C77.5892 242.392 75.6988 238.734 73.8137 235.074C73.0608 233.612 72.3647 232.12 71.6104 230.659C70.1372 227.804 68.6447 224.959 67.1515 222.115C66.879 221.596 67.138 221.126 67.5395 221.073C68.9327 220.887 70.4039 220.489 71.6977 221.349C73.4037 222.484 75.1213 223.626 76.6909 224.936C79.0717 226.924 81.3651 229.02 83.6232 231.147C84.6475 232.112 85.5126 233.249 86.423 234.331C87.1424 235.185 88.0658 235.905 88.3394 237.072C88.5924 238.152 88.8421 239.232 89.0933 240.49C89.3886 241.134 89.7186 241.838 89.2255 242.466ZM147.918 337.8C147.512 337.832 146.729 337.648 146.726 337.538C146.673 336.009 146.384 334.389 147.756 333.195C149.539 331.644 151.267 330.021 153.127 328.566C156.128 326.22 159.217 323.986 162.27 321.707C163.361 320.893 164.446 320.029 165.835 319.816C167.078 319.626 168.345 319.601 169.592 319.434C170.644 319.294 171.36 319.75 171.999 320.507C173.549 322.344 174.676 324.386 175.102 326.771C175.436 328.64 174.834 329.669 173.325 330.113C170.453 330.959 167.6 331.874 164.733 332.739C162.678 333.359 160.605 333.917 158.554 334.55C155.564 335.474 152.587 336.439 149.426 337.386C148.924 337.533 148.428 337.76 147.918 337.8ZM208.249 222.634C210.232 221.848 212.205 221.033 214.193 220.26C214.781 220.032 215.281 219.964 215.475 220.869C215.685 221.851 216.133 222.782 216.457 223.741C217.177 225.871 217.899 228 218.58 230.142C218.706 230.538 218.897 231.094 218.115 231.169C217.097 231.267 216.084 231.437 215.064 231.512C213.072 231.656 211.078 231.799 209.082 231.865C206.117 231.963 203.15 231.998 200.184 232.05C199.237 232.066 198.289 232.049 197.341 232.054C197.111 232.056 196.867 232.039 196.652 232.106C194.084 232.909 191.525 233.74 188.955 234.535C186.369 235.334 183.779 236.12 181.017 235.966C180.058 235.912 179.882 235.732 180.235 234.85C180.427 234.368 180.694 233.878 181.049 233.506C182.779 231.693 184.891 230.427 187.151 229.387C188.952 228.557 190.712 227.632 192.737 227.424C193.685 227.326 194.64 227.19 195.561 226.952C197.023 226.573 198.474 226.135 199.904 225.647C201.692 225.039 203.454 224.355 205.405 223.704C206.353 223.348 207.307 223.006 208.249 222.634ZM230.559 144.219C231.391 142.931 232.266 141.67 233.125 140.4C233.245 140.223 233.375 140.053 233.501 139.881C233.584 140.172 233.701 140.458 233.744 140.754C233.886 141.735 233.966 142.726 234.134 143.702C234.468 145.634 234.649 147.531 233.397 149.248C233.318 149.357 233.255 149.487 233.22 149.617C232.759 151.291 232.307 152.966 231.848 154.64C231.732 155.064 231.611 155.487 231.471 155.904C230.872 157.696 230.147 159.457 229.696 161.286C229.232 163.164 228.877 165.052 227.914 166.767C227.638 167.26 227.548 167.855 227.344 168.393C227.283 168.553 227.082 168.811 227.019 168.791C226.815 168.728 226.547 168.593 226.479 168.418C225.684 166.377 225.301 164.147 223.793 162.433C222.512 160.977 222.778 159.49 223.564 157.935C223.871 157.328 224.061 156.663 224.335 156.037C224.927 154.685 225.495 153.319 226.158 152.002C226.737 150.851 227.439 149.761 228.077 148.639C228.525 147.85 228.957 147.052 229.485 146.169C229.84 145.517 230.158 144.841 230.559 144.219ZM182.558 225.741C185.154 224.065 187.785 222.436 190.3 220.645C192.405 219.145 194.357 217.43 196.403 215.845C196.956 215.417 197.589 215.275 198.154 215.92C199.068 216.965 200 217.994 200.913 219.04C201.593 219.819 202.246 220.622 202.927 221.4C203.46 222.008 203.404 222.334 202.624 222.567C200.12 223.316 197.598 224.005 195.102 224.778C191.694 225.833 188.29 226.904 184.912 228.053C183.832 228.42 182.88 229.163 181.8 229.535C180.704 229.914 179.533 230.111 178.378 230.272C177.044 230.458 175.693 230.532 174.347 230.616C174.132 230.629 173.905 230.437 173.684 230.34C173.815 230.158 173.914 229.937 174.082 229.799C176.216 228.053 178.764 227.152 181.414 226.191C181.798 226.044 182.221 225.959 182.558 225.741ZM216.35 178.955C216.02 180.206 215.236 180.815 214.029 180.928C212.987 181.026 212.681 180.454 212.427 179.693C212.063 178.602 211.702 177.51 211.361 176.412C210.602 173.973 210.71 171.515 211.165 169.036C211.313 168.228 211.278 167.385 211.315 166.558C211.32 166.438 211.259 166.314 211.229 166.193C211.351 166.228 211.477 166.253 211.594 166.301C212.325 166.604 213.03 167.023 213.791 167.194C215.216 167.514 216.669 167.726 218.119 167.911C218.679 167.983 219.011 168.041 218.833 168.726C218.665 169.374 218.598 170.046 218.464 170.703C218.176 172.119 217.874 173.531 217.578 175.122C217.163 176.398 216.692 177.659 216.35 178.955ZM201.164 165.592C201.026 165.709 200.872 165.808 200.726 165.916C200.726 165.717 200.672 165.498 200.737 165.324C201.122 164.301 201.481 163.262 201.951 162.278C202.953 160.176 203.874 158.015 205.098 156.045C206.3 154.109 207.92 152.435 209.197 150.539C210.113 149.181 210.76 147.643 211.542 146.193C211.662 145.971 211.861 145.79 212.023 145.59C212.097 145.825 212.241 146.062 212.236 146.295C212.198 147.809 212.179 149.327 212.052 150.835C211.965 151.864 211.792 152.9 211.515 153.893C211.208 154.996 210.652 156.031 210.365 157.138C210.029 158.433 209.414 159.252 208.16 159.943C206.081 161.09 203.935 162.282 202.473 164.465C202.037 164.841 201.603 165.22 201.164 165.592ZM210.42 115.4C211.102 116.394 209.837 119.875 209.149 120.134C204.333 121.947 202.96 118.845 202.897 117.993C202.772 116.303 202.563 114.589 204.161 113.219C208.376 112.38 209.317 113.795 210.42 115.4ZM191.98 116.808C192.627 115.195 193.606 114.143 195.312 114.511C196.182 114.699 196.949 115.389 197.75 115.873C199.469 116.914 199.694 117.483 199.093 119.327C198.492 121.173 197.088 122.23 195.303 122.589C193.825 122.886 192.769 121.969 191.988 120.59C191.791 119.33 191.467 118.084 191.98 116.808ZM198.357 114.723C197.663 114.229 196.91 113.498 196.161 113.471C194.865 113.424 195.076 112.633 195.216 112.009C195.606 110.268 196.116 108.552 196.614 106.837C196.955 105.662 197.244 105.595 198.071 106.422C199.488 107.839 200.924 109.228 202.704 110.207C203.261 110.513 203.338 111.218 202.94 111.773C202.791 111.979 202.59 112.157 202.479 112.38C201.932 113.481 201.435 114.608 200.851 115.688C200.722 115.927 200.82 116.771 199.985 116.149C199.445 115.669 198.942 115.139 198.357 114.723ZM93.7795 242.147C92.5704 241.922 91.2751 241.612 91.0883 240.004C91.0569 239.734 90.9338 239.476 90.8723 239.208C90.4911 237.545 90.9229 237.012 92.5876 236.834C94.1548 236.665 95.7105 236.385 97.268 236.134C98.1011 235.999 98.2549 236.155 98.3469 237.003C98.4744 238.178 98.6575 239.349 98.8771 240.511C99.0694 241.528 98.7847 242.333 97.89 242.532C96.5179 242.414 95.127 242.397 93.7795 242.147ZM166.349 317.821C166.18 317.813 165.892 317.478 165.886 317.286C165.844 316.016 165.875 314.743 165.86 313.471C165.852 312.757 166.4 312.733 166.793 312.858C167.649 313.131 168.462 313.537 169.288 313.901C169.885 314.163 170.555 314.376 170.483 315.236C170.432 315.843 170.432 316.465 170.292 317.053C170.06 318.028 169.218 317.564 168.53 317.758C167.803 317.788 167.073 317.853 166.349 317.821ZM213.682 214.492C213.733 214.347 213.943 214.259 214.08 214.144C214.18 214.287 214.354 214.423 214.367 214.573C214.451 215.487 214.522 216.403 214.55 217.319C214.577 218.215 213.944 218.795 213.033 218.713C212.878 218.699 212.605 218.427 212.625 218.318C212.759 217.59 212.958 216.874 213.224 216.066C213.372 215.539 213.5 215.006 213.682 214.492ZM163.613 231.272C163.514 231.077 163.307 230.533 163.91 230.646C164.829 230.819 165.733 231.079 166.637 231.326C166.802 231.371 166.938 231.526 167.087 231.63C166.914 231.712 166.743 231.857 166.568 231.864C165.831 231.89 165.092 231.875 164.265 231.786C164.039 231.619 163.726 231.496 163.613 231.272ZM232.239 138.087C232.381 138.169 232.523 138.251 232.664 138.334C232.553 138.458 232.461 138.63 232.322 138.688C232.239 138.723 232.057 138.604 231.961 138.511C231.414 137.981 230.877 137.441 230.343 136.898C230.236 136.789 230.159 136.651 230.068 136.527C230.247 136.562 230.473 136.541 230.599 136.642C231.132 137.074 231.636 137.543 232.239 138.087Z" fill="#212941"/>
<path fill-rule="evenodd" clip-rule="evenodd" d="M213.196 127.739C214.029 127.289 214.853 126.92 215.025 125.917C215.362 123.968 214.659 121.672 212.12 121.805C209.829 121.926 208.376 123.828 209.187 125.976C209.784 127.56 211.234 128.345 213.196 127.739Z" fill="#FF9500"/>
<path fill-rule="evenodd" clip-rule="evenodd" d="M201.903 120.469C201.857 120.17 201.811 119.961 201.766 119.752C201.694 119.934 201.601 120.111 201.553 120.3C201.195 121.698 200.063 125.179 201.412 126.78C201.524 126.914 202.093 126.935 202.447 126.912C203.144 126.868 203.955 125.841 203.826 125.179C203.807 125.079 202.126 126.71 201.766 125.828C201.164 124.356 201.903 120.975 201.903 120.469Z" fill="#212941"/>
<path fill-rule="evenodd" clip-rule="evenodd" d="M211.383 130.669C211.453 130.633 211.55 130.643 211.634 130.646C211.841 130.655 212.124 130.284 212.003 130.127C211.822 129.891 211.616 129.653 211.37 129.497C211.223 129.405 210.981 129.705 210.999 129.838C211.013 129.937 210.919 130.092 210.827 130.159C209.436 131.181 207.891 131.844 206.201 132.162C206.089 132.183 205.992 132.283 205.888 132.346C205.992 132.418 206.095 132.558 206.199 132.552C208.043 132.444 210.175 131.282 211.383 130.669Z" fill="#212941"/>
</svg>
