<svg preserveAspectRatio="xMinYMin" width="530px" height="100%" viewBox="0 0 510 444" fill="none" xmlns:svg="http://www.w3.org/2000/svg" xmlns="http://www.w3.org/2000/svg" >
<path d="M323.25 122.687C322.711 122.17 321.99 121.885 321.243 121.896C320.496 121.906 319.784 122.211 319.26 122.744C318.736 123.276 318.443 123.994 318.445 124.741C318.447 125.488 318.744 126.204 319.27 126.734C319.783 127.248 320.472 127.548 321.198 127.574C321.924 127.599 322.633 127.348 323.18 126.871C323.461 126.601 323.685 126.279 323.841 125.923C323.996 125.566 324.079 125.182 324.086 124.793C324.092 124.405 324.022 124.018 323.878 123.657C323.735 123.295 323.521 122.966 323.25 122.687Z" fill="#3A5AB7"/>
<path d="M338.348 132.083C339.993 138.049 338.484 149.367 338.554 152.794C338.559 152.995 338.636 153.187 338.771 153.335C338.906 153.484 339.089 153.579 339.288 153.604C339.487 153.629 339.688 153.582 339.856 153.471C340.023 153.361 340.145 153.194 340.2 153.001C342.295 146.08 342.079 138.664 339.583 131.877C339.531 131.738 339.433 131.621 339.305 131.547C339.176 131.473 339.026 131.446 338.88 131.47C338.734 131.495 338.601 131.569 338.504 131.681C338.407 131.793 338.351 131.935 338.348 132.083Z" fill="#212941"/>
<path d="M343.414 142.782C355.17 148.359 368.054 151.151 381.065 150.942C381.41 150.942 381.742 150.805 381.986 150.561C382.23 150.317 382.367 149.985 382.367 149.64C382.367 149.295 382.23 148.963 381.986 148.719C381.742 148.475 381.41 148.338 381.065 148.338C368.467 147.541 355.998 145.332 343.893 141.753C343.277 141.546 342.859 142.514 343.414 142.782Z" fill="#212941"/>
<path d="M384.495 142.439C384.297 142.024 383.329 141.686 383.123 141.616C360.683 132.534 346.967 116.625 332.165 118.568C332.096 118.501 326.677 114.111 326.334 113.768C326.198 113.616 326.028 113.498 325.837 113.426C325.646 113.354 325.44 113.33 325.237 113.356C324.072 113.562 321.397 118.638 321.054 118.984C320.985 119.053 320.932 119.136 320.899 119.228C320.865 119.319 320.85 119.417 320.857 119.514C320.864 119.611 320.891 119.706 320.937 119.792C320.983 119.878 321.046 119.953 321.124 120.013C323.022 121.723 325.087 123.24 327.288 124.539C327.767 124.676 328.384 124.196 328.177 123.647C326.604 121.85 324.692 120.382 322.549 119.327C323.166 118.434 325.497 115.623 325.84 115.073C326.733 115.69 329.614 118.844 330.437 119.463C330.367 119.67 329.614 121.382 329.34 122.143C329.131 122.679 329.957 123.172 330.367 122.76C331.033 121.927 331.651 121.057 332.219 120.155C338.085 120.524 343.787 122.237 348.886 125.161C359.727 132.049 371.076 138.102 382.836 143.267C383.304 144.549 383.327 145.95 382.903 147.247C382.635 147.93 383.659 148.206 384.002 147.727C384.556 146.973 384.895 146.083 384.981 145.151C385.068 144.22 384.9 143.282 384.495 142.439Z" fill="#212941"/>
<path d="M386.485 142.919C391.041 140.842 392.797 145.526 394.169 145.936C396.018 146.555 395.745 144.427 395.332 144.224C393.55 143.195 389.704 137.706 385.799 142.029C385.32 142.439 385.872 143.208 386.485 142.919Z" fill="#212941"/>
<path d="M389.503 145.73C389.639 147.445 392.384 149.434 394.032 148.474C394.142 148.405 394.233 148.309 394.296 148.195C394.359 148.081 394.392 147.953 394.392 147.823C394.392 147.693 394.359 147.565 394.296 147.451C394.233 147.337 394.142 147.241 394.032 147.172C393.413 146.829 391.767 147.378 390.395 145.25C390.122 144.907 389.436 145.32 389.503 145.73Z" fill="#212941"/>
<path d="M388.465 148.817C388.659 149.34 388.959 149.818 389.344 150.222C389.73 150.625 390.194 150.946 390.707 151.164C391.221 151.382 391.774 151.494 392.332 151.491C392.89 151.488 393.442 151.372 393.953 151.149C394.017 151.075 394.065 150.988 394.092 150.894C394.12 150.8 394.128 150.701 394.115 150.604C394.102 150.507 394.069 150.413 394.017 150.33C393.966 150.247 393.898 150.175 393.817 150.12C393.131 149.71 391.279 150.388 389.7 148.131C389.604 147.977 389.453 147.866 389.277 147.821C389.102 147.775 388.915 147.799 388.757 147.887C388.598 147.975 388.479 148.121 388.425 148.294C388.371 148.467 388.385 148.654 388.465 148.817Z" fill="#212941"/>
<path d="M387.377 151.562C387.513 152.18 387.799 152.756 388.211 153.238C388.622 153.719 389.146 154.092 389.736 154.322C390.326 154.553 390.964 154.634 391.593 154.56C392.222 154.485 392.823 154.256 393.342 153.893C393.403 153.773 393.432 153.64 393.428 153.506C393.424 153.371 393.386 153.24 393.318 153.124C393.25 153.008 393.154 152.911 393.039 152.842C392.924 152.773 392.793 152.733 392.659 152.727C391.903 152.658 389.915 153.55 388.542 151.286C388.269 150.739 387.307 150.806 387.377 151.562Z" fill="#212941"/>
<path d="M393.344 136.953C394.757 129.047 395.536 120.972 396.499 113.015C397.664 103.552 407.127 39.5593 407.61 31.5434C407.677 30.5143 406.168 30.3776 405.895 31.337C403.357 39.1573 392.039 128.525 391.902 136.755C391.902 137.58 393.197 137.773 393.344 136.953Z" fill="#212941"/>
<path d="M389.638 157.254C387.623 170.086 379.009 228.858 379.146 235.443C379.16 235.707 379.267 235.956 379.447 236.149C379.627 236.342 379.869 236.465 380.131 236.497C380.393 236.529 380.658 236.468 380.879 236.324C381.1 236.18 381.264 235.963 381.341 235.711C383.123 229.676 389.845 170.692 391.147 157.455C391.286 156.568 389.78 156.362 389.638 157.254Z" fill="#212941"/>
<path d="M412.616 25.4302C412.479 28.8606 405.688 77.8992 405.139 77.9582C410.215 77.2801 508.911 70.8481 509.6 69.945C510.288 69.0418 415.154 26.3226 412.616 25.4302ZM432.644 47.8001C432.143 53.4332 431.936 59.0885 432.024 64.7431C432.024 65.1433 431.865 65.527 431.582 65.81C431.3 66.093 430.916 66.2519 430.516 66.2519C430.115 66.2519 429.732 66.093 429.449 65.81C429.166 65.527 429.007 65.1433 429.007 64.7431C428.836 60.166 428.974 55.5827 429.419 51.0242C428.03 52.0362 426.44 52.7381 424.756 53.0824C424.563 53.1329 424.359 53.1116 424.181 53.0227C424.002 52.9338 423.862 52.7831 423.787 52.5988C423.711 52.4144 423.705 52.2089 423.769 52.0204C423.834 51.8318 423.965 51.6731 424.137 51.5736C426.382 50.5293 428.373 49.0073 429.969 47.1141C430.722 46.0769 432.788 46.2136 432.644 47.8001Z" fill="#3A5AB7" class="svg-animation__flag"/>
<path d="M333.524 175.1C334.012 174.111 334.403 173.077 334.69 172.013C334.76 171.477 333.937 171.121 333.524 171.533C332.949 172.466 332.467 173.454 332.085 174.481C332.053 174.66 332.082 174.845 332.168 175.005C332.254 175.165 332.392 175.291 332.559 175.363C332.725 175.435 332.912 175.448 333.087 175.4C333.263 175.352 333.417 175.247 333.524 175.1Z" fill="#212941"/>
<path d="M502.12 442.366C495.461 425.442 408.843 267.198 403.7 259.035C399.927 253.069 395.263 246.691 388.336 244.083C378.596 240.449 368.584 247.857 360.011 251.697C252.125 300.323 22.3602 438.662 16.9439 442.092C16.3248 442.503 16.8742 443.465 17.4799 443.052C55.6136 421.242 205.064 336.605 242.305 317.127C257.12 313.562 271.798 309.24 286.544 305.262C282.703 320.214 278.933 335.166 275.02 350.118C274.967 350.341 274.978 350.575 275.053 350.793C275.128 351.01 275.263 351.202 275.442 351.346C275.621 351.489 275.838 351.579 276.066 351.605C276.295 351.63 276.526 351.59 276.732 351.49C302.084 338.853 329.033 329.716 356.843 324.331C359.861 332.355 362.948 340.378 365.955 348.472C366.368 349.501 368.083 350.048 368.635 348.815C372.783 339.265 377.739 330.086 383.45 321.38C393.602 327.349 403.707 333.339 413.766 339.349C413.959 339.463 414.176 339.53 414.399 339.546C414.623 339.561 414.846 339.524 415.053 339.437C415.259 339.35 415.443 339.216 415.588 339.046C415.734 338.876 415.838 338.674 415.891 338.457C417.743 333.794 419.528 329.13 421.377 324.398C426.317 327.415 431.256 330.562 436.399 333.242C436.699 333.415 437.055 333.462 437.39 333.372C437.724 333.282 438.009 333.063 438.182 332.763C438.355 332.463 438.402 332.107 438.312 331.772C438.223 331.438 438.004 331.153 437.704 330.98C432.422 327.413 426.796 324.258 421.377 320.967C421.18 320.853 420.959 320.786 420.731 320.771C420.504 320.755 420.275 320.791 420.064 320.877C419.853 320.963 419.664 321.096 419.511 321.266C419.359 321.435 419.248 321.638 419.185 321.857C417.333 326.523 415.548 331.253 413.696 335.919C403.684 330.023 393.669 324.052 383.656 318.153C383.319 317.964 382.921 317.916 382.549 318.019C382.177 318.122 381.86 318.367 381.668 318.703C376.196 326.835 371.423 335.417 367.402 344.356C364.521 337.085 361.64 329.884 358.759 322.613C358.667 322.301 358.46 322.035 358.18 321.87C357.9 321.704 357.568 321.651 357.25 321.72C329.718 327.046 303.012 335.995 277.828 348.333C281.463 333.593 285.236 318.909 288.94 304.164C288.993 303.992 288.999 303.809 288.956 303.634C288.913 303.459 288.823 303.299 288.696 303.172C288.569 303.045 288.409 302.955 288.234 302.912C288.059 302.869 287.876 302.874 287.704 302.928C274.948 306.495 262.054 309.786 249.364 313.49C288.94 292.573 372.478 244.287 385.24 245.659C389.563 246.763 393.384 249.302 396.075 252.86C401.494 259.102 435.445 321.927 440.864 331.116C450.806 348 498.886 439.345 500.531 443.049C500.885 443.944 502.471 443.256 502.12 442.366Z" fill="#3A5AB7"/>
<path d="M376.199 242.368C373.615 241.411 364.407 242.781 362.617 242.984C365.297 228.652 371.876 188.393 368.585 184.346C366.081 181.858 362.826 180.267 359.326 179.819C353.966 178.584 333.536 175.773 333.536 175.773L305.348 189.489C303.595 179.479 297.991 153.395 297.737 153.137C302.263 149.983 306.79 146.829 311.11 143.398C312.139 142.645 310.842 140.93 309.738 141.686C301.85 146.898 271.261 168.365 264.609 174.4C263.923 175.017 264.813 176.046 265.569 175.636C273.729 171.04 293.977 155.804 296.568 154.03C298.696 166.513 300.615 179.2 303.359 191.55C302.88 194.911 289.3 275.97 290.123 277.28C290.19 277.35 283.195 285.993 281.756 287.912C281.276 288.531 282.372 289.354 282.852 288.735C284.361 286.883 291.562 277.693 291.562 277.693C293.969 277.748 296.365 277.353 298.626 276.527C298.813 277.593 299.066 278.647 299.382 279.682C299.588 280.094 300.272 280.368 300.548 279.821C300.802 279.115 300.897 278.361 300.825 277.613C300.754 276.866 300.518 276.144 300.135 275.498C300.541 275.177 300.85 274.751 301.028 274.265C307.886 253.345 326.884 192.989 327.913 192.793C328.943 192.598 326.062 202.393 326.062 202.393C326.062 202.393 355.416 198.143 355.416 196.564C355.684 212.682 354.593 230.171 354.386 246.426C353.578 247.499 353.032 248.747 352.794 250.069C352.557 251.392 352.633 252.752 353.017 254.039C353.104 254.183 353.232 254.299 353.384 254.372C353.535 254.445 353.705 254.472 353.872 254.45C354.039 254.428 354.196 254.358 354.324 254.249C354.452 254.139 354.545 253.995 354.593 253.833C354.936 252.598 354.523 248.62 356.378 246.565C357.443 245.773 358.622 245.148 359.875 244.71C365.381 244.819 370.886 244.474 376.336 243.681C376.885 243.534 376.89 242.636 376.199 242.368Z" fill="#212941"/>
<path d="M307.954 98.8192C307.482 100.303 307.273 101.857 307.335 103.413C307.603 105.784 309.943 105.878 310.216 104.785C310.353 103.825 309.326 103.825 309.187 102.933C309.028 101.613 309.005 100.28 309.12 98.9558C309.187 98.3394 308.091 98.2001 307.954 98.8192Z" fill="#212941"/>
<path d="M311.932 99.4356C311.86 100.106 311.93 100.783 312.138 101.424C312.195 101.518 312.276 101.596 312.372 101.651C312.468 101.705 312.576 101.733 312.686 101.733C312.796 101.733 312.905 101.705 313.001 101.651C313.097 101.596 313.177 101.518 313.234 101.424C313.519 100.802 313.637 100.117 313.577 99.4356C313.577 99.2173 313.491 99.0081 313.336 98.8538C313.182 98.6995 312.973 98.6128 312.755 98.6128C312.536 98.6128 312.327 98.6995 312.173 98.8538C312.018 99.0081 311.932 99.2173 311.932 99.4356Z" fill="#212941"/>
<path d="M311.931 97.5838C313.44 97.5838 313.989 98.4762 314.469 98.4762C315.927 98.2672 315.418 95.6944 311.931 96.3483C311.315 96.3483 311.315 97.4471 311.931 97.5838Z" fill="#212941"/>
<path d="M324.072 87.7081C322.288 85.7196 321.465 84.4144 315.156 82.8386C308.778 81.4664 304.798 75.431 298.216 75.5677C287.721 75.8357 290.532 87.9145 298.626 94.1535C299.981 95.3887 301.567 96.3449 303.292 96.9675C303.162 99.2672 303.342 101.574 303.828 103.826C303.207 105.579 303.058 107.465 303.396 109.295C303.733 111.124 304.544 112.833 305.749 114.251C306.866 115.347 308.274 116.099 309.807 116.415C311.339 116.731 312.931 116.598 314.39 116.033C314.319 116.603 314.319 117.179 314.39 117.748C314.425 117.868 314.495 117.975 314.59 118.056C314.686 118.137 314.803 118.187 314.927 118.202C315.052 118.217 315.177 118.194 315.289 118.138C315.401 118.082 315.493 117.994 315.555 117.885C315.754 117.481 315.863 117.04 315.875 116.59C315.887 116.14 315.802 115.694 315.625 115.28C316.654 114.457 320.085 109.998 321.114 108.832C321.199 110.077 321.739 111.247 322.631 112.12C322.715 112.201 322.821 112.256 322.936 112.279C323.051 112.301 323.17 112.29 323.278 112.246C323.387 112.202 323.481 112.128 323.548 112.033C323.616 111.937 323.655 111.824 323.66 111.708C323.585 110.348 323.235 109.017 322.631 107.797C322.13 103.843 322.748 99.8271 324.415 96.2064C324.681 95.8017 325.855 89.6967 324.072 87.7081ZM311.795 112.388C311.677 112.374 311.567 112.321 311.483 112.237C311.398 112.154 311.344 112.045 311.328 111.927C311.312 111.809 311.336 111.689 311.396 111.586C311.456 111.484 311.548 111.404 311.659 111.359C313.202 111.003 314.55 110.071 315.429 108.754C315.636 108.411 316.322 108.821 316.252 109.234C316.105 111.37 313.647 112.434 311.795 112.388ZM319.34 102.373C318.31 103.882 314.743 107.449 312.208 107.586C310.897 107.749 309.567 107.533 308.375 106.963C307.183 106.393 306.18 105.493 305.484 104.37C305.347 101.958 305.28 99.5671 305.004 97.1685C308.952 97.3642 311.195 95.9545 316.116 92.9154C316.802 92.5026 317.008 93.9445 317.214 94.6306C317.418 95.3836 317.418 97.6482 318.241 97.9913C318.927 98.3343 319.066 97.0988 319.476 96.7558C320.548 95.8741 322.569 97.3481 321.888 100.117C321.465 101.7 320.848 102.74 319.34 102.384V102.373Z" fill="#212941"/>
<path d="M258.091 16.9265C253.757 14.6887 240.939 10.6848 232.51 18.2987C228.05 6.15826 215.157 -0.220139 202.467 0.610661C195.018 1.21362 187.966 4.22151 182.374 9.18105C176.783 14.1406 172.955 20.7831 171.468 28.1075C171.418 28.2834 171.404 28.4674 171.425 28.6489C171.447 28.8304 171.504 29.0059 171.594 29.1653C171.683 29.3247 171.803 29.4649 171.947 29.5779C172.091 29.6909 172.255 29.7745 172.431 29.824C172.607 29.8734 172.791 29.8878 172.972 29.8661C173.154 29.8444 173.329 29.7872 173.489 29.6978C173.648 29.6083 173.788 29.4883 173.901 29.3447C174.014 29.201 174.098 29.0365 174.148 28.8605C185.157 -5.44346 223.728 -1.15546 230.044 20.9733C230.312 22.0024 231.623 22.6188 232.376 21.9327C245.88 10.197 267.875 21.1287 266.602 36.2681C265.846 46.1439 255.421 47.2561 247.534 48.2718C239.373 49.2982 192.733 54.1678 150.416 48.4755C145.547 47.7894 140.128 47.6527 135.74 45.1844C126.754 40.1782 133.546 30.7821 139.581 26.6656C147.466 21.4361 156.807 18.8425 166.26 19.2581C167.153 19.2581 167.426 17.8189 166.467 17.6823C157.353 16.5371 148.122 18.5713 140.334 23.4416C134.778 26.8023 127.853 32.4946 128.81 39.7655C129.563 45.6615 135.119 48.9552 140.468 49.7109C192.46 56.9818 244.514 52.1792 254.389 50.397C262.073 49.0249 268.725 45.7338 269.754 37.2972C270.077 33.1236 269.138 28.9491 267.058 25.3163C264.978 21.6835 261.854 18.7603 258.091 16.9265Z" fill="#212941" class="svg-animation--fly svg-animation--fly-1"/>
<path d="M484.358 202.725C482.843 199.306 480.466 196.339 477.459 194.114C474.452 191.89 470.919 190.486 467.206 190.038C459.662 189.282 448.344 194.015 446.766 202.315C446.684 202.682 446.748 203.066 446.943 203.387C447.138 203.708 447.449 203.941 447.812 204.038C448.175 204.135 448.561 204.089 448.891 203.908C449.22 203.727 449.467 203.427 449.58 203.068C451.362 196.004 461.171 192.096 467.755 193.123C471.019 193.729 474.069 195.174 476.606 197.314C479.143 199.455 481.08 202.218 482.227 205.333C482.57 206.156 483.599 206.909 484.492 206.223C489.498 202.519 497.592 205.127 501.775 209.24C503.764 211.162 505.206 214.659 503.217 217.061C501.753 218.366 499.892 219.139 497.935 219.256C488.263 220.834 439.02 220.834 433.738 219.942C426.057 218.639 433.47 211.098 436.825 209.24C439.49 207.872 442.471 207.239 445.461 207.408C448.452 207.578 451.343 208.542 453.835 210.202C454.588 210.613 455.481 209.583 454.795 208.967C452.953 207.551 450.848 206.515 448.603 205.917C446.358 205.319 444.016 205.173 441.714 205.485C439.412 205.798 437.194 206.563 435.189 207.738C433.185 208.912 431.433 210.472 430.034 212.328C428.319 214.523 426.331 218.363 428.732 220.764C431.948 223.919 439.361 223.176 443.41 223.233C457.536 223.576 471.735 223.645 485.934 223.166C492.098 222.959 505.479 224.262 507.125 215.962C509.333 205.263 492.795 198.684 484.358 202.725Z" fill="#212941" class="svg-animation--fly svg-animation--fly-2" />
<path d="M99.0403 80.164C97.526 76.7438 95.1489 73.7759 92.1421 71.5513C89.1352 69.3267 85.6017 67.9217 81.8883 67.4742C74.3441 66.7211 63.0264 71.454 61.4506 79.7512C61.3504 80.124 61.4023 80.5214 61.5951 80.8559C61.7878 81.1903 62.1056 81.4346 62.4784 81.5348C62.8512 81.635 63.2485 81.583 63.583 81.3903C63.9175 81.1975 64.1617 80.8798 64.2619 80.507C66.0441 73.4425 75.8529 69.5324 82.4377 70.5615C85.7006 71.1685 88.75 72.6128 91.2869 74.7527C93.8238 76.8927 95.7614 79.6549 96.9097 82.7689C97.2527 83.5917 98.2791 84.3474 99.1716 83.6614C104.178 79.9576 112.271 82.5626 116.455 86.679C118.443 88.6006 119.885 92.098 117.897 94.4966C116.434 95.8029 114.572 96.5764 112.614 96.6915C102.945 98.27 53.7 98.27 48.4177 97.3776C40.7369 96.0751 48.1497 88.5336 51.5051 86.679C54.169 85.31 57.1502 84.6771 60.1406 84.8458C63.1309 85.0144 66.022 85.9785 68.5151 87.6385C69.2681 88.0512 70.1606 87.0221 69.4745 86.4057C67.6322 84.99 65.5277 83.9534 63.2825 83.3557C61.0373 82.7581 58.6959 82.6113 56.3936 82.9237C54.0913 83.2362 51.8737 84.0018 49.869 85.1763C47.8644 86.3508 46.1123 87.9109 44.714 89.7664C42.9988 91.9613 41.0102 95.8018 43.4115 98.2004C46.6275 101.357 54.0431 100.612 58.0899 100.671C72.2188 101.014 86.4148 101.081 100.613 100.602C106.777 100.395 120.159 101.7 121.804 93.4005C124.004 82.7689 107.477 76.1172 99.0403 80.164Z" fill="#212941" class="svg-animation--fly svg-animation--fly-3"/>
<path d="M46.092 318.019C45.7302 316.103 42.0452 303.279 40.3997 302.245C39.7118 301.923 38.9273 301.874 38.2047 302.108C36.6959 302.376 35.1871 302.724 33.7479 303.067C33.4458 301.574 32.9616 300.123 32.3061 298.747C31.8743 297.434 30.9872 296.317 29.8047 295.6C28.6223 294.883 27.2225 294.613 25.858 294.837C25.1746 294.907 25.2416 296.003 25.858 296.209C30.5909 297.305 30.1808 303.067 30.4542 304.027C29.082 304.44 18.3942 307.388 13.1012 308.966C12.6215 306.908 11.3887 301.832 14.61 298.954C14.7083 298.864 14.7798 298.749 14.8166 298.622C14.8534 298.494 14.8541 298.358 14.8186 298.23C14.783 298.102 14.7126 297.987 14.6152 297.896C14.5179 297.806 14.3973 297.744 14.267 297.718C10.7615 296.761 8.10298 303.968 11.1823 309.51C8.26917 310.269 5.44201 311.326 2.74566 312.665C2.14721 312.984 1.62747 313.433 1.22417 313.979C0.820869 314.524 0.544136 315.153 0.414062 315.819C0.908971 319.949 1.82861 324.018 3.15838 327.959C3.78818 329.8 5.72314 329.859 8.63362 329.64C13.8435 329.001 18.988 327.911 24.0088 326.381C23.9391 325.558 23.8694 324.735 23.7408 323.982C23.6528 323.633 23.6924 323.264 23.8525 322.942C24.0126 322.62 24.2826 322.365 24.6139 322.224C24.9451 322.084 25.3157 322.066 25.6589 322.175C26.002 322.283 26.295 322.511 26.4851 322.816C27.0892 323.601 27.639 324.425 28.1306 325.285C30.3952 324.668 43.2887 320.825 44.2481 320.482C46.092 319.665 46.1563 318.362 46.092 318.019Z" fill="#3A5AB7"/>
<path d="M284.087 217.61C285.73 216.715 286.622 218.57 288.131 218.639C288.33 218.622 288.52 218.549 288.678 218.427C288.836 218.305 288.956 218.141 289.024 217.953C289.573 216.511 285.54 214.18 283.128 216.444C282.509 216.991 283.331 218.02 284.087 217.61Z" fill="#FF9500"  />
<path d="M288.134 220.901C287.989 222.274 287.448 223.509 287.309 224.812C287.316 224.953 287.359 225.09 287.434 225.21C287.509 225.329 287.613 225.428 287.736 225.497C287.86 225.565 287.999 225.602 288.14 225.602C288.281 225.602 288.42 225.566 288.544 225.498C289.184 224.922 289.661 224.188 289.926 223.369C290.191 222.55 290.235 221.676 290.053 220.835C290.021 220.597 289.902 220.381 289.719 220.226C289.536 220.072 289.302 219.991 289.063 220C288.824 220.008 288.597 220.105 288.425 220.272C288.253 220.438 288.149 220.663 288.134 220.901Z" fill="#FF9500"  />
<path d="M286.006 226.663C285.738 227.199 284.154 229.132 283.951 229.681C283.683 230.367 284.43 230.847 285.047 230.777C285.733 230.64 287.585 228.097 287.858 227.419C288.201 226.39 286.555 225.704 286.006 226.663Z" fill="#FF9500"  />
<path d="M282.099 230.777C280.585 231.179 279.132 231.78 277.776 232.562C277.676 232.663 277.604 232.788 277.566 232.925C277.529 233.063 277.527 233.207 277.562 233.345C277.596 233.482 277.666 233.609 277.763 233.712C277.861 233.816 277.983 233.892 278.119 233.934C279.823 233.755 281.453 233.14 282.852 232.15C282.932 232.014 282.976 231.859 282.979 231.701C282.982 231.543 282.943 231.387 282.867 231.248C282.791 231.11 282.68 230.993 282.545 230.911C282.411 230.828 282.257 230.782 282.099 230.777Z" fill="#FF9500"  />
<path d="M276.131 232.562C274.557 231.869 272.84 231.563 271.124 231.67C270.97 231.714 270.831 231.803 270.726 231.925C270.621 232.047 270.553 232.197 270.531 232.357C270.509 232.517 270.534 232.679 270.603 232.825C270.671 232.971 270.781 233.093 270.918 233.178C272.469 233.871 274.159 234.199 275.857 234.138C276.056 234.151 276.252 234.091 276.408 233.968C276.565 233.845 276.67 233.669 276.704 233.473C276.738 233.277 276.698 233.076 276.592 232.907C276.486 232.739 276.322 232.616 276.131 232.562Z" fill="#FF9500"  />
<path d="M269.614 230.161C269.201 229.681 267.625 227.28 266.87 227.006C266.748 226.968 266.62 226.956 266.493 226.97C266.366 226.985 266.244 227.026 266.134 227.09C266.024 227.155 265.929 227.242 265.855 227.346C265.781 227.449 265.729 227.567 265.704 227.692C265.567 228.582 267.625 231.053 268.172 231.533C268.354 231.724 268.604 231.835 268.868 231.842C269.132 231.848 269.388 231.75 269.579 231.568C269.77 231.386 269.881 231.135 269.888 230.871C269.894 230.607 269.796 230.352 269.614 230.161Z" fill="#FF9500"  />
<path d="M267.008 224.538C267.046 222.779 266.839 221.022 266.392 219.32C266.318 219.194 266.213 219.09 266.087 219.018C265.961 218.945 265.818 218.907 265.672 218.907C265.526 218.907 265.383 218.945 265.257 219.018C265.131 219.09 265.026 219.194 264.952 219.32C264.579 220.181 264.403 221.114 264.438 222.051C264.473 222.989 264.719 223.907 265.156 224.736C265.499 225.704 267.078 225.704 267.008 224.538Z" fill="#FF9500"  />
<path d="M267.008 216.372C267.989 214.895 268.448 213.133 268.313 211.366C268.278 211.258 268.216 211.161 268.133 211.084C268.05 211.007 267.948 210.952 267.838 210.925C267.728 210.898 267.613 210.9 267.504 210.93C267.394 210.96 267.295 211.018 267.214 211.098C266.184 212.469 265.587 214.117 265.499 215.831C265.432 216.581 266.654 217.192 267.008 216.372Z" fill="#FF9500"  />
<path d="M269.544 209.174C270.631 207.903 271.281 206.316 271.396 204.647C271.329 204.167 270.78 203.618 270.3 204.028C269.039 205.235 268.218 206.829 267.969 208.557C267.626 209.517 268.992 210.061 269.544 209.174Z" fill="#FF9500"  />
<path d="M272.082 202.589C272.828 201.945 273.401 201.125 273.749 200.203C274.096 199.28 274.207 198.286 274.071 197.31C274.023 197.148 273.93 197.003 273.802 196.894C273.674 196.784 273.517 196.714 273.35 196.692C273.183 196.671 273.013 196.698 272.861 196.771C272.71 196.844 272.582 196.959 272.495 197.103C271.77 198.525 271.195 200.019 270.78 201.56C270.437 202.383 271.383 203.398 272.082 202.589Z" fill="#FF9500"  />
<path d="M274.005 194.771C275.519 189.787 272.145 188.645 271.81 190.655C271.741 191.271 272.346 193.946 272.29 194.565C272.307 194.767 272.393 194.958 272.534 195.104C272.675 195.251 272.862 195.344 273.063 195.368C273.265 195.392 273.469 195.346 273.641 195.237C273.812 195.129 273.941 194.964 274.005 194.771Z" fill="#FF9500"  />
<path d="M272.688 187.637C272.779 186.061 272.072 183.454 270.29 182.974C270.149 182.948 270.004 182.957 269.867 183C269.731 183.042 269.606 183.117 269.505 183.218C269.404 183.32 269.329 183.444 269.286 183.581C269.244 183.717 269.235 183.862 269.261 184.003C269.397 184.689 270.769 187.219 270.906 187.91C270.981 188.108 271.121 188.273 271.304 188.38C271.486 188.486 271.699 188.526 271.908 188.494C272.116 188.462 272.308 188.36 272.45 188.204C272.592 188.048 272.676 187.848 272.688 187.637Z" fill="#FF9500"  />
<path d="M268.938 180.846C268.139 179.479 266.909 178.418 265.44 177.828C265.32 177.829 265.202 177.861 265.097 177.921C264.993 177.981 264.905 178.066 264.843 178.17C264.781 178.273 264.746 178.39 264.743 178.511C264.739 178.631 264.766 178.75 264.821 178.857C265.659 179.825 266.554 180.741 267.501 181.602C268.174 182.151 269.206 181.671 268.938 180.846Z" fill="#FF9500"  />
<path d="M263.1 176.389C261.826 175.748 260.41 175.441 258.984 175.497C258.85 175.53 258.728 175.599 258.629 175.696C258.531 175.793 258.461 175.914 258.426 176.048C258.391 176.181 258.392 176.322 258.43 176.454C258.468 176.587 258.541 176.707 258.641 176.802C259.914 177.549 261.35 177.972 262.824 178.035C263.923 178.171 263.926 176.722 263.1 176.389Z" fill="#FF9500"  />
<path d="M248.421 174.537C247.675 174.302 246.877 174.286 246.123 174.493C245.369 174.7 244.69 175.12 244.168 175.703C244.099 175.827 244.063 175.966 244.063 176.107C244.062 176.249 244.098 176.388 244.167 176.512C244.236 176.636 244.335 176.74 244.455 176.814C244.576 176.889 244.713 176.932 244.854 176.938C245.39 176.938 247.599 176.459 248.148 176.389C248.371 176.382 248.584 176.296 248.75 176.148C248.916 175.999 249.025 175.797 249.057 175.577C249.09 175.357 249.044 175.132 248.928 174.942C248.811 174.752 248.632 174.609 248.421 174.537Z" fill="#FF9500"  />
<path d="M241.973 177.006C240.556 177.498 239.25 178.268 238.133 179.27C237.865 179.75 238.203 180.643 238.889 180.506C240.22 179.993 241.485 179.325 242.659 178.515C242.827 178.405 242.949 178.239 243.004 178.047C243.06 177.854 243.045 177.649 242.962 177.467C242.879 177.285 242.734 177.138 242.553 177.054C242.372 176.969 242.166 176.952 241.973 177.006Z" fill="#FF9500"  />
<path d="M236.417 180.299C234.727 181.118 233.249 182.315 232.096 183.796C232.059 183.939 232.059 184.089 232.097 184.231C232.136 184.373 232.211 184.503 232.315 184.607C232.419 184.711 232.549 184.786 232.691 184.825C232.833 184.863 232.983 184.863 233.126 184.826C234.625 183.953 236.008 182.893 237.239 181.671C237.362 181.539 237.438 181.37 237.456 181.191C237.475 181.012 237.435 180.831 237.342 180.677C237.249 180.522 237.109 180.402 236.942 180.334C236.775 180.266 236.591 180.253 236.417 180.299Z" fill="#FF9500"  />
<path d="M229.559 185.512C228.292 186.444 227.142 187.523 226.131 188.728C225.649 189.411 226.541 190.097 227.227 189.824C228.58 189 229.824 188.009 230.931 186.876C231.824 186.059 230.459 184.697 229.559 185.512Z" fill="#FF9500"  />
<path d="M216.049 201.01C214.978 201.878 214.091 202.951 213.441 204.167C213.399 204.319 213.397 204.48 213.437 204.633C213.478 204.786 213.558 204.925 213.67 205.037C213.781 205.149 213.921 205.228 214.074 205.268C214.227 205.308 214.388 205.306 214.54 205.263C215.226 205.127 217.351 202.519 217.22 201.696C217.146 201.456 216.984 201.253 216.768 201.126C216.551 200.999 216.294 200.957 216.049 201.01Z" fill="#FF9500"  />
<path d="M211.659 206.086C210.616 207.053 209.714 208.162 208.979 209.38C208.772 209.996 209.459 210.749 210.075 210.476C211.218 209.62 212.254 208.63 213.162 207.528C213.327 207.324 213.41 207.066 213.393 206.804C213.377 206.543 213.263 206.297 213.074 206.116C212.884 205.934 212.634 205.83 212.372 205.825C212.11 205.819 211.855 205.913 211.659 206.086Z" fill="#FF9500"  />
<path d="M207.612 210.889C206.257 211.942 205.116 213.245 204.252 214.729C203.909 215.552 204.938 216.101 205.624 215.758C206.992 214.699 208.154 213.397 209.052 211.918C209.258 211.092 208.29 210.596 207.612 210.889Z" fill="#FF9500"  />
<path d="M201.987 216.444C201.188 217.252 200.518 218.176 199.998 219.186C199.964 219.346 199.975 219.512 200.03 219.666C200.086 219.82 200.184 219.955 200.313 220.056C200.442 220.156 200.597 220.218 200.76 220.235C200.923 220.251 201.087 220.221 201.234 220.148C202.097 219.409 202.878 218.581 203.566 217.677C203.68 217.466 203.715 217.221 203.666 216.986C203.617 216.752 203.486 216.542 203.297 216.394C203.108 216.246 202.873 216.17 202.633 216.179C202.393 216.189 202.164 216.282 201.987 216.444Z" fill="#FF9500"  />
<path d="M198.147 220.148C196.764 221.023 195.594 222.194 194.719 223.576C194.65 223.71 194.626 223.863 194.649 224.012C194.673 224.161 194.743 224.298 194.849 224.405C194.956 224.512 195.094 224.582 195.243 224.605C195.392 224.629 195.544 224.604 195.678 224.536C196.953 223.663 198.126 222.651 199.176 221.518C199.725 220.832 199.026 219.588 198.147 220.148Z" fill="#FF9500"  />
<path d="M193.14 224.468C191.811 225.322 190.648 226.412 189.71 227.684C189.643 227.808 189.613 227.948 189.626 228.088C189.638 228.228 189.692 228.362 189.78 228.471C189.868 228.581 189.986 228.662 190.12 228.705C190.254 228.747 190.398 228.749 190.533 228.711C192.036 227.994 193.334 226.91 194.306 225.559C194.34 225.402 194.332 225.239 194.283 225.086C194.235 224.933 194.148 224.794 194.031 224.685C193.914 224.575 193.77 224.497 193.614 224.46C193.458 224.422 193.295 224.425 193.14 224.468Z" fill="#FF9500"  />
<path d="M187.793 228.582C186.487 229.278 185.286 230.156 184.226 231.19C183.958 231.669 184.295 232.492 184.912 232.425C186.355 232.062 187.679 231.328 188.752 230.297C188.968 230.164 189.124 229.953 189.188 229.707C189.251 229.462 189.218 229.201 189.094 228.98C188.97 228.759 188.766 228.594 188.523 228.52C188.281 228.445 188.019 228.468 187.793 228.582Z" fill="#FF9500"  />
<path d="M182.51 232.149C180.868 232.674 179.335 233.491 177.984 234.561C177.448 235.041 178.053 235.727 178.6 235.66C180.225 235.299 181.764 234.623 183.129 233.669C183.952 233.256 183.403 231.804 182.51 232.149Z" fill="#FF9500"  />
<path d="M175.514 235.51C173.967 235.731 172.503 236.345 171.261 237.295C171.142 237.414 171.062 237.566 171.031 237.732C170.999 237.897 171.018 238.069 171.084 238.223C171.151 238.378 171.262 238.509 171.404 238.6C171.546 238.691 171.712 238.738 171.88 238.734C173.439 238.57 174.928 238.003 176.2 237.088C176.372 236.975 176.498 236.805 176.557 236.608C176.615 236.411 176.602 236.199 176.52 236.011C176.438 235.822 176.293 235.669 176.109 235.577C175.925 235.485 175.714 235.462 175.514 235.51Z" fill="#FF9500"  />
<path d="M168.93 237.635C168.076 237.814 167.26 238.139 166.518 238.597C166.414 238.713 166.341 238.854 166.306 239.005C166.27 239.156 166.273 239.314 166.314 239.464C166.355 239.614 166.433 239.751 166.541 239.863C166.648 239.975 166.782 240.059 166.93 240.106C167.822 240.119 168.707 239.956 169.535 239.627C170.988 238.884 170.028 237.442 168.93 237.635Z" fill="#FF9500"  />
<path d="M151.166 243.947C150.374 243.855 149.571 243.936 148.813 244.185C148.055 244.433 147.36 244.843 146.776 245.386C146.67 245.493 146.598 245.629 146.569 245.776C146.54 245.924 146.555 246.077 146.612 246.216C146.669 246.355 146.766 246.474 146.891 246.559C147.015 246.643 147.162 246.689 147.312 246.691C148.703 246.491 150.077 246.193 151.426 245.799C151.636 245.728 151.815 245.586 151.931 245.397C152.048 245.208 152.095 244.984 152.064 244.765C152.033 244.545 151.926 244.343 151.762 244.194C151.598 244.044 151.387 243.957 151.166 243.947Z" fill="#FF9500"  />
<path d="M145.475 246.142C144.856 246.072 142.259 246.621 142.115 247.308C142.077 247.5 142.096 247.7 142.168 247.882C142.241 248.065 142.365 248.223 142.525 248.337C143.531 248.223 144.52 247.993 145.473 247.651C146.161 247.514 146.228 246.278 145.475 246.142Z" fill="#FF9500"  />
<path d="M140.262 247.444C138.761 247.654 137.354 248.297 136.215 249.296C136.099 249.408 136.024 249.555 136 249.714C135.976 249.874 136.006 250.036 136.084 250.177C136.162 250.318 136.285 250.429 136.432 250.493C136.58 250.557 136.745 250.57 136.901 250.532C138.221 250.202 139.489 249.695 140.672 249.023C140.775 248.996 140.873 248.949 140.958 248.884C141.044 248.82 141.116 248.739 141.17 248.647C141.224 248.554 141.26 248.452 141.274 248.346C141.289 248.24 141.283 248.132 141.256 248.028C141.229 247.925 141.182 247.827 141.117 247.742C141.053 247.657 140.972 247.585 140.88 247.53C140.787 247.476 140.685 247.441 140.579 247.426C140.473 247.411 140.365 247.417 140.262 247.444Z" fill="#FF9500"  />
<path d="M133.678 249.639C132.077 250.091 130.584 250.861 129.288 251.903C128.875 252.383 129.081 253.343 129.824 253.343C131.462 252.988 133.006 252.286 134.35 251.284C135.253 250.805 134.701 249.215 133.678 249.639Z" fill="#FF9500"  />
<path d="M112.425 264.317C111.792 264.835 111.293 265.499 110.97 266.251C110.648 267.003 110.512 267.821 110.573 268.637C110.615 268.765 110.688 268.88 110.786 268.971C110.883 269.063 111.002 269.129 111.132 269.164C111.262 269.198 111.398 269.199 111.528 269.167C111.659 269.135 111.779 269.071 111.878 268.98C112.358 268.444 113.387 265.893 113.73 265.346C114.199 264.523 113.033 263.631 112.425 264.317Z" fill="#FF9500"  />
<path d="M109.946 270.283C109.624 271.591 109.053 273.713 110.016 274.809C110.092 274.882 110.184 274.937 110.284 274.971C110.385 275.004 110.491 275.014 110.596 275.001C110.701 274.988 110.802 274.952 110.891 274.895C110.98 274.838 111.056 274.762 111.112 274.673C111.422 273.301 111.561 271.895 111.524 270.489C111.522 270.296 111.45 270.109 111.322 269.965C111.193 269.82 111.017 269.726 110.825 269.701C110.633 269.676 110.438 269.721 110.277 269.828C110.115 269.935 109.998 270.096 109.946 270.283Z" fill="#FF9500"  />
<path d="M109.535 276.731C109.642 278.241 110.062 279.712 110.768 281.051C110.896 281.161 111.052 281.233 111.218 281.26C111.384 281.287 111.554 281.267 111.71 281.203C111.866 281.14 112.002 281.034 112.102 280.899C112.201 280.763 112.262 280.603 112.277 280.435C112.095 279.092 111.82 277.763 111.454 276.458C111.248 275.359 109.602 275.632 109.535 276.731Z" fill="#FF9500"  />
<path d="M112.961 282.766C116.311 285.829 118.139 284.256 117.281 282.973C116.225 282.364 115.125 281.837 113.99 281.394C113.229 280.914 112.283 282.145 112.961 282.766Z" fill="#FF9500"  />
<path d="M118.382 285.647C119.617 286.253 120.986 286.536 122.359 286.47C123.115 286.333 123.046 285.441 122.566 285.031C121.347 284.367 119.976 284.035 118.589 284.069C117.696 284.002 117.632 285.363 118.382 285.647Z" fill="#FF9500"  />
<path d="M125.584 287.636C126.865 288.066 128.21 288.275 129.561 288.252C130.04 288.049 130.453 287.293 129.904 286.88C128.808 285.99 127.092 286.264 125.72 286.264C125.558 286.279 125.406 286.35 125.29 286.464C125.174 286.579 125.102 286.731 125.085 286.893C125.069 287.056 125.11 287.219 125.201 287.354C125.292 287.49 125.427 287.589 125.584 287.636Z" fill="#FF9500"  />
<path d="M131.689 289.558C133.052 290.376 134.501 291.042 136.009 291.546C136.625 291.613 137.244 291.067 136.901 290.447C136.326 289.787 135.621 289.251 134.831 288.874C134.04 288.496 133.181 288.285 132.305 288.253C131.552 288.116 130.869 289.201 131.689 289.558Z" fill="#FF9500"  />
<path d="M137.791 292.299C138.327 292.784 140.471 294.77 141.151 294.837C141.302 294.873 141.461 294.865 141.607 294.812C141.753 294.76 141.881 294.667 141.976 294.544C142.07 294.42 142.127 294.273 142.139 294.118C142.151 293.963 142.118 293.808 142.044 293.671C141.084 292.633 140.004 291.712 138.828 290.927C138.067 290.447 137.102 291.68 137.791 292.299Z" fill="#FF9500"  />
<path d="M142.524 296.963C143.507 297.936 144.584 298.81 145.74 299.57C146.153 299.777 146.769 299.57 146.7 299.034C146.633 298.142 144.231 295.818 143.408 295.467C143.213 295.384 142.994 295.375 142.792 295.441C142.59 295.508 142.42 295.645 142.312 295.828C142.203 296.011 142.165 296.226 142.204 296.435C142.244 296.644 142.357 296.831 142.524 296.963Z" fill="#FF9500"  />
<path d="M146.161 301.765C146.504 302.301 147.257 304.646 147.67 305.125C147.765 305.226 147.885 305.299 148.017 305.337C148.15 305.375 148.29 305.376 148.423 305.341C148.557 305.306 148.678 305.236 148.775 305.137C148.871 305.039 148.94 304.916 148.973 304.782C148.757 303.354 148.217 301.993 147.394 300.805C146.845 300.049 145.684 301.009 146.161 301.765Z" fill="#FF9500"  />
<path d="M148.422 307.184C148.317 308.826 148.599 310.47 149.244 311.984C149.331 312.129 149.459 312.245 149.611 312.318C149.763 312.392 149.934 312.419 150.101 312.398C150.269 312.376 150.426 312.305 150.555 312.195C150.683 312.085 150.776 311.94 150.823 311.777C151.005 310.145 150.769 308.494 150.137 306.978C150.085 306.772 149.96 306.593 149.785 306.474C149.611 306.354 149.399 306.302 149.189 306.327C148.978 306.352 148.785 306.453 148.644 306.611C148.502 306.769 148.424 306.972 148.422 307.184Z" fill="#FF9500"  />
<path d="M149.04 314.248C148.826 315.654 148.758 317.079 148.836 318.499C149.072 319.686 151.583 319.348 150.618 314.042C150.548 313.082 149.099 313.356 149.04 314.248Z" fill="#FF9500"  />
<path d="M147.599 320.694C147.248 321.994 146.64 323.232 146.297 324.604C146.16 325.153 146.776 325.77 147.326 325.36C147.949 324.841 148.464 324.204 148.84 323.485C149.217 322.767 149.448 321.981 149.521 321.174C149.724 320.008 147.934 319.458 147.599 320.694Z" fill="#FF9500"  />
<path d="M144.924 325.984C143.871 326.743 142.904 327.617 142.043 328.589C141.976 328.712 141.947 328.853 141.96 328.993C141.972 329.133 142.026 329.266 142.114 329.376C142.201 329.486 142.32 329.567 142.453 329.61C142.587 329.653 142.731 329.656 142.866 329.618C144.039 328.901 145.142 328.074 146.16 327.15C146.797 326.63 146.127 325.18 144.924 325.984Z" fill="#FF9500"  />
<path d="M140.398 328.787C138.806 328.505 137.167 328.671 135.665 329.267C135.504 329.366 135.375 329.509 135.293 329.679C135.21 329.848 135.178 330.038 135.2 330.225C135.222 330.413 135.296 330.59 135.415 330.736C135.534 330.883 135.692 330.992 135.871 331.052C137.463 331.336 139.102 331.169 140.604 330.57C140.809 330.508 140.986 330.376 141.103 330.198C141.221 330.019 141.272 329.805 141.247 329.592C141.223 329.38 141.124 329.183 140.969 329.035C140.813 328.888 140.611 328.801 140.398 328.787Z" fill="#FF9500"  />
<path d="M133.597 327.758C133.112 327.354 131.185 325.36 130.443 325.36C130.238 325.354 130.038 325.418 129.875 325.543C129.712 325.667 129.598 325.844 129.55 326.043C129.347 326.869 131.962 328.991 132.707 329.259C133.541 329.68 134.356 328.396 133.597 327.758Z" fill="#FF9500"  />
<path d="M130.246 323.645C129.978 322.75 130.179 321.517 129.493 320.764C129.419 320.682 129.329 320.618 129.229 320.573C129.128 320.529 129.02 320.506 128.91 320.506C128.8 320.506 128.692 320.529 128.591 320.573C128.491 320.618 128.401 320.682 128.327 320.764C127.435 321.793 128.121 323.302 128.67 324.261C128.765 324.451 128.927 324.598 129.125 324.674C129.323 324.75 129.542 324.749 129.739 324.672C129.937 324.595 130.098 324.447 130.192 324.257C130.286 324.067 130.305 323.848 130.246 323.645Z" fill="#FF9500"  />
<path d="M172.839 142.166C172.741 142.58 172.739 143.011 172.831 143.426C172.924 143.842 173.11 144.231 173.375 144.564C173.524 144.662 173.704 144.702 173.881 144.677C174.057 144.651 174.218 144.563 174.335 144.428C174.951 143.811 174.603 142.645 174.402 141.89C174.3 141.187 173.035 140.992 172.839 142.166Z" fill="#212941"/>
<path d="M171.742 141.41C172.564 140.692 173.556 140.196 174.623 139.97C175.159 139.901 175.103 139.008 174.623 138.735C173.114 137.842 171.332 139.421 170.509 140.52C169.96 141.136 171.139 142.106 171.742 141.41Z" fill="#212941"/>
<path d="M169.958 150.259C170.084 150.73 170.321 151.163 170.649 151.523C170.978 151.883 171.388 152.158 171.845 152.326C172.302 152.494 172.793 152.55 173.276 152.488C173.76 152.426 174.221 152.249 174.621 151.972C174.711 151.873 174.775 151.753 174.806 151.623C174.838 151.493 174.837 151.357 174.803 151.228C174.769 151.098 174.703 150.98 174.611 150.882C174.52 150.785 174.405 150.711 174.278 150.669C173.007 150.682 171.773 150.245 170.794 149.434C170.368 149.024 169.615 149.777 169.958 150.259Z" fill="#212941"/>
<path d="M178.326 136.06C178.225 135.912 178.075 135.804 177.902 135.755C177.729 135.706 177.545 135.72 177.381 135.793C177.218 135.867 177.085 135.996 177.007 136.157C176.929 136.319 176.91 136.503 176.954 136.677C177.297 138.598 181.756 146.212 178.052 146.073C177.888 146.08 177.728 146.123 177.583 146.199C177.437 146.275 177.311 146.383 177.212 146.515C177.114 146.646 177.046 146.798 177.013 146.959C176.98 147.119 176.984 147.286 177.023 147.445C178.119 153.687 173.113 157.117 167.421 156.225C166.885 156.155 166.528 156.774 167.078 157.117C168.05 157.751 169.147 158.171 170.294 158.35C169.966 159.397 170.062 160.53 170.562 161.507C170.62 161.599 170.704 161.673 170.803 161.72C170.902 161.766 171.013 161.783 171.121 161.768C171.23 161.753 171.332 161.708 171.415 161.637C171.498 161.566 171.559 161.472 171.591 161.368C171.681 160.388 171.704 159.403 171.661 158.42C176.051 158.007 179.411 153.001 179.342 148.268C184.637 147.788 180.009 138.783 178.326 136.06Z" fill="#212941"/>
<path d="M318.174 120.836C315.756 119.551 313.202 118.539 310.56 117.818C310.358 117.822 310.163 117.891 310.003 118.015C309.842 118.138 309.726 118.31 309.671 118.504C309.135 119.806 308.435 121.109 307.886 122.411C308.092 121.875 307.543 121.246 306.857 121.315C304.388 121.795 284.224 135.032 279.354 140.657C271.74 149.434 260.149 163.769 258.091 168.982C257.681 170.697 259.67 173.988 261.728 172.959C261.908 172.848 262.036 172.671 262.087 172.466C262.137 172.261 262.104 172.044 261.996 171.863C261.653 171.177 259.871 170.354 259.801 168.845C265.837 159.239 272.897 150.316 280.858 142.233C288.469 134.139 305.892 124.606 307.674 122.824C307.744 122.754 307.058 124.4 306.784 125.362C306.768 125.608 306.84 125.851 306.988 126.048C309.267 128.162 311.95 129.795 314.875 130.848C315.076 130.846 315.271 130.779 315.43 130.657C315.589 130.535 315.705 130.364 315.759 130.171C315.813 129.977 315.803 129.771 315.73 129.584C315.657 129.397 315.525 129.239 315.355 129.133C313.985 128.516 309.322 125.917 308.223 125.362C309.61 123.63 310.657 121.651 311.311 119.53C312.133 119.943 316.041 121.942 317.14 122.411C316.362 123.946 315.741 125.555 315.288 127.214C315.256 127.377 315.282 127.546 315.36 127.692C315.439 127.838 315.566 127.952 315.719 128.016C315.873 128.079 316.044 128.087 316.202 128.038C316.361 127.99 316.498 127.888 316.59 127.75C317.596 125.906 318.38 123.95 318.925 121.921C319.203 121.179 318.517 120.964 318.174 120.836Z" fill="#212941"/>
<path d="M256.858 170.697C253.985 171.951 250.617 173.377 249.381 176.459C248.491 178.584 248.901 182.151 251.576 182.623C252.125 182.76 252.742 182.143 252.399 181.594C251.166 179.536 248.558 175.765 257.268 171.581C257.818 171.246 257.477 170.426 256.858 170.697Z" fill="#212941"/>
<path d="M253.221 174.95C252.791 175.542 252.498 176.221 252.362 176.94C252.226 177.658 252.251 178.398 252.434 179.106C252.618 179.814 252.956 180.472 253.424 181.034C253.892 181.595 254.479 182.047 255.142 182.355C255.283 182.385 255.43 182.374 255.564 182.323C255.699 182.272 255.817 182.184 255.903 182.069C255.99 181.954 256.041 181.817 256.052 181.673C256.063 181.529 256.033 181.386 255.965 181.259C255.485 180.366 252.947 178.514 254.25 175.293C254.526 174.744 253.569 174.473 253.221 174.95Z" fill="#212941"/>
<path d="M256.444 174.744C253.764 178.104 257.543 181.671 258.982 181.945C259.096 181.973 259.215 181.971 259.327 181.939C259.44 181.908 259.542 181.848 259.625 181.765C259.708 181.682 259.768 181.58 259.799 181.467C259.831 181.354 259.833 181.236 259.805 181.122C259.537 180.163 256.238 178.104 257.543 175.154C257.816 174.537 256.787 174.194 256.444 174.744Z" fill="#212941"/>
<path d="M222.976 197.926C220.832 199.426 219.205 198.132 217.559 196.76C217.147 196.417 216.254 196.623 216.394 197.24C217.49 201.696 222.702 200.327 223.938 199.091C224.417 198.542 223.662 197.443 222.976 197.926Z" fill="#212941"/>
<path d="M225.032 194.565C224.642 194.892 224.185 195.13 223.694 195.263C223.203 195.397 222.689 195.422 222.187 195.337C221.685 195.252 221.207 195.059 220.787 194.772C220.367 194.485 220.014 194.11 219.753 193.673C219.41 193.193 218.244 193.536 218.448 194.209C219.613 198.666 225.169 197.02 226.268 195.511C226.815 194.771 225.662 193.962 225.032 194.565Z" fill="#212941"/>
<path d="M226.324 191.684C224.893 192.383 223.856 191.067 222.62 190.655C222.502 190.617 222.376 190.608 222.253 190.628C222.131 190.648 222.015 190.697 221.914 190.771C221.814 190.845 221.733 190.941 221.677 191.052C221.622 191.163 221.593 191.286 221.594 191.41C222.21 194.289 226.394 193.742 227.353 192.986C228.2 192.37 227.163 191.279 226.324 191.684Z" fill="#212941"/>
<path d="M215.844 189.902C218.706 190.232 221.603 190.093 224.42 189.489C224.562 189.44 224.686 189.347 224.773 189.224C224.861 189.101 224.908 188.954 224.908 188.803C224.908 188.652 224.861 188.505 224.773 188.382C224.686 188.259 224.562 188.167 224.42 188.117C221.508 187.82 218.566 188.124 215.777 189.009C215.688 189.05 215.614 189.117 215.564 189.201C215.515 189.285 215.492 189.382 215.499 189.479C215.507 189.576 215.544 189.669 215.605 189.745C215.667 189.82 215.75 189.875 215.844 189.902Z" fill="#212941"/>
<path d="M215.227 189.969C215.567 189.626 215.021 189.146 214.541 189.076C203.346 185.757 193.132 179.755 184.785 171.589C184.305 171.177 183.619 171.857 183.892 172.479C188.076 181.055 207.417 189.216 212.63 190.106C211.876 191.005 211.366 192.083 211.15 193.236C210.933 194.389 211.018 195.579 211.395 196.69C206.868 196.623 195.553 198.955 185.667 190.245C185.05 189.709 184.434 190.725 184.844 191.271C193.623 202.862 212.349 197.789 212.416 197.789C212.505 197.773 212.59 197.738 212.664 197.686C212.738 197.634 212.8 197.567 212.846 197.489C212.892 197.41 212.92 197.323 212.928 197.233C212.937 197.143 212.926 197.052 212.895 196.966C212.687 195.698 212.791 194.399 213.197 193.18C213.603 191.96 214.3 190.859 215.227 189.969Z" fill="#3A5AB7"/>
<path d="M168.586 162.877C167.284 162.609 163.717 163.7 161.249 159.998C161.043 159.911 160.821 159.866 160.597 159.866C160.373 159.866 160.152 159.911 159.946 159.998C144.697 170.249 134.529 196.982 141.358 221.657C143.279 228.515 146.433 237.089 151.783 242.025C152.949 243.124 158.917 240.792 159.67 239.557C160.67 237.566 156.966 229.276 158.435 214.66C159.62 206.085 162.217 197.766 166.118 190.039C166.203 189.858 166.218 189.653 166.16 189.462C166.102 189.271 165.975 189.109 165.804 189.007C165.633 188.904 165.43 188.869 165.235 188.907C165.039 188.946 164.865 189.056 164.746 189.216C155.176 202.586 153.206 227.122 158.231 238.664C156.792 239.391 155.302 240.01 153.771 240.516C152.195 237.362 150.001 234.551 148.411 231.404C144.225 223.214 142.026 214.153 141.99 204.955C141.954 195.756 144.083 186.679 148.205 178.456C151.561 172.498 155.689 167.009 160.482 162.132C161.497 163.275 162.83 164.088 164.311 164.467C165.791 164.845 167.351 164.772 168.79 164.257C169.342 164.043 169.205 163.011 168.586 162.877Z" fill="#3A5AB7"/>
<path d="M171.397 163.844C174.174 165.196 176.552 167.247 178.296 169.796C180.039 172.346 181.089 175.305 181.342 178.383C181.822 183.939 177.708 189.838 180.863 195.12C183.304 199.226 191.272 201.801 181.822 212.06C176.996 216.848 170.827 220.054 164.134 221.25C163.887 221.323 163.675 221.481 163.534 221.697C163.393 221.912 163.334 222.171 163.366 222.426C163.398 222.682 163.52 222.917 163.71 223.091C163.9 223.265 164.145 223.365 164.402 223.375C171.592 222.746 178.302 219.504 183.264 214.263C187.721 209.873 191.494 203.358 186.748 197.803C185.169 196.447 183.845 194.821 182.838 193C181.809 190.462 185.376 182.232 183.797 175.717C183.132 172.678 181.708 169.858 179.657 167.519C177.606 165.18 174.995 163.4 172.07 162.343C171.116 162.054 170.58 163.426 171.397 163.844Z" fill="#3A5AB7"/>
<path d="M160.837 238.461C162.132 238.668 163.438 238.804 164.747 238.871C164.905 238.867 165.058 238.817 165.187 238.727C165.316 238.638 165.416 238.512 165.475 238.366C165.533 238.22 165.547 238.06 165.516 237.906C165.484 237.751 165.408 237.61 165.297 237.499C164.611 236.988 163.79 236.691 162.936 236.644C162.082 236.596 161.233 236.8 160.494 237.231C159.808 237.568 160.221 238.394 160.837 238.461Z" fill="#212941"/>
<path d="M165.433 241.958C165.296 241.821 164.473 240.106 162.964 240.656C162.621 240.792 162.072 242.438 163.787 243.336C162.345 245.804 156.996 245.391 155.074 243.815C154.971 243.733 154.842 243.692 154.71 243.7C154.579 243.707 154.455 243.763 154.362 243.856C154.269 243.949 154.213 244.073 154.206 244.204C154.198 244.336 154.24 244.465 154.321 244.568C155.967 246.696 164.61 249.851 166.381 242.923C166.385 242.797 166.362 242.671 166.316 242.554C166.27 242.436 166.2 242.329 166.112 242.239C166.023 242.149 165.917 242.078 165.801 242.03C165.684 241.981 165.559 241.957 165.433 241.958Z" fill="#212941"/>
<path d="M188.68 211.369C191.023 213.638 193.496 215.768 196.088 217.747C196.624 218.015 197.46 217.404 197.05 216.788C194.893 214.335 192.453 212.147 189.779 210.27C189.024 209.584 187.933 210.674 188.68 211.369Z" fill="#212941"/>
<path d="M224.141 243.673C217.766 237.011 210.562 231.053 203.773 224.881C203.664 224.772 203.516 224.71 203.362 224.71C203.208 224.71 203.06 224.772 202.951 224.881C202.841 224.99 202.78 225.138 202.78 225.292C202.78 225.447 202.841 225.595 202.951 225.704C209.396 232.219 222.839 245.522 223.051 245.522C213.622 271.449 195.149 286.108 170.582 290.86C170.582 290.79 165.222 264.328 161.872 251.424C161.735 250.804 160.842 251.081 160.912 251.692C162.831 264.928 165.506 278.165 168.044 291.264C168.113 291.471 168.456 293.323 169.279 293.323C170.565 293.281 171.847 293.166 173.119 292.98C174.149 308.138 175.041 336.664 175.245 338.727C175.245 338.727 173.875 350.251 188.004 342.088C189.717 341.196 205.011 334.407 199.046 331.663C196.438 330.427 191.775 331.73 189.031 332.212C187.147 332.555 185.291 333.036 183.478 333.651C185.74 326.93 192.804 305.53 189.443 290.032C189.175 288.727 187.112 289.206 187.248 290.3C188.414 303.056 183.545 327.747 181.829 334.332C181.007 334.675 178.126 335.911 177.579 336.251C177.989 329.05 176.344 299.902 174.422 292.771C185.678 290.849 196.714 284.128 205.011 276.993C214.684 268.66 221.6 257.587 224.843 245.238C224.765 244.66 224.521 244.116 224.141 243.673Z" fill="#212941"/>
<path d="M64.4733 183.317C64.6796 183.853 64.8163 184.756 65.4327 185.032C65.7758 185.169 66.2555 185.169 66.3922 184.764C66.6602 184.078 66.3252 183.531 66.1242 182.912C66.0539 182.704 65.9117 182.528 65.7231 182.415C65.5345 182.302 65.3118 182.26 65.095 182.296C64.6099 182.425 64.2669 182.904 64.4733 183.317Z" fill="#212941"/>
<path d="M57.753 185.855C57.82 186.677 58.1631 187.98 58.5758 188.117C58.9188 188.253 59.2619 188.323 59.5352 187.98C59.8783 187.444 59.4656 186.128 59.2672 185.442C59.2067 185.248 59.0732 185.085 58.8949 184.987C58.7166 184.889 58.5073 184.865 58.3112 184.918C58.115 184.972 57.9472 185.099 57.8432 185.274C57.7391 185.448 57.7068 185.657 57.753 185.855Z" fill="#212941"/>
<path d="M57.4849 196.484C58.447 197.446 61.2584 200.257 63.2469 197.649C63.5149 197.306 62.7109 196.966 62.3545 197.17C61.1217 197.856 59.2698 196.21 58.3774 195.524C57.8199 195.045 56.8605 195.867 57.4849 196.484Z" fill="#212941"/>
<path d="M63.7187 178.378C63.5828 178.065 63.3854 177.782 63.1382 177.546C62.891 177.31 62.599 177.127 62.2796 177.006C61.2344 176.797 61.5292 178.383 62.2796 179.134C61.5947 180.019 61.2098 181.099 61.1808 182.218C60.5644 180.916 58.0264 181.122 58.0264 181.122C59.6472 179.927 60.9896 178.394 61.9612 176.63C62.9328 174.866 63.5104 172.912 63.6544 170.903C64.1341 163.906 58.1658 158.763 51.7204 163.083C48.7788 165.451 46.2916 168.333 44.3799 171.589C41.9813 174.88 38.2159 177.282 36.2863 180.846C31.3497 189.69 43.7635 193.263 46.1647 200.051C46.2168 200.174 46.2854 200.289 46.3684 200.394C46.1691 205.077 45.7344 209.747 45.0659 214.386C45.0491 214.541 45.0718 214.698 45.1318 214.842C45.1917 214.986 45.2871 215.112 45.409 215.209C45.8476 216.682 46.6379 218.026 47.7118 219.125C48.7857 220.224 50.1108 221.045 51.573 221.518C53.1534 222.063 54.8674 222.083 56.4606 221.577C58.0538 221.071 59.4412 220.064 60.417 218.707C60.479 218.592 60.5063 218.462 60.4953 218.333C60.4843 218.203 60.4356 218.08 60.3551 217.978C60.2747 217.876 60.1661 217.799 60.0428 217.758C59.9194 217.717 59.7868 217.713 59.6612 217.747C57.3832 219.001 54.7676 219.505 52.1867 219.186C51.0481 218.887 49.9839 218.354 49.0614 217.623C48.1388 216.891 47.3779 215.976 46.8267 214.936C48.2049 209.984 48.6009 204.811 47.9925 199.708C48.5196 197.957 49.2566 196.276 50.1874 194.702C50.3238 194.325 50.3238 193.913 50.1874 193.536C49.0886 191.957 47.6495 190.856 47.9228 188.666C47.9925 188.187 48.1908 186.541 49.5013 186.254C49.6336 186.474 49.7483 186.703 49.8444 186.94C49.9639 187.12 50.1313 187.263 50.3277 187.352C50.5241 187.442 50.7416 187.474 50.9556 187.446C51.1696 187.418 51.3714 187.331 51.5384 187.194C51.7053 187.058 51.8305 186.877 51.8999 186.672C52.0275 186.39 52.0878 186.082 52.0762 185.772C52.0646 185.462 51.9813 185.16 51.8329 184.888C51.7112 184.071 51.6878 183.242 51.7633 182.419C53.0355 182.686 54.3536 182.639 55.6037 182.283C53.4785 185.164 54.3709 192.432 59.3771 191.952C60.3016 191.908 61.1814 191.541 61.8638 190.916C62.5463 190.291 62.9883 189.447 63.1131 188.53C63.1801 188.736 64.8953 192.164 63.0434 192.644C62.9164 192.679 62.8046 192.756 62.725 192.861C62.6453 192.966 62.6022 193.094 62.6022 193.226C62.6022 193.358 62.6453 193.487 62.725 193.592C62.8046 193.697 62.9164 193.773 63.0434 193.809C63.3917 193.907 63.759 193.917 64.112 193.837C64.465 193.758 64.7925 193.591 65.065 193.353C65.3374 193.115 65.5462 192.813 65.6724 192.473C65.7986 192.134 65.8382 191.769 65.7877 191.411C65.7233 190.411 65.4667 189.433 65.0319 188.53C65.23 188.607 65.4388 188.653 65.651 188.666C66.2786 192.063 66.3249 195.542 65.7877 198.955C65.5283 200.004 64.9994 200.967 64.2534 201.749C63.5074 202.53 62.5702 203.104 61.5345 203.412C60.367 203.607 59.1679 203.457 58.0841 202.981C57.0003 202.505 56.0788 201.723 55.4322 200.732C55.0891 200.115 53.784 200.732 54.127 201.488C54.5072 202.391 55.0963 203.19 55.846 203.821C56.5957 204.452 57.4844 204.896 58.4391 205.116C58.0147 207.401 58.3518 209.763 59.3986 211.838C59.4923 211.996 59.635 212.12 59.8053 212.19C59.9756 212.26 60.1641 212.273 60.3423 212.226C60.5204 212.18 60.6785 212.076 60.7926 211.931C60.9067 211.787 60.9705 211.609 60.9744 211.425C61.0441 210.329 60.4384 206.212 60.358 205.323C61.9334 205.297 63.464 204.794 64.7479 203.881C69.068 200.665 68.3819 193.525 67.1599 188.725C71.4425 187.302 69.8613 177.335 63.7187 178.378ZM60.2213 189.84C58.6133 191.47 56.8606 189.017 56.5176 187.509C56.1745 185.793 55.7645 181.94 58.7125 182.502C61.5051 183.025 62.2581 187.753 60.2213 189.84ZM65.5813 186.892C63.0434 186.206 60.7279 180.294 63.7991 179.552C65.9431 179.037 66.6801 180.854 67.3662 182.232C68.1783 183.66 68.3819 187.64 65.5706 186.892H65.5813Z" fill="#212941"/>
<path d="M112.484 247.857C102.056 242.229 95.7502 232.905 87.9996 224.332C81.5516 217.267 73.3213 210.752 63.2391 211.232C63.0664 211.232 62.9008 211.301 62.7786 211.423C62.6565 211.545 62.5879 211.71 62.5879 211.883C62.5879 212.056 62.6565 212.222 62.7786 212.344C62.9008 212.466 63.0664 212.534 63.2391 212.534C85.5287 215.279 91.9151 241.615 110.839 250.054C109.843 251.834 108.994 253.692 108.301 255.61C106.242 254.924 87.9326 252.59 77.9175 241.001C77.5048 240.589 76.682 241.138 77.025 241.685C83.8832 252.316 106.379 258.421 109.054 257.529C109.27 257.409 109.477 257.272 109.673 257.119C111.185 254.922 112.256 252.453 112.827 249.848C112.967 249.708 113.071 249.536 113.131 249.348C113.19 249.159 113.204 248.959 113.17 248.764C113.137 248.569 113.057 248.385 112.938 248.227C112.818 248.069 112.663 247.942 112.484 247.857Z" fill="#212941"/>
<path d="M114.199 252.04C117.709 251.956 121.144 253.068 123.938 255.194C124.554 255.462 124.967 254.658 124.691 254.165C122.978 250.462 117.49 249.912 113.992 250.531C113.169 250.738 113.376 252.118 114.199 252.04Z" fill="#212941"/>
<path d="M112.893 259.52C111.596 264.411 118.521 266.311 119.958 264.88C120.053 264.779 120.117 264.653 120.144 264.517C120.17 264.381 120.158 264.24 120.108 264.111C120.057 263.982 119.972 263.87 119.86 263.787C119.749 263.704 119.616 263.655 119.478 263.645C118.176 263.508 114.745 263.851 114.118 259.528C114.071 259.404 113.988 259.298 113.879 259.222C113.77 259.146 113.641 259.105 113.509 259.105C113.376 259.104 113.246 259.143 113.137 259.217C113.027 259.291 112.942 259.397 112.893 259.52Z" fill="#212941"/>
<path d="M115.572 258.625C116.778 261.351 120.165 263.985 123.116 262.122C123.526 261.854 123.459 261.16 122.979 261.093C121.796 261.002 120.644 260.67 119.594 260.117C118.544 259.563 117.619 258.801 116.874 257.877C116.829 257.784 116.766 257.7 116.688 257.633C116.609 257.565 116.518 257.514 116.419 257.483C116.32 257.452 116.215 257.442 116.112 257.453C116.009 257.465 115.909 257.497 115.82 257.549C115.73 257.6 115.651 257.67 115.59 257.753C115.528 257.837 115.484 257.932 115.461 258.033C115.437 258.134 115.435 258.239 115.454 258.34C115.473 258.442 115.513 258.539 115.572 258.625Z" fill="#212941"/>
<path d="M118.382 255.744C118.862 259.788 124.814 260.131 125.926 258.898C126.037 258.788 126.113 258.647 126.145 258.494C126.177 258.341 126.164 258.182 126.107 258.037C126.05 257.891 125.952 257.765 125.825 257.675C125.698 257.584 125.547 257.532 125.39 257.526C124.294 257.526 120.797 258.349 119.762 255.194C119.411 254.372 118.245 254.988 118.382 255.744Z" fill="#212941"/>
<path d="M136.765 357.455C135.532 356.493 126.2 356.919 123.732 357.723C123.524 357.787 123.345 357.924 123.229 358.109C123.112 358.293 123.066 358.514 123.099 358.73C123.131 358.945 123.24 359.142 123.405 359.285C123.571 359.427 123.782 359.505 124 359.505C126.334 359.642 132.78 358.683 133.809 358.819C134.908 358.956 135.248 359.299 134.768 359.712C132.163 362.18 120.564 369.451 118.171 365.072C117.212 363.563 122.012 360.888 122.631 358.967C123.167 357.254 122.424 309.655 120.093 305.745C118.241 302.59 81.8196 276.8 78.1186 275.018C78.0489 272.443 76.7598 255.87 72.5629 225.706C72.4932 225.02 71.2578 225.17 71.3274 225.843C71.5713 230.064 73.383 254.342 76.0684 275.286C73.8198 277.519 60.4145 290.2 43.4822 293.261C42.4531 289.697 31.7519 268.503 37.7202 248.269C39.2176 246.003 40.481 243.59 41.491 241.068C41.834 240.176 40.6682 239.766 40.0518 240.245C29.9697 247.653 22.8998 281.533 22.6988 290.656C20.0188 290.793 17.4192 291.892 15.018 290.586C15.018 290.519 9.18895 244.49 41.3543 217.406C42.1101 216.79 41.8903 215.691 40.9443 215.898C27.9811 218.915 6.78767 253.417 12.6864 290.726C12.7534 291.262 14.1952 291.959 14.4686 292.165C14.4686 305.616 25.6629 304.064 26.6786 298.886C26.7456 298.474 24.2666 296.965 24.2666 295.526C24.2666 295.046 23.4439 295.113 23.1678 295.526C22.1414 297.104 24.0603 298.742 24.473 298.956C23.7869 299.572 20.6326 302.247 18.0946 299.093C16.8436 297.238 16.1091 295.084 15.9667 292.851C18.1918 293.563 20.6081 293.365 22.6881 292.302C22.7578 292.371 24.9527 294.36 25.5691 294.36C25.7452 294.354 25.9146 294.291 26.0511 294.179C26.1877 294.068 26.2839 293.915 26.3249 293.743C26.5286 292.988 25.2958 291.272 24.0603 291.136C25.2958 282.356 29.8893 259.78 35.3779 252.592C31.1944 265.759 37.5728 288.255 41.9627 294.017C41.7456 316.566 68.2267 344.918 68.7788 346.416C69.3282 347.719 71.7964 382.904 74.7471 398.749C74.7471 398.885 75.0875 401.161 75.2831 401.903C75.3935 402.709 75.7019 403.476 76.1807 404.134C76.6596 404.792 77.2941 405.321 78.0274 405.674C78.5072 405.88 78.8502 405.194 78.5072 404.851C77.9189 404.194 77.4746 403.422 77.2028 402.583C76.9309 401.744 76.8375 400.858 76.9286 399.981C79.7033 398.502 81.9548 396.204 83.3767 393.399C85.2286 393.131 96.1335 390.183 97.5057 393.667C97.7737 394.42 98.7412 393.935 99.1512 393.461C100.47 391.923 96.8303 388.023 84.1995 391.336C85.2232 387.032 87.5334 345.877 87.1475 343.187C86.6651 339.826 71.373 303.681 69.8615 298.538C69.8099 298.345 69.8306 298.139 69.9197 297.96C70.0089 297.78 70.1603 297.64 70.3457 297.564C70.5312 297.488 70.7378 297.483 70.9269 297.549C71.116 297.615 71.2746 297.747 71.373 297.922C73.0885 300.791 74.4688 303.849 75.4868 307.034C87.7639 312.246 102.989 318.694 103.951 319.86C105.321 321.575 111.699 351.615 112.934 355.593C113.484 357.377 116.365 366.157 116.571 366.5C117.737 369.105 121.371 369.035 123.839 368.146C128.002 366.567 131.926 364.421 135.5 361.767C136.489 360.955 138.689 358.948 136.765 357.455Z" fill="#212941"/>
<path d="M181.207 128.173C180.526 126.087 179.123 124.311 177.249 123.167C175.376 122.023 173.156 121.585 170.988 121.932C170.625 120.17 169.62 118.605 168.169 117.542C165.757 115.69 159.113 114.937 153.764 120.629C152.116 122.127 150.95 124.081 150.413 126.242C149.876 128.403 149.992 130.674 150.746 132.77C149.542 134.404 148.745 136.303 148.423 138.307C148.101 140.312 148.262 142.364 148.894 144.294C150.13 147.448 155.616 151.495 158.84 149.506C159.245 152.608 159.863 155.679 160.691 158.696C160.959 159.382 161.857 159.039 162.064 158.492C162.736 155.214 162.2 151.804 160.555 148.89C162.578 150.104 162.825 148.622 162.2 148.354C161.447 148.011 158.633 144.72 161.584 142.458C162.543 141.978 163.093 142.726 163.779 143.214C164.902 144.077 166.25 142.12 165.012 140.882C164.326 139.234 166.384 136.492 166.384 136.492C169.765 137.472 173.383 137.229 176.603 135.806C178.152 135.288 179.466 134.236 180.31 132.837C181.153 131.439 181.471 129.785 181.207 128.173Z" fill="#212941"/>
<path d="M255.622 300.463C250.396 299.92 245.118 300.772 240.328 302.931C240.261 293.021 239.573 283.125 238.269 273.301C236.484 255.181 236.929 254.192 226.062 246.895C225.582 246.552 224.966 247.377 225.446 247.72C233.539 253.884 234.022 258.831 234.29 260.681C235.86 271.401 238.545 292.806 238.13 304.027C237.926 304.164 234.566 306.222 234.223 306.565C232.271 296.48 229.799 286.502 226.818 276.672C225.513 272.832 222.701 262.956 216.939 263.985C216.798 264.028 216.677 264.12 216.596 264.243C216.515 264.366 216.48 264.514 216.496 264.661C216.513 264.807 216.58 264.944 216.686 265.046C216.793 265.148 216.931 265.21 217.079 265.221C219.547 265.081 220.916 268.581 221.809 270.364C223.524 274.134 230.519 300.197 232.647 309.32C232.432 310.183 232.419 311.083 232.609 311.951C232.8 312.82 233.187 313.632 233.743 314.326C236.761 317.071 255.006 305.273 256.791 303.07C256.981 302.841 257.103 302.564 257.143 302.269C257.183 301.974 257.14 301.674 257.019 301.403C256.897 301.131 256.702 300.899 256.455 300.733C256.208 300.567 255.92 300.473 255.622 300.463Z" fill="#212941"/>
<path d="M351.987 160.202C350.267 159.044 348.557 158.007 346.775 157.048C346.281 156.921 345.766 156.898 345.263 156.981C341.082 157.517 337.239 158.83 333.538 155.882C325.801 149.884 331.488 136.063 324.482 128.586C324.214 128.318 319.956 129.27 320.299 129.819C324.758 137.157 321.398 144.221 321.258 151.972C321.167 154.281 321.555 156.584 322.399 158.735C323.243 160.886 324.524 162.839 326.161 164.47C327.799 166.101 329.756 167.374 331.911 168.21C334.065 169.046 336.37 169.425 338.678 169.325C342.109 169.325 347.112 168.639 349.72 165.964C350.887 164.232 351.661 162.265 351.987 160.202Z" fill="#3A5AB7"/>
<path d="M47.0523 322.958C46.803 321.444 46.4359 321.586 45.0637 321.929C41.8477 322.822 32.2372 325.36 28.7398 326.319C30.9723 331.143 26.7968 332.697 25.2558 330.366C24.7121 329.489 24.3612 328.507 24.2267 327.485C16.7522 329.404 8.17888 331.668 7.42312 331.942C5.43456 332.697 6.80672 337.43 8.31556 341.201C8.79528 342.367 9.41168 344.768 10.4408 345.454C10.8612 345.693 11.3304 345.833 11.813 345.864C17.173 346.277 46.4493 337.154 47.8884 336.605C48.9604 336.181 49.0435 335.962 49.3973 334.892C50.003 332.148 47.2801 324.325 47.0523 322.958Z" fill="#3A5AB7"/>
</svg>
