<svg width="308" height="308" viewBox="0 0 308 308" fill="none" xmlns="http://www.w3.org/2000/svg">
<path d="M73.9278 46.8823C78.2167 48.2082 89.6943 47.0902 102.204 46.8823C103.488 46.8607 103.488 44.7709 102.204 44.794C82.0297 45.1421 92.1137 45.5964 77.6238 45.5964C76.448 45.4648 75.2646 45.4134 74.0818 45.4424C73.1255 45.43 72.9576 46.582 73.9278 46.8823Z" fill="#212941"/>
<path d="M101.08 55.3969C101.336 55.3969 101.581 55.2953 101.762 55.1145C101.942 54.9337 102.044 54.6885 102.044 54.4328C102.044 54.1771 101.942 53.9319 101.762 53.7511C101.581 53.5703 101.336 53.4688 101.08 53.4688C71.1655 53.4688 75.2711 53.4149 74.8923 53.4688C74.7185 53.4798 74.5543 53.5519 74.4285 53.6723C74.3028 53.7927 74.2238 53.9537 74.2053 54.1268C74.1869 54.3 74.2303 54.474 74.3278 54.6182C74.4253 54.7624 74.5707 54.8675 74.7383 54.9148C83.4924 55.7689 92.3004 55.9301 101.08 55.3969Z" fill="#212941"/>
<path d="M74.2491 61.3413C74.0975 61.3671 73.9599 61.4457 73.8607 61.5632C73.7615 61.6808 73.707 61.8296 73.707 61.9834C73.707 62.1372 73.7615 62.2861 73.8607 62.4036C73.9599 62.5212 74.0975 62.5998 74.2491 62.6256C77.2275 63.6189 98.498 64.3196 103.006 63.1076C103.239 63.0217 103.435 62.8578 103.561 62.6437C103.688 62.4295 103.736 62.1784 103.698 61.9327C103.661 61.687 103.539 61.4619 103.355 61.2954C103.17 61.129 102.934 61.0315 102.685 61.0194C102.53 61.0009 74.4031 61.292 74.2491 61.3413Z" fill="#212941"/>
<path d="M85.4943 68.8919C81.9523 68.8919 78.4257 68.8919 75.0531 69.2138C74.0891 69.3678 74.0891 70.6583 75.0531 70.6583C78.5874 70.9802 82.1217 70.82 85.4943 70.82C86.6201 70.82 86.6201 68.7318 85.4943 68.8919Z" fill="#212941"/>
<path d="M17.863 133.475C25.4229 137.922 36.5786 138.956 45.1734 138.294C49.334 145.099 55.7617 150.219 63.3253 152.753C64.4449 153.094 65.0933 151.628 64.4511 150.825C61.0646 147.131 59.125 142.339 58.9887 137.33C62.0426 136.678 65.0484 135.82 67.9854 134.759C79.5785 129.325 86.4931 115.463 80.1945 103.593C68.4874 81.5307 27.277 84.7 13.5233 100.38C11.344 102.711 9.70783 105.496 8.73224 108.534C7.75665 111.572 7.46586 114.788 7.88073 117.952C8.29561 121.116 9.40586 124.149 11.1318 126.832C12.8577 129.516 15.1565 131.785 17.863 133.475ZM27.3402 110.341C28.3603 110.11 29.4296 110.26 30.3466 110.763C31.2637 111.266 31.9652 112.087 32.319 113.071C33.899 117.099 28.5044 120.744 25.4121 117.57C24.8497 117.046 24.4404 116.379 24.2279 115.64C24.0155 114.902 24.0079 114.119 24.206 113.377C24.404 112.634 24.8003 111.959 25.3524 111.424C25.9045 110.89 26.5916 110.515 27.3402 110.341ZM48.8663 112.911C49.0686 113.501 49.1447 114.127 49.0896 114.748C49.0346 115.37 48.8496 115.972 48.5468 116.517C48.2439 117.063 47.8299 117.538 47.3315 117.913C46.8332 118.288 46.2616 118.554 45.6539 118.694C44.9745 118.806 44.2782 118.755 43.6227 118.544C42.9671 118.334 42.3712 117.97 41.8843 117.483C41.3975 116.996 41.0337 116.4 40.8231 115.745C40.6125 115.089 40.5612 114.393 40.6735 113.714C40.8451 112.802 41.3078 111.97 41.9922 111.344C42.6766 110.718 43.5457 110.33 44.469 110.24C45.3923 110.149 46.32 110.361 47.1129 110.843C47.9058 111.324 48.521 112.05 48.8663 112.911ZM65.5753 113.065C65.7743 113.656 65.8479 114.281 65.7914 114.901C65.7348 115.522 65.5493 116.123 65.2467 116.668C64.9442 117.212 64.5312 117.688 64.0344 118.063C63.5375 118.439 62.9677 118.707 62.3613 118.85C61.6826 118.958 60.9878 118.904 60.3339 118.693C59.68 118.481 59.0856 118.117 58.5995 117.631C58.1135 117.145 57.7496 116.551 57.5378 115.897C57.326 115.243 57.2722 114.548 57.381 113.869C57.5162 112.93 57.9626 112.064 58.6487 111.408C59.3348 110.753 60.2209 110.347 61.1651 110.255C62.1094 110.163 63.0572 110.391 63.8568 110.901C64.6563 111.412 65.2615 112.176 65.5753 113.071V113.065Z" fill="#3A5AB7"/>
<path d="M23.966 74.998C25.5846 75.7162 27.3358 76.0872 29.1065 76.0872C30.8773 76.0872 32.6284 75.7162 34.2471 74.998C35.0066 74.6102 35.7114 74.1234 36.343 73.5504C36.653 73.2258 36.826 72.7942 36.826 72.3454C36.826 71.8965 36.653 71.4649 36.343 71.1403C35.3805 70.1763 34.4257 70.8323 33.6126 71.4622C30.3077 74.0217 21.8963 72.4709 18.3512 65.6795C14.2902 57.8994 19.4199 47.5075 27.3479 45.5963C34.3348 43.9147 40.3593 48.6964 40.3593 58.289C40.3593 66.893 34.4165 64.6123 34.4165 55.3969C34.4165 54.6577 29.6425 49.742 25.5799 53.9509C22.4784 57.1695 22.2874 63.8392 26.2221 66.16C26.8538 66.4856 27.5443 66.6817 28.2529 66.7366C28.9615 66.7915 29.6739 66.7042 30.3483 66.4798C31.0226 66.2554 31.6453 65.8984 32.1797 65.4299C32.7141 64.9613 33.1495 64.3906 33.4601 63.7514C35.2989 67.4305 38.616 67.7554 40.5287 65.8396C43.8813 62.4855 44.9069 50.6121 38.1186 44.9542C33.0459 40.7269 24.6344 40.8932 18.6792 47.0424C9.67328 56.3286 12.2143 70.2425 23.966 74.998ZM31.358 59.8968C31.204 61.6647 30.5541 63.5928 28.4659 63.4388C23.2391 63.4388 28.4536 50.7246 31.1963 56.21C31.4734 57.4185 31.5277 58.6673 31.3565 59.8953L31.358 59.8968Z" fill="#3A5AB7"/>
<path d="M191.85 47.3643C197.633 48.6502 204.255 47.6276 209.522 50.9063C214.859 54.2219 216.144 61.1919 215.466 67.1317C214.85 72.5972 212.414 77.7362 210.164 82.715C197.058 78.577 185.196 96.19 192.814 107.617C192.66 107.665 178.672 112.657 178.03 113.721C177.926 113.942 177.868 114.181 177.86 114.424C177.853 114.668 177.895 114.911 177.986 115.137C178.076 115.363 178.213 115.568 178.386 115.739C178.56 115.911 178.767 116.044 178.994 116.131C181.099 117.225 183.981 116.811 186.223 116.453C190.372 115.791 195.48 114.427 198.434 111.473C214.964 116.335 225.585 91.8333 213.053 84.0009C216.427 76.9323 219.972 69.2169 218.836 61.1889C218.438 57.8621 217.163 54.7011 215.14 52.0305C211.377 47.2642 205.658 46.1785 200.038 45.9259C197.528 45.7372 195.009 45.6858 192.492 45.7719C191.206 45.9182 190.886 47.2041 191.85 47.3643ZM212.734 88.8134C212.961 89.0418 213.097 89.3448 213.117 89.666C213.138 89.9873 213.041 90.305 212.845 90.5602C212.648 90.8154 212.366 90.9906 212.05 91.0534C211.735 91.1162 211.407 91.0623 211.128 90.9016C205.197 87.9356 201.079 91.2373 198.115 97.1663C197.633 97.9702 196.493 97.3203 196.669 96.5242C198.055 90.1778 202.661 86.7236 207.594 86.7236C209.466 86.9372 211.244 87.66 212.734 88.8134Z" fill="#212941"/>
<path d="M180.602 64.3936C181.054 68.5054 187.426 78.6786 194.739 83.9932C195.858 84.8063 197.632 83.351 198.435 82.7073C203.656 79.0529 206.651 81.8233 206.146 71.1403C205.934 66.6451 205.704 61.7879 202.612 58.289C199.598 54.8795 194.735 52.3262 190.081 53.4688C189.437 53.6228 184.919 44.1703 181.888 40.7777C174.607 32.6296 163.57 30.1594 152.97 32.5849C134.81 36.7367 137.702 51.5438 140.755 57.1648C142.255 59.7294 144.272 61.9537 146.678 63.6961C149.085 65.4386 151.827 66.661 154.732 67.2857C161.722 68.992 173.39 68.1558 180.602 64.3936ZM175.784 43.1878C176.438 44.3043 175.14 45.7581 174.016 44.9542C169.196 41.9019 164.375 39.1438 158.593 39.3316C154.254 39.4718 148.632 40.6175 146.383 44.9542C146.31 45.0703 146.214 45.1707 146.101 45.2497C145.988 45.3287 145.861 45.3847 145.727 45.4146C145.593 45.4445 145.454 45.4476 145.318 45.4239C145.183 45.4001 145.053 45.3499 144.937 45.276C144.821 45.2022 144.721 45.1063 144.642 44.9936C144.563 44.881 144.507 44.754 144.477 44.6197C144.447 44.4854 144.444 44.3465 144.468 44.211C144.492 44.0756 144.542 43.9461 144.616 43.83C149.405 32.126 170.409 34.0109 175.784 43.1878ZM146.383 49.9345C146.361 50.5591 146.529 51.1757 146.865 51.7025C147.512 53.3179 147.003 54.6839 145.259 54.2727C143.434 53.8415 142.717 50.7307 144.295 49.2924C145.375 48.3037 146.383 48.972 146.383 49.9345Z" fill="#212941"/>
<path d="M161.968 253.484C166.306 252.038 170.967 250.55 175.623 250.914C177.424 251.032 179.182 251.521 180.785 252.351C182.389 253.18 183.804 254.332 184.941 255.734C185.728 256.71 187.351 255.412 186.708 254.288C184.864 251.574 182.045 249.675 178.837 248.986C172.957 247.583 167.287 249.486 161.485 251.556C160.361 252.197 160.843 253.965 161.968 253.484Z" fill="#212941"/>
<path d="M155.22 247.218C164.129 239.518 175.507 235.33 184.942 242.237C186.057 243.054 187.511 241.275 186.388 240.309C182.763 237.399 178.173 235.965 173.536 236.293C165.692 236.558 159.252 240.67 153.776 245.932C152.955 246.719 154.27 248.039 155.22 247.218Z" fill="#212941"/>
<path d="M179.318 231.795C181.093 232.386 181.303 230.313 180.443 230.027C175.308 227.436 169.396 226.839 163.847 228.353C158.299 229.866 153.508 233.382 150.4 238.221C150.272 238.455 150.243 238.731 150.318 238.987C150.393 239.243 150.567 239.458 150.801 239.586C151.036 239.714 151.311 239.744 151.567 239.668C151.823 239.593 152.039 239.419 152.167 239.185C155.093 234.947 159.423 231.881 164.392 230.528C169.361 229.176 174.648 229.624 179.318 231.795Z" fill="#212941"/>
<path d="M157.468 84.797C158.432 85.1173 159.074 84.4751 159.556 83.6713C160.01 82.9524 160.234 82.1122 160.198 81.2627C160.044 80.137 159.236 79.1729 158.11 79.6549C156.344 80.2987 155.384 84.315 157.468 84.797Z" fill="#212941"/>
<path d="M179.478 84.4751C179.324 83.3509 178.52 82.4007 177.39 82.8689C175.791 83.5311 174.658 87.5274 176.746 88.0094C178.369 88.55 179.478 86.2092 179.478 84.4751Z" fill="#212941"/>
<path d="M163.572 71.6224C162.717 71.0584 161.697 70.7992 160.677 70.8866C159.657 70.9741 158.696 71.4031 157.95 72.1044C157.799 72.2849 157.717 72.5124 157.717 72.7473C157.717 72.9823 157.799 73.2098 157.95 73.3903C158.592 74.1942 160.038 73.2363 160.842 73.3903C161.966 73.5443 163.412 75.3184 164.384 74.1942C165.178 73.0684 164.527 72.1213 163.572 71.6224Z" fill="#212941"/>
<path d="M167.752 80.4589C168.072 79.8167 166.948 79.3347 166.626 79.9769C165.823 81.5831 160.681 91.8657 163.573 92.5078C165.153 92.89 166.769 93.1052 168.394 93.15C168.583 93.1517 168.767 93.0919 168.919 92.9797C169.072 92.8675 169.183 92.709 169.238 92.5279C169.292 92.3468 169.286 92.1529 169.221 91.9755C169.156 91.798 169.034 91.6465 168.876 91.5438C167.752 90.4196 165.984 90.9016 164.538 90.9016C165.329 87.3406 166.404 83.8486 167.752 80.4589Z" fill="#212941"/>
<path d="M159.557 103.111C159.719 103.111 162.61 102.629 163.895 102.308C164.247 104.104 165.08 105.769 166.306 107.127C167.619 108.873 169.518 110.669 171.606 110.501C176.105 110.501 177.586 104.714 177.229 101.183C177.082 99.7351 176.426 99.4163 174.98 99.4163C169.859 99.3517 164.76 100.111 159.879 101.665C158.841 102.011 158.419 103.111 159.557 103.111ZM175.141 101.665C175.141 105.053 174.013 109.397 170.964 108.413C169.73 107.857 168.647 107.012 167.808 105.949C166.969 104.887 166.399 103.638 166.144 102.308C169.13 101.938 172.133 101.724 175.141 101.665Z" fill="#212941"/>
<path d="M230.567 85.1173C232.013 84.797 260.615 74.037 263.017 70.3333C263.904 69.0521 264.431 67.5568 264.544 66.0029C264.657 64.4489 264.353 62.8931 263.661 61.4968C262.215 58.1227 254.373 52.3662 257.395 48.8057C259.831 45.9351 270.89 35.6325 273.622 32.9006C274.264 32.0982 275.228 31.1342 275.068 30.0084C275.069 29.7417 275.003 29.479 274.876 29.2445C274.749 29.0101 274.565 28.8117 274.34 28.6676C274.116 28.5235 273.858 28.4384 273.592 28.4203C273.326 28.4022 273.06 28.4516 272.818 28.5639C240.557 45.5902 237.48 47.1979 236.511 49.9299C235.662 52.3246 243.58 59.0867 244.864 61.6585C246.952 65.835 234.101 74.3497 231.691 76.7598C230.245 78.2058 225.586 81.5784 226.71 83.9885C227.514 85.279 229.281 85.279 230.567 85.1173Z" fill="#FF9500"/>
<path d="M261.732 91.2219C259.644 91.3836 257.663 91.8549 257.234 94.114C257.051 95.075 258.68 100.862 258.52 102.629C258.36 104.395 257.077 104.529 255.628 104.397C251.137 103.987 234.26 102.147 231.69 104.397C231.539 104.539 231.424 104.717 231.357 104.913C231.289 105.11 231.27 105.32 231.302 105.525C231.334 105.731 231.415 105.925 231.539 106.093C231.662 106.26 231.824 106.394 232.012 106.485C236.67 109.377 241.994 110.911 247.273 112.589C250.177 113.513 262.365 117.554 265.266 116.766C270.079 115.457 269.765 107.609 269.925 105.843C269.925 104.717 269.771 103.111 271.051 102.629C273.621 101.665 293.281 100.028 299.647 97.0062C300.944 96.3902 299.967 94.7578 299.165 94.2757C298.409 93.9138 297.592 93.6955 296.756 93.632C292.738 93.632 263.016 91.2219 261.732 91.2219Z" fill="#FF9500"/>
<path d="M141.242 268.744C143.782 268.82 146.321 268.55 148.788 267.942C155.886 266.469 174.66 259.581 175.778 260.55C177.069 261.668 177.081 264.246 176.741 265.69C176.433 266.981 175.127 267.115 174.171 267.458C169.959 268.969 151.85 274.885 147.02 276.133C145.158 276.765 143.205 277.09 141.238 277.097C138.829 276.917 45.8008 265.085 44.2023 264.726C43.8653 264.652 43.5128 264.713 43.2196 264.894C42.9264 265.076 42.7157 265.365 42.6321 265.7C42.5485 266.035 42.5987 266.389 42.772 266.687C42.9453 266.986 43.228 267.205 43.5602 267.298C47.0883 267.971 135.614 279.185 138.828 279.347C140.317 279.558 141.825 279.61 143.326 279.501C144.446 279.297 170.929 271.52 175.778 269.38C176.923 269.043 177.969 268.437 178.831 267.612C179.633 266.488 179.151 260.704 178.509 259.419C178.104 258.715 177.459 258.181 176.691 257.915C175.924 257.649 175.086 257.67 174.332 257.973C173.364 258.281 144.772 267.452 142.522 266.328C140.274 257.169 129.372 211.701 126.939 200.138C124.233 187.281 120.52 184.988 114.89 184.233C112.323 183.89 98.5027 182.465 82.2773 181.021C83.1996 176.457 84.7133 172.032 86.7803 167.86C96.992 146.058 118.435 135.035 142.206 131.231C144.127 141.53 146.595 151.719 149.598 161.755C149.672 161.937 149.791 162.097 149.944 162.22C150.097 162.343 150.279 162.424 150.472 162.457C150.666 162.489 150.864 162.471 151.049 162.405C151.234 162.338 151.398 162.226 151.526 162.077C152.812 159.989 165.504 140.87 166.31 139.747C166.31 139.909 175.145 163.845 176.271 165.773C176.344 165.89 176.44 165.991 176.552 166.071C176.664 166.151 176.792 166.207 176.926 166.237C177.06 166.267 177.2 166.27 177.335 166.245C177.471 166.221 177.6 166.17 177.716 166.095C189.066 158.241 214.004 134.607 214.345 134.607C231.583 139.911 248.687 148.208 260.292 161.917C276.034 180.523 279.519 205.829 275.076 227.144C268.608 258.11 248.266 266.985 220.614 266.985C210.168 267.002 199.757 265.761 189.608 263.289C189.48 263.254 189.346 263.244 189.215 263.261C189.083 263.278 188.956 263.321 188.842 263.388C188.727 263.454 188.627 263.543 188.547 263.649C188.468 263.756 188.41 263.876 188.378 264.005C188.346 264.134 188.34 264.268 188.36 264.399C188.38 264.53 188.427 264.655 188.496 264.768C188.566 264.881 188.658 264.979 188.766 265.056C188.874 265.132 188.996 265.187 189.126 265.216C192.72 266.463 196.437 267.325 200.214 267.788C235.634 273.267 265.377 267.982 275.881 233.567C280.15 219.584 279.918 203.015 276.846 190.031C270.539 163.426 251.942 146.3 226.869 136.687C217.829 133.328 208.536 130.696 199.077 128.815C199.231 127.048 200.041 119.176 200.523 117.088C200.545 116.993 200.548 116.894 200.531 116.798C200.515 116.701 200.48 116.609 200.428 116.527C200.375 116.444 200.307 116.372 200.228 116.316C200.148 116.26 200.057 116.22 199.962 116.199C199.867 116.178 199.768 116.176 199.672 116.193C199.576 116.21 199.484 116.246 199.402 116.298C199.319 116.351 199.248 116.419 199.193 116.5C199.137 116.58 199.098 116.67 199.077 116.766C198.035 120.668 197.284 124.642 196.829 128.655C193.133 129.779 169.357 135.885 167.107 136.367C166.786 136.521 161.324 130.583 159.561 128.975C159.722 128.171 159.722 120.46 159.722 119.014C161.811 119.168 163.742 119.134 165.665 119.336C166.954 119.47 167.279 117.216 165.987 116.926C160.301 115.646 155.039 117.778 149.922 113.384C148.835 112.207 148.257 110.647 148.316 109.046C148.751 95.9618 151.357 83.041 156.026 70.8108C156.334 70.0038 154.907 69.3662 154.58 70.1686C151.139 78.3136 148.658 86.8318 147.188 95.5509C146.412 99.9046 145.929 104.306 145.742 108.724C145.615 110.728 146.183 112.714 147.348 114.348C149.946 117.641 153.77 118.708 157.951 119.007C157.797 120.453 157.469 127.361 157.469 128.003C149.026 127.907 140.605 128.881 132.406 130.9C116.972 134.607 105.488 140.939 96.0942 150.343C87.735 158.697 81.9857 169.303 79.5469 180.867C60.4293 179.1 38.7461 177.114 29.2612 176.208C11.2787 174.491 10.4732 179.743 12.3936 186.169C14.314 192.595 39.8703 257.18 39.8703 257.18C39.8703 257.18 138.51 268.422 141.242 268.744ZM197.471 130.583C202.237 131.47 206.955 132.596 211.608 133.957C199.334 144.695 190.672 153.755 177.228 163.833C176.354 162.087 168.252 140.804 167.75 138.289C167.904 138.25 196.832 130.583 197.471 130.583ZM165.018 137.651C165.018 138.309 163.803 137.896 150.559 159.179C147.658 149.953 145.298 140.566 143.491 131.065C147.989 130.423 152.648 130.101 157.308 129.779C157.439 129.845 164.915 137.547 165.018 137.651ZM60.1121 190.024C65.8948 190.667 103.488 192.434 108.314 193.72C109.473 193.978 110.561 194.486 111.505 195.207C112.448 195.928 113.223 196.846 113.776 197.896C115.641 201.464 119.239 217.496 119.721 221.674C119.701 221.926 119.591 222.162 119.411 222.34C119.232 222.518 118.995 222.627 118.743 222.645C118.491 222.664 118.24 222.592 118.037 222.442C117.833 222.292 117.69 222.074 117.633 221.828C116.989 220.382 112.17 199.498 110.724 197.89C109.129 196.448 107.087 195.597 104.94 195.48C90.0019 193.207 74.8976 193.232 59.9581 191.143C59.3082 191.31 59.3082 190.024 60.1121 190.024ZM34.8899 213.479C35.8263 215.74 48.2156 244.167 48.7053 246.414C48.7908 246.724 48.7592 247.054 48.6164 247.342C48.4737 247.63 48.2298 247.855 47.9315 247.974C47.6332 248.093 47.3013 248.099 46.9995 247.989C46.6976 247.879 46.4468 247.661 46.2952 247.378C45.6253 246.107 36.7071 222.561 33.4439 213.806C33.142 212.99 34.5588 212.674 34.8899 213.479Z" fill="#212941"/>
<path d="M222.375 211.873C221.058 215.111 219.098 218.048 216.613 220.506C214.128 222.963 211.17 224.891 207.918 226.172C203.954 227.596 199.755 228.25 195.547 228.099C194.583 228.099 194.266 229.682 195.393 229.867C199.281 230.389 203.237 230.056 206.983 228.89C210.729 227.725 214.175 225.755 217.081 223.118C223.034 217.771 225.705 210.658 226.398 202.716C226.925 197.589 226.925 192.421 226.398 187.293C226.265 186.164 224.61 186.169 224.631 187.293C224.756 194.548 224.873 205.553 222.375 211.873Z" fill="#212941"/>
<path d="M180.603 76.6027C182.092 76.4564 181.846 78.2474 182.531 79.0128C182.667 79.2217 182.863 79.3845 183.094 79.4797C183.324 79.5748 183.578 79.5978 183.822 79.5455C184.066 79.4933 184.288 79.3683 184.459 79.1872C184.63 79.006 184.743 78.7771 184.781 78.5307C185.243 76.7582 183.016 74.5036 181.407 74.0324C180.284 73.7044 177.865 74.1864 177.711 75.8003C177.716 77.1863 179.231 76.7397 180.603 76.6027Z" fill="#212941"/>
<path d="M161.351 147.146C159.368 150.132 157.124 153.518 155.27 156.332C155.647 159.845 156.665 163.261 158.273 166.408L142.689 210.107L150.882 228.587L167.751 214.611L166.948 166.896C169.549 165.002 171.735 162.597 173.374 159.827C173.873 158.885 169.399 148.87 169.036 147.778C166.467 148.31 163.799 148.09 161.351 147.146ZM162.289 162.874C161.485 163.677 157.295 160.462 158.273 154.521C158.427 153.557 160.039 153.877 160.039 154.675C159.397 159.339 163.085 161.909 162.289 162.874Z" fill="#3A5AB7"/>
<path d="M121.161 65.6795C121.161 64.2334 117.311 61.0194 110.073 52.8266C110.073 32.3801 110.723 33.2117 109.269 33.0669C99.666 32.7835 77.7533 31.5746 67.1782 34.5114C66.961 34.5114 66.5514 34.8441 66.536 35.4755C66.382 42.0682 66.2141 48.6502 66.382 55.3969C66.382 55.3969 58.374 64.5661 57.8673 65.3576C57.526 65.8815 57.3579 66.4994 57.3868 67.124C57.3868 69.9591 56.8324 85.3869 56.7539 88.6101C57.527 88.7435 58.2934 88.8975 59.0531 89.0721C58.7205 85.9043 58.9792 70.7784 58.8314 68.4145C59.1532 68.7364 76.8247 86.086 77.3114 86.4079C76.9448 86.7744 78.5819 85.2436 69.9994 93.2547C70.6391 93.6274 71.2617 94.0216 71.8675 94.4374C85.8815 81.5938 89.5975 78.6201 89.8423 78.3752C91.6103 80.3033 118.6 105.365 119.082 105.847C106.712 106.65 94.3407 107.292 81.9683 106.971C82.2574 107.753 82.4729 108.56 82.612 109.382C95.5845 109.604 108.56 109.175 121.489 108.096C122.133 108.096 122.775 107.614 122.615 106.971C122.446 96.2023 121.321 68.7318 121.161 65.6795ZM89.0308 76.2824C87.9143 77.0986 79.3904 85.2791 78.9083 85.1174C76.4998 83.6713 68.6273 76.4425 68.7875 75.6387C69.1093 73.0684 67.9851 39.0098 68.1453 36.2793C70.3937 35.7973 80.6763 34.8733 83.4067 34.8333C88.8706 34.7532 105.256 35.1551 107.987 35.3153C107.987 35.4693 107.44 65.7334 108.791 74.5145C108.945 75.1566 98.9884 84.3166 98.8298 84.1533C92.0014 77.1648 90.3259 75.3322 89.0308 76.2824ZM100.119 85.2791C103.887 82.3654 112.841 72.8821 118.599 68.088C119.717 85.4423 119.883 95.1243 119.883 103.306C116.246 99.7397 120.508 103.818 100.116 85.2791H100.119Z" fill="#212941"/>
</svg>
