<svg width="308" height="308" viewBox="0 0 308 308" fill="none" xmlns="http://www.w3.org/2000/svg">
<path d="M103.675 70.5643C103.263 69.9501 102.713 69.4411 102.068 69.0782C101.424 68.7152 100.703 68.5085 99.9647 68.4746C98.7272 68.5463 97.5557 69.0562 96.6599 69.9129C96.4484 69.065 95.9928 68.2977 95.3495 67.7061C94.7063 67.1146 93.9035 66.7248 93.0409 66.585C91.4629 66.4501 89.877 66.7274 88.4385 67.3896C86.9999 68.0518 85.7579 69.0762 84.8342 70.3626C83.2049 65.1174 75.0968 65.2806 72.8068 72.2953C70.1318 70.9586 66.2141 72.052 64.1751 76.1853C61.9313 80.7792 61.5941 88.3359 65.2762 95.6987C65.5226 96.1253 66.0847 95.7433 65.9061 95.3168C65.883 95.2721 65.8599 95.2043 65.8383 95.1628C66.5378 94.618 67.398 94.3202 68.2845 94.3161C69.1711 94.3119 70.034 94.6015 70.7386 95.1397C70.8508 95.2085 70.9831 95.2372 71.1138 95.221C71.2445 95.2048 71.3658 95.1446 71.4578 95.0503C74.6477 91.5442 76.3347 86.9265 76.1563 82.1898C82.1564 83.9265 88.5186 83.9798 94.547 82.3438C97.558 81.7428 100.344 80.3196 102.595 78.232C104.438 76.23 105.389 72.9667 103.675 70.5643ZM98.5479 78.8157C96.9386 79.6195 96.1132 78.3136 97.3575 77.4435C98.1283 77.0299 98.8002 76.454 99.3269 75.7555C99.8535 75.0571 100.222 74.2528 100.408 73.3979C100.463 73.2037 100.588 73.0366 100.758 72.9286C100.929 72.8206 101.133 72.7793 101.332 72.8127C101.531 72.8342 101.715 72.929 101.848 73.0788C101.981 73.2286 102.054 73.4225 102.051 73.6228C101.916 74.7027 101.529 75.7355 100.92 76.6377C100.311 77.5399 99.4986 78.286 98.5479 78.8157Z" fill="#FF9500"/>
<path d="M121.637 161.096C121.3 158.534 121.052 155.927 120.581 153.386C120.513 152.982 119.861 153.078 119.861 153.476C120.12 158.05 120.63 162.605 121.389 167.122C121.402 167.775 121.571 168.415 121.883 168.989C121.937 169.041 122.002 169.078 122.074 169.097C122.146 169.116 122.222 169.117 122.294 169.099C122.366 169.081 122.432 169.045 122.487 168.994C122.541 168.943 122.581 168.879 122.604 168.809C122.787 168.381 122.595 168.04 121.637 161.096Z" fill="#212941"/>
<path d="M83.2617 95.8111C83.2617 97.1648 84.4521 98.1951 85.5086 97.1371C85.7556 96.8957 85.9144 96.5784 85.9593 96.236C86.0043 95.8936 85.9329 95.546 85.7565 95.249C85.6191 94.9937 85.402 94.7904 85.1382 94.6702C84.8744 94.5499 84.5785 94.5193 84.2957 94.583C84.0129 94.6467 83.7587 94.8013 83.572 95.023C83.3853 95.2448 83.2763 95.5216 83.2617 95.8111Z" fill="#212941"/>
<path d="M94.5704 96.7551C95.3881 98.2874 96.8572 97.3095 96.9974 96.193C97.0574 95.8567 96.9851 95.5102 96.7956 95.2259C95.6468 93.7352 93.5724 94.8871 94.5704 96.7551Z" fill="#212941"/>
<path d="M85.9581 103.679C87.0645 104.251 88.2453 104.665 89.4662 104.911C90.0317 104.964 90.5986 104.825 91.0751 104.516C91.5517 104.207 91.9099 103.746 92.0919 103.208C92.3463 102.046 92.3537 100.843 92.1135 99.6781C91.8508 96.6022 91.3169 93.5555 90.518 90.5736C90.3378 90.2132 89.8435 90.4196 89.8204 90.7522C89.8163 91.3814 89.8918 92.0085 90.0452 92.6187C90.6029 95.6972 90.9859 98.8047 91.1925 101.926C91.1694 102.85 90.8106 103.725 89.7757 103.774C88.5176 103.842 87.4149 102.943 86.2692 102.561C86.1285 102.541 85.9854 102.573 85.8665 102.651C85.7476 102.728 85.6611 102.847 85.623 102.983C85.5849 103.12 85.5979 103.266 85.6596 103.394C85.7212 103.522 85.8273 103.623 85.9581 103.679Z" fill="#212941"/>
<path d="M84.7905 107.906C83.3075 107.412 82.9256 105.793 82.2726 104.578C82.0262 104.129 81.4179 104.466 81.4857 104.916C81.9292 107.757 83.9143 109.844 86.9943 109.188C89.332 108.726 89.5476 107.686 88.9963 107.48C88.2232 107.273 86.6447 108.545 84.7905 107.906Z" fill="#212941"/>
<path d="M80.0919 90.1685C80.3056 89.6849 80.5693 89.2251 80.8788 88.7964C81.4451 87.9629 82.2098 87.2834 83.1041 86.819C83.5769 86.5711 84.0712 86.4587 84.544 86.2123C84.6258 86.1609 84.689 86.0846 84.7243 85.9947C84.7595 85.9047 84.7649 85.8058 84.7398 85.7126C84.7146 85.6193 84.6601 85.5365 84.5844 85.4765C84.5087 85.4165 84.4157 85.3824 84.3192 85.3792C83.4434 85.504 82.6076 85.8267 81.8751 86.3227C81.1427 86.8187 80.5328 87.4751 80.0919 88.242C79.7913 88.756 79.5858 89.3199 79.4851 89.9067C79.271 90.2733 79.9425 90.5166 80.0919 90.1685Z" fill="#212941"/>
<path d="M93.8942 86.3016C94.6713 86.776 95.3885 87.3422 96.0302 87.9879C96.6255 88.6403 97.0707 89.4151 97.3346 90.2579C97.447 90.6182 97.6719 91.5623 98.234 91.2697C98.7068 91.0233 98.4588 90.2132 98.3464 89.8313C97.856 88.3858 96.9091 87.1389 95.6483 86.2785C95.1851 85.9958 94.675 85.7981 94.1422 85.6949C94.0657 85.6781 93.9857 85.6888 93.9163 85.7253C93.8469 85.7617 93.7926 85.8214 93.763 85.8939C93.7334 85.9665 93.7303 86.0471 93.7543 86.1217C93.7783 86.1963 93.8279 86.26 93.8942 86.3016Z" fill="#212941"/>
<path d="M171.547 126.881C171.474 126.065 171.192 125.281 170.727 124.606C170.262 123.932 169.63 123.389 168.893 123.031C167.548 122.498 166.131 122.164 164.689 122.04C163.229 121.796 161.738 121.811 160.283 122.085C159.744 122.198 159.901 122.963 160.419 123.009C162.996 122.943 165.57 123.246 168.062 123.908C168.952 124.228 169.69 124.87 170.13 125.707C170.541 126.538 170.742 127.456 170.715 128.382C170.67 128.69 171.142 128.719 171.233 128.45C171.448 127.955 171.555 127.42 171.547 126.881Z" fill="#212941"/>
<path d="M164.51 117.753C165.596 118.126 166.574 118.759 167.358 119.598C168.142 120.437 168.707 121.455 169.005 122.564C169.032 122.666 169.098 122.753 169.189 122.807C169.281 122.86 169.389 122.875 169.491 122.848C169.593 122.821 169.681 122.755 169.734 122.664C169.787 122.573 169.802 122.464 169.775 122.362C169.623 121.088 169.09 119.889 168.246 118.922C165.929 116.704 162.864 115.437 159.658 115.371C159.119 115.348 158.219 115.28 157.882 115.797C157.837 115.876 157.82 115.967 157.832 116.056C157.844 116.145 157.886 116.228 157.95 116.292C158.31 116.674 159.097 116.561 159.591 116.561C161.295 116.621 162.968 117.027 164.51 117.753Z" fill="#212941"/>
<path d="M164.668 112.178C165.702 112.793 166.593 113.623 167.279 114.612C167.966 115.601 168.432 116.726 168.647 117.91C168.715 118.315 169.321 118.203 169.343 117.821C169.333 116.797 169.103 115.787 168.669 114.86C168.235 113.933 167.606 113.11 166.825 112.448C164.562 110.544 161.784 109.355 158.845 109.03C158.184 108.806 157.472 108.782 156.798 108.963C156.741 108.995 156.692 109.041 156.655 109.095C156.618 109.15 156.594 109.212 156.586 109.278C156.577 109.343 156.584 109.41 156.605 109.472C156.626 109.534 156.662 109.591 156.709 109.637C157.248 110.11 158.126 110.064 158.8 110.199C160.864 110.479 162.856 111.151 164.668 112.178Z" fill="#212941"/>
<path d="M159.339 105.635C161.29 105.678 163.171 106.366 164.69 107.592C165.771 108.277 166.648 109.24 167.229 110.38C167.367 110.77 167.556 111.14 167.792 111.481C167.835 111.524 167.889 111.555 167.948 111.57C168.007 111.586 168.069 111.586 168.128 111.571C168.187 111.555 168.241 111.525 168.285 111.482C168.329 111.439 168.36 111.385 168.377 111.327C168.457 110.852 168.386 110.365 168.173 109.933C167.337 107.839 164.575 106.1 162.442 105.256C161.414 104.791 160.248 104.736 159.181 105.102C158.889 105.182 159.046 105.632 159.339 105.635Z" fill="#212941"/>
<path d="M160.506 130.298C162.177 128.942 164.116 127.954 166.195 127.398C168.437 126.837 167.926 127.178 167.926 126.925C167.785 126.645 167.544 126.429 167.251 126.319C164.968 125.737 162.615 125.472 160.26 125.532C159.539 125.475 158.862 125.163 158.351 124.652C157.84 124.141 157.528 123.465 157.471 122.744C157.417 122.038 157.619 121.335 158.04 120.765C158.462 120.196 159.074 119.797 159.765 119.641C161.362 119.273 162.322 119.522 160.888 119.236C160.271 119.146 159.647 119.108 159.023 119.124C154.221 119.124 154.047 112.874 159.225 112.874H159.45C157.602 112.479 156.4 112.636 155.138 111.57C154.702 111.194 154.386 110.698 154.228 110.144C154.071 109.591 154.078 109.003 154.25 108.454C154.422 107.904 154.751 107.417 155.196 107.052C155.642 106.688 156.184 106.461 156.756 106.4C156.59 105.994 156.522 105.554 156.557 105.117C156.592 104.679 156.73 104.256 156.959 103.882C156.69 103.388 156.442 102.894 156.173 102.398C154.149 102.345 152.134 102.681 150.237 103.388C148.323 104.31 146.687 105.721 145.494 107.48C146.831 110.153 146.418 109.277 147.584 111.57C147.584 111.293 147.575 111.57 147.652 110.401C147.722 109.655 148.066 108.961 148.619 108.454C149.171 107.947 149.893 107.663 150.642 107.658C151.293 107.656 151.926 107.871 152.439 108.271C152.953 108.67 153.317 109.231 153.474 109.862C154.051 113.068 153.34 116.372 151.496 119.057C153.025 121.934 157.7 130.703 158.555 132.164C159.115 131.454 159.772 130.826 160.506 130.298Z" fill="#212941"/>
<path d="M154.595 101.178C154.888 101.178 155.202 101.155 155.495 101.178C155.134 100.48 153.448 97.3558 152.954 96.4795C152.712 95.9203 152.304 95.4492 151.785 95.1305C149.013 93.612 144.122 96.1993 142.14 98.6155C141.267 99.5857 141.668 99.7212 142.118 100.684C142.477 101.403 144.428 105.338 145.063 106.574C146.227 103.895 149.572 101.394 154.595 101.178Z" fill="#212941"/>
<path d="M168.196 128.251C167.598 128.311 167.005 128.414 166.421 128.559C164.469 129.105 162.643 130.029 161.048 131.279C159.917 132.157 159.613 132.594 159.158 132.965C159.751 133.558 164.682 135.446 167.185 136.787C167.255 136.829 167.333 136.854 167.415 136.861C167.496 136.867 167.577 136.855 167.653 136.826C167.729 136.796 167.797 136.749 167.852 136.689C167.908 136.629 167.948 136.558 167.972 136.479C168.606 134.612 169.146 132.714 169.59 130.792C169.135 130.551 168.761 130.182 168.513 129.73C168.265 129.279 168.155 128.765 168.196 128.251Z" fill="#212941"/>
<path d="M84.7445 263.634C86.7141 255.95 89.7804 248.59 93.849 241.78H92.8834C94.431 244.381 95.661 247.159 96.5471 250.053C98.0101 254.376 100.551 262.593 101.336 264.554C101.378 264.675 101.464 264.776 101.578 264.836C101.691 264.895 101.823 264.91 101.947 264.875C102.07 264.841 102.176 264.76 102.242 264.65C102.308 264.54 102.33 264.409 102.302 264.284C101.899 262.666 101.336 261.113 100.819 259.518C98.6631 252.873 96.6272 245.562 93.8043 241.192C93.7534 241.109 93.6823 241.041 93.5977 240.994C93.513 240.947 93.4177 240.922 93.3208 240.922C93.2239 240.922 93.1286 240.947 93.0439 240.994C92.9593 241.041 92.8881 241.109 92.8372 241.192C87.5135 249.956 84.5505 259.127 84.0023 263.403C83.9576 263.905 84.589 264.11 84.7445 263.634Z" fill="#212941"/>
<path d="M129.753 218.2C133.681 228.077 137.036 238.173 139.802 248.438C141.342 254.214 141.257 255.281 142.05 257.205C142.23 257.61 142.882 257.61 142.86 257.092C142.77 255.754 142.544 254.429 142.186 253.136C139.735 242.524 136.434 232.127 132.316 222.045C131.778 220.633 131.147 219.258 130.428 217.93C130.384 217.853 130.314 217.794 130.23 217.765C130.147 217.735 130.055 217.737 129.973 217.77C129.89 217.803 129.823 217.865 129.782 217.944C129.742 218.023 129.732 218.114 129.753 218.2Z" fill="#212941"/>
<path d="M210.619 165.661C210.568 164.996 209.665 164.829 208.932 164.829C206.304 164.745 188.495 164.74 182.224 164.983C182.147 164.96 182.065 164.959 181.987 164.979C181.909 165 181.838 165.041 181.783 165.099C181.727 165.158 181.688 165.23 181.671 165.309C181.654 165.387 181.659 165.469 181.685 165.545C180.941 169.948 181.285 186.687 181.753 191.647C181.804 192.318 182.711 192.478 183.438 192.478C186.24 192.568 203.998 192.562 210.146 192.324C210.223 192.348 210.305 192.349 210.383 192.329C210.461 192.309 210.532 192.267 210.588 192.209C210.643 192.152 210.682 192.079 210.7 192.001C210.717 191.922 210.713 191.84 210.686 191.764C211.423 187.407 211.081 170.578 210.619 165.661ZM182.943 191.379C182.877 189.739 182.742 188.097 182.674 186.451C182.149 173.299 182.78 168.639 182.561 165.769C183.348 165.79 209.382 165.903 209.382 165.903C209.468 168.009 209.745 171.12 209.809 175.913C210.013 186.305 209.571 188.975 209.764 191.514C202.381 191.302 182.789 191.379 182.943 191.379Z" fill="#212941"/>
<path d="M228.334 58.694C228.394 58.694 297.611 58.8696 299.038 58.7387C299.55 58.7387 299.642 58.694 299.808 58.694C300.301 58.694 300.461 57.9749 299.962 57.8624C299.776 57.8624 299.711 57.8178 299.513 57.8178C299.44 57.8178 299.152 57.7731 299.152 57.7731C299.089 57.7731 297.826 57.6807 297.331 57.6607C295.51 57.616 228.291 57.7285 228.291 57.7285C227.683 57.75 227.683 58.7618 228.334 58.694Z" fill="#3A5AB7"/>
<path d="M300.004 92.8436C299.818 92.8436 299.753 92.7989 299.554 92.7989C299.483 92.7989 299.194 92.7543 299.194 92.7543C299.131 92.7543 297.869 92.6619 297.374 92.6418C295.552 92.5972 228.332 92.7096 228.332 92.7096C227.681 92.7758 227.681 93.7876 228.332 93.7429C228.395 93.7429 297.608 93.9185 299.037 93.7876C299.548 93.7876 299.64 93.7429 299.807 93.7429C300.23 93.7429 300.555 92.9699 300.004 92.8436Z" fill="#3A5AB7"/>
<path d="M300.004 128.162C299.818 128.162 299.753 128.117 299.554 128.117C299.483 128.117 299.194 128.073 299.194 128.073C299.131 128.073 297.869 127.979 297.374 127.96C295.552 127.914 228.332 128.026 228.332 128.026C227.681 128.094 227.681 129.104 228.332 129.061C228.395 129.061 297.608 129.237 299.037 129.106C299.548 129.106 299.64 129.061 299.807 129.061C300.23 129.061 300.555 128.282 300.004 128.162Z" fill="#3A5AB7"/>
<path d="M269.43 170.202C266.658 170.048 228.173 170.247 228.357 170.247C227.705 170.315 227.682 171.325 228.357 171.282C228.774 171.234 269.054 171.525 270.399 171.303H270.488C270.527 171.305 270.565 171.298 270.6 171.282C270.613 171.283 270.625 171.282 270.637 171.278C270.649 171.274 270.659 171.268 270.668 171.259C270.713 171.259 270.757 171.236 270.802 171.236C271.324 171.236 271.466 170.515 270.956 170.404C270.924 170.404 270.679 170.336 270.619 170.336C270.607 170.338 270.594 170.337 270.583 170.333C270.571 170.329 270.56 170.323 270.551 170.315C270.506 170.315 270.483 170.315 270.46 170.292C270.415 170.291 270.37 170.283 270.326 170.27C270.081 170.27 269.746 170.219 269.43 170.202Z" fill="#3A5AB7"/>
<path d="M270.886 171.259C270.873 171.257 270.861 171.259 270.849 171.263C270.837 171.267 270.827 171.273 270.818 171.282C270.799 171.259 270.958 171.236 270.886 171.259Z" fill="#3A5AB7"/>
<path d="M300.004 139.515C299.818 139.515 299.753 139.47 299.554 139.47C299.483 139.47 299.194 139.425 299.194 139.425C299.131 139.425 297.869 139.333 297.374 139.313C295.552 139.268 228.332 139.381 228.332 139.381C227.681 139.447 227.681 140.459 228.332 140.414C228.395 140.414 297.608 140.59 299.037 140.459C299.548 140.459 299.64 140.414 299.807 140.414C300.23 140.414 300.555 139.641 300.004 139.515Z" fill="#3A5AB7"/>
<path d="M300.004 179.892C299.762 179.892 299.468 179.773 297.374 179.689C295.552 179.644 228.332 179.757 228.332 179.757C227.681 179.824 227.681 180.835 228.332 180.791C228.569 180.767 297.443 180.981 299.037 180.836C299.548 180.836 299.64 180.791 299.807 180.791C300.25 180.796 300.548 179.991 300.004 179.892Z" fill="#3A5AB7"/>
<path d="M258.369 68.5639C258.248 68.507 258.119 68.469 257.986 68.4515H257.964C257.388 68.1635 228.156 68.4068 228.312 68.4068C227.682 68.4961 227.637 69.4848 228.312 69.4402C229.032 69.3847 257.367 69.7143 258.257 69.4186C258.302 69.4186 258.323 69.3955 258.369 69.3955C258.43 69.3853 258.484 69.3536 258.523 69.3062H258.545C258.751 69.0582 258.751 68.6532 258.369 68.5639ZM257.986 68.4746C258.077 68.4746 258.278 68.5408 258.032 68.4746H257.986Z" fill="#3A5AB7"/>
<path d="M195.017 71.4868C195.28 71.746 195.635 71.8913 196.005 71.8913C196.375 71.8913 196.73 71.746 196.994 71.4868C203.02 64.5399 216.687 48.6671 217.519 47.6784C218.461 46.657 219.215 45.4772 219.746 44.1934C220.037 43.4527 219.071 42.8444 218.465 43.2047C216.543 44.5374 214.869 46.1958 213.518 48.105C212.035 49.8375 197.31 66.8545 195.937 68.4515C194.567 67.0347 188.361 60.7854 187.913 60.3357C187.452 59.8471 186.903 59.4505 186.294 59.1668C185.484 58.6263 184.472 59.6843 184.966 60.4928C185.781 61.714 183.602 59.7767 195.017 71.4868Z" fill="#3A5AB7"/>
<path d="M189.216 99.7227C190.054 100.617 195.174 105.951 196.905 107.731C197.169 107.99 197.525 108.135 197.895 108.135C198.265 108.135 198.62 107.99 198.884 107.731C204.909 100.784 218.578 84.9126 219.409 83.9239C220.35 82.9019 221.103 81.7222 221.635 80.4389C221.927 79.6966 220.96 79.0898 220.353 79.4502C218.431 80.7829 216.757 82.4413 215.407 84.3505C213.924 86.0814 199.198 103.1 197.826 104.695C196.456 103.28 190.251 97.0293 189.801 96.5796C189.341 96.0907 188.792 95.694 188.183 95.4107C187.373 94.8717 186.361 95.9282 186.855 96.7382C187.61 97.864 186.458 96.7767 189.216 99.7227Z" fill="#3A5AB7"/>
<path d="M221.59 118.247C219.673 119.586 218 121.244 216.643 123.149C215.16 124.88 200.435 141.899 199.063 143.494C197.692 142.077 191.488 135.828 191.038 135.378C190.578 134.889 190.029 134.493 189.421 134.209C188.611 133.67 187.599 134.727 188.093 135.535C188.253 135.796 188.396 136.067 188.522 136.345C189.048 137.202 197.993 146.374 198.143 146.529C198.407 146.789 198.762 146.935 199.132 146.935C199.502 146.935 199.857 146.789 200.121 146.529C206.147 139.583 219.816 123.711 220.647 122.721C221.589 121.7 222.342 120.52 222.873 119.236C223.185 118.495 222.223 117.892 221.59 118.247Z" fill="#3A5AB7"/>
<path d="M208.573 61.908C208.709 70.7861 208.33 73.7799 208.507 76.093C207.72 76.0714 181.686 75.959 181.686 75.959C181.551 72.6557 181.084 69.0198 181.258 55.7249C181.281 53.9493 181.438 52.129 181.304 50.3519C182.091 50.375 208.1 50.4874 208.1 50.4874C208.37 50.1948 208.618 49.9027 208.843 49.6111C208.612 49.3801 207.9 49.431 207.672 49.431C205.034 49.3447 187.263 49.3416 180.966 49.585C180.888 49.562 180.806 49.5608 180.729 49.5813C180.651 49.6018 180.58 49.6434 180.524 49.7014C180.468 49.7595 180.43 49.8318 180.412 49.9103C180.395 49.9889 180.399 50.0708 180.425 50.1471C179.68 54.5561 180.028 71.3005 180.493 76.2485C180.545 76.92 181.451 77.0801 182.179 77.0801C184.819 77.1648 202.59 77.1694 208.887 76.9261C208.964 76.9497 209.046 76.9515 209.124 76.9312C209.202 76.911 209.273 76.8695 209.329 76.8115C209.385 76.7534 209.424 76.681 209.441 76.6023C209.458 76.5235 209.453 76.4416 209.426 76.3656C209.846 71.0857 209.973 65.7867 209.808 60.4928C209.383 60.9425 208.98 61.4368 208.573 61.908Z" fill="#212941"/>
<path d="M208.909 99.9922C208.976 106.756 208.671 110.387 208.82 112.357C208.033 112.335 182 112.223 182 112.223C181.864 108.933 181.397 105.284 181.573 91.9888C181.595 90.2132 181.753 88.3929 181.618 86.6158C182.405 86.6389 208.438 86.7513 208.438 86.7513C208.46 87.3134 208.483 87.8971 208.528 88.4592C208.933 87.9879 209.338 87.5151 209.72 87.0655C209.63 86.3524 209.758 85.6949 207.989 85.6949C205.668 85.6194 187.525 85.6071 181.28 85.8489C181.203 85.8257 181.121 85.8243 181.043 85.8448C180.965 85.8653 180.895 85.9069 180.839 85.965C180.783 86.0232 180.745 86.0956 180.727 86.1743C180.71 86.253 180.715 86.3349 180.741 86.411C179.991 90.8431 180.364 107.792 180.808 112.512C180.86 113.176 181.759 113.344 182.494 113.344C184.815 113.418 202.957 113.432 209.202 113.19C209.279 113.214 209.361 113.215 209.439 113.195C209.517 113.175 209.588 113.133 209.644 113.075C209.7 113.017 209.738 112.945 209.756 112.866C209.773 112.787 209.768 112.706 209.741 112.629C210.136 107.951 210.272 103.254 210.146 98.56C209.749 99.022 209.315 99.4979 208.909 99.9922Z" fill="#212941"/>
<path d="M209.54 139.493C209.54 147.976 209.282 148.271 209.451 150.509C208.664 150.486 182.63 150.373 182.63 150.373C182.495 147.07 182.028 143.443 182.204 130.141C182.225 128.364 182.382 126.543 182.248 124.768C183.035 124.789 209.069 124.902 209.069 124.902C209.114 125.892 209.181 126.881 209.223 127.892C209.65 127.42 210.055 126.948 210.437 126.499C210.283 124.497 210.591 123.868 208.616 123.868C206.289 123.793 188.102 123.782 181.908 124.022C181.831 123.999 181.749 123.998 181.671 124.019C181.593 124.039 181.522 124.081 181.467 124.139C181.411 124.197 181.372 124.269 181.355 124.348C181.337 124.426 181.342 124.508 181.367 124.585C180.616 129.035 180.995 145.99 181.435 150.684C181.488 151.357 182.393 151.518 183.122 151.518C185.458 151.593 203.625 151.602 209.83 151.364C209.907 151.387 209.989 151.388 210.067 151.368C210.145 151.347 210.215 151.306 210.271 151.247C210.327 151.189 210.366 151.117 210.383 151.038C210.4 150.959 210.395 150.878 210.369 150.801C210.885 147.751 210.797 137.427 210.797 138.078C210.366 138.526 209.967 139.02 209.54 139.493Z" fill="#212941"/>
<path d="M99.7172 204.193C95.3282 205.481 90.8138 206.295 86.2514 206.622C84.7114 206.714 82.6786 206.69 82.8342 206.69C82.4433 206.656 82.0497 206.679 81.6653 206.757C81.5669 206.791 81.4815 206.855 81.4211 206.939C81.3606 207.024 81.3281 207.125 81.3281 207.229C81.3281 207.333 81.3606 207.435 81.4211 207.519C81.4815 207.604 81.5669 207.668 81.6653 207.701C82.0455 207.806 82.441 207.844 82.8342 207.814C87.9075 207.874 92.9615 207.177 97.8292 205.746C98.5776 205.51 99.3067 205.216 100.01 204.868C100.37 204.689 100.076 204.119 99.7172 204.193Z" fill="#212941"/>
<path d="M97.6479 209.44C93.2212 210.569 88.6813 211.195 84.1144 211.307C83.472 211.219 82.8182 211.28 82.2032 211.485C82.144 211.522 82.0952 211.574 82.0614 211.635C82.0275 211.696 82.0098 211.764 82.0098 211.834C82.0098 211.904 82.0275 211.972 82.0614 212.033C82.0952 212.094 82.144 212.146 82.2032 212.183C82.8388 212.434 83.5278 212.519 84.2052 212.429C88.8843 212.478 93.5349 211.696 97.9405 210.119C98.3009 209.927 98.0083 209.363 97.6479 209.44Z" fill="#212941"/>
<path d="M164.149 136.256C163.28 136.993 162.536 137.865 161.947 138.84C161.317 139.711 160.962 140.751 160.928 141.825C156.952 141.343 153.212 139.684 150.188 137.06C149.402 136.376 148.725 135.62 147.979 134.904C148.41 134.37 148.723 133.751 148.899 133.088C149.074 132.424 149.108 131.731 148.997 131.054C148.603 127.261 145.686 124.293 147.334 120.824C148.481 118.46 150.298 117.223 151.019 113.541C151.252 112.506 151.26 111.432 151.042 110.393C151.008 110.297 150.941 110.216 150.852 110.163C150.764 110.111 150.661 110.091 150.56 110.107C150.458 110.123 150.366 110.174 150.298 110.25C150.23 110.327 150.191 110.425 150.188 110.527C150.242 112.312 149.897 114.087 149.177 115.722C147.776 118.699 144.835 120.542 145.985 125.028C146.435 126.759 147.311 128.31 147.761 130.041C148.178 131.375 148.102 132.816 147.545 134.099C147.5 134.046 147.443 134.004 147.38 133.976C147.316 133.947 147.247 133.933 147.178 133.934C147.108 133.935 147.04 133.952 146.978 133.982C146.915 134.013 146.86 134.057 146.817 134.111C144.389 136.718 142.118 139.482 139.914 142.293C136.888 131.113 131.472 118.908 120.312 115.204C113.197 112.85 105.124 114.47 97.7398 116.259C96.2315 116.53 94.7892 117.088 93.4909 117.902L92.915 118.295C92.5783 117.262 92.3567 116.195 92.2543 115.113C93.4206 115.122 94.5811 114.948 95.6931 114.596C99.0657 113.473 100.841 110.144 101.471 106.864C102.534 99.0208 102.497 91.0679 101.359 83.2355C101.246 82.6503 101.051 82.1097 100.932 81.5261C100.841 81.1226 100.145 81.2181 100.19 81.6154C100.279 82.5825 100.256 83.5496 100.344 84.5414C101.086 91.2101 101.137 97.9375 100.498 104.617C100.161 107.674 99.2659 111.18 96.4046 112.844C94.8766 113.595 93.1744 113.922 91.4766 113.789C85.9511 113.609 80.577 111.938 75.9226 108.955C75.4067 108.753 75.0756 109.489 75.4067 109.831C76.0777 110.453 76.8344 110.975 77.6536 111.382C81.5453 113.535 85.8707 114.788 90.3108 115.047C90.6034 115.07 90.8729 115.07 91.1655 115.092C91.1229 116.432 91.3437 117.767 91.8154 119.022C89.9642 120.246 87.8982 121.109 85.7263 121.566C82.7766 122.192 79.7194 122.097 76.8147 121.287C73.91 120.478 71.244 118.978 69.0434 116.917C69.8531 112.76 70.1361 108.517 69.8858 104.289C69.885 104.11 69.8135 103.938 69.6869 103.812C69.5603 103.685 69.3888 103.614 69.2098 103.613C68.2857 103.588 67.3976 103.25 66.691 102.654C65.9845 102.058 65.5015 101.239 65.3213 100.333C64.6529 97.0323 68.0933 93.4518 70.491 95.5878C70.5815 95.6718 70.6989 95.7209 70.8222 95.7264C70.9455 95.7318 71.0668 95.6932 71.1643 95.6176C71.2618 95.5419 71.3293 95.434 71.3546 95.3132C71.38 95.1923 71.3615 95.0664 71.3026 94.958C70.9775 94.4039 70.47 93.9799 69.8669 93.7586C69.2638 93.5373 68.6026 93.5323 67.9962 93.7444C67.0775 94.0681 66.2521 94.6121 65.5925 95.3289C64.933 96.0457 64.4593 96.9134 64.213 97.8559C63.9668 98.7983 63.9555 99.7868 64.1801 100.735C64.4047 101.682 64.8584 102.561 65.5014 103.292C66.3294 104.155 67.4214 104.716 68.6045 104.888C68.8022 108.78 68.5224 112.682 67.7714 116.506C62.269 114.211 56.0982 112.525 50.1461 113.724C44.632 115.004 39.5999 117.836 35.6455 121.886C31.5294 126.177 28.0406 131.029 25.2828 136.296C19.2477 147.095 14.5588 158.594 11.3212 170.533C8.27042 181.883 4.96404 197.303 11.3874 206.662C14.4706 210.916 18.7757 214.132 23.7305 215.88C29.6887 218.173 36.1182 218.78 42.4353 219.268C44.3726 219.422 46.2853 219.549 48.1749 219.639C44.6281 229.616 42.0143 239.9 40.3671 250.359C39.2891 257.403 39.306 257.64 39.4 259.241C39.4009 259.317 39.4294 259.391 39.4801 259.449C39.5308 259.507 39.6005 259.544 39.6766 259.555C39.7527 259.566 39.8301 259.549 39.8949 259.508C39.9597 259.467 40.0075 259.403 40.0298 259.33C40.2242 258.712 40.3745 258.081 40.4795 257.442C42.9358 239.635 44.9856 233.475 49.008 219.675C54.9904 220.004 60.9909 219.657 66.8951 218.638C67.0016 218.614 67.0989 218.56 67.1752 218.482C67.2514 218.404 67.3034 218.305 67.3248 218.198C74.7017 219.113 82.1778 218.837 89.4669 217.379C91.5637 217.012 93.6192 216.44 95.6038 215.671C95.8949 215.537 95.7393 214.952 95.379 214.996C92.9427 215.304 82.309 219.031 67.2632 217.111C67.1502 215.038 67.2373 212.96 67.5235 210.905C68.0717 205.627 68.8586 202.325 68.9095 200.919C72.5223 201.651 76.2306 197.223 79.6202 196.607C79.8953 196.568 80.1584 196.468 80.3902 196.315C80.4461 196.278 80.4903 196.226 80.5178 196.165C80.5453 196.104 80.5548 196.037 80.5453 195.971C80.5358 195.905 80.5076 195.843 80.464 195.792C80.4204 195.741 80.3633 195.704 80.2993 195.685C79.7803 195.485 79.5293 195.58 78.7501 195.776C77.2524 196.281 75.8358 197 74.5443 197.912C72.8713 199.214 70.839 199.972 68.7216 200.083C68.3866 199.631 68.0023 199.218 67.5758 198.851C62.8249 194.285 53.4556 188.099 42.3075 183.742C42.4861 182.237 42.4415 180.685 42.5077 179.157C42.772 174.209 43.487 169.295 44.6437 164.477C45.2039 162.675 45.662 160.844 46.0158 158.991C46.0139 158.901 45.9828 158.814 45.9271 158.744C45.8715 158.673 45.7944 158.622 45.7074 158.599C45.6204 158.577 45.5284 158.582 45.4451 158.616C45.3618 158.65 45.2919 158.711 45.2458 158.788C44.3126 160.094 42.8896 166.788 42.5693 168.456C41.8409 172.431 41.0093 180.098 41.4697 183.406C36.3287 181.465 31.0022 180.057 25.5739 179.202C24.7654 179.067 24.4281 180.303 25.2381 180.434C39.4017 182.789 52.7494 188.655 64.0615 197.497C62.5015 200.377 60.4302 210.486 61.1355 218.158C53.3933 218.694 45.6178 218.498 37.9123 217.573C29.507 216.709 20.8029 214.847 14.7338 208.67C10.5835 204.467 9.09124 199.476 9.00038 193.541C8.60306 174.833 21.4143 141.006 33.3755 126.28C38.7131 119.737 46.0605 114.545 54.4627 114.545C58.9661 114.729 63.3892 115.798 67.4788 117.693C67.2031 121.354 69.7888 126.126 75.0109 128.305C81.2664 130.923 89.2405 129.369 92.1419 123.673C92.8143 122.506 93.1271 121.167 93.0413 119.823C93.6034 119.441 94.1424 118.991 94.7491 118.654C96.1107 117.991 97.5643 117.536 99.0611 117.305C104.875 115.962 111.035 114.65 116.984 115.685C122.453 116.706 127.317 119.799 130.562 124.318C135.699 130.883 137.88 139.88 139.42 142.964C134.51 149.05 130.119 155.537 126.291 162.356C126.241 162.442 126.226 162.545 126.252 162.642C126.277 162.739 126.34 162.822 126.426 162.873C126.513 162.923 126.615 162.938 126.712 162.912C126.809 162.887 126.892 162.824 126.943 162.738C127.996 161.079 132.191 154.69 134.489 151.43C138.082 146.339 142.121 141.253 143.144 140.1C145.046 141.792 147.118 143.283 149.327 144.551C152.846 146.709 156.868 147.911 160.995 148.036C159.862 159.49 157.667 165.655 156.229 171.933C156.161 172.269 156.656 172.519 156.813 172.181C157.664 170.388 158.328 168.512 158.792 166.582C160.97 158.725 162.256 150.648 162.625 142.504C162.6 142.347 162.522 142.203 162.403 142.096C162.285 141.99 162.134 141.928 161.975 141.92C161.864 141.92 161.755 141.905 161.645 141.897C162.063 140.478 162.781 139.165 163.749 138.047C164.149 137.654 164.484 137.198 164.739 136.698C164.868 136.367 164.419 136.098 164.149 136.256ZM64.7807 198.124C65.8396 198.919 66.8051 199.832 67.659 200.844C67.659 202.113 65.4075 213.615 66.0635 217.548C64.8315 217.773 63.5672 217.952 62.3306 218.087C62.2182 216.829 62.1304 215.637 62.1304 214.423C62.1982 208.889 63.0915 203.395 64.7807 198.124ZM68.4767 118.247C71.5034 120.95 75.2812 122.666 79.3073 123.168C83.3335 123.67 87.4171 122.934 91.0146 121.058C91.3226 120.904 91.6306 120.721 91.914 120.564C90.183 131.833 69.8843 130.946 68.469 118.247H68.4767ZM161.078 146.844C159.826 146.822 158.577 146.695 157.345 146.462C150.797 145.105 146.033 140.821 143.653 139.492C144.801 138.121 145.993 136.774 147.161 135.401C148.409 137.12 149.973 138.583 151.771 139.713C154.632 141.615 157.924 142.766 161.346 143.063C161.275 144.325 161.183 145.585 161.071 146.844H161.078Z" fill="#212941"/>
<path d="M80.2495 202.125C81.6149 202.374 82.9984 202.509 84.386 202.53C87.9131 202.646 91.4439 202.518 94.9535 202.148C95.6524 202.149 96.3428 201.996 96.9755 201.698C97.0315 201.665 97.0763 201.615 97.1042 201.556C97.1321 201.496 97.1419 201.43 97.1324 201.365C97.1228 201.301 97.0944 201.24 97.0506 201.191C97.0068 201.143 96.9496 201.108 96.8862 201.092C96.1956 200.956 95.4854 200.956 94.7948 201.092C86.4326 201.928 81.4954 201.227 80.228 201.474C79.8907 201.518 79.9585 202.033 80.2495 202.125Z" fill="#212941"/>
<path d="M103.855 181.42C102.692 182.538 101.665 183.792 100.797 185.153C102.348 185.378 103.877 185.647 105.406 185.923C105.962 185.088 107.434 183.577 108.178 182.596C106.776 182.073 105.329 181.68 103.855 181.42Z" fill="#3A5AB7"/>
<path d="M97.3289 191.576C96.2777 192.802 95.3723 194.145 94.6309 195.58C96.1832 195.671 97.7555 195.783 99.3078 195.917C99.7852 194.963 100.794 193.872 101.735 192.343C100.29 191.965 98.8164 191.708 97.3289 191.576Z" fill="#3A5AB7"/>
<path d="M82.5649 199.562C85.7989 192.072 93.8978 179.955 98.8412 173.461C99.066 173.17 99.2908 172.742 99.6512 172.653C102.192 171.947 140.634 176.918 147.941 178.543C148.363 177.978 149.663 176.361 149.694 176.316C149.918 176.047 149.897 175.508 149.469 175.44C142.523 174.271 96.0307 169.434 96.0307 169.434C95.9697 169.424 95.9073 169.43 95.8487 169.449C95.7901 169.468 95.7369 169.501 95.6934 169.545C94.8402 170.355 86.8815 185.057 81.5254 199.558L82.5649 199.562Z" fill="#3A5AB7"/>
<path d="M155.291 181.241C143.208 177.545 104.303 173.262 100.313 173.412C99.9344 173.426 99.9621 173.364 99.5309 173.912C98.3897 175.361 91.6769 184.666 87.0692 192.257C85.6422 194.612 84.3437 197.044 83.1791 199.539C84.1031 199.539 85.2566 199.586 85.8326 199.586C88.8736 199.589 91.9127 199.431 94.937 199.113C95.7501 198.971 96.5833 198.994 97.3872 199.181C97.7147 199.272 98.017 199.437 98.2715 199.662C98.5259 199.888 98.7256 200.168 98.8556 200.482C98.9856 200.796 99.0424 201.136 99.0217 201.475C99.001 201.815 98.9034 202.145 98.7362 202.441C99.0731 202.341 99.4203 202.28 99.7711 202.261C100.29 202.267 100.792 202.448 101.196 202.774C101.6 203.1 101.882 203.553 101.996 204.059C102.103 204.55 102.039 205.063 101.815 205.512C101.591 205.962 101.22 206.322 100.764 206.533C99.9214 206.933 99.05 207.272 98.1572 207.544C98.6263 207.632 99.0554 207.867 99.3819 208.215C99.7085 208.563 99.9156 209.006 99.9731 209.48C100.031 209.953 99.9356 210.433 99.7018 210.849C99.468 211.265 99.1077 211.596 98.6731 211.793C97.9399 212.106 97.1892 212.376 96.4247 212.602C96.879 212.812 97.263 213.149 97.5305 213.572C97.7981 213.996 97.9379 214.487 97.9332 214.988C97.9285 215.488 97.7794 215.977 97.504 216.395C97.2285 216.813 96.8382 217.143 96.38 217.345C92.5562 219.177 80.8337 220.965 75.0002 220.579C74.4319 222.473 72.9982 228.245 72.9104 228.627C72.8803 228.741 72.8767 228.86 72.8997 228.975C72.9228 229.09 72.972 229.199 73.0435 229.292C73.115 229.386 73.2069 229.461 73.3123 229.514C73.4176 229.566 73.5336 229.594 73.6512 229.594C78.4406 229.962 101.099 236.168 117.76 239.619C117.843 239.637 117.929 239.634 118.012 239.612C118.094 239.59 118.17 239.549 118.233 239.492C118.297 239.435 118.346 239.364 118.377 239.285C118.408 239.206 118.421 239.121 118.413 239.036C124.773 222.444 133.856 207.028 145.287 193.424C147.154 191.182 152.414 185.15 155.494 182.071C155.562 182.014 155.613 181.939 155.64 181.854C155.668 181.77 155.671 181.679 155.65 181.593C155.629 181.507 155.584 181.428 155.521 181.366C155.457 181.304 155.378 181.261 155.291 181.241ZM102.873 192.301C102.194 193.439 101.459 194.542 100.67 195.606C100.113 196.416 99.9867 197.117 99.4108 196.888C99.3877 196.864 99.343 196.864 99.3214 196.843C97.5443 196.689 95.7471 196.55 93.9699 196.461C93.893 196.456 93.8185 196.432 93.7532 196.392C93.6878 196.351 93.6337 196.294 93.5958 196.227C93.5578 196.16 93.5372 196.085 93.5359 196.008C93.5345 195.931 93.5524 195.855 93.588 195.786C94.3621 193.985 95.5298 192.379 97.0053 191.088C97.033 191.057 97.0686 191.035 97.1082 191.023C97.1479 191.011 97.19 191.01 97.2301 191.02C97.6422 190.919 98.0658 190.874 98.4898 190.885C99.8763 190.998 101.247 191.257 102.58 191.655C102.649 191.667 102.713 191.696 102.769 191.739C102.824 191.782 102.867 191.838 102.896 191.901C102.925 191.965 102.938 192.034 102.934 192.104C102.93 192.174 102.909 192.242 102.873 192.301ZM107.639 184.725C107.038 185.389 106.475 186.088 105.953 186.816C105.873 186.893 105.768 186.939 105.657 186.947C105.547 186.956 105.436 186.925 105.346 186.861L105.323 186.837C103.526 186.5 101.748 186.209 99.9498 185.938C99.884 185.92 99.8232 185.888 99.7721 185.843C99.721 185.798 99.6809 185.742 99.6548 185.679C99.6288 185.616 99.6175 185.548 99.622 185.48C99.6264 185.412 99.6463 185.346 99.6802 185.287C100.634 183.535 101.971 182.021 103.592 180.858C103.63 180.838 103.671 180.825 103.714 180.822C103.756 180.818 103.799 180.823 103.84 180.836C104.711 180.747 105.591 180.838 106.425 181.106C107.301 181.339 108.164 181.617 109.011 181.937C109.08 181.958 109.144 181.994 109.197 182.043C109.251 182.092 109.292 182.152 109.318 182.22C109.344 182.287 109.354 182.36 109.348 182.432C109.341 182.504 109.318 182.573 109.281 182.635C108.788 183.375 108.237 184.074 107.631 184.725H107.639ZM126.299 199.971C125.515 200.02 125.404 199.792 121.987 198.936C115.958 197.43 113.696 197.186 108.925 196.261C108.588 196.193 108.678 195.631 109.016 195.677C114.208 196.256 119.343 197.263 124.37 198.689C125.102 198.809 125.81 199.052 126.461 199.408C126.514 199.446 126.553 199.499 126.574 199.56C126.595 199.621 126.596 199.687 126.577 199.749C126.559 199.811 126.521 199.865 126.47 199.904C126.418 199.944 126.356 199.966 126.291 199.968L126.299 199.971ZM131.11 190.349C130.303 190.34 129.5 190.219 128.726 189.988C127.956 189.834 123.421 188.887 121.892 188.595C118.79 187.988 115.687 187.494 112.607 186.774C112.248 186.683 112.338 186.1 112.698 186.144C116.505 186.579 124.131 188.122 126.681 188.685C128.252 188.859 129.794 189.237 131.267 189.81C131.32 189.844 131.36 189.895 131.381 189.954C131.403 190.014 131.404 190.079 131.386 190.139C131.367 190.199 131.329 190.252 131.278 190.289C131.227 190.326 131.165 190.345 131.102 190.344L131.11 190.349Z" fill="#3A5AB7"/>
</svg>
