<svg width="308" height="308" viewBox="0 0 308 308" fill="none" xmlns="http://www.w3.org/2000/svg">
<path d="M102.281 65.0265C99.4135 67.7122 88.113 78.4029 84.822 80.5173C84.36 79.9552 77.43 70.6182 77.43 70.6182C77.3013 70.44 77.1311 70.2958 76.9342 70.198C76.7373 70.1003 76.5196 70.0519 76.2998 70.057C76.08 70.0622 75.8647 70.1207 75.6726 70.2276C75.4805 70.3345 75.3173 70.4865 75.197 70.6706L59.6969 94.057L49.8841 90.1885C49.6405 90.0844 49.3689 90.0659 49.1135 90.1361C48.8581 90.2063 48.6341 90.3611 48.478 90.5751L27.1675 119.288C27.0602 119.431 26.9962 119.602 26.983 119.78C26.9698 119.959 27.0081 120.137 27.0932 120.294C27.1783 120.452 27.3067 120.581 27.4631 120.668C27.6196 120.754 27.7976 120.794 27.976 120.782L100.646 115.808C100.972 115.785 101.279 115.644 101.509 115.411C101.739 115.178 101.876 114.869 101.894 114.542L104.62 66.1183C104.638 65.8401 104.572 65.563 104.429 65.3231C104.287 65.0833 104.076 64.8919 103.823 64.774C103.571 64.6561 103.288 64.6171 103.013 64.6621C102.738 64.7072 102.483 64.8341 102.281 65.0265Z" fill="#3A5AB7"/>
<path d="M111.122 184.09L14.5223 198.438C14.0088 198.519 13.4837 198.487 12.9841 198.343C12.4846 198.198 12.0228 197.947 11.6312 197.604C11.2397 197.262 10.928 196.839 10.7181 196.363C10.5083 195.887 10.4054 195.371 10.4167 194.852V55.8419C10.4662 54.9035 10.8573 54.0156 11.5162 53.3456C11.8475 53.0135 12.2426 52.7519 12.6778 52.5767C13.1129 52.4015 13.579 52.3162 14.048 52.3261C29.4141 52.5894 149.839 54.6284 157.593 54.7516C158.56 54.7912 159.477 55.1865 160.17 55.8615C160.863 56.5366 161.283 57.4439 161.347 58.4091V137.761C161.391 138.015 161.523 138.246 161.72 138.413C161.917 138.58 162.167 138.671 162.425 138.671C162.684 138.671 162.934 138.58 163.131 138.413C163.328 138.246 163.46 138.015 163.503 137.761V58.4091C163.534 57.6164 163.405 56.8255 163.124 56.0838C162.843 55.342 162.415 54.6645 161.866 54.0917C161.317 53.5189 160.658 53.0626 159.929 52.75C159.2 52.4374 158.415 52.2749 157.622 52.2722C149.885 52.1182 29.4618 49.8467 14.0942 49.5649C13.2599 49.5433 12.4298 49.6902 11.6536 49.9969C10.8774 50.3036 10.171 50.7637 9.57679 51.3498C8.98256 51.9358 8.51267 52.6357 8.19523 53.4075C7.8778 54.1794 7.71935 55.0074 7.72936 55.8419C7.72936 204.637 7.43368 195.443 8.34536 197.436C8.9116 198.654 9.85676 199.657 11.0397 200.294C12.2227 200.931 13.5799 201.168 14.9088 200.97L111.404 185.92C111.643 185.877 111.858 185.744 112.001 185.547C112.145 185.35 112.206 185.106 112.174 184.865C112.137 184.622 112.005 184.405 111.808 184.26C111.611 184.114 111.364 184.053 111.122 184.09ZM207.581 169.409L195.449 171.103C194.519 171.226 193.574 171.046 192.754 170.59C191.934 170.134 191.282 169.426 190.895 168.571C190.31 167.236 190.587 170.923 190.718 124.065C190.718 123.031 191.11 122.035 191.815 121.278C192.52 120.521 193.486 120.06 194.517 119.988C253.653 115.968 251.035 115.696 252.576 116.242C253.426 116.532 254.166 117.078 254.695 117.805C255.224 118.532 255.515 119.405 255.529 120.303L255.652 130.589C255.652 130.836 255.751 131.073 255.925 131.248C256.1 131.422 256.337 131.521 256.584 131.521C256.831 131.521 257.068 131.422 257.243 131.248C257.418 131.073 257.516 130.836 257.516 130.589C257.591 119.521 257.848 119.401 257.146 117.701C256.613 116.448 255.705 115.391 254.547 114.674C253.389 113.957 252.038 113.616 250.678 113.697C245.368 114.014 201.586 116.757 194.342 117.239C192.607 117.355 190.981 118.126 189.793 119.396C188.605 120.666 187.943 122.339 187.942 124.078C187.96 130.004 188.096 162.391 188.136 166.787C188.142 167.738 188.354 168.677 188.758 169.539C189.161 170.401 189.746 171.165 190.473 171.779C191.2 172.394 192.051 172.844 192.968 173.098C193.884 173.353 194.846 173.406 195.785 173.255L207.863 171.253C208.105 171.215 208.322 171.082 208.466 170.885C208.611 170.687 208.671 170.44 208.633 170.198C208.596 169.955 208.465 169.736 208.268 169.589C208.071 169.441 207.825 169.377 207.581 169.409ZM251.31 54.2419C189.556 52.7234 193.963 52.6125 192.231 53.3271C190.984 53.8272 189.914 54.6854 189.156 55.7933C188.397 56.9012 187.984 58.2091 187.968 59.5518V102.436C187.961 103.363 188.145 104.282 188.51 105.134C188.876 105.986 189.413 106.754 190.09 107.388C190.766 108.022 191.566 108.509 192.44 108.819C193.314 109.129 194.243 109.254 195.167 109.188L251.661 105.354C253.349 105.267 254.934 104.515 256.07 103.264C257.206 102.012 257.802 100.363 257.727 98.6739V60.5543C257.648 58.8892 256.943 57.3154 255.753 56.148C254.563 54.9806 252.976 54.3059 251.31 54.2588V54.2419ZM251.291 56.1053C252.455 56.1398 253.559 56.6252 254.371 57.4589C255.126 58.3082 255.517 59.4196 255.461 60.5543V98.6739C255.387 99.7111 254.946 100.688 254.217 101.429C253.488 102.17 252.518 102.627 251.482 102.718L194.964 106.428C194.418 106.458 193.872 106.377 193.358 106.19C192.845 106.004 192.374 105.716 191.974 105.343C191.574 104.97 191.254 104.521 191.032 104.021C190.81 103.522 190.691 102.983 190.683 102.436C190.683 55.6063 190.558 59.0436 190.974 57.9871C191.183 57.492 191.488 57.0431 191.872 56.666C192.255 56.2889 192.709 55.9911 193.207 55.7896C194.342 55.343 189.882 55.4354 251.282 56.1237L251.291 56.1053Z" fill="#212941"/>
<path d="M29.2928 118.36C32.9149 118.078 100.485 113.541 100.485 113.541C100.607 113.529 100.729 113.542 100.846 113.578C100.962 113.614 101.07 113.674 101.164 113.752C101.257 113.831 101.334 113.927 101.389 114.036C101.444 114.145 101.478 114.263 101.486 114.385C101.507 114.634 101.428 114.882 101.267 115.073C101.105 115.264 100.875 115.384 100.626 115.406L28.0084 121.226C27.8193 121.241 27.629 121.217 27.4503 121.153C27.2715 121.089 27.1085 120.988 26.972 120.856C26.6902 120.593 26.7595 120.223 26.7595 119.837V66.0337C26.7595 65.5409 27.4109 65.1189 27.9037 65.1189C28.1477 65.1196 28.3817 65.2157 28.5557 65.3866C28.7298 65.5576 28.8302 65.7898 28.8354 66.0337C28.8354 66.0337 29.2928 114.491 29.2928 118.36Z" fill="#212941"/>
<path d="M208.157 143.659C209.697 143.351 211.083 139.362 211.853 137.822C211.957 137.595 212.146 137.418 212.379 137.329C212.613 137.24 212.872 137.246 213.101 137.346C213.213 137.396 213.314 137.467 213.399 137.556C213.483 137.645 213.55 137.749 213.594 137.864C213.638 137.978 213.659 138.1 213.656 138.223C213.653 138.345 213.626 138.466 213.576 138.578C213.061 140.636 212.262 142.613 211.202 144.45C209.953 146.172 207.774 147.105 206.261 145.593C205.048 144.413 204.655 141.768 202.973 140.336C202.282 139.69 201.742 139.874 201.004 140.459C200.45 140.911 199.944 141.417 199.492 141.971C198.014 144.076 196.881 146.403 196.134 148.864C196.105 148.984 196.052 149.096 195.978 149.194C195.904 149.292 195.81 149.375 195.703 149.435C195.596 149.496 195.478 149.535 195.355 149.548C195.233 149.562 195.109 149.55 194.992 149.514C194.761 149.45 194.564 149.299 194.442 149.092C194.321 148.885 194.284 148.64 194.34 148.407C194.763 145.529 195.8 142.777 197.382 140.336C200.873 135.68 204.57 135.967 207.404 142.13C207.566 142.679 207.821 143.196 208.157 143.659Z" fill="#3A5AB7"/>
<path d="M214.675 62.678C210.12 62.7989 205.792 64.6935 202.613 67.9583C199.433 71.223 197.654 75.6 197.654 80.157C197.654 84.714 199.433 89.0909 202.613 92.3557C205.792 95.6204 210.12 97.515 214.675 97.636C216.918 97.5918 219.129 97.1033 221.181 96.1988C223.233 95.2942 225.086 93.9916 226.631 92.3663C228.177 90.741 229.384 88.8252 230.184 86.73C230.984 84.6348 231.361 82.4017 231.292 80.1601C231.099 71.0587 224.299 62.678 214.675 62.678ZM214.675 94.9441C210.838 94.8568 207.192 93.2515 204.536 90.4802C201.88 87.709 200.431 83.9977 200.507 80.1601C200.507 71.4775 207.638 64.8494 215.435 65.3761C215.298 67.7523 214.588 77.81 214.5 79.9368C214.498 80.1805 214.56 80.4204 214.681 80.6323C214.801 80.8442 214.976 81.0206 215.186 81.1437C215.396 81.2667 215.635 81.3322 215.879 81.3333C216.123 81.3345 216.363 81.2713 216.574 81.1503C220.432 78.7823 224.162 76.2121 227.748 73.4503C232.336 83.4495 225.147 95.0288 214.675 94.9364V94.9441Z" fill="#FF9500"/>
<path d="M115.15 133.105C115.13 132.857 115.015 132.626 114.827 132.462C114.64 132.298 114.396 132.214 114.147 132.227C114.147 132.227 37.8371 137.097 32.3409 137.483C31.0537 137.578 29.8483 138.15 28.9606 139.087C28.073 140.024 27.5672 141.258 27.5422 142.549C27.4899 146.275 27.0802 184.096 27.0802 184.096C27.0756 184.341 27.1684 184.578 27.3384 184.755C27.5083 184.931 27.7415 185.033 27.9865 185.038C28.2316 185.043 28.4685 184.95 28.6451 184.78C28.8217 184.61 28.9236 184.377 28.9282 184.132C28.9282 184.132 29.572 164.369 29.9677 152.012L39.3925 151.408C38.8674 160.924 38.2514 173.57 38.3145 183.066C38.3045 183.191 38.3197 183.316 38.3592 183.435C38.3987 183.554 38.4616 183.663 38.5443 183.757C38.627 183.851 38.7278 183.927 38.8405 183.982C38.9533 184.036 39.0759 184.067 39.2009 184.073C39.3259 184.079 39.4508 184.059 39.5682 184.016C39.6856 183.973 39.7931 183.906 39.8842 183.82C39.9754 183.735 40.0483 183.631 40.0988 183.517C40.1493 183.402 40.1762 183.279 40.1779 183.154C41.1651 173.316 41.7179 161.19 42.0798 151.234C57.9711 150.212 97.6092 147.327 101.026 147.001C100.4 156.633 99.8052 166.251 99.8052 174.721C99.7935 174.969 99.8803 175.212 100.047 175.396C100.213 175.581 100.445 175.692 100.694 175.706C100.942 175.72 101.185 175.635 101.371 175.471C101.557 175.306 101.671 175.075 101.687 174.827C102.465 166.449 103.195 157.503 103.746 146.739C105.857 146.531 107.063 146.405 107.063 146.405C107.31 146.385 107.538 146.269 107.7 146.081C107.861 145.894 107.942 145.65 107.924 145.404C107.916 145.281 107.884 145.161 107.829 145.051C107.775 144.94 107.698 144.842 107.605 144.762C107.512 144.682 107.403 144.621 107.286 144.583C107.169 144.545 107.046 144.531 106.923 144.541C106.923 144.541 105.807 144.586 103.843 144.677C103.959 142.059 104.016 137.497 104.023 134.864L114.266 134.094C114.514 134.079 114.746 133.967 114.912 133.782C115.077 133.597 115.163 133.353 115.15 133.105ZM30.0309 150.139C30.1525 146.335 30.2419 143.496 30.2665 142.601C30.2791 141.988 30.521 141.403 30.9444 140.96C31.3679 140.517 31.942 140.249 32.5534 140.209C33.4528 140.149 36.2494 139.943 40.3135 139.643C40.1086 142.013 39.662 147.232 39.5265 149.204C39.2709 149.226 31.4169 149.996 30.0309 150.139ZM101.179 144.798C101.341 144.798 61.6455 147.457 42.1553 148.995C42.2077 147.199 42.2616 140.451 42.26 139.498C57.3674 138.375 85.9237 136.227 102.166 135.003C102.054 136.094 101.333 143.098 101.179 144.798Z" fill="#212941"/>
<path d="M114.483 74.6592C116.036 74.8329 117.603 74.8505 119.16 74.7115C121.477 74.6653 123.785 74.4002 126.053 73.92C126.3 73.9153 126.535 73.8126 126.707 73.6346C126.878 73.4565 126.972 73.2177 126.967 72.9706C126.962 72.7235 126.86 72.4883 126.682 72.3169C126.504 72.1455 126.265 72.0519 126.018 72.0566C125.032 71.9334 124.066 71.7932 123.064 71.7578C121.1 71.7703 119.139 71.8993 117.19 72.1444C116.217 72.3173 115.254 72.5466 114.307 72.8312C114.187 72.8403 114.069 72.8738 113.961 72.9296C113.853 72.9853 113.758 73.0623 113.681 73.1557C113.604 73.2492 113.546 73.3573 113.512 73.4735C113.477 73.5898 113.467 73.7118 113.48 73.8322C113.508 74.0728 113.628 74.2933 113.815 74.4475C114.002 74.6016 114.241 74.6775 114.483 74.6592Z" fill="#212941"/>
<path d="M140.376 73.5011C142.589 73.6854 144.813 73.6673 147.023 73.4472C148.529 73.3843 150.025 73.1723 151.489 72.8142C151.731 72.7905 151.954 72.6741 152.112 72.4893C152.271 72.3046 152.351 72.0659 152.338 71.8231C152.324 71.5803 152.217 71.3522 152.039 71.1865C151.861 71.0208 151.626 70.9303 151.382 70.9339C149.954 70.7366 148.512 70.6542 147.07 70.6875C144.721 70.6124 142.376 70.9453 140.14 71.6716C140.014 71.6786 139.89 71.7115 139.777 71.7684C139.664 71.8252 139.564 71.9047 139.482 72.0019C139.401 72.0992 139.341 72.212 139.305 72.3336C139.269 72.4551 139.259 72.5827 139.275 72.7084C139.29 72.8341 139.332 72.9552 139.396 73.0643C139.461 73.1733 139.547 73.2679 139.649 73.3423C139.752 73.4166 139.869 73.4691 139.992 73.4964C140.116 73.5237 140.244 73.5253 140.368 73.5011H140.376Z" fill="#212941"/>
<path d="M112.551 85.6147C113.802 85.8364 115.064 85.9947 116.332 86.0891C118.864 86.1893 121.399 86.1482 123.927 85.9658C125.193 85.8442 126.442 85.6147 127.691 85.4038C127.814 85.3977 127.934 85.3673 128.045 85.3144C128.157 85.2615 128.256 85.1871 128.338 85.0955C128.421 85.0039 128.484 84.897 128.525 84.7808C128.566 84.6646 128.583 84.5415 128.576 84.4185C128.569 84.2956 128.538 84.1752 128.484 84.0644C128.43 83.9536 128.355 83.8546 128.263 83.7729C128.171 83.6913 128.063 83.6287 127.947 83.5888C127.83 83.5489 127.707 83.5324 127.584 83.5403C123.844 83.2531 120.088 83.2176 116.342 83.4341C115.321 83.4633 113.03 83.7328 112.597 83.7683C112.352 83.7613 112.114 83.852 111.936 84.0204C111.758 84.1888 111.654 84.421 111.647 84.6661C111.64 84.9112 111.731 85.1489 111.899 85.3271C112.067 85.5053 112.3 85.6093 112.545 85.6163L112.551 85.6147Z" fill="#3A5AB7"/>
<path d="M137.097 84.5845C138.612 84.8216 140.138 84.9799 141.67 85.0588C144.708 85.1414 147.748 85.0591 150.777 84.8124C152.306 84.6723 153.802 84.4259 155.296 84.2149C155.421 84.2131 155.544 84.1862 155.659 84.1357C155.773 84.0853 155.876 84.0123 155.962 83.9212C156.048 83.83 156.114 83.7225 156.158 83.6051C156.201 83.4878 156.221 83.3628 156.215 83.2378C156.209 83.1128 156.178 82.9903 156.124 82.8775C156.069 82.7647 155.993 82.664 155.899 82.5813C155.805 82.4986 155.696 82.4356 155.577 82.3961C155.458 82.3567 155.333 82.3415 155.208 82.3515C154.117 82.2991 153.027 82.2283 151.937 82.2114C149.068 82.1405 140.541 82.4639 140.174 82.4916C139.172 82.5625 138.172 82.6687 137.15 82.738C136.905 82.7311 136.667 82.8218 136.489 82.9902C136.311 83.1585 136.207 83.3908 136.2 83.6359C136.193 83.8809 136.283 84.1187 136.452 84.2969C136.62 84.4751 136.852 84.5791 137.097 84.586V84.5845Z" fill="#3A5AB7"/>
<path d="M116.381 99.8567C116.917 99.9075 117.881 100.051 118.597 100.051C119.313 100.051 122.094 99.8967 122.975 99.7689C123.73 99.6642 124.434 99.4701 125.173 99.3069C125.416 99.2936 125.645 99.1864 125.811 99.0078C125.977 98.8293 126.067 98.5933 126.062 98.3496C126.058 98.106 125.959 97.8736 125.786 97.7014C125.614 97.5292 125.381 97.4307 125.137 97.4266C122.908 97.0038 120.62 96.9918 118.386 97.3911C117.636 97.5368 116.9 97.7486 116.187 98.0241C116.058 98.0245 115.93 98.052 115.812 98.1049C115.694 98.1578 115.588 98.2349 115.502 98.3312C115.415 98.4275 115.35 98.5408 115.31 98.6639C115.271 98.787 115.257 98.917 115.271 99.0456C115.284 99.1742 115.325 99.2985 115.39 99.4105C115.454 99.5225 115.542 99.6196 115.647 99.6956C115.751 99.7717 115.871 99.8248 115.997 99.8518C116.124 99.8787 116.254 99.8788 116.381 99.8521V99.8567Z" fill="#212941"/>
<path d="M108.938 111.886C110.17 111.941 111.271 112.04 113.544 111.99C115.778 111.94 120.529 111.528 122.705 111.2C124.218 110.971 125.711 110.62 127.224 110.302C127.471 110.27 127.695 110.14 127.846 109.942C127.998 109.745 128.065 109.495 128.032 109.248C127.999 109 127.87 108.776 127.672 108.625C127.474 108.473 127.224 108.406 126.977 108.439C123.335 108.469 119.696 108.686 116.076 109.089C113.646 109.265 111.23 109.582 108.838 110.039C108.716 110.047 108.598 110.079 108.489 110.133C108.38 110.187 108.283 110.261 108.203 110.353C108.123 110.444 108.062 110.55 108.023 110.665C107.984 110.78 107.969 110.902 107.977 111.023C107.983 111.143 108.013 111.26 108.065 111.369C108.116 111.477 108.189 111.574 108.278 111.654C108.367 111.734 108.472 111.796 108.585 111.835C108.698 111.875 108.818 111.892 108.938 111.886Z" fill="#3A5AB7"/>
<path d="M142.378 98.6478C142.971 98.8173 143.577 98.9403 144.189 99.0158C145.411 99.1158 146.64 99.122 147.863 99.0343C148.492 98.935 149.114 98.7998 149.727 98.6293C149.853 98.6295 149.977 98.6044 150.093 98.5556C150.209 98.5067 150.314 98.4351 150.402 98.3449C150.49 98.2547 150.559 98.1478 150.605 98.0305C150.651 97.9133 150.672 97.788 150.669 97.6622C150.665 97.5363 150.637 97.4125 150.584 97.2979C150.532 97.1834 150.457 97.0805 150.365 96.9953C150.272 96.9102 150.163 96.8445 150.045 96.8022C149.926 96.7599 149.8 96.7418 149.674 96.749C148.251 96.3832 146.78 96.2409 145.313 96.327C144.302 96.3036 143.296 96.4644 142.342 96.8013C142.097 96.8105 141.864 96.9144 141.694 97.0913C141.523 97.2682 141.428 97.5042 141.428 97.75C141.437 97.9941 141.542 98.2248 141.72 98.3926C141.897 98.5604 142.134 98.652 142.378 98.6478Z" fill="#212941"/>
<path d="M136.247 110.949C137.59 110.98 138.917 111.065 140.942 111.02C145.645 110.989 150.335 110.536 154.956 109.666C155.2 109.636 155.422 109.512 155.576 109.32C155.73 109.128 155.803 108.884 155.78 108.64C155.757 108.395 155.639 108.169 155.453 108.01C155.266 107.85 155.024 107.769 154.779 107.785C151.042 107.686 147.302 107.804 143.579 108.137C141.067 108.275 138.569 108.604 136.107 109.121C135.985 109.127 135.867 109.157 135.758 109.211C135.648 109.264 135.551 109.339 135.472 109.431C135.393 109.523 135.334 109.631 135.298 109.747C135.262 109.863 135.25 109.985 135.263 110.105C135.283 110.347 135.398 110.571 135.582 110.729C135.766 110.887 136.005 110.966 136.247 110.949Z" fill="#3A5AB7"/>
<path d="M33.6183 156.872C33.2896 157.859 33.3207 158.93 33.7061 159.897C34.0434 161.156 35.2939 161.112 35.5711 159.844C35.8709 158.858 35.8335 157.801 35.4648 156.838C35.2954 156.356 35.0428 155.914 34.5331 155.923C34.0233 155.933 33.7477 156.379 33.6183 156.872Z" fill="#212941"/>
<path d="M55.7774 159.473C62.6428 158.675 70.6415 158.087 82.6612 155.711C82.9104 155.673 83.1348 155.539 83.2861 155.337C83.4373 155.136 83.5033 154.883 83.4697 154.633C83.432 154.389 83.3005 154.17 83.1034 154.022C82.9063 153.874 82.6592 153.81 82.4148 153.841C78.0104 154.197 78.9591 153.988 72.006 154.739C66.4061 155.23 60.8587 156.201 55.4248 157.641C55.1879 157.695 54.981 157.838 54.8468 158.041C54.7127 158.244 54.6615 158.49 54.7041 158.729C54.7501 158.969 54.8883 159.181 55.089 159.32C55.2896 159.459 55.5368 159.514 55.7774 159.473Z" fill="#212941"/>
<path d="M52.5134 172.773C52.6674 172.773 54.2351 172.799 54.905 172.737C57.2713 172.539 59.6041 172.049 61.8504 171.279C62.0977 171.248 62.3228 171.121 62.4762 170.925C62.6295 170.728 62.6986 170.479 62.6682 170.232C62.6377 169.984 62.5103 169.759 62.3139 169.606C62.1175 169.452 61.8683 169.383 61.621 169.414C60.8078 169.353 59.992 169.336 59.177 169.361C57.5782 169.499 55.9915 169.751 54.4292 170.118C53.6515 170.354 52.8885 170.636 52.1438 170.962C51.9066 171.016 51.6994 171.159 51.5652 171.362C51.431 171.565 51.3801 171.812 51.4231 172.052C51.4473 172.171 51.4948 172.284 51.5627 172.384C51.6306 172.485 51.7177 172.571 51.8189 172.638C51.9202 172.705 52.0336 172.751 52.1528 172.774C52.2719 172.798 52.3945 172.797 52.5134 172.773Z" fill="#212941"/>
<path d="M125.988 152.519C134.228 152.321 141.653 150.727 149.794 149.439C149.916 149.43 150.035 149.397 150.144 149.342C150.253 149.286 150.35 149.21 150.428 149.116C150.507 149.023 150.566 148.915 150.603 148.798C150.639 148.682 150.652 148.559 150.64 148.438C150.62 148.191 150.503 147.962 150.316 147.8C150.128 147.639 149.884 147.558 149.637 147.575C147.685 147.611 145.752 147.663 143.818 147.821C137.767 148.468 131.753 149.425 125.8 150.687C125.67 150.688 125.542 150.715 125.424 150.768C125.306 150.82 125.2 150.897 125.114 150.994C125.027 151.09 124.962 151.203 124.922 151.326C124.882 151.449 124.868 151.58 124.882 151.708C124.896 151.837 124.936 151.961 125.001 152.073C125.065 152.185 125.153 152.283 125.258 152.359C125.362 152.435 125.482 152.488 125.608 152.515C125.735 152.542 125.866 152.542 125.992 152.515L125.988 152.519Z" fill="#3A5AB7"/>
<path d="M118.03 166.454C126.506 165.372 134.921 163.858 143.242 161.917C143.485 161.874 143.701 161.736 143.843 161.534C143.985 161.332 144.041 161.082 143.999 160.839C143.954 160.593 143.815 160.375 143.611 160.231C143.407 160.087 143.155 160.029 142.908 160.069C137.643 160.659 138.339 160.434 133.132 161.266C127.874 161.934 122.685 163.063 117.625 164.641C117.384 164.695 117.175 164.842 117.043 165.05C116.911 165.258 116.867 165.51 116.921 165.75C116.974 165.991 117.122 166.2 117.329 166.332C117.537 166.464 117.789 166.508 118.03 166.454Z" fill="#3A5AB7"/>
<path d="M134.607 172.634C137.672 172.443 140.721 172.05 143.734 171.456C145.772 171.15 147.787 170.704 149.764 170.121C150.004 170.077 150.217 169.942 150.359 169.745C150.502 169.548 150.562 169.303 150.528 169.062C150.494 168.821 150.368 168.602 150.177 168.452C149.985 168.302 149.743 168.231 149.501 168.256C146.912 168.279 144.33 168.52 141.782 168.976C139.2 169.305 136.663 169.925 134.221 170.824C133.981 170.876 133.771 171.02 133.637 171.226C133.504 171.432 133.457 171.683 133.509 171.923C133.56 172.163 133.705 172.373 133.911 172.507C134.117 172.641 134.367 172.687 134.607 172.635V172.634Z" fill="#3A5AB7"/>
<path d="M238.867 71.6285C239.605 71.7738 240.351 71.8766 241.1 71.9365C242.608 71.994 244.118 71.9472 245.619 71.7963C246.384 71.6694 247.141 71.4992 247.887 71.2866C248.136 71.2647 248.367 71.145 248.528 70.9537C248.689 70.7623 248.768 70.515 248.748 70.2656C248.738 70.1426 248.703 70.0229 248.646 69.9136C248.589 69.8042 248.511 69.7073 248.416 69.6286C248.321 69.55 248.211 69.4911 248.093 69.4556C247.975 69.42 247.851 69.4085 247.728 69.4217C245.964 69.1151 244.167 69.0385 242.383 69.1937C241.16 69.2086 239.946 69.4042 238.779 69.7743C238.658 69.7784 238.538 69.8069 238.427 69.858C238.317 69.9092 238.218 69.982 238.136 70.0722C238.054 70.1623 237.991 70.268 237.95 70.383C237.91 70.4979 237.893 70.6198 237.9 70.7414C237.905 70.8634 237.934 70.9831 237.985 71.0938C238.036 71.2045 238.109 71.304 238.199 71.3865C238.289 71.4689 238.394 71.5328 238.509 71.5743C238.624 71.6159 238.745 71.6343 238.867 71.6285Z" fill="#212941"/>
<path d="M238.904 80.9347C240.038 81.2526 241.242 81.2095 242.35 80.8115C243.582 80.5143 243.59 79.1991 242.296 78.9481C241.15 78.6753 239.95 78.7286 238.833 79.1021C238.345 79.2561 237.937 79.5241 237.954 80.0523C237.971 80.5805 238.405 80.8254 238.904 80.9347Z" fill="#3A5AB7"/>
<path d="M237.459 91.63C239.839 91.8418 242.233 91.8532 244.615 91.6639C246.226 91.6181 247.831 91.4476 249.416 91.1541C249.666 91.1461 249.903 91.0403 250.075 90.8594C250.248 90.6786 250.343 90.4371 250.34 90.187C250.334 89.9406 250.231 89.7064 250.053 89.5355C249.875 89.3645 249.638 89.2705 249.391 89.2738C247.387 88.9419 245.353 88.8299 243.325 88.9396C241.271 88.921 239.226 89.2112 237.259 89.8005C237.13 89.8017 237.003 89.8298 236.886 89.883C236.769 89.9363 236.664 90.0134 236.578 90.1095C236.492 90.2056 236.428 90.3185 236.388 90.4411C236.349 90.5636 236.335 90.6931 236.349 90.8211C236.362 90.9492 236.402 91.073 236.467 91.1846C236.531 91.2963 236.617 91.3933 236.721 91.4695C236.825 91.5456 236.944 91.5992 237.069 91.6269C237.195 91.6545 237.325 91.6556 237.451 91.63H237.459Z" fill="#3A5AB7"/>
<path d="M221.733 176.911C222.478 177.318 223.339 177.461 224.175 177.314C225.348 176.955 226.365 176.211 227.064 175.203C227.762 174.195 228.101 172.982 228.025 171.758C228.047 171.636 228.045 171.511 228.018 171.391C227.991 171.27 227.94 171.157 227.868 171.056C227.796 170.956 227.705 170.871 227.6 170.806C227.494 170.741 227.377 170.698 227.255 170.68C227.011 170.639 226.76 170.695 226.557 170.836C226.353 170.978 226.212 171.193 226.165 171.436C225.696 172.363 225.117 173.231 224.44 174.02C224.118 174.385 223.714 174.668 223.262 174.847C222.953 175.014 222.61 175.11 222.259 175.127C222.022 175.061 221.767 175.09 221.551 175.209C221.334 175.327 221.172 175.525 221.098 175.76C221.064 175.877 221.053 176 221.066 176.122C221.079 176.243 221.116 176.361 221.175 176.468C221.234 176.575 221.314 176.669 221.41 176.745C221.505 176.821 221.615 176.877 221.733 176.911Z" fill="#212941"/>
<path d="M226.023 156.855C226.639 157.779 226.023 159.281 224.637 160.195C223.251 161.11 221.648 161.11 221.033 160.195C220.419 159.281 221.033 157.787 222.404 156.855C223.775 155.923 225.412 155.937 226.023 156.855Z" fill="#212941"/>
<path d="M181.021 173.261C182.079 174.524 182.96 175.926 183.639 177.428C185.059 180.399 185.741 183.668 185.626 186.959C185.64 188.636 185.474 190.31 185.133 191.952C185.097 192.071 185.084 192.196 185.096 192.319C185.108 192.443 185.144 192.564 185.203 192.673C185.262 192.783 185.342 192.88 185.439 192.958C185.536 193.036 185.647 193.095 185.766 193.13C185.884 193.166 186.008 193.178 186.13 193.166C186.253 193.154 186.372 193.117 186.48 193.058C186.588 192.999 186.684 192.919 186.76 192.823C186.837 192.726 186.894 192.616 186.927 192.497C187.619 190.768 188.068 188.951 188.264 187.099C188.587 183.322 187.798 179.533 185.996 176.198C185.049 174.549 183.794 173.099 182.3 171.926C182.123 171.756 181.885 171.664 181.64 171.669C181.395 171.675 181.162 171.777 180.993 171.954C180.823 172.131 180.731 172.368 180.737 172.613C180.742 172.858 180.844 173.091 181.021 173.261Z" fill="#212941"/>
<path d="M188.247 175.435C188.555 175.897 189.19 177.317 189.285 177.51C189.952 178.904 190.448 180.374 190.762 181.888C190.956 182.696 191.203 183.469 191.324 184.244C191.327 184.494 191.428 184.732 191.606 184.907C191.785 185.081 192.025 185.178 192.274 185.176C192.524 185.173 192.762 185.072 192.937 184.894C193.112 184.715 193.209 184.475 193.206 184.226C193.346 183.318 193.397 182.4 193.36 181.483C193.173 179.602 192.566 177.788 191.585 176.173C191.05 175.379 190.371 174.693 189.583 174.151C189.412 173.973 189.177 173.87 188.931 173.863C188.684 173.856 188.445 173.947 188.264 174.115C188.175 174.2 188.104 174.302 188.055 174.415C188.006 174.528 187.98 174.649 187.979 174.772C187.977 174.895 188 175.017 188.046 175.131C188.092 175.245 188.161 175.348 188.247 175.435Z" fill="#212941"/>
<path d="M194.824 175.726C194.882 175.943 195.105 177.283 195.176 177.59C195.299 178.189 195.44 178.786 195.544 179.401C195.649 180.015 195.686 180.65 195.791 181.266C195.878 181.951 196.056 182.567 196.125 183.217C196.109 183.466 196.192 183.712 196.357 183.9C196.522 184.088 196.755 184.203 197.004 184.219C197.254 184.236 197.5 184.152 197.688 183.987C197.876 183.822 197.99 183.59 198.007 183.34C198.211 182.635 198.352 181.914 198.429 181.184C198.468 179.686 198.223 178.194 197.708 176.787C197.383 176.088 196.963 175.437 196.459 174.853C196.342 174.636 196.144 174.475 195.909 174.404C195.673 174.333 195.419 174.358 195.202 174.475C194.985 174.592 194.823 174.79 194.752 175.025C194.681 175.261 194.707 175.516 194.824 175.732V175.726Z" fill="#212941"/>
<path d="M203.588 191.394C206.4 193.107 210.152 194.955 213.598 197.479C213.805 197.613 213.951 197.823 214.004 198.064C214.057 198.306 214.013 198.558 213.88 198.766C213.748 198.975 213.539 199.123 213.299 199.178C213.058 199.233 212.805 199.191 212.596 199.06C209.282 197.232 205.792 196.033 201.307 193.224C201.06 193.072 200.867 192.845 200.756 192.576C200.646 192.308 200.623 192.011 200.691 191.728C201.652 186.565 201.43 181.251 200.042 176.185C200.002 176.07 199.986 175.948 199.994 175.826C200.002 175.704 200.034 175.585 200.088 175.476C200.142 175.367 200.217 175.269 200.308 175.188C200.4 175.108 200.507 175.046 200.622 175.007C200.738 174.968 200.86 174.952 200.981 174.96C201.103 174.968 201.222 175 201.331 175.053C201.441 175.107 201.539 175.182 201.619 175.274C201.699 175.366 201.761 175.472 201.8 175.588C203.982 180.554 204.606 186.066 203.588 191.394Z" fill="#212941"/>
<path d="M190.815 200.779C182.522 203.469 174.066 197.785 173.444 189.999C173.344 189.107 173.385 188.205 173.567 187.326C173.61 187.082 173.747 186.864 173.949 186.72C174.15 186.576 174.4 186.517 174.645 186.556C174.885 186.605 175.097 186.744 175.238 186.944C175.378 187.145 175.437 187.391 175.401 187.634C175.336 188.322 175.377 189.016 175.524 189.691C175.872 191.278 176.553 192.772 177.524 194.075C178.494 195.378 179.731 196.458 181.152 197.245C182.573 198.032 184.145 198.507 185.764 198.639C187.383 198.77 189.012 198.555 190.541 198.007C190.748 197.927 190.972 197.899 191.193 197.926C191.414 197.953 191.625 198.033 191.807 198.161C195.161 200.659 196.491 201.437 201.249 205.317C201.349 205.39 201.434 205.483 201.498 205.589C201.563 205.696 201.605 205.814 201.623 205.937C201.641 206.06 201.634 206.185 201.603 206.305C201.571 206.426 201.517 206.538 201.441 206.637C201.292 206.832 201.073 206.962 200.83 206.998C200.587 207.034 200.34 206.973 200.141 206.83C197.032 204.728 193.853 202.92 190.815 200.779Z" fill="#212941"/>
<path d="M180.692 184.03C178.844 179.564 179.788 180.222 179.04 179.829C178.106 179.338 166.144 172.954 161.912 170.336C163.883 166.35 164.88 161.953 164.82 157.507C164.761 153.061 163.647 148.692 161.57 144.76H161.587C159.963 141.405 157.691 138.404 154.901 135.932C152.111 133.46 148.859 131.565 145.333 130.357C141.806 129.149 138.076 128.651 134.356 128.893C130.636 129.135 127.001 130.112 123.661 131.767C119.814 133.675 116.444 136.424 113.802 139.81C111.16 143.196 109.314 147.133 108.399 151.329C107.485 155.526 107.525 159.874 108.518 164.052C109.511 168.231 111.431 172.132 114.136 175.468C116.841 178.805 120.261 181.49 124.144 183.325C128.027 185.161 132.272 186.1 136.567 186.073C140.862 186.046 145.096 185.053 148.955 183.169C152.814 181.284 156.2 178.556 158.863 175.186C160.617 176.191 162.539 176.974 164.217 177.929C169.085 180.698 174.104 183.192 179.251 185.401C179.445 185.486 179.661 185.512 179.87 185.476C180.08 185.439 180.273 185.342 180.428 185.195C180.582 185.049 180.689 184.86 180.736 184.653C180.783 184.445 180.768 184.229 180.692 184.03ZM147.468 179.048C141.728 181.842 135.119 182.263 129.071 180.22C123.023 178.178 118.023 173.836 115.152 168.134C112.281 162.432 111.771 155.829 113.733 149.754C115.694 143.679 119.968 138.621 125.631 135.674C131.426 132.7 138.16 132.131 144.372 134.092C150.583 136.052 155.771 140.384 158.809 146.146H158.827C161.634 152.023 162.017 158.768 159.891 164.924C157.766 171.081 153.303 176.154 147.468 179.047V179.048Z" fill="#FF9500"/>
<path d="M258.81 150.304C258.489 149.03 257.908 147.837 257.103 146.799C256.298 145.761 255.287 144.901 254.133 144.273C255.328 141.801 255.585 138.979 254.858 136.33C254.13 133.682 252.467 131.388 250.177 129.873C243.957 125.607 233.853 126.285 228.339 121.363C226.769 119.961 225.518 118.321 223.205 118.321C222.766 118.313 222.331 118.396 221.926 118.566C221.522 118.736 221.157 118.988 220.856 119.307C220.554 119.626 220.323 120.005 220.177 120.418C220.03 120.832 219.972 121.272 220.005 121.709C218.746 121.176 217.331 121.144 216.049 121.62C214.188 122.663 215.009 124.912 215.399 125.806C214.749 125.8 214.119 126.032 213.627 126.457C213.136 126.882 212.816 127.472 212.727 128.116C212.319 130.153 213.677 133.255 214.555 135.15C217.231 140.898 221.038 147.284 226.986 149.472C226.986 150.031 227.015 150.595 227.057 151.166C224.514 148.841 218.873 151.399 219.803 153.127C220.339 154.083 221.684 153.356 223.741 153.056C225.38 152.817 226.609 153.118 227.211 152.709C227.572 155.658 228.398 158.531 229.658 161.221C229.798 161.506 230.032 161.734 230.319 161.869C230.607 162.003 230.932 162.035 231.241 161.96C234.179 161.243 237.863 163.851 236.323 166.936C235.826 167.585 235.199 168.123 234.481 168.514C233.763 168.905 232.971 169.14 232.156 169.204C231.832 169.259 231.539 169.43 231.331 169.685C231.124 169.94 231.017 170.262 231.03 170.59C231.063 173.093 231.644 175.557 232.731 177.811C233.819 180.065 235.386 182.054 237.324 183.637C237.55 183.817 237.829 183.918 238.118 183.924C238.407 183.931 238.69 183.842 238.924 183.671C242.774 180.873 245.678 177.018 248.626 173.438C252.893 168.273 261.548 160.071 258.81 150.304Z" fill="#212941"/>
<path d="M300.286 247.463C299.222 242.372 297.6 237.414 295.451 232.679C289.697 218.943 281.07 206.637 267.372 200.493C261.452 197.861 255.867 197.758 249.753 196.676C250.132 191.028 250.523 190.86 249.876 190.065C249.745 189.925 249.587 189.812 249.412 189.733C249.237 189.653 249.048 189.609 248.856 189.603C245.09 189.537 241.323 189.685 237.573 190.047C237.63 187.998 237.479 185.949 237.125 183.93C237.115 183.683 237.008 183.45 236.827 183.281C236.645 183.113 236.405 183.024 236.158 183.034C235.911 183.043 235.677 183.15 235.509 183.332C235.341 183.513 235.252 183.754 235.261 184.001C235.036 186.082 235.116 188.185 235.499 190.242C233.07 190.49 230.326 190.834 226.827 191.379C226.827 190.894 226.842 186.784 226.767 185.698C226.742 185.413 226.61 185.148 226.398 184.956C226.186 184.764 225.91 184.659 225.624 184.661C219.512 184.578 218.495 176.068 218.292 169.962C218.28 169.661 218.17 169.371 217.98 169.137C217.79 168.902 217.53 168.735 217.237 168.661L214.003 167.835C215.921 161.474 218.169 155.218 220.738 149.09C220.788 148.979 220.816 148.859 220.82 148.737C220.825 148.615 220.805 148.493 220.762 148.379C220.719 148.264 220.654 148.16 220.57 148.07C220.487 147.981 220.387 147.909 220.276 147.858C220.164 147.808 220.044 147.78 219.922 147.776C219.8 147.771 219.678 147.791 219.564 147.834C219.45 147.877 219.345 147.942 219.255 148.026C219.166 148.109 219.094 148.209 219.044 148.32C216.245 154.285 213.55 158.882 210.974 168.494C210.926 168.673 210.915 168.859 210.94 169.042C210.966 169.224 211.028 169.4 211.123 169.558C211.219 169.716 211.345 169.854 211.494 169.962C211.644 170.07 211.814 170.147 211.994 170.188L215.563 171.112C215.919 178.079 217.638 186.383 224.618 186.902C224.665 187.383 224.834 190.375 224.909 191.693C222.51 192.087 220.103 192.518 217.671 192.97C217.369 193.03 217.094 193.188 216.891 193.42C216.687 193.652 216.566 193.945 216.546 194.253C216.403 196.686 216.161 198.201 216.054 201.058C193.196 209.742 176.31 233.138 175.09 257.463C175.081 257.709 175.168 257.949 175.332 258.133C175.496 258.316 175.724 258.429 175.97 258.447C176.092 258.456 176.215 258.439 176.331 258.399C176.447 258.359 176.554 258.297 176.646 258.215C176.738 258.133 176.812 258.034 176.865 257.923C176.918 257.812 176.948 257.692 176.954 257.57C178.819 229.823 202.53 204.832 223.616 202.362C224.934 202.208 240.319 200.462 242.305 200.198C267.389 196.983 283.44 210.65 293.46 233.55C295.634 238.114 297.302 242.901 298.435 247.828C298.48 248.072 298.62 248.289 298.824 248.431C299.028 248.573 299.281 248.628 299.526 248.584C299.774 248.534 299.993 248.389 300.136 248.179C300.278 247.969 300.332 247.712 300.286 247.463ZM229.651 198.831C225.997 199.229 222.38 199.913 218.833 200.878C218.905 199.184 219.141 196.735 219.247 195.488C228.501 193.611 237.904 192.564 247.344 192.358C247.213 193.988 247.124 195.575 246.873 197.44C244.024 197.582 237.81 197.736 229.651 198.831Z" fill="#212941"/>
<path d="M213.998 246.4C213.964 246.921 213.927 250.03 213.927 250.549C213.927 252.067 213.792 256.157 215.212 256.157C216.464 256.157 216.521 253.475 216.689 250.778C216.766 249.143 216.737 247.504 216.601 245.872C216.348 243.974 216.165 242.585 215.124 242.655C214.237 242.722 214.214 243.511 213.998 246.4Z" fill="#212941"/>
<path d="M276.956 242.191C277.11 242.906 277.626 245.214 277.852 245.918C278.385 247.844 278.722 249.297 279.751 249.118C280.843 248.93 280.636 247.353 280.402 245.285C280.115 243.506 279.728 241.745 279.241 240.01C278.445 237.619 278.028 236.582 277.114 236.81C275.802 237.092 276.524 240.086 276.956 242.191Z" fill="#212941"/>
</svg>
