<svg width="308" height="308" viewBox="0 0 308 308" fill="none" xmlns="http://www.w3.org/2000/svg">
<path d="M79.311 151.939C76.9968 153.738 75.0108 155.923 73.4405 158.398C66.3165 154.528 57.9774 155.132 50.0972 161.908C39.8947 170.883 41.7026 191.829 55.9923 194.428C57.7768 194.756 59.596 194.854 61.4054 194.719C61.7437 194.714 62.0671 194.579 62.3078 194.341C62.5485 194.103 62.688 193.782 62.6969 193.443C62.7059 193.105 62.5836 192.777 62.3558 192.526C62.128 192.276 61.8123 192.124 61.4747 192.101C52.438 190.997 48.0012 185.488 48.0936 177.297C48.0512 175.061 48.4654 172.839 49.3109 170.768C50.1564 168.697 51.4154 166.821 53.0109 165.253C58.3701 160.459 65.0583 158.477 71.765 161.153C71.3969 161.814 71.0489 162.468 70.744 163.097C70.553 163.397 70.489 163.76 70.5659 164.107C70.6429 164.454 70.8546 164.756 71.1544 164.947C71.4541 165.138 71.8175 165.202 72.1645 165.125C72.5115 165.048 72.8137 164.836 73.0047 164.537C73.4174 164.039 73.978 163.362 74.6078 162.589C75.218 162.947 75.8044 163.345 76.3634 163.779C76.4967 163.896 76.652 163.984 76.8201 164.04C76.9882 164.096 77.1657 164.118 77.3423 164.105C77.5189 164.091 77.6911 164.042 77.8487 163.962C78.0063 163.881 78.1461 163.769 78.2601 163.634C78.3741 163.498 78.4599 163.341 78.5125 163.172C78.5651 163.003 78.5834 162.825 78.5664 162.648C78.5494 162.472 78.4974 162.301 78.4134 162.145C78.3295 161.989 78.2152 161.851 78.0774 161.74C77.5354 161.24 76.9794 160.776 76.4127 160.337C78.1544 158.135 80.0394 155.646 81.2298 153.741C82.1769 152.235 80.7632 150.902 79.311 151.939Z" fill="#FF9500"/>
<path d="M58.6047 177.684C59.8462 176.169 61.2395 174.786 62.7627 173.555C62.8695 173.412 63.004 173.293 63.158 173.203C63.312 173.114 63.4824 173.056 63.6592 173.034C63.8359 173.011 64.0153 173.025 64.1868 173.073C64.3583 173.121 64.5182 173.204 64.6572 173.315C64.7962 173.427 64.9114 173.565 64.9959 173.722C65.0804 173.879 65.1326 174.051 65.1492 174.228C65.1658 174.406 65.1466 174.584 65.0927 174.754C65.0388 174.924 64.9514 175.081 64.8355 175.217C63.7256 177.899 62.1929 180.387 60.2956 182.584C60.0725 182.843 59.7926 183.048 59.4777 183.181C59.1627 183.315 58.8212 183.374 58.4797 183.354C58.1382 183.334 57.8058 183.236 57.5086 183.066C57.2114 182.897 56.9572 182.661 56.7659 182.378C56.4071 181.846 55.4122 180.838 54.402 179.689C52.8112 177.961 49.9175 174.034 51.8487 172.937C53.364 172.08 57.4096 176.422 58.6047 177.684Z" fill="#FF9500"/>
<path d="M36.8689 158.056C36.8458 159.629 36.8181 165.354 36.8165 165.39C36.6625 167.546 36.3545 170.801 34.8469 170.872C31.8901 170.943 32.3444 158.729 32.4984 155.78C32.5291 155.212 32.7746 154.676 33.1851 154.282C33.5956 153.887 34.1405 153.663 34.7098 153.655C37.662 153.729 48.3296 153.433 48.1417 156.119C48.0539 157.377 47.4025 157.539 40.7497 157.918C39.4561 158.004 38.1702 158.023 36.8689 158.056Z" fill="#FF9500"/>
<path d="M225.847 155.141C225.633 154.345 224.894 154.525 223.414 154.679C217.562 155.389 209.708 156.373 204.337 154.054C193.614 149.68 197 137.179 197.638 126.28C197.648 126.103 197.624 125.926 197.566 125.759C197.508 125.592 197.417 125.438 197.299 125.306C197.182 125.174 197.039 125.066 196.879 124.989C196.72 124.913 196.547 124.868 196.37 124.859C193.303 124.716 190.231 124.756 187.169 124.979C189.3 116.72 192.959 107.969 198.066 95.0288C198.11 94.9344 198.134 94.8322 198.138 94.7282C198.142 94.6242 198.125 94.5205 198.088 94.4231C198.052 94.3258 197.996 94.2367 197.924 94.1611C197.853 94.0856 197.767 94.0251 197.672 93.9831C197.476 93.9 197.255 93.8964 197.057 93.9732C196.858 94.05 196.698 94.201 196.609 94.3943C193.92 100.272 187.548 111.827 184.12 126.075C184.073 126.275 184.072 126.483 184.118 126.684C184.163 126.884 184.254 127.071 184.382 127.231C184.511 127.391 184.674 127.52 184.86 127.608C185.046 127.695 185.249 127.739 185.455 127.737C188.639 127.692 191.49 127.401 194.827 127.497C194.02 138.053 191.076 151.521 203.377 156.401C205.596 157.171 207.906 157.65 210.249 157.824C210.494 163.075 210.35 168.296 210.934 174.169C210.957 174.384 211.062 174.581 211.229 174.719C211.395 174.857 211.609 174.924 211.824 174.906C211.93 174.898 212.034 174.869 212.129 174.82C212.223 174.772 212.308 174.705 212.376 174.624C212.445 174.542 212.497 174.448 212.529 174.347C212.56 174.245 212.572 174.138 212.562 174.032C212.269 169.215 212.528 163.183 212.519 158.056C216.36 158.5 220.251 158.03 223.876 156.684C225.113 156.198 226.051 155.99 225.847 155.141Z" fill="#212941"/>
<path d="M209.749 137.214C210.16 138.002 210.75 138.683 211.472 139.201C212.195 139.719 213.029 140.059 213.907 140.195C218.023 140.855 220.221 137.488 221.017 133.376C221.213 132.065 221.333 130.744 221.377 129.419C221.418 129.207 221.373 128.988 221.253 128.81C221.132 128.632 220.946 128.508 220.734 128.468C220.523 128.427 220.304 128.472 220.126 128.592C219.947 128.713 219.824 128.899 219.784 129.111C218.262 133.932 217.897 134.978 217.266 135.982C216.968 136.624 216.44 137.13 215.786 137.4C215.131 137.67 214.4 137.684 213.736 137.439C212.758 137.175 211.827 136.759 210.978 136.207C210.838 136.065 210.651 135.98 210.452 135.97C210.253 135.959 210.057 136.023 209.903 136.149C209.749 136.275 209.648 136.455 209.62 136.652C209.591 136.849 209.637 137.049 209.749 137.214Z" fill="#212941"/>
<path d="M205.991 90.1778C207.705 88.2528 210.173 88.8087 212.348 90.1778C215.224 91.9565 215.235 93.1515 216.168 92.5432C217.36 91.784 214.936 88.9519 213.803 88.1049C209.625 84.7739 204.563 86.277 203.317 89.7836C202.901 90.9062 202.643 91.955 203.386 92.2337C204.241 92.591 204.318 91.6408 205.991 90.1778Z" fill="#212941"/>
<path d="M205.955 102.986C205.955 104.249 206.26 105.461 206.803 106.354C207.346 107.247 208.082 107.749 208.85 107.749C209.618 107.749 210.355 107.247 210.898 106.354C211.44 105.461 211.746 104.249 211.746 102.986C211.746 101.723 211.44 100.511 210.898 99.6179C210.355 98.7246 209.618 98.2227 208.85 98.2227C208.082 98.2227 207.346 98.7246 206.803 99.6179C206.26 100.511 205.955 101.723 205.955 102.986Z" fill="#212941"/>
<path d="M245.775 65.8596C241.244 64.9569 236.595 64.8122 232.016 65.4315C230.63 64.489 213.153 53.1115 207.566 49.3601C200.61 44.6908 194.41 39.3255 186.286 42.5764C171.795 48.3714 165.747 72.0566 181.129 80.3218C186.551 83.2478 192.597 82.6903 198.708 82.5995C206.925 82.4331 214.637 82.2021 222.901 81.3829C223.271 87.1964 225.51 92.7346 229.284 97.1718C233.059 101.609 238.166 104.707 243.845 106.004C246.882 106.774 245.804 106.145 247.418 106.068C250.58 105.914 255.622 105.739 258.002 107.823C259.474 109.267 260.39 111.183 260.591 113.235C260.791 115.287 260.263 117.344 259.099 119.045C257.787 120.7 256.11 122.029 254.198 122.926C252.287 123.824 250.193 124.267 248.082 124.219C247.856 124.21 247.631 124.257 247.428 124.355C247.225 124.454 247.049 124.601 246.917 124.784C246.784 124.967 246.699 125.18 246.669 125.404C246.639 125.628 246.665 125.856 246.745 126.067C247.317 127.542 247.787 129.053 248.151 130.592C248.34 131.362 251.152 144.045 251.423 145.394C252.716 151.322 253.587 157.334 254.028 163.385C254.037 163.598 254.13 163.799 254.288 163.944C254.445 164.088 254.654 164.164 254.867 164.155C254.973 164.152 255.077 164.127 255.174 164.083C255.271 164.039 255.357 163.976 255.429 163.898C255.501 163.819 255.556 163.728 255.592 163.628C255.628 163.528 255.643 163.421 255.637 163.315C255.533 155.986 254.72 148.684 253.211 141.511C255.999 134.715 259.248 128.981 260.822 121.183C260.976 120.992 261.152 120.815 261.284 120.617C262.249 119.198 262.888 117.583 263.156 115.888C263.425 114.193 263.316 112.46 262.836 110.812C263.374 108.259 263.74 105.673 263.934 103.071C265.504 86.7113 261.8 69.203 245.775 65.8596ZM191.063 49.183C188.802 49.8204 186.78 51.1141 185.254 52.9006C182.999 55.5548 181.455 58.7385 180.767 62.1529C180.761 62.2591 180.735 62.3632 180.688 62.459C180.642 62.5548 180.577 62.6403 180.497 62.7105C180.417 62.7807 180.324 62.8342 180.223 62.8678C180.122 62.9013 180.015 62.9143 179.909 62.9059C179.697 62.8897 179.499 62.7911 179.358 62.6311C179.217 62.4711 179.145 62.2625 179.156 62.0497C178.926 54.1202 185.042 47.5645 190.498 46.6805C191.653 46.4741 195.001 46.4895 194.901 47.7939C194.825 48.7472 194.088 48.2652 191.063 49.183Z" fill="#212941"/>
<path d="M299.441 264.205L299.31 264.215L299.044 263.189C299.219 263.148 299.374 263.047 299.484 262.905C299.594 262.763 299.652 262.587 299.647 262.407C299.162 225.632 289.77 185.314 258.611 165.789L257.67 165.618C250.079 167.102 242.872 170.586 235.91 173.584C228.265 176.857 220.901 179.858 214.082 183.351C211.067 185.13 207.828 186.501 204.452 187.429C203.686 187.608 202.889 187.608 202.122 187.429C201.733 186.556 204.442 183.254 205.068 182.529C205.285 182.283 205.405 181.968 205.404 181.64C205.404 181.313 205.284 180.997 205.067 180.753C204.849 180.508 204.55 180.352 204.225 180.313C203.9 180.274 203.572 180.355 203.303 180.542C184.443 193.219 169.731 211.166 161.001 232.147C160.902 232.374 160.869 232.625 160.905 232.87C160.941 233.115 161.045 233.345 161.206 233.533C165.059 238.553 169.572 243.031 174.623 246.845C174.767 246.946 174.93 247.018 175.103 247.055C175.275 247.093 175.454 247.096 175.627 247.064C175.801 247.032 175.966 246.966 176.114 246.87C176.262 246.774 176.39 246.649 176.489 246.503C179.007 242.937 182.07 239.63 184.663 236.378C184.817 236.532 216.498 264.724 224.191 270.678C224.334 270.791 224.5 270.872 224.677 270.916C224.854 270.96 225.038 270.967 225.218 270.935C234.559 269.321 244.314 269.914 253.814 269.445C269.394 268.615 283.712 267.299 299.578 265.778C299.787 265.76 299.98 265.659 300.115 265.499C300.25 265.338 300.315 265.13 300.297 264.922C300.279 264.713 300.179 264.52 300.018 264.385C299.858 264.25 299.65 264.184 299.441 264.202V264.205Z" fill="#3A5AB7"/>
<path d="M189.214 228.858C199.84 216.002 203.998 211.371 220.414 194.95C220.492 194.878 220.554 194.792 220.598 194.695C220.643 194.599 220.667 194.495 220.671 194.39C220.675 194.284 220.658 194.178 220.621 194.079C220.585 193.98 220.529 193.889 220.457 193.811C220.385 193.734 220.298 193.671 220.202 193.627C220.106 193.583 220.002 193.558 219.896 193.554C219.79 193.55 219.685 193.567 219.585 193.604C219.486 193.641 219.395 193.697 219.318 193.769C209.059 202.104 199.792 211.589 191.698 222.039C190.028 224.333 189.043 226.057 187.911 227.934C187.791 228.107 187.744 228.321 187.779 228.529C187.814 228.737 187.929 228.923 188.099 229.047C188.184 229.108 188.281 229.152 188.384 229.175C188.486 229.199 188.592 229.202 188.696 229.184C188.799 229.167 188.898 229.129 188.987 229.073C189.076 229.017 189.153 228.944 189.214 228.858Z" fill="#212941"/>
<path d="M83.3505 193.253C81.2202 198.811 80.4288 204.792 81.0405 210.712C83.4183 236.484 107.245 262.907 116.867 275.751C116.928 275.84 117.006 275.917 117.096 275.976C117.187 276.034 117.288 276.075 117.395 276.094C117.501 276.113 117.61 276.11 117.715 276.087C117.821 276.063 117.92 276.018 118.008 275.956C118.096 275.893 118.171 275.813 118.227 275.721C118.284 275.629 118.322 275.527 118.338 275.42C118.355 275.313 118.35 275.204 118.323 275.1C118.297 274.995 118.25 274.896 118.185 274.81C111.067 264.375 104.424 255.794 98.4995 246.745C88.3617 231.037 79.7284 211.713 84.8613 193.749C84.927 193.549 84.9105 193.33 84.8153 193.142C84.7202 192.954 84.5542 192.811 84.3538 192.746C84.1535 192.68 83.9352 192.696 83.7471 192.792C83.5589 192.887 83.4163 193.053 83.3505 193.253Z" fill="#212941"/>
<path d="M183.297 253.747C182.914 253.498 178.488 250.854 178.096 250.623C182.219 245.675 182.174 245.12 185.301 241.004C185.429 240.834 185.486 240.622 185.46 240.411C185.435 240.2 185.328 240.007 185.163 239.873C184.992 239.743 184.776 239.685 184.562 239.71C184.348 239.736 184.152 239.843 184.016 240.011C181.691 242.893 178.344 247.095 175.93 249.64C162.981 241.269 151.054 231.413 140.394 220.272C139.572 219.416 133.966 213.914 132.101 211.825C131.961 211.67 131.765 211.575 131.556 211.562C131.347 211.549 131.141 211.618 130.982 211.754C130.824 211.891 130.724 212.084 130.706 212.293C130.688 212.502 130.752 212.709 130.885 212.871C136.92 220.805 143.793 228.066 151.384 234.528C155.883 238.481 160.584 242.198 165.468 245.665C170.951 249.474 176.623 253 182.464 256.231C185.14 257.446 186.024 257.654 186.406 256.967C186.871 256.116 185.767 255.543 183.297 253.747Z" fill="#212941"/>
<path d="M88.6221 194.129C87.917 196.722 87.8174 199.443 88.331 202.08C88.4465 202.613 89.2858 206.037 90.4208 205.764C91.18 205.552 91.0368 205.134 90.8489 201.72C90.6011 199.39 90.6877 197.036 91.1061 194.73C91.3294 192.728 91.2385 192.061 90.661 191.869C89.7832 191.576 88.8207 193.592 88.6221 194.129Z" fill="#212941"/>
<path d="M94.9619 195.213C94.9757 197.014 95.2762 198.801 95.852 200.506C96.2216 201.494 97.2688 203.931 98.2513 203.523C99.0537 203.201 98.7395 202.533 98.3021 199.827C97.9448 198.285 97.7268 196.714 97.6507 195.133C97.6199 194.266 97.6507 191.323 96.5542 191.193C95.4578 191.062 94.9141 193.706 94.9619 195.213Z" fill="#212941"/>
<path d="M128.792 195.508C125.811 191.177 121.092 192.654 117.62 191.91C112.476 190.832 108.278 184.863 107.939 179.727C107.918 179.427 107.797 179.143 107.595 178.919C107.393 178.696 107.122 178.547 106.826 178.495C104.146 178.184 101.437 178.742 99.0992 180.087C96.7609 181.432 94.9168 183.493 93.8389 185.966C93.7497 186.174 93.7167 186.403 93.7433 186.628C93.7699 186.853 93.855 187.067 93.9903 187.249C94.1256 187.431 94.3062 187.575 94.5142 187.665C94.7222 187.756 94.9503 187.79 95.1757 187.765C100.894 187.058 104.559 193.463 103.954 198.853C103.894 198.902 103.842 198.96 103.8 199.025C103.504 199.395 103.716 200.737 104.331 200.91C104.416 200.936 104.505 200.944 104.593 200.935C104.682 200.926 104.767 200.9 104.845 200.858C108.715 204.674 108.107 212.74 114.868 215.026C125.269 218.48 134.932 204.421 128.792 195.508Z" fill="#212941"/>
<path d="M78.4571 202.957C76.0593 203.034 72.237 203.029 70.3706 201.586C66.0847 198.312 68.8306 189.072 69.462 184.076C69.9871 179.823 70.0009 173.715 72.8037 170.403C73.9202 169.107 76.2025 168.926 77.9258 168.793C91.1279 168.283 104.343 169.376 117.282 172.049C120.49 172.656 123.853 173.518 125.25 176.486C126.926 180.132 125.262 185.958 124.839 190.09C124.814 190.303 124.875 190.518 125.008 190.686C125.141 190.855 125.336 190.964 125.55 190.989C125.763 191.013 125.977 190.953 126.146 190.819C126.315 190.686 126.423 190.491 126.448 190.278C127.076 185.778 129.082 180.046 127.218 175.612C125.598 171.804 121.799 170.507 117.761 169.649C104.631 166.727 91.1761 165.529 77.7364 166.086C75.1399 166.252 72.4003 166.673 70.7278 168.656C67.3753 172.629 67.4122 178.666 66.8055 183.748C66.1587 189.258 61.9483 203.34 72.9562 204.635C74.8164 204.79 76.6872 204.762 78.5418 204.551C78.6467 204.546 78.7497 204.521 78.8447 204.476C78.9397 204.431 79.0248 204.368 79.0949 204.289C79.1651 204.211 79.2189 204.12 79.2532 204.02C79.2876 203.921 79.3017 203.816 79.2948 203.711C79.2817 203.501 79.1867 203.304 79.03 203.163C78.8734 203.022 78.6677 202.948 78.4571 202.957Z" fill="#212941"/>
<path d="M53.8102 61.3613C58.5842 60.3126 64.7904 60.3557 92.0869 57.5236C94.6741 57.2664 97.2444 57.0262 99.8485 56.9076C100.062 56.9076 100.267 56.8228 100.418 56.6717C100.569 56.5207 100.654 56.3158 100.654 56.1022C100.654 55.8886 100.569 55.6837 100.418 55.5327C100.267 55.3816 100.062 55.2968 99.8485 55.2968C89.1193 54.8348 83.583 55.8697 73.6854 56.6828C65.1939 57.442 60.3413 57.1448 53.3574 59.8367C53.2572 59.8646 53.1635 59.912 53.0816 59.9763C52.9998 60.0405 52.9314 60.1203 52.8805 60.211C52.8295 60.3017 52.797 60.4016 52.7848 60.5049C52.7725 60.6082 52.7808 60.713 52.8092 60.8131C52.8713 61.0171 53.0109 61.1888 53.1979 61.2912C53.385 61.3937 53.6048 61.4188 53.8102 61.3613Z" fill="#212941"/>
<path d="M35.6805 86.8437C43.5345 86.0383 109.34 82.0235 110.143 81.9958C117.964 81.6508 125.406 82.0974 133.634 81.9434C133.744 81.9482 133.853 81.9307 133.956 81.8919C134.059 81.8532 134.153 81.794 134.233 81.718C134.312 81.6419 134.375 81.5506 134.418 81.4494C134.462 81.3483 134.484 81.2395 134.484 81.1295C134.484 81.0196 134.462 80.9107 134.418 80.8096C134.375 80.7085 134.312 80.6171 134.233 80.5411C134.153 80.465 134.059 80.4059 133.956 80.3671C133.853 80.3284 133.744 80.3109 133.634 80.3156C125.78 80.1447 118.643 79.3531 110.058 79.4763C99.8493 79.6796 57.2359 82.5979 51.5625 83.0923C45.9708 83.5681 40.6886 84.3243 35.4572 85.2683C35.3506 85.2792 35.2473 85.3115 35.1535 85.3633C35.0597 85.4151 34.9774 85.4853 34.9113 85.5697C34.8453 85.6541 34.797 85.7509 34.7693 85.8544C34.7416 85.9579 34.735 86.0659 34.7501 86.172C34.7651 86.2781 34.8014 86.3801 34.8568 86.4718C34.9122 86.5635 34.9855 86.6432 35.0724 86.7059C35.1593 86.7686 35.2579 86.8131 35.3624 86.8368C35.4669 86.8605 35.5751 86.8628 35.6805 86.8437Z" fill="#212941"/>
<path d="M36.8934 115.346C42.9903 114.655 110.598 110.51 111.357 110.48C118.532 110.172 127.427 110.59 134.847 110.429C135.062 110.43 135.269 110.346 135.423 110.195C135.577 110.044 135.665 109.839 135.669 109.623C135.669 109.516 135.647 109.41 135.605 109.312C135.564 109.213 135.503 109.124 135.426 109.049C135.35 108.974 135.259 108.915 135.16 108.875C135.06 108.836 134.954 108.816 134.847 108.818C126.569 108.612 119.804 107.839 111.271 107.962C100.052 108.24 57.8575 111.145 52.777 111.576C48.1016 112.024 44.0575 112.448 36.6717 113.769C36.5681 113.784 36.4685 113.818 36.3784 113.871C36.2883 113.925 36.2095 113.995 36.1466 114.078C36.0837 114.162 36.0378 114.257 36.0117 114.358C35.9855 114.459 35.9795 114.565 35.9941 114.668C36.0086 114.772 36.0435 114.872 36.0965 114.962C36.1496 115.052 36.2199 115.131 36.3034 115.193C36.3869 115.256 36.482 115.302 36.5833 115.328C36.6845 115.355 36.7899 115.361 36.8934 115.346Z" fill="#212941"/>
<path d="M40.0881 142.102C46.1849 141.411 113.792 137.266 114.552 137.236C121.448 136.928 130.722 137.322 138.041 137.185C138.257 137.186 138.464 137.102 138.618 136.951C138.772 136.8 138.86 136.595 138.864 136.379C138.863 136.272 138.842 136.166 138.8 136.068C138.758 135.969 138.697 135.88 138.621 135.805C138.544 135.73 138.454 135.671 138.354 135.631C138.255 135.592 138.148 135.572 138.041 135.574C129.736 135.368 122.991 134.594 114.465 134.718C103.245 134.996 61.0521 137.901 55.9716 138.332C51.2962 138.78 47.2521 139.204 39.8663 140.525C39.7626 140.538 39.6624 140.572 39.5717 140.624C39.481 140.676 39.4015 140.745 39.3378 140.828C39.2741 140.911 39.2274 141.006 39.2005 141.107C39.1736 141.208 39.167 141.313 39.181 141.417C39.2145 141.626 39.3276 141.814 39.4967 141.942C39.6657 142.07 39.8777 142.127 40.0881 142.102Z" fill="#212941"/>
<path d="M64.1234 214.745C51.2906 214.839 33.4481 216.273 20.6215 217.109C19.1038 217.199 17.6119 216.687 16.4698 215.684C15.3277 214.68 14.6276 213.267 14.5215 211.75C13.3373 192.791 13.5251 161.477 13.1509 153.564C12.7921 146.848 12.2777 140.131 12.0883 133.415C11.6602 117.1 10.5129 47.7092 10.4621 42.9121C10.4405 42.155 10.5754 41.4015 10.8584 40.6989C11.1414 39.9963 11.5664 39.3597 12.1067 38.8289C12.6471 38.2981 13.2912 37.8845 13.9987 37.6141C14.7062 37.3436 15.462 37.2222 16.2186 37.2572C21.393 37.4451 26.5843 37.3773 31.7587 37.2233C39.5034 36.9831 143.35 34.5838 144.978 34.5668C146.418 34.5804 147.796 35.1526 148.822 36.1628C149.848 37.1729 150.441 38.5421 150.477 39.9815C151.075 57.8732 153.061 74.2911 153.819 91.322C154.897 114.614 154.303 138.258 154.983 161.571C155.307 173.846 156.736 189.552 157.623 203.205C157.663 204.002 157.544 204.799 157.272 205.549C157.001 206.3 156.582 206.989 156.042 207.576C155.501 208.163 154.848 208.636 154.122 208.968C153.397 209.3 152.612 209.484 151.814 209.509C140.235 209.843 142.097 209.653 138.073 209.922C137.857 209.936 137.656 210.034 137.513 210.197C137.37 210.359 137.297 210.571 137.311 210.787C137.325 211.002 137.424 211.204 137.586 211.347C137.748 211.489 137.96 211.562 138.176 211.548C141.008 211.356 142.813 211.468 145.733 211.411L151.866 211.24C152.901 211.215 153.92 210.983 154.864 210.558C155.807 210.132 156.656 209.522 157.36 208.764C158.064 208.005 158.61 207.114 158.964 206.141C159.318 205.169 159.473 204.135 159.422 203.101C158.924 193.851 157.195 165.391 157.112 161.501C156.751 145.122 156.992 128.724 156.854 112.328C156.486 74.4113 153.928 66.2323 153.137 39.9029C153.076 37.7721 152.19 35.7482 150.665 34.2586C149.14 32.769 147.096 31.9303 144.964 31.9196C135.108 32.0212 128.52 32.6095 120.343 32.6726C107.236 32.7758 63.5782 33.2563 54.8403 33.5474C42.5095 33.9339 28.9097 35.0057 16.3249 34.5407C15.2 34.4957 14.0779 34.6813 13.0274 35.0859C11.977 35.4906 11.0204 36.1058 10.2164 36.8938C9.41243 37.6817 8.77809 38.6258 8.35239 39.6679C7.92668 40.71 7.71859 41.8282 7.7409 42.9537C7.81636 50.0161 7.55764 56.7028 7.84254 63.5989C8.11666 70.5905 8.99138 117.177 9.43644 133.487C9.64126 141.198 10.3281 148.873 10.653 156.567C11.1659 168.062 10.6715 190.439 12.2285 211.909C12.3868 214.019 13.3761 215.98 14.9792 217.361C16.5823 218.743 18.6681 219.431 20.7785 219.276C34.8326 218.221 48.9097 216.8 64.1619 216.35C64.2654 216.348 64.3675 216.326 64.4624 216.284C64.5572 216.242 64.6429 216.182 64.7144 216.107C64.786 216.033 64.8421 215.944 64.8794 215.848C64.9167 215.751 64.9345 215.648 64.9319 215.545C64.9319 215.439 64.9109 215.334 64.8702 215.237C64.8294 215.139 64.7697 215.05 64.6945 214.976C64.6193 214.902 64.5301 214.843 64.4321 214.803C64.334 214.764 64.2291 214.744 64.1234 214.745Z" fill="#212941"/>
</svg>
