<svg width="308" height="308" viewBox="0 0 308 308" fill="none" xmlns="http://www.w3.org/2000/svg">
<path d="M229.459 254.832C217.785 253.315 185.214 249.321 180.664 248.795C178.08 248.181 175.359 248.566 173.047 249.873C170.323 251.172 164.423 253.261 165.09 254.052C165.757 254.844 170.725 252.195 173.418 251.018C174.909 250.106 176.696 249.807 178.403 250.182C181.221 250.894 184.286 251.049 187.196 251.482C190.169 251.944 226.208 257.148 226.95 257.272C214.63 263.061 171.096 283.589 162.732 287.552C161.586 288.109 159.852 289.409 158.552 289.13C158.552 289.13 110.563 279.037 110.005 278.914C119.697 274.239 129.573 269.719 138.957 264.486C139.565 264.239 140.121 263.882 140.598 263.432C139.044 263.432 118.306 272.911 110.628 276.282C109.668 276.744 108.12 277.118 107.438 278.016C107.275 278.248 107.167 278.515 107.124 278.796C107.082 279.076 107.105 279.363 107.192 279.633C107.279 279.903 107.428 280.15 107.626 280.353C107.825 280.555 108.068 280.709 108.336 280.802C109.751 281.198 148.992 290.094 151.156 290.586C154.436 291.334 158.58 292.99 160.97 291.731C169.02 287.892 223.976 261.916 227.19 260.368C232.198 257.402 235.705 255.919 229.459 254.832Z" fill="#212941"/>
<path d="M294.262 186.032C294.704 167.614 293.922 152.883 293.922 106.648C294.068 104.647 293.933 102.636 293.518 100.673C293.267 99.6793 292.705 98.792 291.914 98.1402C291.123 97.4884 290.145 97.1062 289.121 97.0493C278.749 96.5226 268.254 97.0816 257.819 97.1124C247.138 97.1432 161.965 97.5143 154.998 97.5451C152.46 97.5451 150.044 97.4835 149.425 100.579C148.867 103.334 149.488 106.339 149.519 109.124C149.673 118.816 149.642 185.599 149.642 188.57C149.642 190.861 148.837 194.73 151.066 196.25C152.831 197.456 156.484 196.59 158.559 196.527C161.346 196.435 284.384 193.37 287.666 193.401C289.21 193.489 290.75 193.17 292.132 192.477C294.571 191.083 294.203 188.451 294.262 186.032ZM290.825 189.438C290.076 190.65 289.066 190.46 286.149 190.46C279.681 190.549 152.677 194.618 152.522 194.547C152.319 194.482 152.137 194.364 151.995 194.205C151.866 193.991 151.812 193.741 151.841 193.493C151.809 96.1976 151.659 100.345 151.995 100.177C152.131 99.7689 273.358 99.9907 273.145 99.9907C278.347 99.9907 284.233 99.1868 289.338 100.054C290.082 100.177 290.262 100.362 290.607 101.044C290.878 101.906 291.014 102.804 291.011 103.707C291.042 112.437 291.382 172.842 291.382 178.198C291.257 180.433 292.394 186.897 290.825 189.443V189.438Z" fill="#212941"/>
<path d="M138.87 64.7308C139.054 64.7601 139.272 64.546 139.581 64.0809C142.461 60.1801 148.776 59.3439 153.112 60.5513C155.295 61.2168 157.348 62.2535 159.179 63.6159C160.257 64.3859 160.759 64.3289 160.139 62.966C158.849 60.7054 156.813 58.9634 154.381 58.038C152.704 57.3353 150.904 56.9771 149.086 56.9846C142.618 57.0462 138.614 61.0641 138.497 63.5789C138.435 64.3289 138.652 64.6969 138.87 64.7308Z" fill="#212941"/>
<path d="M123.353 69.1583C123.54 69.2199 123.788 69.0351 124.066 68.6624C125.019 67.6022 126.19 66.7621 127.5 66.2007C128.81 65.6393 130.226 65.3699 131.651 65.4115C135.866 65.5039 137.073 67.1455 138.989 68.5392C140.795 69.9591 140.192 67.5952 138.835 65.721C135.313 61.0256 126.053 61.4583 123.51 66.3725C123.295 66.8668 122.429 68.8488 123.353 69.1583Z" fill="#212941"/>
<path d="M175.714 66.8052C172.429 64.2026 167.721 64.3042 163.886 65.9074C162.88 66.3079 161.972 66.9204 161.224 67.703C160.728 68.2605 160.636 68.6624 160.666 68.7564C160.574 68.4484 164.042 67.1147 164.413 67.0223C167.447 66.1553 171.534 66.1861 174.074 68.2543C174.898 69.0148 175.523 69.9655 175.896 71.0235C176.268 72.0814 176.376 73.2144 176.21 74.3235C176.044 75.5949 175.556 76.8028 174.792 77.8323C174.028 78.8617 173.013 79.6785 171.844 80.2047C169.521 81.2827 166.022 80.887 162.554 80.9486C151.312 81.1965 140.078 80.9794 128.839 81.2566C126.362 81.3603 123.88 81.3089 121.409 81.1026C118.869 80.8562 115.526 80.5466 114.225 77.9456C113.327 76.0252 114.379 73.6336 115.457 72.2476C117.035 70.2055 120.936 70.05 122.299 72.4647C122.521 72.8959 122.688 73.3539 122.793 73.8276C122.856 73.92 123.101 73.5797 123.01 72.6818C122.863 72.0403 122.56 71.4449 122.128 70.948C121.696 70.4512 121.149 70.0682 120.534 69.8328C119.55 69.3828 118.454 69.234 117.386 69.405C116.317 69.576 115.323 70.0592 114.528 70.7938C113.482 71.7179 112.708 72.9092 112.288 74.2399C111.868 75.5707 111.818 76.9906 112.144 78.3475C112.72 79.923 113.841 81.2408 115.303 82.0635C119.396 84.4136 128.445 84.0224 134.931 83.9824C139.947 83.9516 157.378 83.9516 161.064 83.89C164.561 83.8592 168.456 84.2919 171.844 83.2093C173.618 82.6324 175.197 81.5742 176.405 80.1526C177.613 78.7311 178.403 77.0021 178.686 75.1582C178.945 73.6279 178.808 72.0568 178.288 70.5946C177.767 69.1323 176.881 67.8277 175.714 66.8052Z" fill="#212941"/>
<path d="M135.461 29.2492C135.681 28.1919 136.255 27.2412 137.088 26.5543C137.921 25.8674 138.964 25.4855 140.044 25.4716C140.765 25.4842 141.476 25.6492 142.129 25.9557C142.782 26.2622 143.363 26.7033 143.833 27.2501C144.304 27.7968 144.654 28.4369 144.859 29.1283C145.065 29.8198 145.122 30.5469 145.027 31.262C144.634 32.3938 143.841 33.3433 142.797 33.9328C141.754 34.5223 140.531 34.7113 139.359 34.4646C138.186 34.2178 137.143 33.5522 136.426 32.5922C135.708 31.6323 135.365 30.4438 135.461 29.2492Z" fill="#3A5AB7"/>
<path d="M115.089 24.0794C114.887 24.1531 114.707 24.2766 114.566 24.4384C114.424 24.6002 114.326 24.7951 114.28 25.0051C114.234 25.2151 114.241 25.4332 114.302 25.6394C114.363 25.8456 114.475 26.0332 114.627 26.1846C117.97 29.3108 133.415 42.8413 152.585 45.5039C152.431 45.102 152.123 44.4829 151.841 43.8315C134.225 41.0148 119.983 28.9705 116.082 25.3792C129.36 20.7712 143.579 19.5578 157.445 21.8495C157.907 21.2612 158.312 20.7715 158.591 20.4558C144.014 18.0422 129.066 19.2874 115.089 24.0794Z" fill="#212941"/>
<path d="M218.467 34.2342C206.301 34.2342 192.121 36.4318 178.427 35.4662C175.207 35.0042 171.959 34.5422 168.705 34.0802C169.067 32.0874 169.119 30.0506 168.859 28.0419C168.457 27.9803 167.9 27.9187 167.217 27.7939C168.054 33.1192 165.986 38.6617 164.432 41.8202C165.143 41.9126 165.733 41.9742 166.104 42.0358C166.866 40.4387 167.498 38.7824 167.992 37.0832C167.961 37.2064 179.51 38.6001 180.656 38.7541C191.925 40.4265 205.486 39.4363 213.722 48.8796C216.248 51.8925 217.82 55.5885 218.238 59.4973C218.657 63.4062 217.904 67.3513 216.074 70.8308C213.632 74.5961 210.192 77.6082 206.136 79.5302C197.064 84.3289 186.723 85.9089 176.568 87.4258C184.454 87.6021 192.316 86.5043 199.852 84.1749C206.911 81.9757 214.032 77.9517 218.024 71.5114C220.089 67.9078 221.05 63.7763 220.786 59.631C220.521 55.4857 219.044 51.5096 216.538 48.1974C212.133 42.8026 205.871 39.2475 198.982 38.229C219.477 36.8661 240.254 35.4416 258.241 47.2996C269.061 54.4053 276.871 65.2615 280.169 77.7792C280.926 80.7915 280.916 87.0316 281.524 87.0192C282.132 87.0069 281.546 80.6975 281.045 77.5914C277.352 54.516 255.05 34.2342 218.467 34.2342Z" fill="#212941"/>
<path d="M156.855 25.256C156.855 25.256 163.203 12.1906 180.263 16.7721C180.263 16.7721 167.571 21.0841 167.817 26.8961L156.855 25.256Z" fill="#212941"/>
<path d="M152.182 41.5107L164.751 43.0276C164.572 45.3552 165.27 47.6656 166.708 49.5045C168.146 51.3435 170.22 52.578 172.522 52.9652C172.491 52.9652 154.998 55.3815 152.182 41.5107Z" fill="#212941"/>
<path d="M300.083 192.693C300.019 192.614 299.94 192.549 299.851 192.502C299.762 192.455 299.664 192.426 299.563 192.417C299.463 192.409 299.362 192.42 299.266 192.452C299.17 192.483 299.081 192.534 299.005 192.6C283.679 205.573 261.541 210.806 242.13 213.469C224.631 215.769 206.91 215.811 189.401 213.592C176.986 212.106 164.607 209.01 153.58 202.88C152.068 202.064 150.628 201.122 149.277 200.061C149.116 199.934 148.912 199.876 148.709 199.899C148.506 199.923 148.32 200.026 148.193 200.186C148.065 200.346 148.007 200.551 148.03 200.754C148.054 200.957 148.157 201.143 148.317 201.27C150.395 202.823 152.612 204.181 154.939 205.325C154.072 209.32 150.512 225.79 152.277 225.636C154.042 225.482 168.437 214.086 171.534 211.641C174.63 212.575 177.772 213.35 180.947 213.963C182.835 218.484 189.708 234.77 191.071 234.491C192.434 234.212 199.182 220.28 201.133 216.165C205.778 216.381 214.199 216.444 214.199 216.444C214.199 216.444 226.397 234.462 227.543 234.462C228.504 234.462 234.262 220.405 236.244 215.545C240.485 215.141 244.541 214.647 248.473 213.966C249.432 214.801 267.607 230.344 267.452 227.279C267.329 224.554 267.421 212.665 267.452 209.445C271.539 208.213 275.997 206.69 280.425 204.894C283.645 207.278 298.751 218.517 299.496 217.402C300.266 216.256 296.833 198.922 296.401 196.566C297.7 195.666 298.94 194.707 300.146 193.747C300.257 193.591 300.311 193.401 300.3 193.209C300.288 193.017 300.212 192.835 300.083 192.693ZM194.81 224.521C194.63 225.692 194.298 226.834 193.824 227.92C193.509 228.809 192.925 229.577 192.153 230.119C191.504 230.398 191.286 230.027 191.229 229.408C191.13 228.521 191.151 227.626 191.293 226.745C191.695 224.36 192.779 221.883 193.738 221.295C194.691 220.682 195.172 222.108 194.81 224.521ZM157.254 212.229C157.038 215.295 156.047 218.608 155.086 219.598C154.125 220.588 153.538 218.886 153.755 215.853C153.972 212.819 154.962 209.539 155.922 208.545C156.887 207.492 157.477 209.132 157.26 212.229H157.254ZM262.211 222.291C259.807 222.401 253.914 218.352 253.914 215.883C253.914 215.729 253.977 215.666 254.068 215.635C254.335 215.586 254.61 215.596 254.873 215.666C257.097 215.983 262.156 219.686 262.923 221.364C263.146 221.951 262.9 222.26 262.217 222.291H262.211Z" fill="#FF9500"/>
<path d="M208.5 257.557C178.986 253.47 180.962 253.635 180.357 253.903L167.786 259.293C168.189 260.285 168.374 261.988 166.146 263.566C163.514 265.424 159.062 264.433 157.135 263.845L128.645 276.074C128.609 276.095 128.579 276.126 128.559 276.164C128.539 276.201 128.531 276.243 128.534 276.285C128.537 276.327 128.552 276.367 128.577 276.401C128.602 276.435 128.637 276.461 128.676 276.476L153.693 282.08C154.035 282.16 154.393 282.128 154.714 281.988L208.556 257.993C208.593 257.967 208.621 257.931 208.639 257.89C208.657 257.849 208.664 257.803 208.658 257.759C208.653 257.714 208.635 257.672 208.607 257.636C208.579 257.601 208.542 257.573 208.5 257.557ZM177.044 266.134C176.174 269.358 172.54 270.769 169.335 271.644C163.375 273.154 157.7 271.798 154.999 269.6C153.7 268.522 154.132 268.27 155.649 268.641C158.271 269.286 160.969 269.568 163.668 269.477C166.659 269.323 171.852 268.263 173.73 266.566C174.451 265.868 174.915 264.948 175.05 263.955C175.185 262.961 174.982 261.95 174.474 261.085C174.195 260.499 174.012 260.22 174.195 260.064C174.728 259.532 178.215 261.789 177.044 266.134Z" fill="#3A5AB7"/>
<path d="M132.707 253.439C131.547 252.885 130.221 252.786 128.991 253.161C128.31 253.469 128.341 253.903 128.806 254.306C129.562 254.962 131.938 256.06 134.75 258.207C135.927 259.074 136.731 259.816 137.258 260.282C137.784 260.747 138.249 260.87 138.403 260.003C138.634 258.447 136.708 254.987 132.707 253.439Z" fill="#212941"/>
<path d="M137.816 249.445C136.764 248.879 135.566 248.642 134.378 248.764C133.667 248.918 133.575 249.352 133.916 249.816C135.647 251.397 137.501 252.839 139.46 254.128C140.605 254.964 141.441 255.614 142.06 255.985C142.648 256.325 143.082 256.387 143.113 255.552C142.981 254.355 142.459 253.234 141.627 252.363C140.583 251.126 139.282 250.13 137.816 249.445Z" fill="#212941"/>
<path d="M165.495 258.424C164.408 254.992 159.673 255.13 156.887 253.718C147.427 248.875 140.694 239.833 128.558 237.835C122.432 237.089 116.22 237.531 110.26 239.134C92.9845 242.943 75.584 246.288 58.6794 251.454C54.9495 245.935 52.2143 239.805 50.5975 233.342C50.4435 232.629 49.8275 231.731 49.2115 232.11C48.808 232.357 48.8696 232.945 48.9944 233.41C50.591 240.055 53.3704 246.358 57.1995 252.018C54.5676 252.788 49.3455 254.893 49.8614 255.548C50.3773 256.202 54.3197 254.279 56.0214 253.844C62.2615 252.22 70.8347 250.302 76.4557 249.169C88.808 246.631 101.131 243.999 113.454 241.521C138.106 236.61 143.395 250.874 156.428 255.95C160.343 257.616 162.933 257.101 163.703 258.643C163.825 258.836 163.902 259.055 163.927 259.282C163.952 259.51 163.925 259.74 163.847 259.955C163.77 260.17 163.644 260.365 163.479 260.524C163.315 260.683 163.117 260.802 162.899 260.873C161.431 261.46 159.86 261.745 158.279 261.709C157.629 261.709 155.276 261.152 154.874 261.492C154.78 261.554 155.028 261.771 155.833 262.108C158.419 263.143 162.917 263.186 164.812 261.303C165.184 260.935 165.445 260.47 165.566 259.961C165.687 259.453 165.662 258.92 165.495 258.424Z" fill="#212941"/>
<path d="M126.019 217.369C124.433 210.495 123.807 210.088 120.818 203.931C119.776 201.952 118.564 200.066 117.196 198.297C111.112 190.081 102.6 183.984 92.8641 180.867C88.8544 179.698 84.7173 179.022 80.5441 178.854C80.4471 178.82 79.0257 174.73 79.0041 174.642C84.9793 174.302 93.2768 172.166 93.7419 171.237C94.4888 169.038 94.9262 166.746 95.0417 164.426C96.3122 152.072 95.8471 138.853 91.6367 127.056C86.5871 112.951 75.3466 108.644 60.6827 112.226C40.1499 117.316 28.9587 140.733 26.4085 161.794C26.1313 164.147 25.3567 167.894 26.4408 170.184C28.546 174.496 51.9217 175.386 58.3604 175.541C58.2757 178.577 58.0093 181.394 58.0216 181.24C56.4215 182.033 46.6918 183.591 42.8803 184.862C35.5704 187.151 28.8803 191.08 23.3208 196.35C7.62049 211.054 3.48559 236.841 12.1127 254.804C19.42 269.759 34.8384 277.75 51.0623 278.273C63.2283 278.648 75.3343 275.641 86.8227 271.497C96.0062 268.295 104.786 264.035 112.984 258.803C115.063 257.807 117.689 258.919 120.57 259.638C121.499 259.987 122.489 260.145 123.481 260.1C123.635 260.007 123.019 259.915 121.56 259.358C117.929 257.996 116.297 257.235 113.882 257.376C111.994 257.499 110.104 259.079 108.492 259.977C101.547 263.651 94.3206 266.767 86.8812 269.295C71.4935 274.531 53.8451 278.181 37.8692 273.165C4.35876 262.681 3.60725 217.879 26.1359 197.59C32.083 192.158 39.2844 188.286 47.0953 186.32C55.6623 191.647 68.0963 195.999 77.8091 193.224C80.4741 192.44 82.9547 191.13 85.1036 189.37C87.2524 187.609 89.0258 185.435 90.3185 182.977C90.5649 183.069 90.8744 183.131 91.1224 183.223C100.287 186.223 108.385 191.815 114.436 199.324C116.224 201.772 118.975 204.466 124.754 217.405C126.39 220.93 126.927 221.306 126.019 217.369ZM37.2224 143.311C35.8287 145.354 35.5823 144.951 36.2984 142.598C38.7085 135.277 42.9631 128.701 48.6522 123.502C55.2157 117.694 63.5902 115.016 69.3344 115.297C71.8724 115.483 71.5936 115.913 69.2405 116.473C68.0639 116.814 66.3622 117.185 64.3125 117.898C47.4772 123.671 42.1288 136.333 37.2224 143.311ZM53.1059 141.081H53.012C53.0359 141.078 53.0581 141.067 53.0751 141.05C53.0833 141.05 53.0911 141.053 53.0969 141.059C53.1027 141.065 53.1059 141.073 53.1059 141.081ZM77.4718 191.702C66.9136 194.702 54.1885 188.513 49.4515 185.819C50.3185 185.665 57.4903 184.361 58.0586 184.125C58.6959 183.926 59.2568 183.536 59.6664 183.008C60.0759 182.48 60.3145 181.84 60.3501 181.173C60.9342 172.886 60.139 164.56 57.997 156.533C57.3163 154.149 56.5109 151.796 55.7378 149.412C55.5514 148.855 53.6942 149.134 53.1059 148.918C49.0634 147.743 49.1373 142.439 52.4899 141.526C53.6357 141.218 54.1916 141.834 55.1834 142.176C55.8457 142.4 56.5592 142.426 57.2359 142.25C57.9126 142.073 58.523 141.703 58.9918 141.184C63.0158 137.103 60.6411 131.573 67.2893 126.54C70.999 124.035 75.3828 122.718 79.8588 122.763C81.191 122.693 82.5214 122.932 83.7456 123.462C84.9698 123.992 86.0547 124.798 86.9151 125.818C88.8339 128.202 88.6183 130.771 88.5567 133.62C88.4351 140.522 88.2272 148.317 86.0173 154.394C84.3448 159.07 80.695 163.776 75.459 164.518C71.9769 164.944 68.4487 164.273 65.3659 162.599C64.0661 161.919 63.3531 161.392 63.1375 161.521C62.6878 161.702 65.1703 165.203 70.568 166.568C72.1156 166.959 73.7094 167.136 75.305 167.095C75.4282 167.095 75.553 167.064 75.6454 167.064C76.2336 169.665 76.5694 172.264 77.1854 174.835C77.6196 176.538 77.6812 180.408 79.8788 180.873C81.3341 181.181 82.8202 181.213 84.3063 181.46C85.7985 181.713 87.2763 182.044 88.7338 182.451C87.5896 184.682 85.9997 186.654 84.0625 188.245C82.1253 189.836 79.8821 191.013 77.4718 191.702Z" fill="#212941"/>
<path d="M64.9029 137.459C68.9901 132.134 72.4258 137.861 71.7451 135.942C69.6399 129.998 63.5708 134.331 63.1381 135.911C62.7654 137.522 64.4994 137.922 64.9029 137.459Z" fill="#212941"/>
<path d="M86.0487 135.384C86.5446 135.725 88.1231 134.889 87.35 133.464C86.577 132.04 79.6085 129.502 79.051 135.725C78.8662 137.707 80.8158 131.328 86.0487 135.384Z" fill="#212941"/>
<path d="M76.8217 151.02C77.2614 151.099 77.7108 151.11 78.1538 151.051C78.9019 151.005 79.6262 150.771 80.2589 150.369C80.5562 150.175 80.7752 149.882 80.8772 149.542C80.9793 149.202 80.9577 148.837 80.8164 148.511C80.4992 147.169 79.4643 143.168 78.5249 142.165C77.6887 141.173 77.1004 142.781 77.4715 145.818C77.5892 146.801 77.8181 147.767 78.1538 148.698C77.8939 148.845 77.6453 149.01 77.4099 149.194C76.3828 149.777 75.6128 150.757 76.8217 151.02Z" fill="#212941"/>
<path d="M71.65 140.306C70.5095 140.077 69.3418 140.015 68.1834 140.122C66.8513 140.06 65.9535 140.091 66.3878 140.679C66.7765 141.07 67.272 141.338 67.8123 141.449C69.5124 141.971 72.7141 140.882 71.65 140.306Z" fill="#212941"/>
<path d="M85.2114 137.303C84.1715 137.493 83.1814 137.893 82.3023 138.48C81.2243 139.096 80.6607 139.687 81.249 139.904C81.8225 139.964 82.4021 139.911 82.9547 139.746C83.5073 139.581 84.022 139.309 84.4691 138.945C85.5841 138.109 85.8305 137.334 85.2114 137.303Z" fill="#212941"/>
<path d="M70.2895 154.394C70.5374 155.694 75.1805 159.689 77.1317 155.23C77.7477 153.806 74.717 157.955 71.7417 153.342C71.5811 153.224 71.3869 153.16 71.1873 153.159C70.9876 153.158 70.7929 153.22 70.6312 153.338C70.4695 153.455 70.3492 153.62 70.2878 153.81C70.2264 154 70.227 154.205 70.2895 154.394Z" fill="#212941"/>
<path d="M276.151 132.428H164.69C164.491 132.444 164.297 132.5 164.12 132.593C163.943 132.686 163.786 132.813 163.659 132.968C163.532 133.122 163.437 133.3 163.38 133.492C163.323 133.683 163.305 133.884 163.328 134.083L164.071 179.131C164.108 179.482 164.274 179.807 164.538 180.042C164.801 180.277 165.143 180.406 165.496 180.402H276.182C276.558 180.397 276.918 180.246 277.184 179.98C277.45 179.713 277.601 179.354 277.605 178.977V133.774C277.611 133.586 277.576 133.399 277.503 133.226C277.431 133.053 277.322 132.897 277.184 132.77C277.046 132.642 276.883 132.546 276.705 132.487C276.527 132.428 276.338 132.408 276.151 132.428ZM203.856 172.585H176.114C175.713 172.581 175.329 172.423 175.042 172.142C174.755 171.862 174.588 171.482 174.574 171.082C174.451 166.129 174.078 150.369 173.893 141.143C173.888 140.936 173.925 140.731 174 140.54C174.076 140.348 174.189 140.173 174.333 140.026C174.478 139.879 174.65 139.762 174.84 139.683C175.031 139.603 175.235 139.563 175.441 139.564H203.306C203.712 139.562 204.103 139.72 204.393 140.004C204.683 140.288 204.849 140.675 204.855 141.081C204.917 148.977 205.35 164.828 205.411 170.989C205.414 171.196 205.376 171.402 205.299 171.594C205.223 171.786 205.109 171.961 204.964 172.11C204.82 172.258 204.648 172.376 204.457 172.458C204.267 172.539 204.063 172.582 203.856 172.585ZM213.145 149.44C214.004 148.873 215.033 148.978 215.343 149.626C215.475 150.047 215.455 150.502 215.286 150.91C215.117 151.317 214.81 151.653 214.419 151.856C213.552 152.412 212.531 152.318 212.219 151.67C211.813 151.02 212.27 150.018 213.145 149.44ZM212.247 159.627C212.111 159.199 212.136 158.735 212.319 158.324C212.501 157.913 212.828 157.583 213.237 157.397C214.161 156.84 215.219 156.935 215.56 157.584C215.693 158.012 215.666 158.475 215.484 158.885C215.301 159.295 214.976 159.624 214.568 159.812C213.67 160.4 212.606 160.314 212.247 159.627ZM215.002 167.058C214.078 167.615 213.02 167.52 212.68 166.871C212.546 166.443 212.573 165.981 212.755 165.571C212.938 165.161 213.263 164.831 213.67 164.643C214.594 164.085 215.652 164.181 215.992 164.828C216.134 165.256 216.111 165.722 215.928 166.134C215.745 166.546 215.415 166.875 215.002 167.058ZM247.387 167.244C237.294 167.786 225.901 167.706 221.844 167.058C217.788 166.377 222.681 165.385 232.778 164.828C242.876 164.27 254.265 164.366 258.321 165.014C262.342 165.695 257.449 166.702 247.387 167.244ZM226.829 156.686C231.967 156.114 237.82 156.224 239.895 156.871C241.969 157.553 239.462 158.543 234.291 159.1C229.152 159.658 223.3 159.562 221.225 158.914C219.151 158.266 221.657 157.26 226.829 156.686ZM247.79 151.142C237.164 151.745 225.095 151.699 220.791 151.049C216.519 150.399 221.689 149.377 232.309 148.789C242.935 148.173 255.004 148.231 259.308 148.881C263.58 149.534 258.439 150.54 247.786 151.143L247.79 151.142Z" fill="#3A5AB7"/>
<path d="M278.379 108.108H164.752C164.136 108.108 163.674 108.912 163.674 109.904V119.222C163.674 120.214 164.201 121.081 164.82 121.018H278.447C279.063 121.018 279.525 120.214 279.525 119.222V109.904C279.463 108.912 278.998 108.108 278.379 108.108ZM276.862 115.817C276.864 115.952 276.838 116.085 276.787 116.21C276.736 116.335 276.661 116.448 276.566 116.543C276.471 116.638 276.357 116.713 276.233 116.764C276.108 116.815 275.974 116.84 275.84 116.838H167.197C167.063 116.84 166.929 116.814 166.805 116.763C166.68 116.713 166.567 116.638 166.472 116.542C166.377 116.447 166.302 116.334 166.251 116.21C166.2 116.085 166.175 115.952 166.176 115.817V113.37C166.175 113.236 166.2 113.102 166.251 112.978C166.302 112.853 166.377 112.74 166.472 112.645C166.567 112.55 166.68 112.475 166.805 112.424C166.929 112.373 167.063 112.348 167.197 112.349H275.84C275.974 112.348 276.108 112.373 276.232 112.424C276.357 112.475 276.47 112.55 276.565 112.645C276.661 112.74 276.736 112.853 276.787 112.978C276.838 113.102 276.864 113.236 276.862 113.37V115.817Z" fill="#3A5AB7"/>
</svg>
