<svg width="308" height="308" viewBox="0 0 308 308" fill="none" xmlns="http://www.w3.org/2000/svg">
<path d="M22.5508 210.934C22.5508 211.873 31.4166 211.49 39.9281 211.704C44.4403 211.704 49.048 211.704 53.5602 211.801C57.4965 211.801 72.0895 211.704 72.185 211.608C72.3775 211.513 72.6655 201.24 72.57 200.855C72.3082 200.072 52.9488 200.374 22.9342 200.374C22.7433 200.279 22.6463 209.206 22.5508 210.934ZM28.5029 201.43C37.0068 201.43 47.6559 201.621 53.5602 201.621C57.4965 201.621 70.9376 201.43 71.5135 201.333C71.4165 202.006 71.2256 210.453 71.2256 210.55L23.9907 210.453C23.9907 208.913 23.7027 201.521 23.7027 201.43C23.9907 201.333 27.257 201.432 28.5029 201.432V201.43Z" fill="#3A5AB7"/>
<path d="M102.139 218.806C101.779 217.858 74.3825 218.423 52.5053 218.135C46.1682 218.135 22.8387 217.847 22.5508 218.518C22.0718 219.479 22.5508 226.583 22.5508 228.99C22.5508 229.565 23.0312 229.76 23.5117 229.565C30.9792 229.565 98.6037 230.054 100.795 229.853C101.947 229.757 102.139 229.083 102.139 228.125C102.139 220.873 102.612 220.054 102.139 218.806ZM92.7301 228.407C92.7301 228.407 27.063 228.407 23.8921 228.504C24.1801 228.504 23.6041 219.572 23.6041 219.384C23.6041 219.384 99.928 219.479 101.08 219.384C101.08 222.167 100.409 228.695 100.599 228.695C97.986 228.42 95.3567 228.324 92.7301 228.407Z" fill="#3A5AB7"/>
<path d="M87.259 236.852C86.874 236.082 69.5936 236.181 64.601 236.181C22.6221 236.181 23.6878 235.843 22.8392 236.373C21.9753 236.949 22.4558 238.965 22.5513 239.829C22.6483 242.228 22.6483 244.629 22.6483 246.933C22.6483 248.182 29.1763 247.606 30.2312 247.606C35.2239 247.606 86.7785 247.797 86.7785 247.797C87.4499 247.897 87.4499 237.336 87.259 236.852ZM23.8957 246.452C23.8957 244.912 23.6077 237.674 23.6077 237.573H86.1071C86.1071 238.725 85.7221 246.549 85.7221 246.645C84.604 246.201 25.8407 246.385 23.8957 246.455V246.452Z" fill="#3A5AB7"/>
<path d="M87.5477 254.328C87.3937 254.328 26.4621 254.041 24.7604 254.232C24.2799 254.232 22.7445 254.041 22.4504 254.616C22.0654 255.287 22.4504 263.257 22.4504 265.088C22.4504 265.662 22.9293 265.858 23.4098 265.662C26.0016 265.662 95.0291 265.952 95.0291 265.952C96.181 265.855 96.0855 265.374 96.181 264.412C96.3772 261.312 96.4096 258.203 96.278 255.099C96.1871 254.52 89.2756 254.342 87.5477 254.328ZM87.6432 264.506C87.6432 264.506 26.8717 264.506 23.8965 264.601C23.8965 263.061 23.6085 255.669 23.6085 255.481C27.5232 255.739 91.7442 256.131 95.3232 255.481C95.2277 256.153 94.9397 264.601 94.9397 264.794C92.5172 264.529 90.0791 264.433 87.6432 264.506Z" fill="#3A5AB7"/>
<path d="M78.81 73.6474C75.7839 70.532 64.6975 58.7664 62.2011 56.0791C60.8567 54.6392 58.6483 52.7188 56.7295 54.1587C55.5776 54.9287 55.5776 56.6551 54.6166 57.6145C53.1767 59.0559 51.8323 56.7505 50.9684 55.8866C46.6564 51.2789 42.2319 46.7667 37.9122 42.2545C37.8233 42.165 37.7112 42.102 37.5884 42.0728C37.4656 42.0435 37.3371 42.0491 37.2174 42.089C37.0976 42.1289 36.9914 42.2014 36.9106 42.2984C36.8299 42.3954 36.7778 42.513 36.7603 42.638C36.5678 43.311 37.8152 44.5584 38.1047 45.0388C41.486 50.8568 45.3049 56.4091 49.5285 61.6477C50.7759 63.1877 52.4083 65.1035 54.6105 64.8155C57.2023 64.623 57.6828 60.2078 60.4625 61.8387C66.798 65.487 71.9832 70.6721 77.9353 74.7039C78.0754 74.8199 78.2558 74.8755 78.4369 74.8584C78.618 74.8414 78.7849 74.7531 78.9009 74.613C79.0169 74.4729 79.0725 74.2925 79.0554 74.1114C79.0384 73.9303 78.9501 73.7634 78.81 73.6474Z" fill="#FF9500"/>
<path d="M57.8803 77.77C51.0935 74.4482 44.3437 71.242 37.6246 67.9772C36.1691 67.0244 34.5366 66.3745 32.8245 66.066C30.1356 65.9705 29.7445 68.4669 29.5597 70.4827C29.1762 73.5627 25.0475 70.5782 23.5121 69.8113C18.5194 67.5013 13.5267 65.0111 8.43856 62.7057C6.99866 62.0343 8.0551 64.0502 8.34308 64.4336C9.63165 65.7088 11.0843 66.8068 12.6628 67.6984C16.0123 70.0084 21.624 74.9364 27.6393 77.4913C28.3419 77.92 29.1424 78.1623 29.9649 78.1952C30.7874 78.2281 31.6047 78.0505 32.3394 77.6792C33.9718 76.6243 33.4913 72.7835 35.6996 72.976C43.1871 73.552 50.1002 77.2002 57.2997 78.828C57.3693 78.869 57.4465 78.8956 57.5266 78.9062C57.6067 78.9168 57.6881 78.9112 57.766 78.8898C57.8439 78.8684 57.9168 78.8315 57.9802 78.7814C58.0436 78.7313 58.0963 78.669 58.1351 78.5982C58.174 78.5273 58.1983 78.4494 58.2065 78.369C58.2147 78.2886 58.2066 78.2074 58.1829 78.1302C58.1591 78.0529 58.1201 77.9813 58.0681 77.9194C58.0161 77.8575 57.9522 77.8067 57.8803 77.77Z" fill="#FF9500"/>
<path d="M193.536 108.017C194.688 109.457 196.033 107.441 196.416 106.477C196.598 106.136 196.668 105.746 196.617 105.362C196.566 104.979 196.395 104.621 196.13 104.34C194.751 103.3 192.429 106.665 193.536 108.017Z" fill="#212941"/>
<path d="M227.906 92.9452C226.931 91.1171 225.841 89.3532 224.641 87.6645C223.457 86.0558 222.14 84.549 220.705 83.16C213.542 76.4594 204.61 75.1828 198.817 77.6884C194.888 79.3131 190.253 83.8222 189.312 88.0557C188.943 89.6952 189.219 91.4138 190.082 92.8558C190.37 93.4333 191.137 92.9529 190.946 92.3769C189.794 89.7851 190.946 86.9037 192.486 84.6969C194.156 82.3797 196.364 80.5017 198.918 79.2237C203.776 76.7952 212.316 77.693 219.176 83.6405C220.79 84.9986 222.269 86.5097 223.592 88.1527C225.009 89.798 226.323 91.5292 227.527 93.3363C227.713 93.4256 228.098 93.2331 227.906 92.9452Z" fill="#212941"/>
<path d="M209.471 86.3201C204.257 84.7693 198.342 84.6446 194.208 88.145C193.347 88.8595 191.475 90.6783 191.615 91.7917C191.612 91.8835 191.633 91.9745 191.677 92.0555C191.72 92.1364 191.784 92.2047 191.862 92.2533C191.94 92.3019 192.029 92.3292 192.121 92.3326C192.213 92.3359 192.304 92.3151 192.385 92.2722C192.961 91.8887 193.249 91.1203 193.632 90.6398C197.539 85.952 203.43 86.3278 209.473 86.9915C209.759 86.896 209.759 86.3201 209.471 86.3201Z" fill="#212941"/>
<path d="M209.759 92.1767C208.325 94.6625 207.38 97.4003 206.976 100.242C206.591 103.012 206.591 105.823 206.976 108.593C207.839 114.257 210.911 120.018 209.376 125.873C207.629 132.713 200.855 137.183 199.39 144.507C198.181 150.764 200.325 156.724 199.583 162.459C199.353 165.183 198.279 167.767 196.511 169.851C196.223 170.139 196.608 170.523 196.991 170.33C197.958 169.638 198.774 168.756 199.39 167.738C200.97 164.39 201.537 160.653 201.023 156.986C200.445 150.806 199.301 145.832 202.463 140.185C206.299 133.316 211.898 129.514 210.911 120.319C210.072 113.792 207.277 109.362 207.936 101.885C208.227 98.6299 208.97 95.4313 210.144 92.3815C210.337 92.0812 209.952 91.8887 209.759 92.1767Z" fill="#212941"/>
<path d="M186.815 263.161C178.365 263.257 169.918 263.449 161.469 263.545C152.061 263.64 119.9 264.025 119.9 264.121C119.803 256.056 119.996 223.128 119.996 214.775C120.074 210.065 119.913 205.355 119.515 200.662C119.515 200.56 119.474 200.462 119.402 200.39C119.33 200.318 119.232 200.277 119.13 200.277C119.028 200.277 118.93 200.318 118.858 200.39C118.786 200.462 118.745 200.56 118.745 200.662C118.437 205.069 118.245 257.959 118.36 262.969C118.36 265.561 118.841 265.279 121.241 265.279C124.697 265.279 128.153 265.183 131.609 265.183C136.218 265.088 186.331 264.991 187.004 264.51C187.583 264.216 187.776 263.151 186.815 263.161Z" fill="#212941"/>
<path d="M182.015 206.614C181.427 206.294 180.743 206.198 180.09 206.342C179.437 206.487 178.858 206.863 178.46 207.401C178.062 207.94 177.873 208.604 177.926 209.271C177.98 209.938 178.273 210.563 178.752 211.031C172.196 226.269 164.758 241.112 156.477 255.486C154.749 253.472 153.021 251.454 151.198 249.438C150.91 249.053 150.334 249.246 150.046 249.631C149.276 250.686 148.506 251.839 147.736 252.894C146.229 250.44 144.851 247.909 143.607 245.311C143.544 245.202 143.453 245.11 143.343 245.047C143.234 244.984 143.109 244.95 142.983 244.95C142.856 244.95 142.732 244.984 142.622 245.047C142.513 245.11 142.422 245.202 142.358 245.311C140.343 249.438 138.327 253.663 136.311 257.785C134.855 255.353 133.252 253.013 131.511 250.777C131.46 250.709 131.395 250.655 131.32 250.617C131.245 250.58 131.163 250.56 131.079 250.56C130.995 250.56 130.912 250.58 130.837 250.617C130.762 250.655 130.697 250.709 130.647 250.777C129.398 252.317 128.055 253.944 126.903 255.577C126.558 255.293 126.145 255.106 125.705 255.032C125.265 254.959 124.813 255.002 124.395 255.158C123.977 255.314 123.607 255.577 123.323 255.921C123.038 256.264 122.849 256.677 122.774 257.117C122.684 257.525 122.685 257.948 122.777 258.356C122.869 258.764 123.049 259.146 123.306 259.476C123.563 259.806 123.89 260.075 124.262 260.265C124.635 260.454 125.045 260.559 125.463 260.571C125.963 260.622 126.467 260.525 126.913 260.293C127.358 260.061 127.727 259.704 127.972 259.265C128.217 258.827 128.329 258.326 128.294 257.825C128.259 257.324 128.078 256.844 127.773 256.444C128.925 255.099 130.083 253.757 131.133 252.411C132.877 254.746 134.48 257.183 135.934 259.709C136.124 260.092 136.893 260.189 137.085 259.709C139.101 255.58 141.022 251.451 143.038 247.322C144.282 249.826 145.66 252.262 147.165 254.619C147.454 255.099 148.03 255.002 148.414 254.619C149.184 253.469 150.046 252.309 150.813 251.259C152.542 253.276 154.366 255.387 156.094 257.403C156.176 257.481 156.275 257.539 156.383 257.572C156.491 257.605 156.606 257.613 156.718 257.594C156.829 257.575 156.935 257.531 157.027 257.465C157.118 257.398 157.193 257.311 157.246 257.211C165.752 242.653 173.35 227.584 179.998 212.089C180.482 212.283 181.012 212.333 181.524 212.231C182.035 212.129 182.506 211.88 182.879 211.514C184.128 209.877 183.832 207.302 182.015 206.614Z" fill="#212941"/>
<path d="M234.146 212.566C234.205 212.559 234.26 212.531 234.299 212.487C234.339 212.443 234.361 212.385 234.361 212.326C234.361 212.267 234.339 212.209 234.299 212.165C234.26 212.121 234.205 212.092 234.146 212.086C234.087 212.092 234.033 212.121 233.993 212.165C233.954 212.209 233.932 212.267 233.932 212.326C233.932 212.385 233.954 212.443 233.993 212.487C234.033 212.531 234.087 212.559 234.146 212.566Z" fill="#212941"/>
<path d="M258.72 234.08C258.54 224.597 248.949 215.654 240.479 212.959C239.709 212.671 239.422 213.821 240.191 214.111C244.711 215.567 248.768 218.189 251.953 221.711C255.139 225.233 257.34 229.532 258.337 234.175C258.34 234.36 258.729 234.36 258.72 234.08Z" fill="#FF9500"/>
<path d="M231.46 204.886C236.435 204.544 244.803 204.789 251.326 204.789C254.442 204.789 292.423 205.026 289.632 203.83C288.665 203.546 287.663 203.401 286.656 203.399C233.912 203.399 239.473 203.134 231.524 203.628C231.364 203.631 231.211 203.695 231.096 203.806C230.981 203.917 230.913 204.068 230.905 204.228C230.897 204.387 230.95 204.544 231.053 204.666C231.156 204.789 231.302 204.867 231.46 204.886Z" fill="#212941"/>
<path d="M256.995 217.366C266.56 217.49 284.512 217.463 284.356 217.463C286.089 217.511 287.823 217.415 289.54 217.174C290.404 216.983 289.828 216.404 289.061 216.404C285.316 216.307 281.574 216.211 277.828 216.211H256.9C256.227 216.216 256.227 217.357 256.995 217.366Z" fill="#212941"/>
<path d="M264.482 244.056C272.744 243.911 281.188 245.113 289.349 243.959C289.828 243.865 289.637 243.189 289.253 243.189C277.129 243.468 270.133 242.381 264.482 243.189C264.367 243.189 264.257 243.235 264.176 243.316C264.095 243.397 264.049 243.508 264.049 243.623C264.049 243.738 264.095 243.848 264.176 243.929C264.257 244.01 264.367 244.056 264.482 244.056Z" fill="#212941"/>
<path d="M299.717 201.142C299.716 200.995 299.669 200.851 299.583 200.73C299.497 200.61 299.376 200.519 299.237 200.469C297.697 200.279 294.725 200.279 293.188 200.279C292.228 200.279 292.324 203.733 292.418 204.983C292.418 205.365 292.706 205.559 293.091 205.653C295.03 205.912 296.991 205.976 298.943 205.846C299.09 205.844 299.234 205.797 299.354 205.711C299.474 205.625 299.565 205.504 299.614 205.365C299.794 203.965 299.829 202.55 299.717 201.142Z" fill="#3A5AB7"/>
<path d="M299.718 214.966C299.716 214.818 299.669 214.674 299.583 214.554C299.497 214.434 299.376 214.343 299.237 214.294C297.221 214.006 295.206 214.294 293.19 214.199C293.101 214.196 293.012 214.212 292.929 214.245C292.847 214.278 292.772 214.328 292.709 214.391C292.646 214.453 292.596 214.529 292.563 214.611C292.53 214.694 292.514 214.783 292.517 214.872C292.517 214.966 292.324 217.559 292.324 218.806C292.324 219.191 292.612 219.384 292.997 219.478C294.937 219.734 296.897 219.799 298.849 219.672C298.997 219.67 299.14 219.623 299.26 219.537C299.38 219.451 299.471 219.33 299.521 219.191C299.777 217.798 299.844 216.377 299.718 214.966ZM293.669 218.135V215.543H298.373C298.405 216.444 298.34 217.345 298.181 218.232C296.677 218.341 295.166 218.308 293.669 218.135Z" fill="#FF9500"/>
<path d="M299.718 241.848C299.716 241.7 299.669 241.556 299.583 241.436C299.497 241.316 299.376 241.225 299.237 241.176C297.408 240.77 295.528 240.651 293.662 240.825C293.321 240.912 293.014 241.101 292.783 241.367C292.552 241.632 292.407 241.963 292.369 242.313C292.252 243.402 292.205 244.497 292.229 245.591C292.229 245.976 292.517 246.167 292.9 246.264C294.84 246.522 296.8 246.585 298.752 246.455C298.9 246.454 299.043 246.407 299.164 246.322C299.284 246.236 299.375 246.116 299.425 245.976C299.811 244.636 299.911 243.229 299.718 241.848Z" fill="#212941"/>
<path d="M299.335 251.448C298.058 252.611 296.9 253.897 295.878 255.289C294.823 256.632 293.669 257.976 292.614 259.416C292.541 259.484 292.482 259.567 292.442 259.658C292.401 259.75 292.379 259.849 292.377 259.949C292.375 260.049 292.394 260.149 292.431 260.242C292.469 260.335 292.525 260.419 292.595 260.49C292.666 260.561 292.75 260.617 292.843 260.654C292.936 260.692 293.036 260.711 293.136 260.709C293.236 260.707 293.335 260.686 293.427 260.645C293.518 260.604 293.601 260.546 293.669 260.473C294.815 258.911 298.865 253.974 299.814 252.311C299.911 252.024 300.197 251.735 300.005 251.447C299.911 251.256 299.53 251.256 299.335 251.448Z" fill="#212941"/>
<path d="M298.66 258.457C298.775 258.553 298.909 258.622 299.054 258.66C299.199 258.698 299.35 258.704 299.498 258.676C299.645 258.648 299.784 258.589 299.906 258.501C300.027 258.413 300.127 258.3 300.2 258.169C300.585 257.496 299.816 256.729 299.145 256.92C298.981 256.948 298.827 257.02 298.701 257.13C298.576 257.239 298.483 257.381 298.433 257.54C298.382 257.699 298.377 257.869 298.417 258.03C298.457 258.192 298.541 258.34 298.66 258.457Z" fill="#212941"/>
<path d="M293.092 254.328C293.207 254.424 293.342 254.494 293.487 254.531C293.632 254.569 293.783 254.575 293.93 254.547C294.078 254.52 294.217 254.46 294.338 254.372C294.46 254.285 294.56 254.171 294.632 254.04C295.016 253.368 294.247 252.6 293.576 252.793C293.409 252.816 293.252 252.886 293.124 252.995C292.995 253.104 292.9 253.247 292.85 253.408C292.799 253.568 292.795 253.74 292.838 253.903C292.881 254.066 292.969 254.213 293.092 254.328Z" fill="#212941"/>
<path d="M157.821 119.154C157.18 117.633 156.232 116.261 155.037 115.123C155.182 114.428 155.215 113.715 155.134 113.01C155.037 111.665 148.512 107.928 145.917 106.577C140.95 103.974 135.819 101.697 130.555 99.7612C130.493 99.733 130.425 99.7181 130.356 99.7175C130.288 99.7169 130.22 99.7306 130.156 99.7576C130.093 99.7847 130.037 99.8246 129.99 99.8748C129.943 99.925 129.907 99.9844 129.884 100.049C129.789 99.9537 129.02 99.4732 128.732 99.2792C121.531 94.767 115.388 89.9668 111.067 82.4793C107.987 77.0062 106.94 71.1511 105.403 65.1974C106.843 64.526 104.827 61.1657 103.77 61.7417C95.3218 65.8704 88.8908 72.1105 81.8822 79.407C78.6625 80.556 75.7881 82.5051 73.5293 85.0711C72.0131 86.9191 70.9891 89.1206 70.5527 91.4707C70.1162 93.8208 70.2814 96.2432 71.0329 98.5123C71.731 100.662 72.7335 102.701 74.0097 104.566C74.1052 109.271 74.5857 117.719 74.8737 120.023C75.0662 121.367 74.9692 123.959 76.4137 124.823C77.3746 125.399 79.774 125.111 79.4937 123.671C79.9742 123.479 95.1432 117.334 102.631 116.663C108.872 116.087 114.632 117.433 120.584 119.062C120.488 119.255 120.488 119.447 120.776 119.64C123.055 121.163 125.428 122.542 127.88 123.767C127.688 124.537 126.921 128.183 125.865 131.256C125.127 133.527 124.091 135.69 122.785 137.688C122.209 138.648 122.497 138.648 122.785 138.743C123.265 138.936 124.896 135.768 125.865 133.56C127.07 130.487 127.97 127.303 128.552 124.055C134.288 127.033 140.343 129.353 146.601 130.968C146.719 131.005 146.846 131.006 146.966 130.972C147.086 130.938 147.193 130.869 147.274 130.775C151.076 126.891 153.689 122 154.803 116.68C155.618 117.605 156.255 118.673 156.682 119.83C157.031 121.398 156.848 123.038 156.161 124.491C155.689 125.339 155.043 126.077 154.264 126.657C153.486 127.237 152.593 127.646 151.646 127.855C150.013 128.533 149.336 129.029 151.815 129.101C156.387 129.229 159.423 123.265 157.821 119.154ZM74.2977 102.256C72.5491 99.3629 71.6509 96.0357 71.7059 92.6556C72.0521 90.0799 73.0927 87.6469 74.7161 85.6174C76.3395 83.5879 78.4845 82.0384 80.9213 81.1349C77.0086 87.5228 74.7334 94.7778 74.2977 102.256ZM121.436 118.386C118.795 117.223 116.023 116.384 113.18 115.89C102.982 113.978 95.0076 116.456 85.8185 119.923C84.1861 120.594 79.8664 122.322 79.2904 122.61C73.9974 92.0365 82.6168 76.7367 104.731 65.6795C104.827 66.3509 105.883 71.1526 106.271 72.976C107.061 76.388 108.22 79.7037 109.729 82.8643C112.493 88.1666 116.474 92.7392 121.345 96.2084C122.689 97.1694 129.507 100.818 129.793 100.913C129.849 104.274 129.123 107.602 127.673 110.634C126.222 113.666 124.087 116.32 121.436 118.386Z" fill="#212941"/>
<path d="M121.148 112.626C109.777 106.158 91.5799 101.503 80.9215 108.881C80.7306 108.978 80.8261 109.266 81.114 109.266C94.358 103.965 104.638 106.868 118.074 112.434C118.951 112.832 119.849 113.185 120.763 113.49C121.214 113.637 121.635 112.902 121.148 112.626Z" fill="#212941"/>
<path d="M137.469 144.116C137.007 143.563 136.452 142.914 135.897 142.268C137.299 140.685 138.865 138.974 140.254 137.399C141.345 136.054 142.309 134.61 143.134 133.087C143.348 132.552 143.034 132.294 142.579 132.742C141.412 133.891 136.806 139.013 134.935 141.224C134.087 140.243 132.962 139.543 131.708 139.216C129.817 138.856 128.519 140.932 124.509 144.016C124.124 144.304 124.604 144.976 124.989 144.689C126.141 143.824 127.31 143.08 128.541 142.193C129.32 141.631 130.173 140.56 131.229 140.463C133.15 140.271 134.973 142.961 135.933 144.304C140.767 150.748 141.631 153.935 142.653 160.53C142.75 161.3 143.807 161.009 143.902 160.337C144.161 156.193 142.222 149.699 137.469 144.116Z" fill="#212941"/>
<path d="M118.555 160.819C120.644 163.78 123.453 166.159 126.717 167.732C128.321 168.441 130.047 168.833 131.799 168.884C133.047 168.884 134.008 168.404 135.16 168.308C135.93 168.213 136.407 168.789 137.08 168.789C138.135 168.884 137.944 167.925 137.368 167.444C136.024 166.292 134.391 167.061 132.856 167.252C127.172 167.883 123 163.628 118.934 160.148C118.748 159.955 118.27 160.44 118.555 160.819Z" fill="#212941"/>
<path d="M229.152 93.9046C231.975 93.8849 234.77 94.465 237.352 95.6066C239.934 96.7482 242.244 98.4252 244.13 100.527C248.111 105.074 250.143 111.006 249.788 117.04C249.597 123.473 246.62 129.234 245.275 135.474C243.638 143.205 245.594 146.694 247.676 154.099C249.78 161.367 248.742 166.157 246.332 173.395C246.045 174.356 245.948 175.315 245.66 176.276C245.565 176.66 246.236 177.046 246.43 176.564C246.873 175.793 247.258 174.99 247.584 174.163C247.916 173.314 248.204 172.448 248.448 171.57C252.574 159.179 248.796 153.595 247.103 146.61C246.177 143.429 246.013 140.075 246.623 136.818C247.775 130.386 250.943 124.434 251.328 117.808C251.767 111.609 249.922 105.462 246.142 100.528C242.208 95.6309 235.487 91.9827 229.15 93.1361C229.075 93.1683 229.01 93.2219 228.965 93.2903C228.92 93.3587 228.896 93.4389 228.896 93.5209C228.897 93.6028 228.921 93.6829 228.966 93.7512C229.012 93.8194 229.076 93.8728 229.152 93.9046Z" fill="#212941"/>
<path d="M194.976 100.049C196.128 100.049 197.286 99.2792 198.432 99.8567C199.578 100.434 199.202 102.065 199.584 103.121C199.777 103.505 199.969 103.793 200.354 103.602C201.027 103.314 201.124 102.161 201.124 101.585C201.02 100.897 200.734 100.249 200.295 99.709C199.857 99.169 199.281 98.7563 198.629 98.5138C197.998 98.2136 197.29 98.1169 196.602 98.2372C195.914 98.3575 195.28 98.6888 194.788 99.1852C194.688 99.3777 194.399 100.049 194.976 100.049Z" fill="#212941"/>
<path d="M259.585 235.896C259.585 235.705 259.297 235.512 259.107 235.512C255.842 235.896 232.609 238.392 231.265 238.592C231.117 238.601 230.977 238.659 230.868 238.759C230.758 238.858 230.686 238.992 230.664 239.138C230.641 239.284 230.67 239.433 230.744 239.561C230.818 239.689 230.934 239.787 231.072 239.84C234.049 241.087 257.089 249.823 257.089 249.823C257.474 250.016 257.665 249.728 257.665 249.44C259.908 245.301 260.59 240.495 259.585 235.896Z" fill="#212941"/>
<path d="M229.345 240.12C230.401 237.143 231.553 234.071 232.425 231C233.195 228.504 239.047 212.471 238.377 212.374C232.735 211.234 226.9 211.498 221.384 213.144C207.272 217.848 199.014 232.92 204.29 247.13C204.386 247.418 204.578 247.801 204.674 248.089C206.205 251.653 208.453 254.865 211.277 257.524C214.101 260.183 217.442 262.233 221.092 263.546C232.708 267.675 249.509 264.891 256.228 253.466C256.612 252.908 256.904 252.292 257.092 251.642C257.282 251.16 229.537 240.215 229.345 240.12Z" fill="#3A5AB7"/>
<path d="M116.349 139.027C115.602 140.684 115.248 142.491 115.315 144.307C115.381 146.124 115.866 147.9 116.732 149.499C118.043 151.963 121.733 155.478 124.412 155.164C124.49 155.164 124.566 155.141 124.631 155.098C124.696 155.056 124.748 154.995 124.778 154.923C124.809 154.851 124.818 154.772 124.805 154.696C124.791 154.619 124.755 154.548 124.702 154.491C123.548 153.532 122.205 153.147 121.053 152.181C119.132 150.689 117.696 148.661 116.927 146.354C116.158 144.046 116.09 141.562 116.732 139.216C116.925 138.931 116.541 138.739 116.349 139.027Z" fill="#212941"/>
<path d="M112.796 143.348C112.302 144.597 112.137 145.953 112.317 147.284C112.548 149.496 113.343 151.611 114.627 153.427C115.389 154.563 116.292 155.597 117.314 156.507C117.797 156.973 118.393 157.304 119.043 157.468C121.25 157.756 119.043 155.836 118.467 155.452C116.697 154.047 115.306 152.222 114.418 150.143C113.531 148.064 113.176 145.797 113.385 143.546C113.469 143.155 112.893 142.963 112.796 143.348Z" fill="#212941"/>
<path d="M109.146 148.339C108.891 149.995 109.086 151.689 109.711 153.243C110.336 154.797 111.368 156.155 112.699 157.172C112.987 157.46 115.964 159.284 115.483 157.651C115.021 156.251 112.936 156.216 111.547 153.715C110.546 152.089 109.953 150.244 109.819 148.339C109.819 148.051 109.239 147.954 109.146 148.339Z" fill="#212941"/>
<path d="M120.284 135.187C119.486 136.536 118.995 138.043 118.845 139.603C118.696 141.163 118.892 142.736 119.42 144.212C120.351 146.955 122.314 149.227 124.893 150.547C125.044 150.618 125.217 150.629 125.376 150.58C125.535 150.53 125.67 150.422 125.755 150.278C125.839 150.134 125.866 149.964 125.831 149.8C125.797 149.637 125.702 149.493 125.566 149.395C123.391 148.125 121.702 146.165 120.766 143.827C119.802 141.139 119.905 138.184 121.054 135.571C121.148 135.09 120.581 134.708 120.284 135.187Z" fill="#212941"/>
<path d="M224.07 139.507C219.846 147.572 222.15 157.371 218.023 165.428C217.028 167.4 215.62 169.133 213.894 170.51C213.413 170.894 214.086 171.759 214.567 171.47C217.862 169.06 220.125 165.494 220.902 161.486C222.676 154.685 221.816 146.171 224.455 139.693C224.546 139.412 224.258 139.315 224.07 139.507Z" fill="#212941"/>
<path d="M223.393 164.084C223.228 164.559 223.001 165.011 222.72 165.428C222.168 166.607 221.458 167.705 220.609 168.692C220.416 168.98 220.13 169.172 220.13 169.462C220.126 169.526 220.135 169.59 220.158 169.65C220.181 169.71 220.216 169.764 220.261 169.81C220.306 169.855 220.361 169.89 220.421 169.913C220.481 169.936 220.545 169.946 220.609 169.942C220.992 169.942 221.185 169.654 221.473 169.462C222.105 168.889 222.626 168.206 223.013 167.446C223.588 166.449 223.917 165.33 223.972 164.181C223.872 163.891 223.49 163.796 223.393 164.084Z" fill="#212941"/>
<path d="M238.754 131.054C237.869 132.156 237.157 133.386 236.643 134.702C232.839 145.353 241.996 155.883 239.427 166.48C238.769 169.37 237.184 171.966 234.915 173.872C234.872 173.918 234.844 173.977 234.838 174.04C234.831 174.103 234.845 174.167 234.877 174.221C234.91 174.276 234.959 174.318 235.018 174.342C235.077 174.365 235.142 174.369 235.203 174.353C236.424 173.828 237.512 173.039 238.391 172.043C239.27 171.047 239.917 169.868 240.285 168.592C243.809 159.432 237.498 150.356 236.828 140.847C236.503 137.504 237.243 134.144 238.941 131.246C239.139 131.054 238.854 130.866 238.754 131.054Z" fill="#212941"/>
<path d="M244.034 164.564C243.548 167.399 242.433 170.089 240.77 172.437C240.578 172.725 239.905 173.301 239.905 173.589C239.811 174.933 241.251 173.589 241.537 173.301C242.502 172.311 243.253 171.135 243.746 169.844C244.521 168.199 244.789 166.362 244.516 164.564C244.514 164.276 244.131 164.276 244.034 164.564Z" fill="#212941"/>
<path d="M260.643 83.7283C260.606 78.1027 260.335 61.0241 259.779 55.9836C259.874 55.9135 259.946 55.8162 259.985 55.7044C260.024 55.5925 260.029 55.4715 259.998 55.3572C259.967 55.2429 259.902 55.1407 259.812 55.0639C259.721 54.9872 259.61 54.9395 259.492 54.9272C257.672 54.8902 255.171 54.7362 252.961 54.7362C250.562 54.7362 106.557 55.4077 101.082 55.5986C95.3719 55.556 89.6643 55.8449 83.9878 56.4641C83.9399 56.4023 83.8767 56.3539 83.8044 56.3239C83.7321 56.2938 83.6533 56.2831 83.5756 56.2927C83.498 56.3024 83.4242 56.332 83.3614 56.3788C83.2987 56.4256 83.2492 56.4879 83.2178 56.5596C82.7928 57.6191 83.1208 65.1205 83.1208 65.872C83.1208 69.223 84.3697 70.6722 84.3697 65.5825C84.4714 62.9483 84.4004 60.3102 84.1572 57.6853C93.9609 57.2819 103.561 56.7506 113.263 56.6551C125.183 56.4687 258.379 55.9852 258.59 55.9852C259.098 80.8192 259 179.271 259 180.788C257.073 180.811 247.59 180.827 233.995 180.844C233.488 179.213 232.301 175.287 231.829 174.262C231.734 174.069 231.349 174.069 231.349 174.357C231.444 175.384 232.265 179.059 232.664 180.845C222.087 180.858 209.181 180.868 195.476 180.881C198.094 172.768 204.899 166.964 213.684 166.964C213.765 166.963 213.844 166.932 213.905 166.878C213.967 166.825 214.007 166.75 214.019 166.669C214.031 166.589 214.013 166.506 213.969 166.437C213.926 166.368 213.859 166.316 213.781 166.292C211.556 165.945 209.281 166.092 207.12 166.725C209.453 163.305 208.826 158.588 208.116 154.772C207.157 150.068 205.619 144.885 208.307 140.466C210.419 136.915 214.067 134.707 216.18 131.156C218.773 126.642 217.427 121.554 217.045 116.754C216.725 112.627 217.382 108.483 218.964 104.658C219.442 103.274 220.019 101.926 220.692 100.625C220.789 100.146 220.306 99.8552 220.116 100.146C218.632 102.135 217.526 104.38 216.853 106.768C213.871 116.974 217.959 123.061 215.604 128.944C214.064 132.783 210.419 135.184 208.019 138.352C202.354 146.052 207.782 153.669 207.385 161.255C207.299 163.404 206.64 165.49 205.475 167.298C200.623 169.3 196.295 173.809 194.036 180.879L181.835 180.888C182.837 179.327 183.692 177.865 184.499 176.466C185.881 174.404 186.941 172.145 187.644 169.765C188.055 168.259 188.16 166.685 187.952 165.137C191.844 164.893 195.655 163.916 199.184 162.257C199.67 161.977 199.28 161.298 198.799 161.392C195.86 162.21 194.135 162.624 192.331 162.998C193.269 160.864 193.516 158.49 193.04 156.208C192.929 155.635 192.27 151.504 191.888 149.776C193.556 149.355 195.122 148.605 196.496 147.569C197.276 147.008 196.496 145.744 195.726 146.32C193.356 147.851 190.676 148.836 187.879 149.203C184.712 149.779 181.063 150.259 177.991 148.724C171.985 145.952 176.451 137.463 178.183 129.234C181.661 130.003 185.265 130.003 188.743 129.234C189.167 136.01 183.481 141.917 176.647 140.466C176.565 140.441 176.478 140.433 176.393 140.441C176.308 140.449 176.225 140.474 176.149 140.514C176.073 140.554 176.006 140.609 175.951 140.675C175.897 140.741 175.855 140.817 175.83 140.899C175.805 140.981 175.796 141.067 175.804 141.153C175.813 141.238 175.837 141.321 175.878 141.397C175.918 141.473 175.973 141.54 176.039 141.595C176.105 141.649 176.181 141.69 176.263 141.715C178.057 142.145 179.929 142.115 181.708 141.629C183.487 141.142 185.114 140.214 186.439 138.931C187.781 137.569 188.791 135.915 189.391 134.099C189.99 132.283 190.163 130.353 189.895 128.459C189.885 128.37 189.856 128.283 189.811 128.205C189.766 128.127 189.706 128.059 189.634 128.006C189.562 127.952 189.48 127.913 189.392 127.892C189.305 127.871 189.214 127.868 189.125 127.883C185.555 128.607 181.89 128.737 178.277 128.268C178.519 126.937 178.648 125.588 178.662 124.235C178.855 122.248 178.758 120.243 178.374 118.284C178.045 116.966 177.596 115.68 177.032 114.444C191.508 106.231 190.493 99.6257 194.6 94.5776C196.385 92.5757 198.671 91.0844 201.222 90.2563C201.584 90.1331 201.49 89.8452 201.222 89.8729C199.058 90.2836 197.027 91.215 195.304 92.5867C193.581 93.9583 192.217 95.7288 191.332 97.7454C189.553 101.141 189.264 104.027 183.076 108.977C180.757 110.636 178.354 112.174 175.877 113.586C175.107 114.066 176.931 117.619 177.122 118.386C177.635 121.111 177.668 123.905 177.219 126.642C176.739 131.251 174.819 135.574 173.956 140.179C173.141 144.246 173.328 147.323 176.739 149.683C179.716 151.507 183.269 151.411 186.627 150.931C188.167 150.738 189.707 150.355 190.756 150.161C190.948 151.795 191.141 153.714 191.235 154.29C192.29 160.878 190.741 162.12 190.841 163.306C190.098 163.453 189.301 163.63 188.355 163.794C185.408 164.309 187.134 165.293 186.244 169.363C185.676 171.342 184.802 173.221 183.654 174.93C182.534 176.886 181.416 178.934 180.299 180.891L172.335 180.899C171.046 179.689 168.195 178.92 160.361 172.141C156.224 168.606 152.497 164.617 149.251 160.249C148.962 159.77 148.226 158.514 147.557 158.514C146.889 158.514 146.787 159.09 146.982 159.667C147.271 160.531 147.942 160.915 147.654 161.977C146.215 167.162 140.646 169.851 139.111 170.715C137.916 171.42 136.621 171.939 135.27 172.255C134.886 172.16 134.612 170.63 134.213 171.294C133.103 173.142 137.478 177.343 138.535 178.686C138.58 178.767 138.642 178.838 138.718 178.893C138.793 178.947 138.879 178.985 138.97 179.003C139.061 179.022 139.155 179.02 139.246 178.999C139.336 178.977 139.421 178.936 139.494 178.879C139.573 178.832 139.642 178.769 139.696 178.693C139.749 178.618 139.786 178.532 139.804 178.442C139.822 178.351 139.821 178.258 139.801 178.168C139.781 178.078 139.742 177.993 139.687 177.919C138.917 176.861 136.134 173.312 136.134 173.312C139.054 172.2 141.802 170.68 144.296 168.798C146.678 167.168 148.358 164.699 149 161.885C153.222 167.592 158.269 172.64 163.977 176.861C165.055 177.648 168.805 180.277 169.803 180.912C137.27 180.942 89.0883 181.11 85.1567 180.972C85.1567 174.06 84.8687 144.604 84.6762 136.541C84.5807 132.988 84.4852 129.435 84.1002 125.884C84.0063 125.499 83.5258 125.499 83.5258 125.884C83.1408 132.796 83.4288 139.804 83.4288 146.813C83.4288 155.745 83.3703 174.009 84.1988 181.663C84.2004 181.777 84.2412 181.888 84.3144 181.976C84.3875 182.064 84.4886 182.124 84.6008 182.147C84.713 182.169 84.8295 182.153 84.9309 182.1C85.0324 182.047 85.1126 181.96 85.1582 181.856C90.0862 182.302 79.799 182.375 259.794 182.431C260.31 182.431 260.564 182.356 260.598 181.745C260.903 174.935 260.644 83.8761 260.643 83.7283Z" fill="#212941"/>
</svg>
