<svg width="528" height="528" viewBox="0 0 528 528" fill="none" xmlns="http://www.w3.org/2000/svg">
<path d="M514.799 272.269C515.007 263.689 511.945 255.352 506.233 248.947C496.533 238.915 480.828 238.495 466.928 239.876C460.885 240.478 441.46 241.761 434.393 249.594C425.483 259.47 459.674 284.706 426.977 332.379C424.81 335.547 426.618 338.857 428.345 343.393C433.023 342.815 465.986 339.332 477.8 338.641C479.239 338.556 479.239 340.8 477.8 340.943C466.21 342.099 417.114 348.359 412.856 348.792C428.331 359.373 420.53 399.453 412.064 414.44C411.922 414.674 411.702 414.849 411.442 414.934C411.183 415.019 410.902 415.009 410.649 414.905C410.397 414.8 410.19 414.609 410.067 414.366C409.943 414.122 409.911 413.842 409.976 413.577C414.218 399.709 424.535 361.799 409.038 349.367C407.243 347.923 403.568 349.293 401.337 350.663C398.098 354.982 397.715 384.492 397.449 387.159C396.657 395.079 361.529 395.438 349.137 397.093C351.943 412.643 378.94 426.542 407.156 426.463C430.697 426.397 456.162 424.779 473.887 409.258C477.612 405.998 483.296 400.982 482.813 386.654C481.432 344.855 515.063 303.072 514.799 272.269ZM499.683 249.301C478.349 286.195 480.279 323.368 479.167 329.781C479.085 330.061 478.914 330.306 478.68 330.481C478.447 330.655 478.163 330.749 477.871 330.749C477.579 330.749 477.296 330.655 477.062 330.481C476.828 330.306 476.657 330.061 476.575 329.781C475.374 322.722 479.598 262.833 498.027 248.004C498.208 247.809 498.455 247.688 498.72 247.667C498.985 247.645 499.248 247.725 499.457 247.889C499.666 248.053 499.806 248.291 499.848 248.553C499.889 248.816 499.83 249.085 499.683 249.306V249.301Z" fill="#3A5AB7"/>
<path d="M137.955 388.526C135.579 386.15 135.362 366.572 134.14 361.675C132.918 356.777 131.476 346.413 120.317 349.293C81.3004 359.367 22.0562 324.675 113.551 258.519C109.16 260.679 68.1242 251.127 57.9047 249.377C46.7428 247.463 34.3005 245.784 24.9364 252.12C21.5869 254.565 18.8135 257.713 16.8112 261.345C14.809 264.976 13.6264 269.002 13.3468 273.14C11.5226 294.228 26.8108 335.333 36.0931 352.54C53.5171 384.857 51.8961 401.644 53.2979 407.452C53.9452 410.418 55.2433 413.203 57.0983 415.606C58.9533 418.009 61.319 419.97 64.0243 421.347C87.119 432.891 122.331 435.785 130.323 436.104C138.528 436.432 166.245 430.489 180.065 413.501C176.179 402.275 139.753 390.327 137.955 388.526ZM54.6655 338.712C52.2604 331.983 41.4945 285.344 25.7997 260.391C25.0763 259.243 26.8108 258.158 27.6715 259.311C44.7021 282.102 56.3762 330.94 57.4744 337.92C57.5508 338.283 57.4865 338.661 57.2944 338.978C57.1024 339.296 56.797 339.528 56.4401 339.629C56.0832 339.729 55.7014 339.691 55.3719 339.521C55.0424 339.35 54.7899 339.061 54.6655 338.712ZM127.001 354.908C121.721 356.125 116.938 357.723 114.549 363.259C108.11 378.177 114.168 409.118 114.908 414.945C115.119 416.603 112.751 416.6 112.244 415.306C109.802 409.042 103.822 376.145 112.318 361.099C94.4635 359.014 76.5326 356.82 58.8314 353.541C57.6777 353.327 57.9655 351.323 59.1191 351.453C77.4539 353.533 114.116 358.076 114.19 358.076C117.641 354.938 122.121 353.172 126.785 353.111C127.875 352.968 128.018 354.679 127.012 354.908H127.001Z" fill="#3A5AB7"/>
<path d="M387.814 231.166C388.004 232.466 388.553 233.688 389.398 234.693C389.564 234.79 389.755 234.837 389.947 234.826C390.139 234.815 390.324 234.748 390.478 234.632C390.632 234.517 390.748 234.359 390.813 234.178C390.877 233.996 390.887 233.8 390.84 233.613C390.523 232.628 390.138 231.666 389.689 230.733C389.169 229.661 387.941 230.226 387.814 231.166Z" fill="#212941"/>
<path d="M386.738 227.782C388.288 227.11 390.03 227.033 391.633 227.565C391.824 227.614 392.026 227.598 392.207 227.521C392.389 227.444 392.54 227.309 392.638 227.138C392.736 226.967 392.775 226.768 392.749 226.573C392.724 226.377 392.635 226.196 392.496 226.055C391.522 225.318 390.334 224.92 389.113 224.92C387.892 224.92 386.704 225.318 385.73 226.055C385.524 226.2 385.38 226.416 385.326 226.662C385.272 226.908 385.313 227.165 385.44 227.383C385.567 227.6 385.771 227.762 386.011 227.836C386.252 227.91 386.511 227.89 386.738 227.782Z" fill="#212941"/>
<path d="M383.353 234.622C383.365 237.587 384.107 240.504 385.512 243.115C385.707 243.493 385.994 243.816 386.346 244.055C386.697 244.294 387.103 244.441 387.527 244.483C388.535 244.483 389.256 243.477 390.19 243.477C390.361 243.463 390.524 243.398 390.656 243.29C390.789 243.182 390.885 243.035 390.932 242.871C390.979 242.706 390.975 242.531 390.92 242.369C390.865 242.207 390.761 242.066 390.623 241.964C389.111 240.813 387.817 243.115 386.951 242.035C385.65 239.767 384.887 237.231 384.72 234.622C384.594 233.754 383.305 233.685 383.353 234.622Z" fill="#212941"/>
<path d="M390.841 248.371C392.351 248.947 397.462 247.434 396.456 243.26C396.24 242.54 394.798 242.756 394.872 243.477C394.939 243.959 394.891 244.45 394.732 244.911C394.572 245.371 394.305 245.786 393.954 246.123C393.603 246.46 393.176 246.709 392.71 246.849C392.243 246.99 391.75 247.017 391.271 246.93C391.176 246.899 391.075 246.887 390.975 246.895C390.875 246.904 390.777 246.932 390.688 246.979C390.599 247.025 390.521 247.089 390.457 247.167C390.393 247.244 390.345 247.334 390.317 247.43C390.288 247.526 390.279 247.627 390.29 247.727C390.301 247.827 390.331 247.923 390.38 248.011C390.429 248.099 390.495 248.176 390.574 248.238C390.653 248.3 390.744 248.345 390.841 248.371Z" fill="#212941"/>
<path d="M372.843 285.228C365.14 300.804 364.06 320.752 372.051 336.552C372.706 337.846 375.021 336.977 374.499 335.544C371.282 327.642 369.479 319.236 369.171 310.709C369.066 302.151 370.758 293.666 374.14 285.804C374.488 285.006 373.2 284.505 372.843 285.228Z" fill="#212941"/>
<path d="M397.749 352.749C397.749 352.461 397.103 350.877 396.67 350.877C391.632 351.31 376.299 352.102 371.764 352.606C371.188 350.518 363.102 316.62 360.462 308.333C360.026 306.969 357.558 307.114 357.727 308.695C358.627 317.407 368.667 354.478 370.399 357.501C350.747 357.068 330.949 357.142 311.297 357.43C311.297 357.284 299.565 324.316 292.799 308.407C292.799 308.407 345.71 308.671 356.423 309.558C358.149 309.701 358.149 306.918 356.423 306.895C345.839 306.749 303.586 306.174 293.147 306.749C292.948 306.769 292.759 306.849 292.605 306.977C292.451 307.106 292.339 307.277 292.284 307.47C291.708 307.04 290.623 307.615 290.916 308.407C308.137 354.797 308.604 359.494 310.423 359.515C359.741 360.128 370.763 360.97 390.761 358.652C395.593 358.092 399.262 358.723 397.749 352.749ZM395.16 355.341C394.798 355.629 376.371 357.068 372.485 357.643C372.485 356.851 372.411 355.988 372.339 355.196C377.163 354.766 394.655 353.47 395.231 353.47C395.302 354.19 395.376 355.196 395.16 355.344V355.341Z" fill="#FF9500"/>
<path d="M326.773 324.028C326.204 323.925 325.62 323.94 325.056 324.071C324.493 324.202 323.962 324.447 323.497 324.79C323.031 325.134 322.641 325.569 322.35 326.069C322.059 326.569 321.874 327.124 321.805 327.698C321.84 328.833 322.268 329.921 323.017 330.775C323.766 331.629 324.789 332.196 325.91 332.379C326.517 332.482 327.139 332.46 327.738 332.315C328.336 332.169 328.899 331.903 329.391 331.532C329.883 331.161 330.294 330.694 330.599 330.158C330.903 329.623 331.096 329.031 331.163 328.419C331.163 324.675 326.773 324.028 326.773 324.028Z" fill="#FF9500"/>
<path d="M206.053 332.521C207.866 333.722 215.654 336.119 215.913 331.299C215.912 331.035 215.824 330.78 215.662 330.572C215.501 330.364 215.275 330.216 215.02 330.15C214.765 330.084 214.495 330.105 214.253 330.208C214.011 330.312 213.81 330.493 213.682 330.723C212.497 332.571 208.566 331.045 206.771 330.723C206.541 330.666 206.299 330.694 206.089 330.801C205.878 330.909 205.714 331.089 205.626 331.309C205.539 331.528 205.534 331.772 205.612 331.995C205.69 332.218 205.847 332.405 206.053 332.521Z" fill="#212941"/>
<path d="M212.892 335.544C212.759 335.412 212.598 335.312 212.421 335.25C212.244 335.189 212.055 335.167 211.869 335.188C211.683 335.209 211.503 335.271 211.344 335.37C211.185 335.469 211.05 335.603 210.949 335.76C210.096 337.854 205.978 336.349 204.83 335.906C203.745 335.486 203.098 337.207 204.038 337.777C205.892 339.069 208.115 339.725 210.374 339.649C210.3 339.72 210.247 345.874 203.533 342.672C202.314 342.089 200.867 343.324 201.949 344.256C202.667 344.874 203.504 345.34 204.407 345.624C205.311 345.909 206.263 346.007 207.206 345.911C207.636 350.159 202.023 348.213 201.015 348.142C199.935 348.068 199.647 349.932 200.727 350.085C203.103 350.426 210.374 352.678 209.869 344.832C211.379 343.752 213.396 340.729 211.525 339.361C213.18 338.712 214.278 336.967 212.892 335.544Z" fill="#212941"/>
<path d="M224.553 306.462C214.045 304.725 203.839 301.62 193.385 299.624C192.593 299.474 191.943 300.416 192.305 300.992C171.644 322.661 160.166 355.455 165.308 385.144C165.446 385.936 166.462 385.936 166.892 385.503C171.861 385.358 192.944 379.355 198.496 378.088C198.798 378.014 199.064 377.837 199.248 377.587C199.432 377.337 199.522 377.03 199.502 376.72C200.274 369.032 202.217 361.506 205.262 354.404C205.685 353.393 204.032 352.746 203.533 353.686C199.975 360.512 197.683 367.926 196.767 375.569C191.513 376.72 171.211 380.897 166.892 382.911C165.454 353.111 180.066 316.758 194.895 302.288C203.656 305.401 212.695 307.667 221.889 309.054C219.875 310.638 213.576 321.576 213.177 325.179C213.018 326.618 215.025 326.61 215.482 325.467C216.717 322.347 225.054 308.912 225.054 308.767C225.849 308.046 225.849 306.678 224.553 306.462Z" fill="#FF9500"/>
<path d="M320.293 433.662C313.041 443.195 299.274 463.032 299.2 463.175C295.155 461.356 293.833 462.021 289.696 458.785C289.696 458.713 309.976 397.98 315.467 386.224C315.903 385.29 314.52 384.418 314.029 385.358C308.126 396.66 288.339 451.527 287.249 457.993C287.176 458.307 287.225 458.637 287.385 458.917C287.545 459.198 287.804 459.407 288.112 459.505C287.969 461.52 296.103 464.975 298.046 465.408C298.019 468.489 298.211 471.568 298.622 474.622C295.599 474.838 261.839 479.445 259.317 479.083C269.484 475.147 278.779 469.253 286.676 461.736C287.468 461.005 286.317 459.867 285.525 460.585C276.65 468.589 266.134 474.559 254.713 478.078C253.779 478.365 253.356 479.926 254.425 480.38C261.039 483.191 296.256 478.379 299.921 476.565C300.37 476.204 300.717 475.733 300.929 475.197C301.005 471.956 300.69 468.717 299.992 465.551C300.353 465.48 315.04 444.46 321.804 434.663C322.669 433.662 321.022 432.722 320.293 433.662Z" fill="#212941"/>
<path d="M393.359 390.11C387.105 392.433 356.285 395.005 349.007 395.868C348.793 394.788 348.569 393.711 348.36 392.629C348.138 391.48 346.425 391.979 346.634 393.133C351.032 417.437 353.904 441.796 356.423 466.343C354.551 469.941 345.48 469.653 343.466 469.727C343.466 469.44 328.616 431.938 323.814 412.497C321.643 403.717 319.159 394.147 321.438 385.07C323.985 374.928 333.278 367.91 342.745 364.626C343.606 364.331 343.249 362.9 342.386 363.187C333.463 366.15 324.323 371.324 320.286 380.247C316.474 388.674 317.567 398.313 319.423 407.099C323.996 428.747 340.731 470.374 340.731 470.459C333.78 475.139 326.286 478.959 318.415 481.834C318.111 481.933 317.852 482.136 317.682 482.406C317.512 482.677 317.442 482.998 317.485 483.315C317.528 483.631 317.68 483.923 317.916 484.138C318.151 484.354 318.455 484.481 318.774 484.495C332.29 486.253 346.025 485.15 359.087 481.256C359.38 481.194 359.642 481.03 359.826 480.793C360.011 480.556 360.106 480.262 360.095 479.963C360.983 477.831 361.355 475.52 361.18 473.218C361.004 470.916 360.287 468.687 359.087 466.715C359.087 466.572 354.047 420.431 349.511 397.827C357.431 397.465 388.599 395.739 394.36 392.212C395.376 391.478 394.513 389.682 393.359 390.11ZM324.191 482.18C330.68 479.517 336.762 475.955 342.259 471.599C346.578 472.605 354.139 472.893 356.946 468.935C358.46 471.834 358.893 475.177 358.168 478.365C347.144 481.572 335.652 482.863 324.191 482.18Z" fill="#212941"/>
<path d="M420.427 432.87C417.697 438.992 407.324 472.391 407.179 472.679C407.179 470.878 407.897 443.736 408.475 432.007C408.539 430.711 406.627 430.782 406.532 432.007C405.592 445.621 404.753 459.274 404.014 472.967C403.953 474.046 402.958 482.368 406.749 480.525C407.762 480.031 421.504 441.746 422.589 433.797C422.752 432.585 421.002 431.574 420.427 432.87Z" fill="#212941"/>
<path d="M479.813 417.249C479.18 416.09 477.363 417.033 477.799 418.113C481.883 428.271 485.719 454.611 486.292 461.16C485.862 460.368 471.545 431.569 467.793 423.799C467.345 422.872 465.869 423.506 466.135 424.52C468.929 435.051 485.484 466.512 487.519 467.855C487.765 467.994 488.041 468.068 488.323 468.069C488.605 468.07 488.882 467.998 489.128 467.861C489.374 467.723 489.58 467.525 489.727 467.284C489.874 467.044 489.957 466.77 489.967 466.488C489.375 458.061 484.439 425.692 479.813 417.249Z" fill="#212941"/>
<path d="M222.754 281.915C250.904 281.783 295.652 277.163 361.037 276.661C361.408 276.646 361.759 276.487 362.016 276.219C362.273 275.95 362.417 275.593 362.417 275.221C362.417 274.85 362.273 274.492 362.016 274.224C361.759 273.956 361.408 273.797 361.037 273.781C335.355 274.557 253.439 276.511 222.754 280.189C222.525 280.189 222.305 280.279 222.143 280.441C221.982 280.603 221.891 280.823 221.891 281.052C221.891 281.281 221.982 281.5 222.143 281.662C222.305 281.824 222.525 281.915 222.754 281.915Z" fill="#212941"/>
<path d="M367.948 244.699C327.482 248.482 286.821 249.955 246.22 249.81C243.699 216.05 240.983 182.353 238.662 148.598C238.591 147.589 237.015 147.589 237.078 148.598C239.145 182.34 240.822 216.121 243.844 249.81C240.748 249.81 237.725 249.773 234.631 249.739C234.401 249.751 234.184 249.851 234.026 250.019C233.868 250.186 233.779 250.407 233.779 250.638C233.779 250.868 233.868 251.089 234.026 251.257C234.184 251.424 234.401 251.524 234.631 251.537C237.728 251.61 240.893 251.753 243.987 251.898C244.203 254.562 244.467 257.154 244.708 259.818C244.84 261.26 247.07 261.26 246.938 259.818C246.704 257.228 246.579 254.565 246.363 251.972C286.95 252.819 327.551 251.232 367.948 247.22C369.53 247.07 369.532 244.551 367.948 244.699Z" fill="#212941"/>
<path d="M259.395 238.075C259.539 226.83 258.598 215.596 256.586 204.531C262.965 204.45 269.306 203.53 275.446 201.796C275.175 214.236 276.432 226.662 279.19 238.796C273.07 239.229 265.657 239.588 259.537 240.021C259.178 240.092 259.395 238.075 259.395 238.075Z" fill="#3A5AB7"/>
<path d="M288.19 187.039C287.902 186.606 302.514 187.11 309.574 185.888C311.649 203.206 312.682 220.633 312.668 238.075C306.332 238.366 298.201 238.22 291.865 238.075C288.765 225.047 288.19 187.039 288.19 187.039Z" fill="#3A5AB7"/>
<path d="M323.1 236.782C323.438 216.408 322.693 196.031 320.869 175.737C327.027 176.181 333.206 176.23 339.37 175.882C340.45 191.141 341.53 232.175 341.53 235.702C335.409 236.373 329.258 236.733 323.1 236.782Z" fill="#3A5AB7"/>
<path d="M368.882 235.844C363.607 236.415 358.279 236.27 353.042 235.414C350.959 234.825 348.005 157.165 348.581 151.119C354.7 150.47 360.817 150.686 366.937 149.749C365.501 150.039 368.882 235.844 368.882 235.844Z" fill="#3A5AB7"/>
<path d="M279.261 35.2915C279.322 35.0689 279.327 34.8348 279.278 34.6094C279.228 34.384 279.125 34.1739 278.977 33.9972C278.828 33.8205 278.639 33.6824 278.426 33.5947C278.212 33.507 277.981 33.4723 277.751 33.4937C225.479 36.8544 109.952 35.7245 104.913 36.6617C104.158 36.8084 103.413 37.0006 102.682 37.2372C102.462 37.312 102.28 37.4686 102.174 37.6744C102.067 37.8801 102.043 38.1191 102.108 38.3416C102.173 38.5641 102.322 38.753 102.522 38.8688C102.723 38.9847 102.961 39.0187 103.186 38.9638C109.952 89.3534 108.466 140.06 111.75 190.637C111.84 192.005 113.915 192.005 113.838 190.637C111.032 140.097 114.343 88.8492 106.28 38.676C110.24 38.4595 263.714 37.5962 277.247 36.733C276.383 49.1858 279.118 101.088 279.19 114.404C279.19 114.777 279.338 115.134 279.601 115.398C279.864 115.661 280.222 115.809 280.594 115.809C280.967 115.809 281.324 115.661 281.587 115.398C281.851 115.134 281.999 114.777 281.999 114.404C282.371 101.091 280.198 48.2513 279.261 35.2915Z" fill="#212941"/>
<path d="M313.527 60.1287C313.599 60.1287 318.636 69.3423 318.926 69.7752C319.998 71.3592 330.083 69.7752 330.228 69.9891C330.373 70.2029 322.237 78.9149 322.166 79.2766C321.733 80.4276 326.339 90.5784 326.197 90.721C325.909 90.9375 315.756 84.8021 315.038 84.8919C313.089 85.1321 303.736 92.305 303.377 91.8007C303.972 87.3084 304.862 82.8601 306.04 78.4846C306.04 78.4846 298.986 72.8693 298.986 72.7241C298.986 72.4363 307.482 71.7209 311.151 70.3481C311.727 70.1343 313.166 60.2712 313.527 60.1287Z" fill="#FF9500"/>
<path d="M350.456 58.9036C351.031 58.9036 355.063 69.2708 357.655 68.9831C360.564 68.5514 363.496 68.2869 366.436 68.1911C366.581 69.5586 358.949 76.3249 358.949 76.6127C358.949 76.8292 362.188 84.0997 363.772 87.5555C359.524 86.114 351.752 82.6583 351.464 82.7322C351.177 82.8061 341.168 89.3533 339.73 89.2108C339.875 87.4816 344.049 79.5642 344.841 76.9717C341.889 74.8793 339.098 72.57 336.49 70.0628C339.899 69.5359 343.338 69.2229 346.786 69.1256C347.753 65.6315 348.979 62.2147 350.456 58.9036Z" fill="#FF9500"/>
<path d="M382.779 75.1C380.717 72.728 378.479 70.5147 376.084 68.4789C376.084 68.1172 385.06 68.3574 386.306 65.9577C386.678 65.2449 388.611 58.1829 388.825 58.1116C390.696 57.7525 391.636 65.5907 393.793 66.2454C397.286 66.8469 400.832 67.0884 404.374 66.9661C404.591 67.2539 399.672 70.3981 397.824 73.0144C395.976 75.6306 402.072 84.5301 401.856 85.4673C399.192 84.5301 391.56 80.9291 390.554 81.003C386.882 81.267 382.563 85.6837 380.403 86.2593C380.907 83.6668 382.853 75.3877 382.779 75.1Z" fill="#FF9500"/>
<path d="M417.043 85.536C419.778 84.5275 425.539 79.7781 426.331 79.7781C426.761 79.7781 434.465 83.3052 437.92 84.8892C437.846 84.8152 435.613 77.9776 435.04 76.0346C434.317 73.5873 441.949 65.6805 441.447 65.6673C440.006 65.633 431.73 65.5248 431.584 65.4508C431.368 65.3083 427.841 54.8697 426.761 55.0149C426.618 55.0149 425.895 64.4397 422.154 66.1029C419.562 67.2513 412.373 67.5391 412.508 68.046C412.584 68.3337 419.636 73.5187 419.778 73.8038C421.133 76.4755 417.331 82.6584 417.043 85.536Z" fill="#FF9500"/>
<path d="M160.414 74.4478C177.402 74.4478 252.919 71.0845 260.905 69.6958C262.13 69.4846 261.769 67.6129 260.618 67.6076C252.339 67.5733 177.12 72.4678 160.414 72.7186C160.193 72.7309 159.985 72.8273 159.833 72.9881C159.68 73.1489 159.596 73.3619 159.596 73.5832C159.596 73.8046 159.68 74.0176 159.833 74.1784C159.985 74.3392 160.193 74.4356 160.414 74.4478Z" fill="#3A5AB7"/>
<path d="M164.804 86.7635C196.748 88.1495 228.589 84.3637 260.401 81.8663C262.201 81.7264 262.13 78.9148 260.401 79.1313C228.657 82.7414 196.75 84.7354 164.804 85.1056C164.584 85.1056 164.373 85.1929 164.217 85.3484C164.062 85.5038 163.975 85.7147 163.975 85.9345C163.975 86.1544 164.062 86.3653 164.217 86.5207C164.373 86.6762 164.584 86.7635 164.804 86.7635Z" fill="#3A5AB7"/>
<path d="M164.012 111.957C180.66 111.524 258.173 108.581 261.626 108.071C263.065 107.857 262.49 105.909 261.339 105.766C257.74 105.326 180.425 109.006 164.086 110.447C163.078 110.447 163.007 111.984 164.012 111.957Z" fill="#3A5AB7"/>
<path d="M164.011 121.968C180.487 121.202 246.096 121.155 262.129 118.225C263.642 117.961 262.992 115.711 261.479 115.922C245.003 118.214 179.903 118.285 164.011 120.17C162.931 120.292 162.86 122.018 164.011 121.968Z" fill="#3A5AB7"/>
<path d="M164.157 156.816C194.67 155.639 197.051 155.99 203.244 154.944C204.469 154.736 204.108 152.938 202.957 152.856C196.472 152.644 189.981 152.836 183.521 153.432C177.042 153.793 170.559 154.171 164.157 154.87C162.932 154.994 162.86 156.856 164.157 156.816Z" fill="#3A5AB7"/>
<path d="M165.812 167.962C194.173 166.626 198.133 168.382 206.053 166.954C206.287 166.886 206.492 166.744 206.638 166.549C206.784 166.354 206.863 166.117 206.863 165.874C206.863 165.631 206.784 165.394 206.638 165.199C206.492 165.004 206.287 164.862 206.053 164.794C199.791 163.559 192.808 164.372 186.472 164.58C179.561 164.805 172.663 165.372 165.812 165.874C164.447 165.974 164.444 168.028 165.812 167.962Z" fill="#3A5AB7"/>
<path d="M148.176 71.7184C148.102 71.4903 147.958 71.2915 147.764 71.1505C147.57 71.0095 147.336 70.9336 147.096 70.9336C146.856 70.9336 146.623 71.0095 146.429 71.1505C146.235 71.2915 146.091 71.4903 146.016 71.7184C145.425 74.7385 145.512 86.7664 145.296 89.7153C139.997 89.7097 134.705 90.0705 129.456 90.795C128.952 85.251 128.592 79.8522 127.729 74.3082C131.234 74.3859 134.729 73.9247 138.094 72.9407C138.315 72.875 138.506 72.7313 138.629 72.5361C138.753 72.341 138.802 72.1076 138.767 71.8793C138.732 71.6509 138.615 71.443 138.438 71.294C138.262 71.145 138.037 71.0651 137.806 71.0689C134.129 70.7759 130.607 72.5817 126.937 72.1487C126.576 72.0774 126 73.0146 126 73.1572C126.433 79.4932 127.08 85.9665 126.937 92.3051C126.942 92.5037 126.992 92.6986 127.083 92.8749C127.175 93.0512 127.306 93.2043 127.465 93.3225C127.625 93.4406 127.809 93.5208 128.005 93.5567C128.2 93.5927 128.401 93.5836 128.592 93.5301C134.551 92.5585 140.62 92.8648 146.589 92.4503C146.964 92.4271 147.317 92.2677 147.582 92.0022C147.847 91.7367 148.006 91.3833 148.028 91.0089C148.59 85.0345 149.739 77.661 148.176 71.7184Z" fill="#212941"/>
<path d="M150.551 63.5106C147.138 65.3484 144.126 67.8484 141.692 70.8642C139.257 73.8801 137.448 77.3512 136.371 81.0745C134.858 79.348 133.364 77.5343 131.907 75.7496C131.197 74.8784 129.755 76.0321 130.397 76.9007C132.29 79.4747 134.072 82.1516 135.796 84.8207C135.946 85.0619 136.162 85.2547 136.419 85.3758C136.676 85.4969 136.962 85.5411 137.244 85.5032C137.525 85.4653 137.79 85.3468 138.005 85.162C138.221 84.9772 138.379 84.734 138.459 84.4616C140.575 76.6611 145.237 69.7913 151.704 64.9441C152.557 64.2894 151.477 63.0539 150.551 63.5106Z" fill="#3A5AB7"/>
<path d="M149.545 117.216C149.545 116.948 149.438 116.692 149.249 116.503C149.06 116.314 148.804 116.207 148.536 116.207C148.269 116.207 148.012 116.314 147.823 116.503C147.634 116.692 147.528 116.948 147.528 117.216C146.915 121.313 146.746 125.464 147.023 129.597C146.809 129.597 132.915 131.036 129.676 130.965C130.012 125.26 130.06 119.541 129.821 113.831C134.511 113.478 139.16 112.707 143.713 111.529C144.433 111.315 144.362 110.098 143.496 110.159C138.462 110.513 133.491 111.168 128.448 111.384C128.112 111.406 127.795 111.55 127.557 111.788C127.319 112.027 127.176 112.344 127.155 112.68C127.381 119.233 127.261 125.793 126.793 132.333C126.792 132.513 126.826 132.691 126.894 132.858C126.962 133.024 127.063 133.175 127.19 133.303C127.318 133.43 127.469 133.531 127.636 133.599C127.802 133.667 127.981 133.701 128.161 133.7C133.05 134.088 148.628 133.243 149.684 131.253C150.307 130.083 149.774 120.313 149.545 117.216Z" fill="#212941"/>
<path d="M149.111 109.151C145.355 112.319 140.618 116.709 138.815 121.604C136.656 119.732 134.544 117.963 132.337 116.205C132.181 116.069 131.979 115.997 131.773 116.004C131.566 116.011 131.37 116.096 131.223 116.242C131.077 116.389 130.992 116.585 130.985 116.792C130.978 116.999 131.05 117.2 131.186 117.356C133.538 120.183 136.086 122.75 138.528 125.419C138.715 125.6 138.946 125.73 139.198 125.797C139.45 125.863 139.715 125.864 139.968 125.799C140.22 125.735 140.452 125.606 140.641 125.426C140.83 125.246 140.969 125.021 141.046 124.772C142.139 119.228 147.467 115.268 150.764 110.877C151.728 109.6 150.281 108.164 149.111 109.151Z" fill="#3A5AB7"/>
<path d="M152.784 157.165C152.721 156.227 151.277 155.871 151.055 156.948C150.168 161.748 149.663 166.61 149.545 171.489C144.001 171.561 138.531 171.634 132.987 171.993C132.699 167.028 132.916 157.093 132.916 157.093C133.708 157.019 141.329 156.006 144.363 155.726C145.44 155.625 145.442 154.023 144.363 154.071C140.013 153.935 135.658 154.102 131.332 154.572C131.109 154.636 130.906 154.755 130.742 154.919C130.579 155.083 130.46 155.286 130.397 155.509C129.907 161.497 129.882 167.514 130.323 173.506C130.332 173.866 130.479 174.209 130.733 174.464C130.988 174.718 131.331 174.865 131.691 174.874C138.1 174.802 144.434 174.478 150.841 174.441C151.219 174.428 151.577 174.272 151.844 174.005C152.111 173.738 152.267 173.379 152.28 173.002C152.83 167.742 152.999 162.449 152.784 157.165Z" fill="#212941"/>
<path d="M150.983 150.039C146.646 154.151 143.532 159.383 141.986 165.156C140.097 164.343 138.385 163.169 136.946 161.7C136.154 160.908 134.57 161.983 135.291 162.922C137.067 165.362 139.448 167.297 142.2 168.538C142.403 168.65 142.63 168.715 142.863 168.728C143.095 168.74 143.327 168.7 143.542 168.61C143.757 168.52 143.949 168.383 144.103 168.209C144.257 168.034 144.37 167.827 144.433 167.603C146.386 161.843 149.149 156.389 152.638 151.407C153.43 150.327 151.904 149.229 150.983 150.039Z" fill="#3A5AB7"/>
<path d="M386.305 120.667C386.168 120.02 384.65 119.875 384.505 119.875C379.898 119.875 221.387 125.561 214.188 125.561C213.613 125.561 212.749 127.071 212.821 127.575C215.02 143.262 219.603 267.947 220.162 278.243C220.236 279.61 222.301 279.61 222.251 278.243C220.635 234.638 216.923 134.125 215.698 127.647C232.689 128.655 379.61 123.544 384.505 122.61C385.368 134.125 386.791 186.513 388.61 192.076C389.054 193.438 391.345 193.298 391.2 191.714C390.625 185.383 388.732 132.161 386.305 120.667Z" fill="#212941"/>
<path d="M216.922 226.343C206.277 225.248 162.638 226.789 151.92 228.07C151.681 228.07 151.452 228.165 151.283 228.333C151.114 228.502 151.02 228.731 151.02 228.97C151.02 229.209 151.114 229.438 151.283 229.607C151.452 229.775 151.681 229.87 151.92 229.87C162.717 229.87 206.211 229.421 216.922 228.431C217.172 228.394 217.4 228.267 217.565 228.076C217.729 227.884 217.82 227.64 217.82 227.387C217.82 227.135 217.729 226.89 217.565 226.699C217.4 226.507 217.172 226.381 216.922 226.343Z" fill="#212941"/>
<path d="M453.467 282.778C448.077 270.682 436.442 265.492 431.944 249.514C428.15 236.05 428.897 221.243 420.499 209.418C413.35 199.354 400.493 192.741 388.106 196.746C372.161 201.905 368.734 221.187 376.659 225.612C376.659 225.612 376.947 226.187 377.092 226.261C376.889 264.277 406.241 258.567 403.87 245.121C403.653 243.896 401.607 244.184 401.639 245.409C401.749 247.248 401.131 249.056 399.919 250.443C398.707 251.83 396.997 252.685 395.16 252.822C393.179 253.029 391.178 252.689 389.376 251.839C387.573 250.988 386.039 249.66 384.938 247.999C381.501 243.314 379.591 237.683 379.468 231.874C379.769 231.871 380.064 231.798 380.332 231.66C380.463 231.582 380.572 231.472 380.647 231.339C380.723 231.206 380.763 231.056 380.763 230.904C380.763 230.751 380.723 230.601 380.647 230.468C380.572 230.336 380.463 230.225 380.332 230.147C379.988 230.009 379.622 229.935 379.252 229.931C379.107 228.204 378.89 226.404 378.676 224.603C378.666 224.485 378.628 224.372 378.566 224.272C378.503 224.171 378.417 224.088 378.315 224.028C378.528 223.22 378.905 222.464 379.422 221.807C379.939 221.151 380.585 220.607 381.32 220.209C382.055 219.811 382.864 219.568 383.696 219.495C384.529 219.422 385.367 219.52 386.161 219.783C392.407 221.293 393.104 228.978 403.511 228.133C403.836 228.114 404.145 227.981 404.382 227.757C404.619 227.533 404.77 227.232 404.807 226.908C405.319 226.526 405.928 226.296 406.565 226.245C407.201 226.194 407.839 226.324 408.405 226.62C408.983 227.015 409.459 227.54 409.797 228.152C410.134 228.765 410.323 229.448 410.348 230.147C410.633 233.896 404.525 237.991 404.733 238.355C407.761 243.566 409.414 260.167 409.414 262.115C408.91 266.363 403.447 270.629 401.855 271.329C399.493 272.366 393.289 272.192 393.935 267.944C395.41 264.074 395.587 259.83 394.44 255.85C394.231 255.058 392.502 255.058 392.784 256.067C393.405 258.468 393.479 260.978 393.001 263.411C371.189 264.417 356.989 292.105 354.127 301.778C353.683 303.286 356.065 304.368 356.719 302.858C360.569 293.988 373.277 268.881 392.568 265.785C389.4 273.992 398.904 275.138 402.79 273.56C406.371 271.735 409.217 268.737 410.853 265.067C423.81 259.668 432.358 274.792 434.753 280.255C448.248 311.04 423.453 334.538 412.941 340.003C407.254 342.957 389.252 347.757 386.377 348.353C380.165 349.639 380.387 342.155 383.859 340.65C399.91 335.467 411.843 314.696 406.893 298.539C406.812 298.246 406.627 297.992 406.372 297.826C406.118 297.66 405.811 297.592 405.51 297.636C405.209 297.681 404.935 297.833 404.739 298.066C404.543 298.298 404.438 298.594 404.445 298.898C405.294 306.94 403.693 315.051 399.852 322.167C396.011 329.284 390.11 335.074 382.921 338.778C382.111 338.974 381.358 339.355 380.721 339.893C380.084 340.43 379.581 341.109 379.252 341.875C376.229 342.379 372.652 344.098 371.981 347.345C371.926 347.572 371.945 347.812 372.035 348.028C372.125 348.244 372.282 348.426 372.483 348.546C372.684 348.667 372.918 348.72 373.151 348.698C373.384 348.676 373.604 348.58 373.779 348.425C374.793 347.495 375.149 345.331 378.676 344.106C378.601 345.099 378.698 346.097 378.964 347.057C380.239 351.722 384.154 351.909 388.106 350.946C420.486 343.044 424.818 335.827 425.251 335.467C425.18 336.932 425.228 338.401 425.394 339.858C425.394 340.097 425.489 340.326 425.657 340.494C425.826 340.663 426.055 340.758 426.294 340.758C426.533 340.758 426.762 340.663 426.931 340.494C427.099 340.326 427.194 340.097 427.194 339.858C427.428 337.753 427.452 335.631 427.265 333.522C434.895 326.035 442.744 312.214 442.382 303.072C449.742 305.67 459.661 296.67 453.467 282.778Z" fill="#212941"/>
<path d="M131.403 333.242C122.2 334.396 103.968 336.552 103.041 323.162C102.677 317.909 109.821 300.862 115.135 295.952C115.334 295.746 115.452 295.476 115.469 295.19C115.485 294.904 115.398 294.622 115.223 294.395C115.049 294.168 114.799 294.012 114.518 293.954C114.238 293.896 113.946 293.941 113.696 294.08C106.64 297.821 98.9783 319.424 100.306 325.684C102.682 336.925 116.503 337.777 126.725 336.193C125.254 337.846 124.148 339.789 123.478 341.898C122.808 344.006 122.591 346.232 122.839 348.43C109.879 348.43 97.0669 348.285 84.3976 345.048C70.8649 341.59 65.0015 328.786 67.4805 315.678C70.9125 297.475 88.4289 276.661 112.976 261.687C112.904 262.192 112.904 262.767 112.83 263.271C112.759 264.351 114.626 264.639 114.776 263.559C116.38 254.341 116.983 244.976 116.574 235.628C116.559 235.295 116.416 234.98 116.175 234.749C115.933 234.519 115.613 234.39 115.279 234.39C114.945 234.39 114.625 234.519 114.383 234.749C114.142 234.98 113.999 235.295 113.984 235.628C113.432 243.323 113.622 251.035 113.118 258.807C103.446 264.393 94.4387 271.059 86.2694 278.676C78.5987 285.485 72.4 293.789 68.0533 303.08C59.2305 322.97 63.6736 343.762 84.8253 348.646C97.6685 351.827 110.955 352.825 124.13 351.598C126.289 351.598 126.363 349.438 125.426 348.863C125.245 346.173 125.792 343.483 127.008 341.077C128.224 338.671 130.065 336.635 132.337 335.185C132.489 335.012 132.586 334.799 132.617 334.571C132.648 334.343 132.611 334.112 132.512 333.905C132.412 333.698 132.254 333.525 132.057 333.407C131.86 333.289 131.632 333.232 131.403 333.242Z" fill="#212941"/>
<path d="M146.88 352.606C159.024 353.327 158.961 336.84 159.117 328.706C159.251 321.724 158.393 294.386 157.031 287.963C156.801 286.886 155.017 287.171 155.085 288.251C156.073 303.795 156.223 332.735 155.735 338.147C155.207 343.905 152.926 349.737 146.593 350.819C145.584 350.877 145.872 352.546 146.88 352.606Z" fill="#212941"/>
<path d="M206.555 365.492C231.981 384.144 222.596 402.159 218.723 410.05C218.549 410.392 218.513 410.787 218.621 411.155C218.729 411.522 218.973 411.835 219.304 412.028C219.635 412.222 220.028 412.281 220.401 412.195C220.775 412.108 221.101 411.882 221.313 411.563C226.788 404.366 237.039 379.294 207.78 363.908C206.782 363.383 205.605 364.793 206.555 365.492Z" fill="#212941"/>
<path d="M193.815 440.5C184.915 448.803 165.237 463.391 165.165 463.468C163.542 463.018 162.097 462.077 161.027 460.775C159.958 459.473 159.317 457.872 159.191 456.192C162.069 451.585 174.091 433.013 176.106 427.976C176.539 426.896 175.031 426.392 174.379 426.967C170.232 430.597 158.523 451.2 156.527 456.554C156.53 457.886 156.813 459.203 157.359 460.419C157.905 461.634 158.701 462.721 159.695 463.608C160.529 464.48 161.557 465.144 162.696 465.544C163.834 465.945 165.051 466.071 166.248 465.912C176.443 458.55 186.157 450.544 195.33 441.941C196.207 441.02 194.747 439.631 193.815 440.5Z" fill="#212941"/>
<path d="M185.61 484.123C182.817 481.66 172.914 473.233 170.132 467.206C169.976 466.951 169.734 466.76 169.451 466.667C169.167 466.573 168.859 466.584 168.582 466.696C168.306 466.809 168.078 467.016 167.94 467.281C167.802 467.546 167.763 467.852 167.83 468.143C169.073 472.908 184.895 487.576 185.681 488.875C186.55 490.311 186.848 490.707 185.61 491.251C184.755 491.623 167.151 488.54 154.867 476.853C153.272 475.358 152.248 473.353 151.973 471.184C151.698 469.015 152.188 466.818 153.36 464.973C154.511 463.605 156.528 462.38 156.023 460.294C156.003 460.188 155.956 460.089 155.888 460.005C155.82 459.921 155.733 459.855 155.633 459.812C155.534 459.77 155.426 459.752 155.318 459.76C155.21 459.769 155.106 459.804 155.015 459.861C152.761 461.46 150.932 463.585 149.688 466.052C143.895 480.599 179.828 495.145 187.12 494.488C192.878 493.97 187.635 485.91 185.61 484.123Z" fill="#212941"/>
<path d="M231.896 460.585C230.689 452.839 210.678 401.541 195.902 382.705C195.11 381.696 193.526 382.641 194.247 383.713C209.886 406.742 225.993 453.251 228.728 460.091C227.936 464.627 222.249 465.849 220.161 465.994C217.064 456.781 192.676 399.144 138.171 387.816C137.955 387.772 137.732 387.812 137.545 387.928C137.359 388.044 137.224 388.227 137.168 388.44C137.113 388.652 137.141 388.878 137.247 389.07C137.353 389.263 137.528 389.407 137.738 389.474C195.691 409.042 215.05 462.898 217.714 467.074C217.866 467.345 218.09 467.568 218.361 467.721C221.169 468.513 228.295 467.074 230.671 462.393C231.043 462.265 231.364 462.02 231.585 461.693C231.806 461.367 231.915 460.978 231.896 460.585Z" fill="#212941"/>
<path d="M258.386 459.217C249.31 458.764 240.22 459.76 231.458 462.169C230.09 462.531 230.304 464.883 231.817 464.687C239.796 463.338 247.85 462.472 255.933 462.095C247.871 473.83 232.754 478.291 226.994 480.955C223.045 478.318 220.202 474.323 219.005 469.727C218.796 468.787 216.988 468.79 217.133 470.015C217.709 474.91 220.589 481.533 225.626 483.331C227.424 484.229 250.495 478.315 259.682 461.519C259.801 461.287 259.861 461.028 259.856 460.766C259.851 460.504 259.781 460.248 259.653 460.02C259.524 459.792 259.341 459.599 259.12 459.459C258.899 459.319 258.647 459.236 258.386 459.217Z" fill="#212941"/>
<path d="M63.5938 431.503C62.456 437.768 48.5458 473.973 47.6112 475.702C47.6852 473.183 52.4609 434.391 55.819 423.079C56.1807 421.856 54.3855 421.355 53.8733 422.577C48.8204 434.692 44.1053 475.641 44.6597 479.601C44.6813 480.014 44.8552 480.405 45.1477 480.697C45.4402 480.99 45.8306 481.163 46.2437 481.185C48.8996 481.534 50.6129 476.929 51.426 475.139C57.3977 462.024 64.3383 437.361 66.2549 433.163C67.1156 431.284 63.9581 429.489 63.5938 431.503Z" fill="#212941"/>
<path d="M129.095 439.278C129.079 438.888 128.913 438.519 128.631 438.249C128.35 437.979 127.974 437.828 127.584 437.828C127.194 437.828 126.819 437.979 126.537 438.249C126.255 438.519 126.089 438.888 126.073 439.278C126.001 456.781 126.601 482.36 125.785 486.858C123.409 484.844 113.34 450.215 110.811 442.588C110.736 442.369 110.579 442.187 110.374 442.08C110.168 441.973 109.929 441.95 109.706 442.015C109.484 442.08 109.295 442.228 109.179 442.429C109.063 442.63 109.029 442.867 109.084 443.092C111.616 452.364 119.116 479.646 120.745 483.836C124.494 493.524 127.942 490.243 128.232 489.522C129.167 487.217 130.08 448.486 129.095 439.278Z" fill="#212941"/>
<path d="M133.563 337.994C140.023 340.705 142.539 346.415 142.491 353.042C142.494 353.288 142.585 353.524 142.747 353.709C142.909 353.893 143.132 354.014 143.375 354.048C143.618 354.083 143.866 354.03 144.073 353.898C144.281 353.766 144.434 353.565 144.506 353.33C145.259 349.682 144.59 345.885 142.637 342.714C140.683 339.543 137.592 337.238 133.996 336.27C132.908 335.927 132.552 337.569 133.563 337.994Z" fill="#212941"/>
<path d="M137.378 346.415C139.38 350.836 140.269 355.68 139.968 360.524C139.972 360.75 140.056 360.968 140.205 361.138C140.355 361.309 140.559 361.421 140.783 361.455C141.007 361.49 141.235 361.444 141.429 361.326C141.622 361.208 141.768 361.026 141.84 360.811C142.526 358.199 142.656 355.472 142.223 352.806C141.789 350.141 140.8 347.596 139.321 345.336C139.178 345.078 138.938 344.888 138.655 344.807C138.372 344.726 138.068 344.761 137.81 344.904C137.552 345.047 137.362 345.287 137.281 345.57C137.2 345.854 137.235 346.158 137.378 346.415Z" fill="#212941"/>
<path d="M134.354 350.806C136.506 355.108 137.018 360.047 135.795 364.7C135.597 365.711 137.041 366.511 137.593 365.492C138.73 362.966 139.202 360.191 138.962 357.431C138.723 354.671 137.781 352.019 136.225 349.726C136.154 349.603 136.06 349.495 135.947 349.409C135.835 349.323 135.706 349.259 135.569 349.222C135.432 349.186 135.289 349.176 135.149 349.195C135.008 349.213 134.872 349.259 134.75 349.33C134.627 349.401 134.519 349.495 134.432 349.608C134.346 349.72 134.283 349.849 134.246 349.986C134.209 350.123 134.2 350.266 134.218 350.407C134.237 350.547 134.283 350.683 134.354 350.806Z" fill="#212941"/>
<path d="M129.028 353.111C131.072 357.271 130.612 361.823 130.971 366.284C131.045 367.219 132.555 367.58 132.769 366.498C133.92 361.608 133.175 356.464 130.684 352.102C130.55 351.883 130.334 351.725 130.085 351.665C129.835 351.604 129.571 351.645 129.352 351.779C129.132 351.912 128.975 352.128 128.914 352.378C128.853 352.627 128.894 352.891 129.028 353.111Z" fill="#212941"/>
<path d="M140.762 219.864C140.66 219.693 140.505 219.559 140.321 219.482C140.136 219.405 139.932 219.39 139.739 219.438C139.545 219.487 139.372 219.596 139.245 219.75C139.118 219.904 139.045 220.095 139.035 220.295C139.035 222.024 139.611 226.99 139.611 227.71C139.235 227.687 138.868 227.589 138.531 227.423C137.583 227.016 137.021 228.571 137.81 229.078C139.254 230.007 141.551 230.805 142.058 228.502C142.107 225.571 141.669 222.652 140.762 219.864Z" fill="#212941"/>
<path d="M134.499 218.64C134.858 219.432 134.557 220.297 134.715 221.161C134.763 221.318 134.85 221.46 134.967 221.574C135.085 221.688 135.23 221.771 135.388 221.814C135.547 221.857 135.713 221.859 135.872 221.82C136.032 221.781 136.179 221.702 136.299 221.591C136.703 220.997 136.92 220.294 136.92 219.575C136.92 218.857 136.703 218.154 136.299 217.56C136.083 217.056 134.211 217.129 134.499 218.64Z" fill="#212941"/>
<path d="M133.419 217.848C133.704 217.201 133.849 215.976 136.587 215.546C137.233 215.4 137.233 214.249 136.587 213.89C134.353 212.81 132.051 215.113 131.402 217.058C130.971 218.135 132.912 218.999 133.419 217.848Z" fill="#212941"/>
<path d="M174.091 314.382C171.263 293.951 164.803 268.382 142.345 261.975C141.104 259.722 140.298 257.255 139.969 254.704C142.274 254.633 153.235 251.832 151.849 240.955C151.5 238.76 150.691 236.664 149.476 234.803C148.26 232.942 146.665 231.359 144.795 230.158C146.614 222.725 146.239 214.924 143.715 207.699C144.148 207.554 152.707 204.964 152.498 196.252C152.551 194.263 152.047 192.298 151.045 190.579C150.042 188.86 148.581 187.454 146.823 186.519C145.066 185.585 143.084 185.159 141.098 185.289C139.112 185.419 137.201 186.1 135.581 187.255C132.194 189.409 130.269 192.815 127.231 195.389C124.271 198.122 120.559 199.902 116.576 200.5C113.388 200.951 110.395 202.301 107.947 204.392C105.5 206.483 103.699 209.228 102.755 212.306C102.106 214.855 102.02 217.516 102.505 220.102C102.989 222.688 104.033 225.137 105.562 227.278C107.41 230.24 109.728 233.54 113.194 234.044C114.222 233.982 115.238 233.789 116.217 233.468C120.14 232.053 122.524 237.727 123.559 240.596C126.787 249.551 134.573 254.345 137.595 254.633C137.507 256.62 137.839 258.602 138.571 260.451C139.303 262.3 140.419 263.972 141.843 265.36C142.02 265.52 142.246 265.616 142.484 265.634C142.722 265.651 142.959 265.589 143.157 265.457C143.356 265.324 143.505 265.129 143.58 264.902C143.655 264.676 143.652 264.431 143.572 264.206C144.507 264.568 145.444 264.998 146.307 265.431C144.795 274.069 120.377 274.895 114.2 265.502C113.63 264.636 112.125 264.993 112.616 265.935C119.688 279.457 147.96 274.647 149.182 267.015C164.516 276.733 168.531 297.903 171.498 314.812C171.752 316.248 174.299 315.894 174.091 314.382ZM131.043 230.517C131.043 230.446 130.251 230.015 129.892 230.229C126.589 232.191 124.348 226.919 124.348 224.543C124.348 222.312 125.14 220.997 127.445 220.873C128.382 220.82 128.883 220.944 129.604 220.295C130.153 218.299 130.467 216.246 130.539 214.178C130.631 211.372 134.929 208.417 140.544 208.417C141.227 209.961 141.805 211.548 142.274 213.169C140.608 212.335 140.056 214.162 140.69 214.32C141.466 214.619 142.194 215.032 142.849 215.545C144.288 220.511 142.92 229.294 141.553 233.614C139.705 234.334 137.671 234.421 135.769 233.861C133.867 233.3 132.204 232.124 131.043 230.517ZM136.154 237.5C137.379 238.075 138.673 237.41 139.969 237.286C140.832 237.201 141.125 238.368 140.618 238.941C139.871 239.535 138.945 239.858 137.99 239.858C137.036 239.858 136.109 239.535 135.362 238.941C135.184 238.829 135.055 238.654 135.002 238.45C134.949 238.247 134.976 238.031 135.077 237.846C135.178 237.662 135.346 237.523 135.547 237.459C135.747 237.394 135.964 237.409 136.154 237.5Z" fill="#212941"/>
</svg>
