<svg width="502" height="324" viewBox="0 0 502 324" fill="none" xmlns="http://www.w3.org/2000/svg">
<path d="M338.327 148.861C337.381 145.204 336.82 141.459 336.651 137.686C339.396 135.046 343.251 131.754 344.856 131.64C346.575 131.516 352.061 138.842 352.86 140.788C350.586 143.461 348.771 146.495 347.491 149.764C344.475 149.151 341.404 148.849 338.327 148.861ZM347.081 152.984C344.172 152.312 341.211 151.886 338.23 151.712C336.77 156.939 331.102 164.22 328.124 177.206C328.589 187.882 330.169 198.479 332.839 208.826C335.719 197.904 340.495 189.633 346.905 179.105C347.565 172.518 346.762 160.094 347.095 152.984H347.081ZM112.747 146.817C112.71 143.731 114.21 135.579 114.109 134.383C110.508 130.795 105.281 127.295 103.903 127.255C102.039 127.218 95.3284 139.346 94.2988 140.891C100.875 145.431 103.732 146.902 105.289 148.884C107.646 147.795 110.165 147.096 112.747 146.817ZM114.109 234.059C114.479 223.718 108.452 164.363 106.247 151.773C108.732 150.776 111.342 150.128 114.004 149.848C118.658 158.008 135.934 189.448 140.985 246.686C136.132 244.93 118.568 237.979 114.109 234.072V234.059Z" fill="#3A5AB7"/>
<path d="M129.332 48.876C129.289 48.5084 129.106 48.1716 128.82 47.9362C128.535 47.7008 128.169 47.5849 127.8 47.6129C127.431 47.6409 127.087 47.8105 126.84 48.0863C126.593 48.362 126.463 48.7226 126.476 49.0925C127.008 57.01 127.105 64.9508 126.764 72.8789C126.5 80.6299 126.164 97.7424 118.416 102.146C111.375 106.148 93.2118 102.457 86.2475 99.6538C85.9656 99.5315 85.6472 99.5237 85.3597 99.6321C85.0722 99.7404 84.8382 99.9564 84.7071 100.234C84.576 100.512 84.5583 100.83 84.6575 101.121C84.7568 101.412 84.9654 101.652 85.239 101.792C89.7064 103.91 94.4726 105.328 99.3709 105.998C99.6164 109.398 99.3207 114.467 99.6798 116.207C99.7321 116.5 99.887 116.765 100.117 116.956C100.346 117.146 100.636 117.248 100.934 117.245C101.232 117.241 101.52 117.132 101.745 116.937C101.97 116.741 102.119 116.472 102.164 116.178C102.513 114.066 102.082 109.248 102.117 106.341C120.388 108.231 128.67 106.341 129.794 72.2532C130.216 64.46 130.062 56.6464 129.332 48.876ZM134.816 31.5021C136.885 41.7057 130.233 44.5517 121.468 44.4936C111.731 44.4249 101.992 44.3352 92.2561 44.3827C89.8801 53.8867 86.4481 57.6329 80.0303 64.415C79.6475 64.8189 78.9109 65.2308 78.5228 64.8005C75.6426 61.614 69.8293 62.0258 68.306 68.3249C67.7574 70.7574 68.0542 73.3044 69.1474 75.5456C70.2407 77.7869 72.0652 79.5886 74.3199 80.6537C76.8042 82.1189 74.8479 83.3993 73.2085 82.6812C72.3974 82.2866 71.6332 81.8022 70.9302 81.2371C71.2391 87.9321 71.2866 97.1035 70.8827 103.569C70.7929 105.024 68.4037 104.781 68.4195 103.432C68.5995 96.5677 68.4109 89.6991 67.8546 82.8554C58.8601 73.061 55.1139 57.5114 55.4202 44.6995C55.7 32.8881 62.5033 20.1264 73.1689 31.9245C77.0688 24.7988 83.3899 19.3037 90.9889 16.433C105.459 10.7861 131.143 13.4683 134.816 31.5021ZM124.839 34.3692C126.159 37.0092 129.026 34.0893 127.772 30.7999C124.372 21.8873 108.875 19.5403 100.928 21.9533C99.4475 22.4021 100.023 24.522 101.457 24.5114C110.657 24.4296 120.393 25.3562 124.839 34.3692ZM118.03 52.1179C120.076 51.6585 123.144 52.9099 123.171 55.3941C123.144 55.5951 123.057 55.7835 122.923 55.9354C122.789 56.0872 122.612 56.1957 122.416 56.2469C122.22 56.2981 122.013 56.2899 121.821 56.2231C121.63 56.1563 121.463 56.0341 121.341 55.872C121.08 55.3548 120.659 54.9358 120.14 54.6775C119.622 54.4192 119.033 54.3353 118.463 54.4385C118.178 54.449 117.897 54.3565 117.674 54.1778C117.451 53.9991 117.299 53.7461 117.246 53.4649C117.194 53.1836 117.244 52.8929 117.388 52.6457C117.532 52.3985 117.76 52.2112 118.03 52.1179ZM101.253 53.5039C103.418 53.7996 102.874 56.1254 101.253 56.0832C100.38 56.0816 99.5312 56.3739 98.844 56.9131C98.1568 57.4523 97.671 58.2071 97.4648 59.0558C97.3912 59.3326 97.2192 59.573 96.9811 59.7321C96.743 59.8912 96.4551 59.9581 96.1713 59.9202C95.8874 59.8823 95.6271 59.7423 95.439 59.5264C95.251 59.3104 95.148 59.0333 95.1495 58.7469C95.1992 57.9991 95.3972 57.2686 95.7322 56.5981C96.0671 55.9276 96.5323 55.3305 97.1004 54.8417C97.6686 54.3529 98.3285 53.9822 99.0415 53.7511C99.7545 53.5201 100.506 53.4333 101.253 53.496V53.5039ZM105.414 63.821C105.543 65.3021 106.018 68.148 104.408 68.7394C101.948 69.6449 101.24 65.8776 101.475 64.3121C101.921 61.2893 105.174 61.1309 105.414 63.821ZM121.381 64.9905C121.486 66.1363 121.484 67.9341 120.256 68.2219C118.144 68.7182 117.616 66.8808 117.5 65.0697C117.407 63.7049 117.677 61.6905 119.403 61.6113C121.278 61.5295 121.257 63.6732 121.375 64.9905H121.381ZM118.263 76.1419C119.319 79.7877 114.192 80.6299 111.032 79.5C109.955 79.1172 110.43 77.3378 111.383 77.2375C112.628 77.2758 113.875 77.2414 115.116 77.1345C116.235 76.8837 115.644 76.6224 115.208 75.4027C114.324 73.0082 113.096 70.1834 112.473 67.7652C112.414 67.4953 112.454 67.2134 112.584 66.9699C112.714 66.7264 112.927 66.5373 113.184 66.4365C113.442 66.3358 113.726 66.3299 113.987 66.4201C114.248 66.5102 114.469 66.6904 114.609 66.9283C116.038 69.9115 117.259 72.9901 118.263 76.1419ZM108.455 88.6582C104.4 93.9382 94.611 90.9549 95.403 81.1632C98.5815 86.9395 106.377 88.3044 108.455 88.6582ZM93.0375 79.7297C93.7873 76.4402 94.9885 76.7914 96.8391 78.8373C105.913 88.8693 113.999 84.1173 111.887 88.4258C111.15 89.8603 110.074 91.0927 108.751 92.0152C107.428 92.9377 105.9 93.5225 104.299 93.7183C102.698 93.9141 101.074 93.7151 99.568 93.1386C98.062 92.5621 96.7199 91.6257 95.6591 90.4111C94.4622 88.9338 93.6065 87.2102 93.1534 85.3637C92.7002 83.5171 92.6606 81.5933 93.0375 79.7297ZM240.057 158.93C228.353 145.553 216.7 139.877 200.272 134.238C195.491 147.089 181.38 169.545 170.522 178.907C169.518 179.772 167.842 178.363 168.745 177.323C180.615 164.432 190.236 149.641 197.209 133.565C198.265 131.342 198.265 131.247 200.805 131.661C215.613 134.087 231.294 144.436 241.229 155.228C243.28 157.459 243.201 158.048 242.021 160.625C232.218 182.193 219.053 208.079 205.325 226.952C197.6 237.575 189.936 245.627 171.036 249.569C169.466 249.896 168.964 246.955 170.635 246.699C187.647 244.059 196.533 234.838 205.892 220.729C228.25 187.051 239.238 158.938 240.057 158.938V158.93ZM190.715 310.181C178.286 311.073 171.588 309.367 160.276 304.336C152.733 300.978 140.014 294.261 132.028 294.285C130.861 294.285 130.267 296.352 131.5 296.616C141.6 298.77 150.637 303.882 161.097 308.319C169.571 311.915 182.101 315.989 191.143 312.807C192.341 312.398 192.513 310.188 190.715 310.188V310.181ZM200.665 307.654C192.069 309.972 175.105 305.315 168.243 300.679C167.037 299.866 168.312 298.155 169.524 298.628C185.406 304.829 191.763 305.183 200.412 305.186C200.69 305.233 200.946 305.37 201.139 305.576C201.333 305.782 201.453 306.046 201.482 306.327C201.51 306.608 201.446 306.891 201.299 307.132C201.151 307.374 200.928 307.56 200.665 307.662V307.654ZM206.964 301.989C197.138 303.274 182.277 299.18 174.059 293.694C172.9 292.92 174.041 291.107 175.266 291.621C188.088 297.02 193.379 297.786 206.946 299.359C207.285 299.372 207.607 299.515 207.844 299.759C208.081 300.003 208.214 300.329 208.217 300.669C208.219 301.009 208.09 301.337 207.857 301.584C207.623 301.831 207.304 301.979 206.964 301.997V301.989ZM207.756 295.302C197.596 293.964 187.859 290.393 179.244 284.844C178.204 284.052 178.695 282.189 180.118 282.582C185.134 283.965 199.443 290.996 208.435 292.508C209.736 292.516 209.427 295.489 207.748 295.32L207.756 295.302ZM178.637 275.417C173.547 274.361 163.364 278.746 159.241 281.46C158.374 282.259 157.363 282.886 156.263 283.308C155.054 283.54 154.785 282.006 155.471 280.713C163.127 266.027 184.862 268.833 194.379 257.346C195.25 256.29 193.827 254.706 192.716 255.572C184.118 262.206 177.853 262.935 168.357 266.76C162.86 268.973 154.13 274.211 152.171 280.594C151.44 282.97 151.965 286.022 155.075 286.344C157.873 286.637 160.152 284.293 162.404 282.996C167.302 279.782 172.99 277.975 178.845 277.772C181.998 277.701 179.413 275.417 178.637 275.417ZM139.116 251.219C142.35 252.167 143.496 253.682 142.02 256.195C136.505 265.644 131.766 281.803 128.329 300.494C127.801 303.398 127.099 302.979 124.744 302.738C103.731 300.424 83.1852 294.967 63.7943 286.547C27.4969 271.066 1.87043 253.632 0.304907 210.977C-0.959653 176.573 8.89019 134.763 42.4868 118.2C42.8236 118.022 43.2168 117.985 43.5809 118.096C43.945 118.207 44.2506 118.457 44.4312 118.792C44.6117 119.127 44.6527 119.52 44.5452 119.885C44.4377 120.25 44.1903 120.558 43.857 120.742C9.82739 139.196 0.413147 182.096 3.89531 217.847C7.72067 257.069 39.5036 274.123 72.8864 286.888C89.987 293.274 107.736 297.767 125.816 300.286C125.816 288.48 132.057 265.533 138.863 254.492C111.503 246.566 85.9846 233.296 63.7837 215.449C63.5292 215.243 63.3672 214.944 63.3332 214.618C63.2993 214.292 63.3963 213.966 63.6029 213.711C63.8094 213.456 64.1086 213.294 64.4346 213.261C64.7607 213.227 65.0868 213.324 65.3413 213.53C66.8514 214.686 68.3755 215.823 69.9138 216.938C67.4427 203.855 70.8536 178.426 77.5328 166.15C78.3248 164.701 80.4949 165.989 79.9933 167.396C72.4059 188.664 71.3948 196.964 72.6277 218.876C92.8363 233.282 115.308 244.213 139.116 251.219ZM107.713 286.764C106.814 286.846 105.984 287.281 105.406 287.974C104.827 288.666 104.547 289.561 104.627 290.46C104.757 291.213 105.109 291.91 105.638 292.461C106.167 293.013 106.848 293.394 107.595 293.556C108.048 293.605 108.507 293.558 108.942 293.419C109.377 293.279 109.777 293.05 110.118 292.746C110.458 292.442 110.731 292.07 110.919 291.654C111.107 291.238 111.206 290.787 111.209 290.33C111.215 289.866 111.129 289.406 110.956 288.975C110.783 288.544 110.527 288.152 110.202 287.82C109.878 287.489 109.491 287.225 109.063 287.044C108.636 286.862 108.177 286.767 107.713 286.764ZM152.29 311.981C154.312 311.527 155.194 314.141 153.285 314.534C108.838 323.708 53.7966 320.366 16.4564 314.447C16.1406 314.379 15.8562 314.208 15.6479 313.961C15.4396 313.714 15.3192 313.405 15.3054 313.082C12.6654 297.506 9.85379 272.545 10.6854 256.985C10.6992 256.702 10.8214 256.435 11.0266 256.239C11.2318 256.044 11.5043 255.935 11.7876 255.935C12.0709 255.935 12.3434 256.044 12.5486 256.239C12.7538 256.435 12.8759 256.702 12.8898 256.985C12.5466 277.141 16.166 294.367 17.6101 311.667C107.824 323.114 153.319 311.981 152.29 311.981ZM109.593 247.037C99.5161 255.799 93.0455 276.977 93.7002 289.615C93.7715 290.996 96.0366 290.961 96.1316 289.591C97.5731 268.838 104.448 256.042 111.597 248.972C112.663 247.908 110.865 245.928 109.593 247.034V247.037ZM179.191 258.78C180.48 259.35 180.44 261.668 178.967 261.56C173.032 261.121 162.599 263.112 158.787 263.534C153.045 264.173 148.544 264.87 143.414 261.808C142.147 261.053 143.271 259.226 144.552 259.619C149.719 261.113 155.186 261.243 160.418 259.997C164.856 259.332 175.392 257.098 179.191 258.78ZM104.962 121.254C99.7035 118.691 98.3835 120.18 95.3528 124.536C91.9844 129.627 89.1775 135.068 86.9814 140.764C70.4207 133.411 61.5133 126.188 48.3027 114.908C52.0463 112.603 55.6472 111.381 59.4171 109.395C59.6873 109.252 59.8979 109.018 60.0115 108.734C60.125 108.45 60.1341 108.135 60.0372 107.845C59.9402 107.555 59.7434 107.309 59.482 107.151C59.2205 106.992 58.9112 106.932 58.6093 106.98C54.3426 108.412 50.2814 110.396 46.5287 112.88C45.0529 113.936 44.6569 114.557 45.9188 115.998C54.0395 125.278 73.7893 139.019 85.0911 143.111C88.1509 144.22 88.3383 144.027 89.8431 141.263C92.3063 136.714 93.7345 132.532 96.5699 128.145C99.3471 123.841 100.197 121.809 104.582 124.33C109.186 126.602 113.084 130.084 115.858 134.404C116.695 135.618 118.582 134.351 117.999 132.976C118.289 132.96 114.609 125.956 104.962 121.254ZM95.2393 119.309C85.502 116.927 76.351 112.59 68.343 106.56C67.2131 105.768 65.7267 107.508 66.7854 108.442C71.078 112.236 87.6704 121.885 94.545 121.582C95.6538 121.534 96.5197 119.678 95.2393 119.309ZM163.423 250.944C163.615 255.39 160.352 256.251 160.233 251.53C159.365 231.676 155.977 212.012 150.151 193.012C144.532 172.291 134.101 153.189 119.707 137.261C118.696 136.112 120.235 134.357 121.352 135.492C134.509 148.768 146.915 170.369 153.127 192.12C158.493 211.34 161.944 231.044 163.428 250.944H163.423ZM262.615 97.4573C262.703 97.1413 262.911 96.8722 263.194 96.7073C263.478 96.5424 263.814 96.4949 264.132 96.5748C264.45 96.6548 264.725 96.8559 264.896 97.1352C265.068 97.4145 265.124 97.7498 265.052 98.0697C263.65 109.361 257.95 117.207 251.976 126.27C247.344 133.522 241.739 140.105 235.318 145.833C234.219 146.823 232.73 145.088 233.604 143.985C239.785 136.215 243.692 133.187 248.972 124.713C256.504 112.658 257.451 111.682 262.615 97.4573ZM259.014 82.9135C259.037 82.5852 258.936 82.2603 258.731 82.0025C258.527 81.7448 258.233 81.5728 257.908 81.5202C257.583 81.4677 257.251 81.5384 256.975 81.7185C256.7 81.8986 256.501 82.1751 256.419 82.4938C253.729 93.12 249.1 103.158 242.765 112.104C242.605 112.384 242.55 112.711 242.611 113.028C242.671 113.345 242.842 113.629 243.094 113.831C243.346 114.032 243.661 114.137 243.983 114.126C244.305 114.115 244.613 113.99 244.851 113.772C250.363 107.922 259.893 91.6889 259.025 82.9135H259.014ZM246.746 77.9345C244.064 88.4809 239.98 98.6199 234.602 108.081C233.921 109.353 235.851 110.399 236.714 109.353C243.526 100.275 247.848 89.5745 249.252 78.312C249.294 77.9849 249.206 77.6544 249.007 77.3911C248.809 77.1279 248.515 76.9529 248.189 76.9036C247.863 76.8542 247.53 76.9345 247.263 77.1271C246.995 77.3198 246.813 77.6096 246.757 77.9345H246.746ZM235.344 76.5194C232.838 88.1404 229.191 99.4858 224.457 110.391C223.876 111.819 226.086 112.767 226.878 111.502C231.057 104.815 238.317 85.469 237.952 76.9735C237.897 75.4898 235.687 74.9777 235.355 76.5194H235.344ZM214.15 95.8574C214.897 94.6404 217.139 95.2502 216.616 96.7181C211.426 111.275 211.925 116.254 210.808 130.602C210.694 132.07 208.664 131.635 208.448 130.447C206.737 121.117 209.198 103.96 214.161 95.8574H214.15ZM231.342 164.777C230.193 166.242 228.913 165.598 227.767 164.82C227.38 164.465 227.108 164.003 226.987 163.492C226.865 162.982 226.9 162.446 227.087 161.956C227.274 161.466 227.605 161.043 228.035 160.742C228.465 160.442 228.976 160.278 229.501 160.272C230.026 160.266 230.54 160.418 230.978 160.708C231.415 160.998 231.755 161.413 231.954 161.899C232.152 162.384 232.2 162.919 232.091 163.432C231.982 163.946 231.721 164.414 231.342 164.777ZM225.869 173.539C226.45 174.595 224.958 176.346 224.1 175.488C216.864 168.252 200.919 159.215 193.711 154.872C192.521 154.154 193.569 152.338 194.804 152.76C200.771 154.817 222.87 168.072 225.88 173.539H225.869ZM172.153 187.724C172.755 189.131 170.545 190.628 169.719 189.401C162.733 179.465 154.116 170.783 144.232 163.724C143.015 162.847 144.518 161.171 145.721 161.971C152.501 166.488 168.959 180.237 172.164 187.724H172.153ZM372.967 94.4978C373.298 94.3546 373.67 94.3416 374.009 94.4614C374.349 94.5812 374.63 94.8251 374.797 95.1439C374.964 95.4627 375.005 95.833 374.91 96.1803C374.815 96.5276 374.593 96.8263 374.287 97.0164C366.726 101.712 357.957 104.093 349.059 103.867C349.005 107.35 348.055 110.761 346.301 113.77C346.108 113.928 345.873 114.027 345.625 114.055C345.377 114.082 345.126 114.038 344.903 113.926C344.679 113.814 344.493 113.641 344.366 113.425C344.24 113.21 344.178 112.963 344.189 112.714C345.368 109.799 346.08 106.716 346.301 103.579C341.449 102.925 336.868 100.961 333.05 97.898C329.231 94.8349 326.32 90.7889 324.629 86.195C319.967 73.4702 323.879 59.3726 328.737 47.3105C328.829 47.0068 329.037 46.7518 329.317 46.601C329.596 46.4502 329.923 46.4158 330.228 46.5053C330.532 46.5947 330.789 46.8007 330.943 47.0786C331.096 47.3565 331.133 47.6836 331.047 47.9889C328.707 55.0568 327.014 62.3231 325.991 69.6977C324.766 85.0097 331.445 98.3601 347.639 99.9389C356.216 100.765 364.997 97.7741 372.967 94.4978ZM341.256 113.424C342.405 117.485 344.177 121.343 346.509 124.86C360.858 120.778 374.748 115.226 387.957 108.292C390.238 107.159 390.626 107.006 392.889 108.239C396.784 110.489 400.356 113.26 403.504 116.473C403.803 116.737 403.987 117.107 404.017 117.504C404.047 117.901 403.922 118.294 403.667 118.6C403.412 118.907 403.048 119.101 402.652 119.143C402.256 119.185 401.859 119.071 401.545 118.825C398.268 115.646 394.682 112.801 390.84 110.333C377.71 117.891 363.579 123.558 348.864 127.165C352.071 129.836 355.125 132.684 358.014 135.695C363.123 140.605 362.97 141.44 370.079 138.496C378.282 135.299 385.889 130.748 392.585 125.032C393.829 123.936 395.312 125.787 394.209 126.98C388.549 133.087 376.991 139.531 369.129 142.356C363.648 144.323 361.547 143.565 357.536 139.668C355.403 137.598 347.24 129.087 345.622 127.981C341.147 130.012 336.811 132.336 332.641 134.937C330.445 136.099 329.75 133.805 331.651 132.363C335.47 129.936 339.47 127.806 343.616 125.993C341.701 122.798 340.165 119.392 339.038 115.842C336.186 118.398 333.719 121.353 331.712 124.615C331.549 124.844 331.31 125.007 331.037 125.076C330.765 125.144 330.476 125.114 330.224 124.989C329.973 124.865 329.773 124.654 329.662 124.396C329.551 124.138 329.536 123.849 329.618 123.58C331.399 119.766 333.979 116.379 337.182 113.648C337.628 113.646 339.944 110.013 341.256 113.424ZM397.466 34.2741C395.378 33.7065 395.201 32.1621 397.385 30.8421C401.651 28.2681 400.085 22.571 396.08 20.3244C393.854 19.2817 391.397 18.831 388.946 19.016C386.495 19.201 384.133 20.0154 382.088 21.3804C380.103 22.9089 378.836 21.4569 378.815 19.8677C378.782 16.0093 377.372 12.2895 374.839 9.37893C372.306 6.46832 368.817 4.55835 365 3.99334C357.286 2.83438 345.575 6.75214 342.261 14.3131C341.823 15.3137 340.149 15.9684 339.376 14.886C335.099 8.85359 326.939 10.1894 321.445 13.7059C307.765 22.4601 315.901 33.3845 327.517 38.3028C338.682 43.0337 351.728 42.8779 363.535 41.3731C367.027 40.9269 367.568 41.6371 368.308 45.1325C369.136 48.7463 370.765 52.128 373.075 55.0282C375.384 57.9283 378.316 60.2727 381.653 61.8885C385.845 54.4807 396.487 56.5689 399.663 64.7397C402.68 72.4987 397.767 81.4747 388.894 84.2388C388.894 95.3083 390.478 102.032 390.262 103.088C390.024 104.282 388.554 104.205 387.949 103.413C385.922 100.755 385.637 87.4042 386.075 84.2203C386.437 81.5803 386.286 81.6173 388.952 80.6563C391.793 79.6852 394.178 77.7059 395.657 75.0936C397.136 72.4812 397.605 69.4172 396.975 66.4821C395.288 60.3441 388.171 57.9945 383.87 63.3141C382.912 64.4995 382.3 64.7635 379.646 63.7735C375.681 62.0365 372.225 59.3154 369.607 55.8683C366.988 52.4212 365.293 48.3623 364.683 44.0765C317.263 51.9305 298.485 24.3504 319.576 10.7623C326.176 6.52247 334.983 5.59318 340.527 11.087C343.972 3.49174 357.898 -0.338894 365.47 0.791026C373.941 2.06087 381.682 9.07534 382.281 17.687C384.82 16.4244 387.63 15.8054 390.464 15.8846C393.298 15.9638 396.069 16.7387 398.533 18.1411C403.409 21.4015 405.133 28.4239 400.458 32.6426C411.115 35.5968 415.754 49.2403 414.328 61.35C413.68 67.464 411.469 73.3083 407.909 78.321C404.349 83.3337 399.559 87.3463 394 89.9729C392.152 90.7966 390.684 88.0536 392.532 87.1718C397.51 84.8821 401.827 81.3683 405.079 76.9585C408.332 72.5488 410.414 67.3868 411.131 61.9545C412.367 51.6269 408.655 37.3154 397.466 34.2741ZM362.315 80.5929C362.785 77.8447 366.146 79.1225 365.385 81.8601C363.524 88.5763 352.238 87.5309 348.014 86.6122C346.501 86.2874 346.826 83.9722 348.37 84.2177C351.771 84.8011 361.507 85.2869 362.315 80.5929ZM353.035 53.2716C353.867 52.7735 354.801 52.4728 355.767 52.3926C356.733 52.3125 357.705 52.4549 358.607 52.8091C359.509 53.1633 360.318 53.7198 360.971 54.4357C361.625 55.1516 362.105 56.0078 362.376 56.9385C362.846 59.0505 360.926 60.0221 360.055 58.2321C359.501 57.1174 358.581 56.2265 357.449 55.7081C356.317 55.1897 355.041 55.0751 353.835 55.3836C352.821 55.4786 351.752 54.0002 353.035 53.2716ZM340.627 52.6591C341.641 53.8629 340.134 55.0615 338.568 54.5071C337.617 54.1294 336.571 54.0637 335.581 54.3195C334.591 54.5753 333.707 55.1393 333.058 55.9301C332.858 56.1438 332.589 56.2798 332.298 56.3138C332.008 56.3479 331.714 56.2779 331.47 56.1161C331.226 55.9544 331.047 55.7115 330.966 55.4305C330.884 55.1494 330.904 54.8485 331.023 54.581C332.311 51.6902 338.096 49.6495 340.638 52.6591H340.627ZM337.222 62.9815C337.507 64.6764 336.527 66.5587 334.933 66.5561C332.903 66.5561 332.612 64.943 332.694 63.6389C332.607 63.0371 332.762 62.4253 333.126 61.9381C333.49 61.4509 334.033 61.1283 334.634 61.0411C335.236 60.9539 335.848 61.1094 336.335 61.4733C336.822 61.8372 337.145 62.3797 337.232 62.9815H337.222ZM354.743 61.3685C355.929 61.7196 356.235 63.5597 356.087 64.5365C355.823 66.2313 354.611 67.818 352.829 67.2187C352.191 66.9382 351.683 66.4251 351.41 65.7836C351.136 65.1422 351.117 64.4206 351.356 63.7656C351.882 62.1605 353.392 60.9645 354.751 61.3685H354.743ZM347.697 75.3446C349.31 76.0416 348.299 78.5126 346.67 78.1589C344.688 77.7127 342.935 78.4968 340.947 78.2328C337.185 77.7338 336.369 74.9592 337.665 71.7965C338.82 68.7413 340.455 65.8896 342.507 63.3485C343.315 62.6964 344.41 63.6626 344.228 64.547C343.964 65.8327 342.491 67.6833 340.667 72.203C339.841 74.257 339.368 75.4687 342.182 75.305C344 74.866 345.897 74.8796 347.708 75.3446H347.697ZM317.482 271.938C303.369 273.572 306.885 304.531 312.374 314.478C306.302 322.567 279.02 321.134 272.325 317.797C270.343 272.505 275.953 239.141 286.317 195.444C286.416 195.125 286.385 194.779 286.232 194.483C286.079 194.186 285.815 193.962 285.498 193.858C285.18 193.754 284.835 193.779 284.536 193.927C284.237 194.076 284.008 194.336 283.899 194.652C274.899 218.855 270.152 254.754 269.16 280.452C253.972 286.317 238.452 291.282 222.68 295.32C219.776 284.467 204.504 257.771 194.638 252.594C230.89 234.064 255.955 216.717 272.077 185.844C288.799 153.824 310.325 129.414 328.734 121.03C323.702 135.418 321.223 195.214 329.811 215.806C323.279 233.9 319.138 252.77 317.493 271.938H317.482ZM301.471 189.522C303.379 184.435 305.903 179.602 308.987 175.129C305.48 170.466 302.981 165.125 301.65 159.444C301.468 158.14 303.403 157.364 303.908 158.674C305.391 163.374 307.609 167.81 310.481 171.816C312.358 174.326 312.147 174.857 310.785 177.325C307.89 182.651 305.333 188.154 303.129 193.801C309.499 207.915 313.369 212.672 322.3 223.699C323.356 225.019 322.05 226.786 320.867 225.714C312.53 217.22 305.855 207.242 301.188 196.294C299.652 192.207 299.911 193.416 301.481 189.522H301.471ZM365.258 269.448C366.726 269.897 366.344 272.233 364.778 272.421C358.207 273.213 352.473 264.237 345.678 264.398C340.398 264.519 336.591 270.971 330.426 271.262C330.095 271.282 329.769 271.173 329.516 270.959C329.263 270.744 329.103 270.44 329.069 270.111C329.035 269.781 329.129 269.45 329.333 269.189C329.537 268.927 329.834 268.754 330.162 268.706C335.807 267.576 339.083 261.739 345.881 260.81C351.446 260.057 360.066 267.864 365.258 269.448ZM342.026 318.528C334.856 318.858 321.896 319.423 317.393 312.831C316.545 311.596 314.824 313.013 315.328 314.238C318.736 322.52 333.317 322.28 340.725 322.042C352.122 321.732 363.363 319.32 373.883 314.927C375.969 314.04 374.385 310.999 372.323 311.807C362.655 315.684 352.419 317.957 342.019 318.534L342.026 318.528ZM332.427 308.699C323.288 312.161 312.055 310.149 311.78 302.58C311.727 301.154 314.024 300.758 314.267 302.166C315.608 309.864 328.119 305.719 331.601 305.978C332.916 305.983 333.924 308.135 332.42 308.705L332.427 308.699ZM330.725 295.5C325.223 295.236 316.825 298 313.61 290.571C312.921 288.987 310.89 289.945 311.157 291.627C312.247 298.477 320.112 300.552 331.168 298.491C332.715 298.208 332.19 295.497 330.727 295.497L330.725 295.5ZM332.309 284.557C331.2 284.148 324.296 284.868 321.532 284.227C319.65 283.791 315.832 281.946 317.005 279.24C317.161 278.919 317.185 278.551 317.072 278.212C316.96 277.874 316.719 277.594 316.402 277.431C316.085 277.268 315.716 277.237 315.376 277.342C315.036 277.448 314.75 277.683 314.581 277.996C312.026 281.83 315.806 285.763 319.315 286.891C323.627 287.852 328.096 287.878 332.42 286.967C332.636 286.843 332.813 286.661 332.933 286.443C333.053 286.224 333.111 285.977 333.1 285.728C333.089 285.478 333.009 285.237 332.87 285.03C332.731 284.823 332.538 284.659 332.311 284.554L332.309 284.557ZM407.406 121.027C473.916 131.64 509.363 234.608 500.442 269.733C493.127 298.557 419.487 326.543 382.308 323.109C377.395 321.229 369.57 282.218 370.047 265.47C393.823 260.422 422.744 251.95 439.569 233.473C440.625 232.298 439.128 230.5 437.885 231.596C434.153 234.876 430.197 237.894 426.047 240.627C423.658 231.268 414.447 215.043 408.623 208.11C408.536 207.976 408.424 207.86 408.293 207.769C408.161 207.678 408.013 207.614 407.857 207.58C407.701 207.546 407.539 207.544 407.382 207.573C407.225 207.601 407.074 207.661 406.94 207.747C406.806 207.834 406.69 207.946 406.599 208.078C406.508 208.209 406.444 208.357 406.41 208.514C406.376 208.67 406.374 208.831 406.402 208.989C406.431 209.146 406.49 209.296 406.577 209.43C414.233 222.242 418.89 229.064 422.982 242.578C403.993 254.218 385.555 258.402 366.246 263.17C358.352 260.921 351.89 254.944 348.492 254.545C336.055 253.088 331.253 264.664 323.473 265.522C328.235 212.662 355.921 154.328 407.403 121.025L407.406 121.027ZM410.265 153.267C400.252 157.734 390.671 163.112 381.642 169.334C383.778 175.625 388.1 183.719 390.14 189.052C391.075 191.491 390.5 192.524 388.556 194.068C369.292 209.303 351.693 226.533 336.052 245.469C335.023 246.704 333.433 244.996 334.323 243.705C347.309 224.85 370.649 203.694 387.405 190.948C384.314 184.941 381.707 178.697 379.61 172.275C378.226 167.948 378.274 168.637 381.737 165.902C390.948 159.078 401.021 153.503 411.693 149.32C412.196 144.165 411.909 138.963 410.843 133.895C410.579 132.743 412.61 131.988 413.19 133.155C415.154 137.94 415.671 143.196 414.679 148.272C413.988 151.968 413.819 151.796 410.263 153.264L410.265 153.267Z" fill="#212941"/>
</svg>
