<svg width="252" height="252" viewBox="0 0 252 252" fill="none" xmlns="http://www.w3.org/2000/svg">
<path d="M85.1928 149.411C84.3108 149.189 83.4162 148.972 82.5166 148.781V162.976C83.4818 163.118 84.4419 163.246 85.4033 163.387C85.0238 158.738 84.9535 154.069 85.1928 149.411Z" fill="#3A5AB7"/>
<path d="M92.5284 150.992C90.4759 150.634 86.8912 149.828 86.6543 149.772C86.7891 154.316 87.0751 161.436 87.1507 163.668C88.8744 163.95 92.2449 164.627 92.5864 164.698C92.3119 160.134 92.2926 155.558 92.5284 150.992Z" fill="#3A5AB7"/>
<path d="M98.6391 186.883C95.2812 186.34 91.2177 186.411 89.6313 189.417C89.2503 190.173 88.9776 190.979 88.8211 191.811C88.7985 191.928 88.7992 192.049 88.8233 192.166C88.8474 192.284 88.8944 192.395 88.9616 192.494C89.0288 192.593 89.1149 192.678 89.2149 192.743C89.3149 192.809 89.4268 192.855 89.5444 192.877C92.3707 193.399 95.2382 193.667 98.1124 193.677C98.3248 193.682 98.5308 193.604 98.6868 193.46C98.8427 193.316 98.9364 193.117 98.9478 192.905L99.138 187.561C99.156 187.406 99.1146 187.25 99.022 187.124C98.9294 186.998 98.7926 186.912 98.6391 186.883Z" fill="#3A5AB7"/>
<path d="M112.65 191.785C111.776 186.973 102.013 186.025 102.013 187.231C102.013 187.357 101.708 190.727 101.693 193.322C101.696 193.525 101.775 193.72 101.915 193.868C102.055 194.016 102.246 194.105 102.449 194.118C105.263 194.351 107.741 194.83 111.636 194.909C112.83 194.937 112.853 192.954 112.65 191.785Z" fill="#3A5AB7"/>
<path d="M190.015 202.675C132.181 182.967 131.573 182.221 132.698 184.352C133.809 186.456 134.044 186.998 133.978 186.872C134.026 186.968 134.099 187.049 134.189 187.108C134.279 187.166 134.384 187.2 134.491 187.204C136.704 187.472 138.776 188.435 140.407 189.955C142.033 191.506 143.225 193.456 143.865 195.61C144.035 196.135 141.11 195.083 189.418 211.932C189.556 211.98 189.704 211.995 189.849 211.974C189.993 211.954 190.131 211.899 190.25 211.814C190.369 211.729 190.466 211.617 190.533 211.487C190.6 211.357 190.635 211.213 190.634 211.066V203.539C190.634 203.348 190.575 203.162 190.464 203.007C190.353 202.852 190.196 202.736 190.015 202.675Z" fill="#3A5AB7"/>
<path d="M182.044 165.749C179.874 164.401 178.464 161.181 178.082 158.847C178.042 158.609 177.91 158.396 177.714 158.255C177.519 158.114 177.275 158.055 177.037 158.091L114.979 167.783C114.824 167.806 114.683 167.886 114.584 168.007C114.485 168.128 114.434 168.282 114.442 168.438L114.808 175.024C114.807 175.108 114.824 175.19 114.858 175.267C114.891 175.343 114.94 175.412 115.002 175.468C115.063 175.525 115.136 175.568 115.214 175.594C115.293 175.621 115.377 175.631 115.46 175.624L181.681 167.434C181.87 167.412 182.047 167.332 182.188 167.204C182.329 167.076 182.426 166.908 182.466 166.722C182.506 166.536 182.487 166.342 182.411 166.168C182.336 165.993 182.207 165.847 182.044 165.749Z" fill="#3A5AB7"/>
<path d="M151.755 38.0593C152.899 39.4554 155.11 39.6973 157.425 37.0059C157.55 36.893 157.625 36.735 157.633 36.5666C157.642 36.3982 157.583 36.2333 157.47 36.1082C157.358 35.983 157.2 35.9079 157.031 35.8993C156.863 35.8906 156.698 35.9493 156.573 36.0622C155.647 36.6922 153.517 37.7418 152.507 37.166C152.388 37.0667 152.235 37.0186 152.081 37.0322C151.927 37.0458 151.785 37.12 151.686 37.2384C151.587 37.3569 151.538 37.5099 151.552 37.6639C151.566 37.8178 151.64 37.9601 151.758 38.0593H151.755Z" fill="#212941"/>
<path d="M154.36 42.2187C151.241 42.0159 149.896 40.0074 149.507 36.9343C149.292 34.8284 149.283 32.7067 149.479 30.599C149.496 30.4496 149.454 30.2996 149.363 30.1801C149.272 30.0606 149.138 29.9809 148.99 29.9577C148.841 29.9345 148.689 29.9694 148.566 30.0554C148.443 30.1413 148.357 30.2715 148.328 30.4188C147.734 32.6114 147.513 34.8879 147.674 37.1535C147.961 39.6811 149.021 41.9025 151.355 42.908C151.274 43.8002 151.293 44.6988 151.413 45.5867C150.94 45.8312 150.543 46.063 150.054 46.3553C149.977 46.3879 149.907 46.4353 149.849 46.4949C149.79 46.5544 149.744 46.6249 149.713 46.7023C149.681 46.7797 149.666 46.8625 149.666 46.9459C149.667 47.0294 149.684 47.112 149.717 47.1888C149.749 47.2657 149.797 47.3354 149.856 47.3939C149.916 47.4524 149.986 47.4987 150.064 47.53C150.141 47.5613 150.224 47.577 150.307 47.5763C150.391 47.5756 150.473 47.5585 150.55 47.5259C151.722 47.2083 150.913 47.483 152.746 46.9362C152.934 46.8615 153.091 46.7261 153.193 46.5516C153.294 46.3771 153.335 46.1736 153.307 45.9735C153.262 45.0653 153.065 44.171 152.725 43.3275C153.246 43.4281 153.775 43.4833 154.305 43.4926C154.474 43.5 154.639 43.4399 154.764 43.3256C154.888 43.2114 154.962 43.0523 154.97 42.8834C154.977 42.7145 154.917 42.5495 154.803 42.4249C154.688 42.3002 154.529 42.2261 154.36 42.2187Z" fill="#212941"/>
<path d="M155.595 31.3302C155.595 31.659 155.685 31.9744 155.845 32.2069C156.005 32.4394 156.222 32.57 156.448 32.57C156.674 32.57 156.891 32.4394 157.051 32.2069C157.211 31.9744 157.301 31.659 157.301 31.3302C157.301 31.0013 157.211 30.686 157.051 30.4535C156.891 30.221 156.674 30.0903 156.448 30.0903C156.222 30.0903 156.005 30.221 155.845 30.4535C155.685 30.686 155.595 31.0013 155.595 31.3302Z" fill="#212941"/>
<path d="M149.761 31.4923C149.761 31.8211 149.851 32.1365 150.011 32.369C150.171 32.6015 150.388 32.7321 150.614 32.7321C150.84 32.7321 151.057 32.6015 151.217 32.369C151.377 32.1365 151.467 31.8211 151.467 31.4923C151.467 31.1635 151.377 30.8481 151.217 30.6156C151.057 30.3831 150.84 30.2524 150.614 30.2524C150.388 30.2524 150.171 30.3831 150.011 30.6156C149.851 30.8481 149.761 31.1635 149.761 31.4923Z" fill="#212941"/>
<path d="M166.562 61.6456C166.456 60.9148 164.888 48.975 164.888 48.975C164.876 48.8996 164.879 48.8226 164.897 48.7485C164.914 48.6743 164.947 48.6043 164.992 48.5426C165.036 48.4809 165.093 48.4286 165.158 48.3888C165.223 48.3489 165.296 48.3223 165.371 48.3103C165.446 48.2984 165.523 48.3015 165.597 48.3193C165.672 48.3372 165.742 48.3694 165.803 48.4143C165.865 48.4592 165.917 48.5158 165.957 48.5808C165.997 48.6459 166.024 48.7182 166.036 48.7936L168.476 62.1848C168.511 62.4089 168.462 62.638 168.337 62.8272C168.212 63.0165 168.021 63.1523 167.801 63.208L163.824 64.216C167.33 66.678 167.309 66.5596 167.39 67.0358C167.508 67.7364 167.122 67.5197 163.61 72.9074C162.435 74.6631 161.354 76.4791 160.369 78.3481C160.294 78.4985 160.163 78.613 160.004 78.6664C159.844 78.7198 159.67 78.7077 159.52 78.6329C159.37 78.558 159.255 78.4265 159.202 78.2672C159.148 78.108 159.16 77.934 159.235 77.7836C161.002 74.1803 163.033 70.7129 165.312 67.4101L161.139 64.5751C160.996 64.4743 160.885 64.3347 160.818 64.1728C160.752 64.0108 160.733 63.8333 160.765 63.6611C160.796 63.4888 160.876 63.3292 160.995 63.2009C161.114 63.0726 161.267 62.981 161.437 62.9371L166.562 61.6456Z" fill="#212941"/>
<path d="M193.318 66.0237C191.297 60.2378 187.766 55.0976 183.091 51.1356C181.088 49.5078 178.886 48.1418 176.539 47.0708C171.952 44.8195 166.82 43.9176 161.741 44.4702C161.567 44.4901 161.403 44.5603 161.269 44.6723C161.135 44.7842 161.036 44.9329 160.985 45.1002C159.466 50.6262 158.418 56.2711 157.853 61.9741C155.009 85.0321 156.234 86.7419 155.963 98.1802C155.958 98.3572 156.02 98.5296 156.137 98.6627C156.254 98.7959 156.417 98.88 156.593 98.8984C160.321 99.2638 171.916 99.541 171.916 99.4024C172.075 99.4102 172.231 99.3565 172.351 99.2523C172.471 99.1481 172.547 99.0015 172.562 98.8429H172.508C172.627 96.5359 172.436 94.1419 172.775 91.884C172.885 91.1166 172.055 91.5173 169.47 87.8595C168.668 86.7251 167.943 85.538 167.3 84.3063L169.13 82.7389C170.129 84.9615 171.334 87.0855 172.73 89.083C172.78 89.1554 172.844 89.2171 172.918 89.2647C172.993 89.3123 173.075 89.3448 173.162 89.3604C173.249 89.376 173.338 89.3743 173.424 89.3554C173.51 89.3366 173.592 89.301 173.664 89.2506C173.737 89.2002 173.799 89.136 173.846 89.0618C173.894 88.9875 173.926 88.9046 173.942 88.8178C173.957 88.731 173.956 88.642 173.937 88.5558C173.918 88.4696 173.882 88.388 173.832 88.3157C172.619 86.4622 171.502 82.7515 169.548 79.2033C170.506 78.6993 172.224 77.7821 172.224 77.7821C173.095 81.2017 174.861 86.1472 175.699 89.1107C175.731 89.2186 175.783 89.319 175.854 89.4059C175.925 89.4927 176.013 89.5643 176.113 89.6163C176.212 89.6682 176.321 89.6994 176.433 89.708C176.545 89.7166 176.658 89.7025 176.764 89.6664C184.349 87.0821 190.44 83.5428 193.234 75.9941C194.357 72.7704 194.387 69.266 193.318 66.0237ZM191.527 75.3742C189.091 82.0446 183.76 85.3572 177.029 87.8154C176.035 84.6314 174.157 79.4642 173.482 76.5372C173.449 76.3884 173.371 76.2531 173.26 76.1491C175.077 74.9196 176.8 73.5554 178.413 72.068C178.478 72.0226 178.532 71.964 178.571 71.896C178.611 71.828 178.635 71.7523 178.643 71.674C178.651 71.5957 178.642 71.5167 178.616 71.4422C178.591 71.3678 178.549 71.2997 178.495 71.2427C178.369 71.2427 176.201 68.1557 174.567 66.6298C174.449 66.5249 174.305 66.4535 174.15 66.4231C173.995 66.3927 173.835 66.4043 173.687 66.4568C173.538 66.5093 173.406 66.6008 173.304 66.7216C173.203 66.8424 173.136 66.9883 173.11 67.1439C172.597 69.8269 172.268 72.5418 172.125 75.2696C172.114 75.4089 172.138 75.5485 172.194 75.6766C172.25 75.8046 172.336 75.917 172.445 76.0042C171.524 76.3683 168.818 77.995 168.035 78.3314C167.878 78.3968 167.749 78.5151 167.671 78.6656C167.592 78.8162 167.569 78.9895 167.605 79.1555C167.848 79.9366 168.13 80.7049 168.451 81.4575L165.965 83.6448C165.858 83.7463 165.787 83.8793 165.762 84.0242C165.736 84.1691 165.758 84.3183 165.823 84.45C167.239 87.3088 169.156 89.8903 171.483 92.0717C171.248 94.1104 171.391 96.144 171.357 98.1752C167.773 98.0945 160.957 97.8841 157.383 97.564C157.666 86.253 157.131 84.7562 158.103 74.4393C158.607 69.0944 159.993 57.714 161.091 52.1461C161.487 50.144 161.95 48.1595 162.526 46.1888C169.557 45.7896 176.479 48.0584 181.91 52.5417C186.305 56.2744 189.633 61.1055 191.553 66.5429C192.512 69.4077 192.503 72.5085 191.527 75.3679V75.3742ZM174.03 73.6417C174.087 73.1654 174.593 69.3111 174.626 69.054C175.493 69.8819 176.264 70.6593 177.095 71.5098C176.132 72.2166 175.059 72.9537 174.03 73.6354V73.6417Z" fill="#212941"/>
<path d="M126.855 55.0496C130.311 52.2148 134.177 49.9208 138.321 48.2456C140.76 47.0663 143.381 46.3092 146.073 46.0066C146.212 45.9978 146.35 46.0233 146.477 46.0811C146.603 46.1388 146.713 46.2269 146.796 46.3374C146.88 46.448 146.936 46.5776 146.957 46.7146C146.979 46.8517 146.966 46.992 146.92 47.1229C142.927 58.3369 137.303 99.733 137.872 99.733C137.856 99.8812 137.785 100.018 137.672 100.115C137.558 100.212 137.412 100.262 137.263 100.255V100.277H129.218C129.042 100.265 128.878 100.184 128.761 100.053C128.643 99.9212 128.581 99.7492 128.588 99.573C129.056 91.4567 129.95 83.3706 131.267 75.3482C118.293 80.2244 107.619 66.6655 107.73 52.3368C107.733 52.1533 107.794 51.9755 107.905 51.8295C108.017 51.6834 108.172 51.5768 108.348 51.5254C113.569 50.0134 118.71 49.0621 124.041 48.0503C124.259 48.0076 124.486 48.0505 124.674 48.1701C124.861 48.2897 124.996 48.4769 125.049 48.6929C125.573 50.8173 126.252 52.9202 126.855 55.0496ZM144.927 47.8399C141.139 48.49 132.46 52.2411 126.967 57.2647C126.856 57.3654 126.721 57.4358 126.575 57.4692C126.43 57.5025 126.278 57.4977 126.134 57.4551C125.991 57.4126 125.861 57.3337 125.757 57.2262C125.653 57.1186 125.578 56.9861 125.54 56.8413C124.932 54.4952 124.165 52.1894 123.565 49.9113C118.825 50.8034 114.096 51.6967 109.44 52.9983C109.63 66.5887 119.826 79.0022 131.912 73.4708C132.035 73.4128 132.172 73.3899 132.307 73.4045C132.443 73.4191 132.571 73.4707 132.679 73.5536C132.787 73.6366 132.87 73.7476 132.919 73.8746C132.968 74.0015 132.981 74.1395 132.957 74.2734C131.495 82.4529 130.475 90.7053 129.901 98.9946L136.766 99.0979C137.451 89.0305 141.566 58.8044 144.927 47.8399Z" fill="#212941"/>
<path d="M111.225 47.5198C111.251 48.1662 111.234 48.8136 111.175 49.4577C111.169 49.6118 111.102 49.7572 110.989 49.862C110.876 49.9668 110.726 50.0224 110.572 50.0165C110.418 50.0107 110.272 49.9439 110.167 49.8308C110.063 49.7177 110.007 49.5677 110.013 49.4136C109.984 48.6652 109.785 47.6836 109.669 46.9138C109.656 46.7263 109.711 46.5404 109.824 46.3902C109.937 46.24 110.1 46.1356 110.284 46.096C112.127 45.6676 115.821 44.08 120.54 44.6092C120.721 44.6276 120.889 44.7105 121.014 44.8429C121.139 44.9753 121.212 45.1482 121.219 45.3299C121.226 46.0037 121.268 46.6766 121.345 47.3459C121.356 47.4287 121.351 47.5128 121.329 47.5934C121.308 47.674 121.27 47.7496 121.22 47.8158C121.169 47.882 121.105 47.9376 121.033 47.9793C120.961 48.0211 120.881 48.0482 120.798 48.0591C120.716 48.07 120.632 48.0645 120.551 48.043C120.47 48.0214 120.395 47.9842 120.329 47.9334C120.262 47.8826 120.207 47.8193 120.165 47.747C120.123 47.6748 120.096 47.595 120.085 47.5123C120.017 47.0788 119.914 46.6819 119.816 46.0822C116.991 46.1086 114.43 46.9982 111.225 47.5198Z" fill="#212941"/>
<path d="M120.362 43.5179C120.313 41.2751 120.74 41.1151 121.81 39.5691C122.54 38.5359 123.177 37.4395 123.712 36.2931C123.754 36.2208 123.78 36.141 123.791 36.0584C123.802 35.9758 123.796 35.8919 123.774 35.8115C123.752 35.7311 123.714 35.6558 123.663 35.5899C123.612 35.5241 123.549 35.4689 123.477 35.4275C123.404 35.3861 123.325 35.3594 123.242 35.3489C123.159 35.3383 123.075 35.3441 122.995 35.366C122.915 35.3879 122.839 35.4254 122.774 35.4764C122.708 35.5273 122.652 35.5908 122.611 35.6631C122.122 36.3574 121.013 37.7068 120.352 38.4893C118.972 40.3213 118.447 41.0093 119.218 43.6868C119.229 43.7622 119.255 43.8347 119.295 43.9001C119.334 43.9655 119.386 44.0224 119.447 44.0678C119.509 44.1131 119.578 44.1459 119.652 44.1643C119.726 44.1827 119.803 44.1864 119.879 44.175C119.954 44.1637 120.027 44.1376 120.092 44.0983C120.157 44.0589 120.214 44.0071 120.26 43.9457C120.305 43.8844 120.338 43.8147 120.356 43.7406C120.375 43.6666 120.378 43.5896 120.367 43.5142L120.362 43.5179Z" fill="#212941"/>
<path d="M115.314 43.2723C115.604 42.1275 116.269 41.113 117.204 40.3906C117.533 40.1748 117.903 40.0274 118.291 39.9572C118.459 39.9547 118.62 39.8854 118.737 39.7645C118.855 39.6437 118.919 39.4811 118.917 39.3127C118.914 39.1443 118.845 38.9838 118.724 38.8664C118.603 38.7491 118.441 38.6846 118.272 38.6871C117.671 38.6101 117.06 38.6801 116.492 38.8913C115.924 39.1024 115.416 39.4484 115.011 39.8994C114.606 40.3504 114.316 40.8929 114.167 41.4805C114.019 42.068 114.015 42.6828 114.156 43.2723C114.171 43.4154 114.238 43.5479 114.345 43.6442C114.452 43.7406 114.591 43.7939 114.735 43.7939C114.879 43.7939 115.017 43.7406 115.124 43.6442C115.231 43.5479 115.299 43.4154 115.314 43.2723Z" fill="#212941"/>
<path d="M110.421 43.9566C109.873 37.1526 109.83 37.1954 109.88 36.3726C109.863 35.9328 109.948 35.495 110.129 35.0935C110.309 34.692 110.58 34.3376 110.92 34.058C111.129 33.9106 111.367 33.7732 111.594 33.9522C111.948 34.3368 112.223 34.7886 112.4 35.281C112.577 35.7733 112.654 36.2962 112.626 36.8187C112.607 36.9857 112.656 37.1532 112.762 37.2842C112.867 37.4153 113.02 37.4991 113.187 37.5173C113.354 37.5355 113.522 37.4866 113.653 37.3814C113.784 37.2761 113.867 37.1231 113.886 36.956C113.986 36.0815 113.901 35.1955 113.634 34.3566C112.382 30.4859 108.265 32.202 108.034 36.2668C108.157 38.9362 108.571 41.5841 109.27 44.1632C109.284 44.2383 109.312 44.31 109.353 44.3742C109.395 44.4384 109.448 44.4939 109.511 44.5374C109.574 44.5809 109.644 44.6117 109.719 44.6279C109.793 44.6441 109.87 44.6455 109.946 44.6319C110.021 44.6183 110.092 44.5901 110.157 44.5488C110.221 44.5075 110.276 44.454 110.32 44.3913C110.363 44.3286 110.394 44.2579 110.41 44.1833C110.427 44.1087 110.428 44.0317 110.414 43.9566H110.421Z" fill="#212941"/>
<path d="M114.114 32.4272C115.004 32.8594 115.49 35.5218 115.64 36.4945C115.645 36.6627 115.716 36.8223 115.838 36.9381C115.96 37.0539 116.123 37.1164 116.292 37.1119C116.46 37.1074 116.62 37.0362 116.735 36.914C116.851 36.7919 116.914 36.6287 116.909 36.4605C117.152 35.279 117.058 34.053 116.638 32.9224C116.448 32.4756 116.141 32.0889 115.748 31.8039C115.355 31.5189 114.892 31.3463 114.408 31.3046C114.262 31.2737 114.11 31.3002 113.983 31.3787C113.856 31.4571 113.764 31.5815 113.726 31.7259C113.688 31.8703 113.707 32.0237 113.78 32.1543C113.852 32.2849 113.972 32.3826 114.114 32.4272Z" fill="#212941"/>
<path d="M117.508 32.1918C118.264 32.6278 118.66 35.7198 118.69 36.3284C118.677 36.4955 118.731 36.661 118.839 36.7886C118.948 36.9162 119.103 36.9954 119.27 37.0088C119.437 37.0222 119.603 36.9686 119.73 36.8599C119.858 36.7512 119.937 36.5963 119.95 36.4292C120.11 35.7507 120.191 35.0561 120.192 34.359C120.267 33.6254 120.072 32.8896 119.645 32.2885C119.218 31.6874 118.587 31.2617 117.87 31.0906C117.797 31.0634 117.719 31.0513 117.641 31.0548C117.564 31.0583 117.487 31.0775 117.417 31.1111C117.347 31.1447 117.284 31.1921 117.232 31.2505C117.181 31.3089 117.142 31.3771 117.117 31.451C117.092 31.5249 117.083 31.603 117.089 31.6807C117.095 31.7583 117.117 31.834 117.152 31.9031C117.188 31.9722 117.238 32.0334 117.298 32.083C117.358 32.1326 117.427 32.1696 117.502 32.1918H117.508Z" fill="#212941"/>
<path d="M138.877 62.8977C138.397 62.5941 137.941 62.3207 137.387 62.0346C137.185 61.9324 137.028 61.7582 136.947 61.5464C136.866 61.3345 136.868 61.1002 136.951 60.8893C139.659 54.2113 140.405 52.8165 141.813 49.9437C141.879 49.8042 141.997 49.6964 142.142 49.6442C142.287 49.592 142.447 49.5996 142.587 49.6652C142.726 49.7309 142.834 49.8493 142.886 49.9944C142.939 50.1395 142.931 50.2993 142.865 50.4389C141.798 52.819 139.897 58.2093 138.932 60.7898C139.7 61.2065 140.432 61.687 141.12 62.2262C141.239 62.3201 141.333 62.4419 141.395 62.5807C141.456 62.7195 141.482 62.8712 141.471 63.0225C141.404 63.8818 140.767 63.5882 137.912 65.8613C138.256 71.2112 138.533 72.95 138.571 78.654C138.574 78.8223 138.51 78.9849 138.393 79.106C138.277 79.2271 138.116 79.2968 137.948 79.2998C137.78 79.3028 137.617 79.2388 137.496 79.122C137.375 79.0051 137.305 78.845 137.302 78.6767C137.262 77.3613 137.145 76.0509 137.03 74.743C136.243 65.7491 135.719 65.3396 136.412 64.76C137.197 64.0926 138.021 63.4708 138.877 62.8977Z" fill="#212941"/>
<path d="M163.767 32.1136C165.551 29.1639 166.214 25.3398 163.366 23.3692C163.552 22.4101 163.391 21.4161 162.913 20.5644C161.408 17.858 158.897 18.2372 156.433 17.8239C151.815 17.0503 151.976 16.7756 150.763 16.6421C145.813 16.1154 142.728 22.1659 144.347 26.1979C145.24 28.4067 148.001 30.2652 150.28 29.2471C150.397 29.1956 150.5 29.1192 150.584 29.0232C150.667 28.9271 150.729 28.8139 150.764 28.6914C150.862 28.3689 150.512 28.6511 152.563 28.8389C152.142 30.1562 151.937 31.5333 151.957 32.9162C152.001 34.0389 151.994 35.1842 152.745 35.1968C153.441 35.2082 153.457 34.4635 153.717 32.7096C153.897 31.4445 153.95 30.1648 153.876 28.8893C155.362 28.8667 156.834 28.6116 158.241 28.1333C158.274 29.5352 158.733 30.8938 159.556 32.0292C160.005 32.6 160.423 31.9851 161.63 32.3013C161.928 32.3347 162.21 32.4566 162.438 32.6514C162.667 32.8461 162.831 33.1048 162.912 33.394C162.992 33.6832 162.983 33.9898 162.888 34.2743C162.792 34.5588 162.613 34.8081 162.375 34.9902C161.843 35.2518 161.234 35.3127 160.661 35.1615C160.542 35.1376 160.42 35.1375 160.301 35.1612C160.182 35.1849 160.069 35.232 159.968 35.2997C159.867 35.3675 159.781 35.4545 159.714 35.5558C159.647 35.6571 159.601 35.7706 159.579 35.8898C159.3 37.9902 158.448 39.973 157.116 41.6203C157.034 41.6937 156.969 41.783 156.924 41.8827C156.878 41.9824 156.854 42.0904 156.852 42.1999L157.152 46.1525C155.102 47.0864 153.147 48.2164 151.315 49.5268L149.02 46.6376C148.982 46.5687 148.93 46.5082 148.868 46.4598C148.806 46.4114 148.735 46.376 148.658 46.3559C148.582 46.3358 148.503 46.3313 148.425 46.3428C148.347 46.3542 148.272 46.3813 148.205 46.4224C148.138 46.4636 148.08 46.5179 148.034 46.5821C147.988 46.6463 147.956 46.7191 147.939 46.7961C147.923 46.8731 147.922 46.9526 147.937 47.03C147.951 47.1073 147.982 47.1809 148.026 47.2462C148.6 48.3538 149.231 49.4313 149.916 50.4743C149.113 51.127 148.85 51.4055 148.136 52.0581L147.446 50.7654C147.415 50.6955 147.371 50.6324 147.315 50.5797C147.26 50.527 147.194 50.4858 147.123 50.4583C147.051 50.4309 146.975 50.4178 146.899 50.4198C146.822 50.4218 146.747 50.4388 146.677 50.4699C146.607 50.501 146.544 50.5456 146.491 50.6011C146.439 50.6566 146.397 50.7219 146.37 50.7933C146.343 50.8648 146.33 50.9409 146.331 51.0174C146.333 51.0939 146.351 51.1692 146.382 51.2391L147.23 53.5764C147.276 53.6827 147.346 53.7769 147.435 53.8517C147.523 53.9264 147.628 53.9799 147.741 54.0077C147.853 54.0356 147.971 54.0373 148.084 54.0125C148.197 53.9878 148.303 53.9373 148.394 53.865L150.987 51.9447C151.816 52.9929 152.713 53.9861 153.671 54.9183C154.588 55.857 155.397 54.3123 157.759 51.4344C157.816 51.3731 157.86 51.3011 157.889 51.2227C157.918 51.1443 157.931 51.061 157.928 50.9775C157.924 50.894 157.905 50.812 157.87 50.7362C157.835 50.6603 157.785 50.5921 157.723 50.5354C157.662 50.4788 157.59 50.4347 157.512 50.4059C157.433 50.377 157.35 50.3639 157.267 50.3672C157.183 50.3705 157.101 50.3903 157.025 50.4253C156.949 50.4603 156.881 50.51 156.824 50.5713C156.092 51.2895 155.026 52.3127 154.317 53.0611L152.515 50.9078C154.355 49.7158 158.223 47.163 159.993 46.271C160.146 46.1991 160.264 46.0696 160.321 45.9109C160.378 45.7523 160.37 45.5774 160.298 45.4249C160.226 45.2723 160.096 45.1546 159.938 45.0975C159.779 45.0404 159.604 45.0487 159.452 45.1206L158.455 45.5603L158.421 42.5703C159.88 41.0447 160.849 39.1182 161.206 37.0377C162.032 37.0666 162.838 36.7822 163.463 36.2414C163.764 35.9429 164.001 35.5866 164.161 35.194C164.32 34.8014 164.398 34.3806 164.391 33.957C164.318 33.3047 164.105 32.6759 163.767 32.1136ZM153.867 19.3082C152.955 19.1725 152.023 19.2441 151.142 19.5176C150.261 19.7912 149.452 20.2596 148.777 20.8883C147.369 22.4078 147.769 23.3742 147.097 23.2004C146.999 23.1743 146.915 23.1106 146.864 23.023C146.813 22.9354 146.799 22.8311 146.824 22.7329C147.492 19.0411 150.233 17.805 153.969 18.4791C154.079 18.4927 154.179 18.5493 154.248 18.6366C154.316 18.724 154.346 18.8348 154.333 18.9447C154.319 19.0547 154.263 19.1547 154.175 19.2229C154.088 19.2911 153.977 19.3218 153.867 19.3082ZM157.351 19.9886C156.569 19.8437 156.469 19.8475 155.903 19.7051C155.399 19.5791 155.41 19.0373 155.929 18.9403C156.47 18.8163 157.039 18.8995 157.523 19.1734C157.578 19.1822 157.632 19.2023 157.68 19.2324C157.728 19.2625 157.769 19.3021 157.801 19.3486C157.833 19.3952 157.855 19.4478 157.867 19.5032C157.878 19.5587 157.877 19.6158 157.866 19.6712C157.854 19.7265 157.831 19.7789 157.799 19.8252C157.766 19.8715 157.725 19.9107 157.677 19.9404C157.628 19.97 157.575 19.9896 157.519 19.9979C157.463 20.0062 157.406 20.0031 157.351 19.9886Z" fill="#212941"/>
<path d="M141.013 92.4486C151.093 92.6716 149.707 92.3553 153.84 92.4612C154.008 92.4745 154.174 92.4206 154.303 92.3112C154.431 92.2018 154.51 92.0459 154.524 91.8778C154.537 91.7097 154.483 91.5432 154.374 91.4149C154.264 91.2866 154.109 91.207 153.94 91.1936C149.623 90.4818 145.216 90.5146 140.909 91.2906C140.756 91.3043 140.614 91.3785 140.515 91.4967C140.416 91.615 140.368 91.7677 140.382 91.9213C140.396 92.0748 140.47 92.2166 140.588 92.3155C140.707 92.4144 140.859 92.4623 141.013 92.4486Z" fill="#212941"/>
<path d="M140.364 154.98C140.356 154.836 140.298 154.7 140.202 154.593C140.106 154.487 139.976 154.416 139.833 154.394C139.691 154.371 139.546 154.398 139.421 154.47C139.297 154.541 139.2 154.653 139.148 154.787L133.247 152.231C133.305 152.104 133.316 151.962 133.277 151.828C133.239 151.695 133.154 151.58 133.038 151.503C132.922 151.427 132.782 151.395 132.644 151.413C132.507 151.431 132.38 151.497 132.287 151.601C130.637 153.308 127.255 153.835 125.701 154.615C125.431 154.704 125.188 154.86 124.993 155.068C124.798 155.275 124.658 155.528 124.586 155.803C124.514 156.079 124.512 156.368 124.579 156.644C124.647 156.921 124.783 157.176 124.974 157.387C125.454 157.911 126.048 158.318 126.71 158.574C127.373 158.831 128.086 158.931 128.793 158.867C129.423 158.89 130.131 158.867 133.27 158.65C134.606 158.557 137.496 158.716 139.109 157.681C139.567 157.411 139.932 157.008 140.156 156.526C140.381 156.043 140.453 155.504 140.364 154.98Z" fill="#212941"/>
<path d="M167.9 153.872C167.885 153.705 167.804 153.551 167.675 153.444C167.546 153.337 167.379 153.285 167.212 153.3C167.045 153.316 166.891 153.397 166.784 153.526C166.676 153.655 166.625 153.821 166.64 153.988L160.873 153.797C160.88 153.685 160.853 153.573 160.796 153.477C160.739 153.38 160.654 153.303 160.553 153.255C160.755 153.234 160.941 153.14 161.078 152.99C161.39 152.62 161.777 152.321 162.213 152.112C162.65 151.903 163.126 151.79 163.61 151.78C164.616 151.833 165.579 152.207 166.358 152.847C166.481 152.957 166.634 153.028 166.798 153.051C166.962 153.073 167.128 153.047 167.277 152.975C167.426 152.902 167.549 152.788 167.632 152.645C167.716 152.502 167.754 152.338 167.744 152.173L164.543 100.559C164.542 100.481 164.524 100.404 164.492 100.333C164.46 100.262 164.414 100.198 164.357 100.145C164.299 100.092 164.232 100.051 164.158 100.025C164.085 99.9981 164.007 99.9868 163.929 99.9912C163.851 99.9956 163.774 100.016 163.704 100.05C163.634 100.085 163.572 100.133 163.521 100.192C163.47 100.251 163.431 100.32 163.407 100.394C163.383 100.469 163.375 100.547 163.382 100.625L165.997 150.67C165.219 150.255 164.344 150.054 163.463 150.087C162.581 150.119 161.724 150.384 160.978 150.855C157.946 137.908 153.644 117.296 152.392 104.003C152.372 103.789 152.279 103.589 152.127 103.438C151.976 103.286 151.776 103.192 151.563 103.171L146.614 102.698C146.382 102.675 146.151 102.742 145.967 102.883C145.783 103.025 145.659 103.231 145.621 103.46C143.515 116.198 140.178 138.342 138.886 151.541C137.42 150.488 135.677 149.887 133.873 149.814C134.335 141.179 136.099 110.492 137.804 102.027C137.837 101.862 137.804 101.691 137.711 101.551C137.618 101.41 137.473 101.313 137.308 101.279C137.143 101.246 136.972 101.28 136.831 101.372C136.691 101.465 136.594 101.61 136.56 101.775C134.747 110.459 132.717 141.741 132.217 150.56C132.211 150.67 132.228 150.78 132.267 150.883C132.305 150.987 132.364 151.081 132.44 151.16C132.517 151.24 132.608 151.303 132.71 151.346C132.811 151.389 132.921 151.41 133.031 151.409C134.121 151.336 135.213 151.514 136.224 151.927C137.235 152.341 138.139 152.981 138.865 153.797C138.961 153.937 139.099 154.044 139.258 154.104C139.418 154.163 139.592 154.172 139.757 154.13C139.921 154.088 140.069 153.996 140.18 153.866C140.291 153.737 140.36 153.577 140.377 153.408C141.567 140.838 145.244 117.128 147.292 104.608L150.632 104.934C152.018 118.737 156.428 139.556 159.623 152.607C159.656 152.746 159.723 152.873 159.818 152.979C159.913 153.084 160.033 153.164 160.167 153.211C160.073 153.232 159.985 153.276 159.913 153.34C159.84 153.404 159.785 153.485 159.752 153.576C158.928 155.64 155.829 156.56 154.936 157.283C154.779 157.407 154.669 157.58 154.623 157.774C154.577 157.968 154.599 158.173 154.684 158.353C154.876 158.698 155.144 158.996 155.466 159.224C155.789 159.452 156.159 159.604 156.549 159.67C158.248 160.106 166.629 159.517 167.705 158.121C168.647 156.881 168.259 155.371 167.9 153.872Z" fill="#212941"/>
<path d="M192.514 128.759C190.669 128.715 188.837 129.097 187.162 129.874C185.488 130.651 184.014 131.804 182.857 133.242C176.005 140.904 175.134 155.096 181.018 163.56C186.023 170.759 194.28 171.201 200.044 164.644C206.872 156.872 207.563 142.671 201.594 134.307C200.604 132.755 199.269 131.452 197.694 130.498C196.12 129.544 194.346 128.966 192.512 128.807L192.514 128.759ZM192.453 129.854C194.111 130.038 195.705 130.6 197.112 131.497C198.518 132.394 199.7 133.603 200.566 135.029C205.984 142.919 205.156 156.372 198.802 163.544C193.616 169.394 186.706 168.816 182.347 162.628C176.803 154.763 177.544 141.309 183.825 134.094C184.846 132.782 186.155 131.721 187.651 130.994C189.146 130.267 190.789 129.894 192.451 129.902L192.453 129.854Z" fill="#212941"/>
<path d="M192.245 133.405C182.315 132.741 176.282 150.109 183.273 160.19C187.161 165.799 193.662 166.182 198.17 161.043C206.251 151.831 202.176 133.878 192.248 133.458L192.245 133.405ZM192.177 134.621C200.283 135.2 203.705 149.584 197.915 158.349C193.746 164.662 187.168 164.183 183.789 157.564C179.001 148.186 184.129 134.306 192.173 134.675L192.177 134.621Z" fill="#FF9500"/>
<path d="M196.88 147.443C195.628 146.839 194.228 146.607 192.848 146.774C192.848 145.196 192.782 143.666 192.631 141.986C193.663 141.885 194.702 141.9 195.731 142.031C195.881 142.049 196.032 142.007 196.153 141.916C196.273 141.824 196.353 141.689 196.376 141.539C196.399 141.39 196.363 141.237 196.275 141.114C196.187 140.99 196.055 140.906 195.906 140.878C194.779 140.691 193.638 140.612 192.496 140.642C192.431 140.054 192.36 139.466 192.283 138.878C192.272 138.725 192.201 138.582 192.084 138.482C191.968 138.381 191.816 138.331 191.663 138.342C191.509 138.354 191.367 138.425 191.266 138.542C191.166 138.658 191.116 138.81 191.127 138.963C191.153 139.556 191.158 140.15 191.152 140.743C189.849 140.873 188.588 141.27 187.445 141.909C185.399 143.14 184.601 145.894 186.645 147.619C187.9 148.552 189.469 148.959 191.02 148.753C191.013 152.785 191.02 153.217 191.08 154.886C189.859 154.82 188.634 154.827 187.413 154.904C187.245 154.92 187.09 155.002 186.983 155.131C186.875 155.261 186.823 155.429 186.838 155.597C186.854 155.765 186.936 155.92 187.065 156.028C187.195 156.136 187.363 156.188 187.531 156.172C188.733 156.121 189.937 156.157 191.134 156.279C191.153 156.753 191.171 157.225 191.182 157.699C191.183 157.782 191.199 157.864 191.232 157.94C191.264 158.016 191.311 158.085 191.369 158.143C191.428 158.202 191.498 158.248 191.575 158.279C191.651 158.31 191.733 158.326 191.816 158.325C191.899 158.325 191.981 158.308 192.057 158.276C192.133 158.244 192.202 158.197 192.26 158.138C192.318 158.079 192.364 158.01 192.396 157.933C192.427 157.856 192.443 157.774 192.442 157.692C192.442 157.243 192.461 156.794 192.477 156.346C194.007 156.455 195.538 156.156 196.914 155.478C197.591 155.047 198.148 154.452 198.532 153.748C198.917 153.043 199.117 152.253 199.114 151.451C199.11 150.648 198.904 149.86 198.513 149.159C198.122 148.458 197.561 147.868 196.88 147.443ZM189.111 146.813C186.291 146.242 186.281 143.152 191.112 142.194C191.032 144.629 191.028 143.913 191.018 146.903C190.381 146.954 189.74 146.924 189.111 146.814V146.813ZM196.116 154.046C195.016 154.619 193.787 154.904 192.547 154.874C192.649 153.002 192.771 151.4 192.825 148.625C193.899 148.456 194.999 148.596 195.997 149.029C196.408 149.301 196.747 149.669 196.985 150.1C197.224 150.532 197.355 151.014 197.366 151.507C197.378 152 197.271 152.488 197.053 152.931C196.835 153.373 196.514 153.756 196.116 154.048V154.046Z" fill="#FF9500"/>
<path d="M202.137 130.327C213.129 140.353 211.564 156.239 202.065 167.387C202.011 167.45 201.969 167.523 201.943 167.602C201.917 167.681 201.907 167.764 201.913 167.847C201.919 167.93 201.941 168.011 201.978 168.085C202.016 168.159 202.067 168.225 202.13 168.28C202.193 168.334 202.266 168.376 202.345 168.402C202.424 168.428 202.507 168.438 202.59 168.432C202.673 168.426 202.754 168.404 202.828 168.367C202.902 168.329 202.968 168.278 203.023 168.215C213.785 156.031 215.342 140.19 202.907 129.459C202.792 129.357 202.641 129.304 202.487 129.314C202.334 129.323 202.19 129.393 202.088 129.508C201.986 129.623 201.934 129.774 201.943 129.927C201.952 130.081 202.022 130.225 202.137 130.327Z" fill="#212941"/>
<path d="M198.828 191.34C207.77 189.942 216.5 187.422 224.812 183.84C224.962 183.767 225.135 183.757 225.294 183.811C225.452 183.866 225.582 183.981 225.655 184.131C225.728 184.282 225.738 184.455 225.684 184.613C225.629 184.771 225.514 184.901 225.364 184.974C213.673 190.792 199.309 193.605 198.266 193.079C192.878 190.339 188.771 188.103 184.599 184.322C184.49 184.218 184.426 184.076 184.42 183.926C184.414 183.776 184.467 183.63 184.566 183.518C184.666 183.405 184.806 183.336 184.955 183.325C185.105 183.313 185.253 183.36 185.369 183.456C188.851 186.48 194.67 189.393 198.828 191.34Z" fill="#212941"/>
<path d="M199.7 187.134C201.863 186.776 219.017 182.387 224.79 180.234C224.868 180.204 224.95 180.19 225.034 180.192C225.117 180.195 225.198 180.213 225.274 180.247C225.35 180.281 225.419 180.33 225.476 180.39C225.533 180.45 225.578 180.521 225.607 180.599C225.637 180.676 225.651 180.759 225.649 180.842C225.647 180.925 225.628 181.007 225.594 181.083C225.56 181.159 225.512 181.227 225.451 181.284C225.391 181.342 225.32 181.386 225.242 181.416C217.265 184.406 209.099 186.869 200.798 188.787C200.292 188.96 199.749 189.004 199.221 188.913C193.498 186.513 189.542 183.507 184.776 180.206C184.653 180.119 184.569 179.986 184.542 179.837C184.516 179.689 184.548 179.535 184.633 179.41C184.717 179.285 184.848 179.197 184.996 179.167C185.144 179.136 185.298 179.165 185.425 179.246C189.936 182.3 194.714 184.939 199.7 187.134Z" fill="#212941"/>
<path d="M185.805 175.033C185.61 175.02 185.416 175.072 185.253 175.18C185.09 175.287 184.967 175.445 184.901 175.629C184.836 175.813 184.832 176.013 184.891 176.199C184.95 176.385 185.067 176.547 185.226 176.661C189.815 179.937 194.334 183.618 199.888 184.977C200.996 185.187 222.012 179.685 225.159 178.803C225.32 178.761 225.463 178.667 225.565 178.535C225.667 178.404 225.723 178.243 225.725 178.076C225.726 177.91 225.672 177.748 225.572 177.615C225.471 177.482 225.33 177.387 225.169 177.342C221.948 176.431 216.157 173.28 213.281 171.57C212.989 171.681 191.919 175.478 185.805 175.033ZM212.784 172.753C204.794 174.6 196.699 175.96 188.544 176.825C192.1 179.384 195.92 182.067 200.147 183.162C200.418 183.109 220.872 178.337 222.449 177.937C219.121 176.415 215.893 174.683 212.784 172.753Z" fill="#212941"/>
<path d="M206.649 176.163C206.445 176.123 203.877 176.132 203.813 177.756C203.78 178.938 205.36 179.544 206.649 179.549C210.504 179.564 210.363 175.941 206.649 176.163Z" fill="#3A5AB7"/>
<path d="M31.151 201.586C48.752 197.579 45.0551 198.549 70.6835 192.23C70.7644 192.211 70.8408 192.176 70.9081 192.127C70.9755 192.079 71.0326 192.017 71.0762 191.946C71.1198 191.875 71.149 191.797 71.1622 191.715C71.1753 191.632 71.1722 191.548 71.1529 191.468C71.1336 191.387 71.0986 191.31 71.0498 191.243C71.001 191.176 70.9395 191.118 70.8686 191.075C70.7978 191.031 70.719 191.002 70.6369 190.989C70.5548 190.976 70.4709 190.979 70.39 190.998C44.6242 196.964 48.3979 196.129 30.8827 200.461C30.7335 200.496 30.6045 200.59 30.5242 200.72C30.4438 200.851 30.4187 201.008 30.4543 201.158C30.4899 201.307 30.5833 201.436 30.7139 201.516C30.8446 201.596 31.0018 201.622 31.151 201.586Z" fill="#3A5AB7"/>
<path d="M118.256 159.574C120.093 159.869 121.965 159.887 123.807 159.627C123.974 159.64 124.14 159.585 124.267 159.476C124.394 159.367 124.472 159.211 124.485 159.044C124.497 158.877 124.443 158.712 124.333 158.585C124.224 158.458 124.069 158.38 123.902 158.367C122.774 158.093 121.615 157.966 120.454 157.989C119.676 158.045 118.907 158.19 118.163 158.423C118.009 158.435 117.867 158.508 117.767 158.625C117.667 158.742 117.618 158.894 117.631 159.047C117.643 159.201 117.716 159.343 117.833 159.443C117.95 159.542 118.102 159.592 118.256 159.579V159.574Z" fill="#212941"/>
<path d="M142.297 152.617C147.288 150.722 152.12 148.432 156.746 145.768C156.898 145.696 157.015 145.566 157.071 145.407C157.128 145.249 157.119 145.074 157.046 144.923C156.974 144.771 156.844 144.654 156.686 144.598C156.527 144.541 156.353 144.55 156.201 144.623C151.22 146.548 146.403 148.872 141.796 151.573C141.664 151.643 141.565 151.762 141.518 151.904C141.472 152.045 141.482 152.2 141.546 152.335C141.611 152.47 141.725 152.574 141.865 152.627C142.004 152.679 142.159 152.676 142.297 152.617Z" fill="#212941"/>
<path d="M169.034 144.522C173.886 145.43 174.793 145.404 176.332 145.792C176.489 145.849 176.663 145.841 176.815 145.77C176.967 145.699 177.084 145.57 177.141 145.413C177.198 145.255 177.19 145.081 177.119 144.93C177.048 144.778 176.919 144.661 176.761 144.604C174.401 143.295 171.656 142.856 169.005 143.364C168.927 143.363 168.849 143.378 168.777 143.407C168.705 143.437 168.639 143.48 168.585 143.536C168.53 143.591 168.487 143.657 168.458 143.73C168.429 143.802 168.415 143.88 168.417 143.958C168.419 144.036 168.437 144.113 168.469 144.184C168.502 144.255 168.548 144.319 168.605 144.371C168.663 144.424 168.731 144.464 168.804 144.49C168.878 144.516 168.956 144.527 169.034 144.522Z" fill="#212941"/>
<path d="M40.1565 177.931C47.5036 179.006 46.924 179.962 69.3469 182.991C72.1542 183.369 72.667 183.704 74.3038 183.185C75.8082 182.708 77.2623 181.628 78.7566 181.094C78.9152 181.038 79.0452 180.922 79.1181 180.771C79.191 180.619 79.2008 180.445 79.1453 180.287C79.0899 180.128 78.9737 179.998 78.8223 179.925C78.671 179.852 78.4969 179.842 78.3383 179.898C76.8628 180.402 75.3849 181.372 73.8892 181.78C72.4428 182.173 72.5574 181.789 68.2923 181.165C47.2302 178.07 53.2177 178.356 40.3102 176.783C40.1615 176.77 40.0133 176.814 39.8966 176.908C39.7799 177.001 39.7037 177.135 39.6838 177.283C39.664 177.431 39.7021 177.581 39.7902 177.702C39.8782 177.823 40.0095 177.905 40.1565 177.931Z" fill="#212941"/>
<path d="M98.0937 184.034C101.826 184.342 101.222 184.401 104.772 184.596C109.57 184.866 113.369 185.521 115.193 189.994C115.253 190.151 115.374 190.277 115.527 190.345C115.681 190.413 115.855 190.418 116.012 190.357C116.168 190.297 116.295 190.177 116.363 190.024C116.431 189.87 116.435 189.696 116.375 189.539C113.544 181.708 106.311 182.87 98.1643 182.87C98.0122 182.865 97.8641 182.919 97.7516 183.021C97.639 183.124 97.5708 183.266 97.5616 183.418C97.5524 183.569 97.6029 183.719 97.7023 183.834C97.8017 183.949 97.9421 184.021 98.0937 184.034Z" fill="#212941"/>
<path d="M94.3928 197.481C94.9222 197.68 95.4829 197.782 96.0484 197.782C97.2492 197.811 98.1803 197.807 98.2496 197.132C98.3126 196.519 97.738 196.376 96.2701 196.028C95.7564 195.895 95.2272 195.83 94.6964 195.837C93.6241 195.847 93.1403 195.818 93.0206 196.327C92.8946 196.859 93.4515 197.111 94.3928 197.481Z" fill="#212941"/>
<path d="M103.867 198.086C104.284 198.215 104.721 198.269 105.157 198.243C106.543 198.212 106.999 198.082 107.062 197.584C107.149 196.909 106.238 196.692 105.336 196.487C104.893 196.371 104.431 196.347 103.979 196.417C103.144 196.56 102.57 196.669 102.548 197.182C102.525 197.676 102.977 197.82 103.867 198.086Z" fill="#212941"/>
<path d="M110.979 205.228C107.882 205.07 107.966 204.807 88.9064 203.61C89.6524 199.859 87.0618 196.428 83.7984 196.443C82.3501 196.52 80.9907 197.165 80.0154 198.239C79.0402 199.312 78.5278 200.727 78.5896 202.176C78.5331 202.914 78.6234 203.655 78.8552 204.358C79.087 205.061 79.4557 205.71 79.94 206.27C80.4243 206.829 81.0146 207.287 81.6768 207.617C82.3391 207.947 83.0602 208.143 83.7984 208.192C86.0135 208.192 84.223 208.269 88.1366 207.643C89.7292 207.391 90.5407 207.643 91.8574 205.249C98.1767 206.138 104.554 206.556 110.935 206.498C111.103 206.504 111.267 206.442 111.391 206.327C111.514 206.212 111.586 206.053 111.592 205.885C111.598 205.716 111.537 205.552 111.422 205.429C111.307 205.306 111.148 205.233 110.979 205.228ZM81.2708 205.102C80.6141 204.257 80.2477 203.222 80.2262 202.152C80.2046 201.082 80.529 200.034 81.1511 199.163C81.4356 198.718 81.8274 198.352 82.2906 198.098C82.7538 197.844 83.2734 197.71 83.8017 197.709C84.33 197.709 84.8499 197.841 85.3137 198.094C85.7775 198.347 86.1702 198.712 86.4557 199.157C87.0653 200.033 87.3797 201.08 87.3534 202.146C87.3272 203.213 86.9615 204.243 86.3096 205.088C86.0207 205.485 85.6421 205.809 85.2046 206.032C84.7671 206.255 84.283 206.372 83.7918 206.373C83.3006 206.374 82.8162 206.259 82.3779 206.037C81.9396 205.815 81.5598 205.493 81.2696 205.097L81.2708 205.102Z" fill="#212941"/>
<path d="M82.1406 201.965C82.1406 202.254 82.1812 202.539 82.26 202.805C82.3389 203.072 82.4544 203.314 82.6001 203.517C82.7457 203.721 82.9187 203.883 83.109 203.993C83.2993 204.104 83.5033 204.16 83.7093 204.16C83.9153 204.16 84.1193 204.104 84.3096 203.993C84.5 203.883 84.6729 203.721 84.8186 203.517C84.9642 203.314 85.0798 203.072 85.1586 202.805C85.2374 202.539 85.278 202.254 85.278 201.965C85.278 201.677 85.2374 201.392 85.1586 201.125C85.0798 200.859 84.9642 200.617 84.8186 200.413C84.6729 200.21 84.5 200.048 84.3096 199.938C84.1193 199.827 83.9153 199.771 83.7093 199.771C83.5033 199.771 83.2993 199.827 83.109 199.938C82.9187 200.048 82.7457 200.21 82.6001 200.413C82.4544 200.617 82.3389 200.859 82.26 201.125C82.1812 201.392 82.1406 201.677 82.1406 201.965Z" fill="#3A5AB7"/>
<path d="M115.386 203.001C115.386 203.583 115.551 204.141 115.845 204.553C116.139 204.965 116.538 205.196 116.954 205.196C117.37 205.196 117.769 204.965 118.064 204.553C118.358 204.141 118.523 203.583 118.523 203.001C118.523 202.419 118.358 201.861 118.064 201.449C117.769 201.037 117.37 200.806 116.954 200.806C116.538 200.806 116.139 201.037 115.845 201.449C115.551 201.861 115.386 202.419 115.386 203.001Z" fill="#3A5AB7"/>
<path d="M51.7549 109.266C51.8002 111.31 52.0069 126.024 51.9993 128.986C54.8898 129.184 57.6832 129.506 60.5446 129.878C60.7563 129.906 60.6517 132.066 60.8962 110.041C57.9125 109.86 54.7134 109.601 51.7549 109.266Z" fill="#3A5AB7"/>
<path d="M51.9986 130.675C51.9835 135.974 51.9482 143.36 51.918 150.361C54.8714 150.585 57.6081 150.91 60.5464 151.304C60.5464 150.686 60.5893 139.712 60.6724 131.679C55.5795 131.209 51.7642 130.675 51.9986 130.675Z" fill="#3A5AB7"/>
<path d="M60.752 171.423C60.7268 169.668 60.626 162.216 60.558 153.06C57.534 152.795 54.8073 152.519 51.9106 152.097C51.8728 160.524 51.8363 168.071 51.8262 170.264C54.6965 170.557 58.2383 171.032 60.752 171.423Z" fill="#3A5AB7"/>
<path d="M45.0234 108.33L45.666 169.721C46.3515 169.771 48.186 169.911 50.5322 170.135C50.4956 167.831 50.386 160.601 50.3091 151.855C47.9227 151.485 46.2696 151.187 46.2696 151.187C46.1157 151.171 45.9747 151.093 45.8777 150.973C45.7807 150.852 45.7356 150.698 45.7523 150.544C45.7691 150.39 45.8462 150.249 45.9668 150.152C46.0875 150.055 46.2417 150.01 46.3956 150.027C46.3956 150.027 47.9857 150.092 50.2928 150.246C50.2928 149.632 50.3129 138.547 50.3759 130.424C48.3599 130.105 47.0205 129.863 47.0205 129.863C46.8666 129.846 46.7257 129.769 46.6287 129.649C46.5317 129.528 46.4866 129.374 46.5033 129.22C46.52 129.066 46.5972 128.925 46.7178 128.828C46.8384 128.731 46.9926 128.686 47.1465 128.703C47.1465 128.703 48.4393 128.755 50.386 128.878C50.4528 120.31 50.5296 111.685 50.5523 109.126C50.255 109.091 45.2704 108.517 45.0234 108.33Z" fill="#3A5AB7"/>
<path d="M116.214 166.841C119.99 165.198 123.582 163.162 126.931 160.766C127.008 160.725 127.076 160.67 127.131 160.603C127.185 160.536 127.226 160.459 127.25 160.376C127.274 160.292 127.282 160.205 127.271 160.119C127.261 160.033 127.234 159.95 127.191 159.875C127.147 159.8 127.09 159.735 127.021 159.682C126.952 159.63 126.873 159.592 126.789 159.571C126.705 159.55 126.618 159.546 126.532 159.56C126.447 159.573 126.365 159.603 126.291 159.649C122.528 161.324 118.954 163.394 115.628 165.823C115.496 165.903 115.401 166.031 115.363 166.18C115.324 166.329 115.345 166.487 115.422 166.621C115.498 166.754 115.624 166.853 115.772 166.895C115.92 166.937 116.078 166.92 116.214 166.846V166.841Z" fill="#212941"/>
<path d="M87.2073 127.081C87.0183 120.513 87.0044 115.386 87.2514 108.345C84.8372 108.943 82.1623 109.558 79.6914 109.939C80.3101 118.271 80.4298 124.199 80.5091 128.405C82.6121 127.911 85.0678 127.449 87.2073 127.081Z" fill="#212941"/>
<path d="M210.532 162.19C210.389 162.176 210.245 162.216 210.13 162.302C210.014 162.388 209.935 162.514 209.907 162.655C209.879 162.797 209.904 162.943 209.979 163.067C210.053 163.19 210.17 163.282 210.308 163.324C218.269 165.035 246.561 172.731 243.891 180.498C243.891 180.498 241.225 187.932 225.381 194.568C217.355 197.932 206.008 201.074 190.019 202.948L189.233 203.871L189.51 210.366C146.898 215.658 67.7175 219.527 28.5529 201.434L27.5827 202.03L27.4189 207.196C11.7949 203.388 7.78559 194.106 7.56761 193.855C7.48366 190.235 8.51039 186.676 10.5097 183.657C16.6409 174.016 30.6697 169.356 41.948 167.327V173.595C41.948 174.034 42.515 174.407 42.9484 174.477L71.0464 179.061C71.4685 179.248 71.0338 179.268 79.4481 176.801C79.6255 176.749 79.7813 176.641 79.892 176.493C80.0027 176.345 80.0622 176.165 80.0617 175.981L79.6963 143.192C95.1452 138.961 94.2707 139.127 94.2707 139.253C94.3967 139.211 94.5061 139.13 94.5833 139.021C94.6605 138.913 94.7014 138.783 94.7004 138.651H94.7521C95.5421 99.6158 95.6341 101.787 95.222 101.434C94.81 101.081 96.2981 101.011 71.408 104.918C69.4034 105.233 77.4422 105.674 42.68 103.119C42.5772 103.11 42.4742 103.131 42.3825 103.178C42.2908 103.225 42.214 103.297 42.1609 103.386C41.8346 103.921 41.9505 99.8287 41.9505 166.024C29.7172 167.943 15.3985 172.139 9.08717 182.782C6.81051 186.367 5.89327 190.649 6.50165 194.852C6.53945 195.042 6.62765 197.06 6.91493 202.617C7.0579 205.418 7.93442 208.133 9.45672 210.489C10.979 212.845 13.0936 214.76 15.5888 216.041C46.7486 232.004 100.228 235.33 135.19 235.377C163.414 235.414 219.457 233.018 239.114 212.697C241.696 210.027 243.291 206.557 243.636 202.859L245.676 180.874C246.649 170.366 220.843 164.052 210.532 162.19ZM74.6601 130.001C75.5421 129.727 77.2267 129.245 78.7312 128.848C78.527 124.186 78.3368 117.94 78.4577 110.132C76.9659 110.355 75.973 110.477 75.973 110.477C75.82 110.51 75.6599 110.482 75.5281 110.397C75.3962 110.312 75.3034 110.179 75.2699 110.026C75.2365 109.873 75.2653 109.713 75.3499 109.581C75.4345 109.449 75.568 109.356 75.721 109.323C80.9442 107.758 86.2801 106.597 91.6814 105.85C91.8485 105.815 92.023 105.847 92.1664 105.939C92.3098 106.032 92.4105 106.178 92.4463 106.345C92.482 106.513 92.4499 106.687 92.3571 106.83C92.2642 106.974 92.1182 107.075 91.9511 107.11C91.9511 107.11 90.4907 107.521 88.4458 108.045C88.8603 114.723 88.9964 120.228 88.9762 126.788C89.9842 126.624 90.6142 126.536 90.6142 126.536C90.7813 126.5 90.9557 126.532 91.0992 126.625C91.2426 126.718 91.3433 126.864 91.379 127.031C91.4148 127.198 91.3827 127.372 91.2898 127.516C91.197 127.659 91.0509 127.76 90.8839 127.796C90.8839 127.796 90.1392 128.005 88.9687 128.315C88.9397 133.032 88.8527 136.7 88.8527 136.7C88.8537 136.785 88.8381 136.869 88.8066 136.947C88.7752 137.026 88.7286 137.097 88.6695 137.158C88.6104 137.218 88.54 137.266 88.4622 137.3C88.3845 137.333 88.301 137.351 88.2164 137.352C88.1319 137.353 88.048 137.337 87.9695 137.305C87.891 137.274 87.8194 137.227 87.7589 137.168C87.6985 137.109 87.6502 137.039 87.6169 136.961C87.5836 136.883 87.566 136.8 87.565 136.715C87.565 136.715 87.3974 133.269 87.2525 128.762C85.1105 129.309 82.6926 129.887 80.5292 130.294C80.5846 135.251 80.5607 139.131 80.5607 139.131C80.5601 139.298 80.4945 139.458 80.3779 139.578C80.2613 139.697 80.1027 139.767 79.9357 139.772C79.7687 139.777 79.6064 139.717 79.4829 139.604C79.3595 139.491 79.2846 139.335 79.2742 139.168C79.2742 139.168 79.0348 135.428 78.8055 130.6C78.3771 130.68 76.1091 131.02 74.8995 131.167C74.8237 131.184 74.7454 131.185 74.6691 131.172C74.5927 131.158 74.5198 131.129 74.4545 131.088C74.3892 131.046 74.3329 130.991 74.2886 130.928C74.2443 130.864 74.213 130.792 74.1964 130.716C74.1799 130.641 74.1784 130.562 74.1921 130.486C74.2058 130.41 74.2345 130.337 74.2763 130.271C74.3182 130.206 74.3726 130.15 74.4362 130.105C74.4999 130.061 74.5717 130.03 74.6475 130.013L74.6601 130.001ZM70.6029 106.674C70.6029 106.674 70.5235 175.848 70.5197 177.126L43.9867 172.826C43.9539 170.391 42.9572 108.868 42.8791 104.418L70.6029 106.674ZM241.794 202.699C241.489 205.979 240.075 209.058 237.783 211.426C232.963 216.408 222.343 223.396 199.294 228.218C183.995 231.416 163.265 233.636 135.187 233.672C100.553 233.718 47.1127 230.639 16.1608 214.928C13.8536 213.753 11.8955 211.992 10.4827 209.823C9.06993 207.653 8.25194 205.15 8.11067 202.564L7.78559 196.662C9.36024 198.888 11.3044 200.829 13.5337 202.399C17.8904 205.396 22.7775 207.536 27.9343 208.707C28.0301 208.725 28.1289 208.723 28.2238 208.7C28.3186 208.676 28.4073 208.633 28.4836 208.572C28.8175 208.307 28.7243 208.491 28.9108 203.105C45.6788 210.647 68.7268 214.233 92.1892 215.619C140.513 218.472 190.544 212.027 190.544 212.027C190.764 211.999 190.965 211.89 191.108 211.72C191.251 211.551 191.325 211.333 191.315 211.112L191.045 204.625C207.457 202.651 233.09 197.403 243.486 184.55L241.794 202.699Z" fill="#212941"/>
<path d="M86.932 100.255C83.662 99.7904 80.3505 99.6915 77.0586 99.9598C76.915 97.9274 77.012 95.0596 75.8692 94.8883C71.245 94.1978 68.1467 93.6371 65.5208 93.2843C65.5926 84.3383 65.4074 75.4465 64.7925 67.4896C64.7889 67.3332 64.7232 67.1846 64.61 67.0766C64.4968 66.9687 64.3454 66.9101 64.189 66.9137C64.0326 66.9174 63.8841 66.9831 63.7761 67.0963C63.6681 67.2094 63.6095 67.3609 63.6132 67.5173C63.37 75.7514 63.6611 85.1951 64.1172 93.3473C61.8378 93.8362 59.0999 94.4876 54.865 95.6871C54.4782 95.7677 54.2186 96.4784 54.2174 96.6258H54.2715L54.1229 100.532C51.9431 100.52 49.7758 100.861 47.7044 101.54C47.5492 101.56 47.4084 101.641 47.3129 101.765C47.2174 101.889 47.1752 102.046 47.1954 102.201C47.2156 102.357 47.2966 102.497 47.4207 102.593C47.5448 102.688 47.7016 102.731 47.8569 102.71C50.2462 102.833 52.6391 102.55 54.9343 101.875C57.1204 102.158 66.6321 103.253 67.0517 103.184C67.7157 103.076 76.3581 101.619 76.7928 101.294C80.1412 101.763 83.5325 101.843 86.8992 101.532C87.0703 101.537 87.2361 101.473 87.3602 101.355C87.4843 101.237 87.5564 101.075 87.5607 100.903C87.5651 100.732 87.5013 100.567 87.3834 100.443C87.2655 100.318 87.1031 100.246 86.932 100.242V100.255ZM71.8599 95.803C64.9715 96.5023 68.1681 96.4141 59.4262 96.1382C63.0802 95.5082 62.958 94.9689 71.8599 95.803ZM55.5567 100.428L55.4622 97.3175L65.8862 98.0849L65.9492 101.235C64.7799 101.129 56.6038 100.493 55.5567 100.428ZM75.5907 100.011C72.723 100.389 70.581 100.708 67.7939 101.183L67.6868 97.945L75.5907 96.7405V100.011Z" fill="#212941"/>
<path d="M110.917 148.71C109.321 149.37 107.69 149.943 106.033 150.429C106.179 155.656 106.131 159.022 106.047 162.18C107.645 161.424 109.52 160.668 111.171 160.038C110.886 156.269 110.801 152.488 110.917 148.71Z" fill="#212941"/>
<path d="M188.544 176.824C192.1 179.384 195.92 182.067 200.147 183.162C200.418 183.109 220.872 178.336 222.449 177.937C219.123 176.414 215.897 174.683 212.789 172.753C204.797 174.6 196.701 175.96 188.544 176.824ZM217.902 176.749C217.448 177.172 217.586 177.772 217.584 178.324C217.458 178.355 202.924 181.817 202.798 181.767C201.526 181.256 199.714 180.548 198.619 181.723C196.236 180.646 193.941 179.382 191.757 177.943C191.954 177.875 192.129 177.754 192.262 177.594C192.395 177.434 192.482 177.24 192.513 177.034C195.02 176.844 197.512 176.487 199.972 175.968C203.952 175.224 203.203 175.543 211.312 173.737C211.646 174.004 212.043 174.18 212.464 174.251C212.886 174.322 213.318 174.284 213.721 174.142C215.05 175.111 216.446 175.982 217.901 176.749H217.902Z" fill="#3A5AB7"/>
<path d="M202.065 167.387C211.564 156.239 213.129 140.353 202.137 130.327C201.56 129.8 203.253 129.931 195.823 129.534C206.584 133.862 209.262 154.151 200.044 164.644C198.822 166.069 197.334 167.242 195.663 168.099C203.381 167.824 201.531 168.013 202.065 167.387Z" fill="#FF9500"/>
<path d="M139.553 191.795L139.529 191.77C139.104 191.969 139.419 191.836 139.553 191.795Z" fill="#3A5AB7"/>
<path d="M139.482 198.617C140.06 198.338 140.618 198.021 141.154 197.669C141.19 196.068 140.914 194.476 140.342 192.981C138.904 193.322 139.421 195.75 139.482 198.617Z" fill="#3A5AB7"/>
<path d="M128.101 197.418C126.474 197.418 126.494 200.373 126.481 202.017C127.699 202.022 128.916 201.919 130.115 201.708C129.957 199.624 129.547 197.409 128.101 197.418Z" fill="#3A5AB7"/>
<path d="M119.153 185.694C118.933 185.912 118.759 186.173 118.644 186.462C118.529 186.75 118.475 187.059 118.486 187.369C118.486 187.495 119.948 192.17 120.034 192.296C120.211 192.56 120.444 192.782 120.715 192.948C120.987 193.113 121.291 193.218 121.607 193.255C122.301 193.333 122.026 193.402 131.07 190.025C130.962 189.947 130.874 189.844 130.812 189.725C130.751 189.606 130.717 189.475 130.715 189.341C130.695 188.181 130.381 187.046 129.803 186.04C129.226 185.034 128.402 184.191 127.41 183.589C125.615 183.98 122.84 184.446 120.029 185.163C119.699 185.268 119.399 185.45 119.153 185.694Z" fill="#3A5AB7"/>
<path d="M74.2685 195.123C73.8965 196.15 73.6219 197.209 73.4482 198.288C74.0858 198.4 74.746 198.414 75.3912 198.468C75.4334 197.53 75.2785 196.593 74.9363 195.719C74.7775 195.458 74.5451 195.251 74.2685 195.123Z" fill="#3A5AB7"/>
<path d="M115.943 140.065C114.098 139.745 112.261 139.413 110.405 139.183C100.477 137.96 99.6318 138.442 97.5314 137.923C97.4575 137.897 97.3791 137.886 97.3009 137.891C97.2226 137.896 97.1462 137.917 97.0762 137.952C97.0062 137.987 96.944 138.036 96.8933 138.096C96.8426 138.156 96.8046 138.225 96.7814 138.3C96.7582 138.375 96.7504 138.454 96.7584 138.532C96.7664 138.61 96.7901 138.685 96.828 138.754C96.8659 138.822 96.9173 138.883 96.9791 138.931C97.0408 138.979 97.1117 139.014 97.1874 139.035C100.967 140.477 111.538 140.916 114.171 141.149C110.089 142.679 105.744 143.901 101.387 145.283C100.902 145.149 96.7691 145.041 87.0961 143.586C85.4253 143.334 83.6361 143.389 81.9931 143.005C81.8462 142.972 81.6921 142.996 81.5632 143.074C81.4343 143.152 81.3408 143.278 81.3024 143.423C81.264 143.569 81.2837 143.724 81.3573 143.855C81.4309 143.987 81.5527 144.084 81.697 144.128C83.398 144.618 85.1393 144.632 86.863 144.962C91.651 145.888 95.373 146.509 100.181 146.992C100.123 148.036 99.8271 175.037 99.87 177.448C99.87 177.581 99.9116 177.709 99.9889 177.817C100.066 177.924 100.175 178.004 100.301 178.046C100.426 178.088 100.562 178.089 100.688 178.05C100.814 178.01 100.925 177.932 101.004 177.826C104.781 176.46 108.866 176.181 112.794 177.02C112.902 177.042 113.014 177.041 113.121 177.014C113.228 176.988 113.328 176.938 113.414 176.869C113.499 176.799 113.568 176.711 113.615 176.611C113.662 176.511 113.686 176.402 113.686 176.292C113.822 173.229 113.789 170.161 113.589 167.102C116.45 164.634 116.531 164.691 116.55 164.194C116.775 159.188 116.365 154.744 116.517 149.567C116.762 141.183 117.18 140.28 115.943 140.065ZM115.088 159.951C115.088 159.951 114.134 160.455 112.745 161.131C112.719 162.537 112.689 163.447 112.689 163.447C112.693 163.615 112.631 163.778 112.515 163.9C112.398 164.022 112.239 164.093 112.071 164.097C111.987 164.099 111.904 164.085 111.827 164.055C111.749 164.025 111.678 163.98 111.617 163.923C111.495 163.807 111.425 163.647 111.42 163.479C111.42 163.479 111.367 162.849 111.294 161.832C109.48 162.691 107.857 163.417 105.99 164.11C105.835 168.829 105.612 172.718 105.612 172.718C105.611 172.802 105.593 172.884 105.56 172.96C105.527 173.037 105.479 173.106 105.419 173.164C105.359 173.222 105.289 173.268 105.211 173.299C105.134 173.329 105.051 173.344 104.968 173.343C104.885 173.342 104.802 173.324 104.726 173.291C104.649 173.258 104.58 173.211 104.522 173.151C104.464 173.091 104.418 173.02 104.388 172.943C104.357 172.865 104.342 172.783 104.343 172.699C104.343 172.699 104.251 169.16 104.23 164.732C103.229 165.075 102.58 165.275 102.58 165.275C102.44 165.329 102.284 165.326 102.146 165.268C102.007 165.21 101.897 165.1 101.838 164.962C101.778 164.824 101.774 164.668 101.827 164.528C101.88 164.387 101.985 164.272 102.12 164.207C102.12 164.207 102.962 163.733 104.226 163.082C104.226 159.042 104.295 155.672 104.568 150.835C103.723 151.059 103.182 151.184 103.182 151.184C103.038 151.236 102.878 151.229 102.739 151.163C102.6 151.098 102.492 150.98 102.44 150.835C102.387 150.691 102.395 150.531 102.46 150.392C102.525 150.252 102.643 150.145 102.788 150.092C102.788 150.092 103.533 149.714 104.663 149.21C104.725 148.21 104.769 147.619 104.769 147.619C104.77 147.543 104.786 147.467 104.816 147.397C104.846 147.327 104.89 147.264 104.945 147.211C104.999 147.158 105.064 147.116 105.135 147.087C105.206 147.059 105.282 147.045 105.358 147.046C105.434 147.047 105.509 147.064 105.58 147.094C105.65 147.124 105.713 147.168 105.766 147.222C105.819 147.277 105.861 147.342 105.889 147.413C105.918 147.483 105.932 147.559 105.931 147.635C105.931 147.635 105.946 147.998 105.968 148.643C107.594 147.957 109.207 147.409 110.979 146.852C111.003 146.321 111.021 146.015 111.021 146.015C111.023 145.865 111.082 145.72 111.188 145.613C111.294 145.506 111.437 145.444 111.587 145.439C111.738 145.435 111.884 145.49 111.995 145.591C112.107 145.693 112.174 145.833 112.184 145.984C112.184 145.984 112.203 146.157 112.233 146.469C113.514 146.091 114.4 145.846 114.4 145.846C114.479 145.818 114.562 145.805 114.645 145.809C114.729 145.813 114.81 145.833 114.886 145.869C114.961 145.904 115.029 145.954 115.085 146.016C115.141 146.078 115.185 146.15 115.213 146.228C115.241 146.306 115.254 146.39 115.25 146.473C115.246 146.556 115.226 146.638 115.19 146.713C115.155 146.789 115.105 146.857 115.043 146.913C114.982 146.969 114.91 147.012 114.831 147.041C114.831 147.041 113.823 147.503 112.386 148.108C112.717 151.878 112.843 155.664 112.764 159.448C113.858 159.045 114.582 158.797 114.582 158.797C114.658 158.763 114.741 158.746 114.824 158.745C114.908 158.743 114.99 158.758 115.068 158.789C115.146 158.82 115.216 158.866 115.276 158.924C115.336 158.982 115.384 159.051 115.417 159.128C115.45 159.205 115.468 159.287 115.469 159.37C115.47 159.454 115.455 159.537 115.424 159.614C115.394 159.692 115.348 159.763 115.29 159.822C115.232 159.882 115.162 159.93 115.086 159.963L115.088 159.951Z" fill="#212941"/>
<path d="M85.9762 172.003C85.8893 169.694 85.6978 167.395 85.5239 165.092C84.5159 164.823 83.4903 164.526 82.4873 164.234V175.288C83.7788 173.739 83.9804 173.563 84.434 173.563C88.7243 173.584 91.2708 174.045 94.262 174.256C94.4164 174.265 94.5649 174.318 94.6894 174.41C94.814 174.501 94.9093 174.627 94.9637 174.772C95.0181 174.917 95.0294 175.074 94.9961 175.225C94.9628 175.376 94.8863 175.514 94.7761 175.623C94.5329 175.853 94.2469 176.108 93.9382 176.379L94.2418 180.091C95.9059 178.829 97.8241 177.943 99.864 177.495C99.8035 176.648 100.116 148.084 100.173 147.003C95.3645 146.521 91.6374 145.899 86.8545 144.973C85.4092 144.695 83.9502 144.642 82.5112 144.343V147.593C83.4436 147.646 84.3697 147.719 85.2958 147.821C85.3374 147.227 85.3803 146.635 85.4218 146.043C85.4289 145.889 85.4968 145.744 85.6107 145.64C85.7246 145.536 85.8751 145.482 86.0292 145.489C86.1832 145.496 86.3282 145.564 86.4321 145.677C86.5361 145.791 86.5906 145.942 86.5836 146.096C86.5747 146.441 86.5836 147.104 86.6037 147.986C88.5441 148.276 90.7453 148.776 92.6517 149.266C92.7034 148.572 92.7563 147.88 92.8017 147.182C92.8087 147.028 92.8766 146.883 92.9905 146.779C93.1044 146.675 93.2549 146.621 93.409 146.628C93.563 146.635 93.708 146.703 93.812 146.816C93.9159 146.93 93.9704 147.081 93.9634 147.235C93.952 147.677 93.9558 148.519 93.9634 149.61C95.086 149.905 96.2074 150.196 97.3465 150.415C97.4286 150.429 97.5073 150.459 97.578 150.503C97.6486 150.547 97.7099 150.604 97.7584 150.672C97.8068 150.74 97.8414 150.816 97.8603 150.897C97.8791 150.979 97.8818 151.063 97.8681 151.145C97.8545 151.227 97.8248 151.306 97.7807 151.376C97.7367 151.447 97.6791 151.508 97.6114 151.557C97.5436 151.605 97.467 151.64 97.3859 151.659C97.3048 151.677 97.2207 151.68 97.1386 151.666C96.084 151.548 95.0356 151.414 93.9886 151.244C94.0604 155.724 94.2204 162.41 94.2683 165.065C95.4124 165.317 96.5577 165.555 97.7182 165.741C97.8853 165.763 98.0364 165.852 98.1384 165.986C98.2403 166.12 98.2848 166.29 98.2619 166.457C98.239 166.624 98.1507 166.775 98.0163 166.877C97.882 166.979 97.7126 167.023 97.5456 167.001C96.4544 166.875 95.3645 166.796 94.2784 166.677C94.262 168.491 94.2015 170.303 94.1776 172.112C94.1776 172.281 94.1107 172.442 93.9918 172.561C93.8728 172.68 93.7114 172.747 93.5432 172.747C93.3749 172.747 93.2135 172.68 93.0946 172.561C92.9756 172.442 92.9088 172.281 92.9088 172.112C92.8785 170.232 92.7765 168.353 92.6744 166.471C90.4656 166.17 88.5744 165.819 87.1884 165.507C87.2249 167.665 87.2186 169.819 87.24 171.978C87.2434 172.145 87.18 172.307 87.0638 172.428C86.9477 172.549 86.7883 172.619 86.6207 172.622C86.4531 172.625 86.2911 172.562 86.1702 172.446C86.0494 172.33 85.9796 172.17 85.9762 172.003Z" fill="#3A5AB7"/>
<path d="M142.392 194.1C141.314 188.973 137.529 188.463 132.403 188.463C131.754 182.069 124.696 179.589 118.291 179.013C108.917 178.177 99.1933 178.561 90.8232 182.896C91.1232 181.596 91.0994 180.241 90.7539 178.951C91.8816 178.062 93.7212 176.617 94.777 175.619C94.8873 175.51 94.9637 175.372 94.997 175.221C95.0303 175.07 95.0191 174.913 94.9647 174.768C94.9102 174.623 94.8149 174.497 94.6904 174.406C94.5658 174.314 94.4173 174.261 94.263 174.252C91.2667 174.041 88.719 173.58 84.435 173.559C84.2038 173.559 83.9813 173.646 83.8113 173.803C82.8965 174.665 81.6693 176.415 80.7784 177.141C80.638 177.249 80.5346 177.398 80.4825 177.567C80.4304 177.736 80.4321 177.918 80.4874 178.086C80.5427 178.254 80.6489 178.401 80.7913 178.507C80.9337 178.612 81.1053 178.671 81.2824 178.674C81.1129 180.246 81.1838 181.835 81.4929 183.385C81.4929 183.554 81.5597 183.715 81.6787 183.834C81.7976 183.953 81.959 184.02 82.1273 184.02C82.2955 184.02 82.4569 183.953 82.5759 183.834C82.6948 183.715 82.7617 183.554 82.7617 183.385C83.1322 181.847 83.1214 180.241 82.7302 178.707C84.7373 178.796 87.149 179.099 89.3553 179.384C89.1003 180.777 89.1915 182.213 89.6211 183.563C87.0437 185.045 84.9054 187.184 83.4244 189.762C78.5041 189.762 74.3272 190.318 72.8052 195.025C72.3213 196.86 71.9501 198.722 71.6938 200.602C71.4877 201.205 71.5181 201.865 71.7788 202.447C72.0395 203.029 72.5112 203.49 73.0987 203.738C74.5712 204.201 76.1178 204.382 77.6574 204.271C77.8072 204.268 77.95 204.207 78.056 204.101C78.1619 203.995 78.2228 203.852 78.2259 203.702C78.229 203.553 78.174 203.407 78.0726 203.297C77.9711 203.187 77.8309 203.12 77.6814 203.111C77.3273 203.099 76.9506 203.097 76.5688 203.088C76.857 201.829 77.0611 200.552 77.1799 199.265C77.3059 197.055 77.0136 194.55 74.869 193.973C76.7502 191.214 80.5252 191.311 83.8906 191.371C84.0367 191.372 84.1804 191.334 84.3064 191.26C84.4324 191.186 84.536 191.08 84.6063 190.952C87.0003 186.658 90.7425 184.526 95.3566 182.888C102.745 180.267 110.351 180.143 118.131 180.821C124 181.332 130.605 183.467 130.713 189.326C130.717 189.553 130.81 189.769 130.971 189.929C131.133 190.088 131.35 190.178 131.577 190.179C134.109 190.179 137.83 189.927 139.551 191.779C138.988 192.002 138.502 192.382 138.148 192.873C137.795 193.365 137.591 193.947 137.559 194.551C137.476 195.711 137.53 196.877 137.719 198.024C136.437 198.343 135.189 198.786 133.992 199.347C132.913 199.917 132.146 200.306 132.389 200.888C132.632 201.47 133.405 201.229 134.935 200.828C135.97 200.523 136.973 200.116 137.927 199.61C138.009 200.199 138.105 200.82 138.256 201.67C136.094 202.687 133.84 203.494 131.524 204.08C131.507 201.938 131.916 199.6 130.924 197.478C130.695 196.912 130.302 196.428 129.794 196.09C129.286 195.751 128.688 195.573 128.078 195.579C127.467 195.585 126.873 195.775 126.372 196.124C125.871 196.473 125.487 196.965 125.27 197.535C124.872 198.617 124.737 199.778 124.875 200.922C124.934 202.171 125.094 203.414 125.352 204.638C124.722 204.645 123.117 204.66 122.062 204.618C122.249 203.686 122.226 202.726 121.995 201.804C121.764 200.883 121.331 200.025 120.728 199.292C120.273 198.727 119.698 198.272 119.044 197.959C118.39 197.646 117.674 197.483 116.949 197.482C116.225 197.482 115.509 197.643 114.854 197.955C114.2 198.267 113.624 198.722 113.168 199.285C110.084 202.948 112.317 209.213 116.956 209.228C117.082 209.228 119.843 209.083 122.626 208.795C123.896 208.657 124.561 207.209 124.978 205.952C127.36 206.018 129.743 205.832 132.086 205.398C134.791 204.718 137.415 203.752 139.915 202.515C141.114 201.872 142.759 200.841 142.74 199.491C142.795 197.687 142.678 195.882 142.392 194.1ZM74.9358 195.718C75.7069 196.852 75.3 202.76 75.3138 203.026C73.6884 202.869 72.6262 202.447 72.9664 200.865C73.2535 198.92 73.6891 196.999 74.2693 195.12C74.5457 195.249 74.7777 195.457 74.9358 195.718ZM83.2732 177.107C83.7923 176.52 84.3001 175.89 84.7852 175.394C86.8995 175.432 90.997 175.726 92.3641 175.786C92.3641 175.786 90.5863 177.471 89.8441 178.16C87.721 177.786 85.414 177.32 83.2732 177.107ZM120.504 203.22C120.448 205.398 118.955 207.407 116.951 207.414C114.884 207.414 113.423 205.355 113.38 203.22C113.266 202.154 113.577 201.087 114.245 200.249C114.914 199.411 115.886 198.87 116.951 198.745C118.796 198.755 120.569 200.56 120.504 203.22ZM126.588 204.619C126.42 202.822 126.444 201.012 126.663 199.221C126.819 198.339 127.201 197.418 128.1 197.418C130.226 197.404 130.116 202.2 130.254 204.315C129.039 204.489 127.815 204.592 126.588 204.624V204.619ZM139.527 201.011L139.458 197.616C139.338 195.639 138.99 193.302 140.34 192.982C141.222 194.883 141.139 197.554 141.192 199.534C141.2 199.969 139.92 200.781 139.527 201.011Z" fill="#212941"/>
<path d="M45.0139 107.405C45.8002 106.785 64.1168 108.683 69.0308 109.194C69.196 109.213 69.3475 109.295 69.453 109.423C69.5584 109.552 69.6096 109.716 69.5954 109.882C69.5813 110.048 69.503 110.201 69.3773 110.31C69.2516 110.419 69.0884 110.474 68.9224 110.464C68.9224 110.464 65.9362 110.346 62.0882 110.114C62.1222 111.714 62.3188 127.191 62.3049 130.115C65.5557 130.563 68.0291 130.963 68.0291 130.963C68.1926 130.988 68.3401 131.075 68.4409 131.206C68.5416 131.337 68.5877 131.502 68.5694 131.667C68.5512 131.831 68.47 131.982 68.343 132.088C68.216 132.194 68.0529 132.246 67.888 132.235C67.888 132.235 65.4788 132.085 62.2973 131.819C62.2709 137.121 62.2255 144.526 62.1802 151.526C65.116 151.938 67.2756 152.282 67.2756 152.282C67.4391 152.307 67.5867 152.394 67.6874 152.525C67.7881 152.656 67.8342 152.822 67.8159 152.986C67.7977 153.15 67.7165 153.301 67.5895 153.407C67.4625 153.513 67.2994 153.565 67.1345 153.554C67.1345 153.554 65.0366 153.428 62.1688 153.191C62.1096 162.252 62.0542 170.273 62.0428 171.616C65.8833 172.209 68.8582 172.733 68.8582 172.733C69.0147 172.767 69.1528 172.859 69.2451 172.99C69.3373 173.121 69.3768 173.281 69.3559 173.44C69.3349 173.599 69.255 173.744 69.1319 173.846C69.0089 173.949 68.8518 174.001 68.6918 173.993C57.6744 172.755 51.3316 172.006 45.6742 170.938L45.6968 173.093L70.5188 177.116C70.5188 175.842 70.602 106.664 70.602 106.664L44.9824 104.589L45.0139 107.405Z" fill="#3A5AB7"/>
<path d="M153.432 54.6689C152.563 53.8125 151.748 52.9027 150.992 51.9448C150.103 52.6757 149.171 53.3539 148.203 53.9759L148.602 55.3002C145.148 64.2266 142.706 73.5119 141.321 82.9824C141.269 83.4133 141.158 83.0605 145.128 89.6755C145.206 89.8044 145.314 89.9124 145.443 89.9901C145.572 90.0677 145.718 90.1127 145.868 90.121C146.018 90.1293 146.168 90.1008 146.305 90.0378C146.441 89.9749 146.56 89.8795 146.652 89.7599C152.402 82.2365 152.153 82.675 152.144 82.2264C152.009 76.0285 151.919 61.9631 152.756 55.8092L153.432 54.6689Z" fill="#3A5AB7"/>
<path d="M199.296 228.217C222.345 223.399 232.964 216.407 237.785 211.425C240.076 209.057 241.49 205.979 241.796 202.699L243.488 184.555C233.092 197.407 207.458 202.657 191.047 204.63L191.316 211.117C191.326 211.338 191.252 211.555 191.109 211.725C190.967 211.894 190.765 212.004 190.545 212.032C190.545 212.032 140.514 218.476 92.1907 215.624C68.7333 214.238 45.6803 210.652 28.9123 203.109C28.7258 208.496 28.819 208.312 28.4851 208.577C28.4088 208.638 28.3201 208.681 28.2253 208.704C28.1304 208.728 28.0316 208.73 27.9358 208.711C22.779 207.541 17.8919 205.401 13.5352 202.404C11.3059 200.834 9.36175 198.893 7.78711 196.667L8.11219 202.569C8.25346 205.154 9.07144 207.657 10.4842 209.827C11.897 211.997 13.8551 213.758 16.1623 214.933C47.1155 230.645 100.555 233.722 135.188 233.677C163.266 233.634 183.997 231.415 199.296 228.217Z" fill="#3A5AB7"/>
</svg>
