<svg width="252" height="252" viewBox="0 0 252 252" fill="none" xmlns="http://www.w3.org/2000/svg">
<path d="M103.223 145.685C103 144.247 103.097 142.661 103.005 141.163C102.934 139.958 102.753 135.705 102.725 134.781C102.786 134.663 102.816 134.532 102.812 134.4C102.808 134.267 102.77 134.138 102.701 134.025C102.489 127.56 102.152 126.18 102.283 123.24C102.346 123.191 102.398 123.128 102.433 123.057C102.469 122.985 102.488 122.906 102.489 122.826C102.489 122.746 102.472 122.666 102.437 122.594C102.403 122.521 102.353 122.458 102.29 122.407C102.258 122.312 102.201 122.227 102.124 122.161C102.047 122.096 101.954 122.053 101.854 122.036C101.755 122.02 101.653 122.031 101.559 122.069C101.465 122.106 101.384 122.168 101.323 122.249C99.623 122.239 97.9248 122.143 96.2348 121.96C96.1446 121.948 96.0527 121.956 95.9657 121.983C95.8786 122.009 95.7985 122.055 95.7307 122.116C95.6629 122.177 95.6091 122.251 95.573 122.335C95.5369 122.419 95.5194 122.509 95.5217 122.6C95.6162 127.01 97.9409 131.152 100.917 134.369C98.9522 135.725 97.5317 137.734 96.9077 140.039C96.1646 141.775 95.7514 143.635 95.6893 145.523C95.6936 145.683 95.7462 145.837 95.84 145.966C95.9338 146.095 96.0644 146.192 96.2147 146.245C98.3844 147.011 100.349 146.675 102.492 146.572C102.6 146.567 102.706 146.54 102.803 146.491C102.901 146.443 102.986 146.375 103.055 146.291C103.124 146.207 103.175 146.11 103.204 146.006C103.232 145.901 103.239 145.792 103.223 145.685Z" fill="#3A5AB7"/>
<path d="M92.1194 122.277C91.6872 121.845 91.2046 122.211 88.3948 122.268C86.4191 122.307 86.2629 121.943 85.8131 122.301C85.7308 122.366 85.6629 122.447 85.6139 122.54C85.5649 122.633 85.5357 122.735 85.5283 122.84C84.7572 133.615 85.2108 137.893 85.1591 142.874C85.1226 146.265 84.8945 146.195 85.2461 146.576C85.3169 146.654 85.4032 146.717 85.4995 146.76C85.5957 146.804 85.6999 146.827 85.8055 146.828L86.6989 146.709C88.1365 146.684 89.3713 146.486 90.6276 146.359C90.8147 146.341 90.9877 146.252 91.1103 146.109C91.2328 145.966 91.2956 145.782 91.2853 145.594C91.0333 141.546 89.9346 137.343 87.1411 134.38C87.4521 134.076 87.7406 133.75 88.0042 133.404C89.088 131.763 90.086 130.067 90.9942 128.322C91.8452 126.615 92.3008 124.738 92.3273 122.83C92.3343 122.728 92.3194 122.626 92.2836 122.531C92.2477 122.435 92.1917 122.349 92.1194 122.277Z" fill="#3A5AB7"/>
<path d="M188.065 127.688C187.853 128.612 187.958 129.581 188.362 130.439C188.73 131.176 189.317 131.781 190.043 132.17C192.263 133.3 194.669 134.017 197.146 134.286C201.263 134.688 205.42 134.327 209.407 133.221C209.546 133.181 209.664 133.088 209.736 132.963C209.809 132.837 209.83 132.688 209.795 132.548C209.759 132.407 209.671 132.286 209.548 132.209C209.425 132.132 209.277 132.106 209.136 132.136C205.237 132.909 201.246 133.1 197.292 132.702C195 132.426 192.763 131.811 190.653 130.877C190.171 130.653 189.768 130.289 189.495 129.833C189.139 129.212 189.012 128.486 189.136 127.781C189.148 127.639 189.103 127.498 189.012 127.389C188.92 127.28 188.789 127.212 188.647 127.199C188.505 127.187 188.364 127.231 188.255 127.323C188.145 127.415 188.077 127.546 188.065 127.688Z" fill="#FF9500"/>
<path d="M188.064 137.074C187.833 137.998 187.932 138.974 188.344 139.834C188.712 140.577 189.301 141.187 190.031 141.581C195.171 144.101 199.67 144.138 205.422 143.336C205.565 143.314 205.693 143.236 205.781 143.121C205.868 143.005 205.907 142.861 205.89 142.717C205.872 142.573 205.8 142.442 205.688 142.35C205.576 142.259 205.433 142.214 205.289 142.226C202.623 142.421 199.946 142.379 197.288 142.1C194.999 141.812 192.766 141.185 190.661 140.242C190.181 140.025 189.779 139.666 189.508 139.214C189.144 138.599 189.011 137.875 189.13 137.171C189.138 137.033 189.092 136.896 189.001 136.791C188.91 136.686 188.782 136.62 188.644 136.608C188.506 136.595 188.368 136.637 188.26 136.724C188.152 136.811 188.082 136.936 188.064 137.074Z" fill="#FF9500"/>
<path d="M188.064 141.772C187.84 142.697 187.941 143.671 188.348 144.531C188.716 145.273 189.305 145.882 190.034 146.274C194.086 148.263 198.446 149.19 206.218 147.929C206.359 147.902 206.485 147.821 206.569 147.704C206.652 147.587 206.688 147.442 206.667 147.299C206.646 147.156 206.571 147.027 206.458 146.938C206.344 146.85 206.201 146.808 206.058 146.822C203.14 147.102 200.202 147.091 197.287 146.791C194.997 146.506 192.763 145.883 190.657 144.941C190.178 144.719 189.776 144.36 189.502 143.909C189.139 143.294 189.005 142.57 189.124 141.866C189.122 141.733 189.071 141.607 188.981 141.51C188.89 141.413 188.768 141.353 188.636 141.342C188.504 141.33 188.373 141.368 188.267 141.447C188.162 141.527 188.089 141.643 188.064 141.772Z" fill="#FF9500"/>
<path d="M187.822 146.471C187.593 147.395 187.694 148.369 188.108 149.226C188.476 149.966 189.065 150.574 189.792 150.967C193.897 152.966 198.815 154.05 207.02 152.458C207.166 152.433 207.296 152.35 207.381 152.229C207.466 152.107 207.499 151.957 207.473 151.811C207.448 151.665 207.365 151.536 207.244 151.451C207.122 151.366 206.972 151.333 206.826 151.358C203.58 151.77 200.298 151.812 197.042 151.484C194.753 151.201 192.519 150.581 190.411 149.644C189.932 149.42 189.53 149.059 189.256 148.608C188.896 147.99 188.765 147.266 188.886 146.562C188.898 146.42 188.854 146.28 188.763 146.172C188.671 146.064 188.541 145.996 188.399 145.984C188.258 145.972 188.118 146.016 188.01 146.108C187.901 146.199 187.834 146.33 187.822 146.471Z" fill="#FF9500"/>
<path d="M187.67 166.041C187.402 166.969 187.476 167.962 187.879 168.84C188.328 169.617 188.986 170.253 189.778 170.676C190.569 171.099 191.464 171.292 192.359 171.234C193.769 171.275 195.005 171.003 196.19 170.959C196.334 170.958 196.473 170.9 196.576 170.799C196.679 170.698 196.739 170.56 196.743 170.416C196.747 170.271 196.695 170.13 196.598 170.023C196.501 169.916 196.366 169.851 196.221 169.842C193.732 169.608 190.434 170.189 189.187 168.133C188.814 167.535 188.655 166.828 188.736 166.128C188.74 165.991 188.691 165.858 188.599 165.756C188.508 165.654 188.381 165.591 188.244 165.579C188.107 165.568 187.971 165.61 187.865 165.696C187.758 165.782 187.688 165.906 187.67 166.041Z" fill="#FF9500"/>
<path d="M217.087 171.724L217.076 171.738C217.182 172.494 217.062 173.265 216.732 173.953C215.974 175.23 214.757 176.168 213.33 176.575C210.835 177.683 208.15 178.302 205.422 178.4C205.282 178.415 205.142 178.375 205.032 178.288C204.921 178.202 204.849 178.075 204.831 177.935C204.814 177.796 204.851 177.655 204.936 177.543C205.021 177.431 205.147 177.357 205.286 177.337C208.45 176.701 211.528 175.693 214.455 174.334C214.921 174.107 215.312 173.75 215.58 173.306C215.849 172.862 215.983 172.351 215.967 171.832C215.971 171.694 216.025 171.562 216.119 171.461C216.214 171.36 216.342 171.297 216.479 171.283C216.617 171.27 216.755 171.308 216.867 171.389C216.979 171.47 217.057 171.589 217.087 171.724Z" fill="#FF9500"/>
<path d="M216.899 177.816L216.886 177.83C216.969 178.589 216.827 179.356 216.479 180.035C216.13 180.715 215.59 181.277 214.926 181.653C209.573 184.677 202.83 185.449 196.707 184.87C194.238 184.581 191.839 183.856 189.624 182.728C188.905 182.345 188.321 181.75 187.952 181.024C187.546 180.173 187.432 179.211 187.627 178.289C187.644 178.152 187.715 178.027 187.822 177.94C187.93 177.854 188.067 177.812 188.204 177.824C188.342 177.836 188.469 177.901 188.56 178.005C188.651 178.109 188.699 178.244 188.693 178.382C188.559 179.088 188.677 179.819 189.025 180.448C189.293 180.918 189.702 181.293 190.193 181.521C197.035 184.671 207.913 183.804 214.313 180.52C214.784 180.279 215.174 179.905 215.433 179.444C215.693 178.983 215.811 178.456 215.772 177.928C215.758 177.779 215.803 177.63 215.898 177.514C215.993 177.397 216.13 177.324 216.28 177.309C216.429 177.294 216.578 177.339 216.694 177.434C216.81 177.529 216.884 177.667 216.899 177.816Z" fill="#FF9500"/>
<path d="M188.064 132.712C187.833 133.636 187.932 134.612 188.344 135.471C188.712 136.215 189.301 136.825 190.031 137.219C195.176 139.739 199.678 139.774 205.422 138.974C205.565 138.951 205.693 138.874 205.781 138.759C205.868 138.643 205.907 138.498 205.89 138.355C205.872 138.211 205.8 138.08 205.688 137.988C205.576 137.897 205.433 137.852 205.289 137.864C202.623 138.058 199.946 138.016 197.288 137.738C194.999 137.45 192.766 136.823 190.661 135.879C190.181 135.662 189.779 135.304 189.508 134.851C189.144 134.237 189.011 133.513 189.13 132.809C189.138 132.67 189.092 132.534 189.001 132.429C188.91 132.324 188.782 132.258 188.644 132.245C188.506 132.233 188.368 132.274 188.26 132.361C188.152 132.448 188.082 132.574 188.064 132.712Z" fill="#FF9500"/>
<path d="M200.718 119.164C200.49 119.243 200.27 119.34 200.059 119.455C200.344 119.532 200.637 119.579 200.932 119.598C200.88 119.5 200.738 119.211 200.718 119.164Z" fill="#FF9500"/>
<path d="M203.291 121.149C203.329 121.275 203.355 121.348 203.457 121.724C204.105 121.688 204.738 121.523 205.321 121.238C204.65 121.133 203.969 121.103 203.291 121.149Z" fill="#FF9500"/>
<path d="M213.375 116.198C207.266 114.348 200.758 114.261 194.601 115.946C193.022 116.407 189.956 117.427 188.525 118.881C187.371 120.054 187.573 120.854 187.625 122.706C187.64 123.286 187.665 123.864 187.701 124.442C187.747 125.083 187.945 125.703 188.279 126.251C188.613 126.799 189.074 127.259 189.623 127.592C194.449 130.483 201.99 131.731 210.98 128.828C211.117 128.781 211.231 128.682 211.297 128.553C211.362 128.423 211.375 128.273 211.332 128.134C211.289 127.995 211.194 127.879 211.067 127.809C210.939 127.739 210.79 127.721 210.65 127.76C204.511 129.574 196.216 129.524 190.364 126.297C189.998 126.096 189.685 125.811 189.45 125.467C189.214 125.122 189.063 124.727 189.008 124.314C188.968 124.005 188.93 123.698 188.895 123.389C190.382 124.581 192.156 125.362 194.039 125.653C198.36 126.175 202.727 126.188 207.051 125.691C208.725 125.453 210.38 125.103 212.007 124.643C212.47 124.718 212.736 124.19 212.685 123.878C212.89 122.719 213.52 121.679 214.451 120.96C214.523 120.906 214.582 120.837 214.623 120.758C214.665 120.679 214.689 120.592 214.693 120.502C214.789 118.794 215.119 116.711 213.375 116.198ZM206.337 122.421C205.578 122.878 204.714 123.13 203.829 123.153C203.863 123.279 203.897 123.398 203.935 123.519C203.985 123.655 203.98 123.806 203.921 123.939C203.862 124.072 203.753 124.177 203.618 124.231C203.483 124.285 203.332 124.284 203.197 124.229C203.063 124.174 202.955 124.068 202.897 123.935C202.773 123.695 202.652 123.455 202.534 123.215C201.148 123.319 199.753 123.247 198.385 123C198.241 122.979 198.11 122.903 198.021 122.788C197.932 122.673 197.891 122.527 197.908 122.383C197.924 122.238 197.996 122.105 198.109 122.013C198.222 121.921 198.366 121.876 198.511 121.888C199.648 121.999 200.793 121.999 201.931 121.888C201.885 121.782 201.694 121.321 201.643 121.198C200.726 121.278 199.806 121.066 199.016 120.593C198.239 119.997 198.008 119.081 198.815 118.515C199.246 118.224 199.724 118.009 200.228 117.879C200.169 117.665 200.124 117.447 200.094 117.226C200.056 117.089 200.075 116.943 200.145 116.82C200.216 116.697 200.332 116.607 200.469 116.57C200.606 116.533 200.752 116.551 200.875 116.622C200.998 116.692 201.088 116.808 201.125 116.945C201.231 117.18 201.357 117.404 201.503 117.616C202.262 117.483 203.03 117.414 203.8 117.409C203.939 117.411 204.071 117.466 204.17 117.563C204.269 117.66 204.326 117.791 204.33 117.929C204.334 118.068 204.284 118.202 204.191 118.305C204.098 118.407 203.969 118.469 203.831 118.479C203.298 118.531 202.769 118.623 202.249 118.752C202.414 119.021 202.562 119.299 202.693 119.585C204.228 119.517 206.899 119.377 207.161 120.892C207.192 121.2 207.13 121.51 206.983 121.783C206.836 122.055 206.611 122.278 206.337 122.421Z" fill="#FF9500"/>
<path d="M188.065 151.547C187.938 151.964 187.908 152.403 187.976 152.833C188.044 153.262 188.21 153.671 188.459 154.027C188.485 154.101 188.524 154.169 188.577 154.226C188.629 154.284 188.692 154.331 188.763 154.364C188.833 154.396 188.91 154.415 188.988 154.417C189.066 154.419 189.143 154.406 189.216 154.377C189.288 154.349 189.354 154.306 189.41 154.251C189.465 154.197 189.509 154.132 189.539 154.059C189.569 153.987 189.583 153.91 189.582 153.832C189.581 153.754 189.564 153.677 189.533 153.606C189.385 152.976 189.447 153.12 189.169 151.57C189.034 150.822 188.219 150.822 188.065 151.547Z" fill="#FF9500"/>
<path d="M160.019 111.028C159.404 110.611 158.68 110.386 157.938 110.379C157.997 112.395 157.99 113.89 157.938 115.635C158.68 115.396 159.391 115.069 160.056 114.66C160.352 114.457 160.594 114.184 160.76 113.866C160.926 113.548 161.011 113.193 161.007 112.834C161.003 112.475 160.911 112.123 160.739 111.808C160.567 111.493 160.319 111.225 160.019 111.028Z" fill="#FF9500"/>
<path d="M155.432 102.523C154.778 102.673 154.151 102.921 153.572 103.261C153.261 103.474 153.005 103.756 152.822 104.086C152.64 104.416 152.538 104.784 152.523 105.161C152.509 105.537 152.582 105.912 152.739 106.255C152.895 106.598 153.129 106.9 153.422 107.136C154.024 107.661 154.79 107.96 155.588 107.982C155.5 105.915 155.442 104.465 155.432 102.523Z" fill="#FF9500"/>
<path d="M174.052 104.654C173.771 102.612 173.131 100.636 172.162 98.8163C169.108 93.2245 164.602 90.0896 158.088 89.9598C154.694 89.9034 151.34 90.7087 148.342 92.3006C145.343 93.8924 142.797 96.2188 140.942 99.062C138.47 102.98 137.304 107.581 137.609 112.204C138.099 117.922 142.104 125.076 145.043 125.1C151.311 125.162 157.426 123.171 162.455 119.43C167.383 115.704 171.342 110.847 173.996 105.268C174.048 105.068 174.067 104.86 174.052 104.654ZM161.117 116.451C160.093 117.016 158.991 117.429 157.847 117.676C157.806 118.467 157.739 119.255 157.702 120.045C157.703 120.151 157.682 120.257 157.641 120.355C157.6 120.453 157.539 120.542 157.463 120.616C157.387 120.691 157.297 120.749 157.198 120.788C157.099 120.827 156.993 120.845 156.887 120.843C156.78 120.84 156.676 120.816 156.579 120.772C156.482 120.728 156.395 120.665 156.323 120.586C156.25 120.508 156.195 120.416 156.159 120.316C156.123 120.216 156.108 120.109 156.114 120.003C156.114 119.327 156.076 118.651 156.049 117.975C154.553 118.122 153.05 118.184 151.546 118.16C151.339 118.16 151.14 118.079 150.992 117.935C150.844 117.79 150.758 117.594 150.752 117.387C150.746 117.18 150.821 116.979 150.961 116.827C151.102 116.674 151.295 116.583 151.502 116.571C152.998 116.514 154.488 116.364 155.965 116.122C155.954 115.882 155.713 110.945 155.686 110.253C154.271 110.236 152.911 109.698 151.867 108.741C151.332 108.274 150.916 107.686 150.654 107.026C150.393 106.366 150.292 105.652 150.362 104.945C150.431 104.238 150.669 103.558 151.054 102.962C151.44 102.365 151.962 101.869 152.578 101.515C153.477 101.067 154.445 100.774 155.442 100.647C155.455 99.7651 155.476 98.8831 155.495 98.0011C155.491 97.9013 155.506 97.8017 155.541 97.708C155.575 97.6142 155.628 97.5281 155.695 97.4546C155.763 97.3812 155.844 97.3217 155.935 97.2797C156.025 97.2377 156.123 97.214 156.223 97.2098C156.323 97.2057 156.423 97.2213 156.516 97.2556C156.61 97.29 156.696 97.3425 156.77 97.4101C156.843 97.4777 156.903 97.5592 156.945 97.6498C156.987 97.7404 157.01 97.8383 157.015 97.9381C157.099 98.8025 157.196 99.6643 157.292 100.527C158.126 100.53 158.959 100.607 159.78 100.758C159.879 100.775 159.973 100.81 160.058 100.863C160.143 100.916 160.216 100.986 160.274 101.067C160.332 101.148 160.374 101.241 160.396 101.338C160.419 101.435 160.422 101.536 160.405 101.635C160.389 101.734 160.353 101.828 160.3 101.913C160.247 101.998 160.178 102.071 160.096 102.129C160.015 102.187 159.923 102.229 159.825 102.251C159.728 102.273 159.627 102.276 159.528 102.26C158.844 102.176 158.153 102.163 157.466 102.221C157.665 104.22 157.767 106.074 157.854 108.121C158.383 108.15 158.908 108.224 159.425 108.342C163.661 109.368 164.478 114.534 161.117 116.451Z" fill="#FF9500"/>
<path d="M175.042 78.0215C175.226 79.1442 175.374 79.6205 175.798 79.56C176.249 79.497 176.194 79.0497 176.19 77.9295C176.19 77.5591 176.159 76.5435 176.116 76.1832C175.996 75.1361 175.926 74.8514 175.569 74.84C174.803 74.8161 174.918 77.2617 175.042 78.0215Z" fill="#212941"/>
<path d="M175.418 81.6829C176.511 82.6645 178.479 81.9173 179.207 79.5989C179.246 79.4913 179.242 79.3733 179.198 79.268C179.154 79.1628 179.071 79.0781 178.967 79.0306C178.864 78.9831 178.746 78.9763 178.637 79.0115C178.528 79.0467 178.437 79.1215 178.381 79.2209C177.965 79.7979 177.461 80.3056 176.886 80.7253C176.743 80.8308 176.58 80.9051 176.406 80.9435C176.232 80.9819 176.053 80.9836 175.878 80.9483C175.782 80.9017 175.671 80.8923 175.568 80.9221C175.465 80.9519 175.376 81.0186 175.319 81.1096C175.262 81.2006 175.241 81.3094 175.259 81.4152C175.278 81.521 175.334 81.6163 175.418 81.6829Z" fill="#212941"/>
<path d="M177.953 75.0063C178.355 75.0063 178.683 75.4423 178.683 75.9791C178.683 76.5158 178.355 76.9505 177.953 76.9505C177.551 76.9505 177.224 76.5158 177.224 75.9791C177.224 75.4423 177.551 75.0063 177.953 75.0063Z" fill="#212941"/>
<path d="M144.988 127.183C146.812 127.451 148.667 127.417 150.479 127.08C150.654 127.065 150.816 126.981 150.929 126.846C151.042 126.712 151.097 126.538 151.081 126.363C151.066 126.188 150.982 126.026 150.848 125.913C150.713 125.8 150.539 125.745 150.364 125.761C148.565 125.677 146.761 125.729 144.969 125.916C144.801 125.918 144.641 125.987 144.524 126.108C144.407 126.229 144.342 126.391 144.345 126.559C144.347 126.727 144.416 126.887 144.537 127.004C144.658 127.121 144.82 127.186 144.988 127.183Z" fill="#212941"/>
<path d="M145.308 129.984C147.154 130.372 149.061 130.362 150.903 129.952C151.077 129.931 151.236 129.841 151.344 129.703C151.451 129.564 151.5 129.388 151.478 129.214C151.457 129.04 151.367 128.881 151.229 128.773C151.09 128.665 150.914 128.617 150.74 128.638C149.263 128.714 148.606 128.574 145.374 128.718C145.206 128.709 145.041 128.767 144.916 128.88C144.792 128.993 144.717 129.15 144.708 129.318C144.699 129.486 144.758 129.65 144.87 129.775C144.983 129.9 145.14 129.975 145.308 129.984Z" fill="#212941"/>
<path d="M145.929 132.787C147.655 132.933 149.393 132.746 151.048 132.237C151.218 132.205 151.369 132.108 151.468 131.966C151.567 131.824 151.607 131.65 151.579 131.479C151.551 131.308 151.458 131.155 151.319 131.053C151.18 130.95 151.006 130.906 150.835 130.929C149.164 131.032 147.5 131.23 145.852 131.521C145.684 131.531 145.527 131.608 145.415 131.734C145.304 131.86 145.247 132.025 145.257 132.193C145.267 132.361 145.344 132.518 145.47 132.629C145.596 132.741 145.761 132.798 145.929 132.787Z" fill="#212941"/>
<path d="M147.808 135.548C149.286 135.779 150.791 135.779 152.269 135.548C153.761 135.347 155.217 134.937 156.594 134.328C156.744 134.264 156.866 134.146 156.935 133.998C157.004 133.849 157.016 133.68 156.968 133.523C156.919 133.367 156.815 133.233 156.674 133.149C156.533 133.065 156.366 133.036 156.206 133.068C154.798 133.357 150.977 133.788 149.494 134.006C148.923 134.09 148.368 134.205 147.79 134.287C147.707 134.288 147.625 134.305 147.548 134.338C147.472 134.371 147.403 134.419 147.344 134.479C147.286 134.538 147.241 134.609 147.21 134.686C147.179 134.763 147.164 134.846 147.165 134.929C147.166 135.012 147.184 135.095 147.217 135.171C147.25 135.248 147.297 135.317 147.357 135.375C147.417 135.433 147.487 135.479 147.564 135.509C147.642 135.54 147.724 135.555 147.808 135.554V135.548Z" fill="#212941"/>
<path d="M138.749 182.598C139.314 184.393 142.676 185.585 144.419 186.269C152.579 189.465 153.693 189.957 154.111 189.656C154.939 189.064 155.104 186.103 155.274 184.959C155.303 184.79 155.396 184.638 155.535 184.536C155.673 184.434 155.846 184.39 156.016 184.413C156.186 184.436 156.341 184.524 156.447 184.659C156.554 184.794 156.604 184.964 156.587 185.135C156.382 186.82 156.533 189.772 155.064 190.931C153.993 191.769 152.341 191.114 151.14 190.702C148.503 189.799 146.311 189.03 143.729 188.017C141.612 187.382 139.655 186.304 137.986 184.856C136.978 183.797 136.365 182.197 137.489 181.243C138.613 180.289 140.321 180.874 141.647 181.139C143.769 181.56 147.18 182.734 149.177 181.872C149.33 181.803 149.505 181.797 149.662 181.857C149.819 181.916 149.947 182.036 150.016 182.189C150.085 182.342 150.09 182.517 150.031 182.674C149.971 182.831 149.852 182.958 149.699 183.027C146.21 184.669 139.82 182.046 138.749 182.598Z" fill="#212941"/>
<path d="M228.895 101.814C228.45 102.026 228.057 102.334 227.745 102.715C227.433 103.097 227.21 103.543 227.091 104.021C227.056 104.104 227.044 104.194 227.056 104.283C227.068 104.371 227.104 104.455 227.159 104.525C227.562 104.864 228.079 105.036 228.605 105.007C228.717 103.698 228.872 102.013 228.895 101.814Z" fill="#FF9500"/>
<path d="M245.3 104.154C243.744 97.956 238.025 92.688 231.611 92.2407C228.227 91.9994 224.848 92.7912 221.924 94.5114C218.999 96.2317 216.665 98.7993 215.231 101.875C214.402 103.803 214.008 105.891 214.078 107.99C214.148 110.088 214.68 112.145 215.636 114.014C216.592 115.884 217.948 117.519 219.608 118.805C221.268 120.09 223.191 120.993 225.241 121.45C225.358 121.474 225.48 121.473 225.598 121.449C225.715 121.425 225.827 121.378 225.927 121.31C226.026 121.242 226.11 121.155 226.175 121.054C226.24 120.953 226.285 120.84 226.305 120.722C226.523 120.003 226.609 119.251 226.557 118.502C226.352 117.34 225.406 115.651 226.105 114.897C226.173 114.822 226.138 114.739 226.366 114.897C226.885 115.248 227.214 115.953 227.637 116.205C227.956 116.361 228.32 116.401 228.665 116.317C229.01 116.233 229.315 116.031 229.527 115.746C230.167 115.062 230.331 114.142 230.824 114.041C230.987 114.008 231.066 114.152 231.164 114.254C231.368 114.49 231.592 114.708 231.833 114.907C233.315 116.001 234.353 114.301 234.731 114.292C234.938 114.292 235.062 115.064 235.804 115.357C236.644 115.687 237.517 114.979 237.686 115.048C238.729 115.449 237.371 117.568 236.79 118.517C236.696 118.647 236.656 118.809 236.678 118.968C236.699 119.127 236.781 119.272 236.906 119.373C237.031 119.474 237.189 119.524 237.35 119.512C237.51 119.5 237.659 119.427 237.768 119.308C237.86 119.31 237.953 119.293 238.038 119.258C240.846 118.014 243.119 115.81 244.45 113.043C245.78 110.275 246.082 107.124 245.3 104.154ZM235.232 108.936C235.14 111.761 232.395 112.57 229.493 112.365C229.355 113.082 229.212 113.798 229.08 114.515C229.047 114.684 228.95 114.834 228.809 114.932C228.667 115.031 228.493 115.071 228.323 115.043C228.153 115.016 228.001 114.923 227.898 114.785C227.795 114.647 227.75 114.474 227.772 114.303C227.811 114.019 227.888 113.239 227.981 112.204C227.016 112.078 226.081 111.914 225.277 111.837C225.102 111.823 224.94 111.74 224.826 111.607C224.712 111.473 224.656 111.3 224.67 111.125C224.685 110.95 224.767 110.788 224.901 110.674C225.035 110.56 225.208 110.504 225.383 110.518C226.191 110.571 227.138 110.673 228.112 110.737C228.219 109.515 228.338 108.141 228.447 106.862C223.317 106.513 224.995 101.005 229.098 100.108C229.224 99.1707 229.358 98.2408 229.487 97.3084C229.493 97.2257 229.515 97.1449 229.552 97.0708C229.589 96.9966 229.641 96.9305 229.703 96.8762C229.766 96.8219 229.839 96.7805 229.918 96.7544C229.996 96.7282 230.079 96.7178 230.162 96.7238C230.245 96.7297 230.326 96.7519 230.4 96.7891C230.474 96.8262 230.54 96.8777 230.594 96.9404C230.649 97.0031 230.69 97.0759 230.716 97.1546C230.742 97.2333 230.753 97.3164 230.747 97.3991C230.738 98.2496 230.747 99.1001 230.735 99.9519C231.373 99.9629 232.007 100.045 232.625 100.196C232.79 100.233 232.932 100.334 233.022 100.476C233.112 100.618 233.142 100.79 233.106 100.954C233.069 101.118 232.968 101.26 232.826 101.35C232.684 101.44 232.512 101.47 232.348 101.434C231.809 101.329 231.257 101.302 230.71 101.353C230.673 102.578 230.591 103.747 230.483 104.993C231.558 104.912 232.632 105.173 233.549 105.739C234.073 106.09 234.502 106.566 234.796 107.124C235.089 107.682 235.24 108.305 235.232 108.936Z" fill="#FF9500"/>
<path d="M232.482 107.278C231.816 106.927 231.06 106.787 230.313 106.876C230.129 108.693 229.96 109.805 229.787 110.794C230.688 110.826 231.586 110.669 232.422 110.332C232.709 110.197 232.954 109.984 233.127 109.717C233.3 109.451 233.395 109.141 233.401 108.823C233.407 108.506 233.325 108.193 233.162 107.919C233 107.646 232.764 107.424 232.482 107.278Z" fill="#FF9500"/>
<path d="M215.504 119.914C215.325 118.615 215.092 117.369 215 115.946C214.986 115.806 215.028 115.665 215.116 115.555C215.205 115.445 215.333 115.374 215.473 115.357C215.614 115.341 215.755 115.38 215.867 115.467C215.978 115.553 216.052 115.68 216.071 115.82C216.208 116.803 216.78 118.844 217.004 119.978C217.113 120.53 216.744 120.385 215.383 123.079C213.73 126.737 212.478 130.562 211.649 134.49C211.621 134.636 211.535 134.765 211.411 134.848C211.287 134.931 211.136 134.962 210.989 134.933C210.843 134.904 210.714 134.819 210.631 134.695C210.548 134.571 210.517 134.419 210.546 134.273C211.435 129.29 212.172 124.456 215.504 119.914Z" fill="#212941"/>
<path d="M230.183 116.141C229.96 117.424 229.906 118.73 230.02 120.026C230.019 120.176 230.076 120.321 230.18 120.43C230.284 120.538 230.426 120.602 230.576 120.608C230.726 120.613 230.872 120.56 230.984 120.459C231.095 120.359 231.163 120.219 231.173 120.069C231.419 118.781 231.457 117.463 231.286 116.163C231.288 116.09 231.275 116.018 231.249 115.951C231.222 115.883 231.183 115.822 231.132 115.769C231.082 115.717 231.022 115.675 230.956 115.646C230.889 115.617 230.818 115.602 230.745 115.6C230.673 115.599 230.601 115.612 230.533 115.638C230.466 115.665 230.404 115.704 230.352 115.754C230.3 115.805 230.258 115.865 230.229 115.931C230.2 115.997 230.184 116.069 230.183 116.141Z" fill="#212941"/>
<path d="M232.721 115.794C232.45 116.817 232.278 117.864 232.207 118.92C232.175 119.07 232.204 119.227 232.287 119.357C232.37 119.486 232.502 119.577 232.652 119.609C232.803 119.641 232.96 119.613 233.089 119.529C233.218 119.446 233.309 119.315 233.341 119.164C233.754 118.13 233.92 117.014 233.826 115.905C233.841 115.758 233.797 115.612 233.704 115.498C233.611 115.384 233.476 115.311 233.329 115.297C233.183 115.282 233.036 115.326 232.922 115.419C232.808 115.513 232.736 115.647 232.721 115.794Z" fill="#212941"/>
<path d="M219.618 132.139C219.462 132.908 219.398 133.694 219.428 134.478C219.414 134.533 219.411 134.589 219.42 134.644C219.429 134.7 219.448 134.753 219.478 134.8C219.508 134.847 219.547 134.888 219.593 134.92C219.639 134.952 219.691 134.974 219.746 134.985C219.801 134.997 219.857 134.997 219.912 134.985C219.967 134.974 220.019 134.952 220.065 134.92C220.11 134.888 220.149 134.847 220.179 134.799C220.209 134.752 220.228 134.699 220.237 134.643C220.492 133.86 220.55 133.025 220.406 132.213C220.413 132.11 220.379 132.008 220.312 131.93C220.246 131.851 220.151 131.802 220.048 131.792C219.945 131.783 219.843 131.813 219.763 131.878C219.682 131.943 219.631 132.036 219.618 132.139Z" fill="#212941"/>
<path d="M222.158 136.458C221.86 141.039 216.821 140.588 217.496 135.898C217.507 135.809 217.539 135.724 217.588 135.649C217.638 135.574 217.704 135.512 217.781 135.466C217.858 135.421 217.945 135.394 218.034 135.387C218.124 135.38 218.214 135.394 218.297 135.427C219.386 135.866 220.577 135.987 221.732 135.776C221.817 135.758 221.907 135.767 221.987 135.802C222.068 135.836 222.136 135.894 222.182 135.969C222.229 136.043 222.251 136.13 222.247 136.217C222.242 136.304 222.211 136.388 222.158 136.458ZM218.63 136.741C218.601 137.044 218.647 137.349 218.765 137.63C218.882 137.911 219.067 138.158 219.302 138.35C219.924 138.743 220.688 138.054 220.981 137.468C221.092 137.242 221.181 137.006 221.247 136.763C220.382 136.929 219.492 136.921 218.631 136.737L218.63 136.741Z" fill="#212941"/>
<path d="M222.797 132.527C223.184 132.596 223.406 133.169 223.291 133.804C223.176 134.439 222.768 134.899 222.38 134.829C221.992 134.758 221.771 134.186 221.887 133.551C222.003 132.916 222.41 132.456 222.797 132.527Z" fill="#212941"/>
<path d="M217.965 131.862C218.354 131.933 218.574 132.505 218.459 133.141C218.345 133.778 217.938 134.235 217.55 134.166C217.162 134.096 216.941 133.523 217.056 132.887C217.17 132.251 217.579 131.796 217.965 131.862Z" fill="#212941"/>
<path d="M201.747 94.0514C200.039 90.764 197.775 91.51 197.044 90.2915C196.468 89.3339 197.211 87.7451 196.835 86.3049C196.331 84.367 194.229 83.9663 192.785 82.9924C190.338 81.3405 192.624 78.5824 192.242 75.8343C192.014 74.1963 190.656 73.1732 189.372 72.1879C188.744 71.8174 188.209 71.3077 187.809 70.6979C187.41 70.0882 187.155 69.3948 187.066 68.6712C186.865 67.2308 186.34 65.8548 185.53 64.6468C183.232 61.7273 178.209 62.2427 175.652 64.745C174.897 65.5189 174.339 66.462 174.024 67.4956C172.747 67.7664 171.575 68.3958 170.644 69.31C168.531 71.3096 169.096 73.9506 169.591 76.618C169.916 77.6369 169.99 78.7196 169.804 79.7731C169.619 80.8265 169.181 81.8193 168.528 82.666C167.191 84.934 166.288 86.6716 167.193 89.2546C167.483 89.9445 167.855 90.5972 168.301 91.1987C168.481 91.5604 168.607 91.9547 168.795 92.3126C168.901 92.5166 169.078 92.6745 169.293 92.7562C169.508 92.838 169.745 92.838 169.96 92.7561C170.538 92.5356 171.122 92.3101 171.706 92.0858C170.981 97.2127 175.059 99.8486 178.529 97.9145C181.297 96.186 183.329 93.4973 184.237 90.3634C185.153 90.3772 186.053 90.6018 186.868 91.0198C190.92 93.4315 188.873 101.085 188.311 105.476C184.652 114.416 178.718 122.243 171.098 128.178C168.102 130.517 164.506 133.58 160.702 133.434C160.272 132.328 158.282 126.687 157.693 124.992C167.082 120.889 173.481 111.824 177.642 102.491C177.694 102.362 177.695 102.218 177.643 102.089C177.591 101.959 177.492 101.855 177.365 101.798C177.238 101.74 177.094 101.734 176.963 101.78C176.832 101.827 176.723 101.922 176.661 102.046C172.548 110.998 165.5 120.224 156.401 123.809C156.209 123.884 156.053 124.032 155.968 124.22C155.882 124.408 155.874 124.622 155.944 124.817C157.062 128.016 158.119 131.255 159.395 134.494C159.59 134.998 160.036 135.004 160.445 135.029C158.138 142.348 151.107 156.489 149.483 180.475C149.469 180.672 149.519 180.868 149.626 181.035C149.733 181.201 149.89 181.329 150.075 181.4C152.648 182.385 154.983 183.71 157.657 184.609C157.794 184.655 157.938 184.669 158.081 184.649C158.223 184.63 158.359 184.578 158.478 184.497C160.116 183.387 156.623 177.703 167.915 146.351C167.7 143.912 167.7 141.459 167.915 139.02C167.998 138.18 168.079 137.688 168.167 137.112L167.706 136.895C167.618 136.858 167.548 136.788 167.51 136.7C167.473 136.613 167.471 136.513 167.505 136.424C167.539 136.335 167.607 136.263 167.694 136.222C167.78 136.182 167.879 136.177 167.969 136.208L168.783 136.46C168.87 136.493 168.944 136.553 168.994 136.631C169.043 136.709 169.066 136.802 169.059 136.894C168.913 142.869 168.177 144.155 169.911 151.521C170.412 154.126 171.432 156.604 172.91 158.807C177.904 165.318 189.474 165.107 197.131 165.96C197.252 165.973 197.375 165.96 197.49 165.922C197.606 165.884 197.712 165.821 197.802 165.739C197.891 165.656 197.962 165.555 198.008 165.442C198.055 165.33 198.077 165.208 198.073 165.086L197.709 157.516C197.702 157.315 197.621 157.123 197.481 156.978C197.342 156.832 197.154 156.743 196.953 156.726C191.511 156.271 185.594 153.011 180.906 150.223C181.032 143.545 181.557 136.472 182.212 129.811L182.394 129.82C182.557 129.827 182.718 129.781 182.854 129.691C182.989 129.6 183.093 129.469 183.15 129.316C184.482 125.846 185.589 122.293 186.465 118.681C189.335 106.963 186.843 108.601 195.834 99.9066C197.499 98.1714 199.274 96.5443 201.146 95.0354C201.263 95.0389 201.379 95.0113 201.482 94.9555C201.585 94.8997 201.671 94.8177 201.732 94.7178C201.793 94.6179 201.827 94.5036 201.83 94.3866C201.832 94.2696 201.804 94.1539 201.747 94.0514ZM174.783 96.5651C174.321 96.2658 173.926 95.8742 173.623 95.415C173.319 94.9558 173.114 94.4388 173.019 93.8964C172.9 93.1419 172.872 92.3757 172.938 91.6145C173.224 91.5074 176.489 90.5486 176.783 90.4654C176.91 90.4297 177.025 90.3597 177.115 90.263C177.205 90.1663 177.267 90.0467 177.293 89.9173C177.633 88.2045 177.76 86.4562 177.671 84.7123C177.664 84.4099 177.373 83.6791 176.845 83.5657C174.209 83.0037 174.119 79.2439 174.233 76.5676C174.308 74.8036 174.327 74.6008 174.424 73.7503C176.605 74.5172 178.976 74.5517 181.178 73.8485C181.749 74.2417 181.949 74.815 181.325 75.1879C181.17 75.2763 181.007 75.3517 180.839 75.4135C180.669 75.4793 180.522 75.5938 180.417 75.7426C180.312 75.8915 180.253 76.068 180.248 76.2501C179.952 84.2007 179.996 80.3426 180.359 89.5431C180.364 89.7019 180.425 89.8538 180.531 89.972C180.637 90.0903 180.781 90.1673 180.939 90.1895L182.398 90.4415C182.776 90.5398 182.951 90.2852 183.036 90.2915C181.682 93.4466 177.765 98.3152 174.781 96.5651H174.783ZM181.885 128.239C179.391 128.126 176.908 127.848 174.451 127.406C179.414 123.033 183.525 117.778 186.574 111.908C185.317 117.435 183.751 122.887 181.882 128.239H181.885Z" fill="#212941"/>
<path d="M158.13 136.62C158.046 136.166 157.791 135.76 157.418 135.486C157.045 135.213 156.582 135.092 156.123 135.147C155.736 135.16 155.351 135.202 154.971 135.273C152.958 135.766 150.884 135.965 148.814 135.863C148.159 135.895 147.502 135.877 146.85 135.809C146.607 135.791 146.371 135.714 146.164 135.585C145.957 135.456 145.784 135.278 145.66 135.068C145.536 134.857 145.465 134.62 145.453 134.376C145.441 134.132 145.488 133.889 145.59 133.667C145.639 133.549 145.657 133.422 145.645 133.296C145.632 133.169 145.588 133.048 145.517 132.943C145.446 132.837 145.35 132.751 145.238 132.692C145.126 132.632 145 132.602 144.873 132.602C144.674 132.608 144.475 132.598 144.278 132.571C143.396 132.416 143.426 131.123 144.013 130.629C144.146 130.517 144.238 130.365 144.276 130.196C144.313 130.027 144.295 129.85 144.222 129.692C144.149 129.535 144.027 129.406 143.874 129.325C143.721 129.243 143.545 129.215 143.374 129.243C140.031 129.782 132.767 131.646 132.79 135.039C132.79 135.165 132.876 137.701 132.927 138.542C132.974 139.182 133.173 139.802 133.507 140.35C133.841 140.897 134.301 141.358 134.849 141.692C139.701 144.596 147.24 145.82 156.206 142.927C156.342 142.879 156.454 142.78 156.519 142.651C156.584 142.522 156.597 142.373 156.554 142.235C156.512 142.097 156.418 141.98 156.291 141.91C156.165 141.84 156.017 141.821 155.877 141.858C149.808 143.651 141.484 143.644 135.591 140.394C135.226 140.193 134.913 139.909 134.677 139.565C134.442 139.22 134.29 138.826 134.235 138.412C134.196 138.109 134.158 137.806 134.123 137.502C136.763 139.818 140.824 140.095 144.257 140.132C148.731 140.386 153.214 139.867 157.511 138.6C157.96 138.444 158.201 137.088 158.13 136.62Z" fill="#FF9500"/>
<path d="M133.28 141.784C133.067 142.708 133.171 143.678 133.575 144.536C134.442 146.326 136.757 147.056 138.696 147.643C143.336 149.06 149.048 148.636 153.804 147.509C153.943 147.472 154.062 147.382 154.137 147.259C154.211 147.136 154.235 146.989 154.204 146.848C154.173 146.708 154.089 146.585 153.969 146.505C153.85 146.425 153.704 146.394 153.562 146.418C148.783 147.277 143.881 147.181 139.139 146.135C137.722 145.734 135.452 145.185 134.71 143.927C134.352 143.308 134.224 142.582 134.347 141.877C134.36 141.736 134.315 141.595 134.224 141.486C134.133 141.377 134.002 141.309 133.86 141.297C133.719 141.285 133.578 141.329 133.469 141.42C133.361 141.512 133.293 141.642 133.28 141.784Z" fill="#FF9500"/>
<path d="M133.28 151.17C133.049 152.094 133.149 153.07 133.561 153.929C133.927 154.673 134.517 155.284 135.247 155.677C140.372 158.213 144.878 158.232 150.619 157.434C150.762 157.412 150.89 157.334 150.977 157.219C151.064 157.104 151.104 156.959 151.086 156.815C151.069 156.672 150.997 156.54 150.885 156.449C150.773 156.357 150.629 156.313 150.485 156.324C147.826 156.518 145.155 156.475 142.503 156.198C140.215 155.909 137.982 155.283 135.877 154.34C135.398 154.122 134.996 153.763 134.725 153.312C134.362 152.697 134.228 151.973 134.347 151.269C134.36 151.128 134.317 150.987 134.226 150.877C134.135 150.768 134.005 150.699 133.863 150.686C133.722 150.673 133.581 150.716 133.471 150.807C133.362 150.898 133.293 151.028 133.28 151.17Z" fill="#FF9500"/>
<path d="M133.28 155.868C133.048 156.794 133.147 157.773 133.56 158.634C133.926 159.378 134.516 159.989 135.246 160.381C140.372 162.918 144.877 162.937 150.618 162.139C150.761 162.116 150.889 162.039 150.977 161.924C151.064 161.808 151.103 161.663 151.085 161.52C151.068 161.376 150.996 161.245 150.884 161.153C150.772 161.062 150.629 161.017 150.484 161.029C147.825 161.22 145.154 161.176 142.502 160.897C140.214 160.608 137.981 159.981 135.876 159.038C135.397 158.82 134.995 158.461 134.724 158.01C134.361 157.395 134.227 156.672 134.346 155.968C134.355 155.828 134.31 155.691 134.219 155.585C134.129 155.479 134.001 155.412 133.862 155.399C133.723 155.386 133.584 155.428 133.476 155.516C133.367 155.603 133.297 155.73 133.28 155.868Z" fill="#FF9500"/>
<path d="M133.035 160.567C132.801 161.492 132.898 162.469 133.308 163.33C133.675 164.076 134.266 164.689 134.998 165.084C139.861 167.44 143.59 167.509 148.942 166.974C149.015 166.968 149.087 166.948 149.152 166.914C149.217 166.881 149.275 166.835 149.323 166.779C149.371 166.723 149.407 166.659 149.429 166.589C149.452 166.519 149.46 166.445 149.454 166.372C149.449 166.299 149.428 166.228 149.395 166.163C149.362 166.097 149.316 166.039 149.26 165.992C149.204 165.944 149.139 165.908 149.069 165.885C149 165.863 148.926 165.854 148.853 165.86C146.651 165.928 144.447 165.841 142.257 165.599C139.97 165.302 137.739 164.669 135.637 163.721C135.158 163.505 134.757 163.149 134.486 162.699C134.123 162.085 133.989 161.363 134.108 160.66C134.121 160.518 134.076 160.376 133.984 160.267C133.892 160.158 133.761 160.089 133.618 160.077C133.476 160.064 133.334 160.109 133.225 160.201C133.116 160.293 133.047 160.425 133.035 160.567Z" fill="#FF9500"/>
<path d="M133.112 165.929C132.876 166.853 132.972 167.831 133.383 168.691C133.75 169.438 134.341 170.051 135.074 170.445C139.93 172.799 143.642 172.873 149.017 172.335C149.163 172.321 149.297 172.25 149.391 172.137C149.485 172.025 149.531 171.88 149.519 171.734C149.508 171.588 149.439 171.452 149.328 171.356C149.218 171.26 149.074 171.211 148.927 171.22C146.726 171.289 144.522 171.202 142.333 170.959C140.045 170.662 137.814 170.029 135.711 169.081C135.233 168.865 134.832 168.509 134.562 168.059C134.196 167.446 134.06 166.724 134.178 166.02C134.183 165.883 134.135 165.748 134.044 165.645C133.953 165.542 133.825 165.478 133.688 165.466C133.551 165.455 133.415 165.496 133.307 165.582C133.2 165.669 133.13 165.793 133.112 165.929Z" fill="#FF9500"/>
<path d="M133.035 171.853C132.801 172.777 132.898 173.755 133.308 174.616C133.676 175.361 134.266 175.974 134.998 176.37C139.861 178.726 143.587 178.795 148.942 178.26C149.09 178.248 149.227 178.178 149.323 178.065C149.419 177.952 149.466 177.806 149.454 177.658C149.443 177.51 149.373 177.373 149.26 177.277C149.147 177.181 149.001 177.134 148.853 177.146C146.651 177.215 144.446 177.128 142.257 176.885C139.97 176.588 137.739 175.955 135.637 175.006C135.158 174.79 134.757 174.434 134.486 173.984C134.123 173.371 133.989 172.649 134.108 171.946C134.121 171.803 134.076 171.662 133.984 171.553C133.892 171.443 133.761 171.375 133.618 171.362C133.476 171.35 133.334 171.395 133.225 171.487C133.116 171.579 133.047 171.71 133.035 171.853Z" fill="#FF9500"/>
<path d="M133.036 177.675C132.85 178.118 132.758 178.594 132.767 179.074C132.809 179.738 133.05 180.374 133.46 180.897C133.87 181.421 134.43 181.809 135.064 182.008C135.196 182.075 135.35 182.087 135.49 182.041C135.631 181.994 135.748 181.894 135.815 181.762C135.881 181.63 135.893 181.477 135.847 181.336C135.801 181.195 135.7 181.079 135.568 181.012C134.921 180.46 134.473 179.711 134.293 178.88C134.23 178.674 134.185 178.463 134.158 178.25L134.102 177.772C134.109 177.634 134.063 177.497 133.972 177.392C133.882 177.287 133.754 177.221 133.615 177.209C133.477 177.196 133.339 177.238 133.231 177.325C133.123 177.412 133.053 177.537 133.036 177.675Z" fill="#FF9500"/>
<path d="M133.279 146.807C133.05 147.73 133.149 148.704 133.559 149.562C133.926 150.305 134.516 150.916 135.245 151.309C140.393 153.829 144.892 153.861 150.617 153.066C150.764 153.048 150.898 152.973 150.99 152.856C151.081 152.74 151.122 152.592 151.105 152.445C151.087 152.298 151.012 152.164 150.895 152.072C150.779 151.981 150.631 151.939 150.484 151.957C147.824 152.147 145.153 152.103 142.501 151.825C140.213 151.536 137.98 150.909 135.875 149.966C135.396 149.748 134.994 149.389 134.723 148.938C134.36 148.323 134.226 147.6 134.345 146.896C134.35 146.758 134.301 146.625 134.21 146.522C134.118 146.42 133.991 146.356 133.854 146.345C133.718 146.334 133.582 146.375 133.475 146.461C133.368 146.547 133.298 146.671 133.279 146.807Z" fill="#FF9500"/>
<path d="M160.398 177.384C161.297 177.428 162.084 178.116 163.182 176.116C163.873 174.789 164.154 173.286 163.989 171.799C163.994 171.722 163.983 171.645 163.958 171.572C163.933 171.499 163.893 171.432 163.841 171.375C163.79 171.318 163.727 171.271 163.657 171.239C163.587 171.206 163.511 171.188 163.434 171.185C163.357 171.182 163.28 171.195 163.208 171.222C163.136 171.249 163.07 171.291 163.014 171.344C162.959 171.398 162.914 171.462 162.883 171.532C162.853 171.603 162.837 171.679 162.836 171.757C162.603 173.29 162.081 174.765 161.297 176.104C161.313 176.08 161.362 176.062 161.374 176.086C161.533 176.383 160.627 176.198 160.283 176.285C160.137 176.3 160.004 176.373 159.911 176.486C159.819 176.6 159.776 176.746 159.791 176.892C159.806 177.037 159.879 177.171 159.993 177.263C160.106 177.356 160.252 177.399 160.398 177.384Z" fill="#FF9500"/>
<path d="M160.061 183.359C160.176 183.366 160.29 183.382 160.403 183.406C160.576 183.43 160.752 183.44 160.927 183.436C161.911 183.414 163.686 181.886 163.951 179.56C164.015 178.95 164.006 178.335 163.923 177.728C163.92 177.575 163.857 177.429 163.746 177.323C163.636 177.217 163.488 177.159 163.335 177.162C163.182 177.165 163.036 177.229 162.93 177.339C162.824 177.45 162.766 177.598 162.769 177.751C162.684 179.385 161.965 180.922 160.765 182.035C160.731 182.074 160.687 182.104 160.639 182.122C160.181 182.226 159.312 182.217 159.425 182.907C159.45 183.051 159.531 183.179 159.65 183.264C159.769 183.349 159.917 183.383 160.061 183.359Z" fill="#FF9500"/>
<path d="M161.83 170.383C162.289 170.321 162.725 170.139 163.093 169.857C163.461 169.575 163.75 169.202 163.93 168.774C164.394 167.626 164.406 166.344 163.965 165.186C163.929 165.048 163.842 164.928 163.722 164.85C163.602 164.772 163.457 164.741 163.316 164.764C163.175 164.786 163.047 164.861 162.957 164.972C162.868 165.084 162.823 165.225 162.831 165.367C162.872 166.617 162.579 168.73 161.48 169.336C161.351 169.39 161.246 169.49 161.188 169.618C161.13 169.745 161.122 169.89 161.166 170.023C161.21 170.156 161.304 170.267 161.427 170.334C161.55 170.401 161.694 170.419 161.83 170.383Z" fill="#FF9500"/>
<path d="M234.401 123.99C234.932 121.903 236.008 119.405 236.895 116.323C236.939 116.183 236.925 116.032 236.857 115.902C236.789 115.772 236.672 115.675 236.532 115.631C236.392 115.588 236.241 115.602 236.111 115.67C235.981 115.738 235.884 115.855 235.84 115.994C234.496 120.026 232.839 120.921 231.682 129.56C231.191 133.226 231.151 135.261 230.863 137.833C229.099 137.158 227.246 136.743 225.362 136.599C226.985 131.055 228.865 121.926 229.229 120.5C229.637 118.848 228.495 117.77 228.128 116.41C228.093 116.272 228.005 116.153 227.883 116.079C227.761 116.005 227.615 115.982 227.476 116.015C226.594 116.231 227.417 117.487 227.828 118.953C228.08 119.871 227.894 119.792 227.27 122.252C227.167 122.657 226.819 124.22 226.38 126.212C225.464 125.671 224.446 125.325 223.389 125.197C222.333 125.069 221.262 125.161 220.243 125.468C220.691 123.9 220.992 122.294 221.144 120.67C221.166 120.533 221.134 120.392 221.055 120.278C220.976 120.163 220.856 120.084 220.719 120.056C220.583 120.028 220.441 120.054 220.323 120.128C220.206 120.203 220.121 120.32 220.088 120.455C219.568 122.273 219.153 124.12 218.847 125.986C217.784 126.473 216.86 127.217 216.158 128.152C216.042 128.31 215.98 128.502 215.98 128.698C215.98 128.894 216.042 129.085 216.158 129.243C215.03 131.189 214.351 133.364 214.173 135.606C212.142 135.348 210.079 135.601 208.17 136.341C207.982 136.41 207.821 136.537 207.712 136.704C207.602 136.872 207.55 137.07 207.562 137.269C207.64 138.771 207.817 140.267 208.093 141.745C208.383 143.325 208.846 144.868 209.471 146.348C208.701 149.816 208.109 153.322 207.7 156.851C207.687 156.97 207.698 157.089 207.732 157.204C207.766 157.318 207.822 157.424 207.897 157.517C207.972 157.61 208.064 157.686 208.169 157.743C208.274 157.8 208.389 157.836 208.507 157.848C207.665 158.465 206.848 159.108 206.015 159.842C205.924 159.382 205.721 158.952 205.423 158.59C205.126 158.228 204.743 157.945 204.309 157.767C202.568 157.22 200.723 158.24 199.192 158.632C199.026 158.677 198.885 158.786 198.798 158.934C198.71 159.082 198.684 159.259 198.725 159.426C198.765 159.593 198.869 159.738 199.014 159.83C199.159 159.922 199.335 159.954 199.503 159.919C200.874 159.608 202.702 158.855 203.8 159.26C203.911 159.317 204.01 159.398 204.088 159.495C204.167 159.593 204.224 159.706 204.256 159.827C204.398 160.169 205.311 165.732 205.329 165.86C205.575 167.577 205.733 169.309 205.861 171.037C205.84 171.529 205.777 172.018 205.673 172.499C204.161 169.33 203.82 165.533 199.974 163.499C199.902 163.459 199.822 163.433 199.739 163.424C199.656 163.415 199.573 163.422 199.493 163.445C199.413 163.468 199.338 163.506 199.273 163.558C199.208 163.61 199.154 163.674 199.114 163.747C199.074 163.82 199.048 163.9 199.039 163.983C199.03 164.065 199.037 164.149 199.06 164.229C199.083 164.309 199.121 164.383 199.173 164.448C199.225 164.513 199.289 164.567 199.362 164.608C202.564 166.451 202.591 170.561 204.223 173.731C203.565 174.369 203.041 175.132 202.682 175.975C202.391 176.568 202.168 177.192 202.019 177.835C201.329 177.468 200.734 176.945 200.281 176.308C199.828 175.67 199.531 174.935 199.413 174.162C199.567 173.733 199.722 173.414 199.94 172.902C200.611 171.43 201.161 169.907 201.586 168.346C201.665 168.198 201.682 168.024 201.633 167.863C201.584 167.702 201.472 167.567 201.324 167.488C201.175 167.409 201.002 167.392 200.841 167.441C200.68 167.491 200.545 167.602 200.466 167.75C199.746 168.584 199.195 169.549 198.843 170.593C198.576 171.276 198.389 171.988 198.285 172.715C197.292 172.361 196.205 172.372 195.219 172.746C194.854 172.909 194.458 172.993 194.058 172.993C193.658 172.993 193.262 172.909 192.897 172.746C192.391 172.499 191.838 172.361 191.275 172.341C190.712 172.321 190.151 172.42 189.629 172.631C189.29 172.812 189.016 173.093 188.843 173.436C188.67 173.779 188.607 174.167 188.662 174.547C188.887 175.694 189.45 176.747 190.28 177.571C190.982 178.183 191.753 178.712 192.577 179.147C195.18 180.587 199.381 183.32 201.796 181.34C202.632 180.655 202.313 180.611 203.894 177.728C204.391 176.846 204.813 175.924 205.154 174.971C205.415 175.121 205.723 175.169 206.017 175.105C206.311 175.041 206.571 174.87 206.747 174.626C207.144 174.025 207.42 173.353 207.56 172.646C209.353 171.472 211.075 170.387 212.838 169.338C212.222 167.895 211.816 166.371 211.633 164.813C211.277 164.861 210.923 164.926 210.563 164.974C210.463 164.994 210.359 164.973 210.274 164.917C210.189 164.86 210.13 164.772 210.111 164.671C210.091 164.571 210.111 164.467 210.168 164.382C210.225 164.297 210.313 164.238 210.414 164.218C210.936 164.052 211.467 163.913 212.005 163.804C212.13 163.79 212.256 163.825 212.355 163.902C212.455 163.979 212.521 164.091 212.539 164.216C212.612 164.674 212.942 166.106 213.095 166.696C213.765 169.873 215.452 172.745 217.9 174.878C218.041 175.008 218.221 175.089 218.411 175.11C218.602 175.131 218.794 175.09 218.96 174.994C219.523 174.661 220.075 174.311 220.62 173.948C221.875 174.941 223.403 175.526 225 175.626C226.597 175.726 228.187 175.335 229.555 174.506C229.868 175.616 231.056 176.285 231.604 176.881C232.059 177.638 232.583 178.351 233.17 179.009C233.369 179.205 233.61 179.351 233.875 179.437C234.14 179.523 234.422 179.546 234.697 179.504C234.973 179.462 235.234 179.356 235.462 179.195C235.689 179.034 235.876 178.822 236.007 178.576C237.827 175.764 236.913 165.842 231.495 167.523H231.477C231.353 167.465 231.214 167.449 231.081 167.477C230.947 167.505 230.826 167.576 230.736 167.678C230.366 167.612 230.005 167.522 229.626 167.467C228.428 167.29 228.581 167.399 228.564 167.257C228.549 167.126 228.5 167.001 228.422 166.893C228.344 166.786 228.241 166.701 228.12 166.645C225.86 165.606 225.151 162.701 225.269 160.247C225.952 160.341 226.518 160.418 226.923 160.472C227.136 160.502 227.352 160.453 227.531 160.336C227.711 160.218 227.842 160.04 227.9 159.834C228.748 156.372 229.346 152.853 229.688 149.305C230.289 149.006 232.074 145.412 232.39 144.808C233.215 143.401 233.869 141.901 234.338 140.339C234.381 140.16 234.367 139.971 234.297 139.801C234.228 139.63 234.106 139.486 233.95 139.388C233.318 138.983 232.661 138.621 231.982 138.301C233.216 130.463 233.522 127.444 234.401 123.99ZM200.912 180.2C199.79 181.024 197.602 179.948 196.391 179.294C195.53 178.827 192.774 177.138 192.45 176.918C191.751 176.498 191.184 175.892 190.812 175.166C190.351 174.284 190.469 174.127 191.139 174.219C191.645 174.319 192.144 174.454 192.631 174.622C194.447 175.144 194.66 174.635 196.639 174.279C197.578 174.109 197.647 174.302 197.81 174.669C198.051 175.665 198.524 176.589 199.19 177.367C199.857 178.145 200.698 178.755 201.645 179.146C201.509 179.561 201.254 179.928 200.912 180.2ZM231.671 173.443C231.873 173.193 232.045 172.921 232.183 172.631C232.635 171.376 232.629 170.001 232.166 168.749C235.568 168.364 235.442 176.34 234.346 177.66C234.169 177.427 234.01 177.18 233.872 176.922C232.498 174.85 233.347 176.093 231.26 174.087C231.099 173.932 231.508 173.66 231.671 173.443ZM216.32 133.699C216.546 132.496 216.86 131.311 217.259 130.154C219.541 131.735 222.308 132.458 225.071 132.198C224.309 135.64 223.223 139.002 221.828 142.239C220.051 145.522 217.783 145.893 217.204 142.743C217.831 143.02 218.506 143.172 219.191 143.189C219.362 143.193 219.528 143.131 219.654 143.015C219.78 142.899 219.857 142.739 219.868 142.569C219.878 142.398 219.823 142.229 219.712 142.099C219.602 141.968 219.445 141.885 219.275 141.867C215.915 141.566 215.607 136.827 216.32 133.699ZM227.095 168.948C227.563 169.111 228.051 169.208 228.545 169.237C229.321 169.315 230.106 169.262 230.865 169.081C230.955 169.462 231.006 169.851 231.018 170.242C231.068 170.64 231.029 171.044 230.903 171.424C230.776 171.805 230.567 172.152 230.289 172.441C229.515 172.892 228.678 173.226 227.807 173.431C225.879 173.97 223.824 173.815 221.999 172.993C223.806 171.685 225.328 170.412 227.095 168.948ZM226.404 158.609C226.278 158.59 209.457 156.169 209.584 156.169C209.883 152.828 210.417 148.623 210.754 146.583C212.561 145.977 214.335 145.276 216.068 144.483C216.987 147.103 219.831 147.726 222.201 145.006C223.969 146.76 226.045 148.174 228.324 149.178C227.852 152.353 227.211 155.501 226.404 158.609Z" fill="#212941"/>
<path d="M81.1119 176.097L81.0993 176.113C81.1817 176.871 81.0399 177.638 80.6915 178.317C80.343 178.996 79.8032 179.558 79.1387 179.934C73.7888 182.958 67.0427 183.731 60.9204 183.152C58.4502 182.869 56.0512 182.143 53.8379 181.01C53.1154 180.627 52.5301 180.029 52.1634 179.298C51.7584 178.446 51.6442 177.485 51.8383 176.562C51.8563 176.426 51.9264 176.301 52.0338 176.215C52.1413 176.129 52.2779 176.087 52.4153 176.099C52.5526 176.111 52.6801 176.175 52.7712 176.279C52.8623 176.382 52.91 176.517 52.9043 176.654C52.77 177.361 52.8877 178.092 53.2369 178.721C53.5052 179.191 53.9134 179.567 54.4049 179.794C61.2682 182.944 72.1432 182.069 78.5251 178.794C78.9956 178.552 79.3847 178.178 79.6441 177.717C79.9035 177.256 80.0218 176.73 79.9842 176.202C79.9703 176.053 80.0164 175.904 80.1124 175.788C80.2083 175.672 80.3462 175.6 80.4958 175.586C80.6453 175.572 80.7942 175.618 80.9098 175.714C81.0253 175.81 81.098 175.948 81.1119 176.097Z" fill="#FF9500"/>
<path d="M120.414 159.607C120.563 159.592 120.71 159.637 120.826 159.732C120.941 159.826 121.015 159.962 121.03 160.111L121.018 160.126C121.1 160.885 120.958 161.651 120.61 162.33C120.261 163.009 119.722 163.572 119.057 163.947C112.301 167.381 104.531 168.253 97.1823 166.403C95.9959 166.038 94.8434 165.572 93.7374 165.008C93.027 164.636 92.4497 164.053 92.0852 163.338C91.7207 162.624 91.587 161.814 91.7025 161.02L91.758 160.579C91.764 160.509 91.7838 160.441 91.8162 160.379C91.8486 160.316 91.893 160.261 91.9468 160.215C92.0006 160.17 92.0628 160.136 92.1299 160.115C92.1969 160.093 92.2675 160.086 92.3376 160.092C92.4076 160.098 92.4758 160.117 92.5383 160.15C92.6007 160.182 92.6561 160.227 92.7014 160.28C92.7467 160.334 92.7809 160.396 92.8022 160.464C92.8234 160.531 92.8312 160.601 92.8252 160.671L92.795 161.14C92.7484 161.688 92.8698 162.237 93.143 162.714C93.4163 163.191 93.8284 163.574 94.3246 163.811C101.437 167.087 112.309 165.953 118.446 162.811C118.917 162.569 119.306 162.195 119.565 161.734C119.825 161.273 119.943 160.746 119.905 160.219C119.892 160.07 119.939 159.923 120.034 159.808C120.129 159.694 120.266 159.621 120.414 159.607Z" fill="#FF9500"/>
<path d="M120.414 168.992C120.563 168.978 120.71 169.023 120.826 169.118C120.941 169.212 121.015 169.348 121.03 169.496L121.018 169.511C121.1 170.27 120.958 171.037 120.61 171.716C120.261 172.395 119.722 172.957 119.057 173.333C112.301 176.767 104.531 177.639 97.1823 175.789C95.9959 175.424 94.8434 174.957 93.7374 174.394C93.027 174.022 92.4497 173.438 92.0852 172.724C91.7207 172.01 91.587 171.2 91.7025 170.406L91.758 169.965C91.7702 169.823 91.8381 169.693 91.9468 169.601C92.0555 169.51 92.196 169.465 92.3376 169.477C92.4791 169.49 92.61 169.558 92.7014 169.666C92.7929 169.775 92.8374 169.915 92.8252 170.057L92.795 170.526C92.7484 171.074 92.8698 171.623 93.143 172.1C93.4163 172.577 93.8284 172.96 94.3246 173.197C101.422 176.463 112.296 175.352 118.446 172.196C118.917 171.955 119.306 171.581 119.565 171.12C119.825 170.659 119.943 170.132 119.905 169.605C119.892 169.456 119.939 169.309 120.034 169.194C120.129 169.079 120.266 169.007 120.414 168.992Z" fill="#FF9500"/>
<path d="M120.414 173.691C120.563 173.677 120.71 173.722 120.826 173.816C120.941 173.911 121.015 174.047 121.03 174.195L121.018 174.21C121.1 174.969 120.958 175.735 120.61 176.415C120.261 177.094 119.722 177.656 119.057 178.032C112.301 181.465 104.531 182.338 97.1823 180.487C95.9959 180.123 94.8434 179.656 93.7374 179.093C93.027 178.72 92.4497 178.137 92.0852 177.423C91.7207 176.708 91.587 175.898 91.7025 175.105L91.758 174.664C91.7702 174.522 91.8381 174.391 91.9468 174.3C92.0555 174.208 92.196 174.164 92.3376 174.176C92.4791 174.188 92.61 174.256 92.7014 174.365C92.7929 174.474 92.8374 174.614 92.8252 174.756L92.795 175.224C92.7484 175.772 92.8698 176.321 93.143 176.799C93.4163 177.276 93.8284 177.658 94.3246 177.896C101.422 181.162 112.296 180.05 118.446 176.895C118.916 176.654 119.306 176.279 119.565 175.819C119.824 175.358 119.943 174.831 119.905 174.303C119.892 174.155 119.939 174.007 120.034 173.893C120.129 173.778 120.266 173.706 120.414 173.691Z" fill="#FF9500"/>
<path d="M120.767 178.892L120.754 178.907C120.838 179.666 120.696 180.433 120.348 181.112C119.999 181.792 119.459 182.354 118.794 182.729C113.443 185.753 106.698 186.526 100.576 185.947C98.1053 185.663 95.7063 184.938 93.4931 183.805C92.7723 183.424 92.1876 182.829 91.8198 182.101C91.4146 181.25 91.3004 180.289 91.4947 179.366C91.5127 179.229 91.5827 179.105 91.6902 179.018C91.7977 178.932 91.9343 178.89 92.0716 178.902C92.209 178.914 92.3365 178.978 92.4276 179.082C92.5187 179.185 92.5663 179.32 92.5607 179.458C92.4271 180.165 92.5448 180.896 92.8933 181.525C93.1623 181.995 93.5704 182.37 94.0613 182.598C100.903 185.748 111.784 184.881 118.181 181.597C118.652 181.356 119.042 180.982 119.301 180.521C119.561 180.06 119.679 179.533 119.642 179.005C119.632 178.859 119.679 178.714 119.774 178.602C119.869 178.49 120.003 178.419 120.15 178.404C120.296 178.389 120.442 178.432 120.557 178.523C120.672 178.614 120.748 178.747 120.767 178.892Z" fill="#FF9500"/>
<path d="M81.1119 181.121L81.0993 181.136C81.1817 181.895 81.0399 182.662 80.6915 183.341C80.343 184.02 79.8032 184.582 79.1387 184.958C73.7875 187.982 67.0427 188.754 60.9204 188.176C58.4502 187.892 56.0512 187.167 53.8379 186.034C53.116 185.652 52.5307 185.055 52.1634 184.325C51.7584 183.474 51.6442 182.513 51.8383 181.59C51.8563 181.453 51.9264 181.329 52.0338 181.242C52.1413 181.156 52.2779 181.114 52.4153 181.126C52.5526 181.138 52.6801 181.203 52.7712 181.306C52.8623 181.409 52.91 181.544 52.9043 181.682C52.77 182.389 52.8877 183.12 53.2369 183.749C53.5052 184.22 53.9135 184.595 54.4049 184.822C61.3261 188.006 72.2062 187.063 78.5251 183.821C78.9956 183.58 79.3847 183.205 79.6441 182.745C79.9035 182.284 80.0218 181.757 79.9842 181.23C79.9698 181.08 80.0155 180.931 80.111 180.815C80.2066 180.699 80.3443 180.626 80.4939 180.611C80.6434 180.597 80.7925 180.643 80.9084 180.738C81.0243 180.834 81.0975 180.972 81.1119 181.121Z" fill="#FF9500"/>
<path d="M120.414 164.633C120.563 164.618 120.711 164.663 120.826 164.757C120.942 164.852 121.015 164.988 121.03 165.137L121.018 165.15C121.099 165.908 120.956 166.673 120.608 167.351C120.26 168.029 119.72 168.59 119.057 168.966C112.301 172.398 104.531 173.27 97.1822 171.42C95.9957 171.056 94.8431 170.59 93.7374 170.027C93.027 169.654 92.4497 169.07 92.0852 168.356C91.7207 167.641 91.587 166.831 91.7025 166.037L91.7579 165.596C91.7703 165.455 91.8384 165.324 91.9472 165.233C92.056 165.141 92.1966 165.097 92.3381 165.109C92.4797 165.122 92.6105 165.19 92.7018 165.299C92.7931 165.408 92.8375 165.548 92.8251 165.69L92.7949 166.157C92.7459 166.707 92.8662 167.259 93.1396 167.738C93.413 168.217 93.8265 168.602 94.3245 168.84C101.415 172.101 112.283 170.999 118.446 167.832C118.917 167.59 119.306 167.216 119.565 166.755C119.825 166.294 119.943 165.767 119.905 165.24C119.893 165.092 119.94 164.946 120.035 164.832C120.131 164.719 120.267 164.647 120.414 164.633Z" fill="#FF9500"/>
<path d="M79.0428 165.788C78.8827 165.935 69.5121 161.651 58.3788 164.843C55.763 165.593 51.3366 167.12 51.3467 169.82C51.3467 169.946 51.4261 172.119 51.5092 173.319C51.5563 173.953 51.7544 174.567 52.0872 175.109C52.4199 175.651 52.8776 176.105 53.4219 176.434C60.4779 180.663 70.4899 179.993 78.0007 176.728C79.3657 176.308 80.5523 175.446 81.3738 174.278C81.6886 173.733 81.8619 173.119 81.8778 172.49C81.9823 170.016 81.9886 170.183 81.942 170.047C83.0168 168.159 81.0814 166.536 79.0428 165.788ZM62.2722 170.764C63.4812 170.887 64.7 170.878 65.9073 170.738C65.8657 170.64 65.6817 170.195 65.6301 170.069C64.6396 170.177 63.6404 169.966 62.7787 169.466C62.0013 168.87 61.7707 167.948 62.5771 167.389C63.0704 167.06 63.6207 166.825 64.2 166.696C64.1461 166.501 64.104 166.302 64.074 166.102C64.0403 165.966 64.0612 165.822 64.132 165.702C64.2029 165.581 64.3182 165.493 64.4532 165.456C64.5882 165.419 64.7323 165.437 64.8545 165.505C64.9767 165.573 65.0674 165.687 65.1072 165.821C65.2049 166.044 65.323 166.258 65.46 166.459C66.1515 166.346 66.8508 166.287 67.5516 166.282C67.6219 166.28 67.6919 166.292 67.7576 166.317C67.8234 166.342 67.8835 166.38 67.9346 166.428C67.9858 166.476 68.0269 166.534 68.0556 166.598C68.0844 166.663 68.1002 166.732 68.1022 166.802C68.1042 166.873 68.0923 166.943 68.0672 167.008C68.0421 167.074 68.0044 167.134 67.956 167.185C67.9077 167.236 67.8498 167.278 67.7856 167.306C67.7214 167.335 67.6521 167.351 67.5818 167.353C67.115 167.396 66.6519 167.472 66.1958 167.58C66.3689 167.86 66.5246 168.15 66.662 168.449C67.6398 168.366 68.6245 168.419 69.5877 168.607C71.673 169.1 71.5193 171.612 67.8036 172.009C67.8388 172.135 67.8754 172.268 67.9144 172.398C67.9646 172.535 67.9595 172.685 67.9003 172.818C67.8411 172.951 67.7324 173.056 67.5973 173.11C67.4621 173.164 67.3112 173.163 67.1766 173.108C67.042 173.053 66.9342 172.947 66.8762 172.814C66.7502 172.569 66.6242 172.326 66.5083 172.082C65.049 172.203 63.5801 172.134 62.1386 171.876C61.9911 171.859 61.8566 171.783 61.7648 171.666C61.673 171.549 61.6314 171.401 61.6491 171.253C61.6668 171.106 61.7424 170.971 61.8592 170.879C61.9761 170.788 62.1246 170.746 62.2722 170.764ZM80.6682 172.408C80.6389 172.842 80.5048 173.262 80.2774 173.632C80.0501 174.003 79.7362 174.312 79.3628 174.535C77.7732 175.362 76.0957 176.008 74.3619 176.461C66.4113 178.836 58.879 177.84 54.1111 175.224C53.6244 174.908 53.2313 174.468 52.9727 173.948C52.7141 173.429 52.5994 172.849 52.6407 172.271C54.129 173.473 55.9069 174.264 57.7966 174.564C62.1208 175.113 66.4946 175.151 70.8276 174.676C73.9246 174.289 78.3876 173.072 80.7589 171.294L80.6682 172.408Z" fill="#FF9500"/>
<path d="M67.4368 170.576C68.0066 170.524 68.5619 170.367 69.0748 170.114C68.4787 170.016 67.8737 169.984 67.2705 170.017C67.3234 170.172 67.3612 170.297 67.4368 170.576Z" fill="#FF9500"/>
<path d="M64.6717 167.973C64.3762 168.065 64.0902 168.184 63.8174 168.33C64.1786 168.424 64.5493 168.477 64.9224 168.487C64.8229 168.291 64.7637 168.162 64.6717 167.973Z" fill="#FF9500"/>
<path d="M109.001 154.128C108.401 154.03 107.792 153.997 107.186 154.031C107.25 154.208 107.318 154.392 107.39 154.586C107.95 154.533 108.497 154.378 109.001 154.128Z" fill="#FF9500"/>
<path d="M103.738 152.345C104.174 152.454 104.622 152.508 105.071 152.506C104.986 152.305 104.904 152.106 104.819 151.914C104.445 152.018 104.082 152.163 103.738 152.345Z" fill="#FF9500"/>
<path d="M121.851 154.059C122.933 152.169 121.001 150.55 118.953 149.8C118.827 149.917 109.273 145.705 98.2895 148.855C96.7095 149.308 93.6413 150.322 92.2075 151.771C91.0117 152.978 91.2612 153.818 91.3255 155.598C91.3481 156.176 91.3796 156.754 91.42 157.331C91.467 157.965 91.6652 158.579 91.9979 159.121C92.3307 159.663 92.7883 160.117 93.3326 160.446C100.395 164.682 110.421 163.999 117.91 160.741C119.275 160.321 120.462 159.458 121.283 158.29C121.599 157.746 121.772 157.131 121.787 156.502C121.89 155.692 121.912 154.874 121.851 154.059ZM102.195 154.778C103.478 154.907 104.77 154.89 106.049 154.729C105.954 154.52 105.856 154.302 105.758 154.082C104.701 154.212 103.63 154.001 102.702 153.479C101.925 152.886 101.694 151.967 102.499 151.404C103.062 151.034 103.692 150.78 104.354 150.656C104.288 150.467 104.233 150.274 104.189 150.079C104.155 149.943 104.176 149.799 104.247 149.679C104.318 149.558 104.433 149.47 104.568 149.433C104.703 149.396 104.847 149.414 104.969 149.482C105.092 149.55 105.182 149.664 105.222 149.798C105.289 150.041 105.415 150.263 105.587 150.447C106.213 150.349 106.845 150.299 107.477 150.297C107.616 150.298 107.748 150.353 107.847 150.45C107.946 150.547 108.003 150.679 108.007 150.817C108.011 150.955 107.961 151.09 107.868 151.192C107.775 151.295 107.646 151.357 107.508 151.366C107.068 151.406 106.632 151.477 106.202 151.577C106.311 151.818 106.434 152.109 106.58 152.459C108.075 152.393 110.585 152.31 110.839 153.774C111.009 154.766 109.979 155.49 108.989 155.784C108.632 155.886 108.267 155.957 107.898 155.998C107.941 156.124 107.984 156.243 108.024 156.369C108.079 156.506 108.078 156.66 108.019 156.796C107.961 156.932 107.851 157.04 107.714 157.095C107.576 157.15 107.422 157.148 107.286 157.09C107.15 157.032 107.042 156.922 106.987 156.784L106.661 156.079C105.127 156.217 103.581 156.152 102.064 155.885C101.929 155.856 101.809 155.777 101.728 155.664C101.647 155.551 101.61 155.412 101.626 155.274C101.642 155.136 101.709 155.009 101.813 154.917C101.918 154.826 102.053 154.776 102.192 154.778H102.195ZM120.591 156.417C120.562 156.85 120.428 157.27 120.201 157.641C119.974 158.011 119.66 158.321 119.286 158.543C117.695 159.372 116.017 160.019 114.281 160.474C106.343 162.845 98.8073 161.86 94.0319 159.236C93.5453 158.921 93.1523 158.48 92.8936 157.961C92.635 157.442 92.5203 156.863 92.5615 156.284C94.0506 157.484 95.8275 158.275 97.7162 158.576C102.04 159.125 106.414 159.163 110.747 158.688C113.842 158.301 118.321 157.079 120.678 155.306L120.591 156.417Z" fill="#FF9500"/>
<path d="M143.261 92.189L107.232 60.8679C107.112 60.7639 106.966 60.6966 106.809 60.6742C106.653 60.6519 106.493 60.6754 106.35 60.7419C1.00726 111.037 7.25183 107.934 7.24931 108.463C7.08929 144.143 7.15985 143.031 7.27955 143.157C7.51013 143.4 7.30979 143.332 12.3699 143.332C12.5239 143.334 12.6721 143.274 12.7822 143.166C12.8922 143.059 12.9551 142.912 12.9571 142.758L13.3742 111.234L106.568 67.1339L139.832 95.78C139.916 95.8535 140.015 95.9089 140.123 95.9425C140.23 95.9762 140.343 95.9875 140.454 95.9757C140.566 95.9638 140.674 95.9292 140.772 95.8739C140.869 95.8185 140.955 95.7437 141.022 95.654C142.567 93.5851 143.496 93.6304 143.533 92.8568C143.542 92.732 143.523 92.6069 143.475 92.4911C143.428 92.3753 143.355 92.2719 143.261 92.189Z" fill="#3A5AB7"/>
<path d="M18.1299 123.732C18.0783 129.263 17.8779 137.466 17.6083 142.772C17.6014 142.918 17.5367 143.056 17.4284 143.154C17.32 143.253 17.1769 143.305 17.0306 143.298C16.8842 143.291 16.7465 143.226 16.6479 143.118C16.5492 143.009 16.4977 142.866 16.5045 142.72C16.7565 136.75 16.7124 128.972 16.6885 122.997C16.6885 122.901 16.7075 122.806 16.7445 122.718C16.7814 122.629 16.8356 122.549 16.9038 122.482C16.972 122.414 17.0529 122.361 17.1418 122.325C17.2307 122.289 17.3259 122.272 17.4218 122.273C23.0124 122.329 30.2423 121.635 36.1882 121.44C40.8817 121.285 64.4021 121.02 71.4393 120.967C71.5446 120.967 71.649 120.987 71.7465 121.026C71.8441 121.066 71.9327 121.125 72.0075 121.199C72.3679 121.557 72.2444 119.149 71.666 161.547C71.6685 161.62 71.6561 161.694 71.6294 161.762C71.6027 161.831 71.5624 161.893 71.5109 161.946C71.4594 161.999 71.3978 162.04 71.3298 162.068C71.2617 162.096 71.1887 162.11 71.1151 162.109C71.0415 162.109 70.9689 162.093 70.9016 162.063C70.8343 162.033 70.7737 161.99 70.7236 161.936C70.6734 161.882 70.6347 161.819 70.6098 161.749C70.5849 161.68 70.5743 161.606 70.5787 161.533V122.574C63.8125 122.636 40.9246 122.925 36.2386 123.059C30.1012 123.234 24.3027 123.81 18.1299 123.732Z" fill="#212941"/>
<path d="M102.716 122.553C102.713 122.362 102.635 122.18 102.499 122.046C102.362 121.912 102.179 121.837 101.988 121.837L85.5439 121.988V122.013C85.4697 122.012 85.396 122.025 85.3269 122.051C85.2577 122.078 85.1946 122.118 85.141 122.17C85.0874 122.221 85.0444 122.282 85.0145 122.35C84.9846 122.418 84.9684 122.491 84.9668 122.565C85.0928 122.565 84.8723 122.07 84.7475 145.902C84.6831 146.309 84.6772 146.724 84.7299 147.133C84.813 147.903 85.1446 148.625 85.6745 149.189C86.2045 149.754 86.9039 150.131 87.667 150.263C89.6125 150.599 91.6099 150.469 93.4957 149.885C93.6428 149.857 93.7733 149.773 93.8599 149.651C93.9465 149.529 93.9822 149.378 93.9597 149.23C93.9371 149.082 93.858 148.949 93.739 148.858C93.62 148.768 93.4704 148.727 93.3218 148.744C91.5768 148.956 89.8111 148.931 88.0727 148.67C87.6008 148.588 87.161 148.376 86.8022 148.059C86.4434 147.742 86.1796 147.331 86.0403 146.873V146.854C103.912 146.854 102.648 146.958 102.991 146.602C103.334 146.247 103.2 147.993 102.716 122.553ZM92.9136 145.233H86.3377C86.3377 144.065 86.1335 125.312 86.1033 123.144L93.1593 123.208C93.0333 124.477 92.8783 125.739 92.8052 127.014C92.4739 132.751 93.1265 140.917 92.9136 145.236V145.233ZM94.0715 145.233C94.8931 135.364 94.0136 128.006 94.2719 123.219L101.266 123.283C101.279 124.722 101.531 143.097 101.566 145.233H94.0715Z" fill="#212941"/>
<path d="M127.68 140.539C127.359 140.435 127.021 140.397 126.685 140.427C126.349 140.458 126.022 140.556 125.725 140.716C125.428 140.876 125.167 141.095 124.956 141.359C124.746 141.623 124.592 141.927 124.503 142.253C124.409 142.588 124.383 142.94 124.427 143.286C124.471 143.632 124.584 143.965 124.759 144.267C124.933 144.569 125.167 144.832 125.445 145.043C125.723 145.253 126.041 145.405 126.379 145.491C126.708 145.578 127.052 145.596 127.388 145.544C127.725 145.492 128.047 145.372 128.335 145.19C128.623 145.008 128.87 144.769 129.061 144.487C129.253 144.206 129.384 143.887 129.447 143.553C129.529 142.926 129.4 142.289 129.08 141.743C128.76 141.198 128.268 140.774 127.68 140.539Z" fill="#212941"/>
<path d="M84.168 166.32C84.9066 166.509 85.666 166.604 86.4284 166.603C87.5491 166.615 88.6686 166.53 89.775 166.351C89.8508 166.352 89.926 166.339 89.9964 166.31C90.0668 166.282 90.131 166.241 90.1853 166.188C90.2396 166.135 90.2829 166.072 90.3128 166.002C90.3427 165.933 90.3586 165.858 90.3596 165.782C90.3606 165.706 90.3467 165.631 90.3186 165.561C90.2905 165.49 90.2488 165.426 90.196 165.372C90.1431 165.317 90.08 165.274 90.0104 165.244C89.9407 165.214 89.8659 165.198 89.7901 165.197C88.8608 165.035 87.9186 164.957 86.9753 164.966C86.0448 164.947 85.1151 165.031 84.2033 165.218C84.0603 165.218 83.9231 165.274 83.8206 165.374C83.718 165.473 83.6582 165.609 83.6536 165.752C83.649 165.895 83.7001 166.034 83.796 166.14C83.892 166.246 84.0253 166.31 84.168 166.32Z" fill="#212941"/>
<path d="M132.275 164.437C131.708 164.457 131.089 164.437 130.133 164.426C130.546 163.874 130.78 163.208 130.803 162.518C130.938 158.726 131.977 124.592 132.091 120.727C132.106 120.249 132.024 119.773 131.851 119.327C131.679 118.882 131.418 118.475 131.084 118.133C130.751 117.79 130.353 117.518 129.912 117.332C129.471 117.147 128.998 117.052 128.52 117.054H114.518C113.574 117.059 112.671 117.438 112.006 118.108C111.341 118.778 110.969 119.683 110.971 120.627L111.205 146.031C111.205 146.178 111.263 146.318 111.367 146.421C111.47 146.525 111.611 146.583 111.757 146.583C111.903 146.583 112.044 146.525 112.147 146.421C112.251 146.318 112.309 146.178 112.309 146.031L112.541 120.627C112.541 120.369 112.593 120.114 112.693 119.876C112.793 119.638 112.939 119.422 113.122 119.24C113.306 119.059 113.524 118.916 113.763 118.819C114.002 118.722 114.258 118.674 114.516 118.677H128.52C128.78 118.679 129.036 118.733 129.274 118.836C129.513 118.938 129.729 119.087 129.909 119.274C130.09 119.46 130.231 119.68 130.326 119.922C130.421 120.164 130.466 120.422 130.46 120.681C130.362 124.546 129.633 158.689 129.557 162.483C129.549 162.901 129.42 163.308 129.185 163.654C128.95 163.999 128.62 164.27 128.234 164.431C126.697 164.387 125.163 164.602 123.698 165.069C123.555 165.095 123.429 165.177 123.346 165.296C123.263 165.415 123.23 165.563 123.255 165.706C123.28 165.849 123.36 165.976 123.479 166.061C123.597 166.145 123.744 166.179 123.887 166.156C126.743 166.221 129.598 166.029 132.42 165.583C132.572 165.563 132.71 165.485 132.803 165.364C132.897 165.243 132.939 165.089 132.92 164.938C132.901 164.786 132.822 164.648 132.701 164.554C132.58 164.46 132.427 164.418 132.275 164.437Z" fill="#212941"/>
<path d="M52.2896 164.587C51.3157 164.633 50.3379 164.664 49.3601 164.689C49.4055 163.902 50.2018 149.695 49.8125 148.949C48.904 147.345 47.7951 145.864 46.5125 144.539C46.4323 144.452 46.3332 144.383 46.2228 144.339C46.1124 144.295 45.9935 144.276 45.8748 144.284C45.7562 144.292 45.6409 144.327 45.5375 144.386C45.4341 144.445 45.3453 144.526 45.2777 144.624C44.6994 145.467 43.8917 146.844 43.3033 147.89C43.137 148.186 43.3903 147.721 40.4419 144.473C40.3617 144.385 40.2627 144.316 40.1523 144.272C40.0418 144.227 39.9228 144.209 39.8041 144.217C39.6853 144.225 39.57 144.26 39.4666 144.319C39.3632 144.378 39.2745 144.459 39.2071 144.557C38.5519 145.51 37.6409 147.094 37.0751 148.103C36.2746 146.911 35.3765 145.788 34.3901 144.745C34.3099 144.657 34.2109 144.588 34.1005 144.544C33.99 144.5 33.871 144.481 33.7523 144.489C33.6336 144.497 33.5182 144.532 33.4148 144.591C33.3115 144.65 33.2227 144.731 33.1553 144.829C32.4988 145.784 31.6004 147.349 31.0347 148.357C30.2275 147.149 29.3196 146.011 28.3207 144.955C28.2405 144.867 28.1415 144.799 28.0311 144.754C27.9206 144.71 27.8016 144.691 27.6829 144.699C27.5641 144.707 27.4488 144.742 27.3454 144.801C27.242 144.86 27.1533 144.942 27.0859 145.04C26.5075 145.881 25.6999 147.256 25.1127 148.303C24.3317 147.161 23.4626 146.082 22.5133 145.076C22.4333 144.988 22.3343 144.919 22.2239 144.875C22.1134 144.83 21.9943 144.811 21.8755 144.819C21.7567 144.828 21.6413 144.863 21.5379 144.922C21.4345 144.981 21.3458 145.062 21.2785 145.161C20.7229 145.97 19.958 147.271 19.3747 148.301C18.5239 146.954 17.5417 145.696 16.4426 144.543C16.3624 144.456 16.2633 144.387 16.1529 144.343C16.0425 144.299 15.9236 144.28 15.8049 144.288C15.6863 144.296 15.571 144.331 15.4676 144.39C15.3642 144.448 15.2754 144.53 15.2078 144.628C14.6295 145.471 13.8218 146.848 13.2334 147.894C13.0784 148.167 13.3418 147.727 10.3896 144.476C10.3094 144.389 10.2104 144.32 10.1 144.275C9.98957 144.231 9.87054 144.212 9.75182 144.22C9.63309 144.229 9.51773 144.263 9.41435 144.322C9.31098 144.381 9.22225 144.463 9.15481 144.561C8.37487 145.695 7.07329 147.988 6.47353 149.104C6.3814 149.262 6.32385 149.437 6.30469 149.619C6.39919 163.87 6.46723 163.327 6.37147 165.05C6.3639 165.196 6.41451 165.339 6.51225 165.448C6.60998 165.557 6.7469 165.623 6.89311 165.632C9.88435 165.831 12.8705 166.01 15.8605 166.086C17.2049 166.121 41.2747 166.248 43.1219 166.203C46.219 166.126 49.3047 165.978 52.3615 165.739C52.5118 165.726 52.6511 165.655 52.7497 165.541C52.8482 165.427 52.8982 165.279 52.8888 165.128C52.8794 164.978 52.8114 164.837 52.6994 164.736C52.5875 164.635 52.4404 164.581 52.2896 164.587ZM31.8978 150.041C32.4131 149.12 33.1326 147.815 33.9037 146.576C34.796 147.552 35.5836 148.619 36.2536 149.76C36.3078 150.894 36.2398 159.84 36.1175 164.673L31.5198 164.608C31.5223 164.48 31.9507 150.419 31.8978 150.041ZM7.51303 164.546C7.51303 164.42 7.94899 150.131 7.89859 149.768C8.41267 148.846 9.13213 147.543 9.90451 146.302C10.7968 147.279 11.5844 148.347 12.2544 149.488C12.3098 150.648 12.2355 159.915 12.112 164.608C11.8777 164.609 8.81965 164.581 7.51303 164.546ZM13.561 164.611C13.561 164.485 13.9957 150.198 13.939 149.835C14.4531 148.914 15.1726 147.61 15.9449 146.37C16.8371 147.347 17.6246 148.414 18.2948 149.554C18.3503 150.688 18.2822 159.696 18.1562 164.579C16.6316 164.591 15.0995 164.606 13.5661 164.611H13.561ZM19.6468 164.568C19.6468 164.442 20.0677 150.741 20.016 150.368C20.5301 149.447 21.2495 148.143 22.0219 146.902C22.863 147.827 23.6136 148.83 24.2635 149.898C24.2042 150.102 24.2735 163.4 24.2471 164.552C22.7158 164.555 21.1853 164.56 19.6556 164.568H19.6468ZM25.4516 164.556C25.4907 163.164 25.9556 150.703 25.9141 150.087C26.4181 149.179 27.101 147.954 27.8293 146.785C28.7216 147.761 29.5092 148.828 30.1792 149.969C30.2409 151.252 30.1527 160.354 30.0532 164.585C29.8012 164.581 26.7356 164.556 25.4516 164.556ZM37.5565 164.696C37.5565 164.57 37.9949 150.133 37.9445 149.771C38.4586 148.849 39.1781 147.546 39.9505 146.305C40.8426 147.282 41.6301 148.349 42.3004 149.49C42.3596 150.703 42.2802 160.111 42.1555 164.746C40.6346 164.734 37.5615 164.693 37.5615 164.693L37.5565 164.696ZM43.6271 164.752C43.6271 164.626 44.0656 150.201 44.0165 149.838C44.5306 148.917 45.25 147.613 46.0211 146.373C46.914 147.349 47.702 148.416 48.3723 149.557C48.4303 150.765 48.3509 160.126 48.2287 164.716C46.7041 164.742 45.1694 164.751 43.6322 164.75L43.6271 164.752Z" fill="#212941"/>
<path d="M26.7731 130.643C29.8777 130.643 61.6864 130.55 65.5672 130.536C65.7098 130.529 65.8444 130.468 65.9429 130.364C66.0415 130.261 66.0964 130.124 66.0964 129.981C66.0964 129.838 66.0415 129.701 65.9429 129.597C65.8444 129.494 65.7098 129.432 65.5672 129.426C40.7817 129.104 49.7504 129.016 26.7592 129.579C26.6182 129.581 26.4837 129.639 26.3853 129.74C26.2868 129.841 26.2326 129.977 26.2344 130.118C26.2363 130.259 26.294 130.394 26.3951 130.492C26.4961 130.59 26.632 130.645 26.7731 130.643Z" fill="#212941"/>
<path d="M26.1164 139.573C28.397 139.667 30.6725 139.788 32.9544 139.825C34.4664 139.852 61.3649 139.293 64.0109 139.337C64.1582 139.341 64.3011 139.286 64.408 139.184C64.5149 139.083 64.5772 138.943 64.581 138.796C64.5849 138.648 64.53 138.505 64.4285 138.399C64.327 138.292 64.1872 138.229 64.0398 138.226C60.2422 138.093 56.4446 137.989 52.6431 138.009C49.9896 138.023 28.6175 138.547 26.1466 138.505C26.0051 138.501 25.8678 138.554 25.7649 138.651C25.6619 138.748 25.6019 138.882 25.5979 139.024C25.5939 139.165 25.6462 139.303 25.7435 139.406C25.8407 139.508 25.9748 139.569 26.1164 139.573Z" fill="#212941"/>
<path d="M51.8457 147.231C53.6097 147.255 53.4963 147.336 56.0238 147.27C61.6346 147.126 59.5027 147.12 62.2797 147.008C62.423 147.005 62.5595 146.947 62.6609 146.845C62.7623 146.744 62.8206 146.608 62.8236 146.464C62.8267 146.321 62.7744 146.182 62.6775 146.077C62.5806 145.971 62.4467 145.907 62.3037 145.898C58.7976 145.473 55.2483 145.565 51.7688 146.17C51.6281 146.18 51.4973 146.246 51.405 146.353C51.3127 146.459 51.2666 146.598 51.2768 146.739C51.287 146.88 51.3526 147.011 51.4593 147.103C51.566 147.195 51.705 147.241 51.8457 147.231Z" fill="#212941"/>
<path d="M52.4849 156.669C55.617 156.848 58.7589 156.728 61.8682 156.31C62.0108 156.304 62.1453 156.242 62.2439 156.139C62.3424 156.035 62.3974 155.898 62.3974 155.755C62.3974 155.613 62.3424 155.475 62.2439 155.372C62.1453 155.269 62.0108 155.207 61.8682 155.2C60.2922 155.065 58.7084 155.043 57.1293 155.136C55.5676 155.204 54.0111 155.361 52.4673 155.606C52.3263 155.608 52.192 155.667 52.0939 155.768C51.9958 155.869 51.9421 156.006 51.9444 156.147C51.9467 156.288 52.005 156.422 52.1064 156.52C52.2078 156.618 52.3439 156.672 52.4849 156.669Z" fill="#212941"/>
</svg>
