<svg width="252" height="252" viewBox="0 0 252 252" fill="none" xmlns="http://www.w3.org/2000/svg">
<path d="M102.004 124.116C102.171 111.538 102.19 63.7926 101.405 36.2175C101.367 35.5018 101.18 29.726 101.18 29.8533C101.405 29.7789 101.405 29.3291 101.105 29.3291C81.3143 28.3639 43.4425 28.6399 7.66608 31.0515C6.46782 31.1259 6.6921 31.2758 6.61776 32.3985C6.018 38.0143 6.46782 44.0787 6.39222 49.7688C5.96508 84.8598 8.6388 125.316 8.6388 125.539C8.63779 125.618 8.65257 125.696 8.68229 125.769C8.71201 125.842 8.75606 125.909 8.81183 125.964C8.86761 126.02 8.934 126.064 9.00707 126.094C9.08014 126.124 9.15842 126.138 9.2373 126.137C30.5477 126.274 100.056 125.606 102.004 125.389C102.678 125.389 102.752 124.266 102.004 124.116ZM28.2557 113.784C28.2557 113.452 28.4195 112.96 28.8542 112.96C46.0003 112.362 63.2951 112.212 80.4412 112.96C80.5617 112.963 80.6787 113.002 80.7766 113.073C80.8745 113.143 80.9488 113.241 80.9897 113.355C81.0306 113.468 81.0362 113.592 81.0058 113.708C80.9753 113.825 80.9103 113.93 80.8192 114.009C80.8935 116.33 80.8935 118.726 80.9678 121.047C81.0292 121.113 81.071 121.195 81.0888 121.284C81.1067 121.373 81.0998 121.464 81.069 121.549C81.0382 121.634 80.9846 121.709 80.914 121.766C80.8435 121.822 80.7588 121.858 80.6692 121.87H80.2912C77.9068 121.607 75.5054 121.532 73.1092 121.646C70.4884 121.571 35.8989 121.87 28.9349 121.87C28.8193 121.868 28.707 121.831 28.6132 121.763C28.5194 121.696 28.4487 121.601 28.4107 121.492C27.6081 119.265 28.2557 116.472 28.2557 113.784ZM17.9237 76.6484C18.8448 74.6165 20.2461 72.8391 22.007 71.4694C23.7679 70.0997 25.8354 69.1788 28.0315 68.786C28.1102 68.764 28.1926 68.7584 28.2736 68.7694C28.3546 68.7803 28.4325 68.8077 28.5025 68.8498C28.5726 68.8919 28.6333 68.9478 28.681 69.0142C28.7287 69.0806 28.7623 69.156 28.7799 69.2358C28.8555 69.4601 28.8555 69.6138 28.9298 69.8343C40.9187 63.8405 53.1521 60.6691 61.7239 50.293C62.5533 49.4833 63.1701 48.4814 63.5194 47.3761C63.6693 46.4021 62.8453 45.728 62.621 44.8296C62.5568 44.5982 62.5538 44.354 62.6124 44.1211C62.6709 43.8881 62.789 43.6744 62.9551 43.5009C63.1211 43.3273 63.3294 43.1999 63.5596 43.1311C63.7897 43.0623 64.0337 43.0545 64.2678 43.1085C65.2448 43.4226 66.1054 44.0221 66.7387 44.8296C70.8437 49.1401 71.2003 57.4183 72.3545 59.7241C72.5924 60.2082 72.9228 60.641 73.3272 60.9979C75.4055 62.7488 76.9648 65.0353 77.8359 67.6094C78.7071 70.1834 78.8568 72.9469 78.2689 75.6001C77.1576 80.2029 74.8669 81.6909 74.3012 83.0127C74.0939 83.5101 73.9918 84.0451 74.0013 84.5839C73.6233 90.9683 74.5255 94.0566 74.0013 95.8899C73.8971 96.3544 73.6676 96.7814 73.3377 97.1246C73.0079 97.4678 72.5902 97.7141 72.1302 97.8366C71.7131 97.9627 71.2675 97.9586 70.8528 97.8249C70.4381 97.6911 70.0741 97.4341 69.8093 97.0881C69.2095 96.1898 69.7337 94.9915 68.8353 94.393C67.8407 93.7645 66.7854 93.2377 65.6853 92.8205C59.1049 89.7562 52.0793 87.7572 44.8714 86.8985C43.4488 89.8935 43.6731 93.1884 43.973 96.4077C44.1973 98.7287 45.8453 103.221 44.351 105.243C42.4043 107.714 38.2123 105.317 36.7141 103.52C35.2406 101.461 34.1501 99.1534 33.4948 96.7076C32.4586 93.7354 31.682 90.679 31.1739 87.5726C28.4019 88.0224 25.4837 88.471 22.7886 87.5726C21.7509 87.2983 20.782 86.8102 19.9439 86.1398C19.1057 85.4694 18.4168 84.6313 17.9212 83.6792C17.3519 82.5948 17.0546 81.3884 17.0548 80.1637C17.055 78.9389 17.3528 77.7326 17.9225 76.6484H17.9237ZM80.5142 70.4341C79.9901 70.4341 79.9901 69.6844 80.5142 69.61C84.9053 69.3908 86.4123 69.5118 88.301 69.3858C89.9479 69.3858 90.695 69.7638 89.5736 70.4341C89.1011 70.7894 81.3572 70.4719 80.5142 70.4341ZM88.7496 87.2803C88.8252 87.5046 88.6009 87.6583 88.3716 87.6583C86.8747 87.2803 85.7508 85.8615 84.7037 84.8132C83.3555 83.5393 81.7831 82.4192 80.2862 81.2184C80.1869 81.1589 80.1154 81.0625 80.0873 80.9502C80.0591 80.838 80.0768 80.7192 80.1362 80.6199C80.1957 80.5207 80.2922 80.4491 80.4044 80.421C80.5167 80.3929 80.6355 80.4105 80.7347 80.47C82.2716 81.3628 83.7266 82.3895 85.083 83.5381C86.2057 84.4352 88.3766 85.7821 88.7509 87.2803H88.7496ZM86.1313 45.127C85.1573 44.6784 85.3816 44.1543 85.3816 43.0303C85.3708 39.2545 85.1711 35.4815 84.7831 31.7256C84.7819 31.6466 84.7966 31.5682 84.8262 31.495C84.8559 31.4218 84.8999 31.3552 84.9557 31.2993C85.0115 31.2434 85.0779 31.1993 85.1511 31.1695C85.2243 31.1397 85.3026 31.1248 85.3816 31.1259C89.615 30.7906 93.865 30.7157 98.1076 30.9016C98.1938 30.8131 98.3048 30.7528 98.426 30.7287C98.5471 30.7046 98.6727 30.7178 98.7863 30.7665C98.8998 30.8152 98.9959 30.8972 99.0619 31.0016C99.1279 31.106 99.1607 31.228 99.1559 31.3514C99.2303 33.6723 99.3059 44.5285 99.2303 44.977C99.202 45.1118 99.1257 45.2317 99.0156 45.3145C98.9055 45.3972 98.7691 45.4371 98.6318 45.4269C96.5591 45.4722 88.0478 45.98 86.1288 45.127H86.1313ZM86.4299 50.0687C86.5263 50.043 86.6282 50.0475 86.7219 50.0816C86.8156 50.1158 86.8966 50.1779 86.9538 50.2596C87.011 50.3413 87.0417 50.4386 87.0418 50.5383C87.0418 50.6381 87.0112 50.7354 86.9541 50.8171C86.5055 51.7155 85.3816 52.3153 84.6332 52.9138C83.7083 53.5866 76.7443 59.1432 76.4722 57.7799C76.3978 57.4813 76.772 57.2557 76.9963 57.1071C78.4561 55.9243 79.981 54.8243 81.5638 53.8122C84.8776 51.3262 85.4446 50.4265 86.4362 50.0687H86.4299Z" fill="#3A5AB7"/>
<path d="M64.3432 43.9287C63.9652 43.63 63.2193 43.9287 63.4449 44.4528C63.8229 45.4268 64.2676 46.3252 64.7175 47.2248C63.5107 49.4044 62.0257 51.418 60.2999 53.2149C52.4551 61.0596 44.245 64.2361 28.3299 71.1069C28.2901 70.7845 28.2053 70.4694 28.0779 70.1707C28.0261 70.0504 27.9287 69.9555 27.8072 69.9066C27.6856 69.8578 27.5497 69.8589 27.429 69.9099C25.3802 70.6359 23.4426 71.6439 21.6721 72.9049C18.6771 75.2258 16.8841 79.6434 18.7527 83.2369C21.1467 87.7288 26.6138 87.3546 30.8814 86.6061C30.9612 86.5884 31.0365 86.5546 31.1027 86.5069C31.169 86.4592 31.2249 86.3984 31.267 86.3284C31.309 86.2584 31.3364 86.1806 31.3475 86.0997C31.3585 86.0187 31.353 85.9364 31.3312 85.8577V85.7821H31.7508C31.9311 89.3943 32.6738 92.9563 33.952 96.3396C35.149 99.3334 37.102 104.051 40.5406 105.024C46.0052 106.522 42.7859 97.5366 42.5566 94.9914C42.1773 91.8665 42.6965 88.6981 44.0535 85.8577C50.266 86.4554 56.3648 87.9168 62.1735 90.1996C65.0196 91.3603 67.7727 92.7369 70.4089 94.3173C70.4089 94.7671 70.3345 95.2913 70.3345 95.7399C70.3334 95.9171 70.3674 96.0929 70.4347 96.2569C70.5019 96.4209 70.6011 96.5699 70.7264 96.6953C70.8517 96.8208 71.0006 96.92 71.1646 96.9875C71.3285 97.0549 71.5042 97.0891 71.6815 97.0881C72.0354 97.0767 72.3718 96.931 72.6222 96.6806C72.8727 96.4302 73.0183 96.0938 73.0297 95.7399C73.8273 82.5502 74.2242 52.8217 64.3432 43.9287ZM42.6297 102.928C42.6297 103.527 42.481 103.901 41.8069 103.901C40.6589 103.84 39.5812 103.329 38.8081 102.478C37.9609 101.568 37.2554 100.535 36.7152 99.414C35.2475 96.602 34.1647 93.6053 33.4959 90.5046C33.2716 89.6805 33.1179 88.9321 32.9718 88.1106C32.7791 87.3212 32.6294 86.5221 32.5232 85.7166C35.9383 85.491 39.3645 85.491 42.7796 85.7166C39.5893 92.2938 42.36 100.496 42.6297 102.928ZM31.3249 85.0362C30.8751 82.7152 29.2283 74.2543 28.7785 72.3102C31.8491 71.1119 34.9185 69.8393 37.9135 68.4924C46.5886 64.7124 53.8033 61.3356 60.6741 54.7155C62.6427 52.8515 64.1764 50.5766 65.166 48.0526C65.316 48.2769 66.7385 51.6462 67.182 53.0687C69.5067 59.7102 69.9805 66.0757 70.4013 72.3858C70.8495 79.1885 70.9025 86.0115 70.5601 92.8204C59.709 86.3466 44.1089 82.908 31.3249 85.0336V85.0362Z" fill="#212941"/>
<path d="M72.5757 61.8988C74.8525 64.2371 76.2754 67.2741 76.6151 70.5201C76.9548 73.766 76.1914 77.0318 74.448 79.7908C74.07 80.4649 75.0465 80.9891 75.4964 80.3906C79.1743 75.5408 78.8379 65.9598 73.1024 61.2978C73.0227 61.2279 72.9185 61.1926 72.8127 61.1996C72.707 61.2066 72.6084 61.2553 72.5385 61.335C72.4687 61.4147 72.4333 61.5188 72.4403 61.6246C72.4473 61.7303 72.496 61.829 72.5757 61.8988Z" fill="#212941"/>
<path d="M97.286 31.9498C94.5657 31.829 91.8404 31.8791 89.1263 32.0998C88.3343 32.1334 87.5517 32.2846 86.8041 32.5483C86.7589 32.5101 86.7038 32.4852 86.6452 32.4764C86.5866 32.4677 86.5267 32.4755 86.4722 32.4989C86.4178 32.5223 86.371 32.5605 86.337 32.609C86.303 32.6576 86.2833 32.7147 86.28 32.7739C86.1552 34.5448 86.1805 36.3231 86.3556 38.0898C86.4299 39.8866 86.3556 41.6833 86.4299 43.4058C86.4223 43.4864 86.4326 43.5677 86.46 43.6438C86.4875 43.72 86.5315 43.7891 86.5888 43.8463C86.6461 43.9035 86.7153 43.9473 86.7915 43.9746C86.8678 44.0019 86.9491 44.012 87.0297 44.0043C87.7781 44.2285 95.7892 44.2285 97.5859 44.1542C97.7015 44.1526 97.8138 44.1155 97.9076 44.0479C98.0014 43.9802 98.0721 43.8854 98.1101 43.7762C98.2868 39.932 98.2118 36.0804 97.8858 32.2459C97.8858 32.1741 97.5859 32.0242 97.286 31.9498ZM97.0618 33.298C96.9181 36.0398 97.0618 39.5199 96.9118 42.8816V43.0303C95.265 43.0303 93.6925 43.1059 92.0457 43.1059C87.6912 43.1059 88.17 43.0391 87.7038 43.1059C87.7659 41.4571 87.7158 39.8061 87.5538 38.1642C87.5311 36.5785 87.3555 34.9987 87.0297 33.4467C90.3675 33.1923 93.7178 33.1427 97.0618 33.298Z" fill="#212941"/>
<path d="M91.5964 38.5385C90.6413 39.4842 89.7414 40.4842 88.9013 41.5335C88.8552 41.6173 88.8376 41.7137 88.8511 41.8084C88.8646 41.903 88.9085 41.9907 88.9762 42.0582C89.0438 42.1257 89.1316 42.1694 89.2263 42.1828C89.3209 42.1961 89.4174 42.1782 89.501 42.132C90.6017 41.3552 91.6066 40.451 92.4948 39.4381C93.0189 39.9623 95.1156 42.1333 95.3411 42.2101C95.4313 42.2338 95.5257 42.236 95.6169 42.2166C95.7081 42.1972 95.7935 42.1568 95.8662 42.0985C95.9389 42.0402 95.997 41.9657 96.0358 41.8809C96.0746 41.7962 96.093 41.7035 96.0896 41.6104C96.0896 41.0862 93.9186 39.0652 93.3176 38.4667C94.36 37.3919 95.2889 36.2126 96.0896 34.9475C96.0928 34.8641 96.0761 34.7811 96.0409 34.7055C96.0057 34.6298 95.9529 34.5636 95.8871 34.5124C95.8212 34.4611 95.744 34.4263 95.662 34.4109C95.58 34.3954 95.4955 34.3996 95.4155 34.4233C94.331 35.3903 93.3519 36.4694 92.4948 37.6426C92.0462 37.2646 89.7228 35.0974 89.0512 34.4926C88.7513 34.194 88.3028 34.5682 88.4527 34.9424C89.3389 36.2734 90.3958 37.4823 91.5964 38.5385Z" fill="#212941"/>
<path d="M201.358 86.232V124.94C201.356 125.01 201.369 125.079 201.394 125.143C201.42 125.207 201.459 125.266 201.508 125.315C201.557 125.364 201.615 125.402 201.68 125.428C201.744 125.454 201.813 125.466 201.882 125.465L220.748 125.015C220.974 125.315 221.236 125.24 221.236 124.715V30.1532C221.536 29.7752 221.049 29.1792 220.45 29.1792C205.622 29.3518 201.883 29.4047 200.964 29.4652C200.865 29.4646 200.768 29.4896 200.682 29.5379C200.596 29.5862 200.524 29.656 200.473 29.7406C200.422 29.8251 200.394 29.9214 200.392 30.0201C200.389 30.1187 200.413 30.2163 200.46 30.3031C200.758 36.0676 201.358 79.7178 201.358 86.232Z" fill="#3A5AB7"/>
<path d="M225.54 112.062C225.54 114.233 225.39 122.772 225.614 124.788C225.617 124.875 225.642 124.959 225.686 125.034C225.73 125.109 225.792 125.172 225.866 125.216C225.941 125.261 226.025 125.286 226.112 125.29C226.199 125.293 226.285 125.275 226.363 125.236C229.209 125.686 239.241 125.386 241.262 125.386C242.761 125.386 245.681 125.612 245.681 124.414C245.681 114.623 245.231 103.551 245.231 76.5702C245.231 74.3992 245.381 66.0139 245.156 63.9916C245.212 63.9349 245.252 63.8641 245.272 63.7866C245.291 63.7091 245.289 63.6278 245.266 63.5512C245.244 63.4747 245.201 63.4056 245.142 63.3514C245.083 63.2972 245.011 63.2598 244.933 63.2432C244.585 63.1273 225.719 63.0907 225.092 63.4675C225.039 63.5065 224.996 63.5573 224.967 63.6159C224.937 63.6744 224.922 63.739 224.922 63.8045C224.922 63.8701 224.937 63.9347 224.967 63.9932C224.996 64.0518 225.039 64.1026 225.092 64.1416C224.942 65.7922 225.54 103.824 225.54 112.062ZM244.107 64.2197C243.677 68.9699 244.257 117.671 244.444 124.118C241.294 124.118 232.503 124.266 230.93 124.266C229.583 124.266 228.168 124.198 226.844 124.183C227.389 120.005 226.276 70.7301 226.214 69.8343C226.139 68.0375 226.064 66.1664 225.836 64.2903C229.832 64.294 244.322 64.2197 244.109 64.2197H244.107Z" fill="#212941"/>
<path d="M177.03 112.062C177.03 114.234 176.88 122.772 177.104 124.788C177.107 124.875 177.132 124.959 177.176 125.034C177.22 125.109 177.282 125.172 177.356 125.216C177.431 125.261 177.515 125.286 177.602 125.29C177.688 125.294 177.775 125.276 177.853 125.238C180.698 125.686 190.731 125.387 192.752 125.387C194.25 125.387 197.17 125.612 197.17 124.414C197.17 113.55 197.1 116.231 196.945 107.568C196.748 102.038 197.021 89.6757 196.421 89.6757C196.075 89.561 177.209 89.5232 176.58 89.9012C176.528 89.9403 176.485 89.991 176.456 90.0494C176.426 90.1079 176.411 90.1723 176.411 90.2376C176.411 90.303 176.426 90.3675 176.456 90.4259C176.485 90.4843 176.528 90.535 176.58 90.5741C176.425 92.2222 177.03 103.824 177.03 112.062ZM191.479 90.6497H195.597C195.432 92.4628 196.227 123.647 196.259 124.118C193.109 124.118 183.911 124.266 182.346 124.266C180.969 124.229 179.591 124.304 178.227 124.491C178.679 121.03 178.082 93.1583 177.778 90.7228C177.923 90.7202 189.828 90.6497 191.474 90.6497H191.479Z" fill="#212941"/>
<path d="M152.916 112.062C152.916 114.233 152.766 122.772 152.99 124.788C152.993 124.874 153.018 124.959 153.062 125.034C153.106 125.109 153.168 125.171 153.242 125.216C153.317 125.261 153.401 125.286 153.488 125.289C153.575 125.293 153.661 125.275 153.739 125.236C156.585 125.686 166.617 125.386 168.638 125.386C170.137 125.386 173.057 125.612 173.057 124.413C173.057 114.623 172.607 103.55 172.607 76.57C172.607 74.3991 172.756 54.0337 172.532 52.0126C172.588 51.9559 172.628 51.8851 172.648 51.8076C172.667 51.7301 172.665 51.6488 172.642 51.5722C172.62 51.4956 172.577 51.4266 172.518 51.3724C172.459 51.3182 172.387 51.2808 172.309 51.2642C171.96 51.1483 153.095 51.1117 152.468 51.4885C152.415 51.5275 152.372 51.5783 152.343 51.6369C152.313 51.6954 152.298 51.76 152.298 51.8255C152.298 51.8911 152.313 51.9557 152.343 52.0142C152.372 52.0727 152.415 52.1236 152.468 52.1626C152.316 53.8119 152.916 103.824 152.916 112.062ZM171.486 52.2394C171.336 53.8863 171.336 83.2354 171.412 87.28C171.429 89.3112 171.846 118.402 172.183 124.072C172.05 124.072 155.96 124.198 154.191 124.492C154.802 119.803 153.29 52.8883 153.219 52.3163C153.351 52.315 170.426 52.2394 171.486 52.2394Z" fill="#212941"/>
<path d="M128.733 112.062C128.733 114.233 128.583 122.772 128.807 124.788C128.81 124.875 128.835 124.959 128.879 125.034C128.923 125.109 128.985 125.171 129.059 125.216C129.134 125.261 129.218 125.286 129.305 125.29C129.391 125.294 129.478 125.276 129.556 125.238C132.401 125.686 142.434 125.386 144.455 125.386C145.953 125.386 148.873 125.612 148.873 124.414C148.873 113.55 148.803 116.23 148.648 107.567C148.502 103.482 148.58 78.159 148.124 78.0683C147.778 77.9524 128.912 77.9146 128.283 78.2926C128.231 78.3317 128.188 78.3826 128.159 78.4411C128.13 78.4996 128.114 78.5642 128.114 78.6296C128.114 78.695 128.13 78.7596 128.159 78.8181C128.188 78.8766 128.231 78.9275 128.283 78.9667C128.133 80.6903 128.733 103.824 128.733 112.062ZM147.3 79.1191C146.981 82.6345 147.348 118.836 148.018 124.192C144.868 124.192 135.696 124.341 134.123 124.341C132.747 124.303 131.37 124.379 130.006 124.566C130.295 122.341 130.121 103.614 130.08 101.356C130.006 93.0396 129.331 81.0696 129.032 79.2678C129.161 79.1393 147.436 79.1191 147.3 79.1191Z" fill="#FF9500"/>
<path d="M33.046 117.902C33.6766 118.091 34.3356 118.167 34.9927 118.126C39.7101 118.426 44.5762 118.202 49.2937 118.202C54.7596 118.202 74.7457 118.126 74.7457 118.126C74.9144 118.126 75.0763 118.059 75.1956 117.94C75.3149 117.82 75.382 117.659 75.382 117.49C75.382 117.321 75.3149 117.159 75.1956 117.04C75.0763 116.921 74.9144 116.854 74.7457 116.854C31.4193 117.151 34.1359 116.953 32.9679 117.303C32.9128 117.336 32.8685 117.385 32.8405 117.442C32.8126 117.5 32.8021 117.565 32.8104 117.628C32.8187 117.692 32.8454 117.752 32.8873 117.8C32.9291 117.849 32.9843 117.884 33.046 117.902Z" fill="#212941"/>
<path d="M86.6553 147.102C76.5476 147.102 21.8913 147.851 19.2705 147.851C16.5431 147.812 13.8162 147.963 11.1095 148.301C11.0445 148.32 10.9873 148.359 10.9466 148.413C10.9058 148.467 10.8838 148.533 10.8838 148.6C10.8838 148.668 10.9058 148.734 10.9466 148.788C10.9873 148.842 11.0445 148.881 11.1095 148.9C13.4936 149.173 15.8981 149.224 18.2915 149.05C19.2504 149.019 80.121 148.375 86.6503 148.375C86.8144 148.369 86.9696 148.299 87.0835 148.181C87.1975 148.063 87.2615 147.905 87.2622 147.741C87.2628 147.577 87.2001 147.419 87.087 147.299C86.974 147.18 86.8194 147.109 86.6553 147.102Z" fill="#212941"/>
<path d="M15.0026 158.183C16.4075 158.183 26.5631 158.435 38.4386 158.033C40.8326 157.958 43.6046 158.259 45.8512 157.359C46.524 157.061 45.4732 156.686 45.2514 156.611C44.3596 156.474 43.4542 156.449 42.5563 156.536C39.0698 156.767 22.7604 157.061 19.1959 157.061H15.4511C14.2018 156.961 12.9451 157.011 11.7077 157.209C11.6264 157.233 11.555 157.282 11.5041 157.349C11.4533 157.417 11.4258 157.499 11.4258 157.583C11.4258 157.668 11.4533 157.75 11.5041 157.818C11.555 157.885 11.6264 157.934 11.7077 157.958C12.7902 158.185 13.8991 158.261 15.0026 158.183Z" fill="#212941"/>
<path d="M11.784 167.393C15.564 167.708 57.968 166.718 61.7984 166.718C62.7931 166.796 63.7922 166.642 64.7178 166.27C65.0177 166.12 64.8678 165.82 64.6435 165.67C63.7679 165.42 62.8563 165.319 61.9471 165.372C61.9068 165.372 20.4565 166.044 17.9227 166.044C15.8487 166.006 13.7741 166.081 11.7084 166.27C11.1842 166.644 11.1842 167.393 11.784 167.393Z" fill="#212941"/>
<path d="M11.0357 176.378C12.9697 176.653 14.9291 176.703 16.8746 176.526C18.8213 176.526 67.4888 176.003 72.1306 176.003C72.2946 175.996 72.4495 175.926 72.563 175.807C72.6765 175.688 72.7398 175.531 72.7398 175.366C72.7398 175.202 72.6765 175.044 72.563 174.926C72.4495 174.807 72.2946 174.737 72.1306 174.729C63.9696 174.729 19.8696 175.329 17.6986 175.404C15.4928 175.327 13.285 175.478 11.1101 175.853C10.7358 175.853 10.7358 176.378 11.0357 176.378Z" fill="#212941"/>
<path d="M15.3027 185.735C16.6497 185.735 17.9979 185.735 19.2705 185.811C26.9149 185.783 44.7691 185.73 50.6445 185.433C52.0095 185.443 53.3694 185.266 54.6866 184.908C55.2863 184.683 54.5379 184.309 54.3086 184.235C53.1422 183.885 51.9065 183.833 50.715 184.085C46.053 184.373 13.671 184.609 15.75 184.609C14.4004 184.546 13.048 184.596 11.7067 184.759C11.6255 184.782 11.554 184.831 11.5032 184.899C11.4523 184.966 11.4248 185.049 11.4248 185.133C11.4248 185.218 11.4523 185.3 11.5032 185.367C11.554 185.435 11.6255 185.484 11.7067 185.507C12.8912 185.733 14.0992 185.809 15.3027 185.735Z" fill="#212941"/>
<path d="M11.7841 195.393C13.6552 195.543 15.5276 195.47 17.3987 195.47C19.3454 195.47 67.1888 194.122 68.2372 194.047C69.2769 194.05 70.3113 193.899 71.3065 193.598C71.6064 193.448 71.4565 193.073 71.2322 192.999C70.0805 192.579 67.4005 192.849 65.6882 192.849C57.2714 193.17 13.8052 194.362 11.7816 194.645C11.1844 194.645 11.1844 195.393 11.7841 195.393Z" fill="#212941"/>
<path d="M86.6554 202.208C76.5476 202.208 21.8913 202.956 19.2705 202.956C16.5431 202.917 13.8162 203.067 11.1095 203.406C11.0445 203.424 10.9873 203.464 10.9466 203.518C10.9058 203.572 10.8838 203.637 10.8838 203.705C10.8838 203.773 10.9058 203.838 10.9466 203.892C10.9873 203.946 11.0445 203.986 11.1095 204.004C13.4936 204.279 15.8981 204.329 18.2915 204.154C19.2441 204.125 80.0983 203.48 86.6503 203.48C87.4781 203.556 87.4781 202.208 86.6554 202.208Z" fill="#212941"/>
<path d="M34.694 213.138C36.7475 213.2 38.8023 213.074 40.8327 212.76C41.9566 212.462 41.9566 211.787 40.8327 211.563C40.0065 211.501 39.1756 211.551 38.3631 211.713C37.3148 211.787 36.3408 211.787 35.2925 211.862C14.4861 212.702 13.5814 211.862 11.6335 212.386C11.5522 212.409 11.4808 212.458 11.4299 212.526C11.3791 212.593 11.3516 212.676 11.3516 212.76C11.3516 212.845 11.3791 212.927 11.4299 212.994C11.4808 213.062 11.5522 213.111 11.6335 213.134C13.5184 213.767 32.4638 213.185 34.694 213.138Z" fill="#212941"/>
<path d="M73.1783 220.552C71.9775 220.133 69.3504 220.402 67.6343 220.402C59.2175 220.722 15.7513 221.914 13.7277 222.198C13.6145 222.207 13.5088 222.258 13.4316 222.341C13.3544 222.424 13.3115 222.534 13.3115 222.647C13.3115 222.76 13.3544 222.87 13.4316 222.953C13.5088 223.036 13.6145 223.087 13.7277 223.096C15.5988 223.247 17.4712 223.171 19.3423 223.171C21.289 223.171 69.1324 221.824 70.1807 221.749C71.2204 221.752 72.2549 221.601 73.2501 221.3C73.3097 221.254 73.3567 221.194 73.3867 221.125C73.4166 221.056 73.4286 220.981 73.4214 220.906C73.4142 220.831 73.3882 220.759 73.3456 220.697C73.3031 220.635 73.2455 220.585 73.1783 220.552Z" fill="#212941"/>
<path d="M146.478 176.602C143.172 179.963 139.044 184.792 136.819 187.008C135.692 187.997 134.732 189.16 133.974 190.453C133.939 190.516 133.926 190.588 133.936 190.659C133.946 190.729 133.979 190.795 134.029 190.846C134.08 190.896 134.146 190.929 134.217 190.939C134.287 190.949 134.36 190.936 134.422 190.901C135.996 190.079 137.267 188.282 138.467 187.008C141.461 183.858 144.456 180.719 147.375 177.5C147.494 177.381 147.561 177.22 147.561 177.051C147.561 176.883 147.495 176.721 147.376 176.602C147.257 176.483 147.095 176.416 146.927 176.416C146.759 176.416 146.597 176.483 146.478 176.602Z" fill="#212941"/>
<path d="M136.22 181.094C136.287 181.166 136.368 181.223 136.458 181.262C136.549 181.302 136.646 181.322 136.745 181.322C136.843 181.322 136.941 181.301 137.031 181.262C137.121 181.222 137.203 181.165 137.27 181.093C137.337 181.02 137.388 180.935 137.421 180.842C137.453 180.749 137.466 180.65 137.459 180.552C137.452 180.454 137.424 180.358 137.379 180.271C137.333 180.184 137.269 180.107 137.192 180.045C136.518 179.521 135.692 180.499 136.22 181.094Z" fill="#212941"/>
<path d="M145.055 186.035C144.845 185.96 144.615 185.964 144.408 186.047C144.2 186.13 144.031 186.286 143.931 186.485C143.332 187.682 145.653 187.906 145.429 186.559C145.354 186.261 145.278 186.111 145.055 186.035Z" fill="#212941"/>
<path d="M149.772 164.623C154.513 167.696 159.057 171.21 160.628 176.902C160.66 176.995 160.715 177.08 160.786 177.149C160.857 177.218 160.944 177.269 161.039 177.298C161.133 177.327 161.234 177.333 161.331 177.316C161.429 177.299 161.521 177.26 161.601 177.2C162.121 176.855 162.708 176.626 163.324 176.527C164.797 175.937 171.255 173.881 175.153 172.409C175.976 172.11 177.624 171.884 177.998 170.912C178.223 170.312 177.699 169.489 177.474 168.896C174.733 162.858 170.278 156.279 164.97 152.348C163.897 151.458 162.772 150.633 161.601 149.877C160.928 149.499 158.381 148.379 157.783 149.353C154.839 154.025 152.14 158.848 149.698 163.8C149.622 163.949 149.622 164.024 149.698 164.099C149.659 164.134 149.63 164.178 149.612 164.227C149.595 164.276 149.59 164.329 149.597 164.38C149.604 164.432 149.624 164.481 149.654 164.523C149.685 164.566 149.725 164.6 149.772 164.623ZM158.907 149.798C158.907 149.798 162.35 152.044 162.575 152.192C168.876 156.844 173.814 163.1 176.876 170.309C174.329 171.432 162.125 175.775 161.676 176.001C162.125 175.851 158.981 170.909 158.681 170.457C156.735 167.836 153.815 164.691 150.446 164.018C150.845 163.465 158.907 149.949 158.907 149.798Z" fill="#FF9500"/>
<path d="M179.346 175.628C179.296 175.475 179.193 175.345 179.055 175.263C178.917 175.18 178.754 175.15 178.596 175.178C172.981 176.751 167.216 178.173 161.526 179.297C161.001 179.372 161.001 180.121 161.301 180.419C162.05 181.019 161.451 184.837 161.301 185.66C161.077 187.555 160.546 189.402 159.729 191.127C158.215 194.481 155.838 197.374 152.842 199.511C147.524 203.48 139.065 205.202 132.925 202.132C126.86 199.137 122.893 192.398 121.919 185.961C119.862 172.2 130.589 160.938 144.305 163.05C145.054 163.199 147.824 164.547 148.124 163.723C151.331 154.1 151.968 151.543 152.69 149.273C152.842 148.895 154.263 145.006 152.467 145.978C134.492 139.918 113.449 148.535 105.447 169.339C103.2 175.654 102.496 182.415 103.395 189.058C104.294 195.701 106.768 202.032 110.613 207.523C118.999 219.652 133.973 224.444 148.274 221.524C164.296 218.305 177.773 204.528 179.648 188.134C180.186 183.974 180.084 179.757 179.346 175.628Z" fill="#3A5AB7"/>
<path d="M245.383 218.005C244.11 217.931 196.267 218.081 193.271 218.081C193.271 204.322 191.854 145.572 191.775 144.856C191.699 144.333 191.101 144.333 191.026 144.856C190.627 148.046 191.014 165.284 192.073 218.38C191.849 218.758 191.999 219.428 192.597 219.354C199.112 219.278 243.958 218.867 245.456 218.793C245.754 218.793 245.826 218.005 245.383 218.005Z" fill="#212941"/>
<path d="M200.834 207.522C200.684 207.822 201.059 208.196 201.283 207.9C203.829 204.905 206.15 201.76 208.471 198.541C210.792 195.321 231.082 166.945 232.056 165.529C232.434 165.759 232.762 166.063 233.019 166.424C233.276 166.784 233.458 167.193 233.553 167.625C233.553 167.85 233.931 167.925 234.151 167.85C234.901 167.401 235.275 166.353 235.649 165.68C236.848 163.433 241.864 152.876 243.136 149.731C243.361 149.132 242.538 148.758 242.164 149.132C238.494 152.726 234.825 156.545 231.232 160.363C230.708 160.887 228.012 163.135 228.838 163.807C228.986 163.882 230.386 164.482 231.083 164.78C228.087 169.04 203.23 203.78 200.834 207.522Z" fill="#FF9500"/>
</svg>
