<svg width="260" height="260" viewBox="0 0 260 260" fill="none" xmlns="http://www.w3.org/2000/svg">
<path d="M230.195 125.871C212.424 115.075 191.307 111.181 170.854 114.93C154.344 118.027 132.717 128.853 120.19 136.924C117.625 135.793 107.704 132.925 102.876 131.378C102.777 131.302 102.654 131.264 102.529 131.271C102.405 131.277 102.287 131.329 102.197 131.416C97.257 136.924 79.187 147.222 77.185 148.618C76.6195 148.92 77.1096 149.373 77.185 149.41C82.9726 151.866 88.4442 155.008 93.4818 158.77C92.1246 160.166 90.8038 161.63 89.5584 163.146C89.4164 163.357 89.35 163.609 89.3699 163.862C90.1681 166.75 102.536 194.193 104.008 196.797C103.957 196.905 103.934 197.024 103.941 197.144C103.948 197.264 103.986 197.38 104.05 197.481C104.113 197.582 104.202 197.666 104.306 197.724C104.411 197.783 104.529 197.814 104.649 197.814C106.873 197.944 109.1 197.928 111.326 197.852C110.308 200.229 106.267 211.357 105.736 214.492C105.728 214.562 105.737 214.632 105.761 214.698C105.786 214.764 105.825 214.823 105.877 214.871C105.928 214.918 105.99 214.953 106.057 214.973C106.125 214.992 106.196 214.995 106.265 214.982C108.493 214.739 125.427 210.267 134.784 210.192C134.905 210.184 135.021 210.135 135.11 210.053C135.199 209.971 135.257 209.86 135.274 209.739C135.802 208.682 138.178 200.496 143.573 193.556C150.892 191.898 158.089 189.743 165.114 187.105C182.69 180.497 200.227 172.498 212.986 158.245C221.191 149.093 227.146 138.152 230.377 126.292C230.421 126.21 230.27 125.909 230.195 125.871ZM78.8451 148.92C80.5429 148.242 98.6883 137.981 102.765 132.963C108.051 134.867 113.442 136.467 118.911 137.753C114.573 139.413 96.6161 155.635 94.6544 157.596C92.3508 155.333 82.5046 149.41 78.8451 148.92ZM133.998 208.75C125.774 208.863 108.836 213.127 107.063 213.768C109.353 208.531 111.368 203.178 113.099 197.73C122.696 197.018 132.245 195.76 141.699 193.96C139.129 196.339 134.489 206.034 133.998 208.75ZM166.368 184.985C158.659 187.745 150.815 190.112 142.866 192.076C133.098 194.728 111.705 195.924 104.84 196.301C103.973 193.623 92.4288 166.349 90.9572 163.745C93.9758 160.766 107.558 147.979 111.592 144.884C128.569 131.859 151.858 121.03 166.327 117.382C176.802 114.72 187.7 114.156 198.393 115.723C212.728 128.624 210.955 153.447 210.613 158.842C198.218 171.875 183.182 178.522 166.365 184.99L166.368 184.985Z" fill="#3A5AB7"/>
<path d="M146.184 47.8569C146.637 48.1384 147.16 48.2876 147.693 48.2876C148.227 48.2876 148.749 48.1384 149.202 47.8569C149.24 48.2716 149.694 53.5548 146.184 56.0053C144.524 57.0168 142.555 57.3924 140.639 57.0622C137.357 56.7619 136.452 55.25 130.529 52.3081C124.8 49.4637 122.646 48.75 117.438 52.0065C113.627 54.4375 110.353 57.6229 107.818 61.3665C105.366 60.5358 102.915 59.6687 100.463 58.8393L101.028 50.7286C106.465 46.4386 116.713 40.9279 123.173 41.6741C124.083 41.7794 130.594 42.4749 134.376 47.0314C135.129 47.9414 141.288 53.4248 143.43 52.5018C144.27 52.0532 144.971 51.383 145.456 50.5641C145.942 49.7452 146.193 48.8089 146.184 47.8569Z" fill="#212941"/>
<path d="M178.852 81.0927C175.381 81.2344 158.442 81.2812 153.955 81.055C154.633 78.9425 158.169 56.6046 155.728 47.3668C155.7 47.2739 155.64 47.1941 155.558 47.1419C155.477 47.0897 155.379 47.0685 155.283 47.0822C155.187 47.0959 155.099 47.1436 155.036 47.2166C154.972 47.2896 154.937 47.383 154.936 47.4799C156.137 63.6532 152.558 78.9048 152.257 81.3189L131.245 91.65C131.471 88.3298 130.378 73.4669 128.385 68.2604C130.231 65.2374 132.407 62.4286 134.873 59.8858C135.476 59.2826 134.388 58.5364 133.741 59.0187C129.551 62.14 115.473 84.7873 114.458 87.3171C114.306 87.6941 114.908 88.0321 115.137 87.7318C116.668 85.7207 126.187 71.3219 127.133 70.0011C128.831 73.7711 129.733 86.4864 129.811 88.7497C129.85 89.9197 129.886 92.3338 129.886 92.3338C129.019 104.669 120.343 148.656 117.777 160.502C116.985 161.672 116.063 167.132 116.57 168.273C116.885 168.983 117.841 168.533 117.89 167.895C117.981 166.725 118.344 162.955 118.532 162.237C119.286 162.35 122.606 162.727 124.719 160.766C126.757 161.916 129.111 162.379 131.433 162.085C132.378 161.949 133.66 161.368 134.338 162.313C134.413 162.438 134.527 162.535 134.663 162.589C134.798 162.644 134.948 162.652 135.089 162.614C135.23 162.575 135.355 162.492 135.444 162.376C135.533 162.26 135.582 162.118 135.583 161.972C135.583 160.426 134.04 159.916 132.723 160.163C130.402 160.743 127.969 160.704 125.668 160.048C125.856 159.86 144.908 111.649 147.435 96.6719C154.025 94.3594 161.125 93.903 167.957 95.3524C167.467 98.6336 164.863 112.705 163.996 116.44C165.279 116.138 170.823 114.893 172.22 114.629C174.024 109.2 179.646 87.5576 180.439 82.94C180.48 82.7105 180.469 82.4749 180.407 82.2502C180.346 82.0255 180.235 81.8173 180.083 81.6406C179.931 81.4638 179.742 81.323 179.529 81.2283C179.316 81.1335 179.085 81.0872 178.852 81.0927Z" fill="#212941"/>
<path d="M186.999 33.5218C186.571 32.6238 186.328 31.6491 186.283 30.6553C186.184 29.8987 185.082 29.5997 184.853 30.4668C184.607 31.5694 184.768 32.7237 185.307 33.7168C181.156 36.7731 161.096 49.3324 158.975 50.9197C158.631 51.1797 158.822 51.8583 159.277 51.6737C164.049 49.7406 182.251 37.9418 186.707 34.6606C186.884 34.5374 187.011 34.3547 187.065 34.1456C187.119 33.9365 187.095 33.7151 186.999 33.5218Z" fill="#212941"/>
<path d="M143.808 19.6014C143.052 19.6209 142.671 20.9599 142.714 21.3746C142.731 21.4478 142.77 21.514 142.826 21.564C142.882 21.614 142.952 21.6453 143.027 21.6536C143.101 21.6619 143.177 21.6467 143.242 21.6102C143.308 21.5737 143.361 21.5177 143.393 21.45C143.665 20.9287 143.856 20.3688 143.958 19.7899C143.996 19.7145 143.921 19.5988 143.808 19.6014Z" fill="#212941"/>
<path d="M145.24 21.8648C144.98 21.3747 144.03 20.921 143.81 21.6763C143.731 21.9265 143.754 22.1979 143.874 22.4312C143.994 22.6646 144.201 22.8409 144.451 22.9217C145.052 23.1479 145.504 22.4316 145.24 21.8648Z" fill="#212941"/>
<path d="M148.978 20.4322C148.718 19.9421 147.733 19.4884 147.548 20.2437C147.478 20.4937 147.505 20.7611 147.624 20.9921C147.743 21.223 147.945 21.4001 148.189 21.4878C148.824 21.7101 149.238 20.9977 148.978 20.4322Z" fill="#212941"/>
<path d="M104.951 109.083C103.521 108.389 102.091 107.745 100.651 107.084C100.465 106.98 100.246 106.953 100.041 107.01C99.8361 107.067 99.6618 107.202 99.556 107.386C98.5337 109.463 97.6516 111.605 96.9157 113.799C96.8722 113.968 96.8904 114.146 96.967 114.302C97.0436 114.458 97.1735 114.581 97.3333 114.649C97.493 114.718 97.6719 114.727 97.8376 114.674C98.0033 114.622 98.1448 114.512 98.2365 114.365C99.1677 112.574 99.9744 110.721 100.651 108.819C101.631 109.271 102.612 109.687 103.593 110.14C102.61 112.431 101.753 114.775 101.028 117.16C100.129 116.871 99.2081 116.657 98.2742 116.519C97.8595 116.444 97.5189 117.047 97.9726 117.273C99.047 117.779 100.156 118.208 101.292 118.556C101.371 118.581 101.455 118.588 101.537 118.578C101.619 118.568 101.699 118.541 101.77 118.498C101.841 118.456 101.903 118.398 101.951 118.33C101.998 118.262 102.031 118.185 102.047 118.104C102.938 115.375 103.996 112.704 105.215 110.106C105.31 109.934 105.336 109.732 105.287 109.542C105.238 109.352 105.118 109.187 104.951 109.083Z" fill="#212941"/>
<path d="M122.116 52.5732C119.541 55.3539 107.556 85.6946 107.781 86.5617C104.688 87.5432 102.971 91.9307 104.921 94.597C105.783 95.6444 106.992 96.3466 108.329 96.5752C109.666 96.8039 111.04 96.5438 112.201 95.8424C113.17 95.0838 113.827 93.9965 114.048 92.7861C114.168 92.4117 113.631 92.0672 113.37 92.3714C112.185 93.7546 111.634 95.1534 109.559 95.2015C108.864 95.2486 108.169 95.109 107.546 94.7972C106.922 94.4855 106.394 94.0129 106.014 93.4283C104.666 90.9999 106.688 89.0499 108.574 87.8799C109.37 88.9157 110.433 89.7155 111.649 90.1939C112.865 90.6722 114.188 90.8111 115.477 90.5956C115.929 90.5163 115.816 89.8039 115.364 89.8039C114.143 89.8044 112.94 89.5054 111.862 88.9331C110.783 88.3609 109.861 87.5328 109.177 86.5214C108.775 85.9091 108.944 85.7648 109.253 85.0511C110.84 81.376 122.191 56.5304 123.399 53.0607C123.738 52.308 122.643 51.9999 122.116 52.5732Z" fill="#212941"/>
<path d="M122.46 105.046C119.552 103.43 116.554 101.981 113.481 100.708C114.294 99.1359 114.999 97.5102 115.593 95.8424C115.762 95.338 115.025 94.7881 114.575 94.5216C114.505 94.4839 114.426 94.467 114.347 94.4729C114.268 94.4787 114.192 94.5071 114.128 94.5547C114.065 94.6023 114.016 94.667 113.988 94.7413C113.96 94.8156 113.954 94.8964 113.971 94.974C114.032 95.2281 114.134 95.4705 114.274 95.6917C113.408 97.0639 112.651 98.5017 112.009 99.9921C110.162 99.1614 102.428 95.7671 100.391 94.8987C101.544 92.9885 102.528 90.9815 103.333 88.9004C103.498 88.8883 103.662 88.8631 103.823 88.8251C103.897 88.7995 103.963 88.7541 104.013 88.6937C104.064 88.6334 104.097 88.5604 104.108 88.4827C104.12 88.405 104.111 88.3255 104.08 88.253C104.05 88.1804 104.001 88.1175 103.937 88.071C103.406 87.7759 102.754 87.486 102.428 87.9957C101.049 89.9653 99.8852 92.0773 98.957 94.2955C96.3727 93.1079 93.7148 92.0875 90.9997 91.2404C90.9325 91.2233 90.862 91.2248 90.7956 91.2447C90.7291 91.2647 90.6694 91.3023 90.6227 91.3536C84.9261 98.2566 80.8402 113.989 80.6634 116.025C80.6348 116.165 80.6622 116.31 80.7397 116.43C80.8173 116.55 80.9388 116.635 81.0781 116.666C83.5299 118.096 109.522 129.605 112.088 130.435C112.277 130.511 112.541 130.247 112.541 130.247C114.955 126.851 122.349 108.065 122.764 105.839C122.753 105.549 122.646 105.27 122.46 105.046ZM116.269 119.155C112.794 117.26 109.203 115.585 105.517 114.14C105.139 114.031 104.794 114.562 105.102 114.819C108.47 117.021 112.001 118.964 115.665 120.628C115.175 121.798 112.534 127.648 111.93 129.455C109.629 127.984 84.618 116.364 82.317 115.57C82.9202 113.872 84.8065 106.86 85.4474 105.119C89.094 107.113 92.8614 108.877 96.7275 110.401C97.1058 110.51 97.4438 109.986 97.1422 109.723C93.5774 107.444 89.8592 105.414 86.0142 103.649C86.8813 101.386 90.5031 93.8405 91.1063 92.2558C93.4073 93.5389 118.796 105.232 121.097 106.101C120.419 107.726 116.458 118.741 116.269 119.155Z" fill="#212941"/>
<path d="M99.6307 196.56C98.8767 194.22 87.6811 170.336 86.164 168.041C86.0886 167.927 85.41 167.628 85.1825 167.781C84.1009 168.49 78.9789 173.371 79.1466 174.151C80.002 178.161 86.1406 193.667 88.088 197.125C88.2362 197.385 88.6912 197.465 88.7289 197.502C92.2938 197.657 95.8654 197.506 99.4045 197.05C99.4045 197.05 99.7087 196.755 99.6307 196.56ZM89.219 196.032C86.5966 188.595 83.5487 181.315 80.0904 174.227C81.9369 172.881 83.6756 171.393 85.2904 169.776C86.0834 171.7 97.0983 194.033 98.3814 196.108C97.0658 195.962 90.8791 195.887 89.219 196.04V196.032Z" fill="#3A5AB7"/>
<path d="M137.771 162.577C137.771 162.577 137.466 161.736 136.861 161.859C133.982 162.451 106.157 172.467 103.7 173.705C103.551 173.781 103.512 174.119 103.512 174.157C104.587 176.073 105.945 177.816 107.542 179.326C107.633 179.395 107.743 179.436 107.857 179.443C107.971 179.449 108.085 179.422 108.184 179.364C110.673 178.836 135.119 170.386 137.382 169.253C138.003 168.949 137.929 163.449 137.771 162.577ZM108.196 177.817C107.179 176.565 106.082 175.381 104.913 174.27C107.478 173.629 134.073 164.65 136.261 163.74C136.264 165.382 136.39 167.022 136.64 168.645C134.224 169.103 110.346 176.874 108.196 177.817Z" fill="#3A5AB7"/>
<path d="M7.0194 190.529C11.8099 188.569 61.4894 164.568 63.7943 163.067C64.4339 162.65 64.0543 161.448 63.2275 161.746C60.8875 162.586 11.2964 187.058 6.6775 189.775C6.3005 189.999 6.567 190.681 7.0194 190.529Z" fill="#FF9500"/>
<path d="M11.0551 158.352C15.8391 156.374 65.5251 132.389 67.83 130.888C68.4696 130.471 68.09 129.269 67.2632 129.567C64.9232 130.407 15.3555 154.917 10.7132 157.596C10.3752 157.82 10.6014 158.539 11.0551 158.352Z" fill="#FF9500"/>
<path d="M96.4251 248.927C108.146 244.585 182.691 212.468 185.982 210.707C186.129 210.615 186.237 210.473 186.289 210.308C186.34 210.143 186.331 209.965 186.263 209.805C186.195 209.646 186.072 209.517 185.917 209.44C185.762 209.364 185.584 209.345 185.417 209.387C182.587 210.33 102.647 245.111 96.1235 248.168C95.7101 248.366 96.0104 249.08 96.4251 248.927Z" fill="#FF9500"/>
<path d="M42.6306 240.816C46.4968 239.471 87.8225 220.782 89.7868 219.578C89.9347 219.486 90.0449 219.345 90.0972 219.179C90.1496 219.013 90.1406 218.833 90.072 218.674C90.0034 218.514 89.8796 218.384 89.7233 218.307C89.5669 218.231 89.3883 218.213 89.22 218.257C85.333 219.499 46.1016 237.912 42.29 240.097C41.9143 240.288 42.1808 240.973 42.6306 240.816Z" fill="#FF9500"/>
<path d="M60.927 58.9109C60.55 54.6859 54.4764 51.2526 50.8169 50.7625C45.197 50.0085 38.9869 53.3833 37.1994 58.9525C37.1624 59.0964 37.1779 59.2488 37.2432 59.3822C37.3085 59.5157 37.4193 59.6214 37.5556 59.6805C37.6919 59.7396 37.8448 59.7481 37.9869 59.7045C38.1289 59.6609 38.2507 59.568 38.3304 59.4426C40.5976 55.3151 44.2155 52.0326 49.1581 52.0859C51.4846 52.1196 53.7515 52.8272 55.6841 54.123C57.8434 55.5816 60.5097 58.5885 58.8899 61.3289C58.8036 61.4935 58.7844 61.685 58.8363 61.8634C58.8882 62.0418 59.0071 62.1932 59.1682 62.2859C59.3292 62.3785 59.5199 62.4052 59.7002 62.3603C59.8805 62.3154 60.0364 62.2025 60.1353 62.0452C60.989 60.7247 62.2531 59.7214 63.733 59.1899C65.2129 58.6583 66.8264 58.6279 68.3253 59.1033C70.9253 59.8157 75.2699 62.3533 75.8653 65.29C76.4334 68.0811 73.1483 68.1188 71.3374 68.2696C69.5265 68.4204 41.1579 70.5225 34.1808 69.8881C32.4471 69.8721 30.7369 69.4866 29.1641 68.7571C26.7552 67.3128 28.6753 64.7271 30.4836 63.8171C31.818 63.1989 33.3067 62.9936 34.7586 63.2275C36.2105 63.4615 37.5593 64.124 38.632 65.1301C38.7289 65.2162 38.855 65.2621 38.9846 65.2582C39.1142 65.2544 39.2374 65.2013 39.3291 65.1096C39.4207 65.0179 39.4739 64.8947 39.4777 64.7651C39.4815 64.6355 39.4357 64.5094 39.3496 64.4125C36.2829 60.844 28.3282 60.6425 26.75 65.9595C24.7805 72.5973 38.7451 71.4663 41.9522 71.3922C50.2891 71.1998 70.8889 69.7854 72.8922 69.5436C74.0985 69.5049 75.2666 69.111 76.2501 68.4113C81.3929 63.9445 67.8729 53.5159 60.927 58.9109Z" fill="#212941"/>
<path d="M242.682 192.869C240.657 192.228 238.501 192.116 236.421 192.546C234.341 192.975 232.405 193.93 230.799 195.321C230.012 193.055 228.53 191.094 226.564 189.719C224.598 188.344 222.248 187.624 219.849 187.661C217.45 187.699 215.124 188.492 213.203 189.928C211.281 191.365 209.861 193.37 209.145 195.66C205.788 194.831 201.973 194.256 198.959 196.301C196.579 197.917 194.991 201.022 196.432 203.733C196.995 204.792 198.512 204.032 198.281 202.942C198.053 201.855 198.225 200.722 198.766 199.751C199.306 198.781 200.179 198.038 201.223 197.66C203.87 196.578 206.961 197.422 209.599 198.112C209.888 198.186 210.195 198.145 210.456 197.997C210.716 197.85 210.908 197.607 210.994 197.32C211.41 195.187 212.567 193.269 214.259 191.905C215.951 190.54 218.07 189.817 220.244 189.862C222.417 189.907 224.504 190.718 226.139 192.151C227.773 193.585 228.849 195.549 229.177 197.697C229.233 197.881 229.334 198.046 229.472 198.179C229.61 198.312 229.78 198.407 229.965 198.456C230.15 198.505 230.344 198.507 230.53 198.459C230.715 198.412 230.886 198.319 231.025 198.188C239.128 188.643 253.775 199.343 241.512 203.319C229.942 207.072 215.642 205.427 210.277 204.714C209.674 204.634 209.367 205.533 210.017 205.657C220.092 207.563 230.439 207.525 240.5 205.544C242.673 205.196 244.71 204.257 246.385 202.829C250.277 199.182 246.87 194.285 242.682 192.869Z" fill="#212941"/>
<path d="M196.885 25.788C196.659 25.1848 195.975 25.1874 195.455 25.2602C195.184 25.3119 194.926 25.4196 194.699 25.5762C194.471 25.7329 194.279 25.9352 194.134 26.1702C193.657 26.8579 194.737 27.7159 195.304 27.0802C195.49 26.8826 196.81 26.5433 196.885 25.788Z" fill="#212941"/>
<path d="M197.187 26.9958C196.545 26.7358 194.056 28.0904 194.094 28.8067C194.094 28.8996 194.114 28.9913 194.154 29.0751C194.194 29.1589 194.253 29.2325 194.325 29.2905C194.398 29.3485 194.483 29.3894 194.573 29.4101C194.664 29.4307 194.758 29.4307 194.848 29.4099C195.719 28.984 196.541 28.4654 197.3 27.8629C197.372 27.8101 197.428 27.7389 197.464 27.6567C197.499 27.5746 197.511 27.4845 197.5 27.396C197.488 27.3074 197.453 27.2235 197.398 27.1532C197.343 27.0828 197.27 27.0284 197.187 26.9958Z" fill="#212941"/>
<path d="M197.903 29.0329C197.223 28.5805 194.186 30.3537 194.133 31.1831C194.131 31.2752 194.151 31.3665 194.191 31.4493C194.232 31.5322 194.291 31.6042 194.365 31.6595C194.438 31.7148 194.524 31.7517 194.615 31.7672C194.706 31.7827 194.799 31.7763 194.887 31.7486C196.066 31.261 197.151 30.5717 198.094 29.7115C198.249 29.523 198.091 29.1837 197.903 29.0329Z" fill="#212941"/>
<path d="M187.794 34.2771C191.028 35.3171 196.68 35.4198 198.507 31.824C198.85 31.148 197.857 30.3082 197.414 30.9946C195.248 34.3564 189.794 33.4464 187.869 33.4841C187.775 33.4931 187.687 33.5345 187.621 33.6012C187.554 33.6678 187.513 33.7556 187.504 33.8495C187.495 33.9433 187.519 34.0374 187.572 34.1154C187.625 34.1934 187.703 34.2506 187.794 34.2771Z" fill="#212941"/>
<path d="M187.114 29.259C187.718 29.2967 189.94 27.5157 190.66 27.2219C191.712 26.7942 191.292 27.6405 191.529 28.3165C191.872 29.3045 192.959 29.3045 192.959 28.6935C192.959 27.3727 192.806 24.9534 190.959 25.5241C188.064 26.4211 186.219 28.9613 187.114 29.259Z" fill="#212941"/>
<path d="M146.675 20.96C146.858 21.9944 147.11 23.0154 147.429 24.0163C147.616 24.7326 147.28 24.6663 146.713 24.7326C146.56 24.7437 146.413 24.7904 146.281 24.869C146.15 24.9475 146.039 25.0558 145.958 25.185C145.931 25.2391 145.916 25.2982 145.913 25.3585C145.91 25.4187 145.919 25.479 145.94 25.5355C145.961 25.592 145.994 25.6436 146.036 25.6871C146.078 25.7305 146.128 25.7649 146.184 25.7882C147.052 26.0482 148.45 25.978 148.524 24.8457C148.239 23.4617 147.783 22.1185 147.167 20.8469C147.05 20.622 146.64 20.6948 146.675 20.96Z" fill="#212941"/>
<path d="M148.408 27.5601C147.848 28.0845 147.13 28.4093 146.366 28.4843C145.602 28.5593 144.835 28.3802 144.183 27.9748C144.033 27.8617 143.806 27.824 143.731 28.0515C143.052 29.5972 143.354 31.8215 145.504 31.5615C147.181 30.9805 148.571 29.7794 149.39 28.2049C149.511 27.8656 149.269 26.7983 148.408 27.5601ZM145.014 30.6541C144.068 30.5241 144.104 29.5972 144.221 28.8432C144.634 29.1637 145.108 29.396 145.614 29.5257C146.121 29.6554 146.648 29.6797 147.164 29.5972C146.896 29.91 146.567 30.165 146.198 30.3469C145.828 30.5288 145.425 30.6337 145.014 30.6554V30.6541Z" fill="#212941"/>
<path d="M76.621 178.88C75.673 177.579 74.2742 176.677 72.6976 176.352C70.9044 176.305 69.128 176.707 67.5301 177.522C61.1211 180.162 58.7252 185.882 48.7425 198.307C45.1311 202.804 34.5725 210.209 33.0502 211.697C32.668 212.069 33.1945 212.784 33.6157 212.451C41.7121 206.05 52.0003 206.846 70.4343 203.13C73.8286 202.445 78.4319 201.7 80.8083 198.83C82.9962 196.188 82.8545 186.562 76.621 178.88ZM78.5073 198.534C75.4432 200.744 58.7772 203.401 54.4768 204.079C50.0263 204.621 45.6325 205.556 41.3468 206.872C54.8811 196.17 56.4268 189.504 62.321 183.212C63.5999 181.783 65.1034 180.572 66.7722 179.628C68.6611 178.614 71.7473 177.297 73.7142 178.497C75.1442 179.369 78.8037 186.23 79.4849 188.417C80.4703 191.55 81.7053 196.216 78.5073 198.527V198.534Z" fill="#FF9500"/>
<path d="M182.549 30.9569C180.209 31.4158 152.219 39.4823 152.181 39.4823C151.616 38.7283 151.011 37.973 150.446 37.1813C150.393 37.0622 150.299 36.966 150.181 36.9106C150.064 36.8552 149.93 36.8442 149.805 36.8797C149.764 36.2457 149.624 35.6219 149.39 35.0311C149.357 34.9379 149.294 34.8588 149.21 34.8072C149.125 34.7556 149.026 34.7347 148.928 34.748C148.831 34.7614 148.74 34.8081 148.673 34.8803C148.606 34.9525 148.566 35.0457 148.559 35.1442C148.586 36.1182 148.751 37.0835 149.051 38.0107C148.597 39.0299 147.315 40.9539 147.315 40.9916C145.097 39.5527 142.969 37.978 140.945 36.2765C141.35 33.4415 140.778 30.5531 139.323 28.0865C139.285 28.0098 138.983 27.8265 138.908 27.859C137.464 28.0397 136.872 26.3848 137.323 25.0302C137.476 24.3694 137.881 23.7943 138.452 23.4279C139.022 23.0614 139.714 22.9324 140.378 23.0685C142.676 20.2513 144.394 17.0076 145.434 13.5239C145.589 14.1939 145.875 14.8263 146.277 15.3843C146.679 15.9423 147.188 16.4147 147.774 16.7739C148.034 17.3806 148.298 18.0219 148.566 18.6979C147.963 18.4229 147.282 18.3695 146.643 18.5471C146.601 18.5633 146.565 18.5918 146.54 18.6288C146.514 18.6658 146.501 18.7096 146.501 18.7545C146.501 18.7994 146.514 18.8432 146.54 18.8802C146.565 18.9172 146.601 18.9457 146.643 18.9618C147.397 19.188 148.151 19.3388 148.869 19.6027C150.678 24.6961 151.358 30.6527 145.775 33.5231C145.732 33.5447 145.7 33.5818 145.684 33.6266C145.668 33.6715 145.67 33.7208 145.689 33.7644C145.708 33.8079 145.744 33.8424 145.788 33.8606C145.832 33.8788 145.881 33.8795 145.925 33.8624C152.973 31.6771 151.811 21.8283 148.793 16.7362C149.636 13.4251 147.233 10.3818 143.662 11.7182C140.982 9.80463 137.93 12.3682 135.853 14.9253C133.897 17.4618 132.86 20.5872 132.911 23.79C135.363 25.337 138.154 30.9205 138.493 32.1282C138.6 32.2998 138.759 32.4322 138.947 32.5052C139.014 32.5189 139.083 32.5189 139.15 32.5052C139.217 32.4915 139.281 32.4645 139.337 32.4256C139.393 32.3868 139.441 32.337 139.478 32.2792C139.515 32.2214 139.539 32.1568 139.55 32.0892C139.882 33.4206 140.022 34.7925 139.965 36.1634C139.927 36.2024 138.38 38.7634 137.625 40.0114C134.721 39.4082 131.891 41.86 131.891 43.03C131.892 43.0928 131.909 43.1544 131.938 43.2098C131.968 43.2653 132.01 43.3131 132.061 43.3497C132.112 43.3862 132.171 43.4104 132.233 43.4203C132.295 43.4303 132.358 43.4257 132.418 43.407C132.759 43.3316 135.588 40.807 137.851 41.5584C142.921 45.1984 142.994 47.1484 143.812 46.6518C143.887 46.6141 144.982 44.9917 145.434 44.2364C145.588 44.7891 145.935 45.2684 146.412 45.5875C146.889 45.9066 147.464 46.0445 148.034 45.9762C148.604 45.9078 149.13 45.6378 149.518 45.215C149.906 44.7922 150.13 44.2444 150.149 43.6709C150.225 43.7463 150.338 43.8217 150.409 43.8971C150.474 43.9584 150.554 44.0022 150.641 44.0243C150.728 44.0464 150.819 44.0462 150.906 44.0236C150.992 44.001 151.072 43.9568 151.137 43.8951C151.202 43.8335 151.25 43.7563 151.278 43.6709C151.78 42.6744 152.334 41.705 152.938 40.7667C155.352 40.5067 180.702 32.8445 182.852 31.6368C183.267 31.4847 182.964 30.8763 182.549 30.9569ZM143.58 45.3297C142.071 43.6129 140.376 42.0694 138.526 40.7277C138.526 40.7277 139.845 38.5021 140.525 37.3698C142.182 38.9597 144.048 40.3176 146.07 41.4063C145.24 42.7271 144.41 44.0089 143.58 45.3297ZM150.634 42.6894C149.985 42.0831 149.289 41.5281 148.554 41.0293C149.117 40.2057 149.609 39.336 150.026 38.4293C150.629 39.1833 151.196 39.975 151.799 40.7303C151.348 41.3441 150.958 42.0002 150.634 42.6894Z" fill="#212941"/>
<path d="M252.604 52.6499C249.754 48.3469 241.255 46.1616 234.647 49.7821C234.345 48.3105 232.759 47.0677 231.44 46.2357C221.654 40.0711 211.29 42.0497 206.391 48.5003C205.789 49.2933 207.148 50.085 207.75 49.292C209.155 47.4721 211.001 46.0399 213.113 45.1302C215.225 44.2205 217.533 43.8632 219.821 44.092C227.101 44.9357 234.404 48.7837 232.836 51.112C232.426 51.7191 233.282 52.6499 233.891 52.1676C236.022 50.5595 238.579 49.6154 241.243 49.4536C243.907 49.2917 246.559 49.9192 248.869 51.2576C253.619 54.076 252.324 57.2909 248.189 58.236C231.372 62.0814 203.908 61.4106 196.997 60.0469C195.987 59.9355 195.024 59.5582 194.206 58.9536C192.967 57.8525 193.556 56.5291 194.734 55.8219C196.318 55.0038 198.006 54.4071 199.752 54.0487C203.224 53.1517 207.704 53.1998 209.824 56.5772C209.888 56.6702 209.984 56.7354 210.094 56.7594C210.204 56.7835 210.319 56.7646 210.416 56.7065C210.512 56.6485 210.583 56.5558 210.613 56.4474C210.643 56.339 210.631 56.2231 210.578 56.1235C209.182 53.2947 205.939 52.2755 202.958 52.3132C200.054 52.3509 193.901 54.4608 192.848 55.6711C190.653 58.1931 193.758 60.6826 196.098 61.1792C208.93 63.9014 228.574 62.3869 237.933 61.4808C241.586 61.122 257.416 59.9143 252.604 52.6499Z" fill="#212941"/>
</svg>
