<svg width="260" height="260" viewBox="0 0 260 260" fill="none" xmlns="http://www.w3.org/2000/svg">
<path d="M118.724 88.1646C118.288 88.7834 116.478 91.204 116.691 91.8761C116.99 92.8134 120.071 93.4686 120.572 92.6093C120.702 92.3805 120.73 91.9892 120.483 91.9021C119.724 91.6343 118.923 91.6993 118.097 91.4341C118.357 90.4877 119.034 89.4724 119.423 88.4558C119.608 88.0671 118.939 87.8591 118.724 88.1646Z" fill="#212941"/>
<path d="M113.951 84.63C113.148 84.7795 113.015 85.4165 114.014 85.514C114.443 85.6056 114.836 85.8202 115.145 86.1315C115.65 86.6515 116.337 86.4708 116.029 85.6284C115.876 85.2278 115.575 84.901 115.189 84.7153C114.803 84.5296 114.36 84.499 113.951 84.63Z" fill="#212941"/>
<path d="M124.8 85.514C124.436 85.4015 124.045 85.4184 123.692 85.5618C123.339 85.7051 123.047 85.9661 122.865 86.3005C122.429 87.1156 122.865 87.6161 123.483 87.0506C123.845 86.6902 124.334 86.487 124.844 86.4851C125.644 86.4708 125.793 85.7259 124.8 85.514Z" fill="#212941"/>
<path d="M126.827 95.0221C126.893 93.8196 126.739 92.9889 125.758 93.6077C123.629 94.9523 121.131 95.5923 118.617 95.4368C117.089 95.4368 117.523 96.4521 118.061 97.4076C120.603 101.92 126.523 100.572 126.827 95.0221ZM125.405 95.234C124.839 99.654 120.8 99.524 119.219 96.6302C121.375 96.8061 123.533 96.3189 125.405 95.234Z" fill="#212941"/>
<path d="M130.106 85.9558C131.083 86.0496 132.066 86.0791 133.048 86.0442C134.506 85.8934 134.25 84.492 132.933 84.4712C131.962 84.4563 130.991 84.3913 130.026 84.2762C129.142 76.7999 122.427 77.7632 120.527 82.9502C120.306 82.7961 120.052 82.6946 119.786 82.6534C119.519 82.6122 119.247 82.6323 118.989 82.7123C118.689 76.4476 111.312 75.9783 109.56 83.0308C107.432 91.6017 117.514 95.6135 118.92 84.3828C119.126 84.3291 119.341 84.3225 119.549 84.3637C119.757 84.4049 119.954 84.4928 120.123 84.6207C118.724 94.8998 129.859 95.1806 130.106 85.9558ZM117.398 83.5898C117.225 85.7192 116.374 89.6205 113.758 89.6244C110.957 89.6244 110.312 86.0897 111.169 83.1244C111.329 82.409 111.629 81.7327 112.053 81.1348C112.478 80.5368 113.016 80.0293 113.639 79.6417C116.125 78.382 117.579 81.3798 117.398 83.5898ZM124.167 91.109C121.445 90.3706 121.154 86.5408 121.605 84.3763C121.995 82.5108 123.628 80.0369 125.758 80.2319C127.207 80.3619 128.686 82.4679 128.618 85.48C128.57 87.8369 127.14 91.9098 124.167 91.1064V91.109Z" fill="#212941"/>
<path d="M116.506 109.099C118.019 109.577 118.277 110.942 118.874 111.608C120.287 113.182 120.954 107.756 121.021 107.128C123.399 107.128 126.871 105.828 128.179 104.124C128.497 103.709 128.286 103.24 127.728 103.444C126.155 104.114 124.893 105.214 122.205 105.511C114.069 106.408 113.495 98.5478 113.767 92.2506C105.46 92.1531 106.698 76.271 115.613 76.7156C118.603 76.8651 121.614 74.4094 122.913 72.6856C122.434 71.5857 122.135 70.4159 122.029 69.2211C122.029 68.0992 122.749 68.3358 123.069 69.3186C125.155 75.8407 128.865 80.7001 137.058 82.264C137.175 82.264 137.288 82.3106 137.37 82.3935C137.453 82.4764 137.5 82.5888 137.5 82.706C137.5 82.8232 137.453 82.9357 137.37 83.0185C137.288 83.1014 137.175 83.148 137.058 83.148C136.096 83.2164 135.129 83.1237 134.198 82.8737C134.429 83.9592 134.724 85.0301 135.082 86.0808C132.934 87.5836 134.042 89.0994 134.507 88.3168C134.829 87.7804 135.31 87.3577 135.884 87.1075C136.457 86.8572 137.094 86.7919 137.707 86.9206C140.632 87.2924 139.007 95.3108 135.656 95.0508C134.03 94.9208 134.097 94.9273 133.889 96.9592C133.534 100.37 133.018 109.387 133.951 111.54C134.184 112.077 134.752 111.687 134.958 111.469C135.49 110.906 136.894 108.609 138.757 108.932C139.969 109.31 141.082 109.95 142.019 110.807C142.955 111.664 143.691 112.717 144.174 113.89C147.073 114.624 154.885 117.239 157.845 119.59C154.31 114.226 150.978 106.971 150.978 100.299C150.978 93.6273 155.138 78.6227 146.375 66.4287C138.28 55.1772 117.843 53.3 109.26 68.9897C103.571 79.3897 104.925 91.6981 102.819 99.4578C100.94 106.375 98.5142 111.361 93.9785 115.435C98.4718 114.221 103.066 113.419 107.705 113.039C109.949 110.027 114.92 108.596 116.506 109.099Z" fill="#212941"/>
<path d="M151.19 71.0124C154.54 71.0917 161.436 69.4407 162.97 65.1546C164.927 59.6855 159.506 50.1318 152.03 50.1318C146.003 50.1318 144.077 56.2418 143.58 61.1818C146.957 63.7123 149.587 67.1091 151.19 71.0124Z" fill="#212941"/>
<path d="M140.982 120.939C144.14 117.559 143.526 113.096 138.902 110.786C138.283 110.478 137.732 110.335 137.427 110.981C135.512 114.989 130.834 116.363 126.725 116.441C120.867 116.553 118.864 115.461 116.953 111.298C116.545 110.411 116.378 110.226 115.513 110.274C112.393 110.445 107.548 113.334 108.911 117.793C110.586 123.267 119.571 124.111 122.722 121.018C126.27 125.755 137.011 125.19 140.982 120.939ZM121.842 119.57C115.38 125.558 103.056 114.76 115.524 111.617C117.292 117.051 121.551 118.176 126.738 118.058C131.334 117.954 136.176 116.424 138.562 112.315C148.282 117.829 132.401 127.951 123.539 119.755C122.813 119.08 122.709 118.767 121.842 119.57Z" fill="#212941"/>
<path d="M123.752 131.322C125.211 131.725 125.872 128.41 124.565 128.353C123.443 128.31 122.78 131.054 123.752 131.322Z" fill="#212941"/>
<path d="M121.71 140.088C122.948 140.318 123.646 137.216 122.4 137.014C121.155 136.811 120.38 139.841 121.71 140.088Z" fill="#212941"/>
<path d="M119.776 125.464C117.864 130.229 115.746 139.857 115.825 144.957C115.82 145.025 115.827 145.094 115.848 145.159C115.869 145.224 115.902 145.285 115.946 145.337C115.991 145.39 116.045 145.433 116.106 145.464C116.166 145.496 116.233 145.515 116.301 145.521C116.369 145.527 116.438 145.519 116.504 145.498C116.569 145.477 116.629 145.444 116.682 145.4C116.734 145.355 116.777 145.301 116.809 145.241C116.84 145.18 116.86 145.113 116.865 145.045C117.615 138.528 119.127 132.122 121.371 125.958C121.666 125.06 120.13 124.58 119.776 125.464Z" fill="#212941"/>
<path d="M250.388 207.891C173.21 207.869 95.8393 207.485 18.6855 207.802C17.5805 207.802 17.8015 209.492 18.8532 209.492C96.0057 210.184 173.387 209.687 250.574 209.713C251.75 209.721 251.551 207.891 250.388 207.891Z" fill="#212941"/>
<path d="M78.3054 162.718C79.2492 163.506 79.062 163.42 80.1696 162.718C82.2496 161.401 85.8961 158.618 87.4769 157.31C87.3183 162.613 88.6651 186.38 89.2449 191.508C89.2681 191.667 89.352 191.811 89.479 191.91C89.606 192.009 89.7662 192.055 89.9262 192.038C90.0862 192.021 90.2334 191.943 90.3371 191.82C90.4408 191.697 90.4929 191.539 90.4825 191.378C90.5618 179.67 88.7197 167.158 89.4126 155.705C89.9469 146.865 93.4192 138.935 95.7826 133.305C95.8168 133.226 95.835 133.141 95.8364 133.055C95.8377 132.969 95.8221 132.883 95.7904 132.803C95.7587 132.723 95.7116 132.65 95.6517 132.589C95.5918 132.527 95.5203 132.477 95.4414 132.443C95.3624 132.409 95.2775 132.391 95.1915 132.39C95.1055 132.388 95.0201 132.404 94.9401 132.436C94.8601 132.467 94.7872 132.514 94.7254 132.574C94.6637 132.634 94.6143 132.706 94.5801 132.785C91.0633 139.713 88.7251 147.179 87.6615 154.875C84.8249 157.465 81.6269 159.585 79.0815 161.565C75.5469 157.145 70.0947 145.658 67.886 137.944C69.8385 135.734 71.9469 133.667 74.1949 131.759C82.533 124.578 85.5126 120.935 97.0813 117.922C100.244 117.097 103.458 116.446 106.616 115.614C107.076 115.493 106.952 114.652 106.457 114.66C103.514 114.979 100.595 115.489 97.7183 116.189C85.3683 119.161 82.5005 121.995 73.567 129.969C71.2281 131.881 69.0538 133.985 67.067 136.261C66.6489 136.739 66.3855 137.333 66.3115 137.964C66.2374 138.595 66.3563 139.233 66.6523 139.795C68.64 146.063 74.0389 159.156 78.3054 162.718Z" fill="#212941"/>
<path d="M154.451 161.084C154.297 169.692 153.377 181.104 153.311 185.879C153.302 186.515 154.4 186.56 154.556 185.959C155.068 183.99 156.506 162.933 155.794 160.987C155.553 160.334 154.46 160.527 154.451 161.084Z" fill="#212941"/>
<path d="M144.102 116.68C161.132 121.984 169.972 131.464 179.536 145.691C179.683 145.813 179.865 145.885 180.055 145.895C180.245 145.906 180.434 145.855 180.593 145.749C180.752 145.644 180.873 145.49 180.937 145.311C181.002 145.131 181.006 144.936 180.951 144.754C171.636 130.81 161.2 119.47 144.349 115.461C143.545 115.268 143.342 116.444 144.102 116.68Z" fill="#212941"/>
<path d="M173.563 157.338C170.845 158.898 165.707 164.618 163.976 167.446C161.325 163.788 156.117 156.456 153.814 153.838C153.372 153.335 152.365 153.838 152.745 154.488C154.682 157.826 159.257 164.014 161.881 167.664C163.79 170.314 163.88 170.175 165.611 167.99C168.265 164.54 171.203 161.318 174.394 158.358C175.05 157.771 174.39 156.861 173.563 157.338Z" fill="#212941"/>
<path d="M39.0281 99.19C39.8406 99.1393 39.9134 95.7554 42.3236 93.6494C44.0929 92.105 42.49 91.5265 41.3694 92.3247C39.0255 93.99 37.3576 99.2862 39.0281 99.19Z" fill="#212941"/>
<path d="M47.7839 91.6018C49.5961 92.7718 49.1684 91.3652 47.7839 97.2932C46.675 102.04 47.8008 106.567 48.9058 111.29C52.5458 126.863 59.6308 143.994 62.8938 149.87C62.9898 149.956 63.11 150.011 63.238 150.026C63.3659 150.041 63.4955 150.017 63.609 149.956C63.7226 149.895 63.8147 149.8 63.8728 149.685C63.9309 149.57 63.9522 149.44 63.9338 149.313C63.484 148.174 62.9796 147.06 62.4674 145.947C63.6374 144.745 64.6059 143.676 66.0905 142.35C67.5751 141.024 65.9813 140.985 65.5601 141.272C64.2041 142.205 62.9299 143.251 61.7511 144.4C57.0774 133.991 53.4343 123.149 50.874 112.03C48.859 103.284 47.8086 103.632 50.5555 93.7819C51.2718 91.2144 50.7492 91.2573 48.7173 90.0444C45.6753 88.2244 44.8407 86.9244 42.3018 84.8132C41.3814 84.0384 39.1987 86.082 47.7839 91.6018Z" fill="#212941"/>
<path d="M33.5036 105.882C34.3876 119.835 41.4986 147.361 45.7782 160.917C47.4214 166.117 50.3113 173.429 56.8594 173.787C62.7705 174.114 71.0645 169.529 76.7052 162.396C77.1667 161.815 76.0201 160.978 75.5573 161.513C72.2917 165.283 64.025 172.223 57.0973 172.108C51.0796 172.008 48.8995 165.533 47.4656 160.753C42.7349 144.977 36.9018 123.336 35.3236 107.017C35.1416 105.127 35.4393 104.64 33.5569 104.057C30.1119 102.994 29.0901 101.902 26.4875 100.522C26.1521 100.346 25.0575 100.633 25.9844 101.742C27.3975 103.445 31.3209 105.21 33.5036 105.882Z" fill="#212941"/>
<path d="M213.134 121.841C218.897 125.281 218.899 127.171 220.822 128.909C220.92 128.996 221.044 129.048 221.174 129.057C221.305 129.067 221.435 129.034 221.544 128.963C221.654 128.892 221.738 128.787 221.783 128.664C221.828 128.542 221.831 128.408 221.793 128.283C221.467 126.78 219.564 124.741 218.413 123.687C216.982 122.41 215.299 121.447 213.473 120.86C212.863 120.653 212.646 121.55 213.134 121.841Z" fill="#212941"/>
<path d="M222.156 123.76C223.808 123.878 224.808 122.872 222.889 122.478C221.502 122.193 219.999 122.071 218.599 121.806C217.765 121.646 216.251 123.332 222.156 123.76Z" fill="#212941"/>
<path d="M215.634 128.255C216.207 129.52 216.646 130.901 217.296 132.092C217.647 132.733 218.48 132.577 218.454 131.808C218.298 130.353 217.866 128.941 217.181 127.648C215.201 123.159 213.151 122.517 207.301 119.536C206.727 119.244 206.116 120.138 206.691 120.535C211.678 123.98 213.266 123.02 215.634 128.255Z" fill="#212941"/>
<path d="M166.769 168.808C166.273 168.145 163.909 168.797 168.253 172.96C172.407 176.937 172.945 174.613 172.442 174.144C171.504 173.271 170.806 174.216 166.769 168.808Z" fill="#212941"/>
<path d="M181.464 153.219C185.151 142.091 187.985 132.328 195.081 122.423C198.209 118.058 199.447 119.313 204.378 122.132C209.83 125.252 211.795 126.093 210.2 133.46C209.973 134.512 209.532 135.514 209.316 136.562C209.228 136.994 210.511 138.798 211.817 133.549C213.767 125.737 210.563 123.843 204.368 120.347C198.803 117.205 197.15 116.759 193.199 122.274C188.33 129.069 181.578 144.365 180.289 152.856C180.244 153.555 181.245 153.88 181.464 153.219Z" fill="#212941"/>
<path d="M197.794 138.533C197.02 140.664 195.142 151.793 195.672 153.661C195.695 153.796 195.761 153.92 195.86 154.014C195.959 154.109 196.086 154.169 196.222 154.185C196.357 154.202 196.495 154.175 196.614 154.107C196.733 154.04 196.827 153.936 196.882 153.811C197.218 153.074 197.597 146.841 199.352 138.922C199.55 138.038 198.12 137.651 197.794 138.533Z" fill="#212941"/>
<path d="M203.166 135.882C201.401 134.993 199.815 134.499 197.864 133.726C197.29 133.498 197.403 133.363 197.325 131.906C197.235 130.226 197.622 128.396 196.733 128.266C195.501 128.091 195.657 131.156 195.693 132.049C195.787 134.54 196.019 134.84 197.832 135.582C199.644 136.324 201.102 136.57 202.789 137.253C203.635 137.595 204.369 136.488 203.166 135.882Z" fill="#212941"/>
<path d="M63.69 184.483C66.1623 184.739 68.6532 184.762 71.1299 184.553C71.304 184.487 71.4528 184.367 71.5549 184.211C71.657 184.055 71.7072 183.871 71.6984 183.685C71.6896 183.499 71.6222 183.32 71.5059 183.175C71.3896 183.029 71.2302 182.924 71.0506 182.875C68.5957 182.659 66.1267 182.659 63.6718 182.875C63.464 182.885 63.2683 182.976 63.1258 183.127C62.9832 183.279 62.9049 183.479 62.9073 183.688C62.9096 183.896 62.9925 184.095 63.1384 184.243C63.2843 184.391 63.482 184.477 63.69 184.483Z" fill="#FF9500"/>
<path d="M83.7202 196.995C83.1716 196.995 83.0312 198 83.6227 198.145C88.1948 199.252 119.206 198.771 123.157 198.719C124.235 198.704 124.396 196.977 123.299 197.029C112.741 197.55 92.6733 197.03 83.7202 196.995Z" fill="#3A5AB7"/>
<path d="M147.94 191.862C147.853 191.932 147.785 192.024 147.744 192.128C147.702 192.232 147.688 192.345 147.703 192.456C147.718 192.567 147.762 192.672 147.829 192.762C147.897 192.851 147.987 192.921 148.09 192.966C148.35 193.077 154.444 193.214 155.548 193.284C156.229 193.284 157.108 192.488 156.476 191.844C155.545 190.889 149.093 190.927 147.94 191.862Z" fill="#FF9500"/>
<path d="M83.1298 195.229C89.8196 195.767 113.589 195.498 121.798 195.423C122.682 195.415 122.968 193.894 121.94 193.863C117.363 193.704 85.0382 193.465 83.0596 193.863C82.9208 193.92 82.8031 194.018 82.7229 194.145C82.6426 194.272 82.6036 194.421 82.6113 194.571C82.619 194.72 82.673 194.864 82.7659 194.982C82.8587 195.1 82.9859 195.186 83.1298 195.229Z" fill="#3A5AB7"/>
<path d="M161.255 196.633C163.212 196.782 165.175 196.785 167.14 196.748C168.31 196.726 168.234 194.91 167.051 194.91C165.868 194.91 161.478 194.724 160.512 195.104C160.168 195.24 159.186 196.342 161.255 196.633Z" fill="#FF9500"/>
<path d="M64.4585 200.388C62.1705 200.574 62.099 202.351 64.6093 202.271C67.6318 202.175 70.6634 202.23 73.6755 201.989C74.4087 201.929 74.4074 200.559 73.6755 200.335C72.2403 199.906 66.5359 200.221 64.4585 200.388Z" fill="#FF9500"/>
<path d="M161.078 198.277C160.336 198.515 160.592 199.707 161.316 199.753C162.854 199.848 164.851 199.52 167.369 199.69C169.048 199.803 169.602 198.189 167.536 197.924C165.379 197.67 163.195 197.79 161.078 198.277Z" fill="#FF9500"/>
<path d="M148.096 194.857C147.497 195.046 147.337 196.013 148.052 196.183C150.863 196.479 153.691 196.594 156.517 196.528C156.637 196.531 156.756 196.511 156.868 196.468C156.979 196.426 157.082 196.362 157.169 196.28C157.256 196.198 157.326 196.099 157.375 195.99C157.424 195.881 157.451 195.764 157.454 195.644C157.458 195.525 157.438 195.406 157.395 195.294C157.353 195.182 157.288 195.08 157.206 194.993C157.124 194.906 157.026 194.836 156.917 194.787C156.808 194.738 156.69 194.711 156.571 194.708C154.9 194.539 149.787 194.327 148.096 194.857Z" fill="#FF9500"/>
<path d="M63.8134 190.112C63.6907 190.193 63.5943 190.308 63.5356 190.443C63.477 190.577 63.4588 190.726 63.4832 190.871C63.5075 191.016 63.5734 191.151 63.6729 191.259C63.7724 191.367 63.9011 191.444 64.0435 191.481C64.5908 191.685 69.8493 191.564 71.2013 191.641C72.7925 191.731 73.8507 189.887 70.2471 189.679C68.8145 189.596 64.947 189.397 63.8134 190.112Z" fill="#FF9500"/>
<path d="M71.4572 186.507C70.6772 186.016 64.2682 186.151 63.4427 186.612C63.3114 186.685 63.204 186.794 63.1337 186.926C63.0635 187.058 63.0334 187.208 63.0472 187.358C63.061 187.507 63.1181 187.649 63.2114 187.766C63.3048 187.883 63.4304 187.971 63.5727 188.018C63.7937 188.115 70.7058 188.408 71.4013 188.018C71.534 187.944 71.6454 187.837 71.7248 187.707C71.8042 187.578 71.8489 187.43 71.8545 187.278C71.8601 187.126 71.8265 186.976 71.7569 186.841C71.6873 186.705 71.5841 186.591 71.4572 186.507Z" fill="#FF9500"/>
<path d="M156.12 199.506C158.013 199.677 158.223 197.808 156.12 197.605C154.017 197.402 149.483 197.296 147.884 198.082C147.755 198.155 147.65 198.264 147.582 198.395C147.514 198.526 147.486 198.675 147.501 198.822C147.516 198.969 147.574 199.109 147.667 199.224C147.76 199.339 147.885 199.424 148.026 199.469C148.503 199.585 153.471 199.265 156.12 199.506Z" fill="#FF9500"/>
<path d="M148.441 202.65C149.227 202.899 156.695 203.19 157.57 202.704C157.692 202.626 157.791 202.518 157.858 202.39C157.925 202.262 157.958 202.118 157.953 201.974C157.947 201.829 157.904 201.688 157.827 201.566C157.751 201.443 157.644 201.342 157.516 201.274C154.483 200.948 151.423 200.948 148.389 201.274C148.227 201.307 148.082 201.396 147.979 201.527C147.877 201.657 147.824 201.819 147.831 201.984C147.837 202.15 147.902 202.307 148.013 202.429C148.125 202.551 148.277 202.63 148.441 202.65Z" fill="#FF9500"/>
<path d="M123.523 203.923C111.433 204.002 94.6015 204.043 82.7949 204.162C82.0786 204.162 81.9109 205.345 82.6883 205.462C87.8766 206.235 118.557 205.807 123.602 205.604C123.776 205.538 123.925 205.418 124.028 205.262C124.13 205.106 124.18 204.921 124.171 204.735C124.163 204.548 124.095 204.37 123.979 204.224C123.862 204.078 123.702 203.973 123.523 203.923Z" fill="#3A5AB7"/>
<path d="M148.768 189.838C150.458 189.912 153.778 189.979 155.475 189.953C157.171 189.927 156.702 188.306 155.979 188.185C155.421 188.093 150.676 187.515 148.569 188.185C147.088 188.565 147.222 189.771 148.768 189.838Z" fill="#FF9500"/>
<path d="M169.146 204.188C166.649 204.099 164.15 204.205 161.67 204.507C161.263 204.655 160.299 205.964 162.766 206.036C164.93 206.097 167.104 206.059 169.266 206.036C170.454 206.023 170.321 204.193 169.146 204.188Z" fill="#FF9500"/>
<path d="M167.634 203.092C168.792 203.185 169.056 201.402 167.894 201.326C166.382 201.218 161.921 200.893 160.427 201.396C159.64 201.656 159.896 202.769 160.613 202.916C162.022 203.204 165.75 202.943 167.634 203.092Z" fill="#FF9500"/>
<path d="M157.243 204.242C154.954 204.242 152.657 204.372 150.368 204.4C149.625 204.411 148.662 204.321 148.097 204.895C147.982 205.028 147.924 205.2 147.934 205.374C147.944 205.549 148.021 205.713 148.15 205.831C148.845 206.481 151.685 206.176 152.736 206.168C154.274 206.155 155.812 206.124 157.34 206.062C157.581 206.049 157.807 205.941 157.969 205.761C158.131 205.581 158.214 205.345 158.202 205.103C158.189 204.862 158.081 204.636 157.901 204.474C157.721 204.312 157.485 204.229 157.243 204.242Z" fill="#FF9500"/>
<path d="M62.7261 194.671C63.3618 194.91 69.3184 194.892 70.9447 194.901C72.7114 194.911 72.8258 193.134 70.9447 192.93C69.0636 192.726 63.8129 192.67 62.5935 193.407C62.4896 193.483 62.4074 193.585 62.3552 193.703C62.303 193.82 62.2826 193.949 62.296 194.077C62.3094 194.205 62.3562 194.327 62.4317 194.432C62.5072 194.536 62.6087 194.618 62.7261 194.671Z" fill="#FF9500"/>
<path d="M121.791 202.562C121.995 202.541 122.184 202.444 122.321 202.292C122.458 202.139 122.534 201.941 122.534 201.736C122.534 201.531 122.458 201.333 122.321 201.18C122.184 201.027 121.995 200.931 121.791 200.91C110.453 200.442 93.3544 200.694 82.4227 200.716C82.2589 200.723 82.1043 200.794 81.991 200.912C81.8777 201.031 81.8145 201.188 81.8145 201.352C81.8145 201.516 81.8777 201.674 81.991 201.793C82.1043 201.911 82.2589 201.981 82.4227 201.989C93.6144 202.173 110.444 202.81 121.791 202.562Z" fill="#3A5AB7"/>
<path d="M62.8337 198.348C66.0356 198.545 69.2401 198.676 72.4537 198.595C72.6185 198.552 72.7675 198.462 72.8828 198.337C72.9982 198.212 73.0749 198.056 73.1039 197.888C73.1328 197.72 73.1127 197.548 73.0461 197.391C72.9794 197.234 72.869 197.1 72.728 197.005C71.597 196.355 64.1311 196.474 62.718 197.058C62.1681 197.28 62.2591 198.312 62.8337 198.348Z" fill="#FF9500"/>
<path d="M74.3112 204.065C70.4809 203.789 66.6327 203.899 62.8244 204.392C61.9846 204.673 62.3473 205.952 63.1156 205.964C66.792 206.051 70.4801 206.076 74.1526 205.796C74.3584 205.778 74.5513 205.687 74.6975 205.541C74.8437 205.395 74.9341 205.202 74.953 204.996C74.9718 204.791 74.918 204.585 74.8007 204.414C74.6834 204.244 74.5102 204.12 74.3112 204.065Z" fill="#FF9500"/>
<path d="M56.5854 200.901C53.8372 200.901 51.0708 200.821 48.3317 201.007C48.1664 201.037 48.0157 201.121 47.9031 201.246C47.7905 201.37 47.7224 201.529 47.7093 201.696C47.6963 201.864 47.739 202.031 47.8309 202.171C47.9228 202.312 48.0586 202.418 48.2173 202.474C49.6083 202.966 54.9864 202.774 56.4437 202.734C56.6864 202.752 56.9266 202.674 57.1115 202.516C57.2965 202.357 57.4109 202.132 57.4297 201.889C57.4485 201.647 57.3701 201.406 57.2117 201.221C57.0534 201.036 56.8281 200.922 56.5854 200.903V200.901Z" fill="#FF9500"/>
<path d="M54.7566 204.047C53.467 204.069 48.5699 204.047 47.7574 204.542C47.652 204.595 47.5623 204.675 47.4971 204.774C47.4318 204.873 47.3933 204.986 47.3854 205.104C47.3774 205.222 47.4001 205.34 47.4515 205.447C47.5028 205.553 47.5809 205.645 47.6781 205.712C48.7103 206.288 54.1911 205.924 55.7732 205.88C57.7518 205.822 58.4694 203.986 54.7566 204.047Z" fill="#FF9500"/>
<path d="M30.1603 54.2672C27.104 54.8288 13.1238 57.7317 9.71262 59.0655C6.30142 60.3993 6.20262 63.4218 6.76162 65.9321C7.32062 68.4424 14.0689 91.9997 15.9162 95.8438C17.7635 99.6879 20.9589 99.3694 23.1533 98.865C28.1246 97.7331 33.0361 96.353 37.8693 94.7297C38.5355 92.6859 39.8834 90.9328 41.6874 89.7637C41.2694 89.2689 40.9022 88.7332 40.5915 88.1647C40.4849 89.1007 38.8235 89.2164 37.9395 89.4192C36.7123 89.7026 35.7737 88.7991 36.8449 88.0581C37.2349 87.7838 39.6191 86.9362 40.2106 87.3509C38.9561 84.1347 41.2974 82.1912 43.6491 84.0554C42.9861 81.0953 38.5791 62.0607 37.2245 58.4298C36.83 56.947 35.8678 55.6791 34.5458 54.9002C33.2239 54.1212 31.6486 53.8939 30.1603 54.2672ZM37.0178 73.2394C37.1478 74.308 35.7529 74.0766 34.0044 74.724C32.6511 75.2258 31.4291 74.6668 32.8734 73.4604C33.6001 72.8494 36.828 71.6573 37.0126 73.2394H37.0178ZM14.0403 71.6846C13.2538 71.5247 11.8043 65.4992 11.9187 64.9857C12.0331 64.4722 32.6563 59.2956 33.1945 59.631C33.7327 59.9664 35.3954 65.6578 35.1835 66.0998C34.9716 66.5418 14.5681 71.7899 14.0104 71.6898L14.0403 71.6846ZM20.7093 76.31C21.7987 76.18 21.956 77.8258 20.8679 78.0156C19.9852 78.169 19.1025 78.429 18.2679 78.6162C17.0056 78.9009 16.535 77.9662 17.64 77.246C18.6008 76.7576 19.6395 76.4408 20.7093 76.31ZM21.6102 81.3735C22.7412 81.1785 22.8829 82.9465 21.787 83.1402C20.6911 83.3339 20.1789 83.6173 19.4093 83.6602C17.9078 83.7473 18.1288 82.7333 18.9322 82.1665C19.7704 81.7437 20.6773 81.4738 21.6102 81.3696V81.3735ZM23.3769 86.1835C23.4893 86.2126 23.5949 86.2635 23.6876 86.3335C23.7803 86.4034 23.8583 86.4909 23.9171 86.591C23.9759 86.6911 24.0144 86.8019 24.0303 86.9169C24.0463 87.0319 24.0394 87.1489 24.01 87.2612C23.7877 88.1166 22.8257 87.932 20.682 88.4546C19.5848 88.7224 19.1883 87.6863 20.2231 87.0675C21.186 86.5196 22.2694 86.2181 23.3769 86.19V86.1835ZM24.517 92.8824C23.7578 93.1424 21.1981 94.2149 20.8679 92.9708C20.5793 91.8827 22.9479 91.5772 23.8982 91.2028C25.5622 90.5528 26.1966 92.2727 24.491 92.8824H24.517ZM28.0348 74.36C29.6429 74.2807 29.8015 75.7744 28.573 76.0838C27.3445 76.3932 27 76.4023 25.596 76.8079C25.5115 76.8563 25.4179 76.8869 25.3212 76.898C25.2244 76.9091 25.1264 76.9004 25.0331 76.8725C24.9397 76.8446 24.8531 76.798 24.7783 76.7355C24.7036 76.6731 24.6423 76.5961 24.5982 76.5092C24.5541 76.4223 24.5281 76.3274 24.5218 76.2302C24.5155 76.133 24.5291 76.0355 24.5616 75.9437C24.5941 75.8519 24.645 75.7677 24.7111 75.6961C24.7771 75.6245 24.8571 75.5671 24.946 75.5274C25.8861 74.9334 26.9369 74.5362 28.0348 74.36ZM26.1303 81.3605C25.7065 80.0345 29.1008 79.5405 29.6039 79.6705C29.9484 79.7563 31.0885 81.0225 28.8876 81.4372C28.1011 81.6413 26.4579 82.4629 26.1043 81.367L26.1303 81.3605ZM27.8619 85.293C28.8577 84.6389 30.0402 84.3284 31.2289 84.409C31.3788 84.4898 31.5022 84.6121 31.5843 84.7613C31.6664 84.9105 31.7036 85.0802 31.6915 85.25C31.6794 85.4199 31.6186 85.5826 31.5162 85.7187C31.4138 85.8548 31.2744 85.9584 31.1145 86.0171C30.1938 86.3031 29.2442 86.4862 28.2831 86.5631C28.1356 86.5617 27.9923 86.5141 27.8732 86.427C27.7542 86.3399 27.6654 86.2177 27.6194 86.0776C27.5733 85.9375 27.5723 85.7864 27.6165 85.6457C27.6607 85.505 27.7479 85.3817 27.8658 85.293H27.8619ZM29.3556 91.6201C28.5509 91.7631 28.3312 90.3747 29.0111 90.1082C30.0993 89.6787 31.2229 89.3446 32.369 89.1098C33.2166 88.9395 33.4467 90.4527 32.7044 90.7361C31.6203 91.1372 30.5002 91.4332 29.3595 91.6201H29.3556ZM39.1953 83.525C38.8404 84.253 35.4253 85.1695 35.1835 83.8604C34.9872 82.7749 36.7643 82.8204 38.1527 82.3004C38.3157 82.2547 38.4883 82.2566 38.6502 82.3059C38.8121 82.3552 38.9565 82.45 39.0662 82.5788C39.1759 82.7077 39.2464 82.8653 39.2693 83.033C39.2921 83.2007 39.2665 83.3715 39.1953 83.525ZM37.8602 78.1521C38.2229 79.3364 35.2095 79.8239 34.7064 79.8759C33.3726 80.0124 32.9449 78.9451 34.6089 78.1859C35.3889 77.8297 37.4806 76.9483 37.8433 78.1495L37.8602 78.1521Z" fill="#3A5AB7"/>
<path d="M246.48 153.485C245.747 154.566 244.749 155.443 243.581 156.03C242.413 156.618 241.115 156.898 239.809 156.842C241.319 151.54 237.484 148.827 235.25 149.835C232.058 151.275 234.136 156.701 237.635 157.964C236.932 159.167 235.961 160.192 234.799 160.961C234.723 160.996 234.655 161.047 234.599 161.11C234.543 161.172 234.5 161.246 234.473 161.325C234.446 161.405 234.436 161.489 234.442 161.572C234.448 161.656 234.472 161.738 234.511 161.812C234.549 161.887 234.603 161.953 234.668 162.006C234.733 162.059 234.808 162.099 234.888 162.122C234.969 162.146 235.053 162.153 235.137 162.143C235.22 162.133 235.3 162.106 235.373 162.065C237.071 161.345 238.443 160.023 239.225 158.353C240.88 158.575 242.562 158.266 244.031 157.472C245.5 156.678 246.679 155.439 247.4 153.933C247.641 153.352 246.855 153.043 246.48 153.485ZM238.236 156.489C235.585 155.449 234.498 151.346 236.381 151.453C238.263 151.559 238.769 154.597 238.238 156.489H238.236Z" fill="#3A5AB7"/>
<path d="M176.983 153.891C176.24 154.614 177.602 164.91 177.867 166.156C179.81 163.68 182.162 161.555 184.821 159.873C184.721 159.111 184.665 158.344 184.653 157.576C181.826 155.782 177.58 153.315 176.983 153.891Z" fill="#3A5AB7"/>
<path d="M196.026 155.914C197.808 157.628 199.334 159.59 200.559 161.738C200.819 162.339 200.02 162.674 199.63 162.269C197.144 159.669 189.451 151.756 186.552 152.274C184.167 152.701 186.552 162.956 186.747 164.477C186.82 165.06 186.235 165.246 185.908 164.663C185.441 163.649 185.142 162.565 185.024 161.455C178.485 165.662 175.384 173.031 175.014 175.903C175.388 176.187 175.816 176.393 176.27 176.512C176.725 176.63 177.199 176.657 177.664 176.592C178.716 176.444 183.279 172.472 186.714 178.042C190.941 184.896 184.946 193.487 182.021 194.698C184.866 196.749 189.727 197.826 193.702 198.171C194.671 200.893 195.853 203.535 197.237 206.071C197.847 206.645 206.869 206.548 207.377 206.257C207.885 205.966 208.34 200.954 208.587 198.639C213.24 198.663 217.803 197.364 221.745 194.892C221.846 194.824 221.969 194.798 222.09 194.818C222.21 194.839 222.317 194.906 222.389 195.004C222.461 195.103 222.493 195.225 222.476 195.346C222.46 195.467 222.398 195.577 222.302 195.653C220.598 197.158 218.573 198.255 216.381 198.86C217.088 201.042 218.803 205.929 219.342 206.292C219.882 206.655 228.974 206.504 229.062 205.797C229.703 202.31 230.628 198.882 231.828 195.546C232.887 192.647 243.996 178.776 234.417 163.849C225.498 149.954 204.191 152 196.026 155.914ZM179.581 173.594C178.503 173.408 178.931 170.864 179.829 170.944C180.727 171.023 180.579 173.804 179.581 173.638V173.594ZM180.827 168.363C180.352 168.467 179.92 168.714 179.59 169.07C179.188 169.507 178.635 169.017 178.821 168.451C178.955 168.108 179.173 167.803 179.456 167.567C179.739 167.331 180.077 167.17 180.439 167.099C181.189 167.055 181.463 168.256 180.829 168.407L180.827 168.363ZM185.882 173.664C184.751 173.664 185.13 170.925 186.068 171.014C187.005 171.102 186.848 173.727 185.882 173.718V173.664ZM187.516 169.061C187.049 168.645 186.46 168.39 185.837 168.336C184.898 168.243 185.317 166.888 186.182 166.869C186.654 166.864 187.119 166.987 187.527 167.225C187.936 167.462 188.272 167.806 188.5 168.22C188.76 168.927 188.032 169.537 187.518 169.104L187.516 169.061ZM188.76 192.66C189.464 192.345 192.287 191.664 191.578 188.613C191.355 187.651 192.647 187.067 193.098 188.366C194.138 191.374 192.318 193.664 189.159 193.645C188.408 193.647 188.27 192.882 188.76 192.66ZM211.169 155.83C208.862 155.764 206.555 155.945 204.286 156.369C202.652 156.75 202.336 155.665 203.588 154.964C205.193 154.06 209.048 153.947 211.037 154.08C213.026 154.213 212.786 155.804 211.167 155.883L211.169 155.83Z" fill="#3A5AB7"/>
<path d="M209.873 200.062C209.743 200.689 209.29 204.666 208.989 205.964C211.741 206.319 214.527 206.319 217.278 205.964C216.282 203.875 215.509 201.686 214.972 199.434C213.72 199.727 210.916 199.93 209.873 200.062Z" fill="#3A5AB7"/>
<path d="M184.565 189.979C188.638 182.777 185.81 176.267 181.914 176.601C178.688 176.878 178.485 178.112 177.169 178.161C175.854 178.21 175.198 177.139 173.634 176.991C169.321 176.592 170.292 185.637 172.52 188.894C175.287 192.942 180.472 197.216 184.565 189.979ZM175.057 186.251C173.627 186.703 172.539 182.37 173.802 181.831C175.278 181.099 176.442 185.81 175.057 186.251ZM181.516 186.347C179.696 186.285 180.244 181.255 181.684 181.346C183.43 181.456 182.789 186.391 181.516 186.347Z" fill="#3A5AB7"/>
<path d="M185.052 197.587C185.936 200.477 188.189 205.612 189.32 206.071C191.326 206.398 193.364 206.485 195.391 206.331C194.201 204.085 193.193 201.748 192.377 199.341C189.864 199.109 187.397 198.518 185.052 197.587Z" fill="#3A5AB7"/>
<path d="M209.413 144.772C212.771 145.097 214.483 142.368 214.247 138.992C213.937 134.424 211.458 135.456 211.959 136.623C212.999 139.06 212.841 143.001 209.962 143.048C205.906 143.114 205.242 136.938 206.825 134.768C207.056 134.456 207.35 134.195 207.688 134.003C208.026 133.812 208.4 133.693 208.787 133.656C209.972 133.526 208.31 131.305 206.039 133.204C202.92 135.812 203.812 144.23 209.413 144.772Z" fill="#FF9500"/>
<path d="M252.509 119.694C250.918 119.596 249.327 119.519 247.737 119.463C247.853 117.428 247.719 115.386 247.339 113.383C247.3 113.215 247.201 113.066 247.061 112.965C246.92 112.864 246.748 112.817 246.576 112.833C246.404 112.849 246.243 112.926 246.124 113.051C246.004 113.176 245.934 113.341 245.926 113.513C245.713 115.477 245.678 117.455 245.82 119.424C243.864 119.308 241.903 119.382 239.962 119.645C239.815 119.694 239.689 119.79 239.601 119.918C239.514 120.046 239.471 120.198 239.479 120.353C239.487 120.507 239.546 120.655 239.646 120.773C239.745 120.891 239.881 120.973 240.032 121.007C241.962 121.225 243.905 121.316 245.847 121.281V127.001C245.847 128.088 247.728 128.071 247.728 126.903V121.346C249.354 121.407 250.978 121.488 252.598 121.584C252.844 121.566 253.074 121.453 253.238 121.269C253.403 121.084 253.488 120.842 253.477 120.595C253.465 120.349 253.357 120.116 253.177 119.948C252.996 119.779 252.756 119.688 252.509 119.694Z" fill="#3A5AB7"/>
<path d="M175.692 95.702C174.766 96.859 173.753 97.9393 172.918 99.1665C172.461 99.8386 173.555 100.677 174.119 100.138C175.182 99.1236 176.099 97.964 177.089 96.8772C178.389 97.9549 179.647 99.0638 180.977 100.103C181.722 100.684 183.301 99.5994 181.94 98.4853L178.326 95.481C179.325 94.3591 180.358 93.2541 181.34 92.101C181.504 91.9355 181.598 91.712 181.6 91.4784C181.602 91.2448 181.513 91.0196 181.351 90.851C181.19 90.6824 180.969 90.5837 180.735 90.576C180.502 90.5684 180.274 90.6524 180.102 90.8101C178.966 91.9229 177.898 93.1033 176.904 94.3448C175.739 93.3 174.482 92.3624 173.148 91.5433C172.45 91.2248 171.955 92.1179 172.335 92.6574C173.368 93.7631 174.491 94.7814 175.692 95.702Z" fill="#3A5AB7"/>
<path d="M218.189 74.5563C218.028 75.119 218.014 75.7132 218.147 76.283C218.279 76.8527 218.555 77.3794 218.947 77.8133C219.34 78.2472 219.836 78.5741 220.39 78.7633C220.943 78.9524 221.536 78.9975 222.112 78.8944C223.09 78.5848 223.926 77.9353 224.467 77.0634C225.008 76.1914 225.22 75.1545 225.063 74.1403C224.371 70.8422 218.868 71.24 218.189 74.5563ZM223.243 75.1569C222.921 77.4813 220.015 77.8089 219.832 75.7055C219.608 73.1432 223.556 72.8962 223.243 75.1569Z" fill="#3A5AB7"/>
<path d="M215.054 66.4455C214.308 62.5351 209.025 63.1734 208.504 66.9031C208.45 67.8696 208.782 68.8178 209.428 69.5393C210.073 70.2609 210.978 70.6967 211.945 70.7511C212.44 70.6914 212.918 70.5297 213.347 70.2764C213.777 70.0231 214.15 69.6835 214.442 69.279C214.734 68.8745 214.939 68.414 215.045 67.9263C215.15 67.4386 215.153 66.9344 215.054 66.4455ZM211.817 65.6759C214.592 65.3483 213.311 69.4823 211.729 69.0065C209.171 68.2356 210.095 65.8787 211.817 65.6759Z" fill="#3A5AB7"/>
<path d="M211.915 78.0468C215.66 74.3375 219.152 70.3814 222.368 66.2051C222.812 65.4017 221.588 64.5632 221.016 65.1651C219.049 67.2802 211.924 74.8813 210.775 77.1563C210.41 77.8856 211.343 78.4355 211.915 78.0468Z" fill="#3A5AB7"/>
</svg>
