<svg width="260" height="260" viewBox="0 0 260 260" fill="none" xmlns="http://www.w3.org/2000/svg">
<path d="M126.807 137.57C126.085 136.745 125.571 135.759 125.307 134.694C124.989 132.757 124.888 130.791 125.005 128.831L84.0083 124.489L29.8789 179.711L40.9783 206.808L89.7114 151.074L125.615 151.545L126.807 137.57Z" fill="#3A5AB7"/>
<path d="M180.97 111.13C179.428 110.975 177.896 110.719 176.387 110.365C172.471 115.223 167.79 121.034 167.417 121.489C166.822 122.782 166.493 124.182 166.449 125.605C166.436 126.905 164.052 139.026 164.109 139.775C164.252 141.584 165.031 146.39 165.031 146.39C165.031 146.39 192.66 112.545 194.926 109.801C193.418 110.061 184.18 111.13 180.97 111.13Z" fill="#3A5AB7"/>
<path d="M195.715 52.23L212.179 65.9489C212.11 66.0321 189.547 94.0367 189.547 94.0367C195.073 95.0767 197.655 96.0868 207.739 94.3214C207.739 94.3214 223.469 75.2972 223.981 74.6914L238.268 86.6917L248.324 34.4434L195.715 52.23Z" fill="#3A5AB7"/>
<path d="M213.682 90.8945C212.845 91.2214 212.07 91.6902 211.392 92.2803C210.729 92.4467 201.382 97.9808 185.15 92.0931C180.656 90.2856 176.411 87.9112 172.519 85.0276C168.995 82.6226 164.155 80.2735 159.791 81.5319C159.724 81.5523 159.667 81.5956 159.63 81.6542C159.592 81.7128 159.576 81.7828 159.586 81.8517C159.595 81.9207 159.628 81.9842 159.68 82.0309C159.731 82.0775 159.798 82.1043 159.868 82.1065C165.942 82.4458 168.657 83.9421 173.482 87.6159C187.663 98.4176 205.722 98.1329 211.762 93.735C212.102 95.6215 212.023 97.5595 211.531 99.4121C211.512 99.4909 211.518 99.5737 211.55 99.6484C211.582 99.723 211.637 99.7854 211.707 99.8262C211.777 99.867 211.858 99.884 211.939 99.8748C212.019 99.8655 212.095 99.8305 212.154 99.7748C212.955 98.8203 213.385 97.6085 213.364 96.3623C213.525 95.1277 213.319 93.873 212.771 92.7548C214.008 92.4031 215.218 91.9594 216.389 91.4275C216.912 92.5171 217.325 93.6558 217.623 94.827C217.706 96.2672 217.543 97.711 217.14 99.0962C216.666 99.2691 216.212 99.5265 215.744 99.702C215.079 99.9173 214.394 100.067 213.699 100.149C213.179 100.236 213.277 100.971 213.699 101.11C214.453 101.307 215.246 101.301 215.997 101.093C216.748 100.884 217.43 100.481 217.975 99.9243C219.947 97.9548 219.779 92.3414 217.083 90.7528C216.557 90.4665 215.962 90.3285 215.363 90.3534C214.764 90.3784 214.183 90.5654 213.682 90.8945Z" fill="#212941"/>
<path d="M142.659 68.3955C144.437 68.9376 147.339 68.5619 147.927 66.4455C147.942 66.3847 147.939 66.3208 147.918 66.2617C147.898 66.2026 147.86 66.1507 147.811 66.1125C147.761 66.0743 147.701 66.0514 147.639 66.0466C147.576 66.0418 147.514 66.0553 147.459 66.0854C145.913 66.8927 144.75 67.9769 142.865 67.6649C142.771 67.6472 142.674 67.6652 142.593 67.7154C142.512 67.7656 142.453 67.8443 142.427 67.936C142.402 68.0278 142.411 68.1259 142.454 68.2109C142.497 68.296 142.57 68.3618 142.659 68.3955Z" fill="#212941"/>
<path d="M140.508 64.4798C140.155 64.3498 139.338 64.4616 139.382 64.1535C139.721 62.9985 140.187 61.8849 140.772 60.8333C140.914 60.5811 140.55 60.2691 140.356 60.5122C139.367 61.6065 138.691 62.9469 138.398 64.3927C138.238 65.6537 139.784 65.7096 140.608 65.2689C140.68 65.2249 140.737 65.1612 140.773 65.0855C140.809 65.0099 140.823 64.9253 140.812 64.8421C140.802 64.7589 140.767 64.6805 140.714 64.6162C140.66 64.552 140.588 64.5046 140.508 64.4798Z" fill="#212941"/>
<path d="M146.866 59.9196C146.857 59.8105 146.813 59.7072 146.741 59.6245C146.669 59.5418 146.573 59.4839 146.467 59.459C146.36 59.434 146.248 59.4434 146.147 59.4857C146.046 59.528 145.961 59.6012 145.904 59.6947C145.699 60.0933 145.555 60.5206 145.477 60.9622C145.341 61.3708 145.306 61.8058 145.373 62.231C145.393 62.2986 145.43 62.3599 145.481 62.4089C145.532 62.458 145.594 62.4933 145.662 62.5113C145.731 62.5293 145.802 62.5294 145.871 62.5118C145.939 62.4941 146.002 62.4592 146.053 62.4104C146.365 62.0822 146.601 61.6882 146.742 61.2572C146.883 60.8262 146.925 60.3692 146.866 59.9196Z" fill="#212941"/>
<path d="M138.34 57.72C137.083 58.8198 137.567 60.4903 138.276 60.0964C138.632 59.9027 138.754 59.3164 139.22 58.4064C139.286 58.2887 139.308 58.1509 139.282 58.0183C139.256 57.8857 139.182 57.7669 139.076 57.6838C138.969 57.6006 138.836 57.5585 138.701 57.5651C138.566 57.5718 138.438 57.6267 138.34 57.72Z" fill="#212941"/>
<path d="M137.837 56.364C138.357 56.0814 138.942 55.9378 139.534 55.9469C140.126 55.956 140.705 56.1176 141.217 56.416C141.274 56.4308 141.334 56.4304 141.39 56.415C141.447 56.3995 141.499 56.3695 141.541 56.3278C141.582 56.2862 141.612 56.2344 141.628 56.1776C141.643 56.1208 141.644 56.0609 141.629 56.0039C141.503 55.671 141.272 55.3883 140.97 55.1988C140.669 55.0092 140.314 54.9231 139.96 54.9535C139.077 55.0023 138.231 55.3198 137.534 55.8635C137.475 55.9071 137.435 55.971 137.421 56.0428C137.406 56.1146 137.42 56.189 137.457 56.2516C137.495 56.3142 137.555 56.3604 137.625 56.3812C137.696 56.402 137.771 56.3958 137.837 56.364Z" fill="#212941"/>
<path d="M149.785 58.3114C149.548 57.0478 145.855 54.7286 145.726 56.936C145.699 57.4352 147.317 57.7082 147.552 57.8811C147.971 58.2936 148.435 58.6577 148.936 58.9666C149.036 59.0201 149.149 59.0436 149.262 59.0342C149.375 59.0249 149.482 58.9831 149.572 58.9138C149.662 58.8446 149.73 58.7508 149.767 58.644C149.805 58.5371 149.811 58.4216 149.785 58.3114Z" fill="#212941"/>
<path d="M133.305 80.9393C127.465 79.8486 120.045 83.3976 109.069 83.1909C103.565 83.0856 97.6885 82.1028 93.5727 78.4862C92.3728 77.4319 91.5486 76.0708 90.4124 74.9762C90.3347 74.9017 90.2349 74.8545 90.128 74.8417C90.0211 74.8288 89.913 74.8511 89.8199 74.9051C89.7267 74.959 89.6537 75.0418 89.6116 75.1409C89.5696 75.24 89.561 75.3501 89.5869 75.4546C90.2876 78.3653 93.4869 80.7287 95.9699 82.0846C99.315 83.8304 102.993 84.8452 106.76 85.0616C118.047 85.8923 125.332 82.2302 133.179 81.8519C133.675 81.8298 133.844 81.0394 133.305 80.9393Z" fill="#212941"/>
<path d="M100.62 100.066C94.3713 95.6707 89.5158 92.9927 85.2492 84.7988C84.2378 82.8488 83.5969 80.8 82.7649 78.8006C83.9921 77.5491 85.3502 76.4329 86.8157 75.4713C87.1836 75.2763 86.9301 74.6432 86.5284 74.7875C85.34 75.1615 84.22 75.7256 83.2121 76.458C82.7584 76.8116 81.8991 77.9829 81.24 77.7996C80.5809 77.6163 79.6631 75.6689 79.6085 75.1307C79.4213 73.2847 81.8848 72.2278 83.3681 71.6207C85.0125 70.9298 86.8593 70.8963 88.5278 71.5271C88.4296 72.0301 88.4721 72.5505 88.6506 73.031C88.829 73.5115 89.1365 73.9335 89.5392 74.2506C89.5832 74.2737 89.633 74.2838 89.6826 74.2795C89.7322 74.2752 89.7795 74.2568 89.819 74.2264C89.8584 74.196 89.8883 74.1549 89.905 74.108C89.9218 74.0612 89.9248 74.0105 89.9136 73.962C89.7836 73.5226 89.5873 73.1131 89.4495 72.6776C89.3877 71.9989 89.2822 71.325 89.1336 70.66C88.4605 70.0659 87.6189 69.6965 86.726 69.6031C85.6061 66.1329 84.0059 62.8366 81.9719 59.8102C81.331 58.9132 80.356 57.3402 79.0781 57.5755C78.3226 57.815 77.6015 58.1519 76.9331 58.5778C75.7995 59.0987 74.6989 59.6887 73.6376 60.3445C73.5816 60.381 73.536 60.4314 73.5051 60.4907C73.4742 60.55 73.459 60.6163 73.4611 60.6831C73.4632 60.7499 73.4825 60.8151 73.517 60.8724C73.5515 60.9296 73.6002 60.977 73.6584 61.0101C74.4226 61.4982 75.2965 61.7882 76.2009 61.854C77.1054 61.9199 78.012 61.7594 78.8389 61.3871C78.916 61.3383 78.9754 61.266 79.0084 61.181C79.0414 61.096 79.0462 61.0026 79.0222 60.9145C78.9982 60.8265 78.9466 60.7485 78.875 60.692C78.8034 60.6355 78.7156 60.6034 78.6244 60.6006C77.8795 60.5252 77.1268 60.6734 76.3754 60.6396C75.8242 60.5976 75.2766 60.5186 74.7361 60.403C78.7154 59.7998 78.7765 58.414 80.1961 59.7686C82.8884 62.327 84.5355 66.4155 85.7575 69.555C84.6934 69.5921 83.6448 69.8211 82.6622 70.231C78.7622 71.8274 76.3806 74.0257 78.8922 77.407C79.5721 78.317 80.4782 80.0525 81.9004 79.4311C83.1406 87.0725 91.9338 98.5476 100.304 100.797C100.397 100.82 100.496 100.81 100.582 100.768C100.668 100.726 100.736 100.654 100.774 100.566C100.812 100.478 100.818 100.379 100.789 100.288C100.761 100.196 100.701 100.117 100.62 100.066Z" fill="#212941"/>
<path d="M77.1225 64.1639C75.6262 64.615 74.4419 63.6192 73.3811 62.6871C72.3931 61.8213 71.0242 60.2522 72.1305 58.9171C72.1692 58.8699 72.1983 58.8156 72.2163 58.7572C72.4281 59.2081 72.7929 59.5692 73.2459 59.7764C73.5371 59.9064 73.97 59.6893 73.8413 59.3188C73.6723 58.8235 73.398 58.3867 73.2147 57.8888C73.1588 57.7432 72.8637 56.5589 73.0444 56.5888C73.1075 56.6033 73.1737 56.595 73.2313 56.5654C73.2889 56.5358 73.3341 56.4867 73.359 56.427C73.384 56.3672 73.3869 56.3005 73.3674 56.2388C73.3479 56.177 73.3071 56.1242 73.2524 56.0896C72.4412 55.515 71.8796 56.4263 71.8666 57.1647C71.8591 57.5539 71.9158 57.9418 72.0343 58.3126C71.9629 58.2744 71.8813 58.2593 71.8009 58.2696C71.7205 58.2798 71.6454 58.3149 71.5858 58.3698C69.7801 59.8882 70.7785 62.2061 72.2358 63.5698C73.5033 64.758 76.1358 66.9069 77.5307 64.6917C77.5674 64.6298 77.5847 64.5584 77.5803 64.4866C77.5759 64.4148 77.55 64.346 77.506 64.2891C77.462 64.2322 77.4019 64.1898 77.3335 64.1675C77.2651 64.1452 77.1916 64.1439 77.1225 64.1639Z" fill="#212941"/>
<path d="M70.2415 61.7837C66.543 64.2433 73.0339 70.7537 76.2423 67.193C76.2892 67.1437 76.3207 67.082 76.3331 67.0152C76.3455 66.9484 76.3383 66.8794 76.3123 66.8167C76.2863 66.7539 76.2426 66.7 76.1866 66.6616C76.1305 66.6232 76.0646 66.6018 75.9966 66.6002C74.6226 66.8043 73.219 66.5829 71.9744 65.9658C71.3314 65.6076 70.8421 65.026 70.5994 64.3311C70.3566 63.6362 70.3773 62.8764 70.6575 62.1958C70.7953 61.9462 70.508 61.6056 70.2415 61.7837Z" fill="#212941"/>
<path d="M89.6999 53.1894C88.9695 51.8512 87.9169 50.7162 86.6373 49.8873C85.3578 49.0583 83.8917 48.5615 82.3718 48.4418C81.6607 48.3703 81.4943 49.5689 82.2015 49.6963C84.5748 50.1184 86.7062 51.4079 88.1815 53.3142C87.1883 53.6517 86.1259 53.7333 85.0927 53.5516C84.0596 53.3698 83.0889 52.9304 82.2704 52.2742C80.7788 50.8883 79.7136 49.1055 79.1998 47.1353C79.1574 46.9925 79.0745 46.8651 78.9612 46.7684C78.8478 46.6717 78.7089 46.6099 78.5612 46.5905C78.4135 46.5712 78.2634 46.595 78.1289 46.6591C77.9945 46.7233 77.8815 46.825 77.8036 46.952C76.5244 50.0068 75.6251 53.207 75.1256 56.481C75.0965 56.6023 75.1155 56.7303 75.1787 56.8379C75.2419 56.9455 75.3443 57.0244 75.4645 57.0581C75.5847 57.0917 75.7132 57.0775 75.8231 57.0184C75.933 56.9592 76.0157 56.8598 76.0538 56.741C76.761 54.3191 77.5891 51.931 78.4523 49.565C79.2367 51.2642 80.4351 52.7392 81.9376 53.855C82.9185 54.4528 84.0345 54.7929 85.1821 54.8439C86.3296 54.8948 87.4714 54.6548 88.5013 54.1462C86.4872 55.4159 84.8501 57.2021 83.7602 59.3189C83.5522 59.8805 84.3114 60.199 84.6923 59.8636C85.6348 59.0251 86.3667 57.898 87.2468 56.9841C88.1392 56.1763 88.9806 55.3141 89.7662 54.4023C89.8624 54.0001 89.8393 53.5787 89.6999 53.1894Z" fill="#212941"/>
<path d="M66.9735 63.8897C60.8544 64.0002 54.7145 65.4354 50.7391 70.5054C49.1272 72.6698 48.1422 75.2361 47.8923 77.9232C47.6423 80.6103 48.137 83.3143 49.3221 85.7388C54.3921 96.5886 71.3688 98.0511 76.3816 89.1305C79.5978 83.4105 75.7407 76.6505 76.7287 70.6237C76.808 70.131 76.1983 69.611 75.7966 70.079C73.3942 72.8714 75.5002 76.7337 75.7862 83.0946C76.0209 85.302 75.4254 87.5176 74.1157 89.3099C69.5098 95.039 58.5495 93.7949 53.1857 88.0242C51.4058 86.1214 50.2293 83.7342 49.8045 81.1636C49.3798 78.5929 49.7258 75.9541 50.7989 73.5799C53.72 67.6961 60.8713 65.2846 66.9774 64.5215C67.3622 64.4721 67.3895 63.8832 66.9735 63.8897Z" fill="#212941"/>
<path d="M68.5505 72.6608C68.0743 71.8778 67.3151 71.3081 66.4302 71.0696C66.6304 70.7199 66.8358 70.3741 67.0503 70.0296C67.2089 69.7696 66.8072 69.4407 66.6135 69.6929C66.3015 70.0946 66.0077 70.508 65.7191 70.9227C62.6459 70.5249 58.859 72.9533 60.549 76.2982C60.9781 76.978 61.556 77.5514 62.239 77.9752C61.5743 80.0111 61.0295 82.0843 60.6075 84.184C59.6186 83.485 58.9239 82.4443 58.6575 81.2629C58.6045 81.0993 58.4957 80.9596 58.3501 80.8682C58.2045 80.7767 58.0314 80.7393 57.861 80.7625C57.6906 80.7858 57.5339 80.8682 57.4181 80.9953C57.3023 81.1224 57.2348 81.2861 57.2275 81.4579C57.2313 82.4085 57.5252 83.3352 58.07 84.1142C58.6148 84.8931 59.3845 85.4872 60.276 85.8168C60.1252 86.6099 60.0719 87.4184 60.1174 88.2244C60.1217 88.3567 60.1727 88.4831 60.2614 88.5814C60.35 88.6797 60.4705 88.7434 60.6016 88.7613C60.7327 88.7792 60.8659 88.7501 60.9777 88.6792C61.0894 88.6083 61.1724 88.5002 61.212 88.3739C61.4551 87.6747 61.6258 86.9525 61.7216 86.2185C62.8979 86.4654 64.1239 86.2751 65.1699 85.683C66.2159 85.091 67.0102 84.1379 67.4039 83.0023C68.3256 80.1865 65.3434 78.6759 63.6443 77.4721C64.2138 75.7036 64.9196 73.982 65.7555 72.3228C66.5498 72.383 67.3132 72.656 67.9655 73.1132C68.2736 73.3537 68.7871 73.0599 68.5505 72.6608ZM64.839 72.2968C64.0024 73.6944 63.2894 75.1625 62.7083 76.6843C60.4567 74.3859 62.1259 72.4164 64.839 72.2968ZM66.1182 82.4459C65.8428 83.2943 65.2583 84.008 64.4808 84.4452C63.7033 84.8823 62.7898 85.0109 61.9218 84.8054C62.2406 82.7386 62.6931 80.6946 63.2764 78.6863C64.891 79.7705 66.503 80.8976 66.1182 82.4459Z" fill="#212941"/>
<path d="M155.827 78.7798C155.307 78.2767 154.189 77.0898 153.357 77.3667C153.226 77.4526 153.102 77.5486 152.986 77.654C152.727 75.3926 152.616 73.1166 152.654 70.8407C152.903 68.2316 153.977 65.9449 154.541 63.4606C156.036 64.3706 158.701 62.8834 158.634 58.6857C158.681 58.0263 158.489 57.3719 158.092 56.8429C157.696 56.3139 157.122 55.9458 156.476 55.8062C158.767 52.1402 157.305 44.8862 153.055 42.5865C150.086 40.9745 145.626 42.2082 143.156 39.8344C141.513 38.2588 141.748 37.0316 140.272 34.9282C139.945 34.5044 139.529 34.1575 139.053 33.912C138.577 33.6664 138.053 33.5283 137.518 33.5073C129.78 33.3201 128.539 43.997 130.854 49.4024C132.934 54.2553 141.254 56.4913 146.204 51.4915C146.766 52.4553 147.681 53.163 148.755 53.465C149.829 53.767 150.979 53.6397 151.961 53.11C152.389 53.796 152.662 54.5673 152.76 55.3699C152.859 56.1725 152.781 56.987 152.531 57.7562C152.485 57.842 152.464 57.9395 152.471 58.0369C152.479 58.1343 152.514 58.2275 152.574 58.305C152.633 58.3825 152.714 58.4411 152.806 58.4736C152.898 58.5061 152.998 58.5111 153.093 58.4881C153.894 58.2801 154.451 57.6561 155.228 57.4C156.492 56.9801 157.123 57.8888 157.075 59.0497C157.081 59.9502 156.851 60.8365 156.407 61.6198C156.068 62.0219 155.585 62.2737 155.061 62.3205C154.531 62.3686 154.039 62.1684 153.931 62.2854C152.065 64.3446 151.424 67.5595 151.129 70.2453C150.683 73.0571 150.934 75.9354 151.859 78.6277C151.469 78.9813 151.087 79.3375 150.852 79.5975C149.515 80.6247 147.963 81.3358 146.312 81.6775C145.036 81.3099 143.873 80.6257 142.932 79.6885C142.455 79.0161 142.067 78.2846 141.778 77.5123C141.943 76.6906 142.059 75.8597 142.125 75.0241C144.862 74.6922 147.434 73.5366 149.5 71.7104C149.552 71.6572 149.585 71.5884 149.594 71.5145C149.604 71.4407 149.589 71.3658 149.551 71.3013C149.514 71.2369 149.457 71.1864 149.388 71.1577C149.319 71.129 149.243 71.1236 149.171 71.1423C146.67 72.0159 144.404 73.5057 141.658 73.5239C140.416 73.5261 139.201 73.1671 138.159 72.4909C137.118 71.8146 136.296 70.8501 135.793 69.7149C133.429 64.9504 135.224 59.8076 137.353 55.3629C137.384 55.3059 137.394 55.2396 137.381 55.176C137.367 55.1123 137.332 55.0555 137.28 55.0157C137.229 54.9759 137.165 54.9557 137.1 54.9588C137.035 54.962 136.973 54.9882 136.926 55.0327C130.888 60.8827 132.102 75.0527 141.216 75.0683C140.934 75.3868 140.746 75.7768 140.671 76.1954C138.312 76.0186 135.861 78.7759 135.432 80.8663C135.43 81.1575 135.469 81.4476 135.547 81.7282C135.74 82.5533 136.097 83.331 136.597 84.0151C137.097 84.6992 137.73 85.2756 138.458 85.7101C138.718 85.8284 139.158 85.623 139.015 85.2811C138.652 84.5661 138.202 83.8988 137.675 83.2947C137.216 82.6197 136.804 81.9134 136.444 81.1809C137.754 79.9056 138.451 78.1766 140.239 77.6605C140.524 78.7005 141.049 79.6592 141.771 80.4601C142.494 81.261 143.393 81.8818 144.399 82.2729C143.513 82.7047 142.739 83.334 142.135 84.1124C141.394 85.0549 140.34 86.611 140.656 87.872C140.684 87.9625 140.737 88.0431 140.809 88.1043C140.881 88.1654 140.969 88.2046 141.063 88.217C141.157 88.2295 141.252 88.2147 141.338 88.1745C141.424 88.1344 141.496 88.0704 141.546 87.9903C141.845 87.4165 142.096 86.8185 142.295 86.2028C142.566 87.2065 143.144 88.1005 143.947 88.7599C146.086 90.3641 149.843 89.1772 150.102 86.247C150.451 86.8086 150.784 87.3806 151.117 87.9552C151.197 88.0882 151.318 88.1918 151.461 88.2506C151.605 88.3094 151.764 88.3202 151.914 88.2815C153.494 87.8231 154.866 86.8295 155.794 85.4709C155.892 85.3331 155.701 85.1563 155.566 85.2421C154.494 85.9178 153.329 86.4329 152.108 86.7709C148.436 79.4116 145.886 83.9668 151.37 80.5582C152.063 80.124 153.597 78.5965 153.795 78.7941C155.265 80.2917 156.054 81.9141 157.007 82.6434C157.33 82.8891 157.794 82.5537 157.787 82.1936C157.581 80.8515 156.882 79.6344 155.827 78.7798Z" fill="#212941"/>
<path d="M146.849 98.7114C145.242 105.898 139.976 109.241 132.939 108.643C129.689 108.365 126.371 107.285 123.233 108.178C119.94 109.118 117.626 112.018 115.762 114.883C114.809 116.346 113.912 117.843 113.072 119.375C109.441 119.315 105.808 119.255 102.174 119.194C102.068 116.508 101.797 109.834 101.96 109.204C103.584 105.691 105.978 102.588 108.963 100.126C114.921 95.8358 122.548 95.6915 129.573 97.7858C131.428 98.535 133.412 98.9109 135.413 98.8921C140.502 98.2512 141.598 93.1253 143.092 89.1421C143.628 89.861 144.424 90.3423 145.31 90.4837C146.045 90.6061 146.801 90.4918 147.468 90.1574C147.477 90.2198 147.188 97.1943 146.849 98.7114Z" fill="#212941"/>
<path d="M211.606 100.17C208.479 102.297 204.599 106.119 194.821 108.75C186.242 111.001 177.213 110.889 168.691 108.428C168.845 106.998 168.791 105.553 168.532 104.138C168.402 103.545 167.599 103.639 167.427 104.138C166.598 106.487 166.83 109.508 166.688 111.975C165.77 127.756 165.441 126.132 164.608 135.895C163.922 136.37 160.724 141.288 151.401 142.278C148.798 142.568 146.174 142.627 143.56 142.454C143.254 126.274 143.871 120.527 142.729 114.958C142.615 114.397 141.841 114.585 141.793 115.088C141.565 119.742 141.595 124.405 141.88 129.056C141.956 133.513 142.164 137.93 142.53 142.369C137.792 141.93 133.221 140.396 129.178 137.888C127.878 137.068 126.153 136.157 125.838 134.517C125.691 132.997 125.656 131.468 125.734 129.943C125.526 123.636 125.297 117.316 125.287 111.006C125.287 110.677 124.829 110.698 124.788 111.006C123.979 117.387 124.062 123.786 124.02 132.306C123.902 133.465 123.973 134.635 124.23 135.771C124.649 136.754 125.347 137.593 126.236 138.186C125.208 143.924 124.579 149.726 124.355 155.55C123.984 161.642 121.219 225.81 120.949 232.609C120.849 232.678 110.821 236.632 105.778 238.226C104.881 238.511 105.366 239.377 106.004 239.606C106.959 239.777 107.933 239.81 108.897 239.702C111.298 239.743 125.697 239.464 130.477 239.127C133.529 238.913 132.139 234.317 131.297 232.592C131.069 232.152 130.802 231.735 130.497 231.344C131.823 228.176 144.823 164.116 145.345 160.741C146.472 163.861 147.611 167.97 148.447 171.179C155.834 199.494 157.898 221.502 159.771 231.33C159.469 231.77 156.721 238.919 159.771 239.13C164.56 239.467 169.356 239.665 174.159 239.723C177.523 239.855 180.892 239.817 184.252 239.608C184.883 239.375 185.368 238.514 184.471 238.229C179.145 236.445 173.915 234.388 168.802 232.064C169.842 227.304 169.62 222.184 169.533 217.351C169.196 198.444 164.915 138.167 164.903 137.992C165.184 137.663 165.454 137.324 165.707 136.963C165.796 136.839 165.841 136.689 165.834 136.537C165.828 136.385 165.769 136.239 165.669 136.124C167.831 128.714 167.827 118.028 168.619 109.131C180.579 114.133 194.962 112.466 205.844 106.283C208.184 104.955 210.987 103.341 212.356 100.936C212.631 100.472 212.084 99.84 211.606 100.17ZM167.56 231.73C166.666 232.277 165.599 232.468 164.57 232.264C163.51 232.03 162.498 231.614 161.58 231.033C161.081 225.846 160.15 220.666 159.352 215.517C156.882 199.577 154.142 184.187 149.237 167.701C147.689 162.501 146.018 156.477 142.533 152.239C142.481 152.189 142.414 152.157 142.342 152.148C142.27 152.139 142.197 152.155 142.135 152.191C142.072 152.228 142.024 152.284 141.996 152.35C141.968 152.417 141.963 152.491 141.982 152.561C142.658 154.251 143.395 155.899 144.099 157.569C143.027 160.311 131.019 225.545 129.459 230.59C128.275 231.294 127.011 231.855 125.695 232.261C124.714 232.454 123.696 232.293 122.822 231.807C123.821 207.398 124.434 182.968 125.633 158.57C125.959 151.921 126.506 145.288 126.891 138.642C135.059 144.122 144.495 145.393 154.138 143.656C157.467 143.139 160.604 141.761 163.238 139.66C165.969 179.222 168.645 203.71 167.56 231.733V231.73Z" fill="#212941"/>
<path d="M150.345 214.129C147.047 214.086 143.741 214.397 140.429 214.366C139.74 214.366 139.763 215.367 140.429 215.429C142.678 215.672 144.945 215.716 147.202 215.559C147.21 218.605 147.462 221.654 147.438 224.71C147.438 225.4 148.439 225.376 148.502 224.71C148.884 221.627 148.811 218.505 148.287 215.444C149.02 215.349 149.748 215.215 150.466 215.042C150.57 215.008 150.659 214.939 150.718 214.846C150.776 214.754 150.8 214.644 150.786 214.535C150.771 214.427 150.719 214.327 150.639 214.253C150.559 214.178 150.455 214.135 150.345 214.129Z" fill="#212941"/>
<path d="M116.2 213.246C85.1694 214.369 53.7679 212.767 22.0713 213.135C20.4788 153.725 22.9982 60.1939 18.3013 21.1965C18.2389 20.6869 17.4706 20.6518 17.4771 21.1965C17.5395 24.8833 17.6435 28.5701 17.7618 32.2569C14.712 32.2634 11.6596 32.5169 8.59943 32.4922C7.90653 32.4922 7.93383 33.4932 8.59943 33.5556C11.6584 33.9336 14.756 33.8661 17.7956 33.3554C18.0972 42.3579 18.4924 51.3604 18.6796 60.3668C15.7091 60.3863 12.736 60.6268 9.75643 60.6021C9.06613 60.6021 9.09083 61.6031 9.75643 61.6655C12.7301 62.0275 15.7395 61.9763 18.6991 61.5134C18.8907 71.0632 19.0107 80.6121 19.0592 90.1602C15.9626 90.1602 12.8608 90.4202 9.75253 90.3955C9.06223 90.3955 9.08693 91.3965 9.75253 91.4589C12.8502 91.8437 15.9877 91.768 19.0631 91.234C19.0865 95.1431 19.1112 114.586 19.1047 120.397C15.9925 120.397 12.8738 120.657 9.74473 120.632C9.05443 120.632 9.07913 121.633 9.74473 121.696C12.855 122.084 16.0058 122.006 19.093 121.464C19.0792 130.328 19.064 139.193 19.0475 148.06C15.9509 148.06 12.8491 148.32 9.74083 148.295C9.05053 148.295 9.07523 149.296 9.74083 149.358C12.8358 149.742 15.9704 149.668 19.0436 149.137C19.035 159.567 19.0605 169.997 19.1203 180.427C16.0003 180.427 12.8725 180.695 9.73693 180.664C9.04663 180.664 9.07133 181.669 9.73693 181.727C12.8599 182.118 16.0239 182.038 19.1229 181.488C19.1372 183.359 19.3595 204.482 19.5948 213.17C15.3633 213.243 11.1357 213.385 6.91593 213.669C6.79422 213.669 6.6775 213.718 6.59144 213.804C6.50538 213.89 6.45703 214.007 6.45703 214.128C6.45703 214.25 6.50538 214.367 6.59144 214.453C6.6775 214.539 6.79422 214.587 6.91593 214.587C11.1539 214.639 15.3928 214.673 19.6325 214.687C19.7859 219.972 19.9835 225.256 20.2565 230.537C20.3332 232.055 22.6888 232.07 22.6264 230.537C22.4124 225.26 22.2321 219.98 22.0856 214.698C29.7686 214.729 37.4503 214.743 45.1333 214.82C45.0917 218.111 45.3998 221.411 45.3686 224.717C45.3686 225.406 46.3696 225.381 46.432 224.717C46.854 221.426 46.7359 218.089 46.0823 214.837C47.9023 214.858 70.6523 215.227 80.2112 215.332C80.2047 218.452 80.4712 221.586 80.4465 224.723C80.4465 225.412 81.4475 225.388 81.5099 224.723C81.9004 221.603 81.8211 218.443 81.2746 215.346C90.8309 215.445 105.777 215.547 115.285 215.062C115.262 218.278 115.545 221.497 115.521 224.727C115.521 225.416 116.523 225.391 116.585 224.727C116.995 221.492 116.889 218.213 116.273 215.011C117.322 214.833 117.305 213.207 116.2 213.246Z" fill="#212941"/>
<path d="M252.98 212.511C245.854 212.064 243.289 212.413 176.296 214.5C176.221 214.505 176.151 214.538 176.1 214.593C176.049 214.647 176.021 214.72 176.021 214.794C176.021 214.869 176.049 214.941 176.1 214.996C176.151 215.051 176.221 215.084 176.296 215.089C179.352 215.047 182.41 215.012 185.469 214.982C185.44 218.219 185.729 221.461 185.704 224.717C185.704 225.406 186.705 225.381 186.768 224.717C187.179 221.474 187.072 218.187 186.453 214.978C195.847 214.893 218.62 214.616 220.613 214.577C220.336 215.054 220.813 220.98 220.778 224.717C220.778 225.406 221.78 225.381 221.843 224.717C222.273 221.372 222.141 217.979 221.453 214.678C221.413 214.504 220.23 214.59 234.167 214.317C240.432 214.196 246.752 214.279 252.975 213.611C253.121 213.611 253.261 213.554 253.365 213.452C253.468 213.349 253.527 213.209 253.528 213.063C253.528 212.918 253.471 212.777 253.368 212.674C253.266 212.57 253.126 212.512 252.98 212.511Z" fill="#212941"/>
<path d="M173.241 27.617C172.838 26.9969 172.419 26.3586 172.055 25.7112C171.012 26.5848 171.197 27.8198 173.241 27.617Z" fill="#FF9500"/>
<path d="M176.67 28.518C176.281 28.4319 175.877 28.4413 175.492 28.5453C175.939 29.2356 176.441 29.9558 176.913 30.6981C177.116 30.5824 177.28 30.41 177.386 30.2021C177.491 29.9942 177.534 29.7599 177.508 29.5281C177.482 29.2963 177.389 29.0771 177.24 28.8976C177.091 28.7181 176.893 28.5861 176.67 28.518Z" fill="#FF9500"/>
<path d="M181.948 24.1591C179.329 20.8116 175.018 19.1268 170.974 20.9884C168.802 21.8471 167.057 23.5292 166.119 25.6684C165.447 27.5938 165.409 29.6842 166.013 31.6324C166.617 33.5805 167.83 35.2835 169.473 36.4909C171.391 37.7008 173.687 38.1609 175.923 37.7831C183.013 36.6846 185.614 28.8339 181.948 24.1591ZM178.49 33.9507C178.675 34.6449 177.71 35.3235 177.205 34.6995C176.905 34.3203 176.632 33.9212 176.387 33.5048C173.483 34.8971 171.462 33.0082 172.638 32.3504C173.504 31.9708 174.41 31.6862 175.338 31.5015C174.922 30.637 174.462 29.6282 173.99 28.83C173.118 28.9824 172.227 29.0022 171.349 28.8885C170.16 28.6636 169.984 27.5482 170.276 26.477C170.367 26.1172 170.529 25.7791 170.752 25.4823C170.976 25.1855 171.255 24.9359 171.576 24.748C171.392 24.3462 171.248 23.9274 171.147 23.4974C171.095 23.2647 171.355 23.0112 171.573 23.1646C171.98 23.4528 172.349 23.7913 172.671 24.1721C173.159 23.9523 173.621 23.6807 174.051 23.3622C174.11 23.3114 174.187 23.285 174.265 23.2883C174.343 23.2915 174.417 23.3241 174.473 23.3797C174.528 23.4352 174.56 23.5095 174.563 23.5877C174.566 23.6659 174.539 23.7423 174.488 23.8016C174.124 24.2227 173.691 24.5788 173.208 24.8546C173.787 25.6528 174.289 26.5446 174.768 27.3571C175.052 27.2973 175.339 27.2388 175.63 27.2011C179.227 26.7071 180.492 30.0208 177.921 32.4583C178.158 32.9365 178.349 33.4362 178.49 33.9507Z" fill="#FF9500"/>
<path d="M208.239 168.57C212.03 169.365 213.615 166.201 211.756 164.169C211.17 163.567 210.515 163.036 209.806 162.586C209.69 163.1 208.962 165.985 208.239 168.57Z" fill="#FF9500"/>
<path d="M208.585 155.254C207.476 155.458 205.376 156.442 206.09 157.824C206.71 158.664 207.469 159.391 208.335 159.973C208.515 160.121 208.713 160.274 208.92 160.424C209.818 157.072 209.919 156.646 210.22 155.254C209.679 155.162 209.126 155.162 208.585 155.254Z" fill="#FF9500"/>
<path d="M221.697 154.006C217.082 148.112 209.49 145.145 202.372 148.416C198.75 150.082 195.209 152.795 193.82 156.669C191.248 163.831 194.237 172.121 199.732 175.729C203.106 177.861 207.148 178.671 211.084 178.005C223.6 176.056 228.133 162.22 221.697 154.006ZM214.864 156.061C213.698 156.077 212.539 155.893 211.436 155.516C211.294 156.126 210.439 159.936 210.124 161.255C212.303 162.721 214.764 164.408 214.115 167.222C213.395 170.342 210.605 171.093 207.745 170.538C207.526 171.632 207.145 172.688 206.615 173.671C206.249 174.281 205.109 174.075 205.185 173.281C205.337 172.176 205.626 171.095 206.046 170.062C203.878 169.382 202.052 167.898 200.945 165.914C200.72 165.381 201.465 164.896 201.898 165.179C203.422 166.291 205.042 167.265 206.739 168.09C206.778 167.96 208.004 163.869 208.568 161.752C208.246 161.531 207.934 161.305 207.642 161.062C204.994 158.872 203.131 157.422 205.816 155.241C206.453 154.72 207.203 154.355 208.007 154.176C208.811 153.998 209.645 154.01 210.443 154.212C210.614 153.391 210.894 152.596 211.277 151.849C211.311 151.796 211.36 151.755 211.418 151.732C211.477 151.708 211.541 151.705 211.602 151.72C211.662 151.736 211.716 151.771 211.756 151.819C211.796 151.868 211.819 151.928 211.822 151.991C211.894 152.857 211.834 153.728 211.645 154.576C212.667 155.026 213.751 155.318 214.86 155.442C214.901 155.442 214.941 155.45 214.979 155.465C215.016 155.48 215.05 155.503 215.079 155.532C215.108 155.56 215.131 155.594 215.147 155.631C215.163 155.669 215.171 155.709 215.171 155.75C215.172 155.79 215.164 155.831 215.149 155.868C215.133 155.906 215.111 155.94 215.082 155.969C215.054 155.998 215.02 156.021 214.982 156.037C214.945 156.053 214.905 156.061 214.864 156.061Z" fill="#FF9500"/>
<path d="M40.3297 113.799C40.8474 114.011 41.3899 114.157 41.9443 114.232C41.3216 111.363 41.3398 111.494 41.1305 110.685C39.369 111.363 38.5006 112.989 40.3297 113.799Z" fill="#FF9500"/>
<path d="M45.1818 104.058C38.6701 103.313 31.4733 106.948 30.2955 113.83C29.749 116.982 30.321 120.225 31.9127 122.999C35.2147 128.515 42.1281 128.484 47.7077 127.171C60.1097 124.25 57.2679 105.442 45.1818 104.058ZM45.1103 121.766C45.303 122.495 45.3931 123.247 45.3781 124C45.3645 124.178 45.2902 124.346 45.1677 124.476C45.0451 124.606 44.8817 124.69 44.7047 124.714C44.5277 124.738 44.3479 124.7 44.1953 124.608C44.0427 124.515 43.9265 124.373 43.8662 124.204C43.6332 123.557 43.477 122.884 43.4008 122.2C42.5592 122.368 41.6903 122.342 40.8604 122.123C40.0305 121.905 39.2614 121.5 38.6116 120.939C38.5245 120.847 38.466 120.731 38.4431 120.606C38.4202 120.481 38.4339 120.353 38.4826 120.235C38.5312 120.118 38.6127 120.018 38.7173 119.946C38.8218 119.874 38.9449 119.834 39.0718 119.83C40.3718 119.803 41.7615 120.055 43.0953 119.996C42.7859 118.269 42.4258 116.469 42.223 115.533C38.9548 114.959 36.6551 114.062 38.4868 111.302C38.7608 110.889 39.1141 110.534 39.5263 110.259C39.9385 109.983 40.4014 109.793 40.8879 109.698C40.7369 109.095 40.6682 108.475 40.6838 107.854C40.6862 107.791 40.7088 107.731 40.7481 107.682C40.7875 107.632 40.8416 107.597 40.9025 107.581C40.9634 107.564 41.0279 107.568 41.0865 107.591C41.1452 107.614 41.1949 107.655 41.2285 107.709C41.592 108.252 41.8687 108.848 42.0488 109.477C42.8577 109.386 43.6525 109.197 44.4161 108.915C44.7554 108.773 44.9361 109.305 44.6553 109.479C43.9184 109.887 43.1202 110.173 42.2919 110.326C42.7235 111.906 42.8925 112.447 43.3904 114.408C45.8357 114.751 48.2719 115.332 48.2485 117.886C48.1848 118.776 47.8498 119.625 47.2887 120.319C46.7276 121.013 45.9673 121.518 45.1103 121.766Z" fill="#FF9500"/>
<path d="M43.7334 115.768C44.0558 117.091 44.3574 118.422 44.6434 119.752C45.0179 119.675 45.3694 119.513 45.6703 119.277C45.9713 119.041 46.2134 118.739 46.3776 118.394C47.1823 116.371 45.1101 115.96 43.7334 115.768Z" fill="#FF9500"/>
<path d="M224.38 82.9398C224.531 84.084 224.357 85.2475 223.878 86.2977C223.855 86.3881 223.862 86.4837 223.898 86.5697C223.934 86.6558 223.998 86.7278 224.078 86.7747C224.159 86.8216 224.253 86.8409 224.346 86.8297C224.438 86.8184 224.525 86.7772 224.592 86.7124C226.338 84.9158 225.458 81.3941 224.009 80.8623C223.712 80.7544 223.5 81.1432 223.452 81.3304C222.865 83.6197 222.453 84.9925 220.423 86.3861C219.641 86.7989 218.964 87.3839 218.442 88.0969C217.919 88.8099 217.566 89.6323 217.408 90.5019C217.39 90.5851 217.401 90.6722 217.44 90.7478C217.48 90.8234 217.545 90.8826 217.624 90.9149C217.703 90.9473 217.79 90.9507 217.871 90.9246C217.953 90.8985 218.022 90.8445 218.067 90.7723C218.625 89.4938 219.516 88.3891 220.648 87.5743C222.4 86.4966 223.92 85.5073 224.38 82.9398Z" fill="#212941"/>
<path d="M228.422 92.9667C229.161 91.993 229.444 90.2458 227.917 90.0456C228.28 89.5789 228.449 88.9906 228.391 88.4023C228.332 87.814 228.049 87.2709 227.601 86.8853C227.089 86.6014 226.507 86.4695 225.923 86.5049C225.338 86.5404 224.777 86.7418 224.303 87.0855C224.035 87.2701 224.101 87.7966 224.482 87.7576C225.048 87.6991 226.302 87.5119 226.731 88.0176C227.16 88.5233 226.631 89.3007 226.173 89.5633C225.647 89.8188 225.087 89.9986 224.511 90.0976C223.972 90.1703 223.439 90.2802 222.916 90.4265C222.832 90.4518 222.756 90.4981 222.696 90.561C222.635 90.6239 222.592 90.7014 222.569 90.7859C222.547 90.8704 222.547 90.9591 222.569 91.0437C222.591 91.1283 222.634 91.2058 222.695 91.2689C223.648 92.3089 226.674 91.5523 227.606 90.4421C227.606 90.4733 228.906 91.9124 226.274 92.7964C225.005 93.2202 223.979 92.4831 223.235 92.7964C223.178 92.8141 223.125 92.8443 223.081 92.885C223.036 92.9256 223.002 92.9757 222.979 93.0314C222.956 93.0872 222.946 93.1473 222.95 93.2074C222.953 93.2674 222.97 93.326 222.999 93.3788C223.557 94.6281 226.389 94.4188 227.709 93.6011C227.726 93.6245 228.797 95.4549 225.705 95.659C224.842 95.5936 223.992 95.4144 223.176 95.126C223.079 95.1027 222.977 95.1114 222.885 95.1506C222.793 95.1898 222.717 95.2576 222.666 95.3438C222.616 95.4301 222.595 95.5302 222.606 95.6294C222.617 95.7285 222.66 95.8214 222.728 95.8943C223.379 96.5459 224.23 96.9589 225.145 97.0665C226.059 97.174 226.983 96.9699 227.767 96.4871C228.97 95.7318 229.875 93.9261 228.422 92.9667Z" fill="#212941"/>
</svg>
