<svg width="260" height="260" viewBox="0 0 260 260" fill="none" xmlns="http://www.w3.org/2000/svg">
<path d="M212.19 162.64C189.23 162.64 174.6 180.671 175.956 200.673C177.366 221.407 194.89 234.075 212.19 234.681C231.892 235.369 247.455 220.213 248.358 200.502C249.254 179.451 235.284 162.64 212.19 162.64ZM239.62 212.13C230.578 231.86 202.645 232.41 189.345 218.278C175.881 203.978 182.056 178.491 200.566 171.258C226.241 161.23 250.737 187.824 239.614 212.13H239.62Z" fill="#FF9500"/>
<path d="M203.363 191.667C202.359 192.939 201.615 194.396 201.173 195.956C200.732 197.515 200.602 199.147 200.791 200.756C200.981 202.366 201.485 203.923 202.276 205.338C203.067 206.753 204.128 207.998 205.4 209.002C205.974 209.457 206.588 209.859 207.235 210.203C209.835 202.427 212.325 194.533 215.035 186.811C212.836 186.546 210.605 186.853 208.56 187.704C206.515 188.555 204.725 189.92 203.363 191.667Z" fill="#FF9500"/>
<path d="M197.188 174.576C182.946 182.914 178.895 205.076 190.487 217.184C204.431 231.744 233.89 229.735 239.804 206.894C246.134 182.281 219.297 161.628 197.188 174.576ZM225.825 195.139C223.691 191.16 221.304 188.293 216.725 187.109L208.759 210.837C210.804 211.543 213 211.69 215.121 211.263C217.241 210.835 219.209 209.848 220.82 208.404C221.581 207.698 222.77 208.811 221.997 209.516C220.167 211.175 217.929 212.318 215.512 212.826C213.095 213.335 210.586 213.191 208.243 212.41C207.846 213.843 207.329 215.241 206.697 216.588C206.609 216.714 206.482 216.808 206.335 216.856C206.189 216.904 206.031 216.904 205.885 216.855C205.739 216.807 205.613 216.712 205.525 216.585C205.437 216.459 205.392 216.307 205.397 216.154C205.712 214.665 206.154 213.207 206.718 211.795C204.754 210.789 203.055 209.335 201.759 207.55C200.463 205.764 199.606 203.698 199.259 201.519C198.912 199.341 199.084 197.111 199.761 195.011C200.437 192.911 201.6 191 203.155 189.435C204.751 187.805 206.711 186.576 208.873 185.848C211.036 185.121 213.34 184.915 215.597 185.247C216.067 183.955 216.546 182.671 217.062 181.395C217.126 181.246 217.244 181.125 217.392 181.058C217.541 180.991 217.709 180.983 217.864 181.034C218.018 181.085 218.148 181.192 218.228 181.335C218.307 181.477 218.33 181.644 218.292 181.802C217.956 183.069 217.586 184.326 217.206 185.583C221.52 186.753 225.806 190.221 226.873 194.683C227.01 195.283 226.15 195.754 225.825 195.139Z" fill="#FF9500"/>
<path d="M59.7872 192.154C59.9285 189.079 58.8799 186.068 56.8592 183.746C54.8385 181.424 52.0011 179.97 48.9361 179.685C44.7683 179.513 19.8161 179.685 19.2142 180.11C18.6123 180.535 18.9334 204.253 19.7342 204.697C20.535 205.14 43.3708 205.384 48.3446 205.384C53.3184 205.384 59.7872 201.956 59.7872 192.154ZM38.7181 193.475C38.6514 192.562 38.7714 191.644 39.0708 190.779C39.3702 189.913 39.8427 189.118 40.4595 188.441C41.0763 187.764 41.8245 187.22 42.6585 186.842C43.4925 186.463 44.3948 186.259 45.3104 186.241C46.1708 186.193 47.032 186.321 47.841 186.617C48.6501 186.914 49.3901 187.373 50.0157 187.965C50.6413 188.558 51.1394 189.272 51.4793 190.064C51.8191 190.856 51.9938 191.709 51.9924 192.57C51.9924 196.188 49.5055 199.72 45.8252 199.72C44.0882 199.706 42.4142 199.067 41.1093 197.921C39.8044 196.774 38.9556 195.196 38.7181 193.475Z" fill="#3A5AB7"/>
<path d="M105.19 146.364C101.673 146.536 69.8161 146.617 67.2122 146.884C66.9512 147.922 66.7906 148.982 66.7325 150.05C67.9259 149.833 68.975 150.05 70.0605 149.877C70.9705 149.76 71.3527 151.437 69.7797 151.388L66.6064 151.289C66.5427 152.597 66.09 153.856 65.3064 154.905C64.0584 156.298 59.2848 156.389 55.5044 155.447C53.3697 154.913 51.5196 153.583 50.3317 151.731H47.174C45.7817 151.731 46.1522 150.637 46.6137 150.574C47.6173 150.444 48.63 150.366 49.6336 150.267C49.2558 149.182 49.153 148.021 49.3346 146.887C46.9387 146.805 41.025 146.633 36.1513 146.887C26.2947 147.407 21.6836 155.116 21.6836 163.769C21.6836 166.681 22.0268 173.273 22.2036 178.499C27.0864 178.418 40.4517 177.893 47.7395 178.156C57.0709 178.499 61.5299 184.666 61.4389 192.036C61.3479 199.406 58.5009 206.667 47.798 206.894C44.6234 206.976 26.6379 206.469 23.0395 206.374C23.1214 208.607 22.877 215.344 23.2111 222.65C23.6362 231.9 30.5808 235.309 39.3311 235.309C44.4856 235.309 98.641 234.529 116.636 234.278C116.021 231.512 117.114 227.352 119.583 224.332C120.27 220.652 130.434 186.354 133.634 179.336C130.292 176.511 109.902 155.61 105.19 146.364ZM26.1595 175.535C25.2495 175.444 25.5537 172.913 25.5628 172.243C25.5628 170.435 27.1085 170.344 27.0279 172.243C27.0006 172.849 27.1579 175.634 26.1595 175.535ZM26.2765 167.134C25.2456 167.071 25.6525 163.987 25.6798 163.255C25.6798 162.279 27.2398 162.179 27.2086 163.155C27.1774 164.131 27.3802 167.216 26.2765 167.107V167.134ZM28.0848 157.865C27.8248 158.3 27.6597 159.529 26.9642 159.403C25.581 159.159 27.6597 153.977 29.0351 155.099C29.7761 155.732 28.4735 157.161 28.0575 157.865H28.0848ZM35.0658 152.377C33.9986 152.62 32.9636 152.987 31.9822 153.471C30.7797 154.068 29.8931 152.171 33.7099 151.131C35.9342 150.517 35.6079 152.162 35.0385 152.379L35.0658 152.377ZM43.2038 151.636C42.0013 151.741 40.7934 151.771 39.5872 151.726C38.8371 151.645 38.1312 150.426 41.2967 150.153C45.094 149.818 43.8733 151.618 43.1947 151.636H43.2038ZM27.6038 208.793C28.3539 208.793 28.2993 210.041 28.3357 211.108C28.3357 211.831 28.7153 213.578 27.5674 213.594C26.4195 213.609 26.8342 211.714 26.8342 211.072C26.8342 210.43 26.6834 208.811 27.5973 208.793H27.6038ZM26.9707 219.861C26.3922 216.56 28.1823 216.018 28.2811 217.203C28.3237 218.193 28.4205 219.18 28.571 220.159C28.7517 221.144 27.3139 221.949 26.9707 219.861ZM29.1222 228.051C28.6443 227.632 28.267 227.11 28.0181 226.525C27.7692 225.94 27.6551 225.306 27.6844 224.671C27.83 223.821 28.4982 223.658 28.7608 224.319C29.0107 225.287 29.4641 226.19 30.0907 226.968C30.7615 227.954 30.1102 228.8 29.1209 228.054L29.1222 228.051ZM36.1422 231.206C35.5546 232.31 32.6517 230.79 32.2721 230.356C32.0823 230.13 31.8743 228.991 33.6735 229.624C34.7044 229.977 36.6934 230.203 36.1604 231.206H36.1422ZM44.145 232.4C43.7823 232.744 40.7442 232.283 40.1384 232.21C39.994 232.192 39.8611 232.122 39.7648 232.013C39.6684 231.904 39.6152 231.763 39.6152 231.618C39.6152 231.472 39.6684 231.332 39.7648 231.223C39.8611 231.114 39.994 231.044 40.1384 231.026C40.7442 230.98 43.8187 230.79 44.1892 231.46C44.2979 231.594 44.3551 231.762 44.3503 231.935C44.3456 232.107 44.2792 232.272 44.1632 232.4H44.145ZM51.6408 232.753C50.3641 232.712 49.0904 232.603 47.8253 232.427C47.4002 232.363 46.6553 231.143 48.9277 231.17C49.9126 231.167 50.8969 231.218 51.8761 231.325C52.7536 231.432 52.4364 232.788 51.659 232.755L51.6408 232.753ZM60.3755 232.201C59.0283 232.27 57.6775 232.197 56.3455 231.984C55.9113 231.921 55.4355 230.827 57.3946 230.814C58.3988 230.748 59.407 230.779 60.4054 230.905C61.0203 231.004 61.0021 232.16 60.3963 232.215L60.3755 232.201ZM68.0793 232.337C67.0497 232.427 66.0097 232.427 64.9788 232.467C64.3639 232.467 63.7035 231.482 65.2674 231.237C66.1774 231.093 67.0224 230.938 67.9077 230.858C68.793 230.777 69.0569 232.259 68.0975 232.341L68.0793 232.337ZM76.3993 232.4C75.1156 232.462 73.8293 232.447 72.5474 232.354C71.9585 232.354 71.7427 231.314 72.4174 231.234C73.6829 231.063 74.9574 230.97 76.2342 230.953C77.0389 230.953 77.2911 232.337 76.4149 232.4H76.3993ZM77.8709 151.364H74.4363C73.8578 151.364 73.5952 150.415 74.2647 150.271C75.4405 150.053 76.6323 149.931 77.828 149.908C77.9263 149.9 78.0253 149.912 78.1189 149.943C78.2126 149.974 78.2989 150.024 78.3728 150.089C78.4466 150.155 78.5064 150.234 78.5485 150.324C78.5907 150.413 78.6142 150.51 78.6178 150.608C78.6215 150.707 78.605 150.805 78.5695 150.897C78.534 150.989 78.4802 151.073 78.4114 151.144C78.3425 151.215 78.26 151.271 78.1689 151.308C78.0778 151.346 77.98 151.365 77.8813 151.364H77.8709ZM85.3576 232.502C83.9163 232.63 82.4642 232.554 81.0442 232.276C80.701 232.114 80.1342 231.074 82.274 230.992C83.3049 230.992 84.3358 230.937 85.3667 230.992C85.5421 231.025 85.7005 231.118 85.8148 231.255C85.9291 231.392 85.9922 231.565 85.9932 231.743C85.9943 231.922 85.9333 232.095 85.8207 232.234C85.708 232.372 85.5508 232.467 85.3758 232.502H85.3576ZM87.3375 151.609C85.8215 151.647 84.3057 151.522 82.8161 151.238C82.1739 151.12 82.274 149.963 82.9617 149.954C84.3943 149.927 85.8271 149.99 87.2517 150.143C88.137 150.234 88.2007 151.59 87.3505 151.609H87.3375ZM94.7254 232.267C93.324 232.267 91.9317 232.194 90.5381 232.137C89.8335 232.137 89.8244 230.925 90.5381 230.898C91.9317 230.825 93.324 230.753 94.7163 230.762C95.5756 230.762 95.5938 232.263 94.7436 232.272L94.7254 232.267ZM94.7891 151.382C93.5593 151.382 92.3191 151.319 91.0906 151.252C90.3756 151.252 90.5212 150.068 91.1894 150.032C92.4192 149.932 93.6945 149.932 94.9334 149.932C95.8018 149.932 95.612 151.388 94.8034 151.388L94.7891 151.382ZM100.712 149.908C101.823 149.908 104.175 149.538 104.212 150.614C104.212 151.524 100.311 151.373 99.5094 151.174C98.7073 150.975 99.1831 149.926 100.73 149.926L100.712 149.908ZM104.628 231.906C104.057 232.304 100.395 232.123 99.7525 232.05C99.1103 231.977 99.174 230.911 99.8253 230.784C100.477 230.656 103.922 230.264 104.681 230.784C104.753 230.848 104.812 230.926 104.854 231.013C104.896 231.1 104.921 231.195 104.926 231.292C104.931 231.389 104.918 231.485 104.885 231.577C104.853 231.668 104.803 231.752 104.738 231.824C104.709 231.855 104.678 231.885 104.644 231.911L104.628 231.906ZM112.765 232.036C112.105 232.036 108.706 232.37 108.696 231.276C108.696 230.366 112.313 230.366 112.964 230.496C114.121 230.695 114.311 231.979 112.828 232.042L112.765 232.036Z" fill="#3A5AB7"/>
<path d="M129.341 50.5869C129.341 49.5287 128.561 49.7458 128.392 50.5869C128.184 51.5996 128.772 53.4807 130.201 53.6796C130.472 53.7238 131.111 53.4989 130.843 52.8996C130.575 52.3003 129.341 52.2691 129.341 50.5869Z" fill="#212941"/>
<path d="M132.341 40.2141C131.627 40.2148 130.936 40.4681 130.391 40.9291C129.721 41.544 130.131 42.285 130.843 41.8391C131.338 41.5735 131.91 41.4872 132.461 41.5947C133.42 41.6259 133.239 40.2778 132.341 40.2141Z" fill="#212941"/>
<path d="M136.557 48.1273C137.236 48.5251 138.013 46.6622 137.362 46.319C136.53 45.9381 135.97 47.7477 136.557 48.1273Z" fill="#212941"/>
<path d="M137.434 43.2262C137.652 43.2857 137.856 43.3884 138.033 43.5282C138.21 43.668 138.357 43.8421 138.465 44.04C138.754 44.456 139.369 44.2662 139.107 43.325C139.044 42.9821 138.859 42.6736 138.587 42.456C138.314 42.2385 137.973 42.1265 137.624 42.1407C137.552 42.126 137.478 42.1259 137.405 42.1405C137.333 42.155 137.265 42.1839 137.204 42.2254C137.143 42.2669 137.091 42.3202 137.051 42.3821C137.011 42.444 136.984 42.5133 136.971 42.5859C136.958 42.6585 136.96 42.7329 136.977 42.8047C136.994 42.8765 137.024 42.9442 137.068 43.0039C137.111 43.0636 137.165 43.1141 137.228 43.1522C137.291 43.1904 137.361 43.2156 137.434 43.2262Z" fill="#212941"/>
<path d="M132.353 44.2481C131.774 43.5786 130.371 45.5312 131.231 46.1825C131.937 46.7168 132.714 44.655 132.353 44.2481Z" fill="#212941"/>
<path d="M134.008 51.1289C135.553 51.0301 135.354 47.7385 135.363 46.5087C135.375 46.4541 135.376 46.3975 135.364 46.3428C135.353 46.288 135.33 46.2363 135.297 46.191C135.264 46.1456 135.222 46.1077 135.174 46.0798C135.125 46.0518 135.072 46.0343 135.016 46.0285C134.96 46.0227 134.904 46.0287 134.851 46.0461C134.798 46.0635 134.749 46.092 134.707 46.1296C134.666 46.1672 134.633 46.2131 134.61 46.2643C134.588 46.3155 134.577 46.3709 134.577 46.4268C134.405 47.485 134.36 49.773 134.057 49.9082C133.754 50.0434 133.147 49.5559 132.637 49.6365C131.774 49.773 132.904 51.1926 134.008 51.1289Z" fill="#212941"/>
<path d="M179.14 81.0771C179.474 79.2688 178.679 76.6376 180.324 74.7474C181.292 73.645 185.125 72.7402 185.704 71.1308C185.748 71.0317 185.763 70.922 185.748 70.8146C185.732 70.7072 185.685 70.6065 185.614 70.5246C185.543 70.4426 185.45 70.3827 185.346 70.3519C185.242 70.3211 185.131 70.3207 185.027 70.3508C184.339 70.4951 183.48 71.4181 181.834 72.033C179.447 72.943 177.901 73.9947 177.544 76.9964C177.004 81.6296 178.94 82.1899 179.14 81.0771Z" fill="#212941"/>
<path d="M184.917 69.1509C186.681 65.8138 188.67 61.0909 190.595 57.395C191.834 54.9991 191.907 55.5152 195.665 57.0518C198.143 58.0736 197.474 58.5897 196.445 61.0038C194.519 65.715 192.358 70.3261 190.251 74.9554C188.541 78.7254 187.391 76.557 183.207 75.335C182.483 75.1283 182.297 76.245 182.854 76.5206C184.065 77.1888 187.556 78.7631 188.931 78.3926C190.694 77.9129 191.444 75.9421 192.114 74.4406C193.362 71.6196 196.725 63.8066 197.792 61.23C198.859 58.6534 199.755 57.1064 196.889 55.9C195.867 55.4658 194.809 55.0589 193.778 54.6611C190.378 53.3221 189.878 55.3397 188.669 57.7174C186.86 61.2923 185.254 64.9663 183.859 68.7219C183.742 69.2315 184.646 69.6657 184.917 69.1509Z" fill="#212941"/>
<path d="M185.044 86.2862C186.826 85.4114 188.521 84.3698 190.107 83.1753C191.625 82.199 193.335 81.4216 193.842 79.5587C194.926 75.634 195.822 71.6638 196.762 67.7131C196.915 67.0631 195.982 67.0072 195.776 67.6221C194.574 71.24 193.616 74.8566 192.558 78.4732C192.006 80.3998 190.921 80.743 189.122 81.9182C187.442 82.8481 185.856 83.9364 184.383 85.1682C184.301 85.2068 184.228 85.262 184.169 85.3305C184.109 85.3989 184.065 85.479 184.038 85.5657C184.012 85.6523 184.004 85.7435 184.014 85.8335C184.025 85.9235 184.055 86.0102 184.101 86.0881C184.147 86.1661 184.209 86.2335 184.283 86.286C184.357 86.3385 184.441 86.3751 184.53 86.3932C184.618 86.4114 184.71 86.4108 184.798 86.3915C184.887 86.3721 184.97 86.3345 185.044 86.281V86.2862Z" fill="#212941"/>
<path d="M52.1455 149.926C53.1595 143.045 58.1138 139.786 58.8106 137.81C58.8478 137.691 58.8476 137.563 58.81 137.443C58.7724 137.324 58.6993 137.219 58.6004 137.142C58.5014 137.065 58.3814 137.021 58.2564 137.014C58.1313 137.007 58.0072 137.039 57.9006 137.104C56.9334 137.647 53.5248 142.078 52.9606 142.945C51.4123 144.976 50.7035 147.524 50.9807 150.063C51.1419 150.713 52.0558 150.478 52.1455 149.926Z" fill="#212941"/>
<path d="M59.9947 152.937C60.3197 151.618 60.23 149.809 60.7097 147.867C61.1075 146.249 61.9928 145.336 62.3724 144.097C62.3996 143.98 62.3918 143.858 62.3501 143.745C62.3084 143.632 62.2346 143.534 62.1378 143.463C62.041 143.392 61.9254 143.35 61.8054 143.344C61.6853 143.338 61.5661 143.367 61.4624 143.428C59.3096 144.55 58.4425 150.498 58.8494 152.958C58.9547 153.543 59.8595 153.462 59.9947 152.937Z" fill="#212941"/>
<path d="M66.8588 142.467C65.1941 143.513 64.0037 145.167 63.5412 147.078C63.1609 149.058 63.0299 151.079 63.1512 153.092C63.1676 153.246 63.2385 153.389 63.3513 153.496C63.464 153.602 63.6111 153.665 63.7661 153.673C63.921 153.68 64.0735 153.632 64.1961 153.537C64.3186 153.442 64.4031 153.306 64.4343 153.154C64.9322 151.238 64.4343 149.393 65.122 147.277C65.7115 145.814 66.5294 144.454 67.5452 143.247C67.5955 143.147 67.6148 143.034 67.6005 142.923C67.5862 142.812 67.539 142.708 67.465 142.624C67.3911 142.541 67.2937 142.481 67.1854 142.453C67.0772 142.425 66.963 142.43 66.8575 142.467H66.8588Z" fill="#212941"/>
<path d="M70.177 139.98C69.5803 139.528 68.9017 140.296 69.267 140.883C70.258 142.226 71.4361 143.42 72.7653 144.429C74.319 145.285 76.1266 145.562 77.8652 145.209C77.926 145.184 77.9813 145.148 78.0279 145.102C78.0745 145.056 78.1115 145.001 78.1368 144.94C78.1621 144.88 78.1751 144.815 78.1751 144.749C78.1751 144.684 78.1622 144.619 78.1369 144.559C78.1032 144.475 78.047 144.403 77.9744 144.349C77.0644 143.725 75.2613 144.249 73.7065 143.092C72.465 142.131 71.425 140.884 70.177 139.98Z" fill="#212941"/>
<path d="M54.7052 151.988C54.7689 152.649 55.7907 152.955 55.9623 152.187C56.3523 150.379 56.3965 148.859 56.7761 147.322C57.1557 145.786 59.0095 143.334 58.8015 142.629C58.1775 140.495 54.1358 145.569 54.7052 151.988Z" fill="#212941"/>
<path d="M59.1363 136.2C62.3495 137.389 65.7474 138.002 69.1736 138.009C71.1002 138.009 70.7921 137.738 71.5344 136.2C79.6724 118.884 85.6303 108.965 95.8665 100.663C95.2256 110.366 95.5233 125.222 99.8276 134.121C100.541 135.603 100.348 136.001 102.152 135.648C121.711 131.797 130.047 124.363 142.988 117.283C144.035 116.714 143.898 116.325 143.466 115.05C137.372 98.6193 140.808 87.49 138.366 77.0718C138.236 76.4842 137.196 76.6467 137.299 77.2707C139.578 91.1508 135.862 100.781 142.453 116.054C127.878 123.035 122.063 130.205 101.528 134.302C97.5578 127.618 96.4723 112.599 97.3498 99.4968C100.21 97.2179 103.119 94.9754 105.93 92.6523C106.015 92.5796 106.069 92.4769 106.081 92.3655C106.092 92.2541 106.06 92.1425 105.992 92.054C105.923 91.9654 105.823 91.9067 105.712 91.8901C105.601 91.8734 105.488 91.9001 105.397 91.9646C86.1217 104.815 80.4368 113.078 69.9406 136.48C66.8934 136.707 60.6729 135.522 58.9907 134.473C62.6073 121.887 70.6192 100.166 83.9507 83.2208C91.8716 73.1653 100.634 64.0146 113.709 61.4198C117.379 66.56 127.09 70.59 129.871 63.2281C142.178 66.3481 142.871 71.8367 145.387 81.5477C146.865 87.9939 148.984 94.2764 151.711 100.301C150.318 101.081 148.926 101.848 147.56 102.671C147.422 102.739 147.316 102.858 147.266 103.003C147.216 103.148 147.226 103.307 147.293 103.445C147.36 103.583 147.48 103.688 147.625 103.738C147.77 103.788 147.929 103.779 148.067 103.711C156.777 100.482 169.922 89.297 176.613 83.2936C178.151 85.2913 180.124 86.9116 182.383 88.0308C179.317 94.5685 175.059 100.283 168.14 107.791C167.68 108.287 168.33 108.875 168.846 108.45C174.099 104.056 180.972 95.2211 183.613 88.8108C184.228 87.3093 183.883 87.0012 182.843 86.4708C180.823 85.4553 179.036 84.0291 177.599 82.2835C176.84 81.3345 176.577 81.4788 175.664 82.2835C168.871 88.4468 161.201 94.8766 152.881 99.6151C150.335 93.54 148.3 87.2636 146.795 80.8509C144.037 70.1909 142.338 64.6477 130.691 61.9437C129.131 61.5823 128.883 61.672 128.458 62.8537C126.142 68.731 117.86 64.662 115.092 60.8634C114.369 59.8689 114.55 59.7974 113.085 59.9534C100.823 61.6616 91.9795 70.8045 84.6826 79.7017C73.5702 93.1931 62.5735 116.187 57.8896 133.279C57.3917 135.079 57.4606 135.46 59.1363 136.2Z" fill="#212941"/>
<path d="M252.517 236.444C171.552 236.444 84.8523 236.779 7.17859 236.725C6.26859 236.725 6.26859 238.285 7.17859 238.285C88.1686 238.584 171.751 238.285 252.749 238.285C253.89 238.235 253.666 236.444 252.517 236.444Z" fill="#212941"/>
<path d="M123.012 225.974C123.338 225.413 122.605 224.617 122.108 225.16C120.869 226.507 116.492 233.379 119.612 234.582C121.683 235.378 143.023 234.519 145.473 234.13C148.241 233.696 148.611 231.227 146.206 230.015C144.579 229.193 135.654 225.35 133.7 225.196C133.592 225.187 133.483 225.213 133.391 225.271C133.298 225.329 133.227 225.415 133.187 225.517C133.147 225.618 133.142 225.73 133.171 225.835C133.2 225.94 133.262 226.033 133.348 226.1C134.822 227.05 142.78 229.636 145.347 231.2C148.241 233.008 142.097 233.054 140.22 233.135C133.764 233.388 127.281 233.362 120.806 233.388C119.896 233.388 119.685 233.271 119.896 232.24C120.658 230.025 121.706 227.918 123.012 225.974Z" fill="#212941"/>
<path d="M186.57 161.42C191.526 159.945 195.28 158.48 200.622 158.17C203.001 158.025 202.91 158.902 200.866 159.887C194.262 163.184 188.113 167.324 182.574 172.203C179.806 174.663 179.111 175.223 177.953 170.269C177.686 169.131 177.571 167.964 177.609 166.796C177.609 166.009 175.611 165.359 176.699 170.875C177.787 176.39 179.513 176.544 183.849 172.8C189.283 168.144 195.243 164.141 201.609 160.874C205.154 159.064 204.123 156.805 200.561 156.844C196.437 156.844 189.971 158.905 186.3 160.524C185.738 160.777 185.946 161.6 186.57 161.42Z" fill="#212941"/>
<path d="M137.445 138.32C139.35 140.217 141.069 142.291 142.581 144.514C150.43 141.901 158.063 138.681 165.413 134.884C165.502 142.723 174.238 162.128 175.943 165.556C179.738 163.531 183.351 161.18 186.739 158.53C183.177 131.8 185.447 114.222 179.506 111.129C170.796 106.527 150.624 115.506 144.322 118.092C137.025 121.094 129.42 131.032 101.623 136.882C106.081 150.446 133.018 176.344 135.333 178.92C132.937 185.087 122.484 220.38 121.969 223.463C126.27 223.873 130.589 224.046 134.908 223.983C140.813 214.941 156.321 181.836 156.321 175.493C156.321 166.668 142.296 145.653 136.871 138.917C136.54 138.479 137.021 137.891 137.445 138.32Z" fill="#212941"/>
<path d="M128.004 62.2154C128.115 61.5168 128.289 60.8297 128.524 60.1627C133.381 60.8491 136.663 55.4424 138.472 50.9665C139.62 48.2977 140.548 45.5394 141.247 42.7193C141.392 41.8964 140.467 42.0056 140.337 42.4593C139.704 44.4314 138.971 46.6102 137.723 49.6392C134.424 57.7148 129.663 63.2034 122.839 54.405C122.405 53.8447 121.637 54.522 121.998 55.1187C123.138 57.2613 124.995 58.9353 127.244 59.8481C126.159 63.336 127.896 62.8927 128.004 62.2154Z" fill="#212941"/>
<path d="M116.284 59.9728C116.284 60.4785 117.071 60.5877 117.194 60.1444C118.161 56.6812 119.404 53.2726 120.531 49.8354C120.791 49.0125 121.299 48.7694 119.852 47.5578C119.277 46.903 118.983 46.0478 119.034 45.1777C119.085 44.3075 119.476 43.4925 120.124 42.909C120.329 42.7171 120.579 42.5805 120.852 42.5122C121.124 42.4438 121.409 42.446 121.681 42.5184C121.952 42.5909 122.2 42.7312 122.402 42.9263C122.605 43.1213 122.754 43.3646 122.836 43.6331C123.153 44.6276 123.912 43.7319 124.136 43.3341C125.944 40.1153 129.516 40.4949 129.642 35.1961C130.954 37.6466 134.01 39.1208 136.054 38.5605C136.964 38.3619 137.912 38.4264 138.787 38.7466C139.662 39.0669 140.427 39.6295 140.994 40.3688C142.921 42.376 148.121 41.1098 149.757 37.6557C152.216 32.4661 148.907 26.8046 145.136 26.9489C141.826 27.049 139.711 26.2898 138.806 24.6089C136.998 21.2354 130.794 20.5581 127.829 23.2348C125.785 25.0886 123.95 24.9885 121.806 24.9521C118.135 24.8988 114.644 29.1758 116.327 33.6868C117.728 37.4399 117.237 39.3028 115.215 41.0968C112.004 44.0088 114.41 49.7509 118.027 53.2505C117.495 54.6194 116.167 58.7794 116.284 59.9728Z" fill="#212941"/>
</svg>
