<svg width="304" height="288" viewBox="0 0 304 288" fill="none" xmlns="http://www.w3.org/2000/svg">
<path d="M4.80052 16.9597C6.85812 14.1629 1.32372 15.5517 129.337 9.01246C132.217 8.86366 138.045 7.43166 140.642 8.96446C142.562 10.1021 142.132 12.6349 142.135 14.5837C142.135 18.5565 142.135 57.6381 142.135 57.6381C142.135 65.0637 143.183 73.3453 142.135 80.6893C141.948 82.0109 141.207 83.1405 137.929 83.7981C128.409 85.7053 105.415 85.3549 104.901 84.9405C104.145 84.3197 102.113 73.9357 104.525 67.7661C104.988 66.5853 106.388 66.1037 107.372 65.4173C110.818 63.172 113.271 59.6901 114.226 55.6893C114.559 53.6636 114.424 51.5887 113.832 49.6231C113.24 47.6576 112.206 45.8534 110.81 44.3485C108.461 41.8397 104.489 43.0589 101.548 43.2621C97.2821 43.5565 92.4677 43.8477 88.3509 42.5405C77.3669 39.0637 66.6965 43.6861 62.0981 52.4605C59.4629 57.4909 58.3973 64.2781 60.7141 69.4621C61.8709 72.0541 66.0437 80.4381 61.6357 83.5037C60.0878 84.8964 58.4097 86.1373 56.6245 87.2093C55.0535 87.5823 53.4312 87.6904 51.8245 87.5293C47.4725 87.7245 22.6597 89.0461 14.5973 89.3245C13.2261 89.3709 12.0293 89.7197 11.4917 88.1917C11.2181 87.4029 3.10772 19.2589 4.80052 16.9597Z" fill="#3A5AB7"/>
<path d="M142.079 97.2194C140.881 96.0994 98.9157 98.6818 97.5989 98.8066C96.2821 98.9314 95.7445 103.304 88.1381 101.787C87.3493 101.627 85.2789 99.6962 84.5029 99.6306C83.3621 99.533 81.6565 104.058 81.4949 104.442C81.246 105.231 81.1477 106.06 81.2053 106.885C82.3556 106.141 83.463 105.333 84.5221 104.464C85.3934 107.684 85.5127 111.061 84.8709 114.335C83.9508 116.672 82.8197 118.922 81.4917 121.055C81.3781 121.207 80.4677 144.176 81.8757 146.608C82.7221 148.074 98.7173 158.448 123.674 158.32C126.125 158.309 135.132 157.602 135.959 158.285C136.465 158.701 135.469 159.555 136.026 159.885C136.826 160.365 138.645 159.976 139.546 159.995C140.812 160.02 142.072 160.164 143.311 160.426C143.631 158.595 143.26 100.139 142.66 98.1714C142.553 97.8085 142.353 97.4802 142.079 97.2194Z" fill="#3A5AB7"/>
<path d="M33.1917 102.088L12.9277 103.123L15.2253 124.457C16.0333 123.435 27.6173 107.825 33.1917 102.088Z" fill="#3A5AB7"/>
<path d="M73.9444 181.659C73.9444 181.659 143.023 177.381 144.391 179.432C145.759 181.483 146.05 210.042 146.05 210.042H73.25L73.9444 181.659Z" fill="#3A5AB7"/>
<path d="M295.398 0.63989C293.787 0.20309 160.39 6.31829 157.502 9.26069C156.893 9.94254 156.426 10.7392 156.129 11.6038C155.832 12.4685 155.711 13.3837 155.772 14.2959C155.764 18.6687 155.224 76.4799 155.902 80.0063C156.456 82.8767 157.182 82.6127 159.667 82.4639C164.081 82.1983 195.262 81.0991 195.251 80.8911C195.062 77.2671 191.091 75.4719 189.105 71.9583C185.585 68.6191 187.008 59.1391 192.04 57.7567C194.173 56.3173 196.636 55.4431 199.2 55.2159C226.91 55.0159 231.2 73.4367 230.584 78.9311C230.702 77.8815 276.475 76.6271 277.531 76.6415C277.365 76.3848 277.185 76.137 276.993 75.8991C276.513 75.3039 277.284 74.4799 277.849 75.0447C278.375 75.5623 278.874 76.1064 279.343 76.6751C283.425 76.9864 287.531 76.7051 291.532 75.8399C295.967 74.6335 297.752 12.3423 297.96 8.40949C298.135 5.17909 299.335 1.70549 295.398 0.63989ZM210.163 52.1263C208.678 50.8708 206.838 50.111 204.9 49.9535C203.782 49.9974 202.694 50.3287 201.742 50.9152C200.789 51.5018 200.003 52.3239 199.46 53.3023C199.116 53.9103 198.246 53.3727 198.536 52.7615C201.494 46.4559 209.096 47.5567 210.836 51.4559C211.017 51.8639 210.612 52.4159 210.163 52.1263ZM260.94 46.9855C260.882 47.1747 260.764 47.3402 260.604 47.4578C260.445 47.5753 260.252 47.6388 260.054 47.6388C259.856 47.6388 259.663 47.5753 259.503 47.4578C259.344 47.3402 259.226 47.1747 259.167 46.9855C258.689 44.5029 257.847 42.1047 256.667 39.8687C252.136 32.9183 241.39 33.6175 236.366 42.6911C236.089 43.1935 235.23 42.8511 235.433 42.2959C237.76 35.8767 243.806 31.4303 250.793 32.4927C256.977 33.4399 263.492 40.3631 260.94 46.9855Z" fill="#3A5AB7"/>
<path d="M293.08 89.0317C291.744 86.5485 286.156 87.8829 284.004 88.0237L280.741 88.2365C280.097 89.3943 279.181 90.3774 278.071 91.1005C277.295 91.6029 276.631 90.6541 276.93 89.9597C277.143 89.4701 277.352 88.9645 277.549 88.4461C266.567 89.1661 245.455 90.5501 236.4 91.1405C237.295 92.9213 238.197 94.7869 238.949 96.7053C246.565 97.0541 253.349 100.705 260.272 103.731C263.916 105.321 281.948 121.232 291.544 137.669C291.877 131.128 293.599 89.9757 293.08 89.0317Z" fill="#3A5AB7"/>
<path d="M213.248 152.8C210.862 156.039 208.139 159.014 205.123 161.677L223.283 160.265C219.464 159.065 213.334 152.992 213.248 152.8Z" fill="#3A5AB7"/>
<path d="M193.783 133.888C193.783 133.888 199.1 119.141 209.006 111.032C208.671 110.91 203.319 108.152 201.943 105.307C200.815 102.84 200.066 100.216 199.724 97.5246C199.622 96.827 197.611 95.3246 196.7 95.0734C195.967 94.8734 194.62 94.819 194.081 94.2222C187.964 94.611 156.481 94.0494 155.455 97.163C154.43 100.277 155.196 146.883 155.372 157.901C159.759 158.294 164.165 158.421 168.567 158.281C180.171 159.931 192.51 136 193.783 133.888Z" fill="#3A5AB7"/>
<path d="M156.937 178.88C157.669 177.946 174.01 178.059 230.957 173.629L234.339 192.949L233.906 210.131L158.4 210.827C158.4 210.827 155.504 180.711 156.937 178.88Z" fill="#3A5AB7"/>
<path d="M87.4096 90.3999C85.9696 92.3327 90.2896 97.2415 93.7536 95.3295C93.856 95.2641 93.9376 95.1709 93.989 95.0608C94.0404 94.9507 94.0594 94.8283 94.0438 94.7078C94.0282 94.5873 93.9787 94.4738 93.9009 94.3804C93.8232 94.2871 93.7204 94.2178 93.6048 94.1807C91.5248 93.7951 90.0592 93.7679 88.9936 91.6351C88.7424 91.1423 88.688 90.6431 88.24 90.2943C88.1818 90.2392 88.1122 90.1977 88.036 90.1728C87.9599 90.1479 87.8792 90.1402 87.7997 90.1503C87.7203 90.1604 87.6441 90.1881 87.5766 90.2312C87.5091 90.2744 87.4521 90.332 87.4096 90.3999Z" fill="#212941"/>
<path d="M94.1254 75.08C94.9489 75.7748 95.8814 76.3289 96.8854 76.72C97.0404 76.8058 97.2008 76.8817 97.3654 76.9472C97.4166 76.9616 97.6982 77.0128 97.6278 77.0016L97.695 77.0128C97.8264 77.0448 97.9642 77.038 98.0917 76.9932C98.2193 76.9485 98.3312 76.8677 98.4138 76.7607C98.4964 76.6537 98.5463 76.5251 98.5573 76.3903C98.5683 76.2556 98.54 76.1206 98.4758 76.0016C98.0102 75.0272 95.7414 74.2032 95.1158 73.7856C94.3494 73.2528 93.439 74.4416 94.1254 75.08Z" fill="#212941"/>
<path d="M151.04 164.077C150.847 163.968 150.619 163.939 150.405 163.995C150.191 164.052 150.008 164.19 149.894 164.379C147.945 167.563 145.198 168.739 141.801 169.845C141.735 169.865 141.677 169.908 141.64 169.967C141.602 170.026 141.587 170.096 141.596 170.165C141.606 170.234 141.64 170.297 141.691 170.343C141.743 170.39 141.81 170.416 141.88 170.418C145.35 170.782 148.699 168.563 150.816 165.92C152.167 166.97 153.713 167.743 155.364 168.194C155.468 168.219 155.577 168.21 155.675 168.168C155.773 168.126 155.855 168.054 155.908 167.962C155.962 167.87 155.985 167.764 155.974 167.658C155.962 167.552 155.917 167.453 155.844 167.374C154.456 165.993 152.828 164.876 151.04 164.077Z" fill="#212941"/>
<path d="M207.473 101.45C208.985 101.482 210.459 100.976 211.633 100.022C212.269 99.592 212.812 99.0385 213.23 98.3946C213.649 97.7507 213.933 97.0295 214.068 96.2735C214.065 96.1658 214.031 96.0612 213.97 95.9723C213.909 95.8835 213.824 95.8143 213.724 95.7732C213.625 95.732 213.515 95.7206 213.409 95.7404C213.303 95.7602 213.205 95.8104 213.127 95.8847C212.468 96.9248 211.74 97.9191 210.947 98.8607C209.915 99.7841 208.707 100.487 207.395 100.928C207.334 100.947 207.283 100.988 207.249 101.041C207.216 101.095 207.203 101.159 207.212 101.222C207.221 101.285 207.253 101.342 207.301 101.384C207.348 101.425 207.41 101.449 207.473 101.45Z" fill="#212941"/>
<path d="M200.74 83.7856C200.813 84.2992 200.892 84.8 201.013 85.3056C201.035 85.577 201.114 85.8408 201.246 86.079C201.378 86.3172 201.559 86.5243 201.778 86.6864C201.966 86.792 202.189 86.8203 202.398 86.7654C202.606 86.7105 202.786 86.5766 202.898 86.392C203.015 86.1399 203.077 85.8661 203.08 85.5884C203.083 85.3107 203.028 85.0355 202.917 84.7808C202.796 84.2784 202.636 83.7968 202.466 83.3072C202.391 83.0918 202.237 82.913 202.035 82.8072C201.833 82.7013 201.598 82.6763 201.379 82.7372C201.159 82.7981 200.971 82.9403 200.852 83.1351C200.733 83.3298 200.693 83.5624 200.74 83.7856Z" fill="#212941"/>
<path d="M256.18 139.025C268.719 148.919 278.114 162.243 283.22 177.377C284.731 182.246 285.334 187.289 286.598 192.211C286.758 192.801 287.79 192.884 287.878 192.211C289.123 183.057 283.972 170.224 278.947 161.811C273.185 152.509 265.624 144.451 256.707 138.108C256.16 137.704 255.651 138.617 256.18 139.025Z" fill="#212941"/>
<path d="M115.88 222.638C111.865 218.843 108.729 214.971 107.56 214.922C101.789 214.819 95.9261 215.31 90.1501 215.184C87.3277 215.122 75.8493 214.208 72.9373 214.416C72.5645 214.443 72.5437 214.76 72.9725 215.29C75.4813 218.392 78.2221 221.274 80.6253 224.466C82.7661 227.309 84.4525 230.696 86.8093 233.339C87.1741 233.747 87.9901 233.315 87.7693 232.778C86.1183 229.498 84.0376 226.454 81.5821 223.725C79.3076 220.777 76.8358 217.986 74.1837 215.373C79.2605 216.286 107.83 216.653 107.944 216.603C110.089 219.224 112.264 221.101 118.504 227.21C119.304 227.982 120.053 228.837 120.885 229.59C118.928 229.75 95.0285 232.44 89.6845 233.069C89.3645 233.104 89.3517 233.574 89.6845 233.574C95.5581 233.539 122.501 231.069 123.037 230.755C123.132 230.64 123.185 230.495 123.185 230.346C123.185 230.196 123.132 230.051 123.037 229.936C120.784 227.377 118.395 224.94 115.88 222.638Z" fill="#212941"/>
<path d="M84.7742 220.693C88.5502 220.76 99.7453 220.749 101.565 220.725C103.31 220.858 105.065 220.759 106.784 220.43C106.893 220.397 106.989 220.33 107.056 220.238C107.124 220.146 107.161 220.035 107.161 219.921C107.161 219.807 107.124 219.695 107.056 219.604C106.989 219.512 106.893 219.444 106.784 219.411C105.186 219.165 103.562 219.136 101.957 219.325C100.003 219.384 88.547 219.878 84.7742 220.098C84.6952 220.098 84.6195 220.129 84.5637 220.185C84.5079 220.241 84.4766 220.316 84.4766 220.395C84.4766 220.474 84.5079 220.55 84.5637 220.606C84.6195 220.661 84.6952 220.693 84.7742 220.693Z" fill="#212941"/>
<path d="M88.5235 225.406C94.5251 224.565 97.8339 225.406 100.568 225.29C100.698 225.286 100.822 225.237 100.918 225.151C101.015 225.064 101.078 224.946 101.095 224.818C101.113 224.69 101.084 224.559 101.014 224.45C100.944 224.341 100.838 224.26 100.714 224.222C96.8563 222.971 92.1779 223.779 88.3187 224.669C87.8259 224.782 88.0483 225.474 88.5235 225.406Z" fill="#212941"/>
<path d="M95.4084 229.299C97.3999 229.334 99.385 229.064 101.295 228.499C101.647 228.369 101.765 227.721 101.295 227.656C99.2672 227.492 97.2264 227.639 95.2436 228.094C94.5604 228.209 94.7204 229.331 95.4084 229.299Z" fill="#212941"/>
<path d="M130.636 217.168C130.639 217.169 130.643 217.169 130.646 217.168C130.65 217.167 130.653 217.166 130.656 217.164C130.659 217.161 130.662 217.159 130.663 217.155C130.665 217.152 130.666 217.148 130.666 217.145C130.666 217.141 130.665 217.137 130.663 217.134C130.662 217.131 130.659 217.128 130.656 217.126C130.653 217.123 130.65 217.122 130.646 217.121C130.643 217.12 130.639 217.12 130.636 217.121C130.632 217.12 130.628 217.12 130.625 217.121C130.621 217.122 130.618 217.123 130.615 217.126C130.612 217.128 130.61 217.131 130.608 217.134C130.606 217.137 130.605 217.141 130.605 217.145C130.605 217.148 130.606 217.152 130.608 217.155C130.61 217.159 130.612 217.161 130.615 217.164C130.618 217.166 130.621 217.167 130.625 217.168C130.628 217.169 130.632 217.169 130.636 217.168Z" fill="#212941"/>
<path d="M182.974 225.246C179.418 221.435 174.875 214.376 173.81 214.259C170.317 213.827 138.552 213.345 131.57 213.889C131.522 213.889 131.008 214.067 130.883 214.397C130.083 216.509 128.291 224.598 127.405 228.771C127.362 228.974 127.189 229.558 127.872 229.688C130.736 230.243 170.947 230.774 178.272 229.147C178.443 229.085 178.588 228.966 178.682 228.81C178.777 228.654 178.815 228.47 178.791 228.29C178.767 228.109 178.682 227.942 178.55 227.816C178.418 227.69 178.247 227.614 178.066 227.598C173.906 227.685 157.323 228.606 153.205 228.558C138.691 228.373 134.342 227.96 129.275 228.432C130.346 223.99 131.302 219.496 131.973 214.979C152.904 214.379 170.141 216.112 173.552 215.755C175.718 219.735 178.437 223.388 181.629 226.605C182.469 227.496 183.813 226.144 182.974 225.246Z" fill="#212941"/>
<path d="M137.492 217.941C137.021 219.358 136.651 220.807 136.387 222.277C135.997 223.571 135.789 224.914 135.768 226.265C135.808 226.849 136.686 227.225 136.979 226.595C137.482 225.235 137.792 223.81 137.897 222.363C138.162 220.944 138.329 219.508 138.395 218.065C138.393 217.955 138.352 217.849 138.279 217.767C138.206 217.684 138.106 217.631 137.997 217.616C137.888 217.601 137.777 217.625 137.685 217.685C137.592 217.744 137.524 217.835 137.492 217.941Z" fill="#212941"/>
<path d="M141.554 218.968C141.436 223.365 141.311 223.569 141.605 224.289C141.644 224.41 141.72 224.515 141.822 224.59C141.924 224.665 142.048 224.705 142.174 224.705C142.301 224.705 142.424 224.665 142.527 224.59C142.629 224.515 142.705 224.41 142.743 224.289C143.026 223.608 142.925 223.409 142.794 218.968C142.786 218.809 142.717 218.659 142.602 218.549C142.487 218.44 142.333 218.378 142.174 218.378C142.015 218.378 141.862 218.44 141.747 218.549C141.631 218.659 141.562 218.809 141.554 218.968Z" fill="#212941"/>
<path d="M148.453 218.36C147.899 220.904 147.734 223.518 147.964 226.112C148.002 226.237 148.08 226.346 148.185 226.423C148.29 226.501 148.417 226.543 148.548 226.543C148.678 226.543 148.805 226.501 148.91 226.423C149.016 226.346 149.093 226.237 149.132 226.112C149.557 223.548 149.596 220.935 149.248 218.36C149.242 218.259 149.197 218.164 149.123 218.095C149.05 218.025 148.952 217.987 148.851 217.987C148.749 217.987 148.652 218.025 148.578 218.095C148.504 218.164 148.46 218.259 148.453 218.36Z" fill="#212941"/>
<path d="M164.756 218.368C166.914 224.542 166.825 224.702 167.457 225.544C167.802 226.003 168.724 225.931 168.67 225.214C168.586 224.094 168.383 223.955 165.978 218.027C165.681 217.289 164.479 217.581 164.756 218.368Z" fill="#212941"/>
<path d="M160.497 220.32C160.836 222.08 160.882 222.776 161.313 223.269C161.378 223.333 161.46 223.38 161.548 223.404C161.637 223.427 161.731 223.428 161.82 223.404C161.909 223.381 161.99 223.335 162.056 223.27C162.122 223.206 162.169 223.125 162.194 223.037C162.337 222.501 162.194 222.131 161.602 220.018C161.562 219.871 161.466 219.746 161.334 219.671C161.202 219.596 161.045 219.576 160.898 219.616C160.752 219.656 160.627 219.753 160.552 219.885C160.477 220.017 160.457 220.173 160.497 220.32Z" fill="#212941"/>
<path d="M271.226 192.717C269.316 190.336 265.023 187.411 267.328 183.87C268.312 182.362 269.858 181.227 270.904 179.738C273.607 175.898 273.944 170.55 269.464 167.869C268.754 167.445 267.92 168.469 268.564 169.037C269.97 170.28 271.402 171.515 271.5 173.546C271.706 177.65 268.46 180.506 266.86 182.581C263.957 186.333 267.279 191.325 270.843 193.226C270.911 193.266 270.992 193.28 271.069 193.265C271.147 193.25 271.216 193.206 271.264 193.143C271.311 193.08 271.334 193.001 271.327 192.923C271.32 192.844 271.284 192.771 271.226 192.717Z" fill="#FF9500"/>
<path d="M275.762 190.414C272.791 186.204 275.709 185.249 276.825 183.297C277.298 182.573 277.578 181.739 277.637 180.876C277.696 180.012 277.532 179.148 277.161 178.366C277.089 178.251 276.983 178.163 276.857 178.114C276.731 178.065 276.593 178.057 276.463 178.093C276.332 178.129 276.217 178.207 276.135 178.313C276.052 178.42 276.006 178.551 276.004 178.686C276.31 180.271 276.065 181.913 275.311 183.34C274.639 184.106 274.039 184.932 273.519 185.808C272.649 187.897 274.068 189.34 275.447 190.665C275.605 190.806 275.897 190.606 275.762 190.414Z" fill="#FF9500"/>
<path d="M294.522 216.67C296.756 216.589 298.943 217.329 300.669 218.75C302.94 221.174 300.509 223.71 298.269 224.805C292.029 227.845 277.911 228.381 270.936 228.165C265.223 227.987 258.404 227.816 253.279 225.021C249.335 222.875 248.5 221.227 252.444 218.789C254.58 217.526 256.901 216.608 259.324 216.069C259.42 216.04 259.503 215.977 259.558 215.893C259.613 215.808 259.635 215.706 259.622 215.606C259.608 215.506 259.559 215.415 259.483 215.348C259.408 215.281 259.311 215.243 259.21 215.241C255.807 215.062 247.05 217.725 248.268 222.547C248.93 225.158 252.556 226.867 254.799 227.731C258.286 228.906 261.913 229.618 265.586 229.848C272.812 230.565 280.098 230.433 287.293 229.456C291.773 228.864 297.743 228.016 301.202 224.793C302.129 224.02 302.722 222.919 302.858 221.719C302.995 220.52 302.664 219.314 301.935 218.352C300.14 216.149 297.104 216.112 294.527 216.272C294.474 216.271 294.423 216.292 294.385 216.328C294.347 216.365 294.326 216.416 294.325 216.469C294.325 216.521 294.345 216.572 294.382 216.61C294.419 216.648 294.469 216.67 294.522 216.67Z" fill="#FF9500"/>
<path d="M40.0703 193.222C43.5711 191.35 46.7759 186.603 44.2975 182.745C42.9407 180.635 40.5439 179.443 39.7023 176.965C38.6111 173.765 40.0031 171.134 42.3439 169.033C42.9759 168.469 42.1599 167.433 41.4431 167.864C39.7024 169.038 38.4832 170.84 38.0404 172.893C37.5976 174.946 37.9655 177.09 39.0671 178.878C40.2895 180.862 42.6463 181.945 43.7071 184.008C45.6079 187.688 41.6367 190.273 39.6751 192.712C39.6074 192.764 39.5633 192.841 39.5525 192.926C39.5417 193.011 39.5651 193.097 39.6175 193.165C39.6699 193.232 39.7471 193.276 39.832 193.287C39.9169 193.298 40.0026 193.275 40.0703 193.222Z" fill="#FF9500"/>
<path d="M35.459 190.657C36.8542 189.307 38.2302 187.905 37.3886 185.8C36.9854 185.048 36.4785 184.356 35.883 183.745C34.603 182.097 34.8478 180.608 34.8974 178.678C34.8951 178.543 34.8492 178.412 34.7666 178.306C34.6839 178.199 34.5688 178.122 34.4386 178.086C34.3084 178.05 34.1701 178.057 34.0443 178.106C33.9184 178.155 33.8119 178.244 33.7406 178.358C33.3701 179.141 33.2066 180.005 33.2657 180.869C33.3248 181.732 33.6046 182.566 34.0782 183.291C35.163 185.181 38.1181 186.259 35.1406 190.408C35.011 190.606 35.3006 190.809 35.459 190.657Z" fill="#FF9500"/>
<path d="M16.5082 216.33C13.6106 216.192 9.78818 216.395 7.75138 218.83C7.26416 219.457 7.01771 220.237 7.05675 221.03C7.0958 221.823 7.41775 222.575 7.96418 223.15C10.4154 226.381 17.9722 228.528 21.9706 229.248C31.3027 230.78 40.8256 230.737 50.1434 229.12C53.6203 228.804 56.969 227.652 59.9034 225.76C66.433 220.874 58.7482 214.88 51.7082 215.251C51.2538 215.275 51.1114 215.965 51.5946 216.078C54.3908 216.531 57.0365 217.652 59.3066 219.346C60.4266 220.322 61.2522 221.514 60.3274 222.933C59.2831 224.229 57.8836 225.193 56.3002 225.706C51.79 227.185 47.083 227.978 42.337 228.058C23.465 229.306 9.51298 225.122 8.46978 221.117C7.66978 218.027 14.5018 216.787 16.5082 216.738C16.5623 216.738 16.6142 216.716 16.6524 216.678C16.6907 216.64 16.7122 216.588 16.7122 216.534C16.7122 216.48 16.6907 216.428 16.6524 216.389C16.6142 216.351 16.5623 216.33 16.5082 216.33Z" fill="#FF9500"/>
<path d="M22.3637 258.139C20.6037 256.499 135.82 253.179 215.804 250.471C257.818 249.043 289.845 246.568 290.653 247.219C292.136 248.419 273.97 260.642 272.365 263.418C270.76 266.194 48.7557 288.814 46.0229 287.317C42.7109 285.498 22.5157 258.282 22.3637 258.139Z" fill="#212941"/>
<path d="M297.647 206.374C297.327 204.542 296.913 201.985 294.917 201.254C294.144 201.052 293.325 201.108 292.586 201.412C291.847 201.717 291.227 202.254 290.82 202.942C290.809 201.624 290.78 200.486 290.725 199.709C290.662 199.144 290.472 198.601 290.171 198.12C289.869 197.639 289.462 197.232 288.981 196.929C286.565 195.184 281.989 194.197 275.906 194.467C272.386 194.627 266.047 194.981 264.106 197.667C262.818 199.443 263.157 205.627 263.252 208.766C263.24 211.079 263.39 213.389 263.701 215.68C264.821 222.197 273.153 223.753 278.7 223.389C283.46 223.069 290.412 221.683 290.644 215.731C290.669 215.033 290.841 208.569 290.825 203.793C292.369 202.963 294.607 201.393 295.553 203.901C295.932 205.028 296.16 206.2 296.231 207.387C296.384 208.115 296.38 208.868 296.219 209.594C296.059 210.321 295.746 211.005 295.301 211.601C294.199 212.683 292.996 212.053 291.66 212.277C291.54 212.311 291.434 212.379 291.352 212.473C291.271 212.566 291.219 212.682 291.202 212.805C291.185 212.927 291.204 213.053 291.257 213.165C291.31 213.277 291.394 213.372 291.5 213.437C292.327 213.869 293.272 214.019 294.192 213.867C295.112 213.714 295.958 213.266 296.601 212.59C297.202 211.686 297.606 210.665 297.787 209.594C297.967 208.523 297.919 207.426 297.647 206.374ZM270.207 217.627C270.204 217.754 270.163 217.878 270.091 217.982C270.019 218.087 269.918 218.169 269.801 218.217C269.683 218.266 269.554 218.279 269.429 218.256C269.304 218.233 269.189 218.174 269.097 218.086C265.969 214.673 266.641 208.664 267.466 204.486C267.525 204.295 267.65 204.131 267.819 204.023C267.988 203.916 268.189 203.871 268.387 203.898C268.586 203.925 268.768 204.021 268.902 204.169C269.037 204.318 269.114 204.509 269.121 204.709C268.661 211.2 270.463 214.501 270.207 217.627ZM282.9 201.915C278.941 202.76 269.722 203.176 266.42 200.837C265.78 200.387 264.895 199.237 265.714 198.685C270.231 195.625 278.077 195.56 283.437 196.605C284.397 196.793 288.916 198.253 289.037 199.55C289.138 200.766 283.817 201.72 282.9 201.92V201.915Z" fill="#FF9500"/>
<path d="M46.93 198.052C46.0692 195.755 42.13 195.51 40.0724 195.136C35.11 194.525 30.0836 194.672 25.1652 195.571C24.265 195.682 23.3963 195.974 22.611 196.428C21.8256 196.882 21.1397 197.489 20.594 198.214C20.1731 199.591 19.8617 200.998 19.6628 202.424C19.2074 201.845 18.5735 201.433 17.8597 201.251C17.1459 201.07 16.3922 201.129 15.7156 201.42C12.5156 203.07 12.1316 211.628 15.5764 213.614C16.2034 213.863 16.8737 213.984 17.5482 213.971C18.2226 213.958 18.8877 213.811 19.5044 213.537C20.4212 219.825 23.7012 223.267 31.3764 223.36C43.9316 223.52 46.3892 220.211 46.6964 218.443C47.7028 212.64 48.1684 201.356 46.93 198.052ZM19.3364 212.112C18.1492 212.131 16.3604 212.592 15.554 211.721C14.4516 210.512 14.21 205.172 15.8052 203.107C16.9252 201.656 18.29 202.66 19.53 203.411C19.1705 206.297 19.1056 209.212 19.3364 212.112ZM27.1652 217.846C27.1616 217.977 27.1243 218.104 27.057 218.216C26.9897 218.328 26.8946 218.42 26.781 218.485C26.6674 218.549 26.5391 218.583 26.4085 218.583C26.2779 218.584 26.1495 218.55 26.0356 218.486C23.9972 217.131 23.4388 214.028 23.1108 211.766C22.6161 209.297 22.8422 206.739 23.762 204.395C23.8254 204.292 23.9172 204.209 24.0264 204.158C24.1355 204.106 24.2574 204.087 24.3772 204.102C24.4971 204.118 24.6097 204.169 24.7016 204.247C24.7935 204.326 24.8606 204.429 24.8948 204.545C25.2308 206.841 25.0548 209.152 25.5172 211.452C25.9332 213.532 27.2548 215.737 27.1652 217.846ZM44.8564 200.193C43.7636 201.355 40.0292 201.974 33.058 202.24C29.7604 202.366 23.4084 201.804 21.8084 199.771C20.4436 198.033 26.3508 194.916 38.2228 196.593C40.1057 196.814 41.9659 197.198 43.7828 197.739C45.01 198.136 46.202 198.766 44.8564 200.193Z" fill="#FF9500"/>
<path d="M302.049 170.355C296.343 134.482 278.079 111.858 259.023 102.046C265.117 103.169 271.411 102.036 276.73 98.8577C282.266 95.3921 286.756 89.4832 287.212 82.808C287.362 81.241 287.184 79.6597 286.688 78.1656C286.192 76.6715 285.389 75.2974 284.332 74.1312C282.165 71.8592 273.404 72.304 268.639 61.8384C266.97 58.1584 271.981 43.3072 259.261 32.2784C251.993 25.9744 238.436 27.4784 231.503 38.104C229.263 41.528 228.783 45.496 228.002 49.4048C227.29 48.626 226.394 48.0388 225.395 47.6975C224.396 47.3562 223.328 47.2717 222.288 47.4518C221.248 47.6319 220.271 48.0709 219.445 48.7281C218.619 49.3854 217.972 50.2399 217.564 51.2128C216.11 49.1595 214.219 47.454 212.027 46.2192C209.835 44.9844 207.397 44.2511 204.887 44.072C199.589 43.7632 192.121 47.272 193.591 53.4752C191.607 54.1884 189.817 55.3558 188.365 56.884C186.913 58.4123 185.838 60.2591 185.227 62.2768C184.616 64.2945 184.485 66.4272 184.845 68.5044C185.206 70.5817 186.047 72.5459 187.301 74.24C189.046 76.5552 191.53 78.2034 194.341 78.9104C193.849 81.5776 194.045 83.4688 193.297 91.1953C193.021 92.2002 193.013 93.26 193.274 94.2688C193.858 95.4256 195.05 95.0496 196.089 95.2064C200.719 95.8928 198.889 103.958 203.068 108.542C204.239 109.851 205.818 110.725 207.548 111.024C198.495 117.104 191.292 141.41 180.375 152.07C173.301 158.981 166.858 158.059 157.097 157.045C154.297 156.755 150.548 155.368 147.929 156.979C146.361 157.939 145.674 160.142 144.877 161.688C143.506 164.342 142.157 167.008 140.785 169.664C140.585 170.048 141.149 170.381 141.365 170.005C142.593 167.845 143.82 165.685 145.077 163.534C146.106 161.79 147.105 158.539 149.153 157.834C151.021 157.194 152.639 157.962 158.421 158.566C160.803 158.838 163.197 158.988 165.594 159.018C166.993 160.991 168.051 163.186 168.722 165.51C169.027 167.941 168.882 170.406 168.295 172.784C167.711 172.702 167.125 172.608 166.535 172.506C166.464 172.486 166.389 172.496 166.325 172.532C166.261 172.569 166.214 172.629 166.195 172.7C166.176 172.771 166.185 172.847 166.222 172.91C166.258 172.974 166.319 173.021 166.389 173.04C178.34 177.622 193.369 172.768 203.669 164.837C206.145 162.926 211.292 158.344 212.898 155.331C215.372 157.958 220.063 160.498 226.671 161.229C227.601 164.966 229.098 168.616 230.066 172.349C231.177 176.643 233.999 189.822 233.426 197.64C233.094 201.343 232.962 205.062 233.033 208.779C215.657 208.587 105.282 208.902 73.9926 209.075C74.1414 207.464 74.0535 205.875 74.1879 199.627C75.5159 199.768 77.2183 197.438 78.2759 195.81C81.0983 191.458 79.9286 192.45 81.5559 176.624C93.784 178.979 106.42 178.008 118.145 173.811C117.839 174.216 117.541 174.624 117.266 175.046C117.188 175.185 117.146 175.342 117.147 175.501C117.147 175.66 117.189 175.817 117.268 175.955C117.347 176.093 117.461 176.208 117.598 176.289C117.735 176.37 117.891 176.414 118.05 176.416C120.576 176.466 123.1 176.224 125.57 175.694C126.135 175.554 125.951 174.805 125.441 174.746C123.586 174.583 121.723 174.529 119.861 174.586C121.618 171.387 123.116 168.052 124.341 164.614C124.729 163.43 125.949 158.741 125.991 158.552C128.337 158.538 130.685 158.562 133.018 158.373C134.521 158.254 136.164 158.814 134.316 163.122C132.537 167.266 130.858 171.222 128.845 175.226C128.673 175.571 129.124 175.982 129.41 175.661C130.138 174.851 130.806 173.99 131.41 173.085C131.423 173.111 131.439 173.136 131.458 173.158C135.445 177.248 141.994 178.104 147.458 178.118C150.348 178.14 153.199 177.442 155.751 176.086C158.304 174.73 160.479 172.76 162.079 170.354C162.317 169.968 161.844 169.421 161.439 169.714C157.687 172.355 155.649 176.506 147.471 176.611C142.146 176.682 136.271 176.254 132.053 172.592C131.99 172.534 131.909 172.5 131.823 172.494C133.641 169.52 135.04 166.31 135.983 162.954C136.156 162.37 136.553 161.424 136.834 160.445C137.81 160.483 138.775 160.39 139.756 160.48C140.737 160.57 142.226 161.002 143.194 161.072C143.292 161.069 143.387 161.035 143.464 160.974C143.54 160.913 143.596 160.83 143.621 160.735C143.647 160.64 143.641 160.54 143.605 160.449C143.569 160.358 143.505 160.281 143.421 160.229C141.42 159.335 139.185 159.103 137.042 159.566C137.167 159.179 137.198 158.768 137.132 158.366C137.067 157.964 136.907 157.584 136.666 157.256C136.101 156.688 125.549 156.053 124.53 157.158C118.474 157.421 112.408 156.988 106.45 155.869C98.5687 154.239 91.0388 151.223 84.2103 146.963C83.9366 141.765 83.0774 130.074 82.6262 126.312C82.255 123.202 80.7606 115.046 79.871 114.168C79.5266 113.877 79.1228 113.665 78.6879 113.546C78.253 113.426 77.7973 113.404 77.3527 113.478C76.7623 121.478 75.4711 131.213 74.2295 139.344C65.3407 131.092 58.6986 120.712 54.9287 109.184C54.9024 109.114 54.8506 109.055 54.7835 109.021C54.7165 108.987 54.639 108.979 54.5665 108.999C54.4939 109.019 54.4316 109.066 54.3917 109.13C54.3518 109.194 54.3373 109.27 54.3511 109.344C57.5092 121.046 63.7355 131.692 72.3862 140.181C81.037 148.67 91.7983 154.695 103.557 157.632C110.096 159.366 116.868 160.054 123.621 159.67C123.623 161.636 123.178 163.576 122.319 165.344C121.97 166.206 120.732 169.406 120.399 170.261C110.285 174.236 99.381 175.79 88.559 174.798C73.4711 173.299 55.1319 164.571 46.2311 155.942C41.1834 151.066 36.8716 145.481 33.4311 139.363C33.2023 138.955 32.6039 139.317 32.8071 139.728C40.114 154.379 52.4148 165.938 67.4918 172.32C67.9078 180.736 66.2295 187.168 67.6855 191.421C68.7367 194.498 70.7031 195.651 72.5319 197.981C72.3299 201.683 72.3176 205.393 72.4951 209.096C63.1591 209.149 56.0439 209.216 52.7351 209.298C52.6248 209.318 52.5251 209.376 52.4533 209.463C52.3816 209.549 52.3423 209.658 52.3423 209.77C52.3423 209.882 52.3816 209.99 52.4533 210.077C52.5251 210.163 52.6248 210.221 52.7351 210.242C79.2295 211.429 105.855 210.898 132.367 210.776C160.777 210.646 246.223 210.355 260.54 210.082C260.612 210.067 260.677 210.028 260.724 209.971C260.771 209.913 260.796 209.842 260.796 209.768C260.796 209.694 260.771 209.623 260.724 209.566C260.677 209.508 260.612 209.469 260.54 209.454C251.869 209.109 243.189 208.914 234.505 208.814C237.727 197.896 233.225 170.68 228.265 161.387C233.487 161.674 238.719 161.067 243.737 159.592C243.852 159.557 243.951 159.482 244.016 159.38C244.08 159.278 244.107 159.157 244.09 159.037C244.074 158.918 244.015 158.808 243.925 158.728C243.835 158.648 243.72 158.603 243.599 158.6C234.204 158.646 223.439 161.338 215.375 154.808C210.756 151.067 212.231 145.312 212.834 140.158C213.733 134.68 214.256 129.146 214.399 123.595C214.398 123.497 214.362 123.403 214.297 123.33C214.232 123.256 214.143 123.208 214.046 123.195C213.949 123.182 213.85 123.204 213.768 123.258C213.686 123.311 213.626 123.392 213.599 123.486C212.713 126.595 211.061 139.142 210.642 142.142C210.068 146.264 209.612 150.341 211.657 153.715C208.668 156.97 194.589 175.714 169.831 172.986C170.722 170.624 170.927 168.058 170.424 165.585C169.921 163.111 168.73 160.83 166.988 159.003C176.573 158.683 182.418 154.602 190.487 140.704C198.689 126.589 202.18 116.074 210.415 111.04C213.587 110.277 216.481 108.64 218.77 106.315C218.75 108.754 218.953 111.19 219.378 113.592C219.386 113.745 219.453 113.889 219.564 113.995C219.675 114.101 219.822 114.16 219.976 114.16C220.129 114.16 220.277 114.101 220.388 113.995C220.499 113.889 220.566 113.745 220.573 113.592C220.813 110.726 220.651 107.84 220.093 105.018C221.971 103.232 223.428 101.052 224.359 98.6337C224.637 97.7041 223.399 97.3361 222.897 98.0145C221.286 100.602 219.417 103.021 217.321 105.234C209.239 112.554 203.205 110.126 201.335 100.858C200.746 97.9473 199.884 94.2225 196.386 93.7681C196.037 93.7217 194.924 93.968 194.645 93.7521C193.954 93.2272 194.794 89.5184 194.869 88.576C195.1 85.5024 195.575 82.2656 195.501 79.1584C201.601 80.1664 208.605 77.3168 213.525 73.5744C216.164 77.7072 220.01 77.5152 221.572 77.8528C222.015 77.9351 222.43 78.129 222.778 78.4163C223.126 78.7035 223.395 79.0745 223.559 79.4944C223.629 79.7072 223.698 80.0609 223.797 80.528C223.359 79.7146 222.616 79.108 221.732 78.8411C220.847 78.5742 219.893 78.6688 219.077 79.104C218.48 79.5412 218.033 80.1532 217.798 80.8555C217.564 81.5578 217.554 82.3156 217.769 83.024C217.837 83.5616 218.636 83.6048 218.642 83.024C218.666 81.048 220.221 79.2368 221.913 81.08C224.189 83.5616 222.673 86.5409 221.418 88.9729C221.323 89.1438 221.292 89.3434 221.332 89.5351C221.371 89.7269 221.478 89.898 221.634 90.0173C221.789 90.1367 221.982 90.1962 222.177 90.1851C222.373 90.174 222.558 90.093 222.698 89.9568C223.479 89.2086 224.081 88.2935 224.458 87.28C224.835 86.2665 224.979 85.1808 224.877 84.104C227.319 90.04 233.369 94.7024 237.401 95.5553C237.417 96.5566 237.573 97.5507 237.865 98.5089C240.244 110.678 233.513 119.07 226.321 120.038C224.36 120.347 222.355 119.897 220.713 118.782C219.07 117.667 217.914 115.969 217.477 114.032C217.361 113.405 216.409 113.573 216.396 114.178C216.45 116.097 217.168 117.938 218.428 119.386C219.688 120.835 221.412 121.802 223.305 122.122C227.785 123.066 232.316 120.733 235.425 117.642C240.466 112.632 241.469 104.627 240.252 97.608C278.149 103.81 297.269 144.901 300.602 183.594C301.052 188.891 301.108 194.211 301.633 199.502C301.633 199.752 301.732 199.991 301.908 200.168C302.085 200.344 302.324 200.443 302.573 200.443C302.823 200.443 303.062 200.344 303.239 200.168C303.415 199.991 303.514 199.752 303.514 199.502C304.684 189.933 303.557 179.84 302.049 170.355ZM277.852 75.0401C279.048 76.0545 280.028 77.3002 280.731 78.7024C281.434 80.1046 281.847 81.6344 281.945 83.2C282.033 84.7393 281.722 86.2753 281.044 87.6598C280.365 89.0442 279.341 90.2305 278.071 91.1041C277.295 91.6065 276.631 90.6576 276.93 89.9632C278.823 85.6032 280.354 80.072 276.996 75.9024C276.517 75.304 277.287 74.48 277.852 75.0401ZM193.999 59.184C190.167 60.208 189.577 65.5264 190.631 68.3744C191.031 69.4496 191.791 70.2944 192.161 71.3664C192.548 72.504 191.231 73.1472 190.337 72.7664C184.837 70.4208 186.78 56.9728 193.783 57.6032C193.974 57.61 194.156 57.6839 194.297 57.8119C194.439 57.9399 194.531 58.1137 194.556 58.3027C194.582 58.4918 194.54 58.6838 194.439 58.8451C194.337 59.0063 194.181 59.1264 193.999 59.184ZM210.159 52.1264C208.675 50.8709 206.835 50.1112 204.897 49.9536C203.779 49.9976 202.691 50.3288 201.738 50.9154C200.785 51.5019 199.999 52.324 199.457 53.3024C199.113 53.9104 198.242 53.3728 198.532 52.7617C201.49 46.456 209.092 47.5568 210.833 51.456C211.017 51.864 210.612 52.416 210.162 52.1264H210.159ZM239.989 96.4801C239.828 95.8899 239.536 95.3432 239.137 94.8801C238.534 87.495 239.885 80.0813 243.055 73.384C245.404 68.104 242.565 62.1472 238.978 57.7616C240.947 59.0839 242.579 60.8485 243.744 62.9144C244.909 64.9804 245.575 67.2902 245.687 69.6592C246.287 76.992 242.487 84.3168 245.346 91.52C246.468 94.3706 248.382 96.841 250.861 98.6401C247.339 97.4791 243.688 96.7537 239.989 96.4801ZM236.365 42.6944C236.089 43.1968 235.229 42.8544 235.433 42.2992C237.759 35.88 243.805 31.4336 250.793 32.496C256.981 33.4416 263.497 40.3664 260.945 46.9888C260.886 47.1781 260.768 47.3436 260.609 47.4612C260.449 47.5787 260.256 47.6421 260.058 47.6421C259.86 47.6421 259.667 47.5787 259.508 47.4612C259.348 47.3436 259.23 47.1781 259.172 46.9888C258.694 44.5063 257.851 42.1081 256.671 39.872C252.135 32.9184 241.389 33.6176 236.365 42.6912V42.6944Z" fill="#212941"/>
<path d="M85.236 104.229C85.2109 104.148 85.1657 104.076 85.1048 104.017C85.0438 103.959 84.969 103.917 84.8874 103.896C84.8058 103.874 84.7201 103.874 84.6383 103.895C84.5566 103.916 84.4814 103.957 84.42 104.015C83.5073 104.666 82.6427 105.383 81.8328 106.159C81.8018 106.077 81.7538 106.004 81.692 105.943C80.8847 105.899 80.0768 106.018 79.316 106.291C78.1 106.771 76.94 110.527 77.0024 111.351C77.0105 111.747 77.1604 112.128 77.4248 112.424C78.0136 113.029 79.452 112.664 80.0488 112.264C81.3704 111.365 82.0712 108.079 81.9576 106.72C82.8246 106.288 83.6504 105.777 84.4248 105.195C85.724 112.427 83.7352 115.456 82.1576 119.691C81.9976 120.127 82.5656 120.319 82.8488 120.095C84.836 118.538 85.3736 115.194 85.636 112.842C86.1385 109.976 86.002 107.035 85.236 104.229Z" fill="#212941"/>
<path d="M112.244 43.8481C110.133 41.932 107.349 40.9299 104.5 41.0609C102.043 41.2209 99.7004 42.2209 97.2396 42.3937C93.486 42.6561 89.8988 40.9793 86.1996 40.3553C76.9852 38.8097 65.7468 44.0801 61.1244 52.2209C59.2478 55.5441 58.2434 59.2885 58.2051 63.1047C58.1668 66.921 59.0957 70.6848 60.9052 74.0449C61.838 75.6993 63.0348 77.4289 62.7788 79.3105C62.4142 80.5977 61.8895 81.834 61.2172 82.9905C59.766 84.1585 58.2764 85.2769 56.7884 86.3953C55.878 87.0817 53.6428 88.1361 53.2268 89.2337C53.0692 89.752 53.0347 90.2998 53.126 90.8337C47.6972 90.3457 40.1004 95.1537 36.0684 98.7889C18.4796 114.629 7.08922 132.32 1.90202 158.352C0.757145 162.853 0.124334 167.469 0.015625 172.112C0.0222824 172.353 0.11422 172.583 0.27502 172.762C0.435819 172.941 0.655009 173.057 0.893445 173.089C1.13188 173.122 1.37404 173.068 1.57667 172.938C1.7793 172.809 1.92921 172.611 1.99962 172.381C3.36762 167.031 2.79962 162.648 6.02682 150.243C10.55 132.851 18.7404 117.975 34.1692 103.085C39.262 98.1681 45.7708 92.6545 53.1932 92.1441C53.2533 92.1414 53.3127 92.1296 53.3692 92.1089C54.2247 95.1184 55.3034 98.0599 56.5964 100.909C60.1068 108.504 65.8396 116.53 73.462 120.397C73.532 120.433 73.6118 120.447 73.6898 120.435C73.7679 120.424 73.8404 120.388 73.8968 120.333C73.9532 120.277 73.9908 120.206 74.0041 120.128C74.0174 120.05 74.0057 119.97 73.9708 119.899C74.3116 119.464 73.9004 115.543 74.5436 112.97C75.1241 110.628 76.2232 108.446 77.7596 106.586C79.118 104.963 73.0988 104.816 67.2476 96.0817C64.9918 92.6583 63.4903 88.7941 62.8428 84.7457C63.6047 83.9346 64.1951 82.978 64.5786 81.9333C64.9621 80.8886 65.1309 79.7772 65.0748 78.6657C64.8908 75.6257 63.0332 72.9953 61.8844 70.1857C60.893 67.7104 60.431 65.0549 60.528 62.3901C60.625 59.7254 61.2789 57.1105 62.4476 54.7137C66.734 46.0737 77.726 41.2737 85.4492 42.6833C88.5948 43.2561 91.5468 44.8241 94.7388 44.9889C99.126 45.2161 103.635 42.7857 107.768 44.2721C112.844 46.0977 115.328 53.1105 110.937 60.1121C106.547 67.1137 98.6444 69.0241 93.158 65.8225C92.614 65.5025 91.966 65.1233 91.398 65.3825C90.7436 65.6801 90.6764 66.5553 90.5468 67.2609C90.006 70.1585 86.7548 71.9665 83.8188 71.7121C81.9948 71.2767 80.1348 71.0089 78.262 70.9121C77.0181 71.0663 75.8648 71.6432 74.9954 72.5461C74.126 73.4491 73.5931 74.6232 73.486 75.8721C73.501 76.3789 73.4575 76.8857 73.3564 77.3825C72.9612 78.7313 69.9964 81.7025 66.0716 82.5617C64.1692 82.9793 64.3116 84.5265 65.9852 84.1457C69.1141 83.4233 71.9225 81.7012 73.9852 79.2401C74.2367 80.1774 74.7398 81.028 75.4401 81.6998C76.1404 82.3716 77.0111 82.839 77.958 83.0513C78.6828 83.2113 79.766 82.7537 79.4476 82.0913C79.1772 81.5313 76.4252 80.7441 75.342 78.1073C75.0302 77.4153 74.8981 76.6557 74.9578 75.899C75.0176 75.1423 75.2673 74.4128 75.6838 73.7783C76.1003 73.1437 76.6702 72.6244 77.3407 72.2686C78.0112 71.9127 78.7606 71.7318 79.5196 71.7425C80.7082 71.945 81.8724 72.271 82.9932 72.7153C84.894 73.1706 86.8952 72.9272 88.6314 72.0296C90.3677 71.1319 91.7233 69.6399 92.4508 67.8257C95.7861 69.3903 99.5665 69.7274 103.126 68.7777C102.083 72.4497 101.912 76.3145 102.627 80.0641C103.076 82.7025 104.46 85.4689 104.097 86.8481C103.552 88.9137 100.995 88.2401 99.5132 87.8241C99.3975 87.7934 99.2763 87.7895 99.1588 87.8128C99.0414 87.8361 98.9308 87.8859 98.8355 87.9585C98.7403 88.031 98.6629 88.1244 98.6092 88.2315C98.5556 88.3385 98.5271 88.4564 98.526 88.5761C98.9699 91.523 98.4656 94.5346 97.086 97.1761C96.3984 98.4214 95.3991 99.4667 94.1861 100.21C92.973 100.953 91.5878 101.368 90.166 101.415C88.1181 101.11 86.2122 100.186 84.7036 98.7681C83.4251 97.5303 82.2973 96.1458 81.3436 94.6433C81.2963 94.5681 81.2283 94.5079 81.1479 94.4701C81.0674 94.4322 80.9778 94.4181 80.8896 94.4296C80.8014 94.441 80.7184 94.4775 80.6502 94.5346C80.5821 94.5918 80.5318 94.6673 80.5052 94.7521C79.9788 96.3633 81.3836 98.0065 82.6812 99.1681C81.9821 99.8668 81.4533 100.717 81.1356 101.653C79.3676 105.623 81.0604 106.035 81.5196 105.288C81.9986 104.333 82.3999 103.34 82.7196 102.32C83.0268 101.579 83.5404 100.861 83.7868 100.088C85.6345 101.739 87.9828 102.722 90.4556 102.88C97.302 102.699 100.497 95.5745 100.172 89.5553C100.995 89.8072 101.87 89.8363 102.708 89.6395C103.545 89.4427 104.316 89.0272 104.94 88.4353C105.413 87.9728 105.751 87.3913 105.92 86.7523C106.089 86.1132 106.082 85.4404 105.9 84.8049C104.588 79.1825 102.985 77.8625 105.203 68.0897C114.755 64.1601 119.537 50.3745 112.244 43.8481ZM76.2764 106.4C73.8188 109.875 71.6972 115.074 73.0764 119.242C65.0444 113.666 59.0396 104.16 55.8796 94.9569C55.546 94.0017 55.2645 93.0291 55.0364 92.0433C54.8204 91.0737 54.4476 90.1377 55.1548 89.4273C57.1836 87.3809 59.6988 86.1009 61.6108 83.9537C62.1788 92.8177 68.0908 102.647 76.2764 106.4Z" fill="#212941"/>
</svg>
