<svg width="258" height="304" viewBox="0 0 258 304" fill="none" xmlns="http://www.w3.org/2000/svg">
<path d="M183.066 62.1936C181.549 61.224 177.626 58.5136 177.019 58.928C175.346 60.2839 173.788 61.7771 172.363 63.392C174.479 65.0051 176.424 66.8307 178.168 68.84C178.168 69.2608 177.81 81.712 177.747 82.28C179.546 81.2864 184.022 79.5888 185.286 79.0528C184.445 76.272 180.646 68.5408 180.795 67.9936C180.944 67.4464 183.142 62.7296 183.066 62.1936Z" fill="#3A5AB7"/>
<path d="M98.9709 79.6065C101.869 79.7537 104.773 79.7537 107.672 79.6065C108.079 77.8912 108.123 76.1094 107.8 74.3761C104.87 73.9873 101.901 73.9873 98.9709 74.3761C98.6909 74.7841 98.4733 79.4785 98.9709 79.6065Z" fill="#FF9500"/>
<path d="M107.761 81.6001C107.693 81.4376 107.572 81.3024 107.419 81.2155C107.265 81.1285 107.087 81.0947 106.913 81.1194C106.738 81.144 106.576 81.2257 106.453 81.3517C106.33 81.4777 106.251 81.641 106.23 81.8161C106.038 84.8561 108.358 87.3313 109.393 90.0193C110.697 93.4017 110.193 97.4705 110.16 101.042C110.081 108.504 110.032 115.981 109.968 123.456C107.728 123.749 98.0398 124.031 97.3902 123.456C98.7678 103.245 95.8206 95.7233 97.8494 90.4785C98.9342 87.6721 100.936 84.9809 100.872 81.8545C100.847 81.6658 100.761 81.4903 100.627 81.3544C100.494 81.2185 100.32 81.1295 100.132 81.1009C99.9437 81.0722 99.7512 81.1053 99.5834 81.1954C99.4156 81.2854 99.2816 81.4274 99.2014 81.6001C98.6782 84.8401 96.8014 87.3457 95.6414 90.3521C94.3454 93.7233 94.8734 97.2785 94.9918 100.826C95.251 108.632 95.3774 116.453 95.603 124.259C95.6766 126.811 110.096 125.752 111.168 125.344C111.459 125.205 111.7 124.98 111.86 124.699C112.02 124.419 112.09 124.096 112.061 123.775C112.443 116.12 112.341 108.186 112.366 100.519C112.389 93.5793 113.12 91.7057 109.814 86.0017C108.994 84.6021 108.306 83.1284 107.761 81.6001Z" fill="#FF9500"/>
<path d="M90.17 118.745C88.1412 118.629 82.0244 119.518 77.4132 118.425C76.1332 118.123 71.9124 83.4367 71.1364 78.7631C70.8398 76.9812 69.9423 75.3545 68.5932 74.1532C67.2441 72.952 65.5246 72.2486 63.7204 72.1598C60.9764 72.0158 15.3716 71.8398 11.2644 72.1598C7.15721 72.4798 6.35241 75.387 7.15561 79.7246C7.95881 84.0622 13.4228 124.753 15.3748 125.12C17.3268 125.486 89.5188 125.334 90.0804 125.325C93.1796 125.28 93.6404 118.945 90.17 118.745ZM34.09 100.733C30.418 89.139 44.8564 87.2095 47.586 98.8831C50.3156 110.557 37.282 110.813 34.09 100.733Z" fill="#3A5AB7"/>
<path d="M197.826 95.7824C197.826 101.102 198.644 102.493 200.455 101.766C202.266 101.04 201.845 96.5104 201.845 94.0352C200.612 94.8366 199.254 95.4271 197.826 95.7824Z" fill="#3A5AB7"/>
<path d="M201.423 67.9727C199.635 68.5376 197.731 68.6253 195.898 68.2271C196.026 70.2175 196.103 73.8015 196.103 74.6063C196.958 74.1855 199.93 73.4863 201.423 73.0239V67.9727Z" fill="#3A5AB7"/>
<path d="M194.229 49.8832C192.552 50.8705 191.212 52.3416 190.386 54.1036C189.56 55.8656 189.285 57.8361 189.599 59.7568C191.813 69.0368 202.997 67.3168 205.749 62.8816C210.987 54.44 201.973 45.3424 194.229 49.8832Z" fill="#3A5AB7"/>
<path d="M180.579 109.663C171.278 115.506 151.48 130.08 141.848 132.727C141.478 139.311 140.152 157.896 141.924 157.96C172.619 159.08 179.137 155.525 182.339 146.48C180.592 140.419 180.451 117.419 180.579 109.663Z" fill="#212941"/>
<path d="M149.348 127.598C162.232 120.669 173.971 111.371 186.854 104.037C186.374 100.502 179.379 83.4591 178.804 83.6255C171.15 86.5215 147.065 99.4943 136.707 104.037C135.979 104.357 135.44 103.641 136.145 103.208C139.889 100.904 146.478 97.6446 150.816 95.451C151.11 91.3806 151.249 87.7967 151.236 83.6895C151.236 82.9103 152.15 83.0655 152.347 83.6895C152.803 87.3118 152.872 90.9725 152.552 94.6094L174.518 83.9695C171.814 77.5903 161.878 59.4607 155.281 55.4063C153.267 54.1679 135.091 60.7199 132.19 65.4975C125.79 76.0351 117.15 116.217 125.812 125.825C133.092 133.893 141 132.088 149.348 127.598Z" fill="#212941"/>
<path d="M238.19 47.7393C237.513 47.7393 230.35 68.7761 228.15 76.4305L231.518 79.2241C232.142 79.7601 232.787 81.7841 230.777 80.3217C223.111 74.7113 214.961 69.7933 206.424 65.6257C205.644 66.5539 204.605 67.2286 203.44 67.5633C203.579 68.9425 203.541 69.5025 203.643 71.0081C208.057 70.5281 208.16 76.1105 208.401 81.6097C208.643 87.1089 207.381 91.1521 203.809 93.7281C203.809 101.23 202.801 103.632 199.854 103.808C198.081 103.914 196.232 102.915 196.232 98.0481C195.414 98.6481 191.128 100.867 188.449 102.157C188.832 103.437 189.024 104.901 188.309 105.256C186.307 106.254 184.355 107.362 182.441 108.522C183.283 113.408 181.961 140.414 184.545 147.112C190.222 158.709 208.101 158.483 209.117 157.318C211.677 154.371 210.278 108.49 207.368 92.8385C207.208 91.9585 208.157 91.6497 208.401 92.5457C209.398 96.2681 210.077 100.068 210.43 103.906C215.763 106.189 229.694 112.214 237.321 109.136C246.509 105.429 257.861 54.1793 256.573 52.3153C255.285 50.4513 238.929 47.7393 238.19 47.7393ZM188.04 117.6C186.789 112.925 191.145 112.333 191 116.53C190.91 119.154 188.406 118.96 188.04 117.6ZM189.825 134.019C188.294 133.73 187.363 128.829 189.985 129.4C192.225 129.883 191.536 134.339 189.827 134.016L189.825 134.019Z" fill="#212941"/>
<path d="M183.295 149.209C178.983 161.723 157.947 160.32 143.902 160.065C143.289 162.081 131.145 220.139 122.342 283.465C129.338 284.136 136.382 284.136 143.379 283.465C155.459 238.814 161.316 220.576 173.995 192.265C175.711 188.435 178.854 179.507 179.507 178.665C180.936 178.16 182.478 178.062 183.959 178.384C184.825 179.088 181.905 179.533 180.731 179.664C179.889 181.729 179.047 183.784 178.18 185.851C187.582 222.91 188.767 234.033 193.998 284.782C201.592 284.919 209.187 284.491 216.718 283.502C214.089 223.662 212.635 206.68 206.614 159.427C202.878 159.734 189.406 159.173 183.295 149.209Z" fill="#212941"/>
<path d="M253.919 300.394C172.639 300.68 87.0387 300.17 6.78914 300.394C5.33474 300.394 5.50914 303.083 6.90434 303.085C87.1843 303.187 173.66 305.459 254.008 302.435C255.095 302.4 254.965 300.39 253.919 300.394Z" fill="#212941"/>
<path d="M119.97 130.138C121.603 130.138 121.36 127.586 119.741 127.586C80.4352 127.586 40.7168 127.35 1.45603 127.778C0.052835 127.792 0.296035 129.906 1.66084 129.933C40.9024 130.741 80.68 130.144 119.97 130.138Z" fill="#212941"/>
<path d="M56.3593 134.181C54.8713 174.941 58.6121 225.187 48.2457 263.55C45.2266 274.669 41.2308 285.5 36.3049 295.915C35.6137 297.382 37.9785 298.2 38.6777 296.758C47.6051 278.284 53.391 258.451 55.7977 238.075C59.3369 208.437 59.3465 164.569 58.5177 134.424C58.4793 133.021 56.4137 132.765 56.3593 134.181Z" fill="#212941"/>
<path d="M67.6922 133.11C65.7274 175.421 66.4602 241.341 79.289 280.721C81.1356 286.288 83.2992 291.744 85.769 297.064C86.3514 298.344 88.329 297.581 87.8106 296.299C83.8762 286.814 80.7067 277.03 78.3322 267.04C69.6074 229.557 70.4026 172.64 70.0522 133.205C70.041 131.91 67.753 131.795 67.6922 133.11Z" fill="#212941"/>
<path d="M176.36 25.3757C175.314 25.5357 175.709 28.5149 176.794 28.1309C177.878 27.7469 177.32 25.2237 176.36 25.3757Z" fill="#212941"/>
<path d="M179.112 32.112C178.312 32.0448 178.41 33.7824 181.14 33.6304C183.194 33.5152 184.788 32.776 184.24 30.4912C183.805 28.68 182.783 29.472 182.96 30.032C183.968 33.12 180.287 32.2096 179.112 32.112Z" fill="#212941"/>
<path d="M184.343 24.1905C183.374 24.2849 183.666 27.0481 184.687 26.9105C185.708 26.7729 185.321 24.0945 184.343 24.1905Z" fill="#212941"/>
<path d="M186.051 19.5713C184.253 17.7857 180.344 17.8849 181.293 20.1201C181.834 21.4001 182.978 19.8785 184.878 21.1793C185.092 21.2878 185.337 21.3168 185.57 21.261C185.803 21.2051 186.008 21.0682 186.149 20.8747C186.291 20.6812 186.358 20.4438 186.34 20.2049C186.322 19.9661 186.22 19.7415 186.051 19.5713Z" fill="#212941"/>
<path d="M173.767 36.3087C174.801 41.2879 181.751 40.9951 182.735 37.6479C183.227 35.9791 183.156 35.6703 181.615 35.8495C179.663 36.0767 176.646 36.4575 175.238 35.0079C174.014 33.7599 173.371 34.3999 173.767 36.3087ZM181.702 37.0111C181.268 39.4223 175.847 39.5615 175.055 36.3215C176.056 36.8684 177.156 37.2111 178.29 37.3295C179.425 37.4479 180.571 37.3396 181.663 37.0111H181.702Z" fill="#212941"/>
<path d="M175.693 20.9231C175.076 21.0647 174.498 21.3405 174 21.731C173.503 22.1215 173.097 22.6171 172.813 23.1823C172.093 24.6015 173.07 25.1855 173.923 24.4623C174.44 24.0207 174.184 24.0799 176.474 22.9183C177.667 22.3071 176.878 20.7711 175.693 20.9231Z" fill="#212941"/>
<path d="M242.156 38.7456C241.516 35.3856 240.511 34.3056 240.537 29.816C242.401 29.3158 244.322 29.054 246.252 29.0368C247.03 29.0368 247.322 27.9024 246.15 27.6336C244.977 27.3648 240.244 27.2784 239.134 27.9536C236.863 29.3328 239.086 37.4432 240.586 39.3328C241.033 39.8928 242.334 39.664 242.156 38.7456Z" fill="#212941"/>
<path d="M243.178 25.6191C243.338 22.7743 242.09 15.7583 241.124 6.6863C241.034 5.8319 239.618 5.9983 239.454 6.8783C239.134 8.5743 241.054 23.4623 241.634 25.7839C241.696 25.9517 241.811 26.0941 241.963 26.1886C242.114 26.2831 242.293 26.3241 242.471 26.3051C242.648 26.2862 242.815 26.2083 242.943 26.084C243.071 25.9597 243.154 25.796 243.178 25.6191Z" fill="#212941"/>
<path d="M248.665 27.0482C249.607 27.0626 249.674 25.301 250.265 24.1394C250.945 22.789 252.447 22.1106 251.757 21.205C249.941 18.8306 245.983 27.0034 248.665 27.0482Z" fill="#212941"/>
<path d="M246.189 24.3039C246.482 22.3391 247.405 22.3167 247.789 21.7535C247.882 21.6149 247.938 21.4543 247.95 21.2876C247.963 21.1209 247.931 20.9539 247.859 20.8031C247.787 20.6524 247.677 20.523 247.539 20.4279C247.402 20.3327 247.242 20.2751 247.075 20.2607C244.931 20.2607 243.883 24.4095 244.434 25.7199C244.467 25.7839 245.715 27.4815 246.189 24.3039Z" fill="#212941"/>
<path d="M244.99 31.1423C244.82 31.1423 244.657 31.2097 244.537 31.3297C244.417 31.4497 244.35 31.6125 244.35 31.7823C244.35 31.952 244.417 32.1148 244.537 32.2348C244.657 32.3548 244.82 32.4223 244.99 32.4223C245.877 32.4568 246.734 32.7541 247.452 33.2766C248.169 33.7991 248.716 34.5231 249.022 35.3567C249.532 36.3647 250.922 35.8367 249.902 33.5583C249.446 32.6857 248.724 31.9811 247.841 31.5467C246.958 31.1123 245.959 30.9706 244.99 31.1423Z" fill="#212941"/>
<path d="M251.279 26.7409C251.311 26.9188 251.402 27.0806 251.538 27.1999C251.674 27.3193 251.846 27.3891 252.027 27.398C252.207 27.4069 252.385 27.3544 252.532 27.249C252.679 27.1436 252.786 26.9916 252.835 26.8177C252.943 26.3697 253.368 24.1425 254.213 24.5601C256.293 25.5905 255.459 39.1873 255.131 41.3233C254.949 42.5073 256.411 42.6033 256.637 41.4497C257.195 38.5329 259.179 21.8353 254.085 22.3153C251.823 22.5265 251.151 24.9041 251.279 26.7409Z" fill="#212941"/>
<path d="M256.049 43.5551C251.926 42.2895 244.95 41.9679 240.448 41.5647C238.763 41.4143 238.585 45.9919 239.796 46.4127C241.008 46.8335 240.689 44.9199 240.945 43.2495C245.751 43.6176 250.53 44.2689 255.259 45.1999C255.154 46.0347 254.994 46.8616 254.779 47.6751C254.476 48.8463 255.908 50.5711 256.985 44.9839C257.145 44.1919 256.929 43.8255 256.049 43.5551Z" fill="#212941"/>
<path d="M189.497 80.1423C190.699 77.9695 191.708 75.7055 192.839 73.5087C193.351 72.5151 195.012 70.0863 194.294 68.8271C193.191 66.8959 188.732 77.4255 188.412 78.6879C188.092 79.9503 189.044 80.9599 189.497 80.1423Z" fill="#212941"/>
<path d="M186.759 100.043C187.26 101.107 189.058 99.8961 190.439 99.1505C192.586 97.9857 193.182 97.5681 192.62 95.6673C191.135 90.4952 189.285 85.435 187.084 80.5249C186.33 78.8801 180.91 82.7201 180.489 83.0769C180.068 83.4337 179.689 85.5777 182.785 83.8417C183.732 83.3105 184.705 82.8337 185.681 82.3233C187.683 86.9887 189.445 91.7533 190.961 96.5985C189.319 97.8241 186.222 98.8801 186.759 100.043Z" fill="#212941"/>
<path d="M203.881 75.5634C205.161 76.3026 204.351 86.8146 203.46 88.1538C201.176 90.9559 197.909 92.7809 194.326 93.2561C192.553 93.5313 193.395 94.5234 194.465 94.6594C197.025 94.9794 203.617 91.5185 204.902 88.7153C205.966 86.3905 207.451 73.2914 204.059 73.7506C202.779 73.925 195.001 75.5826 195.899 77.4002C196.505 78.6546 198.761 76.3794 203.881 75.5634Z" fill="#212941"/>
<path d="M165.983 62.4609C163.862 61.2049 163.323 63.2689 169.148 65.9569C170.324 66.4993 170.5 66.5313 171.585 65.5361C173.587 63.6977 175.412 61.7089 177.505 59.7953C179.495 61.2625 181.313 62.2577 183.361 63.8129C184.625 64.7729 185.175 65.3921 187.188 62.6929C187.78 61.8929 187.06 60.9569 186.18 61.6849L184.9 62.7809L179.111 58.7201C181.393 57.3473 183.494 55.6927 185.363 53.7953C186.106 54.5121 186.894 55.1812 187.722 55.7985C188.054 56.0161 188.931 55.6241 187.811 54.2417C185.75 51.6977 185.166 51.9553 184.252 52.7505C181.941 54.7084 179.465 56.4627 176.852 57.9937C160.123 54.6993 163.351 51.3473 159.452 55.0337C158.972 55.4801 158.419 57.2913 162.004 54.9057C164.39 56.9089 172.35 58.7969 175.297 59.4225L170.321 64.5249C168.823 63.9513 167.373 63.2612 165.983 62.4609Z" fill="#212941"/>
<path d="M160.13 25.6192C155.026 27.2384 157.195 37.3296 163.547 38.6432C163.765 43.2832 163.794 47.9456 164.224 52.5632C164.296 53.3424 165.495 53.2256 165.691 52.5632C166.125 51.1056 165.079 39.016 165.066 37.944C165.04 35.7872 163.362 37.4928 161.035 34.8048C157.714 30.9648 159.755 24.4592 163.995 28.912C164.069 28.9989 164.163 29.0668 164.268 29.1101C164.374 29.1533 164.488 29.1707 164.602 29.1607C164.715 29.1506 164.825 29.1135 164.921 29.0524C165.018 28.9914 165.098 28.9081 165.155 28.8096C167.263 25.5344 168.005 21.5642 167.223 17.7488C174.081 17.6787 180.895 16.6484 187.467 14.688C191.005 13.6032 190.874 9.03519 187.391 8.88319C187.957 8.37525 188.313 7.67486 188.392 6.91835C188.47 6.16183 188.263 5.40333 187.813 4.79047C187.363 4.17762 186.7 3.75427 185.955 3.60283C185.21 3.45139 184.435 3.58269 183.781 3.97119C183.933 3.19454 183.785 2.38901 183.367 1.71726C182.948 1.04551 182.29 0.557602 181.526 0.352056C180.762 0.14651 179.948 0.238644 179.249 0.609851C178.55 0.981058 178.018 1.60368 177.76 2.35199C176.28 -1.92161 171.381 0.431988 171.176 3.15199C170.881 2.63605 170.416 2.23887 169.86 2.02858C169.304 1.81829 168.692 1.808 168.129 1.99947C167.567 2.19095 167.088 2.57225 166.776 3.07798C166.464 3.5837 166.337 4.18234 166.418 4.77119C163.191 2.34879 160.295 4.93119 161.315 8.39519C158.483 5.97119 156.035 9.20959 156.995 14.1872C157.759 18.0693 158.807 21.8902 160.13 25.6192Z" fill="#212941"/>
<path d="M187.047 16.9954C187.609 23.2882 191.73 38.3378 186.346 44.2562C182.225 48.7858 173.804 46.5426 170.897 44.7026C169.889 44.0626 169.197 45.8066 170.194 46.3874C173.407 48.2492 177.131 49.0341 180.821 48.6274C181.127 55.1874 183.207 53.2466 183.053 52.021C182.9 50.7954 182.697 49.6098 182.519 48.3986C191.601 46.6386 191.177 37.1186 190.581 29.8242C190.255 25.3815 189.52 20.9784 188.386 16.6706C188.173 15.8802 186.978 16.2306 187.047 16.9954Z" fill="#212941"/>
<path d="M124.257 285.838C122.317 286.31 98.1445 296.157 99.8389 297.446C101.759 298.912 138.265 298.162 139.719 297.715C141.173 297.269 142.385 291.336 140.689 285.838C138.583 286.68 126.809 287.165 124.257 285.838ZM116.169 292.088C114.697 292.981 110.978 294.773 110.237 295.061C108.957 295.555 108.221 294.909 109.255 293.926C111.032 292.609 113.003 291.576 115.097 290.864C116.889 290.24 117.54 291.258 116.169 292.088Z" fill="#212941"/>
<path d="M196.972 286.985C196.602 287.955 195.161 296.056 196.602 297.269C198.044 298.482 237.562 298.216 238.178 297.269C239.759 294.853 215.343 285.901 214.246 285.787C212.063 288 199.37 288.491 196.972 286.985ZM225.038 291.786C227.895 292.832 227.585 294.355 225.038 293.738C223.279 293.304 221.57 292.693 219.935 291.914C219.295 291.683 217.695 289.158 225.038 291.837V291.786Z" fill="#212941"/>
</svg>
