<svg width="292" height="305" viewBox="0 0 292 305" fill="none" xmlns="http://www.w3.org/2000/svg">
<path d="M222.32 242.965C220.985 242.665 219.671 242.275 218.389 241.795C218.484 248.166 218.436 251.062 218.303 255.526C219.581 255.427 220.865 255.427 222.143 255.526C222.292 250.637 222.368 247.573 222.32 242.965Z" fill="#3A5AB7"/>
<path d="M51.9191 21.7886C51.8606 21.7001 51.7729 21.635 51.6714 21.6045C51.5698 21.5741 51.4608 21.5802 51.3633 21.6219C51.2658 21.6636 51.186 21.7382 51.1379 21.8327C51.0897 21.9272 51.0763 22.0356 51.0999 22.139C51.3433 23.06 51.6431 23.9651 51.9975 24.8494C52.2887 25.7454 52.5591 26.6814 52.7767 27.5966C52.8919 28.0766 53.5959 30.2302 53.0295 30.4766C52.8551 30.555 51.8807 30.0286 51.6855 29.9502C51.2375 29.7742 50.7879 29.603 50.3399 29.4254C49.5191 29.1054 49.1111 30.4782 49.9687 30.7502C52.8951 31.675 53.0087 31.827 53.5175 31.7246C54.4535 31.5374 54.5351 30.4958 54.4135 29.7358C54.0104 26.9708 53.1684 24.2879 51.9191 21.7886Z" fill="#212941"/>
<path d="M48.6864 26.2128C48.6253 25.9982 48.5027 25.8063 48.3338 25.6606C48.1649 25.5149 47.957 25.4219 47.7358 25.3929C47.5147 25.364 47.2898 25.4005 47.0891 25.4978C46.8884 25.5952 46.7206 25.7492 46.6064 25.9408C46.4563 26.2072 46.4145 26.5212 46.4896 26.8176C46.5599 27.2376 46.7891 27.6146 47.1296 27.8704C47.3836 28.0174 47.6852 28.0589 47.9694 27.9859C48.2537 27.9129 48.4979 27.7312 48.6496 27.48C48.7431 27.2828 48.7947 27.0684 48.801 26.8502C48.8074 26.6321 48.7684 26.415 48.6864 26.2128Z" fill="#212941"/>
<path d="M55.7222 24.6735C55.4308 24.7546 55.1832 24.9476 55.0334 25.2104C54.8836 25.4732 54.8436 25.7846 54.9222 26.0767C54.9925 26.4968 55.2217 26.8737 55.5622 27.1295C55.8162 27.2765 56.1178 27.318 56.402 27.245C56.6863 27.172 56.9305 26.9903 57.0822 26.7391C57.1787 26.5455 57.229 26.3322 57.229 26.1159C57.229 25.8996 57.1787 25.6863 57.0822 25.4927C57.0035 25.208 56.8186 24.9643 56.5656 24.8119C56.3125 24.6595 56.0107 24.61 55.7222 24.6735Z" fill="#212941"/>
<path d="M48.7838 55.3934C46.9028 56.6042 45.1056 57.9405 43.4046 59.3934C41.899 60.6558 40.4606 61.9854 39.0574 63.3694C34.2046 56.0622 33.5182 51.8094 32.4894 44.5214C32.4334 44.131 31.803 43.9358 31.7086 44.4238C30.467 50.9198 34.5742 59.5278 38.259 65.027C38.3211 65.1307 38.406 65.219 38.5072 65.2853C38.6085 65.3515 38.7234 65.3939 38.8434 65.4093C38.9633 65.4247 39.0852 65.4127 39.1999 65.3742C39.3146 65.3357 39.419 65.2717 39.5054 65.187C42.6406 62.0286 46.0307 59.134 49.6414 56.5326C50.2702 55.9038 49.4894 55.067 48.7838 55.3934Z" fill="#212941"/>
<path d="M50.7912 56.4257C53.492 57.4657 56.612 57.8993 61.2392 60.8113C61.353 60.8761 61.4817 60.9103 61.6127 60.9105C61.7437 60.9107 61.8725 60.8769 61.9865 60.8124C62.1005 60.7479 62.1958 60.6549 62.2631 60.5425C62.3304 60.4302 62.3673 60.3022 62.3704 60.1713C62.3704 52.9105 60.1816 46.4369 59.2312 45.1313C59.1451 44.9926 59.0124 44.8893 58.8569 44.8398C58.7013 44.7904 58.5333 44.7981 58.3829 44.8616C58.2326 44.9251 58.1099 45.0402 58.0369 45.1861C57.9639 45.3321 57.9454 45.4993 57.9848 45.6577C58.284 47.4017 60.5448 50.9201 60.8488 58.8353C57.8588 56.9346 54.4422 55.8089 50.908 55.5601C50.8079 55.5707 50.7143 55.6146 50.6421 55.6848C50.5699 55.755 50.5234 55.8473 50.5099 55.9471C50.4964 56.0468 50.5168 56.1482 50.5678 56.235C50.6188 56.3218 50.6975 56.3889 50.7912 56.4257Z" fill="#212941"/>
<path d="M61.5714 44.5551C68.7794 47.4623 77.7314 48.2079 83.7154 58.0239C88.6978 66.2079 93.445 87.7167 98.4706 101.96C98.5341 102.148 98.6672 102.305 98.8426 102.399C99.018 102.492 99.2224 102.515 99.4141 102.463C99.6058 102.41 99.7702 102.287 99.8738 102.117C99.9774 101.947 100.012 101.745 99.9714 101.55C98.8258 96.8927 90.7106 70.1263 90.6146 69.8175C87.821 60.7359 84.6258 52.8959 76.2882 48.2591C71.7925 45.7606 66.8279 44.2205 61.7074 43.7359C61.1826 43.6911 61.1826 44.3983 61.5714 44.5551Z" fill="#212941"/>
<path d="M83.3436 112.368C83.462 112.953 84.3036 112.877 84.4556 112.368C85.6076 108.582 85.2124 87.7758 83.3436 77.1262C83.2444 76.5614 82.3276 76.6974 82.35 77.2638C82.67 85.659 83.494 92.6158 83.31 103.753C83.017 106.618 83.0283 109.506 83.3436 112.368Z" fill="#212941"/>
<path d="M66.3857 97.1457C68.3617 105.272 68.1665 106.192 69.0177 108.451C69.0594 108.584 69.1469 108.698 69.2646 108.773C69.3823 108.847 69.5226 108.877 69.6606 108.858C69.7986 108.839 69.9254 108.772 70.0183 108.668C70.1112 108.564 70.1643 108.431 70.1681 108.291C70.2337 104.984 66.9553 92.5953 65.7041 88.4097C62.9201 79.1009 58.3441 66.7473 53.5217 58.6497C53.2657 58.2225 52.4657 58.5153 52.6641 59.0001C56.6401 68.7825 61.9249 78.7905 66.3857 97.1457Z" fill="#212941"/>
<path d="M51.5703 82.3503C53.6503 96.7775 52.6631 99.8607 53.5591 103.422C53.5935 103.535 53.6633 103.634 53.758 103.704C53.8528 103.774 53.9676 103.812 54.0855 103.812C54.2034 103.812 54.3182 103.774 54.4129 103.704C54.5077 103.634 54.5774 103.535 54.6119 103.422C54.8174 102.574 54.9089 101.701 54.8839 100.829C54.5047 88.5775 52.2727 72.2495 48.4711 61.2799C48.4532 61.2168 48.4231 61.158 48.3825 61.1066C48.3419 61.0551 48.2915 61.0122 48.2343 60.9803C48.1771 60.9484 48.1142 60.928 48.0491 60.9204C47.9841 60.9128 47.9181 60.918 47.8551 60.9359C47.792 60.9537 47.7332 60.9838 47.6818 61.0245C47.6303 61.0651 47.5874 61.1154 47.5555 61.1726C47.5236 61.2298 47.5032 61.2928 47.4956 61.3578C47.488 61.4229 47.4932 61.4889 47.5111 61.5519C48.9991 68.4559 50.5575 75.3343 51.5703 82.3503Z" fill="#212941"/>
<path d="M63.6774 257.138C63.7686 258.951 64.6678 279.639 64.535 281.541C64.5411 281.834 64.66 282.113 64.8669 282.32C65.0738 282.527 65.3526 282.646 65.6454 282.653C69.7811 283.016 73.9438 282.938 78.063 282.419C78.5894 282.342 78.8246 281.795 78.8806 281.347C84.6515 233.556 86.4177 185.366 84.1606 137.28C87.8595 137.635 91.5803 137.707 95.2902 137.494C95.4013 137.493 95.51 137.461 95.6051 137.404C95.7003 137.346 95.7786 137.265 95.832 137.167C95.8855 137.07 95.9122 136.96 95.9095 136.849C95.9068 136.738 95.8747 136.629 95.8166 136.534C96.4124 135.171 96.9394 133.779 97.3958 132.363C99.2918 126.893 99.6902 127.014 97.415 124.643C82.7638 109.373 54.095 109.494 44.8054 101.994C39.303 97.5521 38.1414 89.8945 36.4038 83.4961C36.3517 83.3272 36.2414 83.1823 36.0926 83.087C35.9438 82.9917 35.766 82.9523 35.5908 82.9757C35.4156 82.9991 35.2544 83.0838 35.1358 83.2148C35.0172 83.3458 34.9489 83.5147 34.943 83.6913C35.1045 86.7723 35.7586 89.8076 36.8806 92.6817C40.359 102.566 44.2406 105.414 54.9606 108.587C69.2006 112.8 85.4966 114.851 96.7206 126.08C96.9558 126.314 97.4422 126.664 97.559 126.976C97.719 127.386 97.3654 128.029 97.239 128.4C96.3447 130.951 95.5836 133.546 94.959 136.176C90.7638 135.72 86.3366 135.885 77.2998 134.896C64.0982 133.445 45.239 129.792 33.247 123.981C18.1718 116.677 13.503 106.85 10.831 90.6497C8.89977 78.9441 8.56538 65.2097 16.271 56.1297C20.5654 51.0673 26.7526 48.4945 30.4022 46.0705C30.8118 45.7985 30.5622 45.0433 30.0518 45.2321C27.5968 46.1713 25.2247 47.3145 22.9606 48.6497C19.3003 50.5697 16.1298 53.3045 13.6933 56.6433C11.2569 59.9821 9.61966 63.8358 8.90778 67.9073C6.52378 78.7361 8.99897 93.8625 12.007 103.013C14.1309 110.185 18.5728 116.45 24.6374 120.829C24.8035 122.109 25.1821 123.353 25.7574 124.509C26.1638 125.504 26.5574 127.056 27.6662 127.453C27.72 127.469 27.7764 127.474 27.8322 127.468C27.888 127.462 27.942 127.445 27.9911 127.417C28.0401 127.39 28.0832 127.353 28.1178 127.309C28.1524 127.265 28.1778 127.214 28.1926 127.16C28.4086 126.085 27.4726 124.92 27.063 123.982C26.7894 123.36 26.583 122.702 26.3414 122.034C30.7298 124.857 35.4525 127.124 40.4006 128.781C37.9478 128.637 29.9238 129.36 28.919 129.25C29.0166 129.269 28.647 129.112 28.5302 129.035C28.3914 128.956 28.2363 128.908 28.0766 128.897C27.9169 128.886 27.7568 128.912 27.6084 128.972C27.4599 129.032 27.3271 129.125 27.2199 129.243C27.1126 129.362 27.0338 129.504 26.9894 129.658C18.6136 175.211 17.5151 221.805 23.735 267.702C23.9446 269.24 25.655 281.463 26.2678 283.88C26.3357 284.108 26.4743 284.308 26.6635 284.452C26.8528 284.596 27.0829 284.676 27.3206 284.68C31.511 284.805 35.7222 284.829 39.9126 284.933C40.2011 284.93 40.4769 284.814 40.6811 284.61C40.8853 284.406 41.0016 284.13 41.0054 283.842C43.2614 248.883 48.3014 207.682 50.8294 192.734C51.551 188.466 52.6742 179.714 53.4598 175.445C53.5654 174.874 55.6998 165.253 55.7606 165.075C57.7094 178.584 58.9942 198.054 60.3206 211.635C61.8043 226.802 62.9232 241.97 63.6774 257.138Z" fill="#212941"/>
<path d="M103.149 296.081C100.71 294.327 97.9259 293.111 94.9812 292.515C85.1636 289.579 82.6116 282.876 76.97 288.715C76.48 289.211 75.8919 289.6 75.2431 289.857C74.5943 290.113 73.8992 290.231 73.2021 290.204C72.505 290.176 71.8214 290.004 71.1949 289.697C70.5684 289.39 70.0127 288.956 69.5636 288.422C69.4093 288.276 69.2081 288.19 68.9959 288.178C68.7838 288.167 68.5745 288.232 68.4057 288.361C68.2369 288.49 68.1195 288.675 68.0746 288.882C68.0296 289.09 68.06 289.307 68.1604 289.494C69.1487 290.875 70.6315 291.822 72.3004 292.138C73.9692 292.454 75.6956 292.115 77.1204 291.19C79.2516 289.768 79.5316 286.817 84.2548 289.494C87.8844 292.017 91.9383 293.865 96.2228 294.952C98.2581 295.428 100.171 296.325 101.84 297.584C101.994 297.696 102.121 297.842 102.212 298.01C102.302 298.178 102.354 298.363 102.363 298.554C102.372 298.744 102.339 298.935 102.266 299.111C102.192 299.286 102.08 299.444 101.938 299.571C100.38 301.56 97.3572 301.715 95.0388 301.793C86.1524 302.097 81.1668 300.369 74.9412 300.916C72.0756 301.168 67.6068 301.992 65.8388 298.908C64.4276 296.448 66.6388 293.148 65.7028 289.923C65.506 289.241 64.322 289.318 64.3972 290.097C64.6804 293.06 62.89 296.065 63.8708 298.987C64.4072 300.233 65.3022 301.291 66.4419 302.027C67.5816 302.762 68.9145 303.142 70.2708 303.118C73.7524 303.345 74.65 302.347 81.3604 302.958C86.77 303.456 96.482 304.832 101.184 302.608C104.029 301.264 105.68 298.275 103.149 296.081Z" fill="#212941"/>
<path d="M40.344 290.119C40.4176 289.357 39.2496 289.24 39.0384 289.943C38.2288 292.629 39.8784 295.283 39.272 297.954C38.592 300.955 34.9248 301.354 32.4112 301.189C30.7152 301.079 29.0384 300.839 27.344 300.839C21.464 300.839 8.84478 303.264 4.22558 300.722C3.19358 300.154 1.63358 298.831 2.78558 297.682C5.14238 295.327 10.3488 294.744 14.6368 292.829C18.4768 291.117 20.2896 289.264 22.4544 288.619C24.736 287.938 25.408 289.189 26.6064 290.354C27.2854 291.027 28.1029 291.545 29.0021 291.871C29.9012 292.198 30.8606 292.324 31.8136 292.243C32.7666 292.161 33.6905 291.873 34.5211 291.399C35.3517 290.925 36.0693 290.275 36.624 289.496C36.7271 289.309 36.7597 289.091 36.7156 288.881C36.6716 288.672 36.5539 288.486 36.384 288.356C36.214 288.226 36.0032 288.162 35.7897 288.174C35.5763 288.187 35.3744 288.275 35.2208 288.424C34.4123 289.36 33.2936 289.974 32.0695 290.153C30.8455 290.332 29.5979 290.064 28.5552 289.399C26.8864 288.167 25.5664 285.055 20.9136 287.059C18.2416 288.21 16.7296 289.991 12.1232 291.719C9.03998 292.874 1.35998 294.312 0.399981 297.837C0.300847 298.517 0.384004 299.21 0.640948 299.847C0.897891 300.484 1.3194 301.042 1.86238 301.463C6.55838 305.744 19.8512 303.007 26.208 302.807C28.031 302.791 29.8533 302.882 31.6656 303.08C34.824 303.351 38.8032 303.043 40.496 299.88C42.16 296.786 40.032 293.352 40.344 290.119Z" fill="#212941"/>
<path d="M113.908 153.751C115.031 153.916 116.174 153.628 117.085 152.951C117.171 152.865 117.232 152.758 117.263 152.642C117.294 152.525 117.293 152.402 117.262 152.285C117.23 152.169 117.168 152.062 117.083 151.977C116.997 151.892 116.89 151.831 116.773 151.8C115.021 151.394 113.799 152.663 110.146 151.079C102.036 147.559 102.353 137.355 97.7302 136.714C97.1654 136.634 96.6774 137.413 97.3014 137.727C100.601 139.384 99.6646 143.703 104.572 149.208C105.727 150.572 107.154 151.68 108.762 152.462C110.369 153.244 112.122 153.683 113.908 153.751Z" fill="#212941"/>
<path d="M110.926 147.182C112.619 148.657 114.541 149.846 116.617 150.702C118.003 151.264 121.294 152.182 122.217 150.429C122.265 150.342 122.293 150.245 122.299 150.146C122.305 150.047 122.289 149.948 122.252 149.856C122.215 149.764 122.157 149.681 122.084 149.614C122.011 149.547 121.923 149.498 121.828 149.469C121.073 149.149 120.171 149.544 119.372 149.469C117.204 149.267 114.121 147.571 111.516 146.429C111.046 146.24 110.494 146.814 110.926 147.182Z" fill="#212941"/>
<path d="M124.61 146.83C125.078 146.58 124.882 145.72 124.317 145.777C122.88 145.993 121.417 145.947 119.997 145.641C117.637 145.048 117.338 143.963 116.235 144.062C115.16 144.16 115.275 146.281 119.549 147.278C121.236 147.732 123.029 147.574 124.61 146.83Z" fill="#212941"/>
<path d="M121.392 137.864C120.937 137.166 120.616 136.28 119.774 135.994C119.672 135.967 119.564 135.973 119.466 136.012C119.368 136.051 119.285 136.119 119.228 136.208C118.814 137.16 119.427 138.077 119.95 138.859C120.852 140.306 122.059 141.538 123.486 142.47C124.913 143.403 126.527 144.013 128.214 144.258C128.878 144.312 128.937 143.336 128.374 143.147C125.526 142.207 123.07 140.349 121.392 137.864Z" fill="#212941"/>
<path d="M101.881 127.437C106.124 129.648 109.028 129.336 113.42 128.742C119.146 127.968 120.14 131.221 121.684 133.166C122.116 133.71 122.986 133.245 122.991 132.621C122.89 131.798 122.613 131.007 122.179 130.301C121.745 129.594 121.164 128.99 120.476 128.528C116.391 125.296 112.679 127.238 108.994 127.32C106.718 127.328 104.449 127.072 102.231 126.558C101.727 126.449 101.393 127.182 101.881 127.437Z" fill="#212941"/>
<path d="M202.754 174.997C201.436 168.352 195.095 164.739 189.226 162.638C181.637 159.918 173.178 157.07 165.057 157.259C165.316 156.67 165.453 156.035 165.459 155.392C165.466 154.749 165.342 154.111 165.095 153.517C164.398 152.151 163.373 150.979 162.113 150.106C158.161 146.944 145.345 135.787 141.705 133.966C140.994 133.554 140.203 133.3 139.385 133.223C138.567 133.145 137.742 133.246 136.967 133.518C135.812 133.919 134.779 134.608 133.965 135.52C132.312 134.656 130.501 134.138 128.641 133.997C126.781 133.857 124.912 134.097 123.148 134.702C121.978 135.109 122.466 136.982 123.674 136.573C125.335 136.002 127.101 135.806 128.847 135.998C130.592 136.191 132.273 136.766 133.77 137.685C133.999 137.812 134.269 137.847 134.523 137.782C134.777 137.716 134.996 137.555 135.135 137.333C135.739 136.37 136.676 135.663 137.767 135.346C138.337 135.191 138.933 135.162 139.515 135.259C140.097 135.356 140.651 135.579 141.14 135.91C144.913 137.99 153.649 145.811 160.962 151.699C162.106 152.433 162.987 153.512 163.477 154.779C163.708 155.739 163.281 157.328 162.113 157.45C160.861 157.579 160.833 159.573 162.113 159.437C169.161 158.698 176.049 160.416 182.716 162.517C188.602 164.373 195.717 166.123 199.343 171.6C203.007 177.136 200.434 183.978 196.943 188.91C192.705 194.901 186.516 196.368 182.831 189.962C180.657 185.591 179.567 180.762 179.653 175.882C179.653 174.341 179.615 173.192 178.193 172.314C170.393 167.498 157.517 168.211 149.169 175.53C144.546 179.582 142.074 186.392 136.069 188.765C132.573 190.147 130.345 189.194 127.396 187.245C121.85 183.58 116.697 179.354 112.017 174.634C109.988 172.587 107.362 169.899 108.994 166.837C109.732 165.629 110.661 164.549 111.743 163.637C111.91 163.466 112.004 163.236 112.004 162.997C112.004 162.758 111.91 162.528 111.743 162.357C110.574 161.27 109.686 159.917 109.153 158.412C108.62 156.908 108.458 155.297 108.682 153.717C108.842 152.741 107.359 152.294 107.162 153.307C106.822 155.014 106.885 156.776 107.345 158.455C107.806 160.133 108.651 161.681 109.813 162.976C107.922 164.827 106.209 167.05 106.695 169.856C107.242 173.014 110.138 175.437 112.308 177.536C115.965 181.074 124.271 188.12 128.897 190.283C130.316 190.945 131.873 191.26 133.439 191.203C135.004 191.145 136.534 190.716 137.901 189.952C143.793 186.888 146.137 180.131 151.429 176.054C154.804 173.512 158.783 171.894 162.974 171.36C167.166 170.827 171.424 171.397 175.327 173.014C179.245 174.734 176.881 173.725 178.207 181.941C181.356 201.389 195.386 199.381 201.538 184.501C202.87 181.521 203.293 178.215 202.754 174.997Z" fill="#212941"/>
<path d="M155.017 154.374C156.109 154.969 157.304 155.353 158.537 155.505C158.733 155.501 158.922 155.433 159.076 155.312C159.229 155.191 159.34 155.024 159.39 154.835C159.441 154.646 159.429 154.446 159.356 154.264C159.283 154.083 159.153 153.93 158.985 153.829C157.651 152.829 150.976 151.824 142.749 143.589C141.019 142.102 139.67 140.225 138.811 138.112C138.761 138.036 138.691 137.976 138.609 137.939C138.526 137.902 138.435 137.888 138.346 137.9C138.256 137.913 138.172 137.95 138.102 138.008C138.033 138.066 137.981 138.143 137.953 138.229C137.605 140.529 139.341 142.627 140.76 144.232C144.713 148.615 149.58 152.077 155.017 154.374Z" fill="#212941"/>
<path d="M190.32 183.2C192.281 181.29 194.728 179.956 197.395 179.341C198.195 179.112 199.303 178.177 198.136 177.547C197.101 176.987 195.387 177.779 194.415 178.171C191.911 179.173 189.714 180.813 188.04 182.928C186.419 184.992 184.36 188.753 186.28 191.211C186.346 191.276 186.429 191.321 186.52 191.339C186.611 191.357 186.705 191.348 186.791 191.312C186.876 191.277 186.949 191.217 187.001 191.14C187.052 191.063 187.08 190.972 187.08 190.88C187.024 189.44 187.285 188.006 187.845 186.679C188.405 185.352 189.25 184.164 190.32 183.2Z" fill="#212941"/>
<path d="M114.045 155.251C114.018 155.156 113.96 155.072 113.881 155.013C113.802 154.953 113.706 154.921 113.607 154.921C113.508 154.921 113.411 154.953 113.332 155.013C113.253 155.072 113.196 155.156 113.168 155.251C113.036 155.526 112.969 155.828 112.973 156.133C112.976 156.439 113.05 156.739 113.187 157.011C113.488 157.601 113.956 158.089 114.531 158.414C115.217 158.722 115.978 158.82 116.718 158.695C117.459 158.57 118.145 158.228 118.691 157.712C123.018 154.755 126.918 151.218 130.282 147.2C131.353 146.139 132.126 144.815 132.522 143.36C133.066 140.144 129.541 139.274 127.064 139.694C126.128 139.854 126.362 141.333 127.279 141.333C128.201 141.213 129.138 141.292 130.026 141.566C132.834 142.861 127.488 147.922 125.29 150.085C123.5 151.85 121.593 153.491 119.579 154.997C118.637 155.844 117.572 156.545 116.421 157.077C115.349 157.429 114.274 156.32 114.045 155.251Z" fill="#212941"/>
<path d="M186.066 252.48C182.866 267.69 189.945 292.394 204.118 300.256C211.704 304.201 220.515 305.086 228.735 302.731C242.59 298.846 249.737 287.301 252.009 272.79C252.888 267.104 253.247 261.35 253.081 255.598C252.986 254.624 251.404 254.214 251.229 255.346C250.401 260.698 251.298 271.915 246.999 282.81C245.638 286.574 243.504 290.012 240.735 292.902C237.965 295.792 234.622 298.071 230.919 299.592C223.556 302.394 215.421 302.401 208.053 299.611C196.252 295.083 189.887 280.411 187.894 268.035C187.217 262.925 187.027 257.762 187.327 252.616C187.412 251.914 186.223 251.738 186.066 252.48Z" fill="#212941"/>
<path d="M214.702 198.758C214.622 198.251 214.175 198.192 213.823 198.387C214.294 193.218 209.183 189.498 205.812 191.078C205.647 191.173 205.514 191.315 205.43 191.486C205.346 191.657 205.315 191.849 205.34 192.037C205.365 192.226 205.446 192.403 205.572 192.545C205.698 192.688 205.863 192.79 206.047 192.838C207.464 192.792 208.861 193.183 210.047 193.958C210.577 194.42 211.002 194.988 211.294 195.627C211.587 196.265 211.74 196.959 211.743 197.661C211.727 199.128 211.158 200.535 210.15 201.602C209.141 202.668 207.768 203.314 206.303 203.411C204.949 203.467 203.616 203.061 202.522 202.261C201.428 201.461 200.638 200.314 200.281 199.006C200.054 197.989 200.084 196.931 200.366 195.928C200.648 194.924 201.175 194.006 201.898 193.256C202.358 192.875 202.758 192.429 203.087 191.931C203.13 191.852 203.152 191.763 203.151 191.673C203.15 191.583 203.125 191.494 203.081 191.416C203.036 191.338 202.972 191.273 202.894 191.226C202.817 191.18 202.729 191.154 202.639 191.15C201.1 191.078 198.406 193.85 198.214 197.427C198.15 199.266 198.738 201.069 199.873 202.517C201.008 203.965 202.618 204.966 204.419 205.343C206.22 205.721 208.096 205.451 209.717 204.58C211.339 203.71 212.6 202.295 213.281 200.586C213.309 201.427 213.162 202.264 212.85 203.046C212.538 203.827 212.067 204.536 211.468 205.126C209.744 206.599 207.513 207.341 205.25 207.194C200.046 206.771 198.201 201.434 197.804 196.998C197.767 196.589 197.107 196.414 197.025 196.901C196.113 202.328 199.425 208.301 205.25 208.773C207.93 208.936 210.565 208.032 212.58 206.258C213.532 205.285 214.226 204.088 214.596 202.778C214.967 201.468 215.003 200.086 214.702 198.758Z" fill="#FF9500"/>
<path d="M188.134 252.245C191.545 254.362 195.619 254.762 199.537 255.187C213.531 256.709 229.777 256.475 243.628 253.317C245.79 252.824 248.478 252.517 250.294 251.173C250.428 251.089 250.532 250.963 250.589 250.816C250.647 250.669 250.656 250.506 250.614 250.354C250.573 250.201 250.483 250.065 250.359 249.967C250.235 249.869 250.083 249.813 249.924 249.808C247.336 249.662 246.348 250.754 238.171 252.147C221.728 254.814 204.937 254.464 188.62 251.114C188.477 251.08 188.327 251.099 188.197 251.165C188.066 251.231 187.962 251.341 187.904 251.476C187.846 251.611 187.838 251.761 187.88 251.902C187.922 252.043 188.012 252.164 188.134 252.245Z" fill="#212941"/>
<path d="M242.799 172.565C242.774 172.225 242.64 171.903 242.417 171.646C242.195 171.388 241.896 171.209 241.564 171.134C241.232 171.059 240.884 171.093 240.573 171.231C240.262 171.368 240.003 171.602 239.834 171.897C239.202 173.353 238.777 174.89 238.572 176.464C233.706 198.806 224.802 211.729 222.545 216.691C222.467 201.53 221.244 186.397 218.889 171.421C219.008 171.299 219.105 171.157 219.175 171.001C223.097 161.757 223.617 148.405 228.509 138.733C229.37 137.027 230.538 134.825 229.025 133.958C227.217 132.934 225.761 136.062 224.922 137.949C221.882 144.795 220.762 150.654 217.78 164.726C215.495 151.966 210.037 129.065 205.593 119.659C205.493 119.445 205.338 119.262 205.143 119.129C204.948 118.996 204.721 118.918 204.485 118.904C205.191 117.601 205.669 119.533 195.399 94.2991C195.301 94.0655 194.268 94.0847 194.074 94.2415C178.698 106.816 158.778 99.6815 146.065 118.976C145.905 119.211 146.122 119.464 146.357 119.502C146.7 119.539 145.412 118.083 162.73 142.016C162.762 142.067 162.807 142.109 162.86 142.139C162.913 142.168 162.972 142.183 163.033 142.183C163.093 142.183 163.153 142.168 163.206 142.139C163.258 142.109 163.303 142.067 163.335 142.016C170.148 127.097 193.199 131.68 203.028 120.864C205.628 132.189 218.727 164.373 218.727 220.953C219.969 220.616 219.818 220.709 220.436 220.285C221.061 219.798 221.783 219.451 222.553 219.267C222.553 219.267 222.553 218.147 222.553 217.864C222.663 218.074 222.825 218.252 223.023 218.382C223.222 218.511 223.45 218.587 223.686 218.603C223.923 218.62 224.159 218.575 224.373 218.473C224.588 218.372 224.772 218.217 224.91 218.024C233.503 206.504 238.841 192.176 242.049 178.219C242.597 176.386 242.851 174.477 242.799 172.565ZM199.868 114.337C199.171 114.635 198.561 115.103 198.095 115.7C197.628 116.296 197.32 117.001 197.199 117.749C196.994 119.107 197.962 120.229 196.322 121.491C188.217 127.661 175.962 125.011 168.292 131.803C168.183 131.91 168.043 131.979 167.892 132C167.741 132.021 167.587 131.993 167.453 131.92C166.973 131.645 166.435 131.485 165.881 131.454C165.328 131.423 164.776 131.521 164.267 131.74C163.758 131.959 163.308 132.294 162.951 132.718C162.594 133.141 162.34 133.642 162.21 134.181C162.174 134.302 162.103 134.41 162.007 134.492C161.91 134.573 161.793 134.626 161.667 134.643C161.542 134.66 161.415 134.64 161.3 134.587C161.186 134.533 161.089 134.448 161.021 134.341C157.844 129.974 154.764 125.55 151.919 120.969C151.846 120.847 151.816 120.705 151.834 120.563C151.851 120.422 151.915 120.291 152.015 120.19C152.807 119.576 153.376 118.719 153.636 117.751C153.896 116.784 153.832 115.757 153.455 114.829C153.42 114.736 153.413 114.634 153.436 114.537C153.414 114.418 153.426 114.295 153.471 114.181C153.516 114.068 153.591 113.97 153.689 113.897C163.081 106.158 172.647 108.72 188.444 99.9775C188.568 99.9059 188.709 99.8682 188.853 99.8682C188.996 99.8682 189.137 99.9059 189.262 99.9775C189.896 100.411 190.634 100.67 191.4 100.728C192.167 100.787 192.935 100.642 193.628 100.31C193.807 100.209 194.019 100.181 194.218 100.231C194.418 100.282 194.591 100.408 194.7 100.582C196.572 104.813 198.463 109.022 200.333 113.233C200.382 113.336 200.409 113.447 200.412 113.56C200.415 113.673 200.393 113.786 200.349 113.89C200.305 113.995 200.24 114.089 200.157 114.166C200.074 114.243 199.975 114.301 199.868 114.337Z" fill="#3A5AB7"/>
<path d="M188.836 101.589C176.716 108.25 169.316 108.222 162.677 110.634C159.775 111.653 157.06 113.141 154.641 115.04C154.964 116.018 155.01 117.066 154.772 118.068C154.535 119.07 154.023 119.986 153.295 120.714C155.927 124.728 158.597 128.725 161.404 132.642C161.997 131.569 162.966 130.752 164.125 130.35C165.283 129.947 166.549 129.986 167.681 130.459C175.415 123.99 186.665 125.979 194.503 120.928C195.223 120.459 195.828 120.166 195.711 119.213C195.546 118.031 195.742 116.827 196.275 115.759C196.807 114.691 197.65 113.809 198.693 113.229C196.997 109.466 195.321 105.709 193.625 101.942C192.848 102.233 192.018 102.352 191.191 102.291C190.365 102.23 189.561 101.99 188.836 101.589ZM182.716 118.294C182.018 119.611 180.916 120.668 179.572 121.311C178.228 121.953 176.712 122.146 175.25 121.861C174.273 121.624 173.374 121.136 172.643 120.446C171.911 119.756 171.372 118.887 171.079 117.925C171.062 117.868 171.035 117.814 171.001 117.765C170.543 116.482 170.525 115.083 170.948 113.789C171.372 112.494 172.213 111.376 173.34 110.611C174.431 109.855 175.732 109.464 177.059 109.493C178.386 109.521 179.67 109.969 180.727 110.771C181.845 111.628 182.647 112.831 183.007 114.193C183.367 115.555 183.265 116.997 182.716 118.294Z" fill="#3A5AB7"/>
<path d="M176.692 114.474C176.688 114.44 176.694 114.405 176.712 114.376C176.64 114.376 176.692 114.4 176.692 114.474Z" fill="#3A5AB7"/>
<path d="M180.4 119.269C182.275 117.706 181.776 114.778 178.704 114.845C178.392 114.064 178.064 113.285 177.71 112.525C178.257 112.541 178.797 112.647 179.31 112.837C179.414 112.864 179.524 112.857 179.623 112.815C179.722 112.773 179.805 112.7 179.858 112.607C179.912 112.513 179.933 112.405 179.918 112.298C179.903 112.192 179.854 112.093 179.777 112.018C179.012 111.41 178.043 111.117 177.068 111.198C176.854 110.77 176.659 110.362 176.428 109.952C176.292 109.678 175.841 109.875 175.94 110.166C176.075 110.557 176.214 110.946 176.35 111.317C174.88 111.709 176.051 111.974 174.713 110.419C174.676 110.382 174.628 110.357 174.577 110.347C174.525 110.337 174.471 110.343 174.423 110.364C174.374 110.385 174.333 110.42 174.305 110.465C174.277 110.51 174.263 110.562 174.265 110.614C174.324 111.167 174.469 111.707 174.694 112.214C173.641 113.15 172.753 115.03 173.992 116.133C174.743 116.595 175.638 116.766 176.507 116.613C176.798 117.373 177.091 118.154 177.403 118.914C176.479 119.016 175.544 118.93 174.654 118.659C174.468 118.621 174.274 118.655 174.112 118.755C173.95 118.855 173.832 119.013 173.783 119.196C173.733 119.38 173.755 119.576 173.845 119.743C173.935 119.911 174.085 120.038 174.265 120.099C175.491 120.465 176.783 120.551 178.046 120.352C178.163 120.566 178.28 120.8 178.396 121.014C178.592 121.464 179.432 121.288 179.275 120.704C179.217 120.488 179.158 120.294 179.08 120.08C179.273 120.007 179.462 119.922 179.644 119.826C179.704 119.963 179.742 120.099 179.804 120.235C179.998 120.781 180.876 120.547 180.662 120.002C180.56 119.717 180.473 119.502 180.4 119.269ZM179.816 117.709C179.64 117.261 179.484 116.813 179.308 116.384C179.459 116.391 179.604 116.441 179.727 116.53C179.849 116.618 179.942 116.74 179.996 116.881C180.049 117.022 180.06 117.176 180.027 117.323C179.995 117.47 179.919 117.604 179.811 117.709H179.816ZM176.833 112.622C177.126 113.382 177.417 114.162 177.729 114.922C177.457 114.962 177.203 115 176.929 115.019C176.656 114.357 176.403 113.635 176.11 112.915C176.334 112.784 176.576 112.685 176.828 112.622H176.833ZM175.702 115.117C174.689 115.107 174.864 114.338 175.313 113.714C175.506 114.181 175.701 114.649 175.897 115.117C175.814 115.117 175.76 115.118 175.697 115.117H175.702ZM178.51 118.606C178.217 117.885 177.886 117.184 177.55 116.482C178.372 116.4 178.284 116.403 178.291 116.403C178.544 117.043 178.796 117.67 179.051 118.314C178.881 118.433 178.698 118.531 178.505 118.606H178.51Z" fill="#3A5AB7"/>
<path d="M197.158 225.638C197.588 225.36 197.91 224.942 198.07 224.454C198.229 223.967 198.217 223.44 198.034 222.961C197.852 222.482 197.511 222.079 197.068 221.822C196.624 221.564 196.106 221.466 195.599 221.544C195.307 220.822 194.995 220.104 194.683 219.4C195.189 219.415 195.69 219.514 196.164 219.693C196.572 219.833 196.964 219.222 196.612 218.933C195.906 218.375 195.015 218.103 194.118 218.173C193.923 217.782 193.735 217.389 193.532 217.022C193.5 216.973 193.452 216.938 193.396 216.921C193.34 216.904 193.28 216.908 193.226 216.931C193.173 216.955 193.129 216.996 193.103 217.048C193.077 217.101 193.07 217.161 193.084 217.217C193.206 217.566 193.339 217.937 193.455 218.289C192.073 218.585 193.22 218.966 191.934 217.451C191.898 217.417 191.854 217.395 191.806 217.386C191.758 217.377 191.709 217.382 191.663 217.4C191.618 217.419 191.579 217.45 191.551 217.49C191.523 217.529 191.507 217.577 191.505 217.625C191.557 218.13 191.689 218.624 191.895 219.088C190.921 219.945 190.107 221.696 191.255 222.713C191.861 223.134 192.608 223.303 193.335 223.182C193.723 223.182 193.364 222.784 194.407 225.286C193.556 225.377 192.694 225.297 191.873 225.053C191.698 225.007 191.513 225.031 191.356 225.121C191.199 225.211 191.084 225.358 191.036 225.532C190.987 225.706 191.008 225.892 191.096 226.05C191.183 226.208 191.329 226.326 191.502 226.377C192.635 226.706 193.825 226.786 194.991 226.613C195.089 226.827 195.206 227.021 195.303 227.216C195.479 227.625 196.263 227.469 196.103 226.925C196.047 226.729 195.987 226.534 195.929 226.358C196.111 226.297 196.288 226.219 196.455 226.125C196.494 226.241 196.551 226.379 196.591 226.496C196.761 226.984 197.551 226.769 197.391 226.281C197.311 226.048 197.236 225.832 197.158 225.638ZM196.612 224.198L196.145 222.969C196.285 222.975 196.419 223.022 196.533 223.103C196.646 223.185 196.733 223.298 196.783 223.428C196.832 223.559 196.843 223.701 196.812 223.837C196.782 223.973 196.713 224.098 196.612 224.195V224.198ZM193.884 219.501C194.156 220.203 194.43 220.904 194.702 221.625C194.449 221.664 194.222 221.683 193.961 221.723C193.708 221.118 193.481 220.443 193.22 219.793C193.426 219.662 193.649 219.563 193.884 219.497V219.501ZM192.831 221.801C191.895 221.792 192.051 221.099 192.46 220.521C192.636 220.948 192.812 221.375 192.987 221.801H192.831ZM195.423 225.017C195.151 224.353 194.839 223.71 194.547 223.048C194.728 223.025 194.91 223.012 195.092 223.009C195.146 223.012 195.2 223.005 195.252 222.99C195.487 223.574 195.721 224.16 195.955 224.763C195.786 224.863 195.608 224.947 195.423 225.014V225.017Z" fill="#FF9500"/>
<path d="M223.2 233.669C223.758 233.604 224.278 233.347 224.669 232.943C225.06 232.539 225.299 232.011 225.345 231.45C225.391 230.89 225.241 230.33 224.921 229.867C224.601 229.405 224.131 229.067 223.59 228.912C223.648 228.074 223.688 227.216 223.707 226.378C224.199 226.629 224.646 226.958 225.032 227.354C225.368 227.674 226.027 227.275 225.812 226.827C225.373 225.946 224.623 225.259 223.707 224.898C223.707 224.429 223.694 223.962 223.668 223.474C223.662 223.409 223.633 223.349 223.586 223.305C223.539 223.261 223.478 223.235 223.414 223.233C223.349 223.23 223.286 223.252 223.236 223.292C223.186 223.333 223.153 223.391 223.142 223.454C223.086 223.864 223.044 224.274 223.004 224.683C221.51 224.384 222.432 225.106 221.913 223.123C221.894 223.076 221.862 223.036 221.82 223.007C221.779 222.978 221.73 222.961 221.679 222.959C221.629 222.957 221.579 222.97 221.535 222.995C221.491 223.021 221.456 223.059 221.433 223.104C221.253 223.626 221.148 224.17 221.121 224.722C219.756 225.112 218.132 226.432 218.782 227.976C219.185 228.936 220.312 229.248 220.848 229.517C220.79 230.336 220.712 231.173 220.673 231.992C219.792 231.683 218.983 231.2 218.294 230.57C218.22 230.504 218.133 230.454 218.04 230.422C217.946 230.391 217.848 230.377 217.749 230.384C217.65 230.39 217.554 230.416 217.465 230.459C217.377 230.503 217.298 230.563 217.232 230.638C217.167 230.712 217.117 230.798 217.085 230.891C217.053 230.985 217.04 231.084 217.046 231.182C217.053 231.281 217.078 231.377 217.122 231.466C217.166 231.555 217.226 231.634 217.3 231.699C218.258 232.564 219.396 233.204 220.633 233.571C220.633 233.824 220.652 234.078 220.673 234.312C220.652 234.792 221.484 235.013 221.588 234.409C221.625 234.193 221.648 233.981 221.686 233.77C221.9 233.789 222.096 233.789 222.31 233.789C222.291 233.925 222.288 234.08 222.272 234.218C222.201 234.781 223.108 234.958 223.168 234.377C223.161 234.136 223.18 233.902 223.2 233.669ZM223.36 231.992C223.398 231.525 223.436 231.032 223.476 230.57C223.617 230.637 223.733 230.745 223.811 230.88C223.888 231.016 223.922 231.171 223.909 231.326C223.896 231.481 223.836 231.629 223.738 231.749C223.639 231.869 223.506 231.957 223.356 232L223.36 231.992ZM222.891 226.086C222.814 226.904 222.755 227.723 222.697 228.562C222.443 228.483 222.19 228.386 221.936 228.309C221.976 227.587 222.073 226.827 222.112 226.046C222.371 226.028 222.631 226.039 222.888 226.08L222.891 226.086ZM220.766 227.859C219.851 227.392 220.337 226.787 221.02 226.419C220.88 228.218 221.051 227.955 220.763 227.859H220.766ZM221.8 232.246C221.84 231.466 221.86 230.686 221.859 229.907C221.896 229.923 222.523 230.166 222.56 230.179C222.521 230.862 222.462 231.563 222.4 232.246C222.199 232.265 221.997 232.265 221.796 232.246H221.8Z" fill="#FF9500"/>
<path d="M207.314 200.531C207.665 200.381 207.953 200.113 208.128 199.774C208.304 199.435 208.356 199.045 208.275 198.672C208.194 198.298 207.986 197.965 207.687 197.728C207.387 197.491 207.014 197.366 206.632 197.374C206.496 196.808 206.36 196.254 206.203 195.698C206.57 195.771 206.924 195.896 207.256 196.069C207.546 196.208 207.882 195.813 207.666 195.562C207.217 195.069 206.596 194.769 205.931 194.723C205.834 194.411 205.735 194.12 205.639 193.806C205.579 193.613 205.253 193.69 205.287 193.904C205.331 194.176 205.385 194.449 205.447 194.723C204.487 194.819 205.104 195.12 204.432 193.944C204.411 193.915 204.381 193.893 204.347 193.881C204.313 193.868 204.277 193.866 204.242 193.874C204.206 193.882 204.174 193.9 204.15 193.927C204.125 193.953 204.108 193.985 204.101 194.021C204.092 194.395 204.132 194.769 204.218 195.133C203.418 195.659 202.618 196.827 203.341 197.706C203.834 198.307 204.832 198.235 204.999 198.29C205.115 198.835 205.232 199.382 205.368 199.928C204.739 199.895 204.122 199.736 203.555 199.459C203.431 199.405 203.291 199.402 203.165 199.451C203.038 199.501 202.937 199.598 202.883 199.722C202.828 199.846 202.826 199.987 202.875 200.113C202.924 200.239 203.022 200.341 203.146 200.395C203.938 200.769 204.804 200.962 205.68 200.96C205.739 201.12 205.778 201.272 205.856 201.448C205.935 201.779 206.528 201.739 206.48 201.331C206.405 200.707 206.32 201.011 206.831 200.786L206.888 201.077C206.967 201.467 207.571 201.389 207.493 201C207.408 200.854 207.348 200.696 207.314 200.531ZM207.12 198.582C207.187 198.629 207.242 198.691 207.278 198.763C207.315 198.836 207.333 198.916 207.331 198.998C207.329 199.079 207.307 199.158 207.267 199.229C207.226 199.299 207.169 199.359 207.099 199.402C207.042 199.09 206.963 198.762 206.906 198.442C206.96 198.485 207.042 198.525 207.12 198.582ZM205.619 195.678L205.97 197.315C205.788 197.318 205.606 197.312 205.424 197.296C205.307 196.829 205.21 196.302 205.093 195.795C205.264 195.738 205.44 195.699 205.619 195.68V195.678ZM204.586 197.237C203.904 197.12 204.098 196.634 204.469 196.243C204.767 197.509 204.776 197.237 204.586 197.237ZM206.125 199.888C205.989 199.382 205.853 198.856 205.715 198.349C205.779 198.349 205.996 198.368 206.223 198.368C206.32 198.816 206.437 199.285 206.535 199.733C206.406 199.804 206.268 199.856 206.125 199.888Z" fill="#FF9500"/>
<path d="M259.728 131.822C260.19 131.847 260.646 131.711 261.019 131.437C261.391 131.163 261.658 130.769 261.773 130.321C261.888 129.873 261.844 129.399 261.649 128.98C261.455 128.56 261.12 128.221 260.704 128.02C260.864 127.339 261.016 126.656 261.152 125.974C261.511 126.25 261.826 126.579 262.088 126.948C262.146 127.016 262.225 127.062 262.313 127.081C262.4 127.1 262.491 127.09 262.572 127.053C262.653 127.015 262.72 126.953 262.763 126.874C262.805 126.796 262.821 126.706 262.808 126.617C262.587 125.842 262.078 125.179 261.386 124.766C261.445 124.376 261.502 124.004 261.562 123.616C261.565 123.563 261.55 123.51 261.519 123.467C261.487 123.424 261.441 123.394 261.389 123.383C261.337 123.371 261.283 123.378 261.236 123.403C261.189 123.428 261.152 123.469 261.133 123.518C261.029 123.848 260.938 124.158 260.859 124.492C260.634 124.401 260.399 124.335 260.158 124.297C260.22 123.898 260.233 123.492 260.197 123.089C260.178 122.913 259.885 122.835 259.806 122.992C259.585 123.387 259.428 123.815 259.339 124.259C258.189 124.395 256.666 125.233 256.981 126.579C257.154 127.321 257.851 127.724 258.442 128.118C258.282 128.78 258.11 129.443 257.962 130.107C257.295 129.728 256.706 129.225 256.227 128.625C256.124 128.498 255.974 128.417 255.811 128.4C255.648 128.383 255.485 128.432 255.358 128.535C255.23 128.638 255.149 128.788 255.132 128.951C255.115 129.114 255.164 129.277 255.267 129.404C255.921 130.236 256.753 130.909 257.702 131.374C257.664 131.568 257.645 131.782 257.626 131.977C257.528 132.368 258.198 132.662 258.366 132.192C258.427 132.017 258.483 131.86 258.541 131.684C258.707 131.729 258.877 131.761 259.048 131.782C259.01 131.899 258.99 132.017 258.95 132.134C258.834 132.582 259.515 132.854 259.653 132.387C259.648 132.196 259.673 132.005 259.728 131.822ZM260.56 129.6C260.607 129.686 260.632 129.783 260.632 129.881C260.633 129.98 260.609 130.077 260.562 130.164C260.516 130.251 260.449 130.325 260.367 130.379C260.285 130.434 260.191 130.467 260.093 130.476C260.19 130.107 260.288 129.716 260.386 129.326C260.461 129.405 260.52 129.498 260.56 129.6ZM260.522 125.624C260.346 126.286 260.19 126.929 260.014 127.592C259.819 127.494 259.626 127.377 259.43 127.272C259.566 126.707 259.742 126.083 259.878 125.459C260.1 125.491 260.318 125.546 260.528 125.624H260.522ZM258.962 125.624C258.864 126.033 258.768 126.441 258.69 126.851C257.933 126.342 258.173 125.905 258.968 125.624H258.962ZM258.787 130.457C258.923 129.833 259.04 129.19 259.157 128.566C259.429 128.726 259.562 128.817 259.683 128.886C259.547 129.432 259.411 129.998 259.274 130.544C259.113 130.536 258.953 130.507 258.8 130.457H258.787Z" fill="#3A5AB7"/>
<path d="M265.575 195.23C265.95 195.623 266.448 195.875 266.987 195.942C267.526 196.009 268.071 195.888 268.53 195.598C268.989 195.309 269.334 194.87 269.507 194.355C269.679 193.84 269.667 193.282 269.475 192.774C270.156 192.325 270.819 191.857 271.483 191.39C271.568 191.913 271.568 192.445 271.483 192.968C271.42 193.417 272.122 193.686 272.34 193.261C272.76 192.418 272.857 191.45 272.612 190.541C272.962 190.267 273.337 189.979 273.684 189.702C273.902 189.529 273.644 189.134 273.391 189.273C273.039 189.465 272.71 189.662 272.378 189.877C271.755 188.525 271.663 189.763 272.924 188.142C272.951 188.099 272.965 188.05 272.963 187.999C272.962 187.948 272.946 187.899 272.917 187.858C272.888 187.816 272.847 187.784 272.8 187.766C272.753 187.747 272.702 187.743 272.652 187.753C272.145 187.915 271.665 188.151 271.228 188.454C270.137 187.635 268.177 187.142 267.369 188.533C267.054 189.329 267.061 190.217 267.388 191.008C266.726 191.437 266.044 191.846 265.38 192.288C265.116 191.431 265.023 190.53 265.108 189.637C265.109 189.453 265.039 189.276 264.914 189.142C264.789 189.008 264.617 188.926 264.434 188.913C264.251 188.901 264.07 188.959 263.927 189.075C263.785 189.191 263.692 189.357 263.668 189.539C263.558 190.775 263.725 192.02 264.156 193.184C263.961 193.344 263.785 193.477 263.611 193.633C263.22 193.905 263.55 194.662 264.078 194.393C264.273 194.294 264.449 194.198 264.623 194.101C264.723 194.276 264.841 194.439 264.975 194.589C264.862 194.666 264.744 194.738 264.623 194.803C264.156 195.094 264.539 195.862 265.014 195.582C265.183 195.478 265.38 195.36 265.575 195.23ZM266.959 194.392C267.35 194.158 267.74 193.904 268.129 193.651C268.129 194.275 267.668 194.777 266.959 194.4V194.392ZM271.209 190.609C270.527 191.038 269.863 191.448 269.201 191.889C269.123 191.637 269.027 191.409 268.948 191.149C269.532 190.76 270.156 190.389 270.78 189.981C270.965 190.159 271.111 190.373 271.209 190.609ZM268.636 189.987C268.46 189.011 269.201 189.027 269.903 189.347L268.675 190.165C268.655 190.104 268.655 190.045 268.636 189.987ZM265.849 193.339C266.473 192.929 267.076 192.481 267.681 192.033C267.691 192.064 267.876 192.702 267.876 192.734C267.311 193.105 266.764 193.456 266.199 193.806C266.083 193.632 265.947 193.475 265.849 193.339Z" fill="#3A5AB7"/>
<path d="M276.707 126.325C267.667 126.445 258.44 115.125 248.755 112.525C247.292 112.133 245.753 112.018 244.291 111.648C243.739 112.213 243.06 112.637 242.311 112.885C241.561 113.132 240.763 113.196 239.984 113.07C239.688 114.898 239.55 114.582 236.201 124.824C237.075 125.147 237.811 125.761 238.285 126.564C238.758 127.366 238.94 128.308 238.8 129.229C240.005 129.355 241.186 129.651 242.308 130.107C251.297 133.147 257.768 138.712 274.803 141.568C275.043 140.698 275.55 139.925 276.252 139.358C276.955 138.791 277.818 138.46 278.72 138.41C279.049 135.436 279.656 132.499 280.532 129.638C279.655 129.482 278.837 129.091 278.164 128.508C277.49 127.925 276.987 127.17 276.707 126.325ZM260.275 133.869C254.528 134.715 251.553 129.918 252.984 125.779C255.324 119.011 264.995 120.899 265.464 127.539C265.536 129.049 265.046 130.533 264.087 131.702C263.129 132.872 261.77 133.644 260.275 133.869Z" fill="#3A5AB7"/>
<path d="M285.791 123.557C285.762 123.5 285.717 123.453 285.661 123.422C285.606 123.391 285.542 123.377 285.479 123.382C266.172 124.433 262.487 109.019 244.564 107.241C242.219 107.005 239.852 107.137 237.548 107.632C237.133 107.654 236.729 107.77 236.365 107.969C236 108.168 235.685 108.446 235.442 108.782C234.893 110.011 234.464 111.291 234.162 112.603C232.149 118.955 230.148 125.336 228.471 131.803C228.41 132.035 228.705 132.675 229.036 132.661C243.666 132.032 253.535 144.28 272.62 146.149C275.996 146.669 279.446 146.429 282.717 145.446C282.972 145.353 283.797 137.241 284.394 133.518C286.026 123.278 285.978 123.947 285.791 123.557ZM282.32 129.133C281.233 132.388 280.513 135.755 280.176 139.171C280.171 139.376 280.087 139.571 279.942 139.716C279.797 139.861 279.602 139.945 279.397 139.95C278.65 139.953 277.917 140.157 277.275 140.541C276.634 140.925 276.108 141.475 275.752 142.133C275.777 142.266 275.77 142.404 275.732 142.535C275.693 142.665 275.624 142.785 275.53 142.884C275.437 142.983 275.321 143.058 275.193 143.104C275.065 143.15 274.928 143.164 274.792 143.147C257.202 140.413 249.561 133.763 239.94 130.965C239.351 130.831 238.777 130.641 238.224 130.398C238.167 130.438 238.127 130.496 238.064 130.536C237.987 130.58 237.9 130.607 237.811 130.613C237.722 130.619 237.632 130.604 237.549 130.57C237.466 130.536 237.392 130.484 237.333 130.417C237.274 130.35 237.231 130.27 237.207 130.184C237.076 129.309 237.498 128.528 237.167 127.632C236.998 127.204 236.724 126.825 236.37 126.532C236.015 126.239 235.592 126.04 235.14 125.955C234.966 125.906 234.819 125.79 234.729 125.633C234.639 125.477 234.614 125.291 234.66 125.117C237.199 117.806 238.66 111.96 239.396 111.96C239.398 111.96 239.401 111.959 239.403 111.958C239.406 111.957 239.408 111.955 239.41 111.954C239.412 111.952 239.413 111.949 239.414 111.947C239.415 111.944 239.415 111.942 239.415 111.939C240.055 111.619 241.093 111.79 241.949 111.413C242.612 111.121 243.199 110.249 243.938 110.341C244.089 110.357 244.231 110.418 244.346 110.517C252.57 109.897 261.685 118.149 267.932 121.725C275.829 126.246 277.111 123.993 277.815 125C277.919 125.05 278.01 125.124 278.081 125.215C278.152 125.307 278.201 125.413 278.224 125.526C278.418 126.278 278.852 126.947 279.461 127.429C280.069 127.911 280.819 128.181 281.596 128.197C281.712 128.19 281.828 128.212 281.934 128.26C282.04 128.308 282.133 128.382 282.204 128.474C282.276 128.566 282.323 128.674 282.344 128.789C282.364 128.904 282.356 129.022 282.32 129.133Z" fill="#3A5AB7"/>
<path d="M273.647 168.448C273.012 167.022 272.127 165.722 271.034 164.608C270.686 164.312 270.665 164.435 270.177 164.529C269.247 164.706 268.288 164.645 267.389 164.352C266.489 164.059 265.678 163.543 265.031 162.853C261.041 165.576 256.75 167.831 252.244 169.573C252.428 170.399 252.436 171.254 252.268 172.083C252.1 172.913 251.76 173.697 251.27 174.387C252.854 176.968 253.889 179.848 254.31 182.848C256.898 195.576 253.118 203.401 259.358 212.494C261.356 211.342 264.454 213.061 265.401 215.029C266.633 214.357 273.063 212.104 281.209 207.701C280.494 206.699 280.16 205.475 280.267 204.25C280.374 203.024 280.915 201.876 281.793 201.014C276.482 190.787 278.879 178.321 273.647 168.448ZM269.476 198.173C262.633 199.393 259.252 193.733 260.836 189.109C261.217 187.796 262 186.637 263.076 185.795C263.095 185.795 263.095 185.776 263.114 185.776C264.178 184.98 265.435 184.483 266.756 184.336C268.076 184.189 269.412 184.398 270.624 184.941C271.837 185.484 272.883 186.34 273.653 187.423C274.423 188.505 274.89 189.774 275.006 191.097C275.084 192.743 274.569 194.363 273.554 195.661C272.539 196.96 271.092 197.851 269.476 198.173Z" fill="#3A5AB7"/>
<path d="M291.384 206.984C291.17 206.984 290.526 206.322 290.371 206.184C279.386 197.642 284.574 179.144 275.888 164.237C273.998 160.675 271.13 157.727 267.622 155.739C267.064 155.403 242.834 169.846 242.147 170.533C242.107 170.573 242.069 171.293 242.342 171.157C247.955 175.957 249.526 183.555 250.022 190.61C250.539 197.979 250.2 205.704 253.277 212.618C255.418 217.427 258.454 219.978 260.216 222.11C260.256 222.153 260.308 222.182 260.365 222.196C260.421 222.209 260.481 222.206 260.536 222.187C266.005 221.214 271.096 218.347 276.013 215.91C281.275 213.299 286.461 210.512 291.533 207.549C291.593 207.518 291.641 207.467 291.669 207.404C291.697 207.342 291.702 207.273 291.685 207.207C291.668 207.141 291.628 207.083 291.574 207.042C291.519 207.002 291.452 206.981 291.384 206.984ZM283.432 207.296C283.536 207.401 283.615 207.528 283.663 207.668C283.711 207.808 283.726 207.957 283.707 208.104C283.688 208.25 283.636 208.391 283.554 208.514C283.473 208.638 283.364 208.741 283.237 208.816C280.197 210.437 277.134 212.016 273.997 213.416C273.211 213.768 266.797 216.632 265.304 216.632C264.192 217.25 263.418 215.192 262.458 214.507C262.037 214.233 261.563 214.05 261.067 213.969C260.571 213.889 260.064 213.913 259.578 214.04C259.476 214.128 259.357 214.194 259.229 214.234C259.1 214.274 258.965 214.287 258.831 214.272C258.698 214.257 258.569 214.214 258.452 214.147C258.336 214.079 258.235 213.988 258.155 213.88C251.366 204.28 254.934 195.501 252.677 183.843C252.058 180.886 251.197 177.986 250.104 175.17C249.961 175.139 249.826 175.077 249.711 174.987C249.596 174.896 249.502 174.781 249.439 174.649C249.375 174.518 249.342 174.373 249.342 174.227C249.343 174.08 249.377 173.936 249.442 173.805C249.871 173.078 250.236 172.315 250.533 171.525C250.729 170.764 250.729 169.966 250.533 169.205C250.502 169.058 250.529 168.904 250.609 168.777C250.689 168.65 250.816 168.559 250.962 168.523C251.222 168.262 256.326 165.706 258.018 164.779C260.323 163.52 262.544 162.144 264.763 160.726C264.986 160.599 265.25 160.564 265.497 160.63C265.745 160.696 265.958 160.856 266.088 161.077C266.529 161.726 267.167 162.216 267.907 162.475C268.648 162.735 269.452 162.749 270.202 162.517C271.915 162.069 272.816 163.627 273.709 164.856C281.334 175.346 277.536 189.67 283.67 200.741C283.745 200.867 283.785 201.011 283.789 201.157C283.792 201.304 283.758 201.449 283.69 201.579C283.672 201.811 283.567 202.027 283.397 202.184C283.024 202.499 282.724 202.892 282.521 203.335C282.317 203.779 282.213 204.262 282.217 204.75C282.221 205.238 282.333 205.72 282.544 206.16C282.756 206.6 283.062 206.988 283.44 207.296H283.432Z" fill="#3A5AB7"/>
<path d="M204.45 227.099C205.385 224.899 205.562 222.45 204.951 220.138C204.34 217.827 202.977 215.784 201.078 214.333C199.422 213.102 196.639 211.946 194.646 212.987C194.517 213.069 194.414 213.187 194.349 213.325C194.285 213.464 194.262 213.618 194.282 213.77C194.303 213.921 194.366 214.064 194.465 214.18C194.564 214.297 194.695 214.383 194.841 214.427C196.39 214.981 198.273 214.414 200.649 216.746C201.812 217.91 202.617 219.384 202.965 220.993C203.314 222.601 203.192 224.276 202.615 225.818C202.037 227.359 201.029 228.702 199.709 229.685C198.389 230.669 196.814 231.252 195.172 231.365C193.678 231.454 192.187 231.14 190.857 230.455C189.526 229.77 188.404 228.739 187.609 227.472C186.813 226.204 186.374 224.745 186.336 223.249C186.298 221.753 186.664 220.274 187.394 218.968C188.394 217.37 189.707 215.991 191.254 214.914C191.336 214.824 191.391 214.712 191.412 214.591C191.433 214.471 191.419 214.347 191.372 214.234C191.325 214.122 191.247 214.025 191.146 213.955C191.046 213.886 190.928 213.846 190.806 213.842C189.893 214.012 189.024 214.362 188.247 214.87C187.471 215.379 186.803 216.037 186.282 216.805C185.393 217.969 184.758 219.307 184.419 220.733C184.081 222.158 184.047 223.639 184.318 225.078C184.59 226.518 185.162 227.884 185.996 229.089C186.831 230.293 187.91 231.308 189.162 232.067C191.252 233.319 193.707 233.822 196.121 233.492C198.535 233.163 200.764 232.021 202.442 230.254C199.058 236.344 189.217 236.269 185.308 229.514C184.045 227.095 183.607 224.329 184.062 221.638C184.14 220.819 182.911 220.742 182.678 221.443C179.734 230.243 190.518 240.149 199.967 234.914C202.423 233.55 205.034 230.645 204.839 227.642C204.817 227.529 204.771 227.422 204.704 227.328C204.637 227.234 204.55 227.156 204.45 227.099Z" fill="#FF9500"/>
<path d="M230.665 233.571C231.523 231.323 231.558 228.844 230.763 226.573C230.141 224.536 228.935 222.727 227.294 221.369C226.55 220.821 225.698 220.436 224.794 220.241C223.89 220.046 222.955 220.045 222.051 220.238C221.916 220.277 221.797 220.359 221.712 220.472C221.628 220.585 221.582 220.721 221.582 220.862C221.582 221.003 221.628 221.14 221.712 221.253C221.797 221.365 221.916 221.447 222.051 221.486C223.322 221.592 224.574 221.867 225.772 222.304C227.031 223.086 228.018 224.237 228.6 225.6C231.657 231.345 227.969 237.44 223.629 237.88C221.419 238.073 219.219 237.417 217.477 236.044C215.734 234.672 214.581 232.686 214.253 230.493C214.028 228.792 214.301 227.062 215.038 225.513C215.775 223.963 216.944 222.66 218.405 221.76C218.485 221.712 218.548 221.639 218.583 221.552C218.618 221.465 218.624 221.369 218.6 221.279C218.575 221.188 218.522 221.108 218.448 221.051C218.374 220.993 218.284 220.961 218.19 220.96C216.475 220.8 214.976 222.617 214.157 223.942C213.206 225.502 212.675 227.281 212.616 229.107C212.31 237.865 223.816 243.507 229.379 235.987C228.862 237.612 227.729 238.969 226.222 239.768C222.046 242.248 215.845 239.641 213.435 235.304C212.32 233.117 211.898 230.642 212.225 228.209C212.259 227.76 211.644 227.761 211.505 228.112C211.075 229.454 210.939 230.873 211.107 232.273C211.275 233.672 211.743 235.019 212.48 236.221C215.265 241.051 222.11 243.755 226.923 240.937C228.144 240.235 229.167 239.233 229.893 238.025C230.62 236.818 231.026 235.445 231.075 234.037C231.075 233.922 231.033 233.812 230.958 233.726C230.883 233.641 230.779 233.585 230.665 233.571Z" fill="#FF9500"/>
<path d="M70.3621 1.30229C70.3585 1.13714 70.3123 0.975718 70.2281 0.833638C70.1438 0.691559 70.0243 0.573629 69.8811 0.491255C69.7379 0.408881 69.5759 0.36485 69.4107 0.36342C69.2455 0.36199 69.0827 0.40321 68.9381 0.483093C63.0661 4.12149 55.9557 -0.305707 49.7189 0.0158932C44.5541 0.281493 38.1205 2.97909 35.8405 7.96789C28.8005 7.45589 25.1765 19.9391 31.1813 28.6079C31.2241 28.6708 31.2784 28.7251 31.3413 28.7679C30.9615 29.4935 30.775 30.3047 30.7998 31.1233C30.8245 31.942 31.0598 32.7404 31.4828 33.4417C31.9058 34.143 32.5023 34.7236 33.2148 35.1273C33.9274 35.5311 34.7319 35.7446 35.5509 35.7471C35.7861 38.7487 35.9973 41.7311 36.2533 44.7327C36.3493 45.8639 38.1189 45.8831 38.0277 44.7327C37.7349 41.0831 37.7189 41.6927 37.8901 41.6927C41.8803 42.914 45.9963 43.6783 50.1589 43.9711C51.2953 44.0602 52.4376 44.0404 53.5701 43.9119C53.5779 44.4917 53.6169 45.0707 53.6869 45.6463C53.7605 46.3103 53.7029 47.0783 54.3701 47.4207C54.4114 47.445 54.4583 47.4582 54.5061 47.4591C53.427 49.2878 52.1524 50.9938 50.7045 52.5471C50.1989 53.0927 49.8485 53.6351 49.0677 53.5215C45.3162 52.5695 41.8303 50.7766 38.8741 48.2783C37.001 46.5618 35.3508 44.617 33.9621 42.4895C33.6885 42.1695 33.2021 42.5087 33.2981 42.8783C33.7538 44.1706 34.4558 45.3622 35.3653 46.3871C38.523 50.257 42.7654 53.0947 47.5477 54.5359C48.2699 54.8606 49.0553 55.0202 49.8469 55.0031C50.4099 54.8317 50.9026 54.4832 51.2517 54.0095C52.9192 52.3134 54.384 50.4293 55.6165 48.3951C56.5564 47.1545 57.2331 45.7351 57.6053 44.2239C57.6008 44.1018 57.5614 43.9835 57.4918 43.8831C57.4222 43.7827 57.3253 43.7043 57.2126 43.6572C57.0998 43.6101 56.976 43.5962 56.8556 43.6172C56.7352 43.6383 56.6234 43.6933 56.5333 43.7759C56.0224 44.5244 55.5852 45.3207 55.2277 46.1535C55.1877 45.9199 55.1317 45.6863 55.0917 45.4319C54.9973 44.8479 54.9317 44.2623 54.8565 43.6591C55.9195 43.4325 56.9351 43.0232 57.8581 42.4495C62.6453 39.4351 61.4821 33.4127 60.7829 27.0895C60.5195 24.0706 60.0306 21.0755 59.3205 18.1295C62.7113 16.2103 65.5707 13.4768 67.6405 10.1759C69.4547 7.57608 70.4067 4.4722 70.3621 1.30229ZM52.9749 39.5455C52.5815 39.5362 52.1943 39.4447 51.8383 39.2769C51.4823 39.1091 51.1653 38.8687 50.9077 38.5711C50.2533 37.8047 50.4405 36.8751 50.0309 36.0111C49.8357 35.6015 50.3509 35.1295 50.6933 35.5039C51.3861 36.2559 51.4933 37.7439 52.5845 38.0383C53.8645 38.3871 53.9685 37.0447 54.7285 36.4591C54.8589 36.3866 55.012 36.3664 55.1567 36.4026C55.3015 36.4389 55.427 36.5289 55.5077 36.6543C56.4725 38.0447 54.1589 39.5791 52.9749 39.5455ZM59.5621 30.4815C59.3394 30.4221 59.1024 30.4501 58.8997 30.5599C54.1749 33.2591 48.3397 33.1407 43.0341 32.0415C42.2549 31.8815 41.0645 31.3375 40.2661 31.5935C39.1461 31.9503 39.4661 33.4223 37.0885 34.4735C37.0027 34.2917 36.857 34.1448 36.6759 34.0574C36.4947 33.9701 36.2891 33.9475 36.0933 33.9935C35.6256 34.0828 35.144 34.0677 34.6828 33.9493C34.2216 33.8309 33.7923 33.6121 33.4254 33.3085C33.0586 33.005 32.7633 32.6241 32.5607 32.1932C32.3581 31.7624 32.2531 31.292 32.2533 30.8159C32.2568 30.3278 32.3729 29.8471 32.5924 29.4112C32.8119 28.9752 33.1289 28.5958 33.5189 28.3023C34.311 27.8009 35.2329 27.5433 36.1701 27.5615C37.1594 27.9784 37.9447 28.7682 38.3557 29.7599C38.7669 30.7199 40.1653 30.1487 40.1877 29.2527C40.2597 26.2511 40.3477 23.2495 40.4213 20.2271C46.3465 21.9943 52.7218 21.4441 58.2565 18.6879C58.7269 23.5199 58.9397 23.0015 59.5621 30.4815ZM67.5157 5.08309C67.2533 7.72309 64.2181 10.8927 62.0965 12.4911C61.3749 13.0351 60.4597 13.9087 59.4853 13.6607C59.3292 13.6145 59.1971 13.5093 59.1171 13.3675C59.0371 13.2257 59.0154 13.0583 59.0565 12.9007C59.4277 11.7183 60.5205 12.0399 63.2469 9.31349C64.5029 7.85857 65.678 6.33574 66.7669 4.75189C67.0277 4.53749 67.5541 4.69429 67.5157 5.08309Z" fill="#212941"/>
</svg>
