<svg width="616" height="616" viewBox="0 0 616 616" fill="none" xmlns="http://www.w3.org/2000/svg">
<path d="M459.979 137.549C458.886 153.535 447.554 152.641 445.836 153.787C439.389 152.555 420.219 129.822 419.908 129.822C417.63 122.113 417.405 113.943 419.255 106.121C419.307 105.912 419.274 105.692 419.163 105.507C419.108 105.416 419.036 105.336 418.95 105.273C418.865 105.21 418.767 105.164 418.664 105.138C418.455 105.087 418.235 105.12 418.05 105.231C417.866 105.342 417.733 105.521 417.681 105.73C415.217 112.775 414.525 120.32 415.667 127.696C416.809 135.072 419.75 142.054 424.23 148.024C428.363 153.685 433.798 158.266 440.076 161.382C439.254 162.822 438.241 164.143 437.064 165.309C428.181 173.176 424.587 159.935 422.006 157.714C416.514 152.989 405.965 158.814 401.447 153.131C400.647 151.858 400.117 150.433 399.892 148.946C399.666 147.459 399.749 145.942 400.135 144.489C402.623 129.135 408.79 126.317 406.945 120.132C405.602 117.339 404.469 114.451 403.557 111.489C403.08 108.38 403.329 105.202 404.282 102.203C405.236 99.2053 406.869 96.4679 409.054 94.2045C417.173 86.0856 436.922 85.83 439.697 99.5729C441.126 106.657 434.545 115.724 440.221 121.835C446.701 128.827 460.903 124.062 459.979 137.549Z" fill="#3A5AB7"/>
<path d="M520.609 101.276C517.003 106.555 510.818 110.707 510.264 117.12C509.897 121.358 515.232 131.362 502.93 138.064C498.735 140.095 494.098 141.04 489.443 140.814C493.285 132.869 495.721 124.317 496.644 115.54C499.952 90.6658 481.826 60.0382 500.312 38.6754C501.344 37.4803 499.665 35.6724 498.48 36.8274C480.144 54.9008 492.455 80.9576 493.502 103.355C492.27 103.971 491.202 120.514 481.324 136.487C478.976 134.428 476.787 132.195 474.776 129.806C470.442 124.57 467.341 116.606 471.634 111.212C475.062 106.9 481.715 106.497 485.122 102.308C486.423 100.402 487.13 98.1538 487.154 95.8464C487.177 93.5389 486.516 91.2763 485.254 89.3444C482.631 85.5646 479.182 82.4303 475.17 80.1784C445.568 61.0978 486.227 57.5126 482.633 41.6784C481.805 39.5258 480.844 37.4272 479.753 35.3952C478.902 32.7996 478.927 29.996 479.827 27.4167C480.726 24.8373 482.45 22.6256 484.73 21.1224C487.071 19.6882 489.729 18.8535 492.469 18.6924C495.209 18.5312 497.946 19.0485 500.438 20.1984C504.99 22.4462 508.55 26.2962 510.435 31.0089C512.321 35.7216 512.399 40.9648 510.655 45.7316C509.333 49.0026 507.064 51.8608 505.548 55.1626C500.66 65.7855 508.788 68.3696 514.058 71.5297C518.799 74.6667 522.133 79.525 523.356 85.0767C524.579 90.6284 523.594 96.438 520.609 101.276Z" fill="#3A5AB7"/>
<path d="M460.769 419.496C458.645 408.716 454.751 398.362 449.247 388.853C444.488 379.841 439.819 370.129 432.485 362.796C420.165 350.476 401.319 343.546 384.034 342.499C384.034 312.589 383.248 319.654 383.248 315.001C383.248 315.13 392.796 310.941 393.72 310.417C405.637 303.608 409.789 291.013 411.791 278.204C414.255 262.388 413.405 251.978 402.101 241.145C397.284 241.676 392.416 240.806 388.081 238.641C386.516 237.843 387.684 235.521 389.261 235.891C394.61 237.147 400.533 238.136 405.366 235.105C419.676 226.127 414.276 208.121 403.271 199.226C395.812 193.196 390.027 188.308 380.094 192.811C370.38 197.212 356.717 213.807 364.386 224.892C366.406 227.353 368.958 229.323 371.849 230.655C373.023 231.314 372.638 233.781 371.064 233.535C367.847 233.146 364.843 231.722 362.505 229.479C360.167 227.235 358.621 224.293 358.1 221.094C339.897 213.893 322.388 237.495 319.209 252.914C318.599 255.935 318.554 259.043 319.077 262.08C319.477 264.436 321.849 267.975 321.433 270.069C319.126 282.125 317.019 295.84 324.577 306.604C330.63 315.228 341.625 317.711 351.423 315.376C351.854 315.285 352.233 315.028 352.478 314.661C352.723 314.293 352.814 313.845 352.732 313.411C355.321 314.988 358.227 315.973 361.242 316.294C367.554 317.299 374.002 317.077 380.23 315.638C379.306 324.542 379.445 333.841 379.306 342.875C375.783 344.691 371.874 345.635 367.91 345.625C365.027 345.625 358.732 344.981 356.514 342.483C352.618 338.091 356.72 331.053 353.24 318.389C353.161 318.116 352.989 317.879 352.753 317.721C352.517 317.563 352.232 317.494 351.95 317.525C351.668 317.557 351.406 317.687 351.21 317.893C351.014 318.098 350.898 318.367 350.881 318.65C350.948 324.81 350.881 330.829 350.489 336.982C326.265 331.485 300.073 345.363 283.573 363.162C279.314 363.162 260.187 372.03 253.848 374.688C226.553 386.136 204.793 398.114 182.482 419.471C174.655 426.965 165.85 434.532 161.008 444.351C155.251 456.009 157.179 472.379 156.554 485.075C155.042 515.844 154.657 546.752 154.722 577.657C154.722 582.138 158.085 582.027 158.128 579.098C158.716 538.491 160.407 497.909 161.531 457.315C161.806 447.364 166.115 442.124 172.401 434.923C194.503 409.64 226.073 389.863 256.873 378.224C261.333 376.539 275.205 374.164 277.817 370.628C258.434 396.685 252.278 432.869 257.258 464.387C257.507 465.961 260.03 465.566 260.008 463.992C259.811 433.482 261.24 402.753 278.732 376.52C286.766 364.477 297.712 354.658 310.554 347.975C317.761 344.281 325.561 341.883 333.599 340.891C337.658 353.331 350.502 362.583 363.062 365.115C383.581 369.252 403.854 354.446 403.003 350.186C413.068 353.004 422.257 358.319 429.716 365.639C443.348 379.77 451.153 401.619 456.953 419.847C457.633 421.96 461.111 421.713 460.769 419.496ZM325.104 299.533C321.193 290.752 322.486 281.33 323.663 272.164C327.246 275.719 331.304 278.761 335.721 281.204C342.164 283.929 346.809 277.902 350.255 280.68C354.167 283.843 352.796 292.11 350.255 295.606C348.977 297.145 347.796 298.764 346.72 300.451C346.927 304.524 348.34 308.445 350.779 311.714C339.771 311.579 330.232 311.046 325.104 299.533ZM399.477 349.293C394.912 354.225 389.147 357.891 382.745 359.933C376.342 361.976 369.52 362.325 362.942 360.948C350.89 358.213 343.563 350.208 336.882 340.518C341.465 340.127 346.048 339.995 350.764 339.995C350.799 341.449 351.25 342.862 352.062 344.068C352.874 345.275 354.013 346.224 355.347 346.805C367.975 353.953 384.157 347.612 384.157 345.363C389.393 346.543 394.5 347.722 399.477 349.293Z" fill="#212941"/>
<path d="M293.022 481.681C264.957 500.097 231.542 480.542 248.106 428.517C248.482 427.331 246.677 426.817 246.274 427.994C240.181 445.608 235.3 468.431 249.662 483.384C255.581 489.575 263.708 493.172 272.27 493.393C280.831 493.613 289.133 490.438 295.363 484.561C295.647 484.225 295.805 483.8 295.81 483.36C295.814 482.92 295.664 482.492 295.387 482.15C295.109 481.808 294.721 481.575 294.289 481.489C293.857 481.403 293.409 481.471 293.022 481.681Z" fill="#212941"/>
<path d="M457.752 388.052C465.452 398.555 472.515 409.273 474.775 422.24C477.239 436.257 473.91 453.185 459.067 458.643C457.358 459.259 457.5 462.2 459.594 462.049C482.746 460.361 490.363 414.744 460.247 386.229C458.92 385.172 456.702 386.617 457.752 388.052Z" fill="#212941"/>
<path d="M510.003 236.415C537.564 243.734 563.748 255.499 587.523 271.246C589.5 272.54 591.188 269.417 589.371 268.237C565.172 252.653 538.777 240.78 511.062 233.011C510.611 232.871 510.122 232.915 509.704 233.135C509.285 233.355 508.971 233.732 508.831 234.183C508.69 234.634 508.735 235.123 508.954 235.542C509.174 235.96 509.551 236.274 510.003 236.415Z" fill="#212941"/>
<path d="M466.928 375.221C488.691 388.801 517.748 383.352 536.594 367.102C572.1 336.484 576.533 250.426 513.285 254.485C484.739 256.318 462.083 276.618 451.478 302.151C447.614 301.021 443.564 300.665 439.562 301.104C436.55 301.375 436.55 306.081 439.562 305.819C448.654 305.819 443.159 327.995 442.965 331.353C441.93 349.075 452.276 366.083 466.928 375.221ZM454.882 305.305C465.203 276.279 497.836 252.258 529.261 260.131C565.799 269.281 563.674 317.603 549.425 344.215C534.21 372.615 495.778 390.775 466.798 370.395C459.76 365.56 454.215 358.852 450.791 351.03C447.366 343.207 446.198 334.583 447.419 326.132C448.497 318.805 450.037 310.683 445.571 305.576C447.834 305.724 450.074 306.119 452.252 306.753C452.792 306.897 453.368 306.826 453.858 306.553C454.347 306.281 454.711 305.829 454.873 305.293L454.882 305.305Z" fill="#212941"/>
<path d="M470.978 307.914C490.807 304.3 510.175 298.503 528.728 290.629C530.031 290.09 528.993 288.165 527.804 288.402C508.016 292.197 488.698 298.124 470.187 306.081C469.016 306.605 469.802 308.176 470.978 307.914Z" fill="#212941"/>
<path d="M528.467 310.793C509.979 314.343 491.84 319.514 474.259 326.246C473.938 326.341 473.667 326.557 473.503 326.849C473.339 327.141 473.295 327.485 473.38 327.808C473.466 328.132 473.674 328.409 473.96 328.582C474.246 328.755 474.589 328.81 474.915 328.735C493.369 325.159 511.498 320.078 529.123 313.544C529.304 313.501 529.474 313.423 529.624 313.314C529.775 313.205 529.902 313.067 529.999 312.909C530.097 312.751 530.162 312.575 530.191 312.392C530.22 312.209 530.213 312.021 530.17 311.841C530.127 311.66 530.049 311.49 529.94 311.339C529.831 311.189 529.694 311.062 529.535 310.964C529.377 310.867 529.202 310.802 529.018 310.773C528.835 310.743 528.648 310.75 528.467 310.793Z" fill="#212941"/>
<path d="M469.147 355.576C477.361 352.971 485.501 350.032 493.897 347.59C502.133 345.19 510.794 343.675 519.039 340.78C519.491 340.657 519.875 340.361 520.107 339.955C520.34 339.549 520.402 339.068 520.279 338.616C520.157 338.165 519.86 337.781 519.454 337.548C519.048 337.316 518.567 337.254 518.115 337.377C500.785 340.097 483.993 345.532 468.355 353.482C468.103 353.605 467.906 353.817 467.802 354.078C467.699 354.338 467.696 354.628 467.795 354.89C467.894 355.152 468.088 355.368 468.338 355.495C468.588 355.622 468.876 355.651 469.147 355.576Z" fill="#212941"/>
<path d="M588.307 386.743C562.204 390.747 535.928 394.338 510.001 399.316C509.345 396.956 506.33 395.66 504.109 394.471C499.514 392.007 494.672 389.774 489.966 387.661C488.524 387.011 487.335 388.988 488.657 389.755C509.524 401.853 505.852 402.59 507.907 402.59C505.941 444.884 506.388 487.859 508.43 530.132C508.43 530.549 508.596 530.949 508.89 531.243C509.185 531.538 509.584 531.703 510.001 531.703C510.418 531.703 510.817 531.538 511.112 531.243C511.406 530.949 511.572 530.549 511.572 530.132C509.724 487.733 511.048 445.278 510.395 402.719C536.191 397.742 562.119 393.552 588.177 390.149C590.534 390.017 590.543 386.401 588.307 386.743Z" fill="#212941"/>
<path d="M584.382 330.305C565.803 321.373 582.679 281.333 587.262 271.246C563.403 255.823 537.358 244.081 510.003 236.414C509.712 236.335 509.446 236.182 509.233 235.969C509.019 235.755 508.865 235.49 508.786 235.199C508.707 234.908 508.705 234.601 508.78 234.309C508.856 234.017 509.007 233.75 509.218 233.534C507.909 233.011 506.6 232.61 505.287 232.093C490.1 262.604 458.413 252.646 439.422 244.271C432.617 241.088 427.346 235.346 424.755 228.295C424.052 231.015 422.794 233.56 421.059 235.769C419.324 237.978 417.15 239.803 414.674 241.13C414.674 241.13 426.72 273.47 416.768 294.688C406.817 315.906 388.74 319.83 388.74 319.83L389.664 327.949C406.19 329.472 422.464 333.034 438.116 338.553C437.219 328.697 440.903 321.228 440.472 313.297C440.238 308.985 435.482 305.203 430.924 302.952C430.624 302.805 430.373 302.575 430.202 302.289C430.031 302.002 429.947 301.672 429.961 301.338C429.974 301.005 430.085 300.683 430.279 300.411C430.473 300.14 430.742 299.931 431.053 299.81C435.616 297.812 440.489 296.616 445.458 296.274C445.837 296.318 446.219 296.222 446.532 296.005C446.845 295.788 447.069 295.464 447.162 295.094C455.302 271.914 475.713 259.366 499.54 252.014C517.746 246.397 539.491 248.072 553.228 261.181C582.315 288.934 570.657 368.137 514.207 385.449C521.759 392.734 522.871 395.179 525.729 396.448C550.554 391.92 586.535 386.629 589.11 386.629C593.569 382.884 615.102 345.089 584.382 330.305Z" fill="#3A5AB7"/>
<path d="M424.626 486.788C431.71 474.742 430.062 458.636 429.6 445.278C429.053 427.76 426.992 410.322 423.44 393.159C423.055 391.326 420.578 392.235 420.822 393.947C423.105 409.873 424.503 425.914 425.011 441.995C425.426 455.35 427.237 472.244 420.298 484.29C414.668 485.075 409.035 486.138 403.404 487.04C403.537 478.792 403.404 470.534 402.881 462.422C402.881 462.075 402.743 461.742 402.497 461.496C402.252 461.251 401.919 461.113 401.572 461.113C401.225 461.113 400.892 461.251 400.646 461.496C400.401 461.742 400.263 462.075 400.263 462.422C399.678 470.799 399.607 479.183 399.739 487.696C390.404 489.357 380.934 490.146 371.452 490.052C371.359 485.493 370.7 480.962 369.491 476.565C369.384 476.217 369.158 475.917 368.852 475.719C368.546 475.522 368.18 475.439 367.819 475.486C367.458 475.533 367.125 475.707 366.879 475.976C366.634 476.245 366.492 476.592 366.478 476.956C366.383 481.352 366.778 485.745 367.658 490.052C359.278 489.923 350.898 489.53 342.516 488.873C340.802 485.864 339.359 482.709 338.204 479.445C337.261 476.309 334.797 468.446 337.415 465.566C337.667 465.284 337.802 464.915 337.791 464.537C337.78 464.158 337.625 463.798 337.358 463.53C337.09 463.262 336.73 463.106 336.351 463.095C335.973 463.083 335.604 463.217 335.321 463.469C331.653 466.478 332.875 472.891 333.618 476.956C334.312 480.981 335.639 484.871 337.548 488.482C336.892 488.482 336.368 488.349 335.715 488.349C333.094 488.087 326.318 488.83 324.319 487.425C321.612 485.531 321.729 481.918 321.175 478.912C317.03 455.925 316.281 432.454 318.951 409.249C319.102 407.81 316.57 407.401 316.33 408.854C312.106 435.306 312.906 462.317 318.689 488.472C318.557 488.602 318.427 488.602 318.427 488.734C295.771 532.978 302.042 567.216 304.151 594.671C304.157 595.086 304.325 595.483 304.619 595.776C304.913 596.07 305.31 596.237 305.725 596.242C325.89 596.242 346.055 596.112 366.223 596.112C366.57 596.111 366.902 595.973 367.147 595.728C367.393 595.483 367.531 595.15 367.532 594.803C367.556 590.901 368.129 587.021 369.235 583.278C367.482 583.279 365.732 583.411 363.999 583.672C362.296 583.934 362.031 581.036 363.608 580.66C371.678 578.311 380.238 578.22 388.355 580.398C390.441 581.088 390.204 584.587 387.832 584.325C385.476 584.196 383.116 583.934 380.748 583.672C383.732 586.016 383.88 591.874 383.366 595.456C383.237 596.38 384.29 597.304 385.214 597.289C406.691 597.159 428.161 596.636 449.638 596.503C449.882 596.511 450.124 596.468 450.35 596.379C450.577 596.289 450.783 596.155 450.955 595.984C451.128 595.812 451.264 595.607 451.356 595.382C451.447 595.156 451.491 594.914 451.486 594.671C451.972 581.057 451.227 567.427 449.259 553.947C444.83 529.707 430.65 509.965 424.626 486.788Z" fill="#212941"/>
<path d="M440.468 161.392C450.302 166.342 465.48 169.902 466.789 182.736C465.395 182.604 463.991 182.604 462.597 182.736C460.592 182.736 458.128 183.161 457.229 184.963C441.777 184.175 432.207 200.154 433.005 214.294C433.323 222.152 436.356 229.656 441.587 235.528C446.818 241.4 453.923 245.277 461.692 246.499C500.161 251.534 519.972 196.332 481.857 182.989C480.009 182.345 478.977 183.913 479.106 185.345C476.905 184.105 474.431 183.43 471.905 183.38C471.144 146.882 491.078 158.719 496.653 115.549C499.868 90.6629 482.396 60.5189 500.321 38.6848C501.384 37.3881 499.674 35.6818 498.489 36.8368C478.222 56.7767 495.409 86.4741 493.382 110.169C492.755 119.738 490.353 129.108 486.298 137.799C483.301 143.568 478.395 147.849 474.773 153.119C470.829 158.885 468.399 165.55 467.704 172.502C461.418 164.383 449.116 160.961 440.073 155.87C431.745 150.89 425.237 143.366 421.512 134.406C417.786 125.446 417.039 115.526 419.382 106.109C419.412 106.004 419.422 105.895 419.409 105.786C419.396 105.678 419.361 105.573 419.307 105.479C419.252 105.384 419.18 105.301 419.092 105.235C419.005 105.17 418.906 105.122 418.8 105.096C418.694 105.07 418.584 105.065 418.476 105.082C418.369 105.099 418.265 105.138 418.173 105.196C418.081 105.254 418.001 105.33 417.939 105.42C417.877 105.51 417.833 105.611 417.811 105.718C414.214 116.169 414.528 127.569 418.694 137.806C422.86 148.043 430.596 156.422 440.468 161.392ZM479.753 186.648C480.104 186.999 508.341 197.554 493.634 225.41C484.496 242.71 459.93 247.848 445.836 233.396C429.589 216.737 437.369 189.331 456.838 187.433C457.583 190.418 461.51 190.054 464.301 190.184C468.551 190.39 479.753 192.103 479.753 186.648Z" fill="#212941"/>
<path d="M207.512 98.2519C207.112 98.1508 206.689 98.197 206.32 98.3819C205.95 98.5669 205.66 98.8784 205.501 99.2596C205.343 99.6408 205.326 100.066 205.455 100.459C205.584 100.851 205.85 101.184 206.203 101.397C206.902 101.919 207.706 102.282 208.56 102.46C209.414 102.638 210.296 102.627 211.145 102.427C211.994 102.227 212.789 101.843 213.473 101.303C214.158 100.762 214.716 100.078 215.108 99.2991C217.113 94.867 213.355 90.6535 213.799 86.206C213.916 85.0264 212.114 84.9001 211.834 85.9442C210.531 90.8106 213.306 93.9122 212.357 97.0753C211.31 99.4438 209.345 98.6584 207.512 98.2519Z" fill="#212941"/>
<path d="M221.395 77.8374C220.68 77.8847 220.011 78.2018 219.521 78.7246C219.032 79.2473 218.76 79.9365 218.76 80.6525C218.76 81.3685 219.032 82.0577 219.521 82.5805C220.011 83.1032 220.68 83.4204 221.395 83.4676C222.109 83.4204 222.779 83.1032 223.268 82.5805C223.757 82.0577 224.03 81.3685 224.03 80.6525C224.03 79.9365 223.757 79.2473 223.268 78.7246C222.779 78.2018 222.109 77.8847 221.395 77.8374Z" fill="#212941"/>
<path d="M197.823 80.4556C197.116 80.489 196.449 80.7934 195.96 81.3056C195.472 81.8177 195.199 82.4983 195.199 83.206C195.199 83.9137 195.472 84.5943 195.96 85.1064C196.449 85.6186 197.116 85.923 197.823 85.9564C198.529 85.923 199.196 85.6186 199.685 85.1064C200.173 84.5943 200.446 83.9137 200.446 83.206C200.446 82.4983 200.173 81.8177 199.685 81.3056C199.196 80.7934 198.529 80.489 197.823 80.4556Z" fill="#212941"/>
<path d="M199.655 105.86C199.527 105.036 199.261 104.239 198.869 103.503C198.722 103.252 198.512 103.044 198.259 102.899C198.007 102.755 197.721 102.679 197.429 102.679C197.138 102.679 196.852 102.755 196.6 102.899C196.347 103.044 196.137 103.252 195.99 103.503C193.963 106.978 199.322 114.308 205.809 112.408C206.089 112.323 206.328 112.139 206.483 111.891C206.637 111.642 206.696 111.346 206.648 111.058C206.6 110.769 206.449 110.508 206.222 110.323C205.996 110.138 205.71 110.041 205.417 110.051C204.157 109.977 202.944 109.543 201.922 108.8C200.901 108.057 200.114 107.036 199.655 105.86Z" fill="#212941"/>
<path d="M200.835 258.938C199.781 258.553 198.87 260.118 199.655 260.903C202.406 263.127 205.255 265.388 207.774 267.843C210.361 270.365 212.071 273.494 214.452 276.223C214.679 276.468 214.983 276.627 215.313 276.676C215.644 276.726 215.981 276.661 216.27 276.494C216.559 276.326 216.783 276.066 216.904 275.755C217.026 275.444 217.039 275.101 216.94 274.782C215.487 271.123 213.2 267.854 210.263 265.234C207.709 262.365 204.464 260.197 200.835 258.938Z" fill="#212941"/>
<path d="M223.226 275.7C222.432 270.841 220.453 266.253 217.463 262.342C215.363 259.332 213.013 256.182 209.215 255.797C207.906 255.661 207.894 257.38 208.692 258.02C215.018 263.109 217.072 269.675 221.012 276.5C221.523 277.27 223.355 276.892 223.226 275.7Z" fill="#212941"/>
<path d="M229.38 269.937C228.986 262.736 223.22 257.744 217.596 253.962C216.42 253.173 214.96 255.027 216.022 256.059C223.59 263.396 223.384 262.924 227.153 270.461C227.677 271.508 229.513 270.985 229.38 269.937Z" fill="#212941"/>
<path d="M148.191 222.536C193.248 225.687 210.235 244.66 214.451 244.404C218.668 244.148 222.314 242.424 226.5 243.748C229.777 244.786 232.136 247.395 235.404 248.463C236.978 248.978 237.757 247.025 236.843 245.975C231.85 240.227 220.999 236.285 214.322 241.392C208.723 235.413 201.892 230.722 194.302 227.643C195.234 221.459 194.877 215.149 193.255 209.109C191.632 203.07 188.779 197.43 184.874 192.546C183.423 190.75 183.334 190.35 183.694 188.357C184.941 180.865 184.207 173.178 181.565 166.057C178.924 158.936 174.467 152.629 168.636 147.763C182.123 136.632 184.264 115.648 181.206 99.4437C180.664 96.5732 181.969 94.987 180.158 94.7282C178.455 94.3371 176.881 95.0178 175.314 94.7282C174.339 94.5303 173.459 94.009 172.817 93.2487C172.175 92.4885 171.809 91.5338 171.778 90.5394C171.778 86.0858 177.411 84.903 180.682 86.3476C181.862 86.8712 182.394 85.0232 181.467 84.3856C180.322 83.6078 179.03 83.0722 177.67 82.8117C189.198 75.7986 207.158 67.1807 212.896 50.4717C216.826 59.2466 226.907 64.7444 231.228 72.9958C230.051 84.7799 232.848 97.5156 225.73 107.827C217.925 119.125 204.703 121.158 192.337 116.861C190.772 116.319 189.719 118.826 191.157 119.612C196.884 122.69 203.452 123.838 209.883 122.886C210.254 130.546 211.218 138.166 212.766 145.678C204.647 154.449 192.26 151.607 187.492 141.095C186.959 139.918 185.16 140.694 185.527 142.019C186.18 144.414 187.337 146.643 188.92 148.556C190.502 150.469 192.475 152.023 194.705 153.113C196.936 154.204 199.373 154.806 201.855 154.881C204.337 154.955 206.806 154.499 209.098 153.544C212.158 152.635 214.742 150.567 216.299 147.781C217.722 144.369 216.299 139.009 215.776 135.461C223.348 124.715 229.711 113.166 234.748 101.024C241.269 84.3918 239.03 55.4706 234.619 44.9678C224.84 21.6984 206.976 29.6478 206.976 29.6478C206.976 29.6478 194.434 21.4982 180.928 23.8852C155.426 28.3974 148.764 63.032 153.692 86.7418C154.484 90.5364 156.31 94.9901 160.108 95.7755C153.804 105.55 151.16 117.239 152.645 128.775C153.461 134.935 156.181 141.738 162.073 143.703C154.739 151.299 153.637 163.631 157.619 173.428C162.072 183.13 169.504 191.157 178.834 196.344C175.954 206.166 178.572 218.476 186.167 225.021C175.974 222.18 165.453 220.684 154.872 220.571C154.1 213.439 154.767 206.225 156.834 199.356C157.369 197.659 154.865 196.997 154.216 198.57C151.253 205.453 150.212 213.011 151.203 220.438H148.456C146.753 220.438 146.882 222.536 148.191 222.536Z" fill="#212941"/>
<path d="M235.534 241.78C269.414 229.608 301.659 216.524 338.2 216.114C338.776 216.093 339.321 215.849 339.721 215.434C340.121 215.019 340.344 214.465 340.344 213.889C340.344 213.313 340.121 212.759 339.721 212.344C339.321 211.929 338.776 211.685 338.2 211.664C302.068 212.942 266.963 223.842 234.487 239.556C233.178 240.083 234.08 242.303 235.534 241.78Z" fill="#212941"/>
<path d="M321.044 309.352C317.101 304.198 314.939 297.903 314.884 291.414C314.587 286.178 314.674 280.928 315.146 275.706C315.999 272.154 305.98 237.862 335.049 216.262C300.223 217.688 269.192 229.737 236.852 241.391C246.151 248.854 239.47 255.322 233.055 255.141C225.851 254.937 236.649 263.5 239.079 269.925C241.509 276.349 203.832 291.793 200.712 281.321C198.337 273.337 185.13 266.654 178.844 263.906C177.664 264.43 176.487 264.953 175.178 265.606C175.503 265.804 175.768 266.087 175.942 266.424C176.117 266.762 176.195 267.141 176.168 267.521C176.141 267.9 176.01 268.264 175.789 268.574C175.568 268.883 175.266 269.126 174.917 269.275C163.043 274.585 151.475 280.671 140.082 286.951C144.32 297.992 147.737 309.332 150.304 320.877C150.612 320.683 199.603 323.686 205.957 324.28C206.31 324.303 206.65 324.425 206.938 324.631C207.227 324.837 207.451 325.119 207.588 325.446C207.724 325.773 207.766 326.132 207.709 326.482C207.652 326.831 207.499 327.158 207.266 327.425C201.965 332.661 129.477 403.569 128.695 404.028C124.528 406.492 54.6303 389.924 54.4486 389.244C51.806 379.08 48.6859 369.224 45.6768 359.257C34.907 371.149 27.0977 385.417 22.8848 400.898C55.6221 412.421 88.9662 423.795 121.097 436.777C121.406 436.907 121.671 437.126 121.857 437.405C122.043 437.684 122.143 438.012 122.144 438.348L133.404 442.408C135.355 443.131 137.49 443.191 139.478 442.578C141.466 441.966 143.197 440.715 144.403 439.02C161.46 414.996 194.699 366.911 294.091 338.057C311.153 333.071 328.645 329.696 346.337 327.976V319.987C341.564 320.515 336.736 319.816 332.309 317.954C327.883 316.093 324.005 313.132 321.044 309.352Z" fill="#3A5AB7"/>
<path d="M217.726 138.729C216.414 138.973 216.802 140.824 217.988 140.953C236.058 141.609 244.762 155.33 251.904 170.154C258.47 184.191 264.155 198.623 268.928 213.367C269.719 215.723 273.372 214.679 272.593 212.32C266.865 193.815 259.227 175.958 249.801 159.036C243.188 147.729 231.968 136.062 217.726 138.729Z" fill="#212941"/>
<path d="M108.909 122.491C110.477 121.829 109.297 119.331 107.729 119.741C85.9323 125.417 64.0089 125.048 41.8637 126.942C41.5165 126.942 41.1836 127.08 40.9381 127.325C40.6926 127.571 40.5547 127.904 40.5547 128.251C40.5547 128.598 40.6926 128.931 40.9381 129.177C41.1836 129.422 41.5165 129.56 41.8637 129.56C63.3405 131.239 88.5781 131.054 108.909 122.491Z" fill="#212941"/>
<path d="M116.372 142.912C104.052 144.6 92.0126 147.581 79.5756 148.804C68.0471 149.94 56.4171 150.156 44.8732 151.292C44.5432 151.292 44.2267 151.424 43.9934 151.657C43.76 151.89 43.6289 152.207 43.6289 152.537C43.6289 152.867 43.76 153.183 43.9934 153.417C44.2267 153.65 44.5432 153.781 44.8732 153.781C64.5021 154.191 98.7209 152.928 117.29 145.924C117.668 145.785 117.979 145.507 118.159 145.146C118.338 144.785 118.373 144.369 118.255 143.984C118.138 143.599 117.877 143.273 117.527 143.073C117.177 142.874 116.764 142.816 116.372 142.912Z" fill="#212941"/>
<path d="M83.3733 169.239C74.0926 170.592 64.7238 171.247 55.3453 171.201C53.9038 171.201 53.6359 173.459 54.951 173.69C64.6302 175.463 74.5913 174.925 84.0232 172.119C84.4051 172.033 84.7371 171.799 84.9462 171.468C85.1552 171.137 85.2243 170.736 85.1381 170.354C85.0519 169.972 84.8176 169.64 84.4866 169.431C84.1556 169.222 83.7552 169.153 83.3733 169.239Z" fill="#212941"/>
<path d="M205.68 324.281C196.239 323.434 150.027 320.877 150.027 320.877C147.443 309.34 144.029 298.005 139.811 286.96C151.207 280.677 162.772 274.594 174.642 269.284C177.516 268 174.913 263.956 172.286 265.225C160.838 270.75 149.371 276.356 138.372 282.639L131.288 261.427C150.27 260.213 166.508 255.846 182.749 262.08C191.506 265.377 199.046 271.271 204.358 278.974C204.993 279.898 206.714 279.365 206.32 278.188C196.242 253.317 163.878 252.436 137.06 255.141C134.572 255.39 132.086 255.664 129.468 255.797C127.62 250.034 125.707 244.259 123.835 238.509C123.75 238.222 123.602 237.958 123.402 237.737C123.201 237.515 122.954 237.342 122.677 237.229C122.401 237.116 122.103 237.066 121.804 237.084C121.506 237.102 121.216 237.187 120.955 237.332C113.911 241.179 106.812 245.189 99.8724 249.378C92.2771 243.218 90.8264 234.449 92.6713 224.122C94.5988 214.076 97.9955 204.368 102.752 195.312C132.545 183.3 144.693 151.918 134.313 132.72C131.898 128.254 126.083 125.097 131.43 114.65C132.631 112.303 135.077 110.199 134.704 107.184C134.011 101.56 120.431 110.719 120.693 111.899C119.453 107.148 117.256 102.7 114.238 98.8268C111.219 94.9539 107.442 91.7377 103.137 89.3751C92.8839 84.0805 79.8339 85.6051 69.0909 88.5897C45.7968 95.0577 26.7501 113.726 23.128 138.088C19.5552 162.162 33.2089 187.88 56.3982 196.082C69.6831 200.792 84.1131 201.205 97.6455 197.261C87.1735 217.035 80.8842 239.426 95.1569 252.393C89.1478 256.142 28.1392 294.919 28.7675 303.33C29.6063 307.765 30.8782 312.107 32.5651 316.294C36.4213 329.372 40.2621 342.513 44.0874 355.718C32.3033 369.338 23.0048 384.525 19.7308 401.548C18.5973 404.955 17.3961 453.57 17.2452 456.81C16.389 475.01 15.2802 493.462 15.3972 511.677C15.4233 512.111 15.6142 512.519 15.9307 512.817C16.2473 513.115 16.6657 513.281 17.1005 513.281C17.5353 513.281 17.9537 513.115 18.2702 512.817C18.5868 512.519 18.7776 512.111 18.8037 511.677C19.8971 493.477 19.971 475.025 20.7687 456.81C21.5418 439.131 23.2543 421.06 22.0777 403.526C53.7679 417.146 86.6869 430.91 119.895 440.061C121.854 440.6 122.523 437.815 120.681 437.049C88.615 423.728 55.2062 412.692 22.4689 401.17C26.6837 385.689 34.4927 371.422 45.2609 359.528C48.1407 369.48 51.0297 379.6 54.0358 389.647C54.2083 390.226 123.952 407.068 128.282 404.573C129.634 403.794 146.571 386.527 206.85 327.97C208.165 326.113 207.25 324.422 205.68 324.281ZM50.3737 187.701C21.9638 170.94 21.6773 129.018 43.9581 107.562C54.4877 97.7652 67.9952 91.7764 82.3256 90.5516C100.528 88.8576 111.934 98.4457 117.419 115.299C117.515 115.61 117.679 115.895 117.897 116.136C118.116 116.376 118.385 116.565 118.685 116.69C118.985 116.815 119.309 116.872 119.634 116.858C119.958 116.844 120.276 116.759 120.564 116.608C122.788 114.908 125.147 113.337 127.371 111.764C124.229 117.526 122.135 123.936 126.447 129.443C135.764 141.344 135.071 155.096 127.885 168.072C113.055 194.88 76.3073 203.012 50.3737 187.701ZM58.4926 385.696C32.9286 298.205 33.6123 303.737 33.6123 302.021C33.6123 299.502 42.3503 294.174 44.0843 292.852C61.3816 279.734 102.25 252.116 121.084 241.653C125.396 254.223 129.613 266.657 133.786 279.229C138.52 293.496 144.391 307.775 148.321 322.309C118.205 343.401 87.1643 363.042 58.4926 385.696ZM152.383 375.482C143.005 384.59 126.222 401.798 125.409 401.933C122.576 401.366 119.781 400.622 117.04 399.707C66.7993 389.102 67.7603 389.268 59.5521 387.923C90.0626 367.755 118.873 344.84 150.039 325.59C167.26 325.327 184.482 325.983 201.632 327.555C185.255 343.532 168.839 359.508 152.383 375.482Z" fill="#212941"/>
<path d="M150.418 330.696C149.051 330.958 83.9952 380.17 85.8617 380.719C91.8646 382.493 98.04 383.731 104.342 385.031C122.344 363.585 153.754 342.058 164.183 332.523C159.65 331.555 155.047 330.944 150.418 330.696Z" fill="#212941"/>
<path d="M137.848 359.245C127.764 367.755 118.336 377.186 108.252 385.829C121.539 388.043 122.811 389.777 131.429 382.16C147.214 368.211 162.466 353.615 177.392 338.686C177.705 338.362 177.929 337.962 178.041 337.525C178.153 337.088 178.149 336.63 178.03 336.195C177.912 335.76 177.682 335.364 177.364 335.045C177.046 334.725 176.65 334.494 176.215 334.374C173.323 333.918 170.453 333.45 167.573 332.933C158.798 343.007 147.929 350.732 137.848 359.245Z" fill="#212941"/>
<path d="M76.6924 279.627C79.4983 279.627 78.95 276.091 78.2632 276.091C78.0849 275.82 77.8419 275.597 77.5562 275.443C77.2704 275.289 76.9508 275.208 76.6262 275.208C76.3015 275.208 75.9819 275.289 75.6961 275.443C75.4104 275.597 75.1674 275.82 74.9891 276.091C73.5877 277.508 75.1031 279.627 76.6924 279.627Z" fill="#212941"/>
<path d="M99.2156 344.578C88.3032 354.104 75.515 360.554 63.5985 368.673C56.265 349.032 50.7302 328.633 43.1719 309.09C43.0849 308.812 42.8912 308.581 42.6333 308.446C42.3754 308.311 42.0744 308.284 41.7967 308.371C41.519 308.458 41.2872 308.652 41.1523 308.91C41.0174 309.168 40.9905 309.468 41.0775 309.746C46.9572 330.739 55.2455 351.178 60.848 372.338C60.9342 372.624 61.0831 372.887 61.2839 373.108C61.4846 373.328 61.7321 373.502 62.0084 373.615C62.2846 373.728 62.5826 373.778 62.8806 373.761C63.1786 373.744 63.4691 373.661 63.7309 373.518C75.9924 364.419 91.0967 358.198 101.051 346.414C101.837 345.102 100.408 343.54 99.2156 344.578Z" fill="#212941"/>
</svg>
