<svg width="616" height="616" viewBox="0 0 616 616" fill="none" xmlns="http://www.w3.org/2000/svg">
<path d="M16.2631 356.411C14.9849 358.567 15.0496 360.314 16.9807 360.616C22.9867 361.54 97.5997 360.074 109.504 359.901C112.473 359.901 112.605 356.994 111.238 354.178C101.351 333.598 83.3516 301.942 68.5214 284.986C67.6313 283.967 65.9188 283.425 64.1848 285.744C46.7536 308.278 30.7484 331.88 16.2631 356.411ZM70.1908 344.31C70.9392 350.162 61.345 350.427 62.9928 344.051C63.1517 343.193 63.6138 342.42 64.2949 341.874C64.9761 341.327 65.8309 341.044 66.7034 341.075C67.576 341.107 68.4083 341.451 69.0484 342.045C69.6886 342.638 70.094 343.442 70.1908 344.31ZM68.543 330.543C68.543 335.92 63.1869 338.261 63.307 327.57C63.307 322.433 63.307 317.292 63.5688 312.17C63.7844 307.837 66.4732 307.837 67.4496 309.334C69.1066 311.915 68.5307 326.443 68.543 330.543ZM20.4272 356.846C33.3078 336.376 54.2333 306.171 67.1108 289.126C81.8147 311.804 94.8308 330.737 106.75 355.392C79.1043 355.823 48.0949 356.538 20.4272 356.846Z" fill="#FF9500"/>
<path d="M520.385 119.538C505.749 144.409 488.098 174.485 475.87 200.289C474.654 202.824 475.436 204.429 477.389 204.626C482.625 205.242 567.158 200.462 579.3 199.834C582.226 199.68 582.552 196.56 580.384 192.938C565.275 167.212 548.042 142.795 528.865 119.942C525.757 116.35 523.703 113.902 520.385 119.538ZM533.765 185.629C533.861 186.306 533.786 186.997 533.546 187.638C533.305 188.279 532.908 188.849 532.389 189.296C531.871 189.743 531.249 190.053 530.58 190.197C529.911 190.341 529.216 190.314 528.56 190.119C524.223 189.143 526.912 184.523 527.02 184.2C528.061 181.104 533.322 182.336 533.765 185.629ZM529.102 144.215C530.051 148.921 531.834 166.745 531.988 171.602C532.142 176.46 526.89 177.131 526.305 173.315C525.35 166.81 523.9 150.48 524.895 144.409C524.995 143.939 525.249 143.515 525.616 143.204C525.983 142.893 526.443 142.712 526.923 142.69C527.404 142.668 527.878 142.806 528.272 143.082C528.667 143.357 528.958 143.756 529.102 144.215ZM479.425 200.764C493.694 173.044 509.892 147.098 524.353 121.143C546.797 147.837 558.159 165.803 576.525 195.562C546.427 197.145 513.382 199.791 479.425 200.764Z" fill="#FF9500"/>
<path d="M563.101 235.675C501.716 235.715 511.603 306.429 558.764 310.119C612.106 314.28 615.402 235.645 563.101 235.675ZM587.146 258.4C586.838 259.807 575.026 271.539 564.12 290.515C563.775 291.139 563.197 291.6 562.512 291.798C561.827 291.996 561.092 291.915 560.467 291.571C559.916 291.263 545.113 278.281 539.77 273.341C538.035 271.736 540.269 268.179 542.348 269.805C548.723 274.77 554.862 280.04 561.105 285.18C567.353 274.792 574.54 264.998 582.575 255.92C582.989 255.504 583.527 255.232 584.107 255.148C584.688 255.063 585.281 255.169 585.796 255.45C586.312 255.731 586.722 256.172 586.965 256.706C587.209 257.24 587.272 257.839 587.146 258.412V258.4Z" fill="#3A5AB7"/>
<path d="M490.767 466.004C442.562 468.453 439.417 549.725 496.662 546.82C553.907 543.916 550.177 462.982 490.767 466.004ZM513.596 524.29C510.824 524.29 497.833 512.472 494.907 509.937C491.328 513.513 483.024 522.257 479.728 524.595C479.308 524.883 478.798 525.01 478.292 524.954C477.786 524.898 477.317 524.661 476.97 524.288C476.623 523.915 476.422 523.43 476.403 522.921C476.384 522.412 476.549 521.913 476.867 521.515C481.331 516.244 486.08 511.22 491.09 506.466C487.142 502.976 478.903 496.123 476.454 492.242C475.222 490.311 477.865 488.62 479.51 489.532C484.834 493.655 489.944 498.048 494.82 502.693C497.204 500.287 508.351 488.426 510.95 487.08C512.838 486.104 514.766 488.62 513.922 490.333C512.774 492.612 500.912 503.885 498.744 506.142C503.976 510.091 508.993 514.318 513.772 518.804C515.721 521.031 517.889 524.284 513.596 524.284V524.29Z" fill="#3A5AB7"/>
<path d="M379.81 89.745C380.636 108.287 387.202 124.201 411.858 125.655C416.906 126.083 421.987 125.446 426.774 123.786C431.56 122.125 435.944 119.478 439.642 116.015C443.34 112.552 446.27 108.351 448.241 103.684C450.212 99.017 451.181 93.988 451.084 88.9227C450.887 70.0577 441.438 54.7347 416.391 53.7522C392.392 52.8158 378.886 68.952 379.81 89.745ZM427.664 105.508L415.492 92.7819C410.395 97.4666 405.451 102.345 400.184 106.854C399.738 107.141 399.206 107.264 398.68 107.204C398.153 107.144 397.663 106.903 397.293 106.523C396.923 106.143 396.696 105.647 396.65 105.118C396.603 104.59 396.741 104.062 397.04 103.624C399.424 100.522 408.488 92.1752 411.913 88.9011C409.757 86.5572 399.75 76.7998 398.903 73.9385C398.752 73.4395 398.903 68.1912 405.679 74.958C409.067 78.346 412.378 81.8325 415.738 85.2575C419.032 81.8362 422.5 78.5866 426.127 75.5216C429.269 73.1377 432.222 76.8891 428.705 80.2925C425.625 83.2616 422.527 86.1692 419.425 89.0952L431.656 101.803C432.153 102.334 432.419 103.041 432.396 103.768C432.372 104.495 432.06 105.183 431.529 105.681C430.999 106.178 430.292 106.445 429.564 106.421C428.837 106.397 428.149 106.086 427.652 105.555L427.664 105.508Z" fill="#3A5AB7"/>
<path d="M160.851 152.802C160.025 134.285 148.925 117.074 119.326 117.074C96.7313 117.074 83.5982 132.686 84.6331 155.019C85.668 177.352 100.649 189.583 121.821 190.603C126.953 191.047 132.121 190.385 136.975 188.659C141.829 186.934 146.256 184.187 149.956 180.603C153.657 177.019 156.544 172.682 158.424 167.886C160.303 163.09 161.131 157.946 160.851 152.802ZM142.371 141.677C137.178 146.546 132.114 151.564 126.971 156.51C130.008 160.043 132.804 163.816 136.078 167.133C141.955 173.161 137.249 176.934 134.735 173.964C130.853 169.388 126.964 164.804 123.068 160.215C118.77 164.617 114.193 168.739 109.365 172.554C107.696 173.681 105.438 171.297 106.612 169.692C110.672 164.938 115.016 160.434 119.622 156.205C116.413 152.389 106.612 141.178 104.573 137.725C103.119 135.209 106.501 133.604 108.127 135.166C113.462 140.328 118.581 146.79 123.46 152.512C128.489 147.633 133.476 142.656 138.638 137.898C143.027 133.829 144.367 139.81 142.377 141.68L142.371 141.677Z" fill="#3A5AB7"/>
<path d="M194.74 262.086C172.776 262.086 162.671 278.521 164.947 299.555C167.223 320.588 177.957 327.746 197.105 327.746C216.254 327.746 228.213 317.034 228.004 297.386C227.794 277.739 214.452 262.086 194.74 262.086ZM207.368 308.533C205.212 307.883 198.695 298.819 196.372 296.237C192.036 300.075 187.918 304.024 183.516 307.707C181.564 309.334 178.588 306.321 180.415 304.476C184.419 300.337 188.731 296.468 192.904 292.486C189.775 289.586 186.935 286.388 184.425 282.938C184.209 282.353 184.425 277.496 190.542 282.938C192.698 284.866 194.638 286.97 196.702 288.966L203.379 282.784C205.267 281.05 210.155 278.447 209.582 282.784C209.321 284.94 202.773 290.308 200.148 292.739C201.95 294.778 210.004 303.58 209.906 306.355C209.914 306.676 209.851 306.995 209.721 307.288C209.59 307.581 209.396 307.841 209.152 308.05C208.909 308.259 208.621 308.41 208.312 308.494C208.002 308.577 207.677 308.591 207.362 308.533H207.368Z" fill="#3A5AB7"/>
<path d="M294.571 289.212C287.61 289.212 279.393 288.541 275.685 295.717C274.819 297.343 277.462 298.625 278.457 297.192C282.079 292.076 292.27 293.355 298.212 293.355C305.77 293.584 313.336 293.378 320.871 292.739C321.206 292.676 321.508 292.499 321.725 292.238C321.942 291.976 322.061 291.647 322.061 291.306C322.061 290.966 321.942 290.637 321.725 290.375C321.508 290.114 321.206 289.937 320.871 289.874C318.891 288.87 296.81 289.212 294.571 289.212ZM279.587 277.483C279.827 277.199 280.161 277.011 280.528 276.954C280.895 276.897 281.271 276.975 281.585 277.173C281.9 277.371 282.132 277.676 282.239 278.032C282.346 278.388 282.321 278.771 282.168 279.11C280.513 282.875 278.433 286.439 275.968 289.733C269.94 299.145 262.025 310.572 253.632 317.619C252.289 318.746 250.466 316.643 251.596 315.463C256.904 309.67 261.877 303.579 266.491 297.22C269.549 292.834 278.318 278.432 279.587 277.483ZM286.092 319.938C282.254 318.463 284.509 326.314 271.761 333.425C271.424 333.627 271.171 333.944 271.049 334.318C270.927 334.691 270.944 335.096 271.097 335.458C271.25 335.82 271.529 336.114 271.882 336.287C272.234 336.459 272.638 336.499 273.017 336.398C276.219 335.103 279.128 333.176 281.568 330.732C284.008 328.287 285.93 325.376 287.219 322.171C287.316 321.737 287.255 321.282 287.049 320.887C286.843 320.493 286.504 320.184 286.092 320.015V319.938ZM311.982 308.727C312.352 310.68 313.522 315.885 310.794 315.906C308.493 315.906 308.795 312.001 308.638 310.701C308.563 308.478 307.848 306.324 306.579 304.497C305.31 302.67 303.54 301.248 301.483 300.402C297.074 299.177 292.456 298.895 287.931 299.576C287.594 299.575 287.269 299.451 287.017 299.227C286.765 299.004 286.602 298.697 286.56 298.363C286.517 298.029 286.598 297.691 286.786 297.411C286.974 297.132 287.257 296.93 287.583 296.844C292.904 295.373 298.552 295.601 303.737 297.497C305.917 298.573 307.808 300.152 309.254 302.106C310.701 304.059 311.66 306.329 312.053 308.727H311.982ZM304.655 308.749C305.991 311.598 306.317 314.818 305.579 317.878C304.908 322.214 302.545 321.392 302.154 320.523C300.833 317.49 303.823 315.95 301.135 310.224C298.273 304.11 292.819 305.043 287.041 305.259C286.673 305.252 286.32 305.114 286.046 304.87C285.771 304.626 285.593 304.292 285.543 303.928C285.493 303.564 285.575 303.194 285.774 302.885C285.973 302.576 286.276 302.349 286.628 302.244C294.202 300.639 301.104 301.224 304.655 308.749ZM297.879 316.122C295.581 308.511 294.041 309.962 284.869 310.31C284.444 310.31 284.035 310.479 283.734 310.78C283.434 311.081 283.264 311.489 283.264 311.915C283.264 312.34 283.434 312.749 283.734 313.049C284.035 313.35 284.444 313.519 284.869 313.519C287.519 313.224 290.196 313.291 292.828 313.717C293.955 314.04 295.169 319.83 294.476 322.39C293.968 323.742 293.107 324.932 291.981 325.836C289.517 328.3 295.985 330.044 298.162 323.927C298.906 321.363 298.81 318.628 297.888 316.122H297.879Z" fill="#212941"/>
<path d="M303.941 323.754C301.785 323.446 301.785 327.007 301.23 330.259C300.922 332.255 300.211 334.836 301.23 335.92C303.386 338.076 304.44 334.14 304.849 330.376C305.046 328.75 306.13 324.105 303.851 323.871L303.941 323.754ZM334.925 336.591C334.617 331.3 334.362 288.063 337.657 287.392C340.476 286.622 342.948 284.913 344.663 282.547C346.378 280.181 347.234 277.3 347.088 274.382C347.307 263.734 341.018 266.771 339.847 268.961C337.007 274.252 329.683 254.519 329.683 243.505C308.715 239.809 282.307 236.045 273.319 213.712C268.656 202.153 296.022 195.888 336.983 229.54C361.983 218.027 354.329 242.55 345.394 263.389C353.917 265.773 353.418 287.022 340.017 291.229C338.326 307.405 338.631 321.327 338.132 336.419C338.132 338.932 335.009 339.323 334.879 336.699L334.925 336.591ZM289.736 238.278C286.594 245.802 283.406 274.73 283.927 283.532C283.927 285.008 286.44 285.223 286.548 283.705C287.33 271.456 289.671 250.133 293.053 238.928C293.53 237.302 290.475 236.772 289.847 238.278H289.736ZM327.638 301.418C325.482 299.675 324.669 302.718 320.831 305.422C317.97 307.418 314.326 308.308 314.979 310.171C315.903 312.534 319.793 310.606 323.175 308.132C324.518 307.19 330.099 303.405 327.638 301.421V301.418Z" fill="#212941"/>
<path d="M345.092 337.478C335.906 344.105 325.28 348.46 314.086 350.187C306.977 351.249 306.78 349.666 302.939 344.07C301.599 342.077 300.296 340.038 298.935 338.021C298.736 337.661 298.403 337.395 298.008 337.282C297.613 337.168 297.189 337.216 296.83 337.415C296.471 337.614 296.205 337.948 296.091 338.343C295.978 338.737 296.026 339.161 296.225 339.521C298.075 343.752 300.481 347.718 303.38 351.314C299.446 354.994 295.82 358.989 292.538 363.261C289.788 357.399 287.841 351.192 286.751 344.809L290.447 343.355C290.887 343.2 291.247 342.876 291.448 342.456C291.649 342.035 291.675 341.551 291.52 341.111C291.365 340.671 291.041 340.311 290.62 340.11C290.2 339.909 289.716 339.883 289.276 340.038C283.313 341.901 277.372 344.378 271.517 346.546C273.673 339.462 273.189 338.781 269.697 336.85C256.687 329.695 251.137 325.165 245.608 317.335C244.394 315.644 242.55 318.136 243.612 319.83C249.51 329.218 256.145 335.202 269.025 341.359C267.399 346.392 265.794 351.451 264.211 356.538C251.7 353.31 246.082 350.294 237.193 340.321C236.947 340.032 236.601 339.846 236.224 339.799C235.847 339.753 235.466 339.849 235.157 340.07C234.847 340.29 234.632 340.619 234.553 340.99C234.474 341.362 234.537 341.75 234.729 342.077C237.963 346.854 242.126 350.931 246.969 354.064C251.813 357.197 257.238 359.323 262.921 360.314C255.375 384.359 246.831 409.122 240.588 433.387C240.193 434.945 242.744 435.851 243.298 434.311C253.271 407.515 261.618 378.215 270.14 350.741C274.713 349.576 279.17 347.994 283.455 346.016C283.912 352.431 285.605 358.697 288.442 364.469C292.347 372.513 294.534 363.926 305.788 354.187C307.944 357.659 315.952 372.772 319.451 373.268C327.767 374.42 350.177 355.447 355.795 348.767C366.883 355.272 390.491 368.673 397.56 379.601C409.399 397.816 426.463 536.114 374.099 535.92C337.755 535.769 300.201 514.603 267.956 499.924C268.979 487.303 272.331 474.98 277.843 463.58C278.647 461.732 276.325 460.977 275.284 462.56C268.827 473.497 265.267 485.9 264.941 498.596C259.39 496.121 253.708 493.95 247.921 492.091C248.657 480.227 254.426 459.933 260.549 453.493C296.103 458.804 331.055 467.563 364.912 479.645C366.366 480.166 367.213 477.603 365.934 476.827C360.928 474.343 355.701 472.331 350.322 470.818C348.894 448.698 350.189 426.485 354.178 404.681C354.226 404.51 354.24 404.332 354.219 404.156C354.198 403.98 354.143 403.809 354.056 403.655C353.97 403.5 353.854 403.364 353.714 403.254C353.575 403.144 353.415 403.063 353.245 403.015C353.074 402.967 352.896 402.953 352.719 402.973C352.543 402.994 352.373 403.05 352.218 403.136C352.064 403.223 351.927 403.339 351.818 403.478C351.708 403.618 351.627 403.777 351.578 403.948C347.048 415.036 346.441 456.4 347.525 469.888C338.113 466.786 263.823 447.142 258.621 450.792C251.768 455.519 244.453 478.696 244.699 491.99C244.699 494.854 246.584 495.134 248.82 496.068C278.524 508.492 335.445 539.043 372.415 540.087C372.981 545.354 373.523 557.28 374.019 561.163C374.26 563.048 376.992 562.42 376.902 560.547C376.644 554.387 377.056 545.954 376.406 540.081C427.929 538.387 415.005 402.993 402.426 379.881C393.58 363.64 358.647 346.487 357.803 345.693C356.959 344.898 346.962 336.237 345.095 337.58L345.092 337.478ZM239.06 320.893C240.363 318.918 242.596 320.893 241.361 323.049C225.727 347.572 174.38 431.033 189.213 460.306C191.921 465.308 196.032 469.409 201.04 472.106C206.048 474.802 211.735 475.977 217.401 475.484C217.823 475.465 218.236 475.609 218.554 475.887C218.873 476.164 219.072 476.553 219.112 476.973C219.152 477.393 219.028 477.813 218.767 478.144C218.506 478.476 218.127 478.695 217.709 478.755C211.149 479.817 204.421 478.707 198.55 475.594C192.679 472.48 187.986 467.534 185.185 461.507C169.834 429.869 222.046 346.755 239.177 320.89L239.06 320.893ZM231.308 495.033C231.283 494.716 231.15 494.418 230.929 494.189C230.709 493.96 230.416 493.815 230.101 493.779C229.786 493.743 229.467 493.817 229.201 493.99C228.934 494.162 228.736 494.422 228.64 494.725C225.908 503.965 226.992 534.457 230.223 543.534C230.787 545.074 233.325 544.855 233.128 543.121C231.292 527.162 230.683 511.085 231.308 495.033ZM289.52 527.558C290.019 528.534 289.212 535.951 290.32 548.831C290.45 550.411 288.164 550.501 287.653 549.065C286.831 546.207 285.118 530.444 287.003 527.382C287.145 527.173 287.338 527.004 287.563 526.89C287.789 526.777 288.04 526.723 288.292 526.734C288.545 526.745 288.79 526.821 289.005 526.954C289.22 527.086 289.397 527.272 289.52 527.493V527.558ZM300.839 365.691C301.227 364.173 304.069 363.954 303.808 365.691C299.97 393.661 298.017 423.041 295.461 448.694C295.264 450.579 292.489 450.083 292.575 448.238C293.336 433.538 297.13 380.327 300.839 365.627V365.691ZM352.77 346.176C340.17 358.752 333.08 364.127 320.738 369.701C317.461 364.693 314.233 359.664 310.935 354.677C321.776 354.677 337.805 347.519 346.392 341.492L352.77 346.176Z" fill="#212941"/>
<path d="M304.699 281.666C302.952 281.627 301.223 281.298 299.583 280.693C301.21 277.462 302.857 274.188 304.484 270.978C304.576 270.7 304.573 270.398 304.475 270.121C304.377 269.844 304.19 269.608 303.944 269.449C303.697 269.29 303.404 269.217 303.112 269.243C302.819 269.268 302.543 269.39 302.328 269.589C300.418 273.285 298.533 276.981 296.58 280.646C295.019 283.619 303.258 284.509 304.647 284.552C305.005 284.522 305.339 284.36 305.585 284.098C305.83 283.836 305.97 283.492 305.977 283.133C305.983 282.773 305.856 282.424 305.62 282.154C305.384 281.883 305.056 281.709 304.699 281.666ZM300.363 246.973C287.048 250.053 291.495 254.519 293.858 253.586C296.15 252.639 298.51 251.863 300.917 251.266C303.778 250.65 302.435 246.474 300.332 246.93L300.363 246.973ZM309.036 254.953C308.644 255.22 308.349 255.607 308.196 256.056C308.043 256.505 308.039 256.991 308.185 257.442C308.332 257.893 308.62 258.285 309.008 258.558C309.396 258.831 309.862 258.971 310.336 258.957C313.629 258.224 317.016 258.005 320.376 258.307C322.871 258.526 322.067 255.163 320.376 254.774C319.573 254.759 313.964 251.442 309.036 254.953ZM296.805 262.933C298.943 267.091 294.486 272.019 293.272 269.004C291.797 265.317 295.265 259.93 296.805 262.933ZM316.517 266.552C316.018 263.321 310.902 266.552 312.821 272.235C313.905 275.183 317.441 271.801 316.616 266.531L316.517 266.552Z" fill="#212941"/>
<path d="M241.211 486.6C237.515 483.301 230.779 484.583 226.507 487.524C225.164 481.019 224.73 458.572 231.743 454.411C235.214 452.255 239.594 453.351 242.584 452.982C244.103 452.809 244.928 450.361 243.2 449.754C241.046 449.027 238.768 448.738 236.5 448.905C234.232 449.072 232.021 449.692 229.996 450.727C221.083 455.717 220.347 478.657 222.912 488.174C222.966 488.872 223.216 489.54 223.631 490.103C224.047 490.666 224.613 491.1 225.264 491.357C225.915 491.614 226.625 491.683 227.313 491.556C228.001 491.429 228.639 491.111 229.155 490.638C233.363 487.801 236.572 488.95 239.997 488.95C241.081 488.95 242.153 487.475 241.103 486.631L241.211 486.6ZM253.223 442.387C258.526 447.296 254.264 449.347 251.596 446.354C246.219 440.326 245.871 441.626 238.152 445.011C237.09 445.467 232.731 443.406 241.211 439.956C246.588 437.767 248.618 438.121 253.223 442.387Z" fill="#212941"/>
<path d="M541.028 349.189C541.268 345.739 558.584 321.001 562.258 320.853C565.933 320.705 585.666 344.184 584.85 347.131C584.484 348.477 575.441 349.475 565.683 349.953C566.299 362.963 569.758 409.538 569.13 417.343C568.849 420.639 543.239 416.693 492.934 417.756C493.325 427.057 494.714 447.57 494.452 454.617C494.482 454.908 494.453 455.202 494.367 455.481C494.281 455.761 494.139 456.02 493.95 456.243C493.762 456.467 493.53 456.65 493.269 456.782C493.008 456.913 492.723 456.991 492.431 457.01C492.139 457.029 491.846 456.989 491.57 456.893C491.294 456.796 491.041 456.645 490.825 456.448C490.608 456.251 490.434 456.012 490.312 455.746C490.19 455.481 490.124 455.193 490.115 454.901C487.772 438.767 484.045 285.42 485.28 271.283C471.749 270.806 419.103 271.631 412.284 269.679C409.466 268.899 409.182 170.758 409.379 159.787C341.139 158.725 273.099 157.141 204.359 157.292C204.513 165.036 206.823 224.744 204.975 228.351C203.78 230.67 133.418 228.025 125.071 228.068C125.299 251.431 125.53 274.791 125.764 298.15C129.645 297.759 153.792 296.438 156.816 296.98C158.972 297.368 158.809 300.925 156.816 301.055C146.492 301.794 136.128 301.837 125.807 302.225C125.677 317.837 125.57 467.455 123.922 469.189C122.274 470.923 74.7435 469.34 46.7494 470.294C40.0094 476.251 32.7993 481.653 25.1894 486.449C23.5416 487.065 22.3065 451.337 23.0334 449.797C24.0313 447.333 42.0709 461.094 47.1898 466.257C60.3291 465.431 107.102 464.63 120.263 465.844C120.805 386.546 121.519 307.553 120.74 228.213L69.7847 229.408C69.7847 240.659 69.3073 270.778 68.3741 275.223C68.2951 275.591 68.0869 275.92 67.7871 276.149C67.4873 276.378 67.1155 276.493 66.7388 276.472C66.3621 276.451 66.0052 276.296 65.7324 276.036C65.4596 275.775 65.2889 275.425 65.251 275.05C64.6873 270.214 65.251 238.925 65.251 229.515C65.251 226.435 66.791 225.33 67.8105 225.179C82.5329 223.965 105.322 223.682 120.719 223.531C120.719 215.92 120.589 207.962 120.565 199.374C120.565 196.837 124.338 197.218 124.427 199.723C124.735 209.437 124.948 216.527 125.142 223.574C150.642 223.387 176.141 223.849 201.64 224.96C201.489 219.083 199.927 158.718 200.275 155.574C200.469 153.883 201.424 153.211 203.355 153.19C270.789 152.321 342.128 153.19 409.586 155.346C409.493 148.409 409.884 141.475 410.756 134.593C410.822 134.165 411.044 133.777 411.379 133.502C411.713 133.227 412.138 133.086 412.57 133.105C413.003 133.123 413.413 133.301 413.723 133.603C414.033 133.906 414.22 134.312 414.249 134.744C414.643 141.656 414.643 148.585 414.249 155.497C437.752 156.276 458.484 157.231 485.803 158.337C488.686 158.466 489.013 162.978 486.111 162.846L413.953 160C413.476 194.065 413.584 235.133 416.276 265.952C422.02 265.539 483.795 265.173 488.348 267.319C490.297 268.243 492.49 403.08 492.684 413.856C501.659 413.053 549.603 413.856 564.846 413.964L560.632 350.196C550.527 350.47 540.957 350.23 541.028 349.189Z" fill="#212941"/>
</svg>
