<svg width="616" height="616" viewBox="0 0 616 616" fill="none" xmlns="http://www.w3.org/2000/svg">
<path d="M597.778 554.298C405.102 554.163 213.958 554.298 17.3211 554.298C17.068 554.284 16.8146 554.322 16.5773 554.411C16.34 554.501 16.124 554.639 15.9434 554.817C15.7627 554.995 15.6214 555.209 15.5285 555.445C15.4356 555.681 15.3932 555.933 15.404 556.187C15.4148 556.44 15.4786 556.688 15.5913 556.915C15.704 557.143 15.863 557.344 16.0582 557.506C16.2533 557.667 16.4803 557.787 16.7243 557.855C16.9684 557.924 17.2242 557.941 17.4751 557.905C213.126 560.092 405.278 558.65 597.954 558.804C598.289 558.857 598.631 558.834 598.957 558.738C599.282 558.642 599.582 558.476 599.836 558.25C600.089 558.024 600.289 557.746 600.422 557.433C600.555 557.121 600.617 556.784 600.604 556.445C600.59 556.106 600.502 555.774 600.346 555.473C600.189 555.172 599.968 554.91 599.697 554.704C599.427 554.499 599.115 554.356 598.783 554.286C598.451 554.216 598.108 554.22 597.778 554.298Z" fill="#212941"/>
<path d="M258.975 167.349C256.231 164.365 255.193 167.13 254.995 169.887C253.662 188.108 273.611 195.217 280.347 179.906C282.01 176.121 281.835 174.852 278.16 175.092C274.561 175.656 270.876 175.233 267.498 173.87C264.12 172.507 261.174 170.253 258.975 167.349ZM277.285 178.594C274.486 186.47 260.311 189.374 257.881 170.608C260.243 173.392 263.237 175.569 266.613 176.959C269.989 178.348 273.648 178.909 277.285 178.594Z" fill="#212941"/>
<path d="M263.647 154.354C265.834 153.868 265.092 148.909 263.78 147.794C260.333 144.708 260.001 155.173 263.647 154.354Z" fill="#212941"/>
<path d="M263.154 133.835C261.078 134.018 259.101 134.806 257.468 136.101C255.835 137.396 254.617 139.142 253.967 141.123C253.967 141.449 254.404 144.403 257.007 141.492C257.778 140.466 258.767 139.623 259.901 139.022C261.035 138.421 262.288 138.077 263.57 138.015C267.343 137.248 266.13 133.771 263.154 133.835Z" fill="#212941"/>
<path d="M281.615 166.342C284.171 165.523 285.751 163.718 283.155 161.414C280.387 158.864 278.484 155.515 277.709 151.832C277.669 151.528 277.512 151.253 277.271 151.064C277.029 150.875 276.724 150.789 276.419 150.824C276.115 150.859 275.837 151.012 275.644 151.25C275.452 151.488 275.36 151.792 275.39 152.097C275.833 156.387 277.8 160.376 280.934 163.339C278.177 165.002 276.274 164.106 275.224 165.024C273.456 166.582 276.181 168.088 281.615 166.342Z" fill="#212941"/>
<path d="M292.6 137.95C292.048 136.663 291.134 135.563 289.968 134.786C288.803 134.009 287.437 133.588 286.036 133.574C282.71 133.574 283.369 136.811 285.512 137.076C287.447 137.128 289.291 137.909 290.675 139.262C292.03 140.399 293.102 139.875 292.6 137.95Z" fill="#212941"/>
<path d="M287.055 154.071C289.242 153.892 288.903 146.765 286.528 147.202C283.694 147.751 284.942 154.243 287.055 154.071Z" fill="#212941"/>
<path d="M228.2 221.643C235.457 231.539 259.875 249.249 273.655 256.884C277.308 258.917 279.344 260.688 281.595 255.899C285.621 247.432 287.392 221.051 285.337 217.531C284.703 216.459 283.15 216.961 282.735 217.858C281.811 219.521 283.043 241.614 278.49 255.329C261.011 245.583 244.896 233.57 230.563 219.604C229.401 218.47 227.042 220.066 228.2 221.643Z" fill="#212941"/>
<path d="M497.59 215.452C496.296 216.068 496.955 218.338 498.4 217.916C512.814 213.718 516.338 204.364 524.213 200.419C534.211 195.491 542.194 192.916 549.719 183.787C550.55 182.801 549.019 181.467 548.077 182.277C537.14 191.684 533.924 192.164 522.066 197.588C514.28 201.124 513.393 208.048 497.59 215.452Z" fill="#212941"/>
<path d="M491.093 191.576C494.296 189.664 498.334 188.712 501.897 187.006C508.088 188.684 514.042 191.138 519.617 194.311C521.28 195.275 522.768 193.677 521.807 192.648C529.288 187.859 542.172 180.636 545.384 171.957C545.735 170.993 544.152 169.637 543.57 170.512C539.612 176.287 529.507 183.448 519.506 190.551L514.846 188.361C520.47 185.016 533.88 170.731 536.135 164.124C536.208 163.867 536.195 163.592 536.098 163.343C536.001 163.093 535.826 162.882 535.598 162.741C535.37 162.6 535.103 162.537 534.836 162.561C534.57 162.586 534.319 162.697 534.12 162.877C527.797 168.729 522.875 179.262 511.214 186.941C509.355 186.222 507.458 185.605 505.532 185.093C512.724 179.976 518.599 173.226 522.675 165.396C522.773 165.089 522.746 164.755 522.6 164.467C522.455 164.179 522.202 163.96 521.896 163.856C519.152 162.932 511.667 178.924 499.507 184.655C496.141 185.89 492.928 187.505 489.929 189.47C488.706 190.295 489.812 192.352 491.093 191.576Z" fill="#212941"/>
<path d="M472.434 205.806C475.902 192.346 481.184 192.395 484.902 185.724C487.578 180.306 488.54 174.201 487.659 168.223C487.307 166.804 485.472 167.241 485.296 168.51C484.529 175.181 485.69 180.781 478.733 187.803C473.876 192.731 469.801 198.213 469.982 205.501C469.987 205.801 470.1 206.09 470.301 206.314C470.502 206.538 470.777 206.682 471.076 206.719C471.374 206.756 471.676 206.684 471.926 206.516C472.175 206.348 472.356 206.096 472.434 205.806Z" fill="#212941"/>
<path d="M316.399 480.6C313.393 496.743 310.513 520.348 314.452 536.293C314.911 538.141 318.105 537.891 317.733 536.074C314.388 519.405 317.733 495.52 320.643 480.797C321.321 477.342 317.206 476.27 316.399 480.6Z" fill="#212941"/>
<path d="M286.319 210.727C322.894 211.839 359.975 212.575 395.435 212.914C415.732 213.154 428.726 214.762 433.279 245.42C433.627 247.761 437.652 247.478 437.433 245.094C434.085 214.248 420.216 208.867 395.345 208.627C359.491 208.279 322.851 207.447 286.649 207.577C284.592 207.687 284.244 210.672 286.319 210.727Z" fill="#212941"/>
<path d="M100.949 437.791C104.195 463.626 112.893 472.377 140.542 473.097C237.187 475.438 343.785 474.123 441.545 473.097C472.477 472.789 476.041 460.673 471.689 433.196C466.329 399.184 461.888 363.828 454.887 330.229C454.518 328.525 451.912 328.689 452.115 330.493C455.746 365.276 462.64 399.51 467.583 434.052C470.996 457.891 470.663 468.548 441.88 468.634C349.545 468.899 235.486 471.065 145.538 469.463C127.884 469.155 108.175 469.312 104.882 437.53C98.2078 372.822 92.325 307.942 86.0018 243.182C83.5963 218.44 98.2078 211.223 122.906 210.74C155.172 210.084 189.385 210.543 220.709 210.74C220.965 210.759 221.222 210.727 221.466 210.646C221.71 210.564 221.935 210.435 222.127 210.265C222.32 210.095 222.477 209.888 222.589 209.657C222.7 209.426 222.765 209.174 222.777 208.918C222.79 208.661 222.752 208.404 222.664 208.163C222.576 207.921 222.441 207.7 222.266 207.511C222.092 207.323 221.881 207.172 221.647 207.066C221.413 206.96 221.16 206.902 220.903 206.896C220.595 206.878 147.528 206.225 122.447 206.761C97.8813 207.219 78.9578 213.715 81.89 243.576C88.13 307.766 92.9287 373.943 100.949 437.791Z" fill="#212941"/>
<path d="M239.441 478.127C234.452 491.396 227.278 513.938 226.906 527.915C226.49 544.452 232.878 549.943 248.629 549.943C285.028 549.943 327.597 549.943 364.566 549.768C367.52 549.768 367.03 545.219 364.086 545.219C324.492 545.219 283.365 545.394 244.034 545.219C233.383 545.219 231.347 537.432 231.433 528.353C231.587 512.626 239.352 490.225 243.334 479.571C243.526 479.055 243.505 478.484 243.275 477.983C243.045 477.483 242.626 477.094 242.11 476.903C241.594 476.711 241.023 476.732 240.522 476.962C240.022 477.192 239.633 477.611 239.441 478.127Z" fill="#212941"/>
<path d="M109.175 419.875C222.137 420.06 345.103 419.875 457.36 419.545C460.181 419.545 459.919 415.172 457.12 415.172C344.77 415.172 221.7 415.674 108.978 416.441C106.723 416.416 107.01 419.872 109.175 419.875Z" fill="#212941"/>
<path d="M271.467 211.288C272.166 213.324 274.507 221.483 276.629 220.762C278.751 220.042 275.579 212.012 274.781 209.825C274.535 209.477 274.176 209.225 273.765 209.111C273.353 208.997 272.916 209.029 272.526 209.201C272.135 209.374 271.817 209.676 271.624 210.056C271.431 210.436 271.375 210.872 271.467 211.288Z" fill="#212941"/>
<path d="M225.147 128.935C227.884 128.844 230.581 129.612 232.859 131.13C235.138 132.648 236.885 134.841 237.855 137.402C241.061 135.296 243.812 132.57 245.946 129.384C248.081 126.198 249.555 122.617 250.283 118.851C261.765 119.005 297.53 121.038 298.947 118.13C300.364 115.223 298.947 82.4517 261.759 81.9035C234.279 81.5339 220.299 101.505 225.147 128.935Z" fill="#212941"/>
<path d="M181.211 187.014C177.062 192.269 186.447 190.624 193.374 183.996C200.301 177.368 207.441 155.318 203.895 135.498C200.35 115.678 206.082 106.238 213.105 106.546C213.936 100.18 218.649 81.3888 234.258 74.0831C223.343 58.9233 198.472 51.4636 179.416 77.4526C163.239 99.5362 183.398 131.125 185.606 150.593C187.815 170.062 185.351 181.769 181.211 187.014Z" fill="#212941"/>
<path d="M234.631 214.248C234.803 210.072 234.169 190.886 233.091 188C232.93 187.712 232.689 187.477 232.397 187.324C232.105 187.17 231.775 187.104 231.447 187.134C231.118 187.164 230.805 187.289 230.546 187.493C230.287 187.697 230.093 187.971 229.986 188.284C230.176 197.071 230.906 205.837 232.173 214.535C232.271 214.803 232.457 215.031 232.701 215.181C232.944 215.331 233.231 215.394 233.515 215.361C233.799 215.328 234.064 215.2 234.266 214.998C234.469 214.796 234.597 214.532 234.631 214.248Z" fill="#212941"/>
<path d="M295.527 123.927C295.527 141.141 295.527 173.497 283.016 189.553C282.092 190.711 283.802 193.051 286.537 189.947C297.277 177.762 301.653 137.587 298.549 123.773C298.219 122.067 295.527 122.156 295.527 123.927Z" fill="#212941"/>
<path d="M329.346 189.793C344.398 189.91 366.534 178.856 377.474 168.772C432.816 194.585 506.012 162.975 483.235 98.7695C463.859 44.0841 366.688 45.4393 341.706 88.2698C329.436 109.294 330.769 140.63 354.045 153.72C350.019 164.33 339.236 180.408 327.948 187.366C327.314 187.692 326.171 189.768 329.346 189.793ZM355.948 158.86C358.674 153.695 359.863 153.064 354.658 149.432C335.121 135.88 334.684 109.577 345.556 90.3703C366.5 53.358 452.74 50.7769 474.839 92.7758C502.251 144.926 449.275 194.037 379.31 164.746C378.71 164.377 377.998 164.236 377.303 164.35C376.608 164.463 375.977 164.822 375.525 165.362C361.831 178.113 352.098 181.994 335.953 185.662C343.977 177.827 350.724 168.784 355.948 158.86Z" fill="#FF9500"/>
<path d="M442.903 127.404C427.152 127.404 398.277 128.411 383.358 128.455C377.998 128.455 376.948 133.53 383.358 133.383C396.743 133.121 435.859 133.229 443.843 132.151C446.467 131.824 445.57 127.404 442.903 127.404Z" fill="#FF9500"/>
<path d="M378.325 110.911C386.9 111.564 443.005 111.721 448.327 108.068C448.593 107.882 448.806 107.631 448.946 107.338C449.086 107.046 449.148 106.722 449.126 106.399C449.104 106.075 448.999 105.763 448.821 105.492C448.642 105.221 448.397 105.001 448.109 104.852C445.679 103.562 379.945 106.229 378.107 106.58C374.783 107.215 374.98 110.655 378.325 110.911Z" fill="#FF9500"/>
<path d="M225.289 170.5C228.006 177.558 232.459 183.818 238.236 188.7C244.013 193.582 250.928 196.929 258.34 198.432C258.756 202.809 262.036 204.537 265.603 205.608C285.817 211.581 291.614 191.607 273.919 190.516C269.545 190.255 262.72 190.366 259.68 194.062C252.801 192.699 246.381 189.61 241.024 185.084C235.667 180.558 231.548 174.745 229.056 168.19C238.068 162.371 239.029 130.826 221.836 132.862C219.649 119.735 219.868 106.26 224.962 96.0005C237.695 70.3194 285.734 71.4128 298.442 96.2654C305.902 110.855 303.715 148.545 300.629 164.558C300.013 167.795 305.267 165.716 306.173 165.15C314.661 159.855 318.228 138.899 307.713 135.508C308.175 124.287 307.888 107.421 303.798 97.1616C291.571 66.3832 236.817 63.6697 221.199 93.6597C214.832 105.869 214.635 120.896 217.829 134.088C201.773 142.062 210.363 174.414 225.289 170.5Z" fill="#3A5AB7"/>
<path d="M466.899 209.154C461.626 215.714 424.922 269.965 409.697 285.978C411.864 288.141 413.92 290.411 415.857 292.782C416.072 293.005 416.192 293.303 416.192 293.613C416.191 293.922 416.069 294.22 415.853 294.442C415.637 294.664 415.343 294.793 415.033 294.801C414.723 294.81 414.422 294.698 414.194 294.488C393.678 274.604 359.506 244.503 336.495 230.394C326.562 224.314 313.503 219.697 290.557 216.37C291.628 227.988 299.307 287.792 299.612 326.141C300.289 353.812 301.799 382.164 302.107 409.748C322.385 409.748 340.739 409.748 354.605 409.877C358.982 351.253 365.545 306.06 346.289 278.629C345.347 277.271 347.863 275.827 348.781 277.185C362.213 296.456 364.095 317.259 363.001 340.118C376.455 348.585 410.076 358.386 424.075 355.081C439.259 351.493 491.45 252.268 499.171 224.378C492.01 216.567 474.072 209.875 466.899 209.154ZM317.599 283.003C323.759 288.495 330.246 293.657 336.107 299.475C336.313 299.769 336.438 300.112 336.468 300.469C336.499 300.827 336.435 301.186 336.282 301.511C327.991 323.379 314.211 346.245 308.806 368.273C308.217 370.737 295.377 379.077 333.138 301.511C327.757 296.583 322.305 291.775 316.992 286.81C311.14 281.364 310.524 285.861 333.658 257.43C327.806 252.422 312.816 239.932 308.547 235.358C307.454 234.126 308.547 232.953 309.924 233.818C315.286 237.317 331.428 250.574 337.357 255.686C337.739 255.985 337.993 256.417 338.07 256.896C338.148 257.374 338.041 257.864 337.773 258.267C338.078 258.261 338.411 257.531 317.599 283.003Z" fill="#3A5AB7"/>
<path d="M219.338 216.918C213.794 216.918 169.331 235.642 156.075 263.269C145.138 285.932 138.423 373.173 137.352 410.096H193.731C192.333 390.409 196.531 349.589 200.294 329.465C200.602 327.891 203.205 328.35 203.066 329.902C201.607 345.943 200.148 361.984 198.69 378.027C201.747 388.881 205.399 399.558 209.63 410.01C238.274 410.01 270.201 409.834 298.642 409.834C297.789 377.35 297.459 352.827 295.513 324.281C277.153 301.618 227.171 234.548 219.338 216.918ZM284.81 341.606C264.623 326.931 243.627 313.405 221.919 301.092C221.461 300.871 221.107 300.479 220.934 300.001C220.762 299.522 220.783 298.995 220.995 298.532C224.756 292.255 228.541 286.021 232.326 279.766C219.629 276.285 207.357 271.406 195.736 265.219C195.268 265.025 194.893 264.655 194.693 264.189C194.493 263.723 194.483 263.198 194.664 262.724C199.454 253.339 204.311 244.284 209.211 234.964C209.373 234.661 209.645 234.43 209.97 234.32C210.296 234.209 210.652 234.226 210.965 234.368C211.278 234.51 211.526 234.766 211.658 235.083C211.79 235.401 211.796 235.757 211.675 236.079C207.563 244.962 203.233 253.734 199.01 262.567C210.5 268.382 222.523 273.076 234.914 276.584C235.921 276.892 236.993 278.771 236.488 279.689C232.878 286.098 229.074 292.378 225.353 298.742C244.277 309.377 270.263 325.23 286.605 339.891C288.265 341.486 286.778 343.017 284.81 341.683V341.606Z" fill="#3A5AB7"/>
</svg>
