<svg width="616" height="616" viewBox="0 0 616 616" fill="none" xmlns="http://www.w3.org/2000/svg">
<path d="M137.524 167.463C138.848 168.156 140.362 168.398 141.836 168.15C142.094 168.049 142.325 167.887 142.508 167.678C142.691 167.47 142.821 167.221 142.889 166.952C142.956 166.683 142.958 166.401 142.894 166.131C142.831 165.861 142.703 165.61 142.523 165.399C141.291 163.681 137.737 163.006 136.671 164.54C135.827 165.757 136.492 166.773 137.524 167.463Z" fill="#212941"/>
<path d="M158.675 162.316C158.875 159.137 153.861 161.7 153.861 163.856C153.667 167.133 158.675 164.343 158.675 162.316Z" fill="#212941"/>
<path d="M141.306 158.004C141.658 157.893 141.958 157.657 142.148 157.341C142.338 157.024 142.405 156.649 142.338 156.286C142.03 155.075 140.616 155.054 139.587 155.254C137.273 155.452 135.007 156.033 132.882 156.973C132.711 157.029 132.568 157.147 132.481 157.305C132.394 157.462 132.37 157.647 132.414 157.822C132.458 157.996 132.566 158.148 132.717 158.245C132.868 158.343 133.05 158.381 133.227 158.349C135.904 157.99 138.608 157.875 141.306 158.004Z" fill="#212941"/>
<path d="M151.797 154.05C150.966 154.881 150.99 155.821 151.283 156.113C151.97 156.8 152.823 155.941 153.516 155.596C154.445 155.092 155.424 154.69 156.439 154.395C157.471 154.222 158.33 152.855 157.301 151.986C156.956 151.641 156.611 151.641 156.097 151.472C153.51 151.472 152.734 153.113 151.797 154.05Z" fill="#212941"/>
<path d="M108.465 317.921C115.731 319.901 117.948 321.259 119.47 320.499C119.589 320.436 119.693 320.35 119.775 320.244C119.858 320.139 119.918 320.017 119.95 319.887C119.983 319.757 119.988 319.622 119.964 319.49C119.941 319.358 119.89 319.233 119.815 319.122C118.956 317.748 116.716 317.776 115.343 317.582C113.273 317.274 111.216 316.907 108.983 316.55C107.948 316.378 107.433 317.576 108.465 317.921Z" fill="#212941"/>
<path d="M107.606 326.69C111.186 327.928 114.869 328.849 118.611 329.44C120.151 329.44 120.151 327.263 118.956 326.862C115.443 325.685 111.8 324.937 108.108 324.632C106.919 324.451 106.402 326.345 107.606 326.69Z" fill="#212941"/>
<path d="M105.714 335.459C108.252 336.259 117.923 339.296 117.923 336.663C117.923 336.376 117.842 336.095 117.69 335.852C117.538 335.609 117.321 335.413 117.064 335.286C113.451 334.427 109.835 334.448 106.229 333.567C106.101 333.523 105.966 333.505 105.831 333.514C105.697 333.524 105.565 333.562 105.446 333.624C105.326 333.687 105.221 333.774 105.136 333.879C105.052 333.984 104.99 334.106 104.954 334.236C104.919 334.367 104.911 334.503 104.93 334.637C104.95 334.77 104.997 334.898 105.068 335.013C105.139 335.128 105.234 335.226 105.345 335.303C105.456 335.38 105.582 335.433 105.714 335.459Z" fill="#212941"/>
<path d="M88.7021 307.603C89.4937 303.291 90.3561 298.655 90.7657 294.359C90.9136 292.819 88.5297 292.64 88.1847 294.014C86.8996 298.362 86.548 302.933 87.1529 307.427C87.3131 308.29 88.5019 308.632 88.7021 307.603Z" fill="#212941"/>
<path d="M162.801 377.242C164.182 369.292 164.413 361.184 163.488 353.168C155.237 355.232 146.982 357.48 138.54 359.187C137.336 359.359 136.135 362.627 135.272 363.659C130.926 368.878 125.461 373.051 119.281 375.868C118.767 375.868 118.422 375.523 118.594 375.009C121.003 371.396 124.785 369.505 127.88 366.754C129.42 365.55 132.522 360.219 134.24 359.877C126.905 361.17 119.501 362.031 112.064 362.455C118.077 424.905 112.028 484.303 117.565 546.786C117.566 547.073 117.647 547.354 117.799 547.597C117.951 547.84 118.167 548.037 118.425 548.163C125.975 551.228 134.352 551.592 142.141 549.195C145.76 548.015 149.921 546.959 149.878 542.659C149.705 525.291 147.297 432.269 147.297 421.615C147.297 409.526 148.328 384.609 148.328 384.301C152.456 383.614 157.615 383.269 160.882 380.519C161.721 379.556 162.372 378.444 162.801 377.242ZM122.737 457.202C126.343 456.321 133.569 459.435 136.15 462.016C136.358 462.279 136.531 462.567 136.664 462.875C138.204 465.284 133.914 464.079 133.397 463.734C124.307 459.191 123.956 460.312 122.392 458.748C122.27 458.641 122.179 458.503 122.128 458.349C122.078 458.195 122.07 458.031 122.105 457.872C122.141 457.714 122.218 457.568 122.329 457.45C122.44 457.332 122.581 457.246 122.737 457.202Z" fill="#3A5AB7"/>
<path d="M193.58 540.768C196.104 540.612 198.552 539.841 200.71 538.523C202.868 537.205 204.671 535.378 205.961 533.204C208.61 527.66 200.005 375.16 199.256 363.145C195.064 358.692 191.947 353.339 190.143 347.495C182.036 348.734 174.001 350.398 166.069 352.482C166.789 359.985 166.615 367.547 165.552 375.009C165.568 377.14 164.838 379.211 163.488 380.861C170.64 405.889 176.424 505.447 178.106 531.146C178.254 533.382 177.589 536.82 179.48 538.711C182.403 541.286 190.315 541.116 193.58 540.768ZM187.571 458.061C190.536 455.521 193.699 453.221 197.029 451.183C197.27 451.052 197.546 451.001 197.817 451.04C198.088 451.079 198.34 451.204 198.533 451.398C198.727 451.592 198.853 451.843 198.891 452.114C198.93 452.385 198.88 452.662 198.748 452.902C196.053 456.832 188.328 460.602 187.571 459.093C187.487 458.934 187.444 458.757 187.444 458.577C187.444 458.397 187.487 458.22 187.571 458.061Z" fill="#3A5AB7"/>
<path d="M193.424 347.15C194.874 351.66 196.837 355.988 199.276 360.049C198.931 355.577 198.758 351.277 198.417 346.805C196.676 346.981 195.13 346.981 193.424 347.15Z" fill="#3A5AB7"/>
<path d="M94.3637 592.7C94.5362 592.7 94.5362 592.527 94.3637 592.527C94.1913 592.527 94.1913 592.7 94.3637 592.7Z" fill="#212941"/>
<path d="M145.264 561.577C145.606 561.746 146.293 558.654 146.293 558.309C146.372 556.27 145.897 554.248 144.919 552.457C144.06 550.735 141.479 551.939 141.824 553.661C142.169 555.383 143.179 557.434 142.338 559.334C141.811 560.533 140.117 561.416 139.073 562.257C137.533 563.489 135.993 564.509 134.429 565.698C125.01 572.859 108.532 585.336 96.0857 587.707C95.3957 587.877 94.8814 588.222 94.8814 587.19C95.2681 584.739 96.4809 582.494 98.3187 580.827C103.12 575.597 108.23 570.66 113.623 566.043C113.968 566.215 117.405 568.451 118.61 567.761C118.768 567.682 118.901 567.558 118.993 567.406C119.084 567.254 119.131 567.079 119.127 566.902C119.127 565.528 116.047 563.979 115.859 563.979C116.891 563.12 118.095 562.088 119.127 561.229C120.159 561.743 124.456 564.496 125.66 563.637C125.919 563.404 126.093 563.092 126.156 562.749C126.218 562.406 126.165 562.052 126.005 561.743C124.679 560.71 123.231 559.844 121.693 559.165C123.07 557.961 124.271 556.929 125.647 555.725C125.831 555.529 125.938 555.275 125.949 555.007C125.96 554.739 125.874 554.476 125.706 554.267C125.538 554.058 125.301 553.916 125.037 553.868C124.773 553.82 124.501 553.869 124.271 554.006C122.339 555.117 120.499 556.382 118.77 557.788C118.425 557.619 112.407 555.21 109.656 554.351C108.797 554.006 108.279 555.383 108.969 555.891C111.375 557.095 113.783 558.472 116.361 559.846C115.502 560.536 113.281 562.427 113.097 562.599C113.097 562.599 107.937 560.191 105.529 559.159C103.9 558.617 103.247 560.329 104.325 561.05C106.561 562.082 108.637 563.286 110.688 564.49C108.279 566.554 106.037 568.605 103.638 570.85C98.7375 575.44 89.0417 583.762 92.1155 589.595C92.5834 590.313 93.2772 590.854 94.0872 591.133C94.8973 591.412 95.7772 591.413 96.5877 591.135C98.7696 590.731 100.903 590.098 102.951 589.244C113.269 584.936 122.934 579.206 131.666 572.221C131.684 572.393 131.743 572.558 131.838 572.703C131.933 572.847 132.062 572.966 132.213 573.051C132.364 573.135 132.533 573.182 132.706 573.187C132.878 573.192 133.05 573.155 133.206 573.08C136.396 572.323 139.349 570.788 141.802 568.611C143.191 567.422 146.271 565.171 146.444 563.107C146.397 562.772 146.264 562.454 146.057 562.185C145.85 561.917 145.577 561.707 145.264 561.577Z" fill="#212941"/>
<path d="M242.244 553.15C238.935 551.251 235.414 549.75 231.753 548.678C227.802 547.301 224.016 545.927 220.049 544.723C221.782 543.19 223.392 541.522 224.863 539.736C225.208 538.877 224.179 538.196 223.486 538.363C220.955 539.901 218.542 541.625 216.267 543.522C214.89 543.177 213.686 542.832 212.312 542.49C214.263 540.77 216.048 538.869 217.641 536.813C217.641 536.472 217.299 535.954 216.954 535.954C214.072 537.479 211.412 539.389 209.044 541.631C206.837 541.088 204.597 540.686 202.339 540.426C200.959 540.288 200.962 542.145 201.994 542.659C203.534 543.177 205.262 543.691 206.808 544.199C205.286 546.042 203.906 547.999 202.681 550.051C202.17 550.914 203.534 552.109 204.221 551.256C205.918 549.173 207.831 547.128 209.722 545.065C210.926 545.41 213.504 546.097 213.677 546.097C211.992 547.749 210.44 549.532 209.035 551.428C208.911 551.552 208.812 551.7 208.745 551.862C208.678 552.024 208.643 552.198 208.643 552.374C208.643 552.549 208.678 552.723 208.745 552.885C208.812 553.048 208.911 553.195 209.035 553.319C209.159 553.443 209.307 553.542 209.469 553.609C209.631 553.676 209.805 553.711 209.981 553.711C210.156 553.711 210.33 553.676 210.492 553.609C210.655 553.542 210.802 553.443 210.926 553.319C212.99 551.256 215.053 549.192 217.289 547.128C219.695 547.815 231.916 552.084 235.517 553.492C238.388 554.256 240.927 555.949 242.736 558.306C243.232 559.177 243.081 559.165 242.222 559.337C241.363 559.51 240.503 559.689 239.641 559.852C226.443 562.371 201.56 555.712 192.357 554.178C190.98 553.833 189.089 553.834 188.045 552.802C186.154 550.911 186.868 546.95 186.505 544.55C186.505 544.117 186.333 543.702 186.027 543.396C185.721 543.09 185.305 542.918 184.872 542.918C184.44 542.918 184.024 543.09 183.718 543.396C183.412 543.702 183.24 544.117 183.24 544.55C182.843 548.619 183.182 553.972 186.677 556.07C186.677 556.07 186.163 558.478 187.195 558.993C192.198 560.352 197.324 561.216 202.496 561.574C202.644 561.542 202.784 561.48 202.908 561.393C203.032 561.306 203.138 561.196 203.218 561.067C203.298 560.939 203.352 560.796 203.376 560.646C203.401 560.497 203.395 560.344 203.359 560.197C205.345 560.197 226.6 565.464 239.638 563.277C241.718 563.315 243.761 562.716 245.49 561.558C248.428 558.989 244.637 554.708 242.244 553.15Z" fill="#212941"/>
<path d="M600.075 82.8522C598.04 56.5706 594.005 45.8306 580.979 41.9282C535.777 24.9882 358.406 19.2102 293.477 26.2788C282.641 27.4584 271.439 28.6442 262.009 34.5332C230.546 54.1897 216.021 114.641 209.23 151.127C208.044 157.493 207.111 164.044 205.962 170.386C205.805 171.248 207.172 171.59 207.339 170.728C212.039 145.497 218.473 120.621 226.595 96.2748C233.217 77.7332 241.292 57.8334 255.827 44.0011C261.304 38.453 268.206 34.5245 275.773 32.6482C322.078 22.4842 457.447 27.4707 521.837 34.7118C567.113 39.8061 573.581 43.998 575.657 43.998C574.749 44.4538 566.867 45.0267 554.679 59.6444C518.936 102.527 504.167 153.276 496.387 208.039C485.422 285.162 480.063 399.131 480.063 474.908C475.822 473.698 290.471 473.649 286.1 473.704C267.873 473.941 249.448 473.988 231.076 475.426C229.182 475.574 227.115 475.549 225.224 475.768C224.973 475.768 224.733 475.867 224.555 476.045C224.378 476.222 224.279 476.463 224.279 476.713C224.279 476.964 224.378 477.205 224.555 477.382C224.733 477.559 224.973 477.659 225.224 477.659C243.107 477.745 260.817 477.317 278.699 477.317C370.6 477.317 478.305 480.046 482.98 478.176C483.183 478.179 483.383 478.128 483.561 478.029C483.738 477.93 483.887 477.786 483.991 477.612C484.095 477.438 484.152 477.239 484.156 477.036C484.16 476.833 484.11 476.633 484.012 476.455C483.966 393.669 488.559 310.946 497.767 228.675C504.069 174.488 514.14 125.495 543.85 80.7948C548.805 73.1716 554.323 65.9298 560.359 59.13C565.918 52.9916 573.424 46.6068 582.196 47.2628C584.392 47.4785 586.465 48.3726 588.13 49.8209C589.794 51.2693 590.966 53.1999 591.482 55.3447C603.99 91.4793 594.254 133.885 585.806 171.07C585.633 170.897 585.464 170.552 585.119 170.383C563.701 159.865 537.163 156.421 526.14 158.001C525.925 158.019 525.724 158.118 525.578 158.277C525.432 158.436 525.35 158.644 525.35 158.86C525.35 159.077 525.432 159.285 525.578 159.444C525.724 159.603 525.925 159.702 526.14 159.72C545.741 161.441 565.345 165.224 583.055 173.992C583.416 174.138 583.806 174.199 584.194 174.169C584.582 174.139 584.957 174.019 585.291 173.82C585.291 173.992 585.119 174.337 585.119 174.51C585.086 174.615 585.076 174.725 585.088 174.834C585.1 174.943 585.135 175.048 585.189 175.143C585.244 175.237 585.318 175.32 585.407 175.385C585.495 175.449 585.596 175.495 585.703 175.519C585.81 175.542 585.921 175.544 586.028 175.522C586.136 175.501 586.238 175.458 586.327 175.395C586.417 175.332 586.493 175.252 586.55 175.158C586.607 175.065 586.644 174.96 586.659 174.852C593.245 154.91 597.741 134.338 600.075 113.467C600.726 103.273 600.726 93.0469 600.075 82.8522Z" fill="#212941"/>
<path d="M463.032 289.721C465.4 287.746 468.289 286.856 467.159 284.217C467.014 283.955 466.819 283.724 466.584 283.539C466.349 283.353 466.08 283.217 465.791 283.137C465.503 283.057 465.201 283.036 464.905 283.074C464.608 283.113 464.322 283.21 464.063 283.36C431.631 305.706 393.436 342.992 371.207 371.572C362.366 361.733 352.511 352.854 341.806 345.084C340.084 343.707 337.679 346.285 338.726 348.164C351.728 367.464 363.39 387.634 373.631 408.532C373.824 408.862 374.1 409.136 374.432 409.327C374.764 409.517 375.14 409.617 375.523 409.617C375.905 409.617 376.281 409.517 376.613 409.327C376.945 409.136 377.221 408.862 377.414 408.532C386.327 391.65 397.742 376.05 408.537 360.557C440.317 314.989 447.434 308 463.032 289.721Z" fill="#FF9500"/>
<path d="M99.523 358.328C145.52 358.328 170.702 342.49 199.931 342.164C202.395 341.809 208.219 341.739 211.108 341.477C211.826 341.427 212.547 341.523 213.227 341.76C213.907 341.997 214.531 342.369 215.063 342.854C215.456 343.425 215.637 344.116 215.574 344.807C215.511 345.498 215.208 346.145 214.718 346.636C212.092 349.766 208.635 352.09 204.745 353.341C204.058 353.686 204.058 354.881 204.918 354.718C207.208 354.453 209.426 353.752 211.453 352.654C214.385 351.188 217.921 349.023 218.5 345.604C218.673 345.604 218.845 345.432 219.018 345.09C219.211 344.231 219.152 343.334 218.845 342.509C217.955 337.648 208.709 268.12 206.809 254.815C203.947 240.803 200.098 227.011 195.289 213.543C195.238 213.365 195.255 213.174 195.338 213.008C195.421 212.842 195.563 212.714 195.737 212.648C195.91 212.583 196.102 212.585 196.274 212.655C196.446 212.725 196.585 212.857 196.663 213.025C202.133 225.344 206.511 238.118 209.747 251.202C234.646 233.923 282.697 199.643 306.382 181.72C306.896 181.206 307.414 180.689 307.069 179.829C306.555 178.111 304.318 173.638 303.989 172.779C305.88 171.747 307.602 170.201 309.32 169.169C314.556 166.551 315.616 168.861 318.607 169.514C321.534 170.286 324.611 170.286 327.539 169.514C330.651 169.014 333.599 167.775 336.135 165.901C336.254 165.769 336.332 165.604 336.359 165.428C336.387 165.252 336.363 165.072 336.29 164.909C336.217 164.746 336.099 164.608 335.95 164.511C335.801 164.414 335.626 164.362 335.448 164.361C333.921 164.521 332.419 164.868 330.976 165.393C317.217 170.136 316.694 161.891 308.279 166.933C306.499 168.049 304.777 169.254 303.12 170.546C303.293 170.374 299.166 161.26 299.511 161.087C301.933 159.772 304.286 158.332 306.561 156.775C308.045 155.721 309.229 154.298 309.998 152.648C310.63 150.738 310.569 148.666 309.825 146.796C308.643 142.148 312.702 139.016 315.502 135.964C321.749 129.231 326.29 121.098 328.746 112.248C329.888 113.723 330.708 115.422 331.151 117.234C331.678 119.497 331.678 121.85 331.151 124.112C329.933 128.11 327.307 131.531 323.759 133.74C323.587 133.911 323.474 134.134 323.439 134.374C323.404 134.615 323.448 134.86 323.564 135.074C323.681 135.287 323.863 135.457 324.085 135.557C324.306 135.658 324.554 135.684 324.791 135.631C327.344 134.782 329.528 133.083 330.979 130.817C332.665 128.488 333.738 125.772 334.098 122.919C334.459 120.066 334.096 117.169 333.043 114.493C332.192 112.257 330.81 108.992 327.884 109.165C327.595 109.173 327.319 109.281 327.101 109.468C326.882 109.656 326.734 109.913 326.682 110.197C324.564 118.778 320.439 126.734 314.646 133.411C312.074 136.34 308.526 139.053 307.423 143.039C307.002 144.924 307.121 146.89 307.765 148.712C308.039 149.655 308.04 150.657 307.767 151.601C307.495 152.545 306.96 153.392 306.225 154.043C303.868 155.992 301.335 157.719 298.66 159.202C297.798 156.452 297.01 153.683 296.252 150.776C296.168 150.503 296.016 150.256 295.809 150.06C295.602 149.863 295.348 149.724 295.071 149.654C294.794 149.585 294.504 149.589 294.229 149.665C293.954 149.741 293.703 149.887 293.501 150.089C292.125 151.293 272.179 160.407 267.537 162.64C227.1 182.108 192.385 199.769 152.672 205.972C150.953 206.145 151.132 209.052 152.672 209.413C153.016 209.413 153.189 209.585 153.531 209.585C153.531 209.754 153.358 209.927 153.358 210.272C153.358 215.323 153.494 218.249 148.717 221.976C146.795 223.149 144.657 223.924 142.43 224.256C140.203 224.588 137.932 224.47 135.752 223.909C133.571 223.348 131.525 222.355 129.735 220.989C127.945 219.623 126.447 217.913 125.33 215.958C124.365 214.362 123.668 212.619 123.267 210.799C126.105 211.08 128.971 210.788 131.694 209.939C132.225 209.336 132.634 208.635 132.898 207.876C132.174 199.56 130.348 188.047 129.975 186.556C130.662 185.352 129.119 183.639 127.566 184.32C123.618 186.054 117.461 185.176 116.907 179.848C116.423 175.203 122.238 174.174 125.839 174.174C126.089 174.175 126.336 174.117 126.559 174.005C126.783 173.893 126.977 173.73 127.127 173.529C127.277 173.329 127.377 173.096 127.421 172.85C127.465 172.604 127.45 172.35 127.379 172.111C125.635 165.437 125.169 158.494 126.005 151.647C126.686 148.259 127.148 144.563 130.646 144.942C133.861 145.296 136.997 146.167 139.933 147.523C140.278 147.692 140.447 147.523 140.619 147.351C142.726 145.817 144.686 144.09 146.471 142.192C147.001 141.686 148.011 140.128 149.053 140.128H149.379C154.122 143.581 158.349 147.692 161.933 152.337C162.62 156.979 163.165 161.62 163.652 166.265C164.667 171.494 164.251 176.899 162.447 181.911C160.821 186.193 157.628 189.696 153.515 191.712C149.024 193.544 144.029 193.727 139.415 192.229C138.042 191.884 137.185 193.936 138.383 194.465C140.119 195.282 141.98 195.802 143.887 196.005C143.887 198.938 143.687 208.017 144.747 209.074C144.91 209.214 145.101 209.317 145.308 209.375C145.515 209.434 145.732 209.448 145.944 209.415C146.156 209.382 146.359 209.304 146.538 209.186C146.718 209.067 146.869 208.911 146.983 208.729C147.346 207.983 147.466 207.141 147.325 206.323C147.325 205.831 146.638 196.344 146.638 196.005C148.104 196.03 149.564 195.798 150.95 195.319C154.682 194.605 158.069 192.668 160.578 189.815C165.663 183.679 167.825 177.676 166.43 166.946C167.354 166.946 166.47 167.164 172.621 164.54C173.474 164.177 174.857 163.85 175.029 162.646C175.374 161.445 174.684 160.585 174.17 159.566C173.311 157.844 172.279 156.126 171.589 154.407C171.416 154.062 171.416 153.889 171.247 153.548C171.416 153.375 171.761 153.203 171.934 153.03C172.515 152.039 173.029 151.01 173.474 149.95C174.779 147.913 175.658 145.632 176.055 143.245C176.142 142.214 175.908 141.181 175.384 140.288C174.861 139.395 174.074 138.686 173.132 138.258C166.123 133.406 158.486 129.53 150.432 126.736C142.665 124.248 139.092 123.203 136.505 124.673C132.652 126.866 132.658 131.476 131.004 133.959C129.565 132.483 127.815 131.347 125.881 130.633C123.948 129.919 121.879 129.645 119.826 129.832C114.84 130.515 112.625 135.859 110.713 139.805C106.29 149.702 102.668 159.938 99.8803 170.414C98.8485 173.851 101.771 174.726 104.349 175.573C107.37 176.725 110.475 177.644 113.636 178.323V180.387C114.56 185.903 120.338 189.694 127.563 187.437C127.563 190.409 129.384 207.235 129.411 207.558C129.294 207.595 122.916 208.929 122.916 208.929C122.818 208.563 122.645 208.221 122.408 207.925C122.171 207.629 121.875 207.386 121.539 207.21C120.4 207.038 119.241 207.038 118.102 207.21C108.129 206.179 97.9954 207.983 88.01 209.446C78.2115 210.573 68.8004 213.925 60.4964 219.247C-3.24425 256.999 5.23499 323.899 57.2223 340.956C63.3246 342.976 69.7087 344.016 76.1366 344.036C79.8326 344.036 80.3254 344.394 81.6406 342.315C82.6931 340.578 83.5574 338.734 84.2185 336.814C94.5642 340.26 93.4893 339.721 93.8497 340.082C91.475 353.843 89.7995 355.888 91.0992 357.619C93.8681 358.196 96.6968 358.434 99.523 358.328ZM157.301 134.79C160.757 136.638 164.031 138.705 167.274 140.809C168.378 141.369 169.324 142.197 170.024 143.217C170.366 144.077 170.024 145.108 168.992 145.108C166.584 144.936 163.689 141.973 161.77 140.636C158.65 138.4 155.375 136.389 151.969 134.618C149.906 133.586 147.497 132.385 145.434 133.931C144.747 134.276 144.06 133.417 144.574 132.899C148.356 129.631 153.706 132.862 157.301 134.79ZM122.565 150.954C121.274 152.245 120.587 156.458 119.485 156.458C119.28 156.433 119.094 156.328 118.965 156.167C118.837 156.006 118.777 155.801 118.798 155.596C118.862 153.335 119.784 151.184 121.376 149.577C121.534 149.48 121.717 149.432 121.903 149.44C122.088 149.448 122.267 149.512 122.416 149.624C122.565 149.735 122.676 149.889 122.736 150.065C122.796 150.24 122.802 150.43 122.752 150.609C122.565 150.612 122.565 150.782 122.565 150.954ZM119.127 143.732C121.376 144.483 116.531 149.467 115 153.19C114.655 153.877 113.46 153.363 113.623 152.673C114.258 149.54 115.612 146.597 117.578 144.077C117.763 143.858 118.015 143.706 118.295 143.644C118.574 143.582 118.867 143.613 119.127 143.732ZM115 137.541C115.229 137.351 115.515 137.244 115.812 137.236C116.109 137.228 116.4 137.321 116.638 137.498C116.876 137.676 117.048 137.929 117.125 138.216C117.202 138.503 117.181 138.808 117.064 139.081C116.366 140.289 115.496 141.39 114.483 142.349C111.748 146.141 109.871 150.482 108.982 155.072C108.946 155.196 108.865 155.302 108.756 155.371C108.647 155.44 108.516 155.466 108.389 155.445C108.262 155.423 108.147 155.356 108.066 155.256C107.985 155.155 107.944 155.029 107.95 154.9C108.265 151.772 109.017 148.705 110.183 145.786C111.874 142.841 112.311 139.783 115 137.541ZM84.9084 307.603C84.8298 307.268 84.6593 306.962 84.4161 306.719C84.1728 306.475 83.8666 306.305 83.5317 306.226C76.1397 304.357 67.7128 301.24 63.5856 294.362C55.362 280.656 74.0576 266.165 89.205 264.271C89.205 264.443 89.205 264.443 89.3775 264.615V264.788C92.4264 273.039 94.3935 281.651 95.2295 290.407C95.7258 295.897 95.7835 301.417 95.402 306.916C95.4352 307.407 95.645 307.869 95.9928 308.217C96.3405 308.564 96.8025 308.774 97.2931 308.807C102.276 309.131 107.221 309.878 112.077 311.04C115.782 311.548 119.284 313.036 122.22 315.352C122.496 315.557 122.729 315.814 122.906 316.109C123.084 316.404 123.201 316.731 123.251 317.071C123.596 318.448 122.54 319.467 122.05 320.511C120.603 323.576 121.878 327.047 121.878 330.139C121.878 333.407 121.197 338.576 118.437 340.802C115.866 342.875 112.077 342.342 109.154 342.007C107.26 341.662 84.736 335.988 84.736 335.816C87.4395 326.614 87.4993 316.837 84.9084 307.603ZM148.015 306.226C157.92 310.628 163.547 311.277 167.111 313.276C167.226 313.337 167.316 313.438 167.365 313.559C167.413 313.68 167.417 313.815 167.376 313.939C167.334 314.063 167.25 314.168 167.139 314.235C167.027 314.303 166.895 314.329 166.766 314.308C163.37 314.047 160.05 313.174 156.965 311.73C153.709 310.498 150.429 309.149 147.164 307.603C146.299 307.076 147.155 305.712 148.015 306.226ZM181.543 307.431C180.326 307.285 179.12 307.055 177.934 306.744C174.546 305.859 171.215 304.768 167.961 303.476C154.776 298.412 142.517 291.208 131.678 282.153C131.001 281.623 131.854 280.773 132.538 281.294C158.293 300.833 178.411 304.015 181.888 306.242C182.575 306.399 182.403 307.431 181.543 307.431Z" fill="#212941"/>
<path d="M315.837 421.092C328.56 434.975 345.99 443.632 364.74 445.38C383.49 447.127 402.22 441.841 417.289 430.547C441.153 412.323 453.113 381.677 439.299 357.468C437.097 353.609 433.543 355.192 435.689 359.877C445.752 381.831 437.402 405.769 420.73 421.606C394.051 446.93 352.702 449.24 324.609 424.357C292.617 396.021 295.349 344.018 331.142 314.308C349.862 298.77 372.318 293.075 393.734 303.99C389.196 298.898 382.828 295.807 376.02 295.394C360.562 293.546 344.912 299.367 332.346 308.462C296.07 334.722 285.9 387.665 315.837 421.092Z" fill="#FF9500"/>
<path d="M468.018 136.167C455.464 129.289 441.188 136.58 427.781 135.822C413.847 135.037 403.024 124.595 389.262 123.098C386.046 122.56 382.749 122.761 379.621 123.684C376.493 124.608 373.616 126.231 371.207 128.43C370.696 128.95 371.38 129.631 372.067 129.289C374.457 127.457 377.22 126.169 380.16 125.515C383.1 124.861 386.148 124.857 389.09 125.504C395.3 126.829 401.273 129.091 406.803 132.212C423.435 140.528 427.094 140.263 445.663 137.713C452.892 136.721 460.447 135.822 467.328 138.572C468.36 138.745 469.219 136.681 468.018 136.167Z" fill="#212941"/>
<path d="M306.726 217.328C319.705 210.994 334.51 209.466 348.509 213.016C358.248 215.48 367.344 221.717 376.882 223.334C401.365 227.486 425.728 207.962 450.303 223.507C450.602 223.669 450.949 223.719 451.281 223.648C451.613 223.578 451.91 223.391 452.117 223.122C452.324 222.853 452.429 222.519 452.412 222.179C452.395 221.84 452.258 221.518 452.025 221.27C445.338 215.246 435.347 213.903 426.748 214.22C410.784 214.809 395.64 221.68 380.837 220.753C368.933 220.011 362.813 214.479 351.087 211.125C335.809 207.092 319.566 209.062 305.694 216.629C305.177 216.641 305.864 217.673 306.726 217.328Z" fill="#212941"/>
<path d="M235.536 256.188C234.849 256.013 234.507 257.048 235.021 257.22C261.848 268.823 297.32 247.056 319.105 251.202C326.162 252.548 332.349 256.361 338.879 259.284C363.901 270.476 376.147 266.205 402.847 259.971C413.321 257.039 424.34 256.627 435.003 258.769C438.455 259.74 441.797 261.065 444.976 262.724C446.011 263.229 447.384 261.859 446.349 261.002C436.999 253.265 421.897 253.61 409.898 255.501C386.456 259.216 371.764 268.903 345.415 258.769C338.71 256.188 332.525 252.729 325.81 250.17C299.227 240.034 272.449 265.619 235.536 256.188Z" fill="#212941"/>
<path d="M446.009 177.1C449.515 178.1 452.959 179.306 456.324 180.71C458.045 181.227 458.754 178.967 457.528 177.96C454.823 176.134 451.79 174.849 448.596 174.177C415.024 164.583 382.964 185.265 365.889 171.082C365.042 170.38 363.825 171.599 364.684 172.286C381.612 189.202 415.184 168.624 446.009 177.1Z" fill="#212941"/>
<path d="M486.759 93.1792C469.077 85.4792 448.875 95.2274 430.016 90.0992C418.906 87.0685 410.458 79.6487 399.234 76.3439C375.808 69.4416 354.402 86.7913 329.768 84.2533C311.242 82.3407 300.872 70.7013 281.277 73.9353C273.244 75.2659 265.774 78.9106 259.781 84.4227C259.094 84.9402 260.126 85.7995 260.641 85.2851C266.409 80.6671 273.286 77.6378 280.587 76.4979C305.535 72.4354 315.643 93.5303 349.711 85.9566C366.371 82.2606 380.576 75.577 394.762 78.2196C408.622 80.8007 419.781 92.2336 435.686 94.0385C452.364 95.9327 470.007 89.3323 485.89 96.2746C487.803 97.1062 488.662 94.0077 486.759 93.1792Z" fill="#212941"/>
<path d="M252.559 115.017C259.491 120.166 268.01 122.722 276.632 122.239C283.929 121.956 291.182 119.748 296.748 120.176C299.118 120.361 301.474 120.706 303.798 121.208C305.175 121.392 306.206 119.486 304.83 118.799C298.3 115.066 287.191 118.491 278.693 119.658C274.389 120.225 270.017 119.992 265.797 118.972C261.546 117.707 257.407 116.097 253.418 114.158C252.732 113.468 251.872 114.33 252.559 115.017Z" fill="#212941"/>
<path d="M245.681 156.972C250.291 156.295 254.95 156.007 259.609 156.113C261.154 156.401 262.743 156.342 264.263 155.941C264.396 155.846 264.507 155.723 264.589 155.582C264.671 155.44 264.722 155.283 264.738 155.12C264.755 154.958 264.736 154.793 264.684 154.638C264.632 154.484 264.547 154.342 264.435 154.222C263.002 153.495 261.389 153.196 259.791 153.363C254.853 153.281 249.93 153.918 245.176 155.254C245.053 155.278 244.937 155.328 244.835 155.399C244.733 155.471 244.646 155.563 244.581 155.67C244.517 155.777 244.475 155.896 244.459 156.02C244.443 156.144 244.452 156.27 244.488 156.39C244.523 156.51 244.583 156.621 244.663 156.716C244.744 156.812 244.844 156.889 244.956 156.944C245.068 156.999 245.191 157.03 245.316 157.035C245.44 157.04 245.565 157.018 245.681 156.972Z" fill="#212941"/>
<path d="M149.219 174.328C149.437 176.512 154.399 174.097 155.071 172.437C155.413 171.578 155.252 170.053 153.866 170.546C152.98 170.988 152.213 171.636 151.63 172.437C151.11 172.964 149.219 173.481 149.219 174.328Z" fill="#212941"/>
<path d="M338.88 135.828C339.93 134.83 340.704 133.577 341.126 132.191C341.548 130.805 341.604 129.333 341.288 127.919C341.259 127.781 341.183 127.658 341.073 127.569C340.964 127.481 340.827 127.433 340.686 127.433C340.546 127.433 340.409 127.481 340.299 127.569C340.19 127.658 340.114 127.781 340.084 127.919C339.194 131.151 337.1 133.919 334.232 135.656C333.197 136.336 325.978 139.268 327.869 141.16C329.714 143.602 336.798 138.243 338.88 135.828Z" fill="#212941"/>
<path d="M327.361 148.548C339.437 149.552 345.998 143.956 346.457 140.808C346.493 140.632 346.478 140.449 346.414 140.28C346.35 140.112 346.239 139.965 346.095 139.857C345.951 139.749 345.779 139.684 345.599 139.669C345.419 139.655 345.239 139.692 345.08 139.777C343.54 140.636 342.508 142.022 340.953 143.044C336.863 145.538 332.16 146.848 327.37 146.827C326.329 146.845 326.329 148.376 327.361 148.548Z" fill="#212941"/>
<path d="M328.907 154.222C332.089 156.341 340.082 154.74 343.691 153.535C344.581 153.345 345.422 152.974 346.161 152.444C346.9 151.914 347.522 151.237 347.988 150.455C348.075 150.305 348.113 150.131 348.097 149.957C348.081 149.784 348.011 149.62 347.898 149.488C347.785 149.356 347.633 149.262 347.465 149.22C347.296 149.177 347.118 149.188 346.956 149.251C343.475 150.927 339.768 152.085 335.951 152.688C333.979 153.206 331.906 153.206 329.933 152.688C328.738 152.152 327.875 153.535 328.907 154.222Z" fill="#212941"/>
<path d="M149.38 185.173C149.734 184.317 149.038 183.282 148.006 183.796C147.655 184.009 144.987 186.097 142.674 185.173C141.606 184.762 140.721 183.979 140.184 182.968C139.647 181.956 139.493 180.785 139.751 179.669C143.883 181.393 148.368 182.096 152.829 181.72C153.174 181.72 153.174 181.034 152.829 181.034C150.251 180.347 147.67 179.829 145.265 178.97C144.06 178.625 142.684 178.111 141.479 177.766C137.352 175.998 136.653 180.667 138.384 184.301C140.546 188.848 147.954 188.641 149.38 185.173Z" fill="#212941"/>
<path d="M333.564 161.614C339.148 163.708 346.081 160.825 347.146 158.691C347.19 158.578 347.207 158.455 347.193 158.335C347.18 158.214 347.138 158.098 347.071 157.997C347.004 157.896 346.913 157.812 346.806 157.753C346.7 157.695 346.581 157.662 346.46 157.659C344.723 157.949 340.515 161.635 333.906 160.24C333.726 160.203 333.54 160.237 333.385 160.335C333.231 160.432 333.12 160.586 333.076 160.763C333.032 160.94 333.058 161.128 333.149 161.287C333.24 161.445 333.388 161.562 333.564 161.614Z" fill="#212941"/>
</svg>
