<svg width="616" height="616" viewBox="0 0 616 616" fill="none" xmlns="http://www.w3.org/2000/svg">
<path d="M42.9015 320.043C42.0691 320.435 41.1857 320.707 40.2773 320.853C43.3573 330.093 43.2711 346.328 43.3789 357.117C43.6407 365.938 43.1617 374.765 41.9467 383.506C44.4754 383.506 47.0533 383.553 49.582 383.506C48.9497 373.694 49.1414 363.845 50.1549 354.065C50.718 343.786 53.2955 333.717 57.7409 324.432C56.0766 324.008 54.5385 323.191 53.2565 322.048C51.5167 322.722 49.622 322.891 47.7902 322.537C45.9585 322.182 44.264 321.318 42.9015 320.043Z" fill="#FF9500"/>
<path d="M44.3814 314.03C43.9448 314.412 43.6338 314.917 43.4892 315.479C43.3446 316.041 43.3733 316.633 43.5713 317.178C44.8341 316.233 45.6627 313.174 44.3814 314.03Z" fill="#FF9500"/>
<path d="M53.7335 314.363C53.2004 315.11 52.9177 316.007 52.926 316.924C52.9343 317.842 53.2332 318.733 53.7797 319.47C56.3084 316.932 55.2212 312.691 53.7335 314.363Z" fill="#FF9500"/>
<path d="M34.8051 315.986C34.0474 315.546 31.4664 314.603 31.1799 316.082C30.8935 317.656 33.2805 318.182 34.3277 318.42C35.3635 318.673 36.4167 318.849 37.4785 318.946C36.8904 317.723 35.9622 316.696 34.8051 315.986Z" fill="#FF9500"/>
<path d="M73.3943 299.714C70.6143 296.75 67.2703 294.371 63.5586 292.716C59.8468 291.061 55.8419 290.164 51.7789 290.077C28.5649 289.926 14.3107 306.709 15.4657 328.155C15.8442 336.001 18.3691 343.593 22.7653 350.103C28.2723 359.208 35.1438 367.967 34.8389 381.692C33.7969 381.946 32.8492 382.493 32.1069 383.267C31.3646 384.042 30.8585 385.012 30.648 386.063C30.4375 387.115 30.5314 388.205 30.9185 389.205C31.3057 390.206 31.9701 391.075 32.8338 391.711C31.8754 392.206 31.0639 392.944 30.4803 393.852C29.8968 394.759 29.5618 395.804 29.5088 396.881C29.4558 397.958 29.6866 399.031 30.1783 399.991C30.6699 400.951 31.405 401.766 32.3102 402.352C28.8821 405.097 29.0916 408.472 30.9242 410.179C32.3597 411.273 34.0606 411.965 35.8522 412.184C42.1493 413.444 48.6003 413.749 54.9882 413.089C58.5179 412.757 62.9962 411.993 65.1029 408.747C65.7616 407.576 65.9748 406.207 65.7031 404.892C65.4313 403.577 64.6931 402.405 63.6245 401.592C64.3886 401.024 65 400.276 65.4041 399.414C65.8082 398.552 65.9924 397.603 65.9402 396.653C65.888 395.703 65.6011 394.78 65.1051 393.967C64.6091 393.155 63.9194 392.478 63.0979 391.997C64.2694 391.239 65.1694 390.128 65.6678 388.825C66.1661 387.522 66.2369 386.093 65.8699 384.747C65.3837 383.73 64.6188 382.872 63.6642 382.272C62.7095 381.672 61.6042 381.356 60.4768 381.359C60.3773 379.734 60.4413 378.102 60.6677 376.49C62.6821 362.1 74.0288 351.736 79.1477 338.461C83.777 326.255 82.7975 309.771 73.3943 299.714ZM59.9378 324.718C57.028 330.348 54.9697 336.379 53.8301 342.613C51.5939 356.106 50.8943 369.809 51.745 383.46C59.7345 383.46 59.4727 383.534 59.9039 383.318C60.6883 383.271 61.4713 383.431 62.1742 383.782C62.8771 384.134 63.475 384.664 63.9079 385.32C65.0506 387.852 62.3679 390.094 60.5661 391.335C60.3891 391.438 60.2464 391.591 60.1557 391.775C60.0649 391.958 60.0302 392.165 60.0558 392.368C60.0814 392.571 60.1662 392.762 60.2997 392.918C60.4331 393.073 60.6093 393.186 60.8063 393.242C61.6639 393.389 62.4432 393.831 63.0102 394.491C63.5773 395.151 63.8967 395.988 63.9135 396.858C63.9302 397.728 63.6433 398.576 63.1021 399.258C62.5609 399.939 61.7992 400.41 60.948 400.591C59.9932 400.828 59.8977 402.439 60.948 402.642C64.028 403.166 65.8144 407.853 60.138 409.895C54.3137 411.95 40.9188 411.555 34.3707 409.563C33.034 409.181 31.5987 408.368 31.7927 406.791C31.9837 404.977 33.7485 403.834 35.1345 402.925C35.3298 402.802 35.4808 402.62 35.5654 402.405C35.6501 402.19 35.6641 401.953 35.6054 401.73C35.5467 401.506 35.4184 401.308 35.239 401.162C35.0597 401.016 34.8386 400.932 34.6079 400.92C33.7191 400.737 32.9297 400.231 32.3922 399.5C31.8546 398.77 31.607 397.865 31.6973 396.962C31.8809 395.969 32.341 395.048 33.0248 394.305C33.7086 393.562 34.5883 393.027 35.5627 392.761C35.7844 392.696 35.9791 392.561 36.1176 392.376C36.2561 392.191 36.3309 391.967 36.3309 391.736C36.3309 391.505 36.2561 391.28 36.1176 391.095C35.9791 390.91 35.7844 390.775 35.5627 390.71C34.7289 390.497 33.9933 390.005 33.4788 389.315C32.9642 388.625 32.7018 387.78 32.7353 386.92C32.7688 386.06 33.0962 385.237 33.6629 384.59C34.2296 383.942 35.0013 383.509 35.8491 383.361C35.8491 383.361 39.1416 383.41 40.7155 383.457C41.5927 374.147 41.9279 364.795 41.7196 355.447C41.4639 344.516 41.5101 329.514 38.3778 320.997C36.6514 320.957 34.9369 320.7 33.2742 320.233C32.307 320.115 31.401 319.697 30.6831 319.038C29.9651 318.379 29.4711 317.513 29.2702 316.559C29.2479 316.104 29.3268 315.649 29.5014 315.228C29.676 314.807 29.9419 314.43 30.2798 314.124C30.6178 313.818 31.0194 313.591 31.4558 313.46C31.8921 313.328 32.3522 313.294 32.803 313.362C34.3581 313.534 35.8299 314.153 37.0407 315.144C38.2514 316.135 39.1491 317.456 39.6252 318.946C40.3982 318.849 41.1532 318.641 41.8674 318.33C41.8212 318.284 41.8212 318.235 41.7719 318.139C41.4427 317.328 41.3264 316.446 41.4343 315.578C41.5421 314.709 41.8704 313.883 42.3879 313.177C43.9279 311.111 46.3919 311.508 46.9186 313.368C47.0728 314.413 46.9415 315.48 46.5387 316.456C46.1358 317.432 45.4763 318.28 44.6302 318.912C45.6579 319.709 46.858 320.253 48.1343 320.502C49.4106 320.751 50.7274 320.697 51.9791 320.344C49.7984 316.858 51.2645 312.561 53.7901 311.994C54.1981 311.932 54.6147 311.956 55.0129 312.064C55.4111 312.173 55.782 312.365 56.1014 312.626C56.4209 312.887 56.6819 313.213 56.8673 313.582C57.0528 313.95 57.1587 314.354 57.1781 314.766C57.3234 315.701 57.28 316.656 57.0504 317.574C56.8208 318.491 56.4097 319.354 55.8414 320.11C55.6042 320.397 55.364 320.637 55.1268 320.874C56.2172 321.718 57.4925 322.29 58.8475 322.543C60.3875 319.802 63.5937 314.745 66.5783 315.244C70.4375 315.925 68.7928 325.439 59.9378 324.718Z" fill="#FF9500"/>
<path d="M65.9508 317.24C65.2363 317.338 64.4724 318.145 63.9458 318.623C62.8273 319.879 61.8512 321.255 61.0352 322.725C62.2698 322.804 63.4918 322.439 64.4807 321.695C65.4697 320.952 66.1604 319.88 66.4282 318.672C66.5299 318.229 66.6192 317.135 65.9508 317.24Z" fill="#FF9500"/>
<path d="M114.67 154.133C111.59 152.389 108.636 150.618 106.126 149.513C102.787 148.398 103.246 149.731 104.792 150.945C106.387 152.121 108.898 153.637 110.613 154.619C97.8528 154.025 85.3881 154.142 81.9693 154.093C73.0373 153.951 64.1237 153.883 56.9196 159.677C46.3275 168.236 46.4476 185.41 46.7063 198.137C46.9712 213.537 46.6755 213.056 47.7566 236.547C49.8787 282.131 48.6498 277.678 49.0471 284.98C49.0624 285.273 49.1895 285.55 49.4025 285.752C49.6154 285.954 49.8978 286.067 50.1914 286.067C50.485 286.067 50.7673 285.954 50.9803 285.752C51.1932 285.55 51.3204 285.273 51.3356 284.98C52.3581 274.176 49.5954 219.598 49.3305 202.097C49.1395 190.178 48.0615 173.222 56.1558 163.875C61.8877 157.268 69.9326 156.483 78.0577 156.483C81.1099 156.483 110.124 156.72 110.124 156.72L103.348 162.067C103.114 162.301 102.982 162.618 102.982 162.949C102.982 163.28 103.114 163.597 103.348 163.832C103.582 164.066 103.899 164.197 104.23 164.197C104.561 164.197 104.878 164.066 105.112 163.832C105.297 163.684 114.734 156.156 114.944 156.051C115.073 155.917 115.17 155.754 115.227 155.576C115.284 155.399 115.3 155.21 115.273 155.025C115.247 154.841 115.179 154.664 115.074 154.509C114.97 154.355 114.831 154.226 114.67 154.133Z" fill="#3A5AB7"/>
<path d="M210.29 259.539C208.969 261.373 207.759 263.285 206.668 265.265C206.668 190.883 206.341 167.45 206.427 169.114C206.416 168.938 206.338 168.774 206.209 168.654C206.081 168.534 205.912 168.467 205.736 168.467C205.56 168.467 205.391 168.534 205.263 168.654C205.134 168.774 205.056 168.938 205.045 169.114C204.623 179.124 204.536 261.96 204.807 265.311C202.959 262.924 201.037 260.54 199.177 258.153C199.063 258.028 198.925 257.927 198.772 257.856C198.618 257.786 198.451 257.747 198.282 257.743C198.113 257.739 197.944 257.769 197.787 257.832C197.63 257.894 197.487 257.988 197.367 258.108C197.247 258.228 197.153 258.37 197.09 258.527C197.027 258.685 196.996 258.853 197 259.022C197.004 259.191 197.043 259.358 197.113 259.512C197.183 259.666 197.284 259.804 197.409 259.918C199.987 263.165 202.611 266.457 205.189 269.7C205.322 269.829 205.481 269.926 205.656 269.984C205.831 270.043 206.016 270.062 206.199 270.039C206.382 270.016 206.558 269.952 206.713 269.853C206.868 269.753 206.999 269.62 207.096 269.463C209.047 266.397 210.77 263.191 212.252 259.872C212.92 258.504 212.267 257.023 210.29 259.539Z" fill="#3A5AB7"/>
<path d="M393.81 268.366C391.211 265.138 388.611 261.827 386.033 258.584C385.901 258.455 385.741 258.358 385.566 258.299C385.391 258.24 385.205 258.221 385.021 258.244C384.838 258.267 384.662 258.33 384.507 258.43C384.351 258.53 384.22 258.664 384.123 258.821C378.509 268.369 379.423 268.231 378.971 268.412C378.398 268.603 378.207 269.7 378.971 269.795C379.925 269.94 380.403 269.367 380.926 268.699C381.617 267.783 382.255 266.827 382.836 265.838L384.555 262.973C384.555 263.053 384.41 264.593 384.41 265.838C384.364 268.302 384.792 359.121 384.792 359.121C384.804 359.297 384.881 359.461 385.01 359.581C385.138 359.701 385.307 359.768 385.483 359.768C385.659 359.768 385.828 359.701 385.957 359.581C386.085 359.461 386.163 359.297 386.175 359.121C386.597 349.152 386.686 266.29 386.415 262.927C388.263 265.311 390.185 267.698 392.045 270.082C392.281 270.312 392.598 270.441 392.928 270.441C393.257 270.441 393.574 270.312 393.81 270.082C393.923 269.97 394.013 269.836 394.075 269.689C394.136 269.541 394.168 269.384 394.168 269.224C394.168 269.065 394.136 268.907 394.075 268.759C394.013 268.612 393.923 268.479 393.81 268.366Z" fill="#3A5AB7"/>
<path d="M547.746 386.176C546.794 386.016 546.314 386.607 545.787 387.276C544.461 389.107 543.25 391.019 542.162 393.002C542.162 317.153 541.836 295.181 541.925 296.853C541.925 296.669 541.852 296.493 541.722 296.363C541.592 296.233 541.416 296.16 541.232 296.16C541.048 296.16 540.872 296.233 540.742 296.363C540.612 296.493 540.539 296.669 540.539 296.853C540.117 306.9 540.031 389.712 540.302 393.048C538.454 390.664 536.532 388.277 534.671 385.89C534.435 385.665 534.12 385.541 533.794 385.545C533.467 385.549 533.156 385.68 532.925 385.911C532.694 386.142 532.563 386.454 532.559 386.78C532.555 387.106 532.678 387.421 532.904 387.658C535.482 390.901 538.106 394.194 540.684 397.44C540.816 397.568 540.976 397.665 541.151 397.723C541.326 397.782 541.512 397.8 541.694 397.777C541.877 397.754 542.053 397.69 542.208 397.59C542.363 397.49 542.494 397.357 542.59 397.2C548.15 387.747 547.303 387.784 547.746 387.608C548.319 387.371 548.51 386.306 547.746 386.176Z" fill="#3A5AB7"/>
<path d="M197.981 116.578C195.11 114.25 191.805 112.516 188.258 111.476C184.711 110.436 180.993 110.111 177.32 110.52C175.888 110.661 175.888 112.903 177.32 112.762C182.923 112.163 188.573 113.313 193.496 116.054C204.609 122.495 208.896 140.654 199.367 154.465C196.164 158.905 191.715 162.296 186.585 164.207C181.454 166.118 175.872 166.465 170.544 165.202C164.576 163.707 159.321 160.166 155.694 155.197C152.067 150.227 150.297 144.142 150.693 138.002C151.309 126.837 159.093 115.577 170.258 112.762C171.607 112.426 172.979 112.187 174.363 112.047C174.502 112.037 174.632 111.974 174.726 111.872C174.821 111.771 174.873 111.637 174.873 111.497C174.873 111.358 174.821 111.224 174.726 111.122C174.632 111.021 174.502 110.958 174.363 110.948C156.305 109.765 139.907 136.308 154.001 156.421C151.603 158.297 149.354 160.356 147.275 162.581C144.841 164.968 130.717 179.425 129.571 180.617C128.488 181.678 127.555 182.882 126.799 184.196C126.109 185.342 125.807 186.679 125.935 188.01C126.064 189.341 126.617 190.596 127.513 191.588C128.501 192.395 129.695 192.91 130.96 193.073C132.225 193.237 133.511 193.042 134.671 192.512C137.395 191.127 139.838 189.247 141.875 186.968C144.262 184.677 159.053 170.644 164.017 165.781C164.402 165.393 164.846 165.633 165.305 165.827C170.871 168.176 177.017 168.786 182.936 167.576C188.855 166.367 194.269 163.395 198.467 159.051C209.521 147.098 209.854 127.293 197.981 116.578ZM150.121 175.794C139.267 186.032 134.905 191.822 130.51 190.652C127.932 189.984 127.695 187.215 128.792 185.108C129.489 183.935 130.339 182.86 131.32 181.911C132.42 180.814 146.018 166.976 148.5 164.543C150.792 162.426 152.943 160.163 154.941 157.767C156.99 160.345 159.478 162.542 162.29 164.256C158.329 168.112 154.223 171.926 150.121 175.794Z" fill="#212941"/>
<path d="M164.474 123.021C153.555 133.068 156.398 151.099 169.094 156.612C172.959 158.245 177.228 158.673 181.34 157.838C185.453 157.004 189.218 154.947 192.141 151.936C199.86 143.7 199.943 129.908 191.713 122.544C187.691 119.329 182.568 117.822 177.447 118.346C177.304 118.338 177.161 118.36 177.028 118.409C176.894 118.458 176.771 118.534 176.667 118.632C176.564 118.73 176.481 118.848 176.425 118.98C176.368 119.111 176.339 119.252 176.339 119.395C176.339 119.537 176.368 119.679 176.425 119.81C176.481 119.941 176.564 120.059 176.667 120.157C176.771 120.255 176.894 120.331 177.028 120.38C177.161 120.43 177.304 120.451 177.447 120.443C181.191 120.049 184.967 120.801 188.276 122.599C195.942 127.019 198.628 139.321 192.28 148.471C190.14 151.48 187.151 153.781 183.694 155.079C180.238 156.377 176.473 156.612 172.882 155.756C168.84 154.72 165.286 152.308 162.83 148.936C160.374 145.563 159.17 141.44 159.425 137.276C159.643 133.417 161.035 129.717 163.415 126.672C165.794 123.627 169.049 121.383 172.74 120.24C173.654 120.015 174.579 119.84 175.512 119.716C176.085 119.621 175.894 118.808 175.371 118.762C173.36 118.694 171.357 119.037 169.483 119.769C167.61 120.501 165.905 121.608 164.474 123.021Z" fill="#212941"/>
<path d="M181.184 136.524C180.162 136.586 179.175 136.915 178.32 137.479C175.48 138.859 172.78 140.51 170.256 142.407C169.683 142.835 170.161 143.836 170.872 143.408C172.905 142.2 176.364 140.149 178.982 138.969C179.795 138.588 181.033 138.255 181.56 137.429C181.6 137.346 181.621 137.255 181.624 137.163C181.626 137.07 181.609 136.978 181.574 136.893C181.538 136.808 181.485 136.731 181.418 136.667C181.351 136.603 181.271 136.555 181.184 136.524Z" fill="#212941"/>
<path d="M177.465 143.3C176.932 143.673 177.415 144.532 177.988 144.206C182.59 141.551 184.887 141.286 185.814 140.439C185.891 140.361 185.944 140.263 185.966 140.156C185.987 140.049 185.977 139.937 185.937 139.836C185.896 139.735 185.827 139.647 185.737 139.585C185.648 139.522 185.542 139.487 185.433 139.484C184.676 139.517 183.937 139.728 183.277 140.1C181.241 140.978 179.295 142.05 177.465 143.3Z" fill="#212941"/>
<path d="M223.985 317.419C224.103 316.677 224.034 315.917 223.784 315.208C223.534 314.5 223.11 313.865 222.552 313.362C223.294 312.396 223.731 311.231 223.808 310.015C223.885 308.8 223.598 307.589 222.984 306.537C222.288 305.466 221.321 304.598 220.182 304.021C219.043 303.443 217.772 303.177 216.497 303.247C216.628 301.661 216.273 300.071 215.48 298.691C214.687 297.31 213.493 296.203 212.056 295.517C210.587 294.89 208.96 294.731 207.398 295.061C205.836 295.392 204.413 296.196 203.324 297.365C200.161 294.833 194.879 296.025 192.639 301.754C191.705 301.566 190.736 301.654 189.851 302.006C188.965 302.358 188.2 302.959 187.65 303.737C187.099 304.515 186.785 305.436 186.747 306.388C186.709 307.34 186.948 308.283 187.434 309.103C184.311 311.733 187.511 316.658 190.708 316.587C190.453 320.135 190.382 324.315 190.299 327.475C190.001 330.664 190.162 333.879 190.776 337.023C191.612 339.711 193.434 341.983 195.877 343.382C198.32 344.781 201.202 345.202 203.943 344.563C207.533 343.953 210.904 342.424 213.728 340.124C214.107 339.696 213.728 338.892 213.155 339.123C210.546 340.6 207.796 341.814 204.947 342.748C199.452 343.98 193.908 341.994 192.35 336.832C191.173 332.806 192.211 325.371 191.91 316.371C194.176 315.403 196.224 313.988 197.931 312.21C198.86 313.181 200.081 313.823 201.407 314.038C202.734 314.253 204.094 314.03 205.283 313.402C206.245 314.459 207.457 315.257 208.808 315.724C210.158 316.191 211.604 316.312 213.014 316.076C213.428 318.882 214.369 321.586 215.786 324.044C215.98 324.389 216.617 324.638 216.885 324.235C217.109 323.958 217.426 323.772 217.776 323.711C218.127 323.65 218.487 323.718 218.792 323.902C219.549 324.491 220.059 325.341 220.224 326.286C220.419 326.761 220.503 327.275 220.47 327.788C220.437 328.301 220.287 328.799 220.033 329.246C219.915 329.41 219.766 329.55 219.593 329.655C219.421 329.761 219.229 329.831 219.029 329.862C218.601 329.911 218.219 329.72 217.797 329.911C216.891 330.339 217.144 331.759 217.129 332.581C217.095 334.251 217.079 339.536 217.079 339.665C216.948 340.786 217.063 341.923 217.415 342.995C217.47 343.084 217.547 343.158 217.639 343.209C217.731 343.26 217.834 343.286 217.939 343.286C218.044 343.286 218.147 343.26 218.238 343.209C218.33 343.158 218.407 343.084 218.462 342.995C218.744 341.987 218.81 340.931 218.656 339.896C218.656 339.588 218.656 331.664 218.798 331.356H218.989C219.864 331.267 220.671 330.846 221.244 330.18C221.818 329.513 222.113 328.652 222.069 327.774C222.027 325.964 221.269 324.245 219.962 322.993C221.946 321.697 223.38 319.71 223.985 317.419Z" fill="#212941"/>
<path d="M200.318 335.119C200.81 335.409 201.394 335.502 201.952 335.379C202.51 335.255 203 334.925 203.324 334.454C203.382 334.353 203.412 334.239 203.412 334.122C203.413 334.006 203.382 333.891 203.325 333.79C203.267 333.689 203.185 333.604 203.085 333.545C202.985 333.485 202.871 333.452 202.754 333.45C202.006 333.45 201.464 334.251 200.94 333.595C200.463 332.926 200.845 331.781 200.986 331.017C201.322 329.107 201.8 327.201 202.277 325.291C202.468 324.577 201.418 324.336 201.177 325.005C200.715 326.175 200.317 327.37 199.985 328.584C199.363 330.792 198.396 333.854 200.318 335.119Z" fill="#212941"/>
<path d="M205.856 321.093C208.213 321.093 208.271 322.054 209.026 322.325C209.904 322.648 210.584 321.576 209.482 320.748C208.963 320.282 208.311 319.99 207.618 319.913C206.924 319.836 206.224 319.978 205.616 320.32C205.284 320.471 205.438 321.093 205.856 321.093Z" fill="#212941"/>
<path d="M194.019 322.048C194.577 321.768 194.922 321.312 195.867 320.862C196.498 320.604 197.147 320.398 197.811 320.246C198.827 319.833 198.618 317.853 195.076 319.63C194.274 320.011 193.623 320.649 193.228 321.444C193.062 321.721 193.524 322.297 194.019 322.048Z" fill="#212941"/>
<path d="M309.972 490.629C308.047 489.471 303.504 486.933 301.431 486.009C297.482 484.694 299.053 486.625 300.094 487.441C301.946 488.777 303.874 490.004 305.869 491.115C276.501 491.115 226.892 492.246 219.882 492.07C216.303 491.975 211.963 491.688 209.434 488.873C207.874 486.401 207.278 483.44 207.762 480.557V468.391C207.747 468.098 207.619 467.822 207.407 467.62C207.194 467.417 206.911 467.305 206.618 467.305C206.324 467.305 206.042 467.417 205.829 467.62C205.616 467.822 205.489 468.098 205.473 468.391C205.473 471.206 205.424 474.021 205.424 476.787C205.424 483.187 204.389 489.363 210.352 492.44C212.856 493.628 215.589 494.258 218.36 494.288C222.244 494.509 217.664 494.577 305.395 493.237L298.665 498.535C298.54 498.649 298.439 498.787 298.369 498.941C298.298 499.095 298.26 499.262 298.256 499.431C298.252 499.6 298.283 499.769 298.346 499.926C298.409 500.083 298.503 500.226 298.623 500.345C298.743 500.465 298.886 500.559 299.043 500.622C299.2 500.684 299.368 500.715 299.538 500.71C299.707 500.706 299.873 500.667 300.027 500.597C300.181 500.526 300.319 500.425 300.433 500.3C303.676 497.725 306.969 495.098 310.212 492.523C310.338 492.39 310.433 492.232 310.49 492.058C310.547 491.884 310.564 491.7 310.541 491.519C310.518 491.337 310.455 491.163 310.357 491.009C310.258 490.856 310.127 490.725 309.972 490.629Z" fill="#3A5AB7"/>
<path d="M414.232 396.149C414.088 396.149 413.992 396.103 413.851 396.103C401.01 395.022 334.621 393.639 332.16 393.716C332.073 393.673 331.978 393.648 331.881 393.644C331.784 393.64 331.687 393.656 331.596 393.692C331.506 393.728 331.425 393.783 331.357 393.853C331.29 393.923 331.238 394.007 331.205 394.098C330.167 399.919 314.983 502.979 314.983 502.08C314.866 502.727 315.817 503.158 316.128 503.084C316.846 503.041 398.836 505.622 398.484 505.613C398.648 505.632 398.814 505.588 398.947 505.49C399.08 505.393 399.171 505.248 399.202 505.086C399.578 503.506 415.474 399.232 415.474 395.767C415.563 394.973 414.232 394.994 414.232 396.149ZM397.908 504.408C385.071 503.327 318.685 501.969 316.35 502.034C316.35 501.726 317.114 499.382 318.546 490.151C323.394 457.854 332.406 394.92 332.431 394.766C332.431 394.458 407.891 397.468 413.931 397.295C413.915 397.603 398.823 499.215 397.936 504.408H397.908Z" fill="#212941"/>
<path d="M388.134 429.968C386.027 429.506 384.777 429.426 372.386 429.062C369.888 428.976 348.876 428.28 346.514 428.825C345.608 429.016 345.99 430.304 346.896 430.208C346.588 430.208 361.695 430.559 381.013 431.354C383.316 431.513 385.628 431.528 387.934 431.4C388.697 431.317 389.005 430.171 388.134 429.968Z" fill="#212941"/>
<path d="M385.41 444.25C380.197 443.504 374.929 443.2 369.665 443.341C367.124 443.255 346.146 442.562 343.793 443.104C342.887 443.295 343.269 444.583 344.175 444.487C343.867 444.487 358.398 444.814 378.292 445.633C380.595 445.792 382.905 445.807 385.21 445.679C385.983 445.584 386.269 444.444 385.41 444.25Z" fill="#212941"/>
<path d="M383.79 457.325C378.575 456.587 373.307 456.283 368.042 456.416C365.578 456.33 344.532 455.634 342.17 456.179C341.264 456.37 341.646 457.657 342.552 457.562C342.244 457.562 356.64 457.87 376.669 458.708C378.973 458.866 381.284 458.882 383.59 458.754C384.363 458.658 384.649 457.562 383.79 457.325Z" fill="#212941"/>
<path d="M415.853 175.317C415.095 174.861 414.313 175.52 413.66 176.182C412.286 177.574 408.489 182.795 380.812 219.351C375.592 213.3 369.779 207.788 363.459 202.898C362.412 202.282 361.454 203.76 362.175 204.617C366.154 209.335 370.675 212.8 379.78 222.989C379.955 223.153 380.165 223.275 380.393 223.348C380.621 223.421 380.863 223.442 381.101 223.41C381.338 223.378 381.566 223.293 381.767 223.162C381.968 223.031 382.137 222.858 382.262 222.653C416.58 177.017 415.412 179.09 416.38 176.607C416.443 176.364 416.426 176.107 416.331 175.874C416.236 175.641 416.069 175.446 415.853 175.317Z" fill="#FF9500"/>
<path d="M545.263 202.994C544.038 204.666 542.921 206.414 541.921 208.23C542.066 203.554 541.825 198.829 541.73 194.154C540.593 137.562 541.471 134.568 529.04 133.41C524.343 132.933 513.332 132.375 508.377 132.218C473.265 130.814 437.537 132.526 399.727 133.124C393.671 133.188 386.248 133.053 381.453 137.371C377.855 140.734 377.517 147.591 377.449 152.879C377.319 158.06 377.574 163.244 378.213 168.387C378.308 169.151 379.408 168.864 379.5 168.196C380.501 159.948 377.44 142.801 383.748 138.32C387.23 136.243 391.244 135.231 395.294 135.409C428.977 134.531 496.06 132.637 527.901 135.551C529.944 135.543 531.969 135.932 533.864 136.697C537.56 138.785 537.868 145.739 538.206 150.344C538.779 158.121 538.779 165.994 538.921 173.774C539.112 183.174 539.734 206.459 539.876 208.701C537.801 206.415 535.843 204.026 534.008 201.543C533.771 201.327 533.459 201.21 533.138 201.218C532.817 201.225 532.511 201.356 532.284 201.583C532.056 201.81 531.925 202.116 531.917 202.437C531.909 202.758 532.025 203.07 532.24 203.308C534.818 206.554 537.443 209.847 540.021 213.09C540.153 213.218 540.312 213.315 540.487 213.374C540.662 213.433 540.848 213.451 541.031 213.428C541.214 213.406 541.389 213.342 541.544 213.242C541.699 213.143 541.83 213.01 541.927 212.853C543.893 209.828 545.669 206.683 547.243 203.437C548.586 201.74 546.701 201.158 545.263 202.994Z" fill="#3A5AB7"/>
<path d="M566.927 433.99C566.493 428.725 564.182 423.791 560.416 420.086C556.65 416.382 551.679 414.152 546.408 413.804C540.874 413.319 535.333 414.651 530.624 417.596C525.914 420.541 522.292 424.94 520.305 430.128C517.16 439.639 520.234 450.148 524.029 459.425C527.253 467.187 529.018 472.253 540.728 489.821C540.346 490.918 542.019 491.827 542.638 490.681C551.24 475.142 568.544 451.743 566.927 433.99ZM543.211 446.926C541.677 447.06 540.133 446.83 538.704 446.257C537.275 445.684 536 444.784 534.983 443.628C533.967 442.471 533.235 441.093 532.849 439.602C532.463 438.112 532.433 436.551 532.76 435.047C532.699 433.342 533.131 431.655 534.005 430.19C534.88 428.726 536.159 427.544 537.688 426.789C539.887 425.688 542.371 425.29 544.804 425.649C547.236 426.007 549.499 427.105 551.287 428.794C552.527 430.405 553.308 432.321 553.548 434.339C553.789 436.357 553.478 438.403 552.651 440.26C551.823 442.116 550.509 443.714 548.847 444.884C547.185 446.055 545.238 446.754 543.211 446.908V446.926Z" fill="#212941"/>
<path d="M278.574 381.168C270.378 374.038 258.532 378.122 249.227 383.743C239.187 389.829 217.848 407.613 208.193 416.333C207.106 417.316 206.101 418.385 205.187 419.53C204.9 419.911 205.282 420.534 205.759 420.247C208.92 418.224 212 415.233 218.926 409.51C225.422 404.077 238.463 393.436 245.414 388.612C253.382 383.032 265.434 376.474 274.283 380.546C277.479 382.169 280.018 384.845 281.469 388.123C282.921 391.401 283.197 395.079 282.251 398.536C280.206 404.305 271.299 410.379 266.217 413.52C256.379 419.566 246.44 423.438 236.492 429.312C236.335 429.419 236.224 429.583 236.183 429.769C236.142 429.955 236.173 430.15 236.27 430.314C236.367 430.478 236.523 430.599 236.706 430.652C236.889 430.706 237.085 430.688 237.255 430.602C251.196 423.161 266.402 417.509 277.813 407.364C279.901 405.83 281.616 403.846 282.831 401.557C284.045 399.269 284.727 396.736 284.826 394.147C284.505 389.174 282.263 384.519 278.574 381.168Z" fill="#212941"/>
<path d="M193.258 446.6C190.884 446.428 181.505 451.593 172.739 451.944C170.275 452.012 165.397 451.691 163.958 449.748C162.957 448.411 164.574 447.173 165.723 446.742C169.656 445.396 177.821 444.219 181.089 441.302C181.471 440.97 181.089 440.206 180.566 440.397C177.098 441.904 173.486 443.055 169.786 443.831C167.115 444.546 161.531 445.168 161.913 449.175C162.246 452.517 166.971 453.281 169.595 453.567C176.552 454.346 183.951 451.494 190.591 449.079C191.681 448.8 192.725 448.367 193.693 447.792C194.259 447.352 193.782 446.625 193.258 446.6Z" fill="#212941"/>
<path d="M246.75 441.912C245.649 440.512 244.47 439.175 243.217 437.908C232.145 427.036 225.19 437.985 220.983 434.52C221.124 434.283 221.22 434.092 221.365 433.852C221.465 433.682 221.514 433.487 221.504 433.29C221.494 433.093 221.425 432.904 221.308 432.746C221.19 432.588 221.028 432.468 220.843 432.402C220.657 432.335 220.456 432.326 220.265 432.373C209.922 424.809 196.263 417.411 180.09 405.223C171.265 398.506 167.052 394.061 160.667 390.131C153.575 385.834 145.844 382.693 137.764 380.826C120.051 377.876 109.065 390.901 116.435 405.639C119.823 412.415 126.408 416.853 132.759 420.623C140.064 424.959 147.807 428.51 155.859 431.215C172.654 436.846 210.492 449.11 212.593 449.778C212.836 449.838 213.091 449.819 213.322 449.724C213.553 449.63 213.749 449.464 213.88 449.252C214.216 448.679 214.496 448.155 214.835 447.582C232.776 451.349 230.565 456.043 249.383 458.51C253.374 459.195 257.469 458.967 261.358 457.842C263.088 457.399 264.7 456.584 266.083 455.455C267.466 454.326 268.586 452.909 269.366 451.303C269.645 450.54 269.712 449.717 269.561 448.919C269.41 448.122 269.045 447.38 268.507 446.772C264.934 443.332 252.627 448.965 246.75 441.912ZM212.297 447.302C158.031 428.992 153.931 429.198 140.675 422.394C133.825 419.154 127.528 414.855 122.016 409.655C117.581 404.835 114.575 397.295 117.581 390.947C120.396 384.984 127.363 382.502 133.566 382.742C140.549 382.989 150.34 387.054 156.374 390.328C167.326 396.18 169.205 401.265 194.929 418.292C202.078 423.022 211.647 429.149 219.119 433.417C216.64 437.902 214.986 442.864 212.297 447.302ZM266.36 452.409C265.179 453.673 263.75 454.679 262.162 455.366C258.657 456.792 254.842 457.286 251.09 456.798C233.275 455.279 230.297 448.275 215.59 445.824C217.213 442.482 218.55 438.998 220.265 435.755C223.672 439.023 229.231 433.759 234.627 434.896C237.81 435.755 240.646 437.586 242.74 440.132C245.105 442.694 247.083 447.382 256.15 447.625C260.835 447.739 265.806 446.877 267.029 448.103C268.251 449.329 267.309 451.352 266.36 452.409Z" fill="#212941"/>
<path d="M181.104 401.632C184.255 401.678 216.271 401.728 219.992 401.678C229.9 393.553 241.792 383.796 251.057 378.775C251.155 372.554 251.731 347.452 250.77 343.608C249.909 340.005 247.686 336.876 244.567 334.876C241.294 333.341 237.672 332.703 234.071 333.028C212.166 333.028 175.726 331.796 160.585 332.933C153.261 333.401 148.761 334.211 147.892 342.237C147.276 347.184 147.307 350.088 146.938 379.838C165.448 386.863 168.34 391.816 181.104 401.632ZM196.504 362.79C197.398 362.274 198.432 362.051 199.459 362.154C200.486 362.257 201.456 362.68 202.23 363.363C202.801 364.003 203.184 364.79 203.334 365.635C203.483 366.48 203.395 367.35 203.078 368.147C202.761 368.945 202.228 369.638 201.539 370.15C200.85 370.662 200.032 370.972 199.177 371.045C198.215 371.044 197.277 370.739 196.499 370.172C195.72 369.606 195.141 368.807 194.844 367.892C194.547 366.976 194.548 365.99 194.846 365.074C195.144 364.159 195.725 363.362 196.504 362.796V362.79Z" fill="#3A5AB7"/>
<path d="M466.768 374.106C466.626 374.106 466.527 374.057 466.386 374.057C453.524 372.976 387.023 371.593 384.695 371.673C384.608 371.629 384.513 371.604 384.416 371.599C384.318 371.595 384.221 371.611 384.131 371.648C384.04 371.684 383.959 371.739 383.891 371.809C383.824 371.879 383.772 371.963 383.74 372.055C383.503 373.389 380.925 389.374 380.543 391.856C381.159 391.856 381.735 391.902 382.357 391.902C384.137 380.506 384.87 373.114 384.932 372.723C385.825 372.702 460.392 375.424 466.432 375.252C465.397 381.122 451.251 477.693 450.339 482.27C448.765 482.27 447.302 481.654 406.024 480.656C406.024 480.656 405.808 482.196 405.787 482.325C410.604 482.47 450.973 483.616 450.973 483.616C451.642 483.711 451.685 482.279 451.737 482.042C452.442 478.832 453.533 472.916 454.026 469.722C454.14 468.967 468.043 374.306 468.055 373.78C468.067 373.204 466.768 372.933 466.768 374.106Z" fill="#212941"/>
<path d="M410.416 190.96L408.876 192.965C412.254 196.992 414.698 201.717 416.034 206.8C419.715 222.425 406.622 242.088 386.066 245.069C379.266 246 372.343 244.876 366.186 241.841C360.03 238.805 354.923 233.998 351.521 228.037C347.766 221.286 346.502 213.431 347.949 205.843C349.396 198.255 353.463 191.416 359.439 186.522C371.143 176.792 388.022 175.742 399.141 182.897C400.288 183.637 401.388 184.45 402.433 185.33L403.246 184.233C394.721 175.274 377.624 173.031 363.163 181.369C355.957 185.437 350.388 191.883 347.41 199.604C344.432 207.325 344.23 215.841 346.839 223.694C349.448 230.75 354.142 236.845 360.299 241.168C366.455 245.49 373.782 247.836 381.304 247.894C401.103 247.749 419.342 231.45 419.05 211.55C418.834 200.151 410.823 191.782 410.416 190.96Z" fill="#FF9500"/>
<path d="M541.158 259.823C540.591 259.986 538.851 260.624 538.58 260.747C539.772 263.519 540.967 266.232 542.205 268.952C543.022 268.496 543.776 267.934 544.447 267.283C541.817 261.163 541.158 260.072 541.158 259.823Z" fill="#3A5AB7"/>
<path d="M532.474 256.961C531.858 258.908 533.826 259.65 535.816 259.253C535.148 257.676 534.526 256.056 533.906 254.479C533.288 255.217 532.804 256.057 532.474 256.961Z" fill="#3A5AB7"/>
<path d="M543.258 259.444C544.166 261.4 545.072 263.355 545.931 265.361C547.517 262.579 546.824 259.444 543.258 259.444Z" fill="#3A5AB7"/>
<path d="M537.436 251.664C536.722 252.055 536.051 252.52 535.434 253.05C535.464 253.145 537.106 257.278 537.771 258.775C538.581 258.489 539.441 258.159 540.251 257.851C539.324 255.701 537.71 252.283 537.436 251.664Z" fill="#3A5AB7"/>
<path d="M581.813 223.845C580.479 224.431 578.978 224.517 577.585 224.088C576.193 223.659 575.001 222.743 574.227 221.507C571.255 223.189 495.82 255.973 494.351 256.484C494.864 258.069 494.794 259.785 494.156 261.324C493.518 262.863 492.352 264.123 490.867 264.88C491.822 267.064 496.559 283.585 498.835 292.6C500.516 291.861 502.395 291.703 504.175 292.153C505.955 292.602 507.535 293.632 508.663 295.079C510.203 294.371 509.279 294.895 513.816 292.837C522.579 288.688 522.046 288.331 559.243 272.94C564.827 270.649 586.963 261.153 588.876 260.439C588.668 259.107 588.867 257.743 589.446 256.526C590.025 255.309 590.958 254.295 592.122 253.616C591.725 252.782 582.026 225.311 581.813 223.845ZM548.938 274.57C548.695 274.7 548.412 274.734 548.146 274.663C547.88 274.592 547.65 274.422 547.505 274.188C546.791 272.565 546.073 270.941 545.405 269.318C544.724 269.922 543.97 270.439 543.163 270.858C543.689 272.004 544.213 273.1 544.786 274.246C545.359 275.441 543.594 276.442 543.021 275.296L541.302 271.717C538.837 272.575 536.163 272.625 533.667 271.862C532.379 271.431 532.903 269.38 534.24 269.808C536.247 270.439 538.402 270.423 540.4 269.762C539.168 266.99 537.917 264.218 536.725 261.412C536.725 261.405 536.724 261.399 536.722 261.393C536.719 261.387 536.715 261.382 536.711 261.377C536.706 261.372 536.701 261.369 536.695 261.366C536.689 261.364 536.683 261.363 536.676 261.363C532.727 262.305 530.408 260.386 530.282 257.975C530.528 255.855 531.548 253.902 533.146 252.489C532.437 250.796 531.878 249.044 531.477 247.253C531.482 247.117 531.526 246.986 531.604 246.874C531.683 246.763 531.791 246.677 531.918 246.627C532.044 246.576 532.182 246.563 532.315 246.59C532.449 246.616 532.572 246.681 532.669 246.776C533.149 247.256 533.156 247.7 534.625 251.115C535.229 250.634 535.885 250.22 536.581 249.883C536.008 248.593 535.438 247.305 534.961 245.969C534.674 245.254 535.82 244.823 536.192 245.445C536.951 246.643 537.637 247.886 538.247 249.166C539.704 248.584 541.333 248.601 542.778 249.215C543.495 249.597 543.064 250.549 542.396 250.598C541.352 250.631 540.314 250.759 539.294 250.98C538.986 250.98 539.048 250.586 542.254 257.565C548.753 256.89 550.678 263.013 546.874 267.871C547.684 269.685 548.448 271.499 549.212 273.31C549.281 273.409 549.328 273.522 549.352 273.64C549.376 273.759 549.374 273.881 549.349 273.999C549.323 274.118 549.273 274.229 549.202 274.327C549.132 274.425 549.042 274.508 548.938 274.57Z" fill="#3A5AB7"/>
<path d="M600.566 260.587C595.989 245.036 588.711 227.603 583.863 212.252C583.727 211.799 582.495 211.839 582.243 211.966C516.537 238.829 502.135 247.49 484.949 255.052C484.185 255.434 482.894 255.72 482.657 256.675C482.512 257.199 482.894 257.962 483.039 258.489C483.23 259.157 496.496 305.49 496.878 306.777C496.949 306.999 497.101 307.186 497.305 307.301C497.508 307.415 497.747 307.448 497.974 307.393C499.742 306.922 548.535 282.445 599.944 261.634C600.053 261.606 600.157 261.557 600.247 261.489C600.338 261.422 600.415 261.337 600.472 261.239C600.53 261.142 600.568 261.034 600.584 260.922C600.6 260.81 600.594 260.696 600.566 260.587ZM593.208 254.956C592.282 255.466 591.571 256.293 591.206 257.285C590.798 258.302 590.682 259.412 590.87 260.491C590.933 260.59 590.976 260.701 590.995 260.817C591.015 260.934 591.012 261.052 590.985 261.167C590.958 261.282 590.909 261.39 590.84 261.485C590.771 261.581 590.684 261.662 590.584 261.723C588.275 262.969 585.884 264.054 583.426 264.969C580.561 266.201 515.715 294.125 513.818 294.935C511.958 295.918 509.939 296.564 507.855 296.844C507.38 296.844 507.491 296.623 507.186 296.318C506.17 295.117 504.748 294.333 503.191 294.113C501.633 293.893 500.05 294.254 498.741 295.126C498.604 295.21 498.448 295.261 498.288 295.274C498.128 295.288 497.966 295.264 497.817 295.204C497.667 295.144 497.533 295.05 497.427 294.93C497.32 294.809 497.242 294.665 497.201 294.51C491.438 272.281 489.122 267.184 488.885 265.071C488.748 264.94 488.643 264.779 488.578 264.602C488.512 264.424 488.487 264.234 488.506 264.045C488.524 263.857 488.585 263.675 488.684 263.513C488.782 263.352 488.917 263.214 489.076 263.112C494.34 260.858 491.481 256.136 492.895 255.289C496.496 253.238 553.879 228.511 570.721 221.027C571.978 220.403 573.287 219.888 574.632 219.487C574.778 219.451 574.931 219.457 575.075 219.502C575.218 219.548 575.346 219.632 575.445 219.746C575.543 219.859 575.609 219.998 575.634 220.146C575.659 220.295 575.643 220.447 575.587 220.587C575.915 220.914 576.266 221.216 576.637 221.492C577.303 221.985 578.094 222.283 578.921 222.35C579.747 222.418 580.575 222.253 581.313 221.874C582.237 221.236 583.225 221.526 583.078 222.542C583.75 223.671 584.295 224.872 584.701 226.121C586.41 230.473 593.217 250.253 593.91 251.993C594.204 252.678 594.382 253.406 594.437 254.149C594.367 254.412 594.204 254.639 593.977 254.788C593.75 254.937 593.476 254.997 593.208 254.956Z" fill="#3A5AB7"/>
<path d="M196.435 325.165C196.188 325.194 195.949 325.275 195.736 325.402C195.522 325.529 195.337 325.7 195.194 325.904C195.051 326.107 194.952 326.338 194.904 326.583C194.856 326.827 194.86 327.078 194.916 327.321C195.142 327.722 195.509 328.024 195.946 328.169C196.383 328.314 196.858 328.29 197.279 328.103C198.089 327.718 198.079 326.467 197.839 325.975C197.708 325.718 197.506 325.506 197.257 325.362C197.007 325.218 196.722 325.15 196.435 325.165Z" fill="#212941"/>
<path d="M206.977 326.172C205.745 325.984 205.212 327.247 205.231 328.082C205.249 328.916 206.565 329.606 207.544 329.243C208.523 328.879 208.517 327.971 208.246 327.195C208.168 326.913 208.004 326.663 207.776 326.479C207.549 326.296 207.269 326.189 206.977 326.172Z" fill="#212941"/>
</svg>
