<svg width="616" height="616" viewBox="0 0 616 616" fill="none" xmlns="http://www.w3.org/2000/svg">
<path d="M121.561 200.452C120.055 201.684 118.869 201.684 117.643 199.809C112.25 191.511 109.737 183.029 106.416 174.245C99.0981 176.187 92.1165 179.228 85.7096 183.263C60.2657 200.751 42.528 212.242 29.1516 236.787C17.8572 257.518 13.4436 275.09 29.6752 291.097C42.7498 303.98 37.9388 301.615 30.9996 296.598C8.84205 280.588 13.0339 257.534 26.5613 233.91C37.0561 216.364 51.3951 201.428 68.4986 190.227C78.5666 182.932 89.4688 176.865 100.974 172.153C110.442 168.503 113.06 165.152 116.199 168.657C118 170.672 119.873 169.24 121.435 168.377C121.435 155.306 121.619 155.42 120.631 154.477C115.385 149.321 112.291 142.366 111.973 135.018C110.122 135.755 108.058 135.75 106.21 135.004C104.362 134.259 102.873 132.829 102.052 131.014C101.246 129.589 100.919 127.943 101.122 126.319C101.324 124.694 102.045 123.178 103.176 121.995C100.465 118.762 98.6431 114.877 97.8896 110.725C97.1362 106.573 97.4775 102.296 98.8797 98.3164C102.653 86.366 111.357 79.898 123.381 77.4679C124.157 77.2296 124.984 77.2094 125.771 77.4093C128.763 78.2161 131.896 78.3601 134.95 77.8313C145.012 77.5695 152.028 83.0088 157.665 90.6041C164.715 100.103 162.285 110.763 161.24 112.013C158.413 115.401 159.513 119.365 159.312 123.221C158.949 130.191 158.598 137.177 157.625 144.07C156.393 152.823 150.516 157.505 142 159.778C142 161.888 141.926 164.114 142.058 166.326C142.144 167.69 144.935 167.755 145.354 167.17C148.15 163.24 149.823 167.154 156.038 168.916C166.335 171.833 175.094 177.697 183.854 183.435C216.893 205.072 221.02 211.272 234.246 223.475C246.171 202.279 238.933 215.59 252.664 188.551C252.87 188.127 253.164 187.752 253.526 187.451C253.888 187.15 254.31 186.929 254.764 186.803C255.217 186.678 255.693 186.65 256.158 186.723C256.624 186.795 257.068 186.966 257.463 187.224C267.818 193.784 278.117 200.421 288.454 207.006C290.32 208.195 289.877 209.899 289.338 211.528C282.254 232.86 277.045 248.941 269.653 261.316C256.486 283.36 240.393 294.103 215.599 291.713C207.249 291.185 199.028 289.39 191.218 286.39V318.949C195.875 318.949 217.469 319.257 222.018 319.328C224.648 319.368 225.406 320.052 225.452 322.805C225.539 327.866 225.582 332.926 225.554 337.987C225.567 338.585 225.46 339.179 225.239 339.736C225.018 340.292 224.689 340.798 224.269 341.225C223.85 341.652 223.349 341.99 222.797 342.221C222.245 342.451 221.652 342.569 221.054 342.567C219.708 342.622 219.249 343.09 219.166 344.374C215.947 394.363 194.039 500.644 184.799 547.427C183.811 552.432 178.202 552.157 178.895 548.27C184.59 516.238 204.459 431.619 214.524 342.788H27.9257C34.1165 387.599 61.7441 502.061 71.0088 548.449C71.9574 553.211 67.0048 551.837 66.3888 549.133C41.0804 437.418 27.6208 380.278 23.5768 342.727C18.9999 342.305 18.2545 341.402 18.2761 336.662C18.3469 320.437 16.8716 319.922 22.1322 319.771C26.5551 319.642 38.5764 319.371 43.0208 319.371C43.3719 316.291 43.4613 303.515 43.4613 301.313C43.4613 299.206 44.2436 298.144 46.3934 298.159C50.0678 298.187 53.7454 298.159 57.8202 298.159C57.591 294.809 57.6188 291.446 57.9034 288.1C58.527 284.282 60.1241 280.689 62.5404 277.668C64.9568 274.647 68.111 272.299 71.6987 270.852C86.3841 264.023 90.0925 263.632 91.0811 261.513C99.0429 244.469 123.329 248.682 117.452 261.153C115.934 264.498 113.509 267.351 110.452 269.388C107.396 271.426 103.83 272.566 100.158 272.681C94.0225 273.23 92.4579 268.585 90.459 269.487C71.671 278.019 61.3653 279.288 63.9279 297.925C67.1803 297.925 70.3558 297.894 73.5467 297.925C76.5589 297.956 76.987 298.307 77.2026 301.359C77.6123 307.103 77.9449 312.869 78.3084 318.792H185.951C186.629 305.53 186.068 319.279 186.031 277.6C186.031 277.024 186.17 248.956 186.453 248.479C190.765 240.914 190.149 258.886 191.172 280.252C191.188 280.72 191.311 281.178 191.53 281.592C191.75 282.006 192.06 282.365 192.438 282.642C207.157 288.223 222.181 290.434 237.384 285.676C265.72 276.802 276.165 237.766 286.612 210.059C276.509 203.511 266.447 196.981 256.064 190.254C252.445 196.762 238.391 225.117 237.948 226.019C236.143 229.654 234.942 229.909 231.982 227.063C206.997 203.015 205.463 199.781 161.006 174.522C159.314 173.711 157.564 173.026 155.77 172.474C154.687 181.079 153.104 189.615 151.03 198.038C150.995 198.58 150.793 199.099 150.452 199.523C150.111 199.947 149.648 200.255 149.125 200.406C148.603 200.558 148.047 200.544 147.532 200.368C147.018 200.191 146.57 199.86 146.25 199.42C141.937 195.375 137.892 191.054 134.14 186.484C130.247 191.403 126.046 196.068 121.561 200.452ZM22.3848 338.027H221.097V324.41H22.3848V338.027ZM143.752 170.065C142.868 169.843 142.428 169.683 141.966 169.621C139.533 169.292 138.661 167.937 139.154 165.183C139.942 160.776 137.457 157.97 141.504 156.907C145.054 156.225 148.286 154.409 150.716 151.733C153.146 149.056 154.642 145.664 154.979 142.065C155.903 134.112 156.118 126.079 156.547 118.087C156.854 113.573 155.902 109.062 153.796 105.057C151.689 101.053 148.512 97.7126 144.618 95.4089C141.886 93.5793 138.833 92.2365 135.861 90.6318C131.18 100.873 124.311 107.279 113.069 108.225C113.069 112.229 113.069 116.137 113.069 120.055C113.069 121.983 112.327 122.827 110.257 122.485C109.221 122.204 108.122 122.269 107.126 122.67C106.13 123.071 105.292 123.786 104.74 124.706C104.188 125.627 103.951 126.703 104.067 127.77C104.182 128.837 104.643 129.838 105.378 130.619C108.178 133.727 110.162 132.32 113.553 131.26C119.032 149.084 115.629 142.41 126.868 156.947H124.478V165.925C124.478 171.408 122.509 170.425 119.938 172.085C124.659 175.701 129.399 179.317 134.441 183.152C137.608 178.698 140.598 174.503 143.752 170.065ZM47.6562 302.259V318.928H73.4235V302.259H47.6562ZM131.14 184.846C125.27 180.632 119.7 176.015 114.471 171.029C113.276 170.006 111.221 171.559 109.971 172.261C111.739 179.61 117.745 193.892 120.273 196.682C123.831 192.808 127.385 188.924 131.14 184.846ZM147.839 196.174C149.58 188.391 148.033 192.617 151.557 174.522C152.241 171.007 150.131 170.647 147.679 169.461C144.84 175.059 141.219 180.223 136.924 184.8C142.982 191.348 140.229 188.496 147.839 196.174ZM113.035 86.2736C105.825 87.3762 98.1929 99.2866 101.849 103.885C103.644 96.989 107.556 90.8295 113.035 86.2736Z" fill="#212941"/>
<path d="M533.929 359.276C535.722 362.553 578.325 442.54 595.024 477.874C600.371 489.184 595.542 489.606 592.918 485.768C575.734 460.663 570.107 449.581 526.679 364.539C525.954 362.633 524.615 361.023 522.872 359.963C521.129 358.903 519.083 358.454 517.057 358.687C499.243 359.34 481.409 359.457 463.573 359.71C462.901 359.703 462.243 359.897 461.681 360.265C461.12 360.634 460.68 361.161 460.419 361.78C376.058 508.172 395.671 480.326 352.188 552.219C349.872 556.041 340.749 561.459 351.806 539.948C408.906 428.902 446.547 369.455 451.364 359.953C445.992 359.704 303.524 360.751 293.668 360.615C280.304 360.431 264.771 359.288 262.196 359.288C258.439 358.767 256.381 357 256.391 354.308C256.503 352.879 257.169 351.551 258.246 350.606C259.323 349.661 260.726 349.174 262.156 349.247C266.662 348.939 276.632 348.705 279.971 348.705C279.971 337.167 279.762 264.168 281.776 252.381C281.828 251.976 281.962 251.585 282.171 251.234C282.38 250.883 282.659 250.578 282.991 250.339C283.322 250.1 283.699 249.931 284.098 249.844C284.498 249.757 284.911 249.752 285.312 249.831C287 250.059 287.468 251.679 287.44 253.364C285.62 341.174 286.257 318.352 286.257 348.083C300.216 348.083 445.801 340.454 583.323 347.359C598.616 348.126 596.441 356.504 591.116 357.782C583.188 359.673 585.624 359.276 533.929 359.276Z" fill="#212941"/>
<path d="M281.893 73.8614C268.754 72.0842 268.621 72.2228 266.669 71.3974C260.74 68.8718 261.947 61.4397 268.356 61.335C268.664 61.335 594.199 59.6194 596.41 60.5096C601.862 62.7025 600.106 72.1242 593.438 72.078C514.261 71.539 360.282 73.8675 287.837 73.8675C288.607 84.8138 288.891 75.0256 289.002 132.03C289.017 139.351 282.158 138.153 282.192 133.737C282.26 125.31 282.5 82.3006 281.893 73.8614Z" fill="#212941"/>
<path d="M413.002 111.659C412.745 118.933 409.68 125.825 404.452 130.889C399.224 135.953 392.238 138.796 384.96 138.822C377.681 138.848 370.675 136.055 365.411 131.028C360.147 126.001 357.034 119.131 356.725 111.859C356.779 108.218 357.554 104.623 359.004 101.282C360.454 97.9417 362.551 94.9212 365.175 92.395C367.798 89.8688 370.895 87.8869 374.288 86.5635C377.681 85.2401 381.303 84.6015 384.944 84.6844C401.572 84.7583 413.483 97.9808 413.002 111.659ZM386.671 129.523C386.813 129.806 388.578 129.505 388.72 129.785C390.448 135.107 392.523 134.405 392.656 129.384C392.752 128.897 392.949 128.435 393.232 128.027C393.516 127.618 393.88 127.273 394.304 127.013C396.018 125.655 397.382 123.906 398.281 121.912C399.179 119.919 399.587 117.738 399.469 115.555C399.351 113.371 398.711 111.247 397.603 109.362C396.494 107.477 394.95 105.885 393.099 104.72C392.284 104.325 391.593 103.714 391.101 102.954C390.608 102.194 390.333 101.313 390.306 100.408C389.868 96.4038 389.222 97.411 395.006 97.0937C398.924 96.8781 397.636 92.9357 392.496 93.176C391.211 93.1174 390.488 93.5579 389.825 92.8156C388.995 91.4401 388.558 89.8637 388.559 88.2572C388.553 88.0506 388.504 87.8477 388.416 87.6607C388.328 87.4738 388.202 87.3068 388.047 87.1701C387.892 87.0335 387.711 86.9299 387.514 86.8659C387.318 86.8019 387.11 86.7787 386.905 86.7979C386.699 86.817 386.499 86.8781 386.318 86.9772C386.136 87.0764 385.977 87.2116 385.85 87.3746C385.723 87.5375 385.631 87.7247 385.579 87.9247C385.526 88.1247 385.516 88.3332 385.547 88.5375C385.732 89.7695 386.711 93.678 384.783 93.5579C382.714 94.0815 382.818 90.6442 382.553 89.4615C382.021 87.0899 379.474 88.0539 379.803 89.8619C379.982 95.1841 379.763 94.7622 376.911 96.6102C376.022 97.44 375.306 98.4362 374.801 99.5423C370.252 108.936 380.345 108.567 380.653 108.721C380.875 113.322 381.115 118.845 381.337 123.563C379.981 122.941 378.755 122.07 377.721 120.995C376.832 119.864 376.01 118.684 375.257 117.459C372.605 113.455 371.481 117.899 371.601 118.743C371.762 120.924 372.591 123.002 373.974 124.695C375.358 126.388 377.23 127.613 379.335 128.205C381.081 128.725 381.599 129.437 382.147 131.396C383.182 135.135 385.535 134.993 386.459 131.377C386.591 130.678 386.37 130.216 386.671 129.532V129.523Z" fill="#FF9500"/>
<path d="M136.222 298.341C133.592 296.031 131.042 293.983 128.71 291.695C120.576 283.687 122.011 287.016 122.907 276.19C124.789 253.398 126.884 236.951 128.59 215.172C128.83 212.12 129.492 211.458 132.594 211.396C138.754 211.276 138.631 211.294 139.244 217.522C140.537 230.717 145.585 280.092 145.85 282.556C146.025 283.705 145.948 284.879 145.625 285.995C145.302 287.112 144.741 288.145 143.981 289.024C141.246 292.24 138.572 295.511 136.222 298.341Z" fill="#3A5AB7"/>
<path d="M511.135 103.867C509.203 103.506 508.6 101.751 511.153 100.934C515.675 99.4838 514.526 99.1635 583.576 99.6285C593.74 99.6963 592.48 103.472 590.528 103.827C584.143 104.982 513.879 104.378 511.135 103.867Z" fill="#212941"/>
<path d="M501.957 101.535C503.355 101.769 504.113 104.19 500.127 104.409C473.852 105.841 477.754 105.706 436.1 106.035C426.099 106.115 421.904 102.031 442.285 101.597C499.074 100.433 498.529 100.969 501.957 101.535Z" fill="#212941"/>
<path d="M132.383 190.036C132.737 189.691 133.193 189.472 133.683 189.41C134.173 189.348 134.669 189.448 135.097 189.694C137.593 191.507 139.801 193.688 141.645 196.162C142.419 197.167 142.949 198.337 143.193 199.582C143.436 200.826 143.387 202.11 143.049 203.332C140.277 212.305 139.735 210.438 133.609 210.521C132.073 210.772 130.497 210.467 129.165 209.661C127.833 208.855 126.831 207.601 126.34 206.123C124.69 200.092 121.628 200.508 132.383 190.036Z" fill="#3A5AB7"/>
<path d="M312.241 157.209C311.558 161.925 309.783 166.416 307.057 170.324C303.665 176.315 298.212 180.869 291.713 183.14C289.557 183.833 287.512 192.263 285.066 196.094C284.324 197.252 283.046 196.094 283.298 195.33C284.807 190.797 286.138 186.186 287.816 181.732C288.938 178.766 298.187 180.586 305.915 165.303C307.242 162.673 308.203 159.839 309.469 157.191C310.171 154.721 312.241 155.361 312.241 157.209Z" fill="#212941"/>
<path d="M70.2844 265.443C71.3254 257.152 70.7618 244.247 74.0604 243.933C74.762 245.071 75.264 246.321 75.545 247.629C75.7082 252.671 75.7914 257.753 75.5265 262.791C75.5224 263.923 75.2301 265.035 74.6772 266.023C74.1242 267.01 73.3288 267.84 72.366 268.435C71.4032 269.03 70.3047 269.37 69.1742 269.422C68.0437 269.475 66.9185 269.239 65.9046 268.736C50.8988 263.096 51.4132 260.013 70.2844 265.443Z" fill="#212941"/>
<path d="M558.292 189.666C556.102 190.067 556.099 186.707 558.009 186.454C567.538 185.269 577.168 185.12 586.73 186.01C589.881 186.528 588.698 189.448 586.77 189.645C577.285 190.196 567.777 190.203 558.292 189.666Z" fill="#212941"/>
<path d="M268.335 152.207C267.081 155.113 266.499 158.263 266.632 161.424C266.764 164.585 267.607 167.675 269.098 170.466C270.413 172.73 271.172 175.275 271.312 177.89C271.451 180.505 270.968 183.116 269.902 185.508C269.732 186.124 269.415 186.69 268.978 187.156C268.421 187.584 266.286 186.673 266.265 186.01C266.2 183.722 269.822 179.542 265.563 171.43C263.836 168.28 262.906 164.757 262.852 161.165C262.798 157.574 263.623 154.024 265.255 150.825C265.917 149.38 270.3 146.583 268.335 152.207Z" fill="#212941"/>
<path d="M378.697 188.4C377.973 188.4 377.231 188.117 376.569 188.179C374.299 188.394 373.695 186.023 376.488 185.308C379.824 184.443 382.402 184.301 402.878 183.7C404.898 183.642 408.44 183.392 407.981 185.97C407.764 186.514 407.415 186.995 406.967 187.371C406.518 187.748 405.983 188.007 405.41 188.126C400.673 188.394 382.843 188.41 378.697 188.4Z" fill="#212941"/>
<path d="M325.715 187.335C325.814 186.574 327.443 185.487 328.426 185.428C334.915 185.12 341.402 184.951 347.888 184.745C355.718 184.498 359.167 183.46 359.216 186.513C359.247 188.401 357.71 188.724 356.136 188.721C329.156 188.675 325.321 190.369 325.715 187.335Z" fill="#212941"/>
<path d="M558.894 267.131C554.89 267.091 555.321 262.727 558.814 262.792C565.22 262.913 571.628 263.118 578.036 263.408C581.991 263.589 582.474 267.566 577.673 267.72C574.54 267.84 562.026 267.162 558.894 267.131Z" fill="#212941"/>
<path d="M575.422 229.768C558.424 229.768 562.095 226.614 565.178 226.435C572.127 226.032 579.097 225.872 586.045 225.653C590.185 225.521 588.882 229.439 585.987 229.629C582.469 229.86 578.937 229.728 575.422 229.728V229.768Z" fill="#212941"/>
<path d="M574.842 305.351C571.626 305.693 571.484 301.655 574.86 301.535C580.281 301.326 585.708 301.397 591.129 301.557C593.476 301.625 593.035 305.401 590.888 305.653C585.538 305.835 580.181 305.734 574.842 305.351Z" fill="#212941"/>
<path d="M74.0399 296.274L69.0195 296.755C70.3131 278.583 68.9117 280.305 74.9054 278.216C74.6221 284.382 74.3418 290.247 74.0399 296.274Z" fill="#212941"/>
<path d="M292.908 142.105C290.16 146.937 286.178 152.161 284.552 154.597C282.605 157.027 281.472 153.753 282.121 152.731C285.029 148.249 288.047 143.842 291.001 139.376C291.703 138.292 295.56 137.426 292.908 142.105Z" fill="#212941"/>
<path d="M302.358 145.2C299.472 149.306 296.595 153.415 293.623 157.45C291.467 161.007 290.296 159.442 291.467 156.387C291.796 155.416 292.208 154.475 292.699 153.575C294.932 149.879 297.205 146.208 299.549 142.589C301.19 140.081 304.852 141.652 302.358 145.2Z" fill="#212941"/>
<path d="M305.973 151.305C303.744 157.49 302.077 158.676 296.635 164.118C294.667 165.787 294.405 162.914 294.707 162.492C295.101 161.937 303.198 150.566 303.743 150.199C304.144 149.934 306.377 148.148 305.973 151.305Z" fill="#212941"/>
<path d="M557.61 304.769C555.01 304.408 556.633 301.809 557.228 301.756C560.623 301.399 564.037 301.251 567.45 301.313C570.684 301.421 570.022 304.165 567.41 304.365C564.16 304.772 560.882 304.907 557.61 304.769Z" fill="#212941"/>
<path d="M594.774 264.501C597.605 265.373 596.49 268.151 593.117 268.114C590.718 268.206 588.316 268.058 585.947 267.673C584.82 267.495 583.119 265.123 586.187 263.876C589.063 263.525 591.979 263.737 594.774 264.501Z" fill="#212941"/>
<path d="M362.29 186.734C362.148 184.806 365.281 184.403 366.602 184.184C368.97 184.492 371.126 183.657 372.204 185.508C374.656 189.728 362.29 188.542 362.29 186.734Z" fill="#212941"/>
<path d="M127.626 140.756C127.583 139.41 127.934 137.885 129.573 139.028C133.214 141.234 137.307 142.587 141.545 142.986C144.157 143.442 144.298 143.83 143.07 146.26C139.26 153.775 127.876 148.573 127.626 140.756ZM131.824 145.992C133.205 147.356 134.994 148.23 136.919 148.48C137.359 148.502 138.927 148.237 139.075 147.938C136.945 146.494 134.391 145.808 131.824 145.992ZM140.14 146.873C140.402 146.531 140.984 145.708 141.372 145.206C137.255 144.021 133.364 142.915 129.644 141.852C129.642 142.329 129.756 142.8 129.976 143.223C130.196 143.646 130.515 144.01 130.907 144.282C131.366 144.51 131.711 144.227 132.736 144.322C135.367 144.614 137.902 145.483 140.159 146.866L140.14 146.873Z" fill="#212941"/>
<path d="M137.648 136.604C138.768 135.422 139.708 134.083 140.439 132.628C141.997 127.614 141.113 124.989 139.536 111.477C139.472 110.935 139.675 108.727 141.043 111.499C143.501 118.494 144.124 126.004 142.851 133.309C142.808 133.906 142.626 134.486 142.319 135C142.012 135.515 141.588 135.95 141.082 136.27C140.576 136.591 140.001 136.788 139.405 136.846C138.809 136.904 138.207 136.821 137.648 136.604Z" fill="#212941"/>
<path d="M124.956 113.889C124.731 113.254 124.64 112.58 124.689 111.909C124.738 111.237 124.926 110.583 125.242 109.988C125.557 109.393 125.993 108.87 126.521 108.453C127.049 108.035 127.658 107.732 128.31 107.563C128.853 107.211 129.465 106.978 130.104 106.877C130.743 106.777 131.397 106.813 132.022 106.981C132.647 107.149 133.229 107.447 133.731 107.855C134.234 108.263 134.645 108.772 134.938 109.349C130.799 108.967 126.964 109.189 124.956 113.889Z" fill="#212941"/>
<path d="M152.153 111.339C150.123 109.59 148.577 107.159 145.303 108.204C146.048 106.137 146.772 105.792 148.497 106.217C149.077 106.305 149.634 106.508 150.134 106.815C150.634 107.122 151.068 107.527 151.409 108.004C151.75 108.482 151.991 109.023 152.119 109.596C152.247 110.169 152.258 110.762 152.153 111.339Z" fill="#212941"/>
<path d="M147.768 122.002C147.324 121.884 146.924 121.638 146.617 121.296C146.311 120.953 146.111 120.529 146.043 120.074C145.929 118.549 146.786 117.142 148.553 117.323C149.124 117.479 149.616 117.841 149.934 118.339C150.253 118.837 150.375 119.435 150.277 120.018C150.179 120.601 149.868 121.127 149.405 121.493C148.941 121.86 148.358 122.041 147.768 122.002Z" fill="#212941"/>
<path d="M132.085 120.255C132.085 120.637 131.703 121.678 129.994 121.922C129.029 122.06 127.976 121.614 127.625 119.412C127.656 118.962 127.79 118.525 128.017 118.136C128.243 117.746 128.556 117.413 128.931 117.163C130.255 116.88 132.103 116.92 132.085 120.255Z" fill="#212941"/>
<path d="M348.711 268.736C345.939 268.163 345.252 266.106 348.711 265.585C357.794 264.215 355.086 264.538 389.786 264.439C393.882 264.439 393.854 268.804 389.804 268.819C383.878 268.838 349.696 268.942 348.711 268.736Z" fill="#212941"/>
<path d="M331.359 269.1C326.48 268.918 324.891 265.142 331.239 265.302C334.179 264.941 337.135 264.727 340.097 264.661C341.683 264.603 343.13 265.222 343.069 267.03C343.007 268.838 341.584 269.303 339.989 269.281C337.111 269.369 334.23 269.309 331.359 269.1Z" fill="#212941"/>
<path d="M353.53 227.824C348.63 227.547 350.219 224.436 353.712 224.412C354.02 224.412 396.851 224.045 397.698 224.31C402.358 224.652 401.834 228.681 397.738 228.65C397.427 228.647 379.8 229.315 353.53 227.824Z" fill="#212941"/>
<path d="M330.314 228.628C327.08 228.702 325.694 225.856 329.652 225.416C330.557 225.314 331.46 224.775 332.405 224.732C336.16 224.563 339.936 224.455 343.69 224.35C345.138 224.313 346.77 224.51 346.623 226.26C346.558 227.023 344.978 228.086 343.974 228.246C341.38 228.665 332.224 228.585 330.314 228.628Z" fill="#212941"/>
<path d="M373.033 302.259C374.8 302.222 377.622 301.535 377.572 304.325C377.523 307.116 374.72 306.213 372.952 306.275C342.627 307.35 341.666 307.316 331.098 306.583C330.294 306.524 326.5 303.722 331.157 303.503C334.591 303.312 362.514 302.456 373.033 302.259Z" fill="#212941"/>
<path d="M381.851 302.56C385.678 302.088 389.549 302.081 393.379 302.539C396.767 303.703 394.201 306.072 393.259 306.235C381.73 308.222 374.579 303.959 381.851 302.56Z" fill="#212941"/>
<path d="M435.615 266.789C431.568 266.712 430.484 263.463 433.287 262.853C438.889 261.621 441.15 262.009 454.375 261.889C456.322 261.871 457.85 262.573 457.81 264.661C457.77 266.688 456.183 267.171 454.394 267.15C451.323 267.113 438.828 266.851 435.615 266.789Z" fill="#212941"/>
<path d="M461.304 266.688C460.823 266.606 460.386 266.357 460.072 265.984C459.757 265.611 459.584 265.139 459.584 264.651C459.584 264.162 459.757 263.69 460.072 263.317C460.386 262.944 460.823 262.695 461.304 262.613C463.99 262.291 466.702 262.236 469.398 262.45C474.419 262.311 473.076 265.875 469.358 266.91C466.676 267.199 463.967 267.124 461.304 266.688Z" fill="#212941"/>
<path d="M438.147 305.693C434.975 305.773 434.575 303.1 437.84 302.94C446.079 302.539 454.33 302.074 462.584 301.708C463.85 301.649 465.288 302.148 464.974 303.657C464.733 304.145 464.377 304.567 463.935 304.885C463.494 305.203 462.982 305.409 462.443 305.484C458.392 305.662 442.164 305.592 438.147 305.693Z" fill="#212941"/>
<path d="M438.41 188.681C437.486 188.659 435.136 186.525 438.207 186.152C448.291 184.873 458.45 184.269 468.616 184.344C473.072 184.199 471.748 187.781 468.717 188.08C459.074 189.029 438.752 188.69 438.41 188.681Z" fill="#212941"/>
<path d="M431.508 225.816C429.703 225.616 427.889 222.767 431.489 222.444C438.881 221.782 446.332 221.427 453.742 220.996C456.471 220.839 458.113 223.851 455.83 224.754C454.723 225.201 453.549 225.459 452.356 225.518C449.215 225.619 435.314 225.998 431.508 225.816Z" fill="#212941"/>
<path d="M473.703 221.982C477.337 222.237 477.091 226.078 473.986 226.078C469.677 226.037 465.373 225.776 461.09 225.296C460.693 225.207 460.342 224.973 460.106 224.641C459.871 224.308 459.766 223.9 459.814 223.496C459.861 223.091 460.057 222.718 460.363 222.449C460.67 222.181 461.065 222.035 461.472 222.04C463.634 221.855 471.827 221.849 473.703 221.982Z" fill="#212941"/>
<path d="M521.175 302.317C526.719 302.197 524.508 304.827 521.295 305.613C517.165 306.19 512.975 306.197 508.843 305.631C506.514 305.773 504.444 303.583 508.963 302.477C513.027 302.195 517.104 302.142 521.175 302.317Z" fill="#212941"/>
<path d="M507.7 265.545C497.444 264.945 496.692 265.009 495.125 264.239C493.557 263.469 494.167 262.16 495.125 261.649C496.28 261.033 496.002 260.95 515.391 260.503C520.248 260.392 520.19 265.524 515.372 265.524C512.819 265.524 510.269 265.545 507.7 265.545Z" fill="#212941"/>
<path d="M525.311 264.84C521.819 264.72 521.073 260.645 524.911 260.885C528.405 260.615 531.913 260.568 535.414 260.744C535.859 260.897 536.258 261.162 536.571 261.514C536.885 261.865 537.103 262.292 537.203 262.752C537.088 263.218 536.855 263.646 536.528 263.998C536.201 264.349 535.79 264.611 535.334 264.76C532.004 265.121 528.647 265.148 525.311 264.84Z" fill="#212941"/>
<path d="M500.45 226.762C495.83 226.666 495.55 223.346 498.26 222.706C503.385 221.492 506.967 221.926 516.74 221.902C518.548 221.902 520.076 222.462 520.054 224.513C520.036 226.442 518.514 226.95 516.823 226.962C514.005 226.996 503.099 226.814 500.45 226.762Z" fill="#212941"/>
<path d="M525.995 222.243C527.563 222.443 529.66 222.283 530.113 224.652C530.387 226.099 528.185 227.033 525.493 226.808C523.528 226.638 521.714 226.3 521.819 224.344C521.923 222.299 523.929 222.243 525.995 222.243Z" fill="#212941"/>
<path d="M517.341 190.344C514.708 190.104 515.185 187.757 517.4 186.971C522.084 185.314 527.32 186.589 532.264 186.709C533.286 186.734 535.094 187.994 535.156 188.798C535.298 190.704 533.348 190.726 531.962 190.827C527.083 190.934 522.202 190.773 517.341 190.344Z" fill="#212941"/>
<path d="M510.811 189.928C506.915 190.236 503 190.362 499.082 190.47C495.814 190.56 495.605 186.99 497.274 186.916C502.033 186.7 506.822 186.608 511.575 186.673C514.448 186.707 512.881 190.107 510.811 189.928Z" fill="#212941"/>
<path d="M387.797 123.268C387.797 124.112 386.109 124.01 386.051 123.45C385.577 118.931 385.173 113.825 384.819 109.282C384.782 108.82 386.667 108.74 386.707 109.263C387.157 113.704 387.415 118.167 387.797 123.268Z" fill="#FF9500"/>
<path d="M392.052 122.122C391.612 117.844 391.211 113.907 390.82 109.891C394.664 111.619 395.428 118.447 392.052 122.122Z" fill="#FF9500"/>
<path d="M385.667 96.6166C385.827 98.6032 386.283 102.539 386.311 104.317C386.311 104.578 384.903 104.837 384.823 104.076C384.722 102.065 384.478 98.9728 384.441 96.9647C384.432 96.4349 385.365 96.0745 385.667 96.6166Z" fill="#FF9500"/>
<path d="M378.84 98.6429C378.886 100.484 379.033 102.322 379.28 104.147C379.339 104.332 379.468 104.487 379.638 104.58C379.809 104.672 380.009 104.695 380.197 104.643C380.384 104.592 380.544 104.469 380.643 104.302C380.742 104.135 380.773 103.936 380.728 103.746C380.515 102.053 380.387 100.349 380.346 98.6429C380.482 97.8328 378.969 97.4601 378.84 98.6429Z" fill="#FF9500"/>
<path d="M483.217 164.823C483.217 154.638 483.001 148.314 483.879 138.249C483.94 137.528 484.883 136.885 485.419 136.201C486.756 137.913 487.134 137.276 487.147 141.243C487.221 167.093 487.181 161.688 487.455 164.74H544.127C544.127 155.543 544.182 146.747 544.105 137.929C543.954 136.904 544.059 135.858 544.41 134.884C544.761 133.91 545.347 133.038 546.116 132.345C546.71 133.406 547.148 134.547 547.419 135.733C548.429 153.997 548.183 161.081 548.183 164.377C605.101 164.377 595.064 163.453 599.437 165.723C599.299 137.716 602.995 131.843 582.146 131.88C453.997 132.049 434.131 132.933 431.648 133.149C431.685 133.118 431.608 133.072 431.254 133.004C429.947 132.752 428.602 132.784 427.309 133.098C426.016 133.412 424.805 134 423.76 134.823C422.714 135.646 421.858 136.684 421.249 137.868C420.64 139.051 420.293 140.351 420.231 141.68C419.575 149.46 419.248 157.28 418.768 165.088C450.833 165.205 479.222 165.251 483.217 164.823ZM558.732 148.613C561.384 148.028 564.116 147.871 566.805 147.489C574.069 146.193 581.481 145.936 588.817 146.725C592.821 147.049 590.807 150.298 589.843 150.381C577.779 151.441 547.031 151.2 558.732 148.613ZM500.52 149.679C508.574 149.457 516.81 149.599 525.185 149.639C529.823 149.66 528.739 153.027 524.877 152.993C505.473 152.836 506.107 152.069 500.597 152.589C496.23 152.99 498.278 150.279 500.498 149.688L500.52 149.679ZM435.005 150.199C438.344 149.891 451.194 149.275 462.861 149.235C466.779 149.235 466.378 153.239 462.922 152.873C457.708 153.073 440.82 153.513 435.267 152.971C431.238 153.252 432.162 151.123 434.993 150.199H435.005Z" fill="#3A5AB7"/>
<path d="M599.464 165.726C599.605 167.552 598.783 168.301 596.953 168.378C588.139 168.75 550.67 169.807 547.707 170.105V203.425C554.357 203.425 591.194 204.102 593.907 204.146C595.355 204.17 596.8 204.454 598.219 204.389C600.166 204.284 600.837 205.593 600.529 206.918C600.3 207.456 599.954 207.938 599.516 208.327C599.078 208.716 598.56 209.004 597.998 209.169C597.203 209.385 557.135 208.504 547.005 208.504V241.343C549.611 241.343 547.707 241.281 594.643 242.165C602.325 242.31 600.369 246.419 597.536 247.007C576.207 246.902 597.28 246.545 547.205 246.545V279.864C569.455 279.864 550.128 279.766 598.059 281.29C600.027 281.352 600.523 282.436 600.591 284.062C600.665 285.929 599.424 286.015 597.998 285.99C593.815 285.916 552.263 285.026 547.486 285.026C547.868 296.093 548.249 306.894 548.631 318.266C570.173 318.266 557.724 317.958 596.987 319.27C598.019 319.304 599.781 319.097 599.92 321.94C600.049 324.53 590.951 323.188 488.494 323.908C271.08 325.448 326.486 326.268 310.778 324.934C308.428 324.734 307.664 323.348 307.698 321.198C307.926 296.275 306.894 311.844 312.358 178.418C312.198 176.01 314.684 173.838 314.909 178.458C315.186 184.055 315.694 200.462 315.694 206.034C349.533 205.069 383.067 204.112 416.296 203.163C416.604 192.217 416.937 181.511 417.26 170.626C412.203 170.373 330.777 170.339 319.489 168.47C318.765 168.35 318.164 167.604 317.502 167.142C318.118 166.502 318.605 165.495 319.328 165.276C323.024 164.161 473.636 165.864 483.237 164.836C483.237 154.65 483.021 148.327 483.899 138.261C483.961 137.541 484.903 136.897 485.439 136.213C486.776 137.926 487.155 137.285 487.167 141.255C487.241 167.105 487.201 161.7 487.475 164.752H544.147C544.147 155.555 544.202 146.759 544.125 137.941C543.975 136.917 544.079 135.871 544.43 134.897C544.781 133.922 545.367 133.05 546.137 132.357C546.73 133.419 547.169 134.559 547.439 135.745C548.45 154.009 548.203 161.093 548.203 164.389C605.128 164.38 595.09 163.446 599.464 165.726ZM415.634 245.941C381.772 247.047 348.471 248.131 315.013 249.215C314.49 260.562 313.988 271.57 313.473 282.316L414.497 281.531C414.876 269.882 415.233 258.354 415.634 245.941ZM417.174 208.384C383.032 209.129 349.531 209.871 315.709 210.595V244.497C321.774 244.497 370.118 241.605 415.446 241.605C416.034 230.384 416.598 219.45 417.18 208.384H417.174ZM414.094 287.232H313.104V320.573C346.676 319.929 380.426 319.285 414.106 318.645L414.094 287.232ZM481.66 246.48H420.916C420.556 258.372 420.192 269.959 419.832 281.629C440.557 280.967 461.045 280.302 481.672 279.639L481.66 246.48ZM481.718 285.103C460.851 285.787 440.203 286.468 419.456 287.133V318.281H481.718V285.103ZM482.984 170.663H421.84V202.756H482.997L482.984 170.663ZM420.623 241.195H481.915C482.399 229.99 482.861 219.019 483.342 208.119H422.422C421.8 219.311 421.218 230.258 420.636 241.201L420.623 241.195ZM486.612 285.208V317.985H544.051C543.669 306.839 543.309 295.991 542.927 285.208H486.612ZM486.693 279.504H542.749C542.49 268.376 542.247 257.451 542.006 246.323H486.711C486.693 257.488 486.693 268.456 486.693 279.504ZM487.998 208.264C487.595 219.108 487.195 230.055 486.766 241.161H542.099V208.264H487.998ZM542.515 202.883C542.823 192.137 543.177 181.27 543.519 170.426H487.872V202.883H542.515Z" fill="#212941"/>
</svg>
