<svg width="616" height="616" viewBox="0 0 616 616" fill="none" xmlns="http://www.w3.org/2000/svg">
<path d="M502.601 86.6866C494.402 78.8788 494.818 76.5842 493.099 77.7299C479.211 61.8587 459.656 63.1554 447.638 76.7782C442.165 82.9813 444.296 89.9175 447.503 96.7274C448.328 98.4861 451.436 107.449 450.758 108.807C450.397 109.891 449.845 110.901 449.129 111.792C445.125 115.934 452.289 119.125 451.845 123.462C451.593 125.907 448.993 127.534 448.587 129.84C448.467 131.048 448.73 132.262 449.338 133.312C449.946 134.362 450.868 135.195 451.975 135.692C454.011 137.051 456.57 137.756 458.625 138.951C459.727 139.469 460.66 140.29 461.312 141.319C461.965 142.348 462.31 143.542 462.308 144.76C462.167 146.118 461.224 147.202 461.076 148.561C460.966 150.044 461.347 151.523 462.16 152.768H462.025C456.927 154 448.969 165.645 446.418 170.546C446 171.353 443.03 171.778 442.211 171.778C440.892 171.902 439.566 171.618 438.414 170.965C432.774 167.992 433.338 161.176 434.884 156.036C436.815 149.623 433.205 149.657 431.625 148.844C429.306 147.649 429.94 144.341 430.948 142.068C431.976 139.733 433.153 136.878 431.354 135.012C429.87 133.472 425.983 133.432 427.282 128.236C428.588 124.644 435.497 119.424 433.526 112.9C432.511 110.646 431.186 108.545 429.589 106.657C425.065 99.7673 426.876 90.5089 431.761 83.7205C436.646 76.9322 443.973 72.1829 451.165 67.5721C459.85 62.0065 470.042 62.6441 479.809 65.1297C497.208 69.5556 497.522 79.8305 502.601 86.6866Z" fill="#3A5AB7"/>
<path d="M243.395 281.971C239.585 280.969 235.996 279.266 232.809 276.951C231.26 275.842 230.091 274.283 229.459 272.486C228.828 270.689 228.765 268.741 229.279 266.907C230.092 264.622 231.389 262.54 233.08 260.802C227.653 260.802 222.087 260.531 218.296 256.866C214.504 253.201 215.173 247.626 217.886 243.16C215.138 244.767 212.165 245.956 209.065 246.687C207.358 247.027 205.596 246.981 203.909 246.551C202.62 246.069 201.485 245.248 200.625 244.173C199.765 243.098 199.212 241.81 199.024 240.447C198.736 237.75 199.013 235.022 199.838 232.439C197.121 237.468 192.501 242.002 186.803 240.718C181.105 239.433 178.949 233.252 179.873 227.825C177.024 231.351 176.328 237.126 171.729 238.411C170.53 238.661 169.289 238.618 168.109 238.288C166.93 237.957 165.848 237.347 164.953 236.51C163.259 234.876 161.879 232.943 160.885 230.809C163.758 243.745 162.693 241.417 163.734 241.937C168.552 243.706 173.563 244.894 178.663 245.476C190.983 245.858 192.877 251.442 202.274 254.297C204.065 254.582 205.803 255.131 207.433 255.927C213.072 259.549 213.393 265.835 215.031 271.669C217.323 279.815 225.78 285.507 226.975 293.654C227.53 297.451 227.246 301.523 227.789 305.324C227.789 305.73 227.924 306.001 227.924 306.408C230.333 304.455 233.036 302.896 235.932 301.788C235.351 301.931 234.747 301.952 234.157 301.849C233.568 301.746 233.006 301.522 232.508 301.19C232.01 300.859 231.587 300.427 231.265 299.923C230.943 299.418 230.729 298.853 230.638 298.261C229.664 292.742 238.242 284.472 243.395 281.971ZM178.798 242.618C178.24 242.618 177.705 242.396 177.311 242.002C176.916 241.607 176.694 241.072 176.694 240.514C176.694 239.956 176.916 239.421 177.311 239.027C177.705 238.632 178.24 238.411 178.798 238.411C179.356 238.411 179.891 238.632 180.286 239.027C180.68 239.421 180.902 239.956 180.902 240.514C180.902 241.072 180.68 241.607 180.286 242.002C179.891 242.396 179.356 242.618 178.798 242.618ZM210.417 253.746C210.282 253.746 210.146 253.882 210.011 253.882C209.698 254.07 209.341 254.172 208.976 254.177C208.611 254.182 208.252 254.09 207.934 253.911C207.616 253.731 207.352 253.471 207.168 253.155C206.984 252.84 206.887 252.482 206.887 252.117C206.887 251.752 206.984 251.393 207.168 251.078C207.352 250.763 207.616 250.502 207.934 250.323C208.252 250.143 208.611 250.051 208.976 250.056C209.341 250.061 209.698 250.163 210.011 250.352C210.146 250.352 210.282 250.487 210.417 250.487C210.697 250.657 210.928 250.897 211.089 251.182C211.25 251.467 211.334 251.789 211.334 252.117C211.334 252.444 211.25 252.766 211.089 253.051C210.928 253.337 210.697 253.576 210.417 253.746ZM227.789 281.565C227.789 281.429 227.924 281.294 227.924 281.158C228.045 280.747 228.295 280.387 228.637 280.13C228.98 279.874 229.396 279.735 229.824 279.735C230.252 279.735 230.669 279.874 231.011 280.13C231.354 280.387 231.604 280.747 231.725 281.158C231.725 281.294 231.86 281.429 231.86 281.565C232.809 284.959 226.837 284.959 227.789 281.565Z" fill="#FF9500"/>
<path d="M374.221 311.151C369.225 314.847 362.384 318.872 359.837 324.857C359.389 325.846 359.199 326.931 359.283 328.013C359.368 329.095 359.724 330.138 360.32 331.046C360.915 331.953 361.731 332.695 362.69 333.202C363.649 333.71 364.721 333.967 365.806 333.949C366.194 333.938 366.57 333.814 366.888 333.592C367.206 333.37 367.452 333.061 367.596 332.701C367.741 332.341 367.777 331.946 367.7 331.566C367.623 331.186 367.437 330.837 367.164 330.561C366.339 329.637 364.577 329.212 363.909 328.254C362.397 326.098 365.803 322.96 367.029 321.604C369.736 318.614 372.594 315.771 375.443 312.919C376.524 312.1 375.311 310.344 374.221 311.151Z" fill="#3A5AB7"/>
<path d="M368.927 341.548C363.857 340.967 358.96 339.351 354.54 336.798C352.763 335.6 351.285 338.428 352.914 339.512C357.214 342.846 362.31 344.998 367.698 345.755C370.421 346.3 371.776 342.09 368.927 341.548Z" fill="#3A5AB7"/>
<path d="M439.209 301.649C431.059 287.811 412.203 274.237 395.239 276.951C380.717 256.315 347.061 283.871 360.903 297.713C349.368 309.522 332.786 331.926 340.412 349.149C340.888 350.291 341.48 351.382 342.177 352.404C341.127 353.409 340.214 354.548 339.463 355.792C339.116 355.694 338.75 355.68 338.396 355.75C338.042 355.821 337.71 355.975 337.427 356.199C337.292 356.335 337.021 356.47 336.882 356.606C321.547 352.534 303.907 352.398 288.298 352.534C287.683 352.556 287.1 352.816 286.672 353.259C286.245 353.702 286.006 354.294 286.006 354.91C286.006 355.526 286.245 356.118 286.672 356.561C287.1 357.004 287.683 357.264 288.298 357.286C302.682 357.884 317.207 359.593 331.591 360.271C313.588 372.421 314.161 380.599 323.04 393.113C323.443 393.753 324.07 394.219 324.798 394.419C325.527 394.62 326.304 394.541 326.977 394.197C331.45 392.077 335.759 389.628 339.87 386.87C339.459 390.126 339.097 393.383 338.782 396.639C338.789 397.283 339.002 397.907 339.39 398.421C339.778 398.934 340.321 399.31 340.938 399.491C354.706 403.803 373.09 401.774 386.267 396.103C389.691 394.973 392.902 393.276 395.765 391.083C399.295 395.561 403.361 399.636 407.029 403.84C411.772 409.274 413.343 416.237 417.479 421.889C417.8 422.391 418.286 422.764 418.854 422.943C419.421 423.123 420.033 423.097 420.584 422.87C421.134 422.644 421.588 422.231 421.865 421.705C422.142 421.178 422.225 420.571 422.099 419.989C418.684 406.745 408.393 395.965 397.943 387.553C399.301 382.933 396.859 376.29 395.229 371.947C396.994 368.285 398.618 364.62 400.25 360.955C408.643 366.791 424.911 356.643 421.557 346.026C429.565 339.512 441.433 336.278 445.033 325.67C448.095 316.732 443.699 309.251 439.209 301.649ZM391.302 384.162C390.295 388.083 389.799 387.938 386.282 389.589C383.221 391.067 380.044 392.292 376.783 393.254C366.289 396.089 355.281 396.46 344.619 394.339C345.161 389.86 345.697 385.246 346.248 380.768C346.253 380.257 346.124 379.753 345.873 379.308C345.622 378.862 345.259 378.49 344.819 378.229C344.379 377.968 343.879 377.827 343.367 377.82C342.856 377.813 342.352 377.941 341.905 378.19C336.959 381.799 331.742 385.02 326.299 387.824C323.176 382.94 321.414 378.058 326.706 371.808C330.027 368.316 333.818 365.301 337.969 362.852C341.77 385.789 373.931 381.717 391.167 375.067C391.805 378.06 391.857 381.149 391.318 384.162H391.302ZM416.817 351.727C415.744 353.435 414.248 354.837 412.474 355.799C409.185 357.647 403.958 359.713 401.346 355.528C401.126 355.167 400.817 354.869 400.449 354.662C400.081 354.455 399.665 354.347 399.243 354.347C398.82 354.347 398.405 354.455 398.036 354.662C397.668 354.869 397.359 355.167 397.139 355.528C394.487 360.237 392.254 365.026 389.809 369.776C381.21 373.107 372.017 374.631 362.803 374.254C357.647 374.149 351.663 374.543 347.332 370.866C344.668 368.225 342.709 364.958 341.634 361.364C341.634 361.173 344.172 356.766 344.619 355.802C349.035 360.535 354.669 363.962 360.903 365.707C370.682 368.399 378.936 365.667 387.911 361.774C389.806 360.948 388.447 357.816 386.553 358.386C371.575 362.839 346.104 363.138 343.532 342.237C341.764 327.851 353.169 309.802 362.397 299.216C362.727 299.55 363.155 299.769 363.619 299.842C364.083 299.915 364.558 299.838 364.975 299.622C365.077 299.608 365.173 299.561 365.246 299.487C364.38 301.643 368.061 301.951 370.405 303.965C371.867 305.197 373.41 306.329 375.025 307.353C376.506 308.317 377.738 306.54 377.181 305.197C376.04 302.659 374.204 300.494 371.886 298.954C370.937 298.248 369.81 297.821 368.631 297.722C375.715 292.997 378.795 283.804 392.381 286.459C401.47 288.236 425.173 297.491 419.928 309.531C418.676 311.16 417.316 312.704 415.856 314.151C414.406 316.399 413.137 318.759 412.059 321.207C409.749 325.827 406.207 330.447 404.999 335.594C404.53 336.85 404.383 338.204 404.573 339.532C404.763 340.859 405.283 342.118 406.086 343.192C408.902 345.943 413.278 342.65 416.25 346.041C416.734 346.899 417.036 347.848 417.136 348.828C417.236 349.808 417.133 350.798 416.833 351.736L416.817 351.727Z" fill="#3A5AB7"/>
<path d="M391.318 320.243C389.822 319.616 388.277 319.117 386.698 318.749C384.656 318.376 383.199 321.142 385.204 322.279C386.597 323.03 388.05 323.665 389.547 324.179C390.947 324.894 392.463 325.353 394.025 325.534C394.401 325.531 394.767 325.417 395.078 325.207C395.39 324.998 395.633 324.701 395.778 324.354C395.922 324.008 395.962 323.626 395.892 323.257C395.822 322.888 395.645 322.548 395.383 322.279C394.194 321.31 392.806 320.615 391.318 320.243Z" fill="#3A5AB7"/>
<path d="M363.905 310.199C365.219 311.231 366.684 312.055 368.248 312.642C370.004 313.205 370.826 311.015 369.874 309.793C368.845 308.583 367.604 307.572 366.212 306.808C365.73 306.299 365.135 305.91 364.475 305.674C363.814 305.438 363.107 305.361 362.412 305.45C362.089 305.54 361.806 305.737 361.609 306.008C361.412 306.279 361.313 306.609 361.328 306.944C361.636 308.699 362.547 309.25 363.905 310.199Z" fill="#3A5AB7"/>
<path d="M387.653 310.334C387.355 310.514 387.116 310.776 386.964 311.089C386.812 311.402 386.754 311.752 386.797 312.097C386.841 312.442 386.983 312.767 387.208 313.033C387.433 313.299 387.73 313.493 388.063 313.593C390.301 313.984 392.376 315.022 394.032 316.578C395.695 318.586 396.065 321.198 397.833 323.227C398.071 323.467 398.368 323.641 398.694 323.732C399.02 323.823 399.364 323.828 399.693 323.746C400.021 323.664 400.323 323.498 400.568 323.265C400.813 323.031 400.993 322.738 401.091 322.414C402.557 314.625 393.253 306.833 387.653 310.334Z" fill="#3A5AB7"/>
<path d="M597.598 480.378C562.738 474.033 527.68 469.465 492.422 466.672C494.729 464.23 497.042 461.787 499.342 459.209C573.934 467.131 570.352 469.49 591.896 470.88C592.392 470.868 592.867 470.68 593.236 470.349C593.605 470.018 593.843 469.567 593.909 469.075C593.974 468.584 593.862 468.086 593.592 467.67C593.323 467.254 592.914 466.949 592.439 466.808C577.79 463.389 562.042 462.459 547.113 460.703C532.049 458.929 516.985 457.716 501.785 456.496C508.706 449.166 515.694 441.77 522.821 434.511C523.343 433.967 523.63 433.241 523.622 432.487C523.615 431.734 523.312 431.014 522.779 430.481C522.246 429.949 521.526 429.646 520.773 429.638C520.02 429.63 519.293 429.918 518.75 430.439C511.616 437.831 504.498 445.094 497.442 452.695C492.706 444.052 484.761 437.618 475.322 434.782C475.491 434.444 475.583 434.073 475.593 433.695C479.258 386.74 485.636 340.192 489.573 293.373C503.589 297.406 517.874 300.441 532.32 302.456C546.707 304.347 562.723 307.094 577.242 305.305C579.413 305.037 580.5 301.353 577.784 300.962C555.214 297.707 543.645 302.379 489.696 289.97C489.642 289.577 489.455 289.214 489.167 288.942C488.879 288.67 488.506 288.504 488.111 288.473C487.716 288.441 487.322 288.545 486.994 288.768C486.666 288.991 486.424 289.319 486.308 289.699C477.068 336.906 474.244 385.795 469.888 433.821C469.812 434.413 469.967 435.012 470.321 435.493C470.675 435.973 471.201 436.299 471.789 436.402C471.795 436.716 471.905 437.019 472.101 437.264C472.297 437.509 472.568 437.682 472.873 437.757C487.657 443.206 489.813 451.189 493.509 456.622L487.537 463.001C485.555 458.161 482.607 453.775 478.874 450.111C475.14 446.448 470.7 443.584 465.823 441.693C467.979 387.815 480.071 334.888 481.565 281.013C511.558 287.527 543.319 293.065 574.119 291.463C574.604 291.436 575.06 291.223 575.394 290.87C575.728 290.517 575.914 290.049 575.914 289.563C575.914 289.077 575.728 288.609 575.394 288.256C575.06 287.903 574.604 287.69 574.119 287.663C542.364 283.862 510.899 281.324 479.529 274.499C479.095 274.381 478.639 274.366 478.198 274.455C477.757 274.544 477.342 274.734 476.987 275.01C476.632 275.286 476.346 275.641 476.152 276.047C475.957 276.453 475.86 276.898 475.867 277.348C475.796 282.507 475.593 287.512 475.322 292.683C431.829 269.925 393.286 251.177 348.841 220.611C359.883 209.11 370.682 196.362 370.962 196.048C381.141 214.1 391.693 231.733 402.175 249.52C402.501 250.06 402.999 250.475 403.589 250.699C404.18 250.922 404.828 250.941 405.43 250.752C426.374 242.073 447.91 234.061 468.943 224.695C486.85 248.476 524.947 249.809 549.962 229.854C568.556 215.021 564.13 194.04 547.806 183.713C553.507 180.183 559.239 176.57 564.906 172.72C565.292 172.481 565.568 172.1 565.676 171.66C565.784 171.22 565.715 170.755 565.484 170.364C565.254 169.974 564.879 169.69 564.441 169.572C564.003 169.455 563.537 169.513 563.142 169.736C514.17 196.18 463.504 224.667 405.991 244.509C395.54 226.867 385.09 209.089 375.049 191.04C376.949 188.598 378.844 186.288 380.476 183.713C385.213 176.241 383.048 171.371 376.678 166.206C368.67 159.704 360.391 153.578 351.841 147.747C346.162 136.385 339.136 122.47 337.057 112.192C362.84 100.115 389.109 88.7316 415.36 77.8592C465.013 57.2848 479.951 49.4339 502.216 43.5234C502.939 43.2956 503.545 42.7935 503.902 42.1246C504.259 41.4557 504.34 40.6735 504.128 39.9456C503.915 39.2177 503.425 38.6023 502.764 38.2312C502.102 37.8602 501.322 37.7631 500.59 37.9609C476.384 44.7893 452.68 56.1329 429.611 65.7795C399.997 78.1641 369.585 90.5457 332.308 108.12C331.775 108.459 331.36 108.953 331.117 109.536C330.875 110.119 330.817 110.762 330.953 111.379C332.185 121.167 337.267 130.422 341.117 139.472C341.389 140.127 341.707 140.762 342.068 141.372C323.37 129.218 239.412 78.6662 215.293 65.5146C216.786 61.1718 218.154 56.9676 219.5 52.6217C220.593 49.0982 222.614 44.7585 219.906 41.3581C217.319 38.1087 210.808 37.7268 207.152 37.0153C178.465 31.4375 149.827 25.4961 121.112 20.0538C117.724 19.407 116.224 24.3935 119.618 25.3452C145.678 32.6571 173.21 36.2022 199.698 41.4937C203.086 42.1743 209.33 42.1805 212.326 44.0716C215.986 46.3878 214.23 51.5406 213.004 54.7931C209.308 64.5844 208.772 66.3123 175.684 167.977C128.313 157.526 80.6534 148.062 32.6485 141.372C30.7482 141.107 29.932 143.836 31.8354 144.221C52.031 148.416 72.2758 152.229 92.5114 156.162C86.117 158.029 80.348 161.593 75.8178 166.477C74.5858 167.829 76.2521 170.315 77.8537 169.19C96.3583 156.199 123.564 156.316 138.379 174.485C154.777 194.588 148.004 223.189 128.609 238.549C109.596 253.598 77.4471 245.467 61.2956 229.183C44.0476 211.812 52.3174 184.683 73.5109 174.765C74.6104 174.251 73.7819 172.187 72.6978 172.729C56.8173 179.108 45.4151 195.392 48.5413 212.899C52.6069 235.691 78.9348 248.5 100.11 250.219C130.602 252.683 153.055 226.016 152.085 199.87C307.794 296.675 296.01 288.716 296.457 289.301C299.34 293.074 294.415 297.439 292.249 300.429C286.262 308.696 280.49 317.151 274.743 325.534C259.528 347.739 244.102 369.812 228.466 391.754C224.526 397.317 220.766 404.669 215.838 409.397C206.786 418.122 193.197 408.134 183.947 403.563C124.648 374.248 71.2933 350.03 19.8727 327.564C16.4847 326.079 13.4909 331.103 16.8882 332.584C74.2532 357.643 124.688 381.332 132.514 385.252C100.399 400.465 47.9253 426.832 18.1109 446.323C17.9327 446.421 17.7756 446.553 17.6485 446.711C17.5213 446.87 17.4266 447.052 17.3699 447.247C17.3131 447.442 17.2953 447.647 17.3176 447.849C17.3398 448.051 17.4017 448.247 17.4995 448.425C17.5974 448.603 17.7294 448.76 17.888 448.887C18.0467 449.014 18.2288 449.109 18.424 449.166C18.6192 449.223 18.8236 449.24 19.0257 449.218C19.2278 449.196 19.4235 449.134 19.6016 449.036C32.1496 442.876 88.1686 412.569 138.077 388.511C156.298 419.025 170.91 448.211 187.342 480.384C191.013 487.573 194.118 496.265 198.738 503.05C153.548 532.153 122.443 548.191 71.8415 574.974C69.8026 576.055 71.5643 579.037 73.6064 578.097C128.92 551.914 181.863 520.992 231.844 485.679C234.721 484.221 237.335 482.294 239.578 479.978C243.259 474.434 237.681 467.22 235.236 462.065C230.218 451.479 225.112 440.936 219.765 430.445C219.213 429.364 217.187 430.174 217.609 431.394C220.997 439.673 224.582 447.792 228.33 455.957C230.255 460.152 234.49 465.859 234.98 470.344C235.904 478.746 230.502 482.014 224.665 485.814C207.974 461.387 195.097 434.246 180.559 408.46C186.125 411.174 191.694 413.881 197.253 416.736C201.734 419.04 206.739 422.117 212.037 420.808C217.181 419.539 219.953 414.599 222.758 410.496C223.033 410.093 223.301 409.815 223.572 409.409C232.618 427.978 243.456 447.638 252.342 469.121C253.46 471.822 257.525 478.216 257.227 481.065C256.611 487.04 243.653 491.374 239.055 493.958C214.883 507.51 111.093 564.274 83.8042 579.727C80.6842 581.492 83.5116 586.195 86.6532 584.476C103.781 575.051 120.986 565.747 138.222 556.383C139.454 566.969 154.386 575.76 162.649 579.588C169.663 582.85 177.361 584.368 185.087 584.014C192.814 583.659 200.34 581.443 207.026 577.552C219.808 570.678 233.067 559.91 234.847 544.578C236.329 531.817 230.369 519.322 221.684 510.242C232.676 504.134 243.552 498.057 254.526 491.787C265.398 485.571 263.304 480.948 258.733 470.073C248.091 444.761 238.254 427.144 227.249 404.524C229.827 400.994 251.406 370.598 259.546 358.94C285.024 380.851 314.903 403.856 341.243 423.811C306.885 448.995 274.116 476.279 243.126 505.508C242.703 505.954 242.435 506.524 242.361 507.135C242.288 507.745 242.414 508.363 242.72 508.896C256.529 529.416 273.902 547.295 294.017 561.687C295.788 562.901 297.855 560.147 296.324 558.703C288.242 551.027 280.04 543.638 272.439 535.769C272.548 535.56 272.595 535.323 272.574 535.088C274.204 517.446 277.459 499.804 278.004 482.162C295.237 467.236 312.882 452.985 330.931 439.008C336.571 437.175 339.715 437.979 362.963 440.363C363.271 440.603 386.233 458.205 387.936 459.906C381.597 473.846 384.027 489.935 390.243 503.876C381.964 507.264 378.434 515.681 375.992 524.096C373.393 521.362 370.477 518.947 367.306 516.904C365.273 515.672 362.541 518.271 363.918 520.292C366.856 524.307 370.269 527.953 374.082 531.149C374.082 531.281 373.946 531.42 373.946 531.556C372.789 537.582 370.233 543.252 366.484 548.111C360.988 542.912 355.864 537.335 351.148 531.42C348.992 529.264 344.763 531.965 346.67 534.808C351.103 541.208 356.149 547.162 361.734 552.586C361.304 552.935 360.85 553.253 360.376 553.538C356.547 555.864 352.171 557.139 347.691 557.234C343.212 557.33 338.786 556.241 334.861 554.08C332.57 552.832 329.388 555.466 331.064 557.88C340.421 571.099 350.62 583.701 361.599 595.607C364.063 598.315 368.131 594.23 365.667 591.535C357.043 582.107 348.856 572.291 341.104 562.088C345.371 562.876 349.754 562.777 353.98 561.796C358.206 560.815 362.185 558.974 365.667 556.387C371.9 562.225 378.569 567.58 385.617 572.403C387.237 573.505 388.761 571.17 387.652 569.825C382.268 563.56 376.513 557.624 370.42 552.047C374.618 547.285 377.434 541.465 378.56 535.218C384.585 540.238 390.788 547.23 397.561 548.653C398.509 548.791 399.6 547.836 398.919 546.891C395.001 541.448 388.57 537.287 383.719 532.504C382.487 531.291 381.277 529.926 379.919 528.568C381.819 520.156 384.539 511.877 392.269 508.754C396.634 517.07 404.441 527.056 412.625 531.149C412.145 534.114 410.931 536.912 409.095 539.289C408.128 540.497 409.385 542.705 410.86 541.596C413.721 539.406 415.889 536.438 417.103 533.046C431.623 538.07 450.623 533.998 464.6 527.484C472.593 537.971 470.979 535.624 470.979 536.305C466.91 550.422 464.362 564.935 463.38 579.594C463.143 582.72 468.151 582.717 468.265 579.594C468.8 566.144 470.664 552.779 473.831 539.696C479.319 547.494 484.348 555.605 488.892 563.988C490.654 567.247 495.123 564.401 493.644 561.139C487.566 547.974 480.007 535.544 471.114 524.09C471.179 524.007 471.262 523.939 471.356 523.892C471.45 523.845 471.554 523.82 471.659 523.819C489.028 513.097 493.916 491.522 490.115 472.383C525.535 475.232 560.542 480.548 595.697 486.089C599.754 486.72 601.263 481.047 597.598 480.378ZM524.722 209.911C523.149 211.688 521.046 212.911 518.724 213.399C516.402 213.888 513.984 213.616 511.829 212.625C509.931 211.802 508.164 214.525 510.199 215.474C513.021 216.995 516.275 217.516 519.43 216.949C522.585 216.382 525.455 214.762 527.571 212.354C529.496 209.981 530.613 207.056 530.759 204.005C530.905 200.953 530.073 197.935 528.384 195.389C533.543 192.54 538.699 189.417 543.719 186.432C554.712 193.624 562.652 206.56 554.441 219.139C548.53 228.194 536.379 234.594 526.077 237.459C516.636 240.295 506.598 240.492 497.053 238.028C487.507 235.564 478.819 230.534 471.93 223.482C489.111 215.782 508.068 206.637 524.993 197.154C527.029 201.632 527.971 205.969 524.722 209.911ZM157.219 411.18C157.964 408.814 159.88 398.731 159.933 398.423C162.646 399.781 165.498 401.139 168.212 402.494C165.731 408.04 163.645 413.755 161.968 419.594C160.339 416.724 158.848 413.881 157.219 411.18ZM155.183 407.65C151.942 401.954 148.408 396.428 144.597 391.095C148.94 393.131 153.147 395.167 157.355 397.338C156.261 401.148 156.264 403.307 155.183 407.638V407.65ZM211.094 475.777C213.298 480.707 216.539 485.105 220.596 488.67C215.031 492.47 209.333 496.136 203.767 499.798C203.225 498.307 202.535 496.813 201.867 495.319C201.866 495.301 201.87 495.284 201.876 495.267C201.883 495.25 201.893 495.235 201.906 495.223C201.918 495.21 201.933 495.2 201.95 495.193C201.967 495.187 201.984 495.183 202.002 495.184C204.038 488.67 206.145 482.128 208.778 475.78C209.573 473.873 206.456 473.06 205.658 474.967C203.447 480.243 201.587 485.688 199.806 491.115C198.405 488.389 192.072 477.384 192.072 477.274C194.062 469.962 196.555 462.797 199.535 455.831C200.237 454.214 197.884 452.834 197.093 454.475C194.188 460.527 191.739 466.786 189.765 473.202C187.323 468.317 184.742 463.568 182.164 458.683C185.428 452.364 188.152 445.782 190.308 439.005C190.859 437.243 188.152 436.427 187.459 438.188C185.505 444.045 183.146 449.759 180.399 455.289C178.2 451.285 172.856 440.859 172.801 440.766C174.584 438.986 180.424 421.837 181.215 419.462C187.074 430.846 207.032 468.298 211.094 475.764V475.777ZM179.746 416.052C176.626 422.973 173.639 430.033 171.061 437.089C168.483 432.34 166.04 427.316 163.462 422.431C165.162 421.864 163.681 421.079 170.238 403.434C171.51 404.145 172.823 404.779 174.171 405.331C176.081 408.861 177.846 412.39 179.746 416.052ZM208.923 571.713C197.392 578.911 184.631 582.434 171.196 578.769C162.24 576.326 142.697 566.283 141.206 555.019C150.446 549.999 174.997 536.564 178.117 534.799C178.933 536.031 179.746 537.106 180.698 538.328C178.682 539.608 176.854 541.163 175.268 542.948C174.455 543.762 175.268 545.511 176.5 544.984C178.804 543.981 181.027 542.801 183.15 541.455C184.098 542.813 185.05 544.168 186.134 545.526C185.035 546.311 183.992 547.173 183.014 548.104C181.52 549.336 183.411 551.751 185.05 550.818C186.228 550.123 187.36 549.352 188.438 548.511C190.067 550.667 191.681 552.731 193.458 554.89C194.807 556.528 197.663 554.351 196.446 552.583C194.949 550.427 193.458 548.24 192.103 546.068C192.103 546.068 194.952 544.304 195.223 544.168C195.749 543.949 196.19 543.567 196.483 543.079C196.776 542.591 196.906 542.022 196.853 541.455C196.788 541.125 196.647 540.814 196.441 540.549C196.235 540.283 195.969 540.069 195.666 539.924C195.362 539.779 195.029 539.708 194.693 539.714C194.357 539.721 194.027 539.807 193.729 539.964C192.374 540.913 191.151 541.726 189.796 542.677C188.98 541.445 188.031 540.099 187.215 538.877C188.574 537.928 189.938 537.124 191.287 536.299C193.471 534.962 191.389 531.355 189.251 532.769C187.871 533.693 186.402 534.534 184.908 535.483C184.231 534.398 183.418 533.327 182.752 532.227C219.845 511.763 218.172 512.407 218.172 512.823H218.308C225.906 520.695 231.552 530.604 231.333 541.729C231.028 555.432 219.783 564.934 208.923 571.713ZM360.511 161.598C365.328 164.468 369.83 167.833 373.946 171.639C379.943 178.132 373.792 184.11 369.468 189.281C337.128 227.963 285.932 274.52 285.464 275.457C285.329 275.321 285.193 275.321 285.058 275.186C275.559 269.352 266.193 263.515 256.694 257.679C260.956 254.667 266.151 253.273 271.349 253.746C278.275 254.694 284.429 260.959 286.684 260.395C287.08 260.382 287.461 260.238 287.768 259.986C309.075 237.052 330.699 214.48 352.639 192.269C352.867 192.047 353.041 191.775 353.146 191.475C353.251 191.174 353.285 190.853 353.246 190.538C353.206 190.222 353.094 189.919 352.917 189.654C352.741 189.389 352.505 189.169 352.229 189.01C348.647 186.462 346.165 182.65 345.283 178.344C344.402 174.037 345.187 169.556 347.48 165.806C347.825 165.546 348.099 165.205 348.28 164.814C348.46 164.422 348.541 163.992 348.514 163.561C348.487 163.131 348.354 162.714 348.126 162.347C347.898 161.981 347.583 161.677 347.209 161.463C328.421 150.883 312.547 141.021 233.347 91.4359C225.798 87.3067 218.501 82.7299 211.498 77.7299C211.651 77.4338 211.744 77.1103 211.772 76.7781C212.45 74.6067 213.263 72.4353 213.928 70.2639C232.134 79.8951 304.797 123.012 360.511 161.598ZM152.199 193.76C150.49 183.318 145.386 173.73 137.677 166.483C137.122 165.953 136.445 165.535 135.912 164.989C149.756 167.841 163.536 171.115 177.439 173.946C178.137 174.083 178.861 173.968 179.482 173.62C180.103 173.273 180.58 172.716 180.827 172.049C191.004 141.514 201.091 110.978 211.088 80.4433C224.841 92.5477 324.879 153.96 343.005 164.854C340.743 169.197 340.048 174.188 341.037 178.984C342.026 183.78 344.639 188.088 348.435 191.182C327.805 212.489 307.629 234.203 287.907 256.324C277.866 250.216 263.75 246.16 254.643 256.324C254.658 256.324 182.595 212.083 152.199 193.76ZM268.5 531.814C261.47 524.203 254.899 516.181 248.821 507.79C257.236 500.053 265.922 492.319 274.607 484.853C272.842 500.466 268.229 516.343 268.5 531.814ZM336.897 434.375C339.885 432.068 342.869 429.755 345.989 427.452C349.519 430.168 353.184 432.882 356.711 435.595C347.748 435.068 341.04 434.08 336.897 434.375ZM478.445 512.407C471.268 521.031 459.041 525.442 448.181 527.878C434.592 530.927 420.504 533.015 409.909 523.942C403.354 517.969 398.09 510.719 394.441 502.637C388.173 489.347 386.202 476.504 391.318 462.597C393.776 455.656 398.312 449.64 404.309 445.367C410.306 441.094 417.474 438.772 424.837 438.715C425.115 438.7 425.377 438.579 425.568 438.377C425.76 438.176 425.867 437.908 425.867 437.629C425.867 437.351 425.76 437.083 425.568 436.881C425.377 436.679 425.115 436.559 424.837 436.544C419.873 436.197 414.891 436.873 410.199 438.53C405.507 440.187 401.206 442.79 397.561 446.178C382.225 439.402 370.937 427.569 356.985 418.627C355.753 417.836 354.696 419.684 355.898 420.528C369.305 429.965 379.648 441.971 394.441 449.298C392.968 450.923 391.607 452.647 390.369 454.457C365.473 434.28 291.698 379.635 262.259 354.034C263.491 352.269 264.837 350.368 266.057 348.607C266.861 349.087 272.045 352.919 275.297 355.121C276.92 356.214 278.845 353.605 277.333 352.404C275.081 350.618 268.891 345.81 268.241 345.484C279.233 329.877 290.229 314.274 301.083 298.529C308.007 288.488 299.047 282.787 290.497 278.038C305.54 264.486 322.797 247.093 336.909 232.574C349.537 238.139 358.565 249.083 371.381 254.559C372.613 255.082 373.537 252.93 372.329 252.403C360.524 246.295 351.838 235.574 339.897 229.611L344.24 225.268C344.511 225.404 344.782 225.675 345.053 225.81C350.905 229.472 356.584 233.147 362.424 236.803C390.973 254.667 439.523 282.079 475.063 297.479C471.943 344.843 462.305 391.797 460.134 439.297C451.019 436.49 441.575 434.894 432.044 434.548C429.331 434.4 429.467 438.333 432.044 438.617C441.509 439.508 450.841 441.472 459.863 444.469C474.385 449.652 481.454 458.082 484.697 469.438C484.756 469.725 485.578 472.955 485.649 473.239C485.636 474.11 491.242 497.032 478.445 512.407Z" fill="#212941"/>
<path d="M321.701 107.72C332.353 105.969 342.395 101.573 350.907 94.9345C359.419 88.2958 366.128 79.6267 370.42 69.7219C379.556 47.2133 361.879 27.3473 340.563 21.9511C316.822 15.942 283.728 19.8352 275.014 46.508C274.925 46.8738 274.974 47.2594 275.15 47.5921C270.544 52.2477 267.466 58.1965 266.327 64.6457C265.188 71.0949 266.042 77.738 268.774 83.6897C277.749 103.232 301.613 110.969 321.701 107.72ZM284.516 44.6168C286.019 43.9639 285.471 41.3705 283.835 42.0389C282.579 42.5484 281.356 43.1368 280.173 43.8006C292.656 23.3094 322.11 20.8516 343.547 28.0588C356.037 32.2568 367.879 42.8428 368.113 56.9646C368.304 68.6378 360.081 80.2832 351.826 87.9062C336.448 102.111 313.163 108.234 293.202 100.393C281.402 95.7726 270.927 85.7256 269.587 72.4354C268.463 61.292 273.739 49.28 284.516 44.6168Z" fill="#212941"/>
<path d="M492.692 79.3559C498.396 89.4522 505.868 88.0693 508.569 109.213C510.007 120.468 509.25 134.728 494.999 134.728C492.692 134.728 492.023 138.335 494.457 138.797C513.931 142.493 517.489 116.362 509.241 96.3206C506.161 88.8393 499.893 84.1176 494.718 78.0007C494.52 77.7813 494.249 77.6405 493.956 77.6041C493.662 77.5677 493.365 77.6382 493.119 77.8026C492.874 77.967 492.695 78.2145 492.616 78.4997C492.538 78.7849 492.565 79.0888 492.692 79.3559Z" fill="#212941"/>
<path d="M524.992 108.126C522.654 102.986 521.056 96.9984 516.036 94.0138C515.9 93.8783 515.9 93.8783 515.765 93.8783C511.603 91.5036 507.784 92.1443 503.82 88.1772C505.85 90.6059 507.539 93.3 508.841 96.1852C511.246 101.846 511.258 105.336 512.777 107.991C519.861 124.989 513.455 131.193 516.849 135.135C519.775 138.523 527.659 137.094 530.284 130.515C533.478 122.522 528.248 115.294 524.992 108.126Z" fill="#3A5AB7"/>
<path d="M509.793 136.626C510.354 138.713 510.717 140.849 510.877 143.004C503.821 154.4 487.676 155.291 475.322 154.4C471.253 154.108 466.1 151.702 462.294 152.636C458.906 153.464 454.803 158.583 452.795 161.05C446.327 168.984 442.498 178.973 438.137 188.056C434.355 195.934 430.81 203.526 431.361 212.212C430.683 212.619 430.009 212.899 429.325 213.296C428.725 213.688 428.301 214.298 428.14 214.997C427.98 215.695 428.097 216.429 428.466 217.043C428.835 217.658 429.428 218.105 430.12 218.292C430.812 218.479 431.549 218.391 432.177 218.046C453.907 205.726 477.937 198.836 500.71 188.869C524.759 178.347 546.667 162.997 568.972 149.512C569.397 149.238 569.733 148.847 569.942 148.386C570.151 147.926 570.223 147.415 570.15 146.915C570.078 146.415 569.863 145.946 569.532 145.564C569.201 145.182 568.767 144.903 568.283 144.76C551.789 138.354 532.863 138.652 515.491 137.704C515.135 136.731 514.724 135.78 514.259 134.855C513.943 134.395 513.48 134.056 512.946 133.893C512.412 133.73 511.839 133.754 511.32 133.96C510.801 134.165 510.368 134.541 510.09 135.026C509.813 135.51 509.708 136.074 509.793 136.626Z" fill="#212941"/>
<path d="M491.608 102.835C489.996 100.757 488.176 98.8475 486.178 97.1371C485.214 96.3363 483.6 97.4082 484.413 98.4923C488.433 104.742 494.02 108.016 490.656 110.708C489.708 111.385 489.843 113.557 491.337 113.286C492.029 113.232 492.697 113.01 493.284 112.64C493.871 112.271 494.359 111.763 494.706 111.163C495.053 110.562 495.249 109.886 495.276 109.193C495.304 108.5 495.162 107.81 494.864 107.184C493.952 105.612 492.859 104.153 491.608 102.835Z" fill="#212941"/>
<path d="M490.644 86.5479C489.965 86.5807 489.324 86.8737 488.854 87.3663C488.385 87.8589 488.123 88.5132 488.123 89.1936C488.123 89.874 488.385 90.5283 488.854 91.0209C489.324 91.5134 489.965 91.8065 490.644 91.8393C491.324 91.8065 491.965 91.5134 492.434 91.0209C492.903 90.5283 493.165 89.874 493.165 89.1936C493.165 88.5132 492.903 87.8589 492.434 87.3663C491.965 86.8737 491.324 86.5807 490.644 86.5479Z" fill="#212941"/>
<path d="M471.113 96.9985C470.375 96.9985 469.667 97.2917 469.145 97.8136C468.623 98.3355 468.33 99.0433 468.33 99.7813C468.33 100.519 468.623 101.227 469.145 101.749C469.667 102.271 470.375 102.564 471.113 102.564C471.851 102.564 472.559 102.271 473.081 101.749C473.602 101.227 473.896 100.519 473.896 99.7813C473.896 99.0433 473.602 98.3355 473.081 97.8136C472.559 97.2917 471.851 96.9985 471.113 96.9985Z" fill="#212941"/>
<path d="M472.88 89.6712C471.938 89.1282 470.879 88.8202 469.792 88.773C468.705 88.7258 467.623 88.9409 466.637 89.4001C464.976 90.6454 463.782 92.4139 463.249 94.4205C463.193 94.6635 463.199 94.9169 463.267 95.1568C463.336 95.3968 463.464 95.6153 463.64 95.7919C463.817 95.9685 464.035 96.0973 464.275 96.1661C464.515 96.2349 464.768 96.2416 465.011 96.1854C468.143 95.326 466.773 91.473 472.206 92.3846C472.555 92.4462 472.915 92.3728 473.213 92.1794C473.51 91.986 473.723 91.6869 473.809 91.3425C473.895 90.9982 473.846 90.6341 473.674 90.3239C473.502 90.0137 473.218 89.7804 472.88 89.6712Z" fill="#212941"/>
<path d="M487.944 78.9496C485.761 79.4424 482.644 81.3951 482.924 83.9731C482.938 84.2523 483.023 84.5233 483.171 84.7606C483.318 84.9979 483.524 85.1936 483.769 85.3293C484.013 85.4649 484.288 85.536 484.568 85.5358C484.847 85.5356 485.122 85.4642 485.366 85.3283C486.312 84.9155 486.857 83.9731 487.809 83.4279C488.893 82.8858 489.866 83.0306 490.387 81.8017C490.545 81.4729 490.604 81.1049 490.556 80.7432C490.508 80.3814 490.355 80.0416 490.116 79.7658C490.116 79.4085 489.105 78.6909 487.944 78.9496Z" fill="#212941"/>
<path d="M485.1 122.919C482.658 122.633 482.501 126.227 484.555 126.991C489.264 128.738 494.18 125.759 497.854 123.055C498.16 122.849 498.374 122.533 498.453 122.173C498.531 121.813 498.468 121.436 498.276 121.122C498.084 120.807 497.778 120.579 497.422 120.484C497.066 120.389 496.687 120.435 496.364 120.613C492.896 122.413 488.996 123.211 485.1 122.919Z" fill="#212941"/>
<path d="M453.069 127.262C452.897 126.985 452.631 126.779 452.319 126.683C452.007 126.587 451.671 126.607 451.373 126.74C451.075 126.872 450.835 127.109 450.697 127.405C450.56 127.701 450.535 128.036 450.626 128.35C451.179 130.202 452.231 131.866 453.668 133.158C455.104 134.451 456.87 135.323 458.77 135.677C459.769 135.702 460.766 135.792 461.754 135.948C462.841 136.49 463.399 139.607 463.79 140.568C465.062 143.67 466.128 146.799 467.32 150.07C468.154 152.368 471.891 151.302 470.982 149.118C464.803 134.199 466.303 133.139 461.89 132.699C460.102 132.527 458.377 131.948 456.847 131.006C455.318 130.063 454.025 128.783 453.069 127.262Z" fill="#212941"/>
<path d="M470.572 133.777C469.873 132.853 468.281 134.039 468.943 135.009C470.859 138.046 473.446 140.603 476.504 142.485C479.562 144.367 483.011 145.524 486.585 145.866C486.87 145.864 487.145 145.757 487.358 145.567C487.57 145.377 487.706 145.115 487.739 144.832C487.772 144.549 487.701 144.263 487.539 144.028C487.376 143.794 487.133 143.627 486.856 143.559C480.333 141.551 474.795 139.432 470.572 133.777Z" fill="#212941"/>
<path d="M188.838 341.818C191.552 344.535 196.846 343.74 200.102 343.177C203.062 342.778 205.897 341.733 208.407 340.115C210.917 338.496 213.04 336.345 214.624 333.813C219.118 327.583 227.073 319.855 228.465 312.099C228.659 309.958 228.474 307.799 227.92 305.721C227.412 301.917 227.662 297.848 227.107 294.051C225.912 285.904 217.541 280.191 215.163 272.066C213.45 266.214 213.269 259.844 207.565 256.324C205.935 255.529 204.196 254.98 202.406 254.694C192.919 251.845 190.671 246.021 178.794 245.873C173.68 245.367 168.656 244.18 163.856 242.344C160.742 241.547 157.468 241.633 154.4 242.592C151.332 243.551 148.591 245.345 146.485 247.774C143.525 251.054 143.387 256.09 139.971 259.17C136.198 262.591 131.15 263.106 131.014 269.62C123.687 269.484 121.226 281.848 125.723 287.127C126.58 288.318 127.729 289.268 129.06 289.886C130.391 290.504 131.858 290.768 133.321 290.653C129.472 296.183 126.82 302.456 125.535 309.069C124.25 315.683 124.36 322.492 125.858 329.061C126.701 332.068 128.178 334.86 130.191 337.248C132.205 339.636 134.707 341.564 137.528 342.902C136.17 349.678 133.611 356.744 134.27 363.803C134.55 366.788 139.198 366.785 139.022 363.803C138.597 357.144 140.92 350.91 140.784 344.399C144.933 345.954 149.267 346.957 153.677 347.384C156.252 347.692 156.8 343.448 154.354 342.906C142.142 340.192 131.276 337.072 129.249 322.956C127.811 311.784 130.306 300.459 136.306 290.924C136.438 290.775 136.511 290.582 136.511 290.382C136.511 290.183 136.438 289.99 136.306 289.84C139.723 288.019 142.619 285.356 144.72 282.103C148.364 282.967 151.615 285.021 153.96 287.94C155.217 289.403 157.465 287.814 156.948 286.175C156.226 284.051 154.885 282.193 153.097 280.839C151.309 279.485 149.156 278.698 146.916 278.58C148.573 276.094 152.42 262.203 163.203 265.687C167.823 267.178 169.194 270.128 172.838 272.066C175.841 273.661 179.361 273.532 182.472 274.779C190.098 277.837 190.668 283.458 191.428 290.521C191.834 292.853 192.517 295.128 193.464 297.297C195.115 302.311 193.045 306.796 192.38 311.684C191.549 317.788 195.094 321.182 195.5 326.748C192.922 329.461 188.416 332.434 187.221 334.075C185.895 336.097 184.845 338.288 184.101 340.589C181.605 347.444 180.768 354.792 181.659 362.032C183.544 377.217 192.38 385.508 201.879 396.22C191.798 401.262 188.943 391.533 178.945 391.064C178.49 391.083 178.055 391.261 177.717 391.567C177.378 391.872 177.158 392.287 177.093 392.738C177.028 393.19 177.124 393.649 177.362 394.038C177.601 394.426 177.968 394.719 178.4 394.865C184.769 396.525 189.796 402.423 196.316 403.277C202.141 404.04 205.849 399.648 209.616 395.949C229.802 375.807 247.357 353.191 261.862 328.639C266.34 321.173 279.917 305.336 277.197 296.068C276.168 293.71 274.343 291.788 272.041 290.638C263.996 285.328 255.819 280.089 247.614 275.032C246.939 274.616 245.713 274.218 245.307 274.896C243.674 277.613 259.974 283.933 267.427 292.144C275.054 300.534 269.429 309.226 264.714 317.659C257.814 330.049 250.106 341.971 241.642 353.35C230.959 367.651 219.162 381.085 206.36 393.525C201.74 387.963 195.765 383.361 192.112 377.103C186.989 367.791 185.536 356.899 188.04 346.571C187.684 344.943 187.97 343.241 188.838 341.818Z" fill="#212941"/>
<path d="M172.148 297.713C171.467 297.627 170.777 297.77 170.187 298.121C169.597 298.472 169.142 299.01 168.892 299.649C168.643 300.288 168.614 300.993 168.81 301.65C169.007 302.308 169.417 302.881 169.976 303.278C170.543 303.68 171.221 303.895 171.916 303.895C172.611 303.894 173.288 303.677 173.855 303.275C174.421 302.872 174.848 302.304 175.077 301.648C175.306 300.992 175.325 300.281 175.132 299.613C174.963 298.98 174.563 298.433 174.01 298.082C173.458 297.73 172.793 297.598 172.148 297.713Z" fill="#212941"/>
<path d="M147.446 291.608C149.211 289.979 147.991 288.22 146.497 287.537C146.296 287.361 146.051 287.243 145.788 287.195C145.525 287.147 145.254 287.172 145.003 287.266C144.898 287.268 144.795 287.293 144.702 287.34C144.608 287.387 144.526 287.454 144.461 287.537C144.326 287.537 144.326 287.672 144.19 287.672C143.808 287.824 143.469 288.065 143.201 288.377C142.932 288.688 142.744 289.06 142.65 289.46C142.557 289.86 142.562 290.277 142.665 290.674C142.768 291.072 142.966 291.439 143.242 291.744C143.511 292.038 143.842 292.271 144.21 292.426C144.578 292.581 144.975 292.655 145.375 292.642C145.774 292.629 146.166 292.53 146.523 292.352C146.881 292.173 147.195 291.92 147.446 291.608Z" fill="#212941"/>
<path d="M147.585 313.852C147.936 313.747 148.243 313.532 148.462 313.239C148.681 312.945 148.799 312.589 148.799 312.223C148.799 311.857 148.681 311.5 148.462 311.207C148.243 310.913 147.936 310.698 147.585 310.593C140.029 307.932 153.56 299.262 157.354 292.003C157.915 290.928 156.677 289.425 155.59 290.238C152.471 292.659 149.646 295.437 147.175 298.517C144.83 300.577 142.896 303.064 141.477 305.844C139.934 310.048 142.675 315.568 147.585 313.852Z" fill="#212941"/>
<path d="M186.802 296.764C187.4 292.837 183.95 290.94 180.833 289.843C176.62 288.362 170.913 286.431 166.718 289.03C166.446 289.198 166.229 289.441 166.093 289.729C165.957 290.017 165.908 290.339 165.951 290.655C165.994 290.971 166.127 291.267 166.336 291.509C166.544 291.75 166.818 291.926 167.124 292.015C172.976 293.087 178.985 292.917 183.276 297.713C183.538 297.973 183.864 298.16 184.222 298.254C184.579 298.349 184.955 298.348 185.312 298.252C185.669 298.156 185.994 297.968 186.256 297.707C186.517 297.446 186.706 297.121 186.802 296.764Z" fill="#212941"/>
<path d="M135.775 319.427C139.924 324.632 151.021 327.814 157.218 325.128C157.55 325.026 157.834 324.809 158.02 324.516C158.205 324.223 158.281 323.873 158.231 323.53C158.182 323.186 158.013 322.872 157.752 322.642C157.492 322.413 157.158 322.284 156.811 322.279C153.407 322.28 150.008 322.007 146.647 321.463C143.431 320.382 140.334 318.972 137.407 317.255C137.119 317.114 136.789 317.077 136.477 317.152C136.164 317.227 135.887 317.409 135.694 317.666C135.5 317.923 135.403 318.24 135.417 318.561C135.432 318.882 135.559 319.189 135.775 319.427Z" fill="#212941"/>
<path d="M134.417 511.049C135.778 509.152 132.929 507.528 131.432 508.742C121.693 516.651 110.134 521.336 97.5062 517.699C90.761 515.676 84.7342 511.768 80.135 506.435C87.1853 503.626 93.9179 500.078 100.22 495.849C100.601 495.599 100.882 495.223 101.014 494.787C101.146 494.351 101.121 493.882 100.944 493.463C100.766 493.043 100.447 492.699 100.041 492.491C99.6361 492.283 99.1706 492.223 98.7259 492.322C90.8252 494.279 83.2409 497.343 76.1988 501.424C74.2331 498.374 72.767 495.03 71.856 491.519C79.3465 488.24 86.5236 484.287 93.2989 479.71C93.693 479.467 93.9869 479.091 94.1276 478.65C94.2682 478.209 94.2463 477.732 94.0657 477.305C93.8851 476.879 93.5579 476.532 93.1432 476.326C92.7285 476.12 92.2539 476.069 91.8051 476.183C84.5867 478.656 77.5572 481.65 70.7718 485.14C69.6846 463.697 92.1316 446.107 111.077 440.625C112.438 440.233 112.309 437.917 110.67 438.047C87.333 439.895 64.2576 463.561 66.0101 487.327C59.6315 490.176 53.2466 492.741 47.1451 496.009C45.3803 496.958 46.6061 499.44 48.5034 499.132C54.8754 497.922 61.1054 496.057 67.0943 493.567C68.0311 497.309 69.6403 500.85 71.8437 504.017C66.6877 507.005 61.8121 510.279 57.1859 513.257C55.6983 514.215 56.6439 516.919 58.4179 516.245C64.1159 514.064 69.6815 511.36 75.2471 508.779C90.4499 525.842 119.368 532.095 134.417 511.049Z" fill="#212941"/>
<path d="M66.2942 104.058C69.7158 105.43 73.259 106.477 76.8771 107.184C74.7046 114.106 72.5332 120.985 70.3629 127.82C70.185 128.569 70.3074 129.358 70.7037 130.018C71.1 130.678 71.7389 131.157 72.4836 131.352C73.2284 131.547 74.0199 131.443 74.689 131.062C75.3581 130.681 75.8516 130.054 76.0639 129.314C78.2199 122.258 80.5423 115.201 82.8399 108.142C86.0986 108.687 89.2155 109.248 92.2031 109.907C92.3902 109.96 92.586 109.977 92.7793 109.955C92.9727 109.932 93.1598 109.872 93.3299 109.778C93.5001 109.684 93.65 109.557 93.7711 109.404C93.8922 109.252 93.9821 109.077 94.0357 108.89C94.0893 108.703 94.1056 108.508 94.0835 108.314C94.0614 108.121 94.0015 107.934 93.9071 107.764C93.8127 107.593 93.6857 107.443 93.5334 107.322C93.3811 107.201 93.2064 107.111 93.0193 107.058C90.3182 106.066 87.3183 104.902 84.1982 103.938C85.9631 98.5077 87.7248 93.0807 89.3541 87.6507C101.689 92.2686 114.54 95.3714 127.623 96.8907C129.117 97.0293 129.391 94.7162 128.033 94.3127C115.556 90.6167 103.06 87.5367 90.7124 83.4557C94.6456 70.9725 98.1753 58.4862 101.295 45.8797C112.394 49.863 123.916 52.5502 135.631 53.8877C137.257 54.0479 137.525 51.4699 136.038 51.1743C123.534 48.664 111.271 45.0768 99.3857 40.4528C96.6599 39.3963 95.4495 43.5728 98.0274 44.7956C90.5646 63.6575 84.4569 83.0646 78.3493 102.472C74.7325 101.42 70.9879 100.871 67.2213 100.842C66.8355 100.826 66.4555 100.939 66.1421 101.165C65.8287 101.39 65.6001 101.715 65.4932 102.086C65.3862 102.456 65.407 102.853 65.5523 103.21C65.6976 103.568 65.9589 103.867 66.2942 104.058Z" fill="#212941"/>
<path d="M598.004 338.156C590.735 342.791 587.289 351.055 581.856 357.56C576.108 364.035 569.795 369.984 562.991 375.338C555.122 362.432 548.224 348.959 542.355 335.03C541.123 332.055 535.837 334.217 537.06 337.186C543.055 351.724 550.226 365.749 558.503 379.12C558.337 379.453 558.737 377.709 556.061 396.901C551.311 396.22 546.559 395.746 541.945 395.543C539.638 395.441 539.644 398.512 541.403 399.208C545.899 400.906 550.6 402.001 555.383 402.463C554.973 406.129 554.702 409.791 554.431 413.32C549.218 412.198 543.883 411.742 538.554 411.962C538.112 411.975 537.69 412.143 537.36 412.437C537.03 412.731 536.813 413.131 536.749 413.568C536.684 414.005 536.775 414.45 537.006 414.827C537.237 415.203 537.593 415.487 538.012 415.627C543.266 417.244 548.733 418.612 554.296 419.835C554.41 425.425 555.184 430.983 556.603 436.393C556.705 436.724 556.922 437.009 557.216 437.194C557.509 437.38 557.859 437.455 558.202 437.406C558.546 437.356 558.861 437.186 559.09 436.925C559.319 436.664 559.447 436.33 559.452 435.983C559.519 430.963 559.723 425.942 559.997 421.054C564.066 421.87 568.134 422.708 572.209 423.364C573.971 423.644 575.191 421.338 573.441 420.377C569.301 418.116 564.934 416.297 560.413 414.95C560.684 410.878 561.09 406.942 561.361 402.87C565.309 402.96 569.258 402.734 573.17 402.192C574.402 402.038 575.064 399.922 573.577 399.75C569.764 399.303 565.84 398.518 561.903 397.85C563.924 378.664 563.265 382.647 564.059 381.834C593.951 357.018 588.25 352.882 600.025 340.848C600.303 340.556 600.469 340.174 600.492 339.771C600.516 339.368 600.396 338.97 600.154 338.647C599.911 338.324 599.562 338.097 599.169 338.008C598.775 337.918 598.363 337.97 598.004 338.156Z" fill="#212941"/>
<path d="M242.171 136.626C245.136 131.073 247.154 125.065 248.143 118.848C248.303 117.496 246.369 116.267 245.7 117.764C243.268 123.196 240.55 128.496 237.557 133.641C228.058 129.683 214.728 136.105 217.066 146.534C218.155 150.48 220.312 154.05 223.3 156.849C215.763 168.781 207.755 180.747 202.808 192.946C198.188 187.655 195.392 179.619 192.493 174.356C191.292 172.172 187.337 173.675 188.286 176.117C190.867 182.767 194.665 192.675 200.772 198.512C199.628 201.779 198.764 205.139 198.191 208.553C197.905 210.45 200.501 211.811 201.45 209.911C202.808 207.195 204.164 204.617 205.386 201.903C215.079 206.751 227.254 199.405 234.563 191.453C240.809 184.677 243.902 174.91 239.448 166.348C237.066 162.419 233.925 159.004 230.208 156.304C233.464 151.148 236.984 145.856 239.842 140.426C242.396 142.839 244.268 145.881 245.272 149.247C245.7 150.6 248.121 150.479 247.986 148.841C247.922 146.512 247.372 144.222 246.371 142.118C245.369 140.014 243.939 138.143 242.171 136.626ZM234.572 183.174C231.283 189.672 222.625 196.991 215.03 198.102C212.578 198.448 210.079 198.071 207.838 197.018C213.627 184.56 220.152 172.458 227.381 160.776C233.895 166.754 239.947 172.563 234.572 183.174ZM226.293 152.374C225.452 151.484 224.681 150.53 223.986 149.522C222.086 141.246 224.803 137.174 232.265 137.174C233.325 137.211 234.375 137.393 235.386 137.716C232.401 142.733 229.416 147.618 226.293 152.371V152.374Z" fill="#212941"/>
<path d="M66.1588 217.51C67.1075 218.458 68.4811 217.091 67.6495 216.016C58.6036 204.34 67.745 191.413 76.3351 183.174C84.4417 175.403 93.0195 169.93 104.699 171.91C125.855 175.52 134.43 195.586 131.027 215.067C130.951 215.404 131.009 215.757 131.189 216.052C131.368 216.347 131.655 216.561 131.989 216.649C132.323 216.737 132.678 216.692 132.979 216.523C133.281 216.354 133.505 216.075 133.605 215.745C142.795 193.039 121.796 167.632 98.3202 168.519C78.3679 169.271 49.1942 198.374 66.1588 217.51Z" fill="#212941"/>
<path d="M216.389 532.627C217.283 546.315 213.818 556.941 199.56 561.669C186.313 565.81 172 564.892 159.391 559.091C158.159 558.549 157.235 560.178 158.304 560.856C180.834 572.661 228.943 567.715 219.103 532.212C218.724 530.856 216.291 531.131 216.389 532.627Z" fill="#212941"/>
<path d="M452.659 462.616C454.008 463.445 455.763 461.415 454.423 460.309C442.467 450.453 426.189 445.374 412.354 454.34C397.283 464.101 398.58 481.595 403.258 496.952C403.33 497.222 403.507 497.452 403.748 497.592C403.99 497.732 404.278 497.771 404.547 497.699C404.817 497.627 405.048 497.451 405.188 497.209C405.328 496.967 405.366 496.68 405.294 496.41C402.504 482.039 399.75 464.954 415.067 456.647C428.789 449.19 440.915 455.394 452.659 462.616Z" fill="#212941"/>
<path d="M304.612 91.5714C304.882 91.6433 305.169 91.605 305.411 91.4649C305.652 91.3249 305.829 91.0945 305.901 90.8245C305.972 90.5546 305.934 90.2671 305.794 90.0254C305.654 89.7836 305.424 89.6074 305.154 89.5355C298.682 87.287 293.358 82.5784 290.335 76.4306C287.313 70.2828 286.835 63.1913 289.005 56.6935C294.032 40.9547 307.282 39.8274 321.037 44.0655C322.269 44.4474 323.193 42.4423 321.989 41.9095C280.304 23.2786 271.656 84.3612 304.612 91.5714Z" fill="#212941"/>
<path d="M428.502 74.8779C407.401 84.7863 385.893 94.5529 365.125 105.277C364.905 105.431 364.735 105.646 364.637 105.896C364.54 106.145 364.519 106.419 364.577 106.68C364.635 106.942 364.77 107.181 364.964 107.366C365.158 107.551 365.403 107.674 365.667 107.72C367.398 113.139 367.552 118.938 366.111 124.441C364.67 129.944 361.692 134.923 357.526 138.797C357.407 138.898 357.309 139.023 357.239 139.163C357.169 139.304 357.128 139.457 357.12 139.613C356.895 139.747 356.728 139.961 356.652 140.212C356.577 140.462 356.597 140.732 356.71 140.969C357.903 144.193 359.859 147.08 362.411 149.383C363.908 150.735 366.19 148.459 364.567 147.227C362.496 145.589 360.826 143.5 359.682 141.119C364.128 136.74 367.249 131.196 368.689 125.124C370.129 119.051 369.829 112.696 367.823 106.787C388.859 97.8301 409.35 87.2441 429.98 77.3388C431.757 76.6427 430.276 74.0525 428.502 74.8779Z" fill="#212941"/>
<path d="M403.398 227.825C403.568 228.124 403.836 228.355 404.157 228.479C404.479 228.602 404.833 228.611 405.159 228.502C408.964 226.86 413.182 226.43 417.239 227.27C416.833 227.132 424.015 230.4 424.431 230.39C427.961 230.323 432.162 227.397 435.424 225.912C470.844 209.788 509.159 193.683 546.571 170.543C548.589 169.292 546.707 166.065 544.671 167.284C514.907 184.697 484.138 200.33 452.524 214.1C445.206 217.38 437.878 221.326 430.403 224.005C423.495 226.469 419.411 222.921 412.49 223.328C411.809 223.328 407.602 224.56 406.924 224.412C402.97 223.54 401.195 218.323 399.19 215.049C394.644 207.626 390.536 199.895 386.298 192.257C385.374 190.606 382.91 192.121 383.72 193.748C389.677 205.444 396.245 216.819 403.398 227.825Z" fill="#212941"/>
<path d="M417.916 165.396C423.62 160.65 425.791 150.735 419.952 145.308C418.049 143.543 415.605 142.475 413.017 142.278C410.429 142.081 407.851 142.767 405.704 144.224C405.652 144.115 405.578 144.017 405.487 143.936C405.396 143.856 405.29 143.795 405.175 143.757C405.059 143.719 404.938 143.705 404.817 143.715C404.696 143.726 404.579 143.761 404.472 143.818C402.643 144.412 400.971 145.407 399.576 146.73C398.181 148.053 397.1 149.671 396.411 151.466C395.722 153.261 395.442 155.187 395.592 157.103C395.743 159.02 396.319 160.879 397.28 162.544C398.348 164.211 399.764 165.627 401.432 166.695C403.1 167.762 404.979 168.455 406.941 168.726C408.902 168.997 410.899 168.84 412.793 168.265C414.688 167.69 416.436 166.711 417.916 165.396ZM402.987 147.224C402.58 148.311 404.074 149.531 405.023 148.582C406.476 146.9 408.502 145.815 410.708 145.539C412.914 145.264 415.144 145.816 416.967 147.089C421.861 150.606 420.91 158.087 417.103 162.153C416.104 163.303 414.883 164.239 413.513 164.905C412.144 165.571 410.654 165.954 409.132 166.03C407.611 166.106 406.09 165.874 404.661 165.347C403.232 164.821 401.924 164.011 400.816 162.966C399.794 161.846 399.031 160.514 398.581 159.066C398.132 157.618 398.006 156.088 398.213 154.586C398.42 153.084 398.955 151.646 399.78 150.374C400.605 149.101 401.7 148.026 402.987 147.224Z" fill="#212941"/>
<path d="M378.56 135.542C389.194 131.207 399.53 126.174 409.501 120.477C411.14 119.553 409.624 117.059 408.01 117.899C397.88 123.166 387.735 128.239 377.475 133.235C376.376 133.765 377.207 136.09 378.56 135.542Z" fill="#212941"/>
<path d="M400.817 132.012C396.821 133.585 392.924 135.399 389.147 137.442C387.653 138.255 389.008 140.42 390.505 139.749C394.578 138.411 398.457 136.539 402.039 134.183C403.139 133.25 402.043 131.753 400.817 132.012Z" fill="#212941"/>
<path d="M426.061 178.424C417.786 181.767 410.333 186.86 404.211 193.353C403.977 193.587 403.846 193.904 403.846 194.235C403.846 194.566 403.977 194.884 404.211 195.118C404.445 195.352 404.763 195.483 405.094 195.483C405.425 195.483 405.742 195.352 405.976 195.118C412.413 189.507 419.524 184.721 427.145 180.87C428.361 180.18 427.554 177.888 426.061 178.424Z" fill="#212941"/>
<path d="M410.724 199.461C410.434 199.649 410.228 199.941 410.149 200.277C410.07 200.613 410.123 200.967 410.299 201.264C410.474 201.562 410.757 201.78 411.089 201.874C411.422 201.968 411.777 201.93 412.082 201.768C415.715 199.897 419.206 197.765 422.53 195.389C423.346 194.711 422.53 193.073 421.445 193.489C417.702 195.157 414.114 197.156 410.724 199.461Z" fill="#212941"/>
<path d="M31.2806 312.506C43.4343 320.874 56.4434 327.926 70.0886 333.542C84.0014 339.742 98.2778 345.09 112.839 349.558C114.742 350.091 116.082 347.144 114.194 346.303C86.7422 334.069 57.7532 327.629 32.4972 310.473C31.2868 309.645 30.0763 311.668 31.2806 312.506Z" fill="#212941"/>
<path d="M53.6729 272.888C65.5155 278.512 79.0397 285.239 92.3484 286.323C94.2488 286.48 94.2365 283.911 92.7581 283.339C80.4381 278.571 67.6253 275.66 55.4377 270.039C53.3957 269.091 51.6432 271.915 53.6729 272.888Z" fill="#212941"/>
<path d="M90.4513 265.28C92.4964 266.204 94.3598 263.432 92.2131 262.157C84.7944 257.927 76.7928 254.814 68.4663 252.917C68.1478 252.843 67.813 252.895 67.5317 253.062C67.2505 253.229 67.0445 253.498 66.9567 253.813C66.869 254.128 66.9062 254.464 67.0606 254.752C67.215 255.041 67.4747 255.258 67.7856 255.36C75.5995 258.437 83.0285 261.929 90.4513 265.28Z" fill="#212941"/>
<path d="M323.463 64.1596C322.785 68.3638 322.659 70.9818 317.9 72.1676C316.242 72.7217 314.473 72.8623 312.748 72.5773C311.023 72.2922 309.393 71.5902 308.001 70.5321C302.583 65.9121 304.684 60.1987 306.646 54.5161C307.302 52.6096 304.881 51.6671 303.523 52.7513C302.002 53.9839 300.801 55.5651 300.021 57.3607C299.242 59.1564 298.907 61.1135 299.044 63.0662C296.738 62.9307 294.295 62.5272 291.988 62.3886C289.832 62.2562 289.832 65.0744 291.582 65.7766C294.274 66.7587 297.128 67.2227 299.993 67.1441C300.752 69.4629 302.062 71.5631 303.811 73.2646C305.56 74.9662 307.695 76.2184 310.034 76.9139C312.764 77.5358 315.599 77.5294 318.326 76.895C321.053 76.2606 323.601 75.0148 325.776 73.2518C327.932 71.0804 327.562 67.8279 328.218 64.9727C329.062 61.3137 331.104 55.4247 335.684 59.6813C336.752 60.5829 337.432 61.8607 337.583 63.2501C337.735 64.6394 337.346 66.0337 336.497 67.1441C335.167 69.1954 338.379 71.068 339.756 69.0445C340.899 67.3623 341.513 65.3771 341.521 63.3434C342.508 63.5009 343.505 63.5915 344.505 63.6144C346.241 63.9127 348.025 63.7251 349.661 63.0724C351.968 61.7141 349.255 59.6844 347.761 59.6844C345.454 59.5458 343.283 59.6844 340.985 59.5458C340.634 58.3395 340.02 57.2262 339.187 56.286C338.354 55.3459 337.322 54.6024 336.167 54.1092C335.012 53.6159 333.761 53.3853 332.506 53.4338C331.251 53.4823 330.022 53.8089 328.908 54.3898C324.414 56.6937 324.143 59.9523 323.463 64.1596Z" fill="#212941"/>
<path d="M115.15 211.131C115.313 209.779 113.678 208.162 112.572 209.64C105.377 219.24 91.2648 223.211 84.2085 213.983C87.3961 212.576 90.7136 211.485 94.1138 210.724C94.4315 210.708 94.7424 210.626 95.0264 210.483C95.3105 210.339 95.5613 210.138 95.7627 209.892C95.9641 209.646 96.1116 209.36 96.1957 209.053C96.2799 208.746 96.2987 208.425 96.2511 208.11C96.2035 207.796 96.0905 207.495 95.9194 207.227C95.7482 206.958 95.5228 206.729 95.2575 206.553C94.9923 206.378 94.6931 206.26 94.3794 206.207C94.0657 206.154 93.7444 206.167 93.4362 206.246C89.9512 207.122 86.55 208.303 83.2722 209.776C82.7996 209.899 82.3443 210.081 81.917 210.318C80.7737 207.754 80.1728 204.981 80.1521 202.174C82.9187 200.666 85.8903 199.569 88.9732 198.919C91.5481 198.734 91.6898 194.779 88.9732 194.847C86.0507 195.233 83.2354 196.202 80.6942 197.696C81.9166 193.029 84.8687 189.001 88.9515 186.431C93.0344 183.86 97.9422 182.939 102.679 183.854C103.039 183.944 103.42 183.887 103.738 183.697C104.056 183.506 104.285 183.196 104.375 182.836C104.465 182.477 104.408 182.096 104.217 181.778C104.026 181.46 103.717 181.231 103.357 181.141C89.5215 175.834 78.2518 186.703 76.3514 199.313C74.451 199.99 72.5538 200.677 70.7889 201.349C70.3622 201.494 70.0073 201.797 69.7971 202.195C69.5869 202.594 69.5375 203.058 69.659 203.492C69.7805 203.926 70.0637 204.297 70.4503 204.528C70.837 204.76 71.2976 204.834 71.7376 204.737C73.2221 204.429 74.7221 203.924 76.2159 203.505C76.2709 206.352 76.87 209.162 77.9807 211.784C76.4005 212.313 74.8571 212.947 73.3607 213.681C73.0641 213.864 72.8345 214.138 72.7064 214.462C72.5783 214.786 72.5586 215.143 72.6501 215.479C72.7416 215.815 72.9395 216.113 73.2141 216.327C73.4888 216.542 73.8255 216.661 74.1738 216.669C76.1103 216.448 78.02 216.035 79.8749 215.437C81.4662 218.002 83.6549 220.145 86.254 221.681C88.8532 223.217 91.7855 224.101 94.8006 224.258C102.661 224.532 114.103 219.841 115.15 211.131Z" fill="#212941"/>
<path d="M444.651 481.737C443.16 481.712 439.766 482.55 438.547 482.55C432.847 484.86 429.318 481.472 427.961 472.386C429.28 471.254 430.811 470.396 432.465 469.86C434.119 469.324 435.862 469.121 437.595 469.263C439.766 469.263 439.631 466.278 437.595 466.007C435.813 465.851 434.017 466.035 432.303 466.549C431.758 464.785 431.216 462.884 430.539 461.122C430.381 460.88 430.156 460.689 429.893 460.571C429.629 460.452 429.337 460.412 429.051 460.455C428.766 460.498 428.498 460.622 428.281 460.812C428.063 461.003 427.905 461.251 427.825 461.529C427.548 463.734 427.828 465.974 428.638 468.043C421.862 471.57 417.242 479.171 424.702 485.821C432.162 492.471 442.603 483.813 450.882 488.128C459.281 492.498 458.73 503.3 452.24 508.89C443.924 516.048 430.151 514.992 427.542 502.65C427.422 502.262 427.17 501.928 426.829 501.707C426.489 501.485 426.081 501.391 425.678 501.439C425.275 501.488 424.901 501.676 424.623 501.972C424.344 502.267 424.178 502.651 424.154 503.057C424.289 515.272 434.333 519.205 443.967 517.44C444.987 521.515 444.753 523.428 446.274 524.771C446.521 524.991 446.819 525.148 447.141 525.228C447.462 525.307 447.799 525.306 448.12 525.226C448.441 525.145 448.738 524.987 448.985 524.766C449.231 524.544 449.419 524.266 449.533 523.954C450.201 521.94 449.108 520.705 447.904 516.492C453.17 514.814 457.621 511.232 460.387 506.448C461.67 503.805 462.256 500.879 462.087 497.946C461.918 495.014 461.001 492.173 459.424 489.695C457.846 487.218 455.66 485.186 453.074 483.792C450.488 482.399 447.588 481.692 444.651 481.737Z" fill="#212941"/>
<path d="M528.248 227.418C543.99 232.167 553.618 211.839 546.571 199.596C545.72 198.124 543.749 199.445 544.399 200.828C545.934 203.807 546.523 207.184 546.086 210.507C545.649 213.829 544.207 216.939 541.954 219.419C538.128 222.742 533.307 224.699 528.248 224.982C526.892 225.111 527.163 226.996 528.248 227.418Z" fill="#212941"/>
<path d="M273.389 204.617C277.124 204.743 280.781 203.526 283.694 201.185C286.608 198.845 288.585 195.537 289.266 191.862C290.597 183.035 281.258 178.56 273.66 178.56C273.418 178.546 273.176 178.588 272.953 178.683C272.731 178.778 272.533 178.923 272.375 179.107C272.217 179.29 272.104 179.508 272.044 179.743C271.985 179.978 271.98 180.223 272.031 180.46C269.273 180.62 266.663 181.761 264.674 183.678C262.685 185.595 261.448 188.161 261.186 190.911C261.016 194.339 262.2 197.697 264.483 200.261C266.765 202.825 269.964 204.389 273.389 204.617ZM274.067 183.174C274.253 183.152 274.434 183.093 274.597 183C274.76 182.907 274.902 182.782 275.015 182.631C280.039 183.99 286.537 185.477 284.924 192.269C284.306 194.565 282.998 196.617 281.176 198.146C279.354 199.674 277.107 200.606 274.738 200.816C272.536 200.896 270.373 200.228 268.599 198.922C266.825 197.615 265.545 195.747 264.968 193.621C264.704 192.308 264.745 190.953 265.087 189.659C265.43 188.364 266.065 187.166 266.945 186.157C267.824 185.147 268.923 184.353 270.158 183.836C271.393 183.319 272.73 183.092 274.067 183.174Z" fill="#212941"/>
<path d="M43.7646 135.135C84.0017 145.465 126.142 146.805 165.77 159.02C165.981 159.119 166.214 159.165 166.447 159.156C166.685 159.38 166.974 159.543 167.288 159.632C167.603 159.721 167.934 159.732 168.254 159.665C168.574 159.599 168.873 159.456 169.126 159.248C169.379 159.041 169.577 158.776 169.706 158.475C182.48 124.171 193.219 89.1429 201.867 53.5736C202.055 53.3116 202.169 53.0041 202.197 52.6831C202.226 52.3621 202.168 52.0393 202.03 51.7483C201.892 51.4572 201.678 51.2085 201.411 51.0279C201.144 50.8474 200.834 50.7416 200.512 50.7215C183.945 50.3827 167.279 44.8141 151.112 41.2228C144.921 39.9841 138.805 38.3985 132.792 36.4734C125.375 34.3535 117.795 32.8555 110.129 31.9951C108.5 31.7179 107.822 34.1511 109.449 34.4375C124.541 37.1233 138.348 43.0307 153.554 45.7011C168.477 48.3222 183.547 51.9443 198.612 53.9801C184.108 113.393 167.026 155.897 166.718 155.897C126.82 143.685 84.6115 144.033 44.5808 132.828C44.4247 132.751 44.2541 132.708 44.0803 132.702C43.9064 132.696 43.7332 132.727 43.5721 132.792C43.411 132.858 43.2656 132.957 43.1455 133.083C43.0254 133.209 42.9333 133.359 42.8752 133.523C42.8172 133.687 42.7946 133.861 42.8088 134.034C42.8231 134.208 42.8739 134.376 42.9579 134.528C43.0419 134.681 43.1572 134.814 43.2963 134.918C43.4353 135.023 43.5949 135.097 43.7646 135.135Z" fill="#212941"/>
<path d="M149.072 556.919C148.498 556.95 147.958 557.199 147.563 557.615C147.168 558.032 146.947 558.584 146.947 559.159C146.947 559.733 147.168 560.285 147.563 560.702C147.958 561.119 148.498 561.368 149.072 561.398C149.646 561.368 150.186 561.119 150.581 560.702C150.976 560.285 151.197 559.733 151.197 559.159C151.197 558.584 150.976 558.032 150.581 557.615C150.186 557.199 149.646 556.95 149.072 556.919Z" fill="#212941"/>
<path d="M171.864 569.271C171.198 569.271 170.559 569.535 170.089 570.006C169.618 570.476 169.354 571.115 169.354 571.781C169.354 572.446 169.618 573.085 170.089 573.556C170.559 574.026 171.198 574.291 171.864 574.291C172.529 574.291 173.168 574.026 173.639 573.556C174.109 573.085 174.374 572.446 174.374 571.781C174.374 571.115 174.109 570.476 173.639 570.006C173.168 569.535 172.529 569.271 171.864 569.271Z" fill="#212941"/>
<path d="M204.58 564.792C203.915 564.792 203.276 565.056 202.806 565.527C202.335 565.998 202.07 566.636 202.07 567.302C202.07 567.968 202.335 568.606 202.806 569.077C203.276 569.548 203.915 569.812 204.58 569.812C205.246 569.812 205.885 569.548 206.355 569.077C206.826 568.606 207.091 567.968 207.091 567.302C207.091 566.636 206.826 565.998 206.355 565.527C205.885 565.056 205.246 564.792 204.58 564.792Z" fill="#212941"/>
<path d="M227.11 542.942C226.424 542.258 225.498 541.868 224.529 541.855C224.037 541.889 223.573 542.1 223.224 542.449C222.875 542.799 222.665 543.263 222.632 543.755C222.62 544.237 222.711 544.716 222.898 545.16C223.085 545.605 223.363 546.005 223.716 546.333C225.718 548.671 229.411 544.852 227.11 542.942Z" fill="#212941"/>
<path d="M217.203 523.129C217.776 523.099 218.317 522.85 218.712 522.433C219.107 522.016 219.328 521.464 219.328 520.89C219.328 520.315 219.107 519.763 218.712 519.346C218.317 518.93 217.776 518.68 217.203 518.65C216.629 518.68 216.089 518.93 215.694 519.346C215.299 519.763 215.078 520.315 215.078 520.89C215.078 521.464 215.299 522.016 215.694 522.433C216.089 522.85 216.629 523.099 217.203 523.129Z" fill="#212941"/>
<path d="M279.766 59.6812C278.885 56.6012 277.065 56.207 275.83 57.2357C275.171 57.9179 274.703 58.7612 274.472 59.6812C273.114 63.8854 281.257 64.024 279.766 59.6812Z" fill="#212941"/>
<path d="M296.32 37.422C296.982 37.3897 297.606 37.1039 298.063 36.624C298.52 36.1441 298.775 35.5068 298.775 34.8441C298.775 34.1814 298.52 33.544 298.063 33.0641C297.606 32.5842 296.982 32.2985 296.32 32.2661C295.658 32.2985 295.034 32.5842 294.577 33.0641C294.12 33.544 293.865 34.1814 293.865 34.8441C293.865 35.5068 294.12 36.1441 294.577 36.624C295.034 37.1039 295.658 37.3897 296.32 37.422Z" fill="#212941"/>
<path d="M325.361 34.0311C326.066 34.0074 326.733 33.711 327.223 33.2044C327.713 32.6978 327.987 32.0207 327.987 31.3161C327.987 30.6115 327.713 29.9344 327.223 29.4278C326.733 28.9212 326.066 28.6248 325.361 28.6011C324.657 28.6248 323.99 28.9212 323.5 29.4278C323.01 29.9344 322.736 30.6115 322.736 31.3161C322.736 32.0207 323.01 32.6978 323.5 33.2044C323.99 33.711 324.657 34.0074 325.361 34.0311Z" fill="#212941"/>
<path d="M353.455 48.4147C354.117 48.3823 354.741 48.0966 355.198 47.6167C355.655 47.1368 355.91 46.4995 355.91 45.8368C355.91 45.174 355.655 44.5367 355.198 44.0568C354.741 43.5769 354.117 43.2912 353.455 43.2588C352.793 43.2912 352.169 43.5769 351.712 44.0568C351.255 44.5367 351 45.174 351 45.8368C351 46.4995 351.255 47.1368 351.712 47.6167C352.169 48.0966 352.793 48.3823 353.455 48.4147Z" fill="#212941"/>
<path d="M354.677 73.6583C360.221 75.0073 359.938 67.3412 354.677 68.7734C354.171 68.9504 353.732 69.2806 353.421 69.7182C353.11 70.1558 352.943 70.6792 352.943 71.2158C352.943 71.7525 353.11 72.2759 353.421 72.7135C353.732 73.1511 354.171 73.4813 354.677 73.6583Z" fill="#212941"/>
<path d="M335.412 87.6349C335.445 88.3145 335.738 88.9555 336.231 89.4248C336.723 89.8942 337.377 90.156 338.058 90.156C338.738 90.156 339.393 89.8942 339.885 89.4248C340.378 88.9555 340.671 88.3145 340.704 87.6349C340.798 86.8738 340.604 86.105 340.161 85.4789C339.108 83.3568 335.412 83.8096 335.412 87.6349Z" fill="#212941"/>
<path d="M308.402 95.643C308.411 95.7169 308.404 95.7919 308.38 95.8623C308.356 95.9327 308.316 95.9968 308.263 96.0496C308.176 96.4275 308.175 96.8203 308.261 97.1986C308.346 97.5769 308.516 97.9311 308.757 98.2347C308.999 98.5383 309.306 98.7835 309.655 98.952C310.004 99.1206 310.387 99.2081 310.775 99.2081C311.163 99.2081 311.546 99.1206 311.895 98.952C312.245 98.7835 312.552 98.5383 312.793 98.2347C313.034 97.9311 313.204 97.5769 313.29 97.1986C313.375 96.8203 313.374 96.4275 313.287 96.0496C313.296 95.976 313.288 95.9013 313.265 95.831C313.242 95.7607 313.203 95.6965 313.151 95.643C313.008 95.1236 312.698 94.6657 312.269 94.3394C311.84 94.0131 311.316 93.8364 310.777 93.8364C310.238 93.8364 309.714 94.0131 309.285 94.3394C308.856 94.6657 308.546 95.1236 308.402 95.643Z" fill="#212941"/>
<path d="M281.122 84.6508C282.6 85.8828 284.67 85.2114 285.194 82.886C286.176 78.5185 278.95 78.5432 280.038 82.886C280.219 83.5673 280.596 84.1807 281.122 84.6508Z" fill="#212941"/>
<path d="M85.0084 166.754C84.3818 166.786 83.7913 167.057 83.359 167.511C82.9266 167.966 82.6855 168.569 82.6855 169.197C82.6855 169.824 82.9266 170.427 83.359 170.882C83.7913 171.336 84.3818 171.607 85.0084 171.639C85.3394 171.656 85.6704 171.605 85.9812 171.49C86.292 171.374 86.5762 171.197 86.8164 170.969C87.0566 170.74 87.2478 170.465 87.3785 170.161C87.5092 169.856 87.5766 169.528 87.5766 169.197C87.5766 168.865 87.5092 168.537 87.3785 168.232C87.2478 167.928 87.0566 167.653 86.8164 167.424C86.5762 167.196 86.292 167.019 85.9812 166.904C85.6704 166.788 85.3394 166.737 85.0084 166.754Z" fill="#212941"/>
<path d="M113.927 163.089C113.276 163.112 112.66 163.386 112.207 163.855C111.755 164.323 111.502 164.949 111.502 165.601C111.502 166.252 111.755 166.878 112.207 167.346C112.66 167.815 113.276 168.09 113.927 168.112C114.578 168.09 115.195 167.815 115.647 167.346C116.1 166.878 116.353 166.252 116.353 165.601C116.353 164.949 116.1 164.323 115.647 163.855C115.195 163.386 114.578 163.112 113.927 163.089Z" fill="#212941"/>
<path d="M137 180.18C136.437 179.878 135.786 179.786 135.162 179.918C134.538 180.051 133.981 180.401 133.59 180.905C133.2 181.41 133 182.036 133.028 182.674C133.055 183.311 133.308 183.919 133.741 184.387C136.424 187.012 140.23 182 137 180.18Z" fill="#212941"/>
<path d="M136.726 216.697C136.864 216.968 137.003 217.236 137.136 217.51C138.984 221.409 144.586 215.908 140.662 213.983C140.391 213.848 140.123 213.703 139.849 213.574C139.413 213.321 138.906 213.22 138.407 213.285C137.907 213.35 137.443 213.579 137.087 213.935C136.731 214.291 136.503 214.755 136.437 215.254C136.372 215.754 136.473 216.261 136.726 216.697Z" fill="#212941"/>
<path d="M118.541 237.73V237.188C118.55 236.574 118.355 235.974 117.987 235.483C117.618 234.992 117.097 234.637 116.505 234.474C116.089 234.363 115.654 234.348 115.231 234.432C114.809 234.516 114.412 234.697 114.071 234.959C113.73 235.222 113.454 235.559 113.264 235.946C113.075 236.332 112.977 236.757 112.979 237.188V237.73C112.979 238.468 113.272 239.175 113.793 239.697C114.315 240.218 115.022 240.511 115.76 240.511C116.497 240.511 117.205 240.218 117.726 239.697C118.248 239.175 118.541 238.468 118.541 237.73Z" fill="#212941"/>
<path d="M86.7855 233.661C86.6499 233.796 86.5144 233.932 86.3789 233.932C86.036 234.149 85.7537 234.45 85.558 234.805C85.3624 235.161 85.2598 235.56 85.2598 235.966C85.2598 236.372 85.3624 236.772 85.558 237.127C85.7537 237.483 86.036 237.783 86.3789 238.001C86.7519 238.329 87.2086 238.548 87.6983 238.634C88.1881 238.719 88.6919 238.667 89.1541 238.484C89.6162 238.301 90.0187 237.993 90.3169 237.595C90.6151 237.198 90.7975 236.725 90.8439 236.23C90.8903 235.735 90.7988 235.237 90.5797 234.791C90.3605 234.344 90.0222 233.968 89.6021 233.702C89.1821 233.436 88.6966 233.291 88.1995 233.284C87.7024 233.277 87.213 233.407 86.7855 233.661Z" fill="#212941"/>
<path d="M62.2161 224.566C62.7657 224.575 63.3026 224.4 63.7412 224.068C64.1798 223.737 64.495 223.268 64.6366 222.737C64.7782 222.206 64.7382 221.643 64.5228 221.137C64.3075 220.631 63.9292 220.212 63.4481 219.946C63.3126 219.946 63.3126 219.811 63.177 219.811C62.875 219.611 62.521 219.505 62.1591 219.505C61.7972 219.505 61.4432 219.611 61.1412 219.811C61.0056 219.811 61.0057 219.946 60.8701 219.946C60.4112 220.236 60.0591 220.668 59.867 221.176C59.6749 221.684 59.6531 222.241 59.805 222.762C59.9569 223.284 60.2743 223.742 60.7092 224.067C61.1441 224.392 61.673 224.568 62.2161 224.566Z" fill="#212941"/>
<path d="M59.7807 192.808C59.1681 192.808 58.5805 193.051 58.1473 193.485C57.7141 193.918 57.4707 194.505 57.4707 195.118C57.4707 195.731 57.7141 196.318 58.1473 196.752C58.5805 197.185 59.1681 197.428 59.7807 197.428C60.3934 197.428 60.9809 197.185 61.4141 196.752C61.8473 196.318 62.0907 195.731 62.0907 195.118C62.0907 194.505 61.8473 193.918 61.4141 193.485C60.9809 193.051 60.3934 192.808 59.7807 192.808Z" fill="#212941"/>
<path d="M479.799 225.111C479.779 225.302 479.827 225.494 479.934 225.653C480.071 226.124 480.356 226.537 480.748 226.831C481.139 227.126 481.616 227.285 482.106 227.285C482.596 227.285 483.072 227.126 483.464 226.831C483.856 226.537 484.141 226.124 484.277 225.653C484.257 225.462 484.305 225.27 484.413 225.111C484.958 221.452 479.121 221.31 479.799 225.111Z" fill="#212941"/>
<path d="M495.817 235.152C496.373 235.122 496.896 234.881 497.279 234.477C497.662 234.073 497.875 233.537 497.875 232.98C497.875 232.424 497.662 231.888 497.279 231.484C496.896 231.08 496.373 230.839 495.817 230.809C495.261 230.839 494.737 231.08 494.354 231.484C493.971 231.888 493.758 232.424 493.758 232.98C493.758 233.537 493.971 234.073 494.354 234.477C494.737 234.881 495.261 235.122 495.817 235.152Z" fill="#212941"/>
<path d="M515.084 235.558C515.768 235.558 516.423 235.287 516.907 234.803C517.39 234.32 517.662 233.664 517.662 232.98C517.662 232.297 517.39 231.641 516.907 231.157C516.423 230.674 515.768 230.402 515.084 230.402C514.4 230.402 513.744 230.674 513.261 231.157C512.777 231.641 512.506 232.297 512.506 232.98C512.506 233.664 512.777 234.32 513.261 234.803C513.744 235.287 514.4 235.558 515.084 235.558Z" fill="#212941"/>
<path d="M551.729 205.975C552.078 206.302 552.539 206.483 553.018 206.483C553.496 206.483 553.957 206.302 554.306 205.975C554.442 205.839 554.578 205.839 554.578 205.704C556.207 204.472 554.713 201.768 552.948 201.768C551.183 201.768 549.693 204.346 551.322 205.704C551.457 205.839 551.593 205.839 551.729 205.975Z" fill="#212941"/>
<path d="M428.367 447.539C428.505 447.407 428.638 447.401 428.638 447.265C428.83 447.081 428.984 446.86 429.089 446.616C429.194 446.371 429.248 446.107 429.248 445.841C429.248 445.574 429.194 445.311 429.089 445.066C428.984 444.821 428.83 444.6 428.638 444.416C428.351 444.019 427.95 443.719 427.488 443.557C427.026 443.395 426.526 443.378 426.054 443.508C425.582 443.638 425.161 443.91 424.848 444.286C424.535 444.662 424.344 445.126 424.302 445.613C424.26 446.101 424.368 446.59 424.611 447.015C424.855 447.439 425.222 447.779 425.665 447.989C426.107 448.199 426.603 448.268 427.086 448.187C427.569 448.107 428.016 447.881 428.367 447.539Z" fill="#212941"/>
<path d="M398.373 465.453C399.077 465.429 399.745 465.132 400.235 464.626C400.724 464.119 400.998 463.442 400.998 462.737C400.998 462.033 400.724 461.356 400.235 460.849C399.745 460.343 399.077 460.046 398.373 460.022C397.669 460.046 397.001 460.343 396.512 460.849C396.022 461.356 395.748 462.033 395.748 462.737C395.748 463.442 396.022 464.119 396.512 464.626C397.001 465.132 397.669 465.429 398.373 465.453Z" fill="#212941"/>
<path d="M396.066 491.371C395.409 491.41 394.791 491.699 394.34 492.179C393.888 492.658 393.637 493.292 393.637 493.951C393.637 494.609 393.888 495.243 394.34 495.722C394.791 496.202 395.409 496.491 396.066 496.53C396.724 496.491 397.341 496.202 397.793 495.722C398.245 495.243 398.496 494.609 398.496 493.951C398.496 493.292 398.245 492.658 397.793 492.179C397.341 491.699 396.724 491.41 396.066 491.371Z" fill="#212941"/>
<path d="M412.896 516.614C412.234 516.647 411.61 516.932 411.153 517.412C410.696 517.892 410.441 518.53 410.441 519.192C410.441 519.855 410.696 520.492 411.153 520.972C411.61 521.452 412.234 521.738 412.896 521.77C413.558 521.738 414.182 521.452 414.639 520.972C415.096 520.492 415.351 519.855 415.351 519.192C415.351 518.53 415.096 517.892 414.639 517.412C414.182 516.932 413.558 516.647 412.896 516.614Z" fill="#212941"/>
<path d="M465.416 509.829C465.14 510.046 464.91 510.317 464.741 510.625C464.572 510.933 464.467 511.272 464.432 511.622C464.398 511.972 464.435 512.325 464.541 512.66C464.647 512.995 464.82 513.305 465.049 513.571C465.278 513.838 465.559 514.055 465.875 514.21C466.191 514.364 466.534 514.454 466.885 514.472C467.236 514.49 467.587 514.437 467.917 514.315C468.247 514.194 468.549 514.007 468.804 513.766C468.94 513.63 469.075 513.63 469.075 513.491C471.795 511.459 467.588 507.251 465.416 509.829Z" fill="#212941"/>
<path d="M481.43 478.888C480.804 478.919 480.213 479.19 479.781 479.645C479.349 480.099 479.107 480.703 479.107 481.33C479.107 481.957 479.349 482.561 479.781 483.015C480.213 483.47 480.804 483.741 481.43 483.773C482.057 483.741 482.647 483.47 483.08 483.015C483.512 482.561 483.753 481.957 483.753 481.33C483.753 480.703 483.512 480.099 483.08 479.645C482.647 479.19 482.057 478.919 481.43 478.888Z" fill="#212941"/>
<path d="M465.145 452.56C464.372 452.56 463.63 452.867 463.083 453.414C462.536 453.961 462.229 454.703 462.229 455.476C462.229 456.25 462.536 456.992 463.083 457.539C463.63 458.086 464.372 458.393 465.145 458.393C465.919 458.393 466.661 458.086 467.208 457.539C467.755 456.992 468.062 456.25 468.062 455.476C468.062 454.703 467.755 453.961 467.208 453.414C466.661 452.867 465.919 452.56 465.145 452.56Z" fill="#212941"/>
<path d="M342.327 141.514C341.055 138.335 332.708 123.597 331.199 111.521C331.055 110.904 331.108 110.258 331.351 109.673C331.595 109.088 332.015 108.595 332.554 108.262C358.886 96.207 385.441 84.5368 412.219 73.2517C402.279 60.7716 388.549 56.2871 372.317 62.5302C368.966 81.5184 348.195 103.426 321.562 107.72C294.449 112.091 265.651 96.5827 265.651 69.3155C255.895 70.7124 246.444 73.7402 237.693 78.2721C255.573 88.6055 324.053 129.625 342.327 141.514Z" fill="#3A5AB7"/>
</svg>
