<svg width="48" height="48" viewBox="0 0 48 48" fill="none" xmlns="http://www.w3.org/2000/svg">
<path d="M38 6H10C8.4087 6 6.88258 6.63214 5.75736 7.75736C4.63214 8.88258 4 10.4087 4 12V28C4 29.5913 4.63214 31.1174 5.75736 32.2426C6.88258 33.3679 8.4087 34 10 34H22V38H14C13.4696 38 12.9609 38.2107 12.5858 38.5858C12.2107 38.9609 12 39.4696 12 40C12 40.5304 12.2107 41.0391 12.5858 41.4142C12.9609 41.7893 13.4696 42 14 42H34C34.5304 42 35.0391 41.7893 35.4142 41.4142C35.7893 41.0391 36 40.5304 36 40C36 39.4696 35.7893 38.9609 35.4142 38.5858C35.0391 38.2107 34.5304 38 34 38H26V34H38C39.5913 34 41.1174 33.3679 42.2426 32.2426C43.3679 31.1174 44 29.5913 44 28V12C44 10.4087 43.3679 8.88258 42.2426 7.75736C41.1174 6.63214 39.5913 6 38 6ZM40 28C40 28.5304 39.7893 29.0391 39.4142 29.4142C39.0391 29.7893 38.5304 30 38 30H10C9.46957 30 8.96086 29.7893 8.58579 29.4142C8.21071 29.0391 8 28.5304 8 28V12C8 11.4696 8.21071 10.9609 8.58579 10.5858C8.96086 10.2107 9.46957 10 10 10H38C38.5304 10 39.0391 10.2107 39.4142 10.5858C39.7893 10.9609 40 11.4696 40 12V28Z" fill="#122E82"/>
</svg>
