<svg width="48" height="48" viewBox="0 0 48 48" fill="none" xmlns="http://www.w3.org/2000/svg">
<path d="M42.9817 20.3802L40.9817 19.2802L22.9817 9.28016H22.7617C22.6391 9.22831 22.5119 9.18814 22.3817 9.16016H22.0017H21.6417C21.5051 9.18815 21.3712 9.22831 21.2417 9.28016H21.0217L3.02171 19.2802C2.71391 19.4546 2.4579 19.7076 2.27978 20.0132C2.10166 20.3189 2.00781 20.6664 2.00781 21.0202C2.00781 21.3739 2.10166 21.7214 2.27978 22.0271C2.4579 22.3328 2.71391 22.5857 3.02171 22.7602L8.00171 25.5202V35.0002C8.00171 36.5915 8.63385 38.1176 9.75907 39.2428C10.8843 40.368 12.4104 41.0002 14.0017 41.0002H30.0017C31.593 41.0002 33.1191 40.368 34.2444 39.2428C35.3696 38.1176 36.0017 36.5915 36.0017 35.0002V25.5202L40.0017 23.2802V29.0002C40.0017 29.5306 40.2124 30.0393 40.5875 30.4144C40.9626 30.7894 41.4713 31.0002 42.0017 31.0002C42.5321 31.0002 43.0409 30.7894 43.4159 30.4144C43.791 30.0393 44.0017 29.5306 44.0017 29.0002V22.1202C44.0011 21.7658 43.9063 21.4179 43.7271 21.1122C43.5479 20.8064 43.2906 20.5538 42.9817 20.3802ZM32.0017 35.0002C32.0017 35.5306 31.791 36.0393 31.4159 36.4144C31.0408 36.7894 30.5321 37.0002 30.0017 37.0002H14.0017C13.4713 37.0002 12.9626 36.7894 12.5875 36.4144C12.2124 36.0393 12.0017 35.5306 12.0017 35.0002V27.7402L21.0217 32.7402L21.3217 32.8602H21.5017C21.6677 32.8811 21.8357 32.8811 22.0017 32.8602C22.1677 32.8811 22.3357 32.8811 22.5017 32.8602H22.6817C22.7879 32.8378 22.8894 32.7972 22.9817 32.7402L32.0017 27.7402V35.0002ZM22.0017 28.7202L8.12171 21.0002L22.0017 13.2802L35.8817 21.0002L22.0017 28.7202Z" fill="#122E82"/>
</svg>
