<svg width="48" height="48" viewBox="0 0 48 48" fill="none" xmlns="http://www.w3.org/2000/svg">
<path d="M16.0017 22C15.6061 22 15.2194 22.1173 14.8905 22.3371C14.5616 22.5568 14.3053 22.8692 14.1539 23.2346C14.0026 23.6001 13.9629 24.0022 14.0401 24.3902C14.1173 24.7781 14.3078 25.1345 14.5875 25.4142C14.8672 25.6939 15.2235 25.8844 15.6115 25.9616C15.9995 26.0387 16.4016 25.9991 16.7671 25.8478C17.1325 25.6964 17.4449 25.44 17.6646 25.1111C17.8844 24.7822 18.0017 24.3956 18.0017 24C18.0017 23.4696 17.791 22.9609 17.4159 22.5858C17.0408 22.2107 16.5321 22 16.0017 22ZM24.0017 22C23.6061 22 23.2194 22.1173 22.8905 22.3371C22.5616 22.5568 22.3053 22.8692 22.1539 23.2346C22.0026 23.6001 21.9629 24.0022 22.0401 24.3902C22.1173 24.7781 22.3078 25.1345 22.5875 25.4142C22.8672 25.6939 23.2235 25.8844 23.6115 25.9616C23.9995 26.0387 24.4016 25.9991 24.7671 25.8478C25.1325 25.6964 25.4449 25.44 25.6646 25.1111C25.8844 24.7822 26.0017 24.3956 26.0017 24C26.0017 23.4696 25.791 22.9609 25.4159 22.5858C25.0408 22.2107 24.5321 22 24.0017 22ZM32.0017 22C31.6061 22 31.2194 22.1173 30.8905 22.3371C30.5616 22.5568 30.3053 22.8692 30.1539 23.2346C30.0026 23.6001 29.9629 24.0022 30.0401 24.3902C30.1173 24.7781 30.3078 25.1345 30.5875 25.4142C30.8672 25.6939 31.2235 25.8844 31.6115 25.9616C31.9995 26.0387 32.4016 25.9991 32.7671 25.8478C33.1325 25.6964 33.4449 25.44 33.6646 25.1111C33.8844 24.7822 34.0017 24.3956 34.0017 24C34.0017 23.4696 33.791 22.9609 33.4159 22.5858C33.0408 22.2107 32.5321 22 32.0017 22ZM24.0017 4C21.3752 4 18.7745 4.51732 16.348 5.52241C13.9215 6.5275 11.7167 8.00069 9.85955 9.85786C6.10882 13.6086 4.00169 18.6957 4.00169 24C3.9842 28.6183 5.58327 33.0971 8.52169 36.66L4.52169 40.66C4.24417 40.9412 4.05618 41.2984 3.98143 41.6864C3.90668 42.0743 3.94853 42.4758 4.10169 42.84C4.2678 43.1999 4.53709 43.5022 4.87538 43.7088C5.21366 43.9153 5.60569 44.0167 6.00169 44H24.0017C29.306 44 34.3931 41.8929 38.1438 38.1421C41.8946 34.3914 44.0017 29.3043 44.0017 24C44.0017 18.6957 41.8946 13.6086 38.1438 9.85786C34.3931 6.10714 29.306 4 24.0017 4ZM24.0017 40H10.8217L12.6817 38.14C12.8707 37.9548 13.021 37.7339 13.124 37.4901C13.227 37.2464 13.2806 36.9846 13.2817 36.72C13.2742 36.1925 13.0585 35.6893 12.6817 35.32C10.0629 32.7041 8.43203 29.2611 8.06707 25.5776C7.7021 21.8941 8.62557 18.198 10.6801 15.119C12.7347 12.0401 15.7933 9.76872 19.3347 8.69195C22.8762 7.61517 26.6814 7.79961 30.1021 9.21383C33.5228 10.628 36.3474 13.1845 38.0946 16.4478C39.8417 19.711 40.4034 23.4791 39.6839 27.11C38.9645 30.7409 37.0083 34.0101 34.1488 36.3605C31.2892 38.7109 27.7032 39.9971 24.0017 40Z" fill="#122E82"/>
</svg>
