<svg width="48" height="48" viewBox="0 0 48 48" fill="none" xmlns="http://www.w3.org/2000/svg">
<path d="M5.00079 17.72L23.0008 28.12C23.3048 28.2955 23.6497 28.388 24.0008 28.388C24.3519 28.388 24.6968 28.2955 25.0008 28.12L43.0008 17.72C43.3031 17.5455 43.5544 17.2949 43.7298 16.9932C43.9053 16.6914 43.9987 16.349 44.0008 16C44.0022 15.6476 43.9104 15.3011 43.7348 14.9955C43.5592 14.6899 43.306 14.4362 43.0008 14.26L25.0008 3.88001C24.6968 3.70447 24.3519 3.61206 24.0008 3.61206C23.6497 3.61206 23.3048 3.70447 23.0008 3.88001L5.00079 14.26C4.69558 14.4362 4.44236 14.6899 4.26675 14.9955C4.09114 15.3011 3.99939 15.6476 4.00079 16C4.0029 16.349 4.09631 16.6914 4.27174 16.9932C4.44717 17.2949 4.69852 17.5455 5.00079 17.72V17.72ZM24.0008 8.00001L38.0008 16L24.0008 24L10.0008 16L24.0008 8.00001ZM41.0008 22.34L24.0008 32L7.00079 22.26C6.77253 22.1278 6.52035 22.042 6.25879 22.0076C5.99724 21.9733 5.73147 21.991 5.47679 22.0598C5.22211 22.1285 4.98355 22.247 4.77486 22.4084C4.56616 22.5698 4.39145 22.7708 4.26079 23C4.00005 23.4592 3.93152 24.003 4.07015 24.5125C4.20878 25.0221 4.54333 25.4562 5.00079 25.72L23.0008 36.12C23.3048 36.2955 23.6497 36.388 24.0008 36.388C24.3519 36.388 24.6968 36.2955 25.0008 36.12L43.0008 25.72C43.4583 25.4562 43.7928 25.0221 43.9314 24.5125C44.0701 24.003 44.0015 23.4592 43.7408 23C43.6101 22.7708 43.4354 22.5698 43.2267 22.4084C43.018 22.247 42.7795 22.1285 42.5248 22.0598C42.2701 21.991 42.0043 21.9733 41.7428 22.0076C41.4812 22.042 41.2291 22.1278 41.0008 22.26V22.34ZM41.0008 30.34L24.0008 40L7.00079 30.26C6.77253 30.1278 6.52035 30.042 6.25879 30.0076C5.99724 29.9733 5.73147 29.991 5.47679 30.0598C5.22211 30.1285 4.98355 30.247 4.77486 30.4084C4.56616 30.5698 4.39145 30.7708 4.26079 31C4.00005 31.4592 3.93152 32.003 4.07015 32.5125C4.20878 33.0221 4.54333 33.4562 5.00079 33.72L23.0008 44.12C23.3048 44.2955 23.6497 44.388 24.0008 44.388C24.3519 44.388 24.6968 44.2955 25.0008 44.12L43.0008 33.72C43.4583 33.4562 43.7928 33.0221 43.9314 32.5125C44.0701 32.003 44.0015 31.4592 43.7408 31C43.6101 30.7708 43.4354 30.5698 43.2267 30.4084C43.018 30.247 42.7795 30.1285 42.5248 30.0598C42.2701 29.991 42.0043 29.9733 41.7428 30.0076C41.4812 30.042 41.2291 30.1278 41.0008 30.26V30.34Z" fill="#122E82"/>
</svg>
