<svg width="48" height="48" viewBox="0 0 48 48" fill="none" xmlns="http://www.w3.org/2000/svg">
<path d="M22 18H30C30.5304 18 31.0392 17.7893 31.4142 17.4142C31.7893 17.0391 32 16.5304 32 16C32 15.4696 31.7893 14.9609 31.4142 14.5858C31.0392 14.2107 30.5304 14 30 14H26V12C26 11.4696 25.7893 10.9609 25.4142 10.5858C25.0392 10.2107 24.5304 10 24 10C23.4696 10 22.9609 10.2107 22.5858 10.5858C22.2107 10.9609 22 11.4696 22 12V14C20.4087 14 18.8826 14.6321 17.7574 15.7574C16.6321 16.8826 16 18.4087 16 20C16 21.5913 16.6321 23.1174 17.7574 24.2426C18.8826 25.3679 20.4087 26 22 26H26C26.5304 26 27.0392 26.2107 27.4142 26.5858C27.7893 26.9609 28 27.4696 28 28C28 28.5304 27.7893 29.0391 27.4142 29.4142C27.0392 29.7893 26.5304 30 26 30H18C17.4696 30 16.9609 30.2107 16.5858 30.5858C16.2107 30.9609 16 31.4696 16 32C16 32.5304 16.2107 33.0391 16.5858 33.4142C16.9609 33.7893 17.4696 34 18 34H22V36C22 36.5304 22.2107 37.0391 22.5858 37.4142C22.9609 37.7893 23.4696 38 24 38C24.5304 38 25.0392 37.7893 25.4142 37.4142C25.7893 37.0391 26 36.5304 26 36V34C27.5913 34 29.1174 33.3679 30.2427 32.2426C31.3679 31.1174 32 29.5913 32 28C32 26.4087 31.3679 24.8826 30.2427 23.7574C29.1174 22.6321 27.5913 22 26 22H22C21.4696 22 20.9609 21.7893 20.5858 21.4142C20.2107 21.0391 20 20.5304 20 20C20 19.4696 20.2107 18.9609 20.5858 18.5858C20.9609 18.2107 21.4696 18 22 18ZM24 2C19.6488 2 15.3953 3.29028 11.7775 5.70767C8.15958 8.12506 5.33979 11.561 3.67466 15.581C2.00953 19.6009 1.57386 24.0244 2.42273 28.292C3.27161 32.5596 5.36691 36.4796 8.44366 39.5564C11.5204 42.6331 15.4404 44.7284 19.708 45.5773C23.9756 46.4261 28.3991 45.9905 32.419 44.3253C36.439 42.6602 39.875 39.8404 42.2923 36.2225C44.7097 32.6047 46 28.3512 46 24C46 18.1652 43.6822 12.5695 39.5564 8.44365C35.4306 4.31785 29.8348 2 24 2ZM24 42C20.4399 42 16.9598 40.9443 13.9997 38.9665C11.0397 36.9886 8.73256 34.1774 7.37018 30.8883C6.0078 27.5992 5.65134 23.98 6.34587 20.4884C7.04041 16.9967 8.75474 13.7894 11.2721 11.2721C13.7894 8.75473 16.9967 7.0404 20.4884 6.34586C23.98 5.65133 27.5992 6.00779 30.8883 7.37017C34.1774 8.73255 36.9886 11.0397 38.9665 13.9997C40.9443 16.9598 42 20.4399 42 24C42 28.7739 40.1036 33.3523 36.7279 36.7279C33.3523 40.1036 28.7739 42 24 42Z" fill="#122E82"/>
</svg>
