<svg width="48" height="48" viewBox="0 0 48 48" fill="none" xmlns="http://www.w3.org/2000/svg">
<path d="M39.9805 4.00391C39.7178 4.00376 39.4576 4.05539 39.2149 4.15584C38.9722 4.2563 38.7517 4.40361 38.5659 4.58936C38.3802 4.77511 38.2329 4.99564 38.1324 5.23836C38.032 5.48108 37.9803 5.74122 37.9805 6.00391V7.27735C36.2937 9.36875 34.1618 11.0577 31.74 12.2213C29.3181 13.385 26.6673 13.9939 23.9805 14.0039H11.9805C10.3897 14.0056 8.86459 14.6383 7.73975 15.7632C6.6149 16.888 5.98221 18.4131 5.98047 20.0039V24.0039C5.98221 25.5947 6.6149 27.1198 7.73975 28.2446C8.86459 29.3695 10.3897 30.0022 11.9805 30.0039H12.948L8.14259 41.2167C8.012 41.5208 7.95898 41.8526 7.98829 42.1823C8.01761 42.512 8.12833 42.8292 8.31053 43.1055C8.49273 43.3818 8.7407 43.6086 9.03217 43.7654C9.32364 43.9222 9.64949 44.0041 9.98047 44.0039H17.9805C18.372 44.0041 18.7549 43.8893 19.0817 43.6737C19.4084 43.458 19.6646 43.1511 19.8184 42.791L25.2659 30.0799C27.7272 30.2606 30.1253 30.944 32.3121 32.0878C34.499 33.2316 36.4281 34.8115 37.9805 36.73V38.0039C37.9805 38.5343 38.1912 39.043 38.5663 39.4181C38.9413 39.7932 39.45 40.0039 39.9805 40.0039C40.5109 40.0039 41.0196 39.7932 41.3947 39.4181C41.7698 39.043 41.9805 38.5343 41.9805 38.0039V6.00391C41.9806 5.74122 41.929 5.48108 41.8285 5.23836C41.7281 4.99564 41.5808 4.7751 41.395 4.58935C41.2093 4.40361 40.9887 4.25629 40.746 4.15584C40.5033 4.05538 40.2432 4.00375 39.9805 4.00391ZM11.9805 26.0039C11.4501 26.0036 10.9416 25.7927 10.5666 25.4177C10.1917 25.0427 9.98082 24.5342 9.98047 24.0039V20.0039C9.98083 19.4736 10.1917 18.9651 10.5667 18.5901C10.9416 18.2151 11.4501 18.0043 11.9805 18.0039H13.9805V26.0039H11.9805ZM16.6621 40.0039H13.0137L17.2988 30.0039H20.9473L16.6621 40.0039ZM37.9805 31.0475C34.037 27.7987 29.0898 26.0165 23.9805 26.0038H17.9805V18.0038H23.9805C29.0899 17.9907 34.0371 16.2081 37.9805 12.9591V31.0475Z" fill="#122E82"/>
</svg>
