<svg preserveAspectRatio="xMidYMid meet" width="460px" height="100%" viewBox="0 0 460 460" fill="none" xmlns="http://www.w3.org/2000/svg">
<path d="M145.327 299.787C137.663 299.787 133.418 296.544 134.722 289.085C137.093 275.515 148.542 262.37 157.671 251.825C167.751 240.397 178.73 229.795 190.504 220.122C190.649 220.002 190.836 219.944 191.024 219.962C191.212 219.98 191.385 220.072 191.505 220.217C191.625 220.363 191.683 220.55 191.665 220.738C191.647 220.926 191.555 221.099 191.41 221.219C179.643 230.782 168.716 241.336 158.75 252.763C149.853 263.04 138.434 276.104 136.12 289.333C132.44 310.332 181.069 289.501 200.06 279.715C241.219 258.504 298.96 217.435 313.379 173.648C316.53 164.075 313.915 155.708 303.615 155.97C293.666 156.214 271.201 165.193 264.083 170.92C264.01 170.979 263.927 171.023 263.837 171.049C263.748 171.076 263.654 171.084 263.561 171.074C263.468 171.065 263.378 171.037 263.296 170.992C263.214 170.947 263.141 170.887 263.082 170.814C263.024 170.742 262.98 170.658 262.953 170.569C262.927 170.479 262.918 170.385 262.928 170.292C262.938 170.199 262.966 170.109 263.011 170.027C263.055 169.945 263.116 169.873 263.188 169.814C270.472 163.99 293.415 154.79 303.581 154.551C314.821 154.286 318.22 163.47 314.722 174.101C293.939 237.185 180.591 299.787 145.327 299.787Z" fill="#FF9500" class="svg-animation__board" />
<path d="M226.335 194.778C226.183 194.779 226.035 194.731 225.912 194.641C225.789 194.551 225.699 194.424 225.653 194.279C225.608 194.134 225.611 193.978 225.66 193.834C225.71 193.691 225.805 193.567 225.93 193.481C229.364 191.181 232.794 188.945 236.156 186.887C236.317 186.792 236.509 186.765 236.689 186.811C236.87 186.856 237.026 186.971 237.123 187.131C237.22 187.29 237.25 187.481 237.207 187.663C237.165 187.844 237.052 188.002 236.895 188.101C230.367 192.023 226.83 194.778 226.335 194.778Z" fill="#FF9500"/>
<path d="M269.979 192.862C267.481 187.859 260.165 191.884 256.039 195.493C255.898 195.616 255.812 195.789 255.798 195.976C255.784 196.162 255.844 196.346 255.965 196.488C256.086 196.63 256.258 196.719 256.444 196.736C256.63 196.752 256.815 196.695 256.959 196.576C259.983 193.959 266.766 189.64 268.689 193.504C271.129 198.426 253.939 210.183 242.259 216.598C241.725 214.469 241.458 212.282 241.464 210.087C247.237 205.947 268.652 188.007 256.473 156.113C241.5 116.9 193.012 136.864 188.025 141.853C188.025 141.853 178.036 156.113 180.895 170.373C183.754 184.633 193.729 201.74 193.729 214.585C193.729 227.431 183.747 248.812 182.324 254.511C180.9 260.211 179.458 271.63 185.173 271.63C190.889 271.63 190.875 258.796 193.732 255.939C202.199 245.026 209.602 233.326 215.837 221C220.667 210.749 223.105 199.535 222.967 188.204C222.466 179.55 218.694 165.384 220.823 157.539C220.823 157.539 220.823 164.669 222.252 164.669C222.252 164.669 236.512 176.074 237.942 181.776C239.373 187.478 240.063 208.157 240.084 211.014C240.12 215.729 240.87 218.144 242.227 218.144C242.919 218.134 274.004 200.923 269.979 192.862ZM185.196 269.452C179.446 268.348 184.481 253.798 184.481 253.798C185.125 253.488 185.825 253.312 186.539 253.282C187.254 253.251 187.966 253.368 188.634 253.623C189.302 253.878 189.91 254.267 190.422 254.766C190.934 255.265 191.339 255.863 191.611 256.524C191.613 256.646 188.768 270.126 185.196 269.443V269.452Z" fill="#212941" class="svg-animation__legs"/>
<path d="M251.596 21.7857C247.254 18.3057 241.55 18.131 235.466 21.2383C223.98 9.74975 210.187 16.935 198.993 28.7133C197.323 30.9115 195.14 32.6673 192.635 33.8273C190.13 34.9872 187.379 35.5159 184.622 35.3672C163.269 34.8842 158.207 26.4639 142.434 47.7481C145.654 47.9045 148.448 42.4328 151.926 39.8614C163.426 28.6719 179.799 42.4535 193.144 36.0848C200.21 33.1638 207.919 17.4663 222.869 17.4111C229.654 17.3881 234.505 21.2544 237.755 27.1125C243.778 35.5282 236.625 42.5846 228.138 43.8335C220.567 36.7035 215.948 56.0097 225.765 54.2249C225.305 57.7485 225.979 62.521 230.181 63.8067C229.583 66.0087 229.323 68.2886 229.408 70.5687C230.468 68.1858 231.166 65.6577 231.478 63.0684C227.009 62.1001 226.158 57.4495 227.122 53.5464C227.133 53.3164 227.241 52.9737 227.253 52.7598C227.29 52.677 227.145 52.7598 227.11 52.7598C224.408 53.7465 221.324 53.0933 221.266 49.6525C220.742 46.0093 224.408 41.5818 227.575 45.3078L227.777 45.4849C228.562 45.6643 238.99 42.1406 241.074 37.4027C244.025 40.1236 248.813 44.1417 252.785 43.5046C252.709 45.3446 252.633 46.7913 252.406 49.4271C252.078 53.1132 251.111 56.7142 249.549 60.0692C246.513 65.7226 241.978 65.1867 236.538 64.8785C238.073 65.8267 239.855 66.2989 241.658 66.2355C241.122 67.4384 240.931 69.3428 240.717 69.7706C240.692 70.4376 239.337 73.4966 240.11 74.5201C241.26 73.9842 241.515 70.6285 241.812 70.0443C242.197 68.7724 242.476 67.4707 242.645 66.1527C244.473 65.9171 246.206 65.2013 247.668 64.0781C249.129 62.955 250.267 61.4646 250.966 59.7587C253.167 54.6141 254.037 48.9981 253.496 43.4287C259.002 42.0027 259.619 28.2073 251.596 21.7857ZM255.943 39.0104C253.984 45.8207 246.587 40.9723 241.49 36.1768C242.661 32.0368 239.576 25.7578 236.276 22.1054C241.812 19.3799 246.962 19.5753 250.86 22.6895C253.145 24.6657 254.831 27.2411 255.729 30.125C256.628 33.009 256.702 36.0866 255.943 39.0104Z" fill="#212941"/>
<path d="M212.337 33.6031C208.636 35.3291 205.374 37.8732 202.799 41.0436C200.948 42.994 196.504 47.7573 193.181 48.0126C187.175 48.4726 182.771 46.5659 176.566 45.9242C176.493 45.9182 176.42 45.9066 176.349 45.8897C172.2 45.028 167.887 45.4279 163.966 47.038C160.045 48.6481 156.696 51.3946 154.35 54.9241C154.231 55.1007 154.187 55.3173 154.228 55.5263C154.269 55.7353 154.391 55.9195 154.567 56.0385C154.744 56.1574 154.96 56.2014 155.169 56.1606C155.378 56.1198 155.563 55.9977 155.682 55.8211C163.732 44.949 172.386 46.7223 185.278 48.9947C189.795 49.7905 193.526 50.6944 197.769 47.9022C198.528 47.4008 202.328 43.5506 202.942 42.9273C211.682 34.0585 212.94 36.0825 213.504 34.8359C213.577 34.6701 213.6 34.4863 213.569 34.3077C213.538 34.129 213.455 33.9634 213.33 33.8317C213.206 33.7 213.045 33.6081 212.868 33.5674C212.692 33.5267 212.507 33.5392 212.337 33.6031Z" fill="#212941"/>
<path d="M216.079 46.5819C214.186 44.5349 209.85 55.1885 206.879 57.6495C196.379 66.2906 176.332 53.36 166.148 63.71C166.027 63.8401 165.947 64.0022 165.916 64.177C165.886 64.3518 165.906 64.5317 165.975 64.695C166.045 64.8583 166.16 64.9982 166.307 65.0976C166.454 65.1971 166.626 65.252 166.803 65.2556C167.723 65.2556 169.138 62.4956 173.013 61.5503C186.724 59.2641 197.975 66.5321 207.849 58.9145C209.908 57.3045 213.337 50.531 216.076 47.6905C216.22 47.5417 216.3 47.3433 216.301 47.1367C216.301 46.93 216.221 46.7313 216.079 46.5819Z" fill="#212941"/>
<path d="M309.262 87.6623C301.417 85.521 286.441 74.8329 272.179 70.5572C259.966 66.8933 245.085 70.5572 245.085 70.5572C235.098 79.1155 222.265 69.1289 222.265 69.1289C213.596 66.6271 204.446 66.2928 195.619 68.1552C186.791 70.0177 178.556 74.0199 171.637 79.8101C166.657 83.7937 149.529 94.7854 149.529 94.7854C153.09 108.332 160.22 112.606 160.22 112.606C167.35 111.177 177.325 108.33 183.04 104.045C187.742 100.522 203.004 91.2135 203.004 91.2135C198.731 96.9152 192.256 100.524 185.897 105.473C173.067 115.462 178.767 135.424 178.767 135.424C187.325 129.722 204.433 126.863 214.417 126.863C223.097 126.863 241.513 132.567 241.513 132.567C240.083 131.139 244.37 114.032 250.071 108.33C253.331 104.894 255.132 100.329 255.095 95.5927C254.553 93.1333 253.829 90.7177 252.928 88.3661C254.509 90.3627 255.729 92.6199 256.535 95.0361C263.964 96.2367 276.499 96.5334 284.296 98.332C293.571 100.473 307.831 104.749 307.831 104.749C314.964 93.3663 309.262 87.6623 309.262 87.6623Z" fill="#3A5AB7"/>
<path d="M238.694 46.2715C237.802 46.4624 237.774 49.3788 238.657 49.5812C239.552 49.4018 239.587 46.4854 238.694 46.2715Z" fill="#212941"/>
<path d="M248.503 47.4263C247.61 47.6172 247.583 50.5336 248.466 50.736C249.372 50.5566 249.395 47.6402 248.503 47.4263Z" fill="#212941"/>
<path d="M245.3 56.0098C245.67 55.8557 245.003 49.2961 245.217 48.8315C245.949 51.378 246.192 54.04 245.932 56.6768C245.3 57.1644 242.956 56.6515 242.443 56.3548C242.788 55.9017 245.194 56.0328 245.3 56.0098Z" fill="#212941"/>
<path d="M233.168 55.4302C233.039 56.3501 233.228 57.2866 233.704 58.0844C234.195 58.8309 234.867 59.4409 235.657 59.8577C236.908 60.3936 237.872 60.941 238.944 60.0486C237.652 59.876 236.432 59.3549 235.415 58.5412C234.397 57.7275 233.621 56.652 233.168 55.4302Z" fill="#212941"/>
<path d="M312.834 91.2225C320.084 93.0073 331.88 90.9373 335.928 83.7222C327.904 90.544 322.404 90.2818 312.834 91.2225Z" fill="#212941"/>
<path d="M330.441 92.0918C334.892 93.8766 341.941 91.2339 343.142 86.3188C339.179 90.7463 336.143 91.4593 330.441 92.0918Z" fill="#212941"/>
<path d="M332.75 97.8653C335.038 98.2554 337.391 97.906 339.468 96.8679C341.544 95.8298 343.235 94.157 344.296 92.0923C341 94.9666 337.027 96.9534 332.75 97.8653Z" fill="#212941"/>
<path d="M312.547 102.484C321.809 107.806 337.548 107.084 344.287 97.8652C332.904 106.246 325.56 105.46 312.547 102.484Z" fill="#212941"/>
<path d="M116.566 109.71C123.984 109.448 140.923 103.484 146.591 98.7461C142.4 99.8961 135.949 103.555 131.818 104.758C127.972 106.389 120.366 107.794 116.566 109.71Z" fill="#212941"/>
<path d="M119.447 114.31C124.756 115.311 133.411 113.666 136.769 109.119C134.036 110.6 131.16 111.8 128.185 112.7C125.195 113.432 122.129 113.448 119.447 114.31Z" fill="#212941"/>
<path d="M126.375 120.674C131.959 121.316 140.635 118.374 142.542 112.592C137.507 118.137 133.006 118.68 126.375 120.674Z" fill="#212941"/>
<path d="M148.315 114.31C150.781 119.704 149.065 123.393 144.852 127.013C150.174 125.948 152.828 117.732 148.315 114.31Z" fill="#212941"/>
<path d="M90.0078 436.436H122.912V364.272C122.912 364.272 90.0078 363.701 90.0078 364.272V436.436Z" fill="#3A5AB7"/>
<path d="M154.09 324.44H191.612V436.437H154.09V324.44Z" fill="#3A5AB7"/>
<path d="M225.1 284.036H266.658V436.434H225.1V284.036Z" fill="#3A5AB7"/>
<path d="M295.525 243.05H336.511V436.437H295.525V243.05Z" fill="#3A5AB7"/>
<path d="M127.3 419.341C125.711 425.834 126.774 436.669 126.507 442.111C121.3 442.483 106.244 441.191 97.7891 442.907C107.479 444.673 122.107 443.233 128.05 443.702C127.804 436.637 128.88 426.777 127.3 419.341Z" fill="#FF9500"/>
<path d="M195.96 413.611C194.155 426.871 195.588 433.966 195.176 442.865C189.447 443.067 182.735 442.175 176.992 443.684C183.462 444.67 190.03 444.842 196.542 444.194C196.818 444.169 196.772 444.231 196.751 443.964C196.301 434.555 197.731 427.37 195.96 413.611Z" fill="#FF9500"/>
<path d="M271.274 405.26C269.416 421.197 270.938 430.112 270.49 442.29C262.58 442.596 256.057 441.465 248.18 443.088C256.513 444.733 264.008 443.518 272.077 443.882C271.571 430.047 273.114 421.602 271.274 405.26Z" fill="#FF9500"/>
<path d="M341.069 402.652H340.609C339.142 417.728 340.464 428.872 340.055 442.297C332.338 442.589 325.707 441.453 317.729 443.084C325.933 444.694 332.872 443.544 340.959 443.877C341.446 443.925 341.649 443.813 341.626 443.325C341.071 432.492 342.596 418.646 341.069 402.652Z" fill="#FF9500"/>
<path d="M419.152 144.698C408.411 142.168 393.413 146.894 379.618 149.923C383.256 148.387 386.77 146.572 390.129 144.495C402.344 136.648 394.094 124.924 381.642 128.089C367.559 130.589 351.295 138.713 337.654 146.613C331.009 150.461 323.192 153.994 318.049 159.351C338.167 149.804 360.369 133.4 381.927 129.876C399.066 127.075 396.854 141.197 383.523 146.28C371.333 152.649 357.105 154.16 344.607 158.78C351.737 158.481 402.461 143.686 418.722 146.446C425.21 148.196 429.992 152.994 428.842 159.459C426.586 172.054 390.202 172.624 376.938 173.767C375.114 175.136 410.369 169.797 417.926 183.029C421.984 190.136 415.856 197.448 407.544 199.04C387.534 202.874 364.785 196.993 345.189 196.303C361.224 201.229 380.641 202.17 397.604 202.053C406.258 201.278 419.104 200.813 420.604 190.04C421.282 179.768 413.319 174.266 404.504 172.969C417.027 171.042 428.992 166.971 430.622 159.792C430.792 156.329 429.735 152.917 427.637 150.156C425.539 147.395 422.535 145.462 419.152 144.698Z" fill="#212941"/>
<path d="M313.988 209.562C325.606 216.814 342.688 219.031 355.848 219.098C378.025 219.211 376.847 206.278 356.692 203.228C360.492 205.931 365.347 206.8 369.276 210.335C375.311 217.847 352.051 217.608 348.116 217.109C337.165 216.8 324.619 211.885 313.988 209.562Z" fill="#212941"/>
<path d="M11.5 436.436C14.7867 431.399 16.123 424.879 18.3333 419.138C34.5621 376.988 41.7082 369.849 66.1733 338.261C80.6633 365.295 93.6376 341.035 97.9708 322.653C106.184 352.01 129.005 311.94 126.951 298.464C124.154 305.178 122.76 312.954 118.951 319.451C108.36 337.504 100.356 333.905 98.2859 314.391C95.0475 328.665 84.3203 365.831 68.6665 339.07C67.8822 337.92 67.1669 335.926 66.4884 334.903C54.2524 350.922 22.3514 386.77 11.5 436.436Z" fill="#212941"/>
<path d="M70.9612 318.679C73.6269 316.273 85.8307 288.799 78.45 289.786C72.2837 295.262 69.9722 310.486 71.021 318.488C72.4493 310.928 72.7069 300.435 76.6744 293.595C77.3644 292.397 79.2228 289.299 79.5931 291.631C79.8783 300.61 73.39 310.203 70.9612 318.679Z" fill="#212941" class="svg-animation__breeze svg-animation__breeze-1" />
<path d="M408.496 130.803C412.841 131.781 443.304 126.709 437.828 119.651C429.341 116.555 414.734 124.412 408.699 130.746C413.71 128.329 418.545 124.258 424.021 122.339C426.912 120.578 442.104 117.739 436.08 123.149C428.686 128.232 416.937 128.4 408.496 130.803Z" fill="#212941" class="svg-animation__breeze svg-animation__breeze-2"/>
<path d="M85.39 297.31C88.1638 295.251 98.7714 277.203 92.152 276.644C86.1283 280.179 84.2124 291.24 85.2704 297.574C86.7838 291.445 86.4204 281.704 92.4142 277.741C95.7354 281.12 86.5101 293.19 85.39 297.31Z" fill="#212941" class="svg-animation__breeze svg-animation__breeze-3" />
<path d="M121.544 297.786C123.067 295.417 124.994 285.858 119.934 286.097C115.578 288.627 118.078 295.739 121.544 297.942C120.236 294.895 117.864 291.923 119.152 288.452C119.656 287.1 120.953 286.486 121.556 288.144C122.768 291.472 121.33 294.667 121.544 297.786Z" fill="#212941" class="svg-animation__breeze svg-animation__breeze-4" />
<path d="M383.926 210.254C385.582 214.921 394.248 229.754 399.425 230.23C400.819 229.754 400.902 228.776 401.105 227.325C401.45 218.647 391.332 211.86 383.926 210.254C390.081 214.314 401.224 218.778 399.867 228.049C397.378 233.323 386.401 211.897 383.926 210.254Z" fill="#212941" class="svg-animation__breeze svg-animation__breeze-5" />
<path d="M425.926 186.588C428.127 190.194 445.793 207.23 448.388 198.658C449.998 187.494 433.877 184.628 425.926 186.588C432.759 187.779 444.174 186.636 447.086 194.932C447.371 196.611 448.006 199.005 446.122 199.932C438.044 199.291 432.437 190.422 425.926 186.588Z" fill="#212941" class="svg-animation__breeze svg-animation__breeze-6" />
</svg>
