<svg preserveAspectRatio="xMidYMid meet" width="450px" height="100%" viewBox="0 0 460 460" fill="none" xmlns="http://www.w3.org/2000/svg">
<path d="M152.95 157.815C164.156 159.259 202.4 159.836 202.761 159.307C204.073 157.101 204.933 154.657 205.291 152.115C197.754 149.551 151.317 151.476 150.551 151.924C150.208 152.12 151.506 157.628 152.95 157.815Z" fill="#FF9500"/>
<path d="M221.63 123.51C222.791 122.362 224.23 121.537 225.806 121.114C227.383 120.692 229.042 120.687 230.621 121.099C231.526 119.684 232.344 118.214 233.07 116.699C233.459 115.86 239.805 106.635 238.464 106.37C233.339 105.36 220.942 118.917 210.728 115.818C204.799 114.022 200.838 104.376 197.183 94.9689C197.127 94.8091 197.029 94.667 196.9 94.5569C196.772 94.4468 196.616 94.3725 196.449 94.3415C196.283 94.3105 196.111 94.3239 195.951 94.3803C195.791 94.4368 195.649 94.5343 195.539 94.663C192.627 98.113 184.75 114.172 172.433 115.207C165.163 115.818 155.873 106.805 146.533 98.8766C146.402 98.7642 146.242 98.6895 146.072 98.6606C145.901 98.6316 145.726 98.6495 145.565 98.7124C145.404 98.7752 145.263 98.8805 145.157 99.0172C145.051 99.1539 144.985 99.3168 144.964 99.4884C144.555 103.053 145.3 116.007 140.258 120.835C136.312 124.616 127.838 121.419 118.489 117.431C117.495 117.008 116.815 118.19 117.495 119.041C120.198 122.313 123.139 125.382 126.293 128.222C127.537 123.247 136.229 126.467 137.579 130.479C137.904 131.53 137.947 132.649 137.705 133.723C137.463 134.797 136.944 135.788 136.199 136.599C137.061 137.275 148.159 145.859 149.281 145.859C151.655 146.201 165.121 145.762 210.149 145.783C210.422 145.78 210.683 145.669 210.875 145.475C212.368 143.793 217.419 138.437 222.506 132.277C218.902 130.196 219.282 126.226 221.63 123.51ZM156.938 122.629C152.356 125.982 143.451 113.921 149.019 110.54C151.16 109.238 155.544 111.754 157.168 115.17C157.982 116.874 158.902 121.18 156.938 122.617V122.629ZM199.557 116.966C198.768 119.572 196.006 122.102 193.283 121.481C192.24 121.127 191.326 120.473 190.652 119.603C189.978 118.732 189.576 117.682 189.495 116.584C189.035 112.72 192.556 108.399 195.578 108.82C198.331 109.19 200.608 113.479 199.557 116.955V116.966Z" fill="#FF9500"/>
<path d="M130.541 118.411C130.541 118.411 138.115 122.045 140.716 114.041L132.721 109.374C132.447 109.257 132.137 109.252 131.859 109.36C131.58 109.467 131.354 109.678 131.229 109.949L130.541 118.411Z" fill="#FF9500"/>
<path d="M218.226 113.321C217.429 113.968 216.49 114.416 215.485 114.628C214.481 114.84 213.44 114.81 212.449 114.54C211.459 114.27 210.547 113.769 209.788 113.077C209.03 112.385 208.447 111.522 208.088 110.561L214.744 104.744C214.858 104.664 214.987 104.608 215.124 104.58C215.26 104.552 215.401 104.553 215.537 104.581C215.674 104.61 215.803 104.666 215.916 104.747C216.03 104.828 216.126 104.931 216.198 105.05L218.226 113.321Z" fill="#FF9500"/>
<path d="M173.351 101.2L180.428 109.655C180.428 109.655 172.854 115.547 165.278 110.69L171.055 101.278C171.18 101.092 171.347 100.937 171.544 100.828C171.74 100.719 171.959 100.658 172.183 100.651C172.407 100.643 172.63 100.689 172.833 100.784C173.036 100.88 173.214 101.022 173.351 101.2Z" fill="#FF9500"/>
<path d="M100.51 128.777C105.402 128.603 110.234 127.634 114.816 125.909C115.427 125.638 115.085 124.734 114.473 124.722C109.64 124.872 104.862 125.789 100.316 127.438C99.7254 127.634 99.5897 128.777 100.51 128.777Z" fill="#FF9500" class="svg-animation--shine svg-animation--shine-6"/>
<path d="M119.14 99.7393C118.988 103.937 119.077 108.14 119.407 112.327C119.417 112.488 119.487 112.639 119.605 112.75C119.722 112.86 119.877 112.922 120.038 112.922C120.199 112.922 120.354 112.86 120.472 112.75C120.589 112.639 120.66 112.488 120.67 112.327C121.143 108.147 121.195 103.93 120.824 99.7393C120.824 99.516 120.735 99.3019 120.577 99.144C120.419 98.9861 120.205 98.8975 119.982 98.8975C119.759 98.8975 119.545 98.9861 119.387 99.144C119.229 99.3019 119.14 99.516 119.14 99.7393Z" fill="#FF9500" class="svg-animation--shine svg-animation--shine-4" />
<path d="M101.66 106.474C102.444 107.987 103.64 109.247 105.11 110.108C106.646 111.502 108.417 112.613 110.34 113.39C110.49 113.427 110.648 113.414 110.791 113.354C110.933 113.293 111.052 113.189 111.13 113.055C111.207 112.921 111.24 112.766 111.222 112.612C111.204 112.459 111.137 112.315 111.03 112.203C108.62 109.793 104.917 108.88 103.072 105.853C102.635 105.144 101.32 105.591 101.66 106.474Z" fill="#FF9500" class="svg-animation--shine svg-animation--shine-5" />
<path d="M181.728 87.6137C182.821 89.1862 184.052 90.6579 185.408 92.0113C186.689 93.5974 188.156 95.0237 189.778 96.2594C190.348 96.6435 191.158 95.8799 190.732 95.3026C189.531 93.7985 188.24 92.3676 186.868 91.0177C185.647 89.5044 184.341 88.0608 182.958 86.6937C182.342 86.0819 181.24 86.8087 181.728 87.6137Z" fill="#FF9500" class="svg-animation--shine svg-animation--shine-3" />
<path d="M196.571 90.5211C197.308 86.3422 197.832 82.1286 198.14 77.8964C198.14 77.2064 197.048 77.0178 196.916 77.7423C196.507 80.0101 196.254 82.3308 195.845 84.5917C195.376 86.5346 195.12 88.5228 195.081 90.5211C195.096 90.7087 195.181 90.8837 195.319 91.0114C195.457 91.1391 195.638 91.21 195.826 91.21C196.014 91.21 196.196 91.1391 196.334 91.0114C196.472 90.8837 196.557 90.7087 196.571 90.5211Z" fill="#FF9500" class="svg-animation--shine svg-animation--shine-1"/>
<path d="M205.181 91.3629C206.407 90.136 207.568 88.8463 208.661 87.4989C208.776 87.3755 208.839 87.2122 208.836 87.0434C208.833 86.8745 208.765 86.7134 208.646 86.594C208.526 86.4745 208.365 86.4062 208.196 86.4034C208.027 86.4006 207.864 86.4635 207.741 86.5789C206.42 87.7059 205.303 89.0376 204.061 90.2911C202.839 91.352 201.724 92.5307 200.733 93.8101C200.337 94.415 201.193 95.3028 201.804 94.8428C203.016 93.7698 204.145 92.6065 205.181 91.3629Z" fill="#FF9500" class="svg-animation--shine svg-animation--shine-2" />
<path d="M146.724 273.084C146.713 272.66 146.552 272.254 146.269 271.939C145.985 271.624 145.599 271.421 145.179 271.365C144.759 271.31 144.333 271.406 143.978 271.637C143.623 271.868 143.362 272.217 143.241 272.624C141.721 281.276 141.746 289.002 143.738 331.655C143.805 333.07 145.997 333.07 145.958 331.655C146.381 331.66 144.757 299.998 146.724 273.084Z" fill="#212941"/>
<path d="M156.17 338.732C150.42 336.934 129.559 329.728 128.395 329.781C118.947 330.123 107.925 330.659 99.0149 333.95C98.8886 333.999 98.7756 334.077 98.6852 334.178C98.5949 334.279 98.5297 334.4 98.4952 334.53C98.4606 334.661 98.4576 334.799 98.4864 334.931C98.5151 335.063 98.5749 335.187 98.6607 335.291C99.1966 336.191 99.3507 335.471 115.54 341.945C116.46 342.251 116.92 340.913 116.191 340.453C112.436 338.192 108.439 336.36 104.275 334.99C112.309 334.056 120.235 332.541 128.395 332.382C130.925 332.324 145.891 337.856 155.749 340.11C155.839 340.137 155.935 340.147 156.029 340.138C156.123 340.129 156.214 340.101 156.298 340.057C156.381 340.013 156.455 339.952 156.515 339.879C156.576 339.806 156.621 339.722 156.648 339.631C156.676 339.541 156.686 339.446 156.676 339.352C156.667 339.258 156.64 339.166 156.595 339.083C156.551 338.999 156.491 338.925 156.418 338.865C156.345 338.805 156.26 338.76 156.17 338.732Z" fill="#212941"/>
<path d="M98.5205 354.609C98.9046 349.333 100.13 343.744 99.7441 338.427C99.7302 338.005 99.5672 337.602 99.284 337.29C99.0009 336.977 98.616 336.776 98.198 336.72C97.78 336.665 97.3559 336.76 97.0013 336.988C96.6468 337.217 96.3847 337.563 96.2619 337.967C94.6519 343.027 96.1354 349.441 96.3378 354.609C96.3507 354.89 96.4713 355.155 96.6745 355.349C96.8778 355.543 97.1481 355.652 97.4291 355.652C97.7102 355.652 97.9805 355.543 98.1837 355.349C98.387 355.155 98.5076 354.89 98.5205 354.609Z" fill="#212941"/>
<path d="M101.579 358.664C95.988 356.916 74.9545 349.662 73.8436 349.713C64.3929 350.058 53.3736 350.591 44.4611 353.883C44.3315 353.934 44.2161 354.015 44.1248 354.12C44.0335 354.226 43.9689 354.351 43.9366 354.487C43.9044 354.622 43.9053 354.764 43.9393 354.899C43.9734 355.034 44.0395 355.159 44.1322 355.263C44.8222 356.268 50.4779 357.59 52.4122 358.322C55.3194 359.393 58.1139 360.732 60.982 361.88C61.902 362.186 62.362 360.847 61.6329 360.387C59.1018 358.759 56.3933 357.425 53.5599 356.41C52.3386 355.927 51.0414 355.378 49.7143 354.924C57.7505 353.991 65.6763 352.475 73.8367 352.316C76.4288 352.266 91.1166 357.749 101.152 360.044C101.242 360.072 101.337 360.082 101.432 360.074C101.526 360.065 101.618 360.038 101.702 359.993C101.786 359.949 101.86 359.889 101.921 359.816C101.982 359.743 102.027 359.659 102.055 359.568C102.083 359.478 102.093 359.382 102.085 359.288C102.076 359.193 102.049 359.102 102.005 359.018C101.96 358.934 101.9 358.859 101.827 358.799C101.754 358.738 101.67 358.692 101.579 358.664Z" fill="#212941"/>
<path d="M243.896 391.92C215.013 391.957 186.127 393.374 157.205 393.183C120.007 392.905 84.7687 392.697 44.0081 392.755C44.2381 381.46 44.8844 369.656 45.188 358.368C45.1792 357.943 45.0188 357.536 44.7358 357.22C44.4529 356.904 44.0661 356.7 43.6455 356.644C43.2248 356.589 42.7982 356.685 42.4428 356.917C42.0874 357.149 41.8268 357.5 41.7081 357.908C39.4265 368.856 41.3746 381.715 41.8139 392.76C30.2518 392.787 18.692 392.891 7.1621 393.259C6.77658 393.259 6.40685 393.412 6.13425 393.684C5.86164 393.957 5.7085 394.327 5.7085 394.712C5.7085 395.098 5.86164 395.468 6.13425 395.74C6.40685 396.013 6.77658 396.166 7.1621 396.166C39.1827 396.856 71.2033 396.433 103.226 397.086C130.226 397.675 217.81 398.974 244.356 395.365C246.346 395.085 245.81 391.92 243.896 391.92Z" fill="#212941"/>
<path d="M106.094 392.865C89.1018 392.771 76.2103 392.753 61.028 392.753L60.2621 370.562C60.2185 369.294 60.6773 368.06 61.5388 367.129C62.4003 366.198 63.5947 365.645 64.8621 365.59L84.373 364.748C73.5262 372.818 72.3601 372.71 68.7652 375.995C67.6152 377.037 69.0688 378.557 70.2947 377.984C71.9415 377.216 91.3673 364.644 91.6042 364.479C100.291 364.106 100.181 364.019 101.207 364.327C102.149 364.611 102.981 365.178 103.59 365.951C104.199 366.724 104.556 367.666 104.611 368.649L105.032 375.268C99.0631 379.592 92.4805 382.607 86.2107 386.515C84.6789 387.469 85.6725 390.262 87.4711 389.576C93.7018 386.936 99.6602 383.695 105.262 379.898L106.094 392.865Z" fill="#3A5AB7"/>
<path d="M165.966 393.174C162.67 393.215 120.568 392.944 120.327 392.944L118.947 351.205C118.922 350.577 119.021 349.949 119.239 349.359C119.456 348.768 119.788 348.227 120.216 347.765C120.643 347.303 121.157 346.929 121.728 346.666C122.3 346.403 122.918 346.255 123.547 346.231L139.233 345.541C138.007 346.461 136.827 347.381 135.596 348.257C131.863 350.562 128.273 353.091 124.846 355.831C123.708 356.873 125.152 358.393 126.378 357.82C130.62 355.481 134.708 352.875 138.619 350.016C141.149 348.406 143.86 346.918 146.347 345.235C151.678 344.989 148.925 345.113 158.284 344.699C159.538 344.651 160.762 345.097 161.692 345.941C162.621 346.785 163.183 347.96 163.256 349.214L163.525 353.384C163.295 353.46 132.459 371.335 127.562 374.884C127.197 375.117 126.936 375.482 126.833 375.903C126.73 376.325 126.794 376.769 127.012 377.144C127.229 377.519 127.583 377.796 127.999 377.916C128.415 378.037 128.862 377.992 129.246 377.791C140.698 371.351 152.736 365.318 163.831 358.165L164.825 374.309C158.629 377.867 152.987 382.642 147.037 386.513C145.427 387.555 146.885 390.076 148.529 389.077C153.854 385.839 159.813 383.327 165.17 380.048L165.966 393.174Z" fill="#3A5AB7"/>
<path d="M225.915 392.102C207.706 392.408 189.455 393.022 171.207 393.134L168.447 283.031C168.509 281.659 169.111 280.366 170.121 279.434C171.131 278.503 172.468 278.008 173.841 278.056L191.822 277.366C182.293 284.227 180.906 284.48 177.208 287.735C176.058 288.737 177.516 290.301 178.737 289.722C183.901 287.275 184.506 285.835 198.669 277.136L214.891 276.524C216.267 276.377 217.648 276.763 218.747 277.604C219.847 278.444 220.581 279.675 220.8 281.042L220.915 283.802C207.524 292.411 193.202 299.58 180.205 308.784C178.482 310.006 180.012 312.798 181.888 311.691C194.877 304.046 208.325 296.741 221.14 288.662L222.097 309.592C207.789 317.625 193.763 326.547 179.938 335.225C178.328 336.228 179.791 338.79 181.428 337.787C193.218 330.572 222.076 315.806 222.327 315.675L223.13 333.351C208.44 342.684 194.61 353.54 179.89 362.846C178.294 363.855 179.745 366.418 181.382 365.41C195.458 356.73 209.539 348.08 223.387 339.05L224.42 361.622C212.101 368.432 200.001 376.255 188.269 383.773C186.659 384.804 188.151 387.327 189.761 386.336C200.44 379.76 224.471 367.876 224.721 367.742L225.915 392.102Z" fill="#3A5AB7"/>
<path d="M210.995 273.35C206.124 271.827 184.352 264.38 183.259 264.398C171.092 264.819 157.704 264.628 146.034 268.568C145.905 268.617 145.79 268.695 145.699 268.798C145.607 268.9 145.542 269.023 145.508 269.156C145.475 269.289 145.474 269.429 145.506 269.562C145.537 269.696 145.601 269.819 145.691 269.923C146.317 270.926 152.113 272.299 153.992 273.007C156.899 274.077 159.693 275.418 162.562 276.563C163.482 276.871 163.909 275.558 163.212 275.073C160.696 273.419 157.984 272.082 155.139 271.094C153.9 270.604 152.58 270.043 151.229 269.585C185.269 265.99 181.925 267.363 183.577 266.958C192.673 269.187 201.461 272.644 210.574 274.728C210.757 274.784 210.954 274.765 211.123 274.675C211.291 274.585 211.418 274.432 211.473 274.249C211.529 274.067 211.51 273.869 211.42 273.701C211.331 273.532 211.178 273.406 210.995 273.35Z" fill="#212941"/>
<path d="M295.849 129.773C299.589 139.568 310.85 145.042 320.411 139.03C321.443 138.382 320.792 136.424 319.53 136.926C308.303 141.397 299.306 136.121 297.075 124.455C294.869 112.937 299.331 102.955 304.573 92.9681C312.529 103.488 327.909 110.338 332.615 112.251C332.257 112.241 331.899 112.254 331.543 112.288C330.738 112.387 330.931 113.82 331.736 113.742C332.806 113.808 333.837 114.164 334.72 114.771C335.603 115.379 336.304 116.216 336.748 117.192C337.129 122.203 335.446 124.499 331.658 124.078C331.046 124.269 330.319 124.156 329.818 124.653C327.828 126.642 328.047 131.882 327.748 134.6C326.63 145.146 327.925 155.808 331.534 165.779C332.106 167.389 334.71 166.699 334.135 165.052C331.356 157.278 329.907 149.091 329.85 140.836C329.85 136.061 329.16 129.796 332.033 127.496C336.173 128.374 347.033 129.145 355.444 115.865C359.734 109.096 354.833 103.737 351.659 101.175C348.171 100.027 344.429 99.894 340.869 100.79C340.728 100.825 340.58 100.808 340.45 100.742C340.321 100.677 340.219 100.567 340.164 100.433C340.108 100.299 340.102 100.15 340.147 100.012C340.192 99.8743 340.285 99.7571 340.409 99.6818C343.502 98.2375 346.915 97.6179 350.318 97.8832C351.504 95.1669 352.772 89.0811 346.638 79.8259C338.075 66.8907 324.677 78.5632 319.321 73.9724C315.305 70.5224 319.932 68.5007 322.497 67.698C322.637 67.6568 322.762 67.577 322.859 67.4677C322.956 67.3584 323.02 67.2241 323.044 67.0801C323.068 66.9361 323.051 66.7882 322.995 66.6535C322.939 66.5187 322.846 66.4024 322.727 66.318C318.61 63.328 305.606 55.5241 300.27 74.9246C299.544 77.6772 299.428 80.555 299.93 83.3569C300.432 86.1588 301.54 88.8173 303.177 91.1465C296.845 103.27 290.596 116.005 295.849 129.773Z" fill="#212941"/>
<path d="M305.796 99.2817C304.564 104.691 294.756 116.955 303.234 120.934C304.766 121.654 306.065 119.361 304.534 118.678C297.887 115.711 306.401 104.07 307.404 99.7026C307.641 98.6699 306.04 98.2099 305.796 99.2817Z" fill="#212941"/>
<path d="M314.87 125.603C314.161 126.534 313.202 127.244 312.105 127.651C311.008 128.058 309.818 128.145 308.674 127.903C308.508 127.862 308.334 127.882 308.182 127.959C308.03 128.036 307.911 128.164 307.846 128.322C307.781 128.479 307.775 128.655 307.829 128.816C307.882 128.978 307.992 129.115 308.138 129.202C310.739 131.042 314.778 129.494 316.783 127.519C318.03 126.281 316.057 124.308 314.87 125.603Z" fill="#212941" class="svg-animation--smile"/>
<path d="M236.245 214.59C239.782 205.583 247.869 198.322 255.413 192.669C263.134 186.884 271.421 181.302 280.853 178.869C281.026 178.82 281.186 178.733 281.32 178.614C281.455 178.495 281.561 178.348 281.631 178.182C281.701 178.017 281.733 177.838 281.724 177.658C281.715 177.479 281.666 177.304 281.58 177.146C280.906 175.913 280.241 174.66 279.551 173.436C286.362 172.019 292.866 169.188 299.713 167.888C303.163 170.832 309.012 177.903 312.338 180.435C312.991 180.932 313.598 180.016 313.334 179.441C312.752 178.179 311.457 177.213 300.861 166.435C300.752 166.339 300.624 166.265 300.487 166.219C300.349 166.173 300.203 166.155 300.058 166.166C292.445 166.932 285.032 170.283 277.449 171.483C277.277 171.533 277.119 171.621 276.987 171.741C276.854 171.862 276.751 172.01 276.684 172.176C276.618 172.342 276.59 172.521 276.603 172.7C276.616 172.878 276.669 173.051 276.759 173.206C277.465 174.496 278.139 175.768 278.829 177.07C269.181 180.186 260.301 185.306 252.77 192.094C245.806 198.172 238.333 205.394 234.98 214.282C234.692 215.05 235.943 215.356 236.245 214.59Z" fill="#212941"/>
<path d="M271.48 245.769C264.885 253.516 256.454 259.486 246.958 263.136C239.614 265.742 230.66 266.844 223.162 264.247C218.128 262.124 213.603 258.955 209.886 254.95C197.889 242.743 187.987 228.64 180.58 213.21C188.002 206.899 196.65 202.117 204.04 195.73C214.178 206.556 223.76 217.861 234.225 228.362C234.759 228.901 235.711 228.176 235.258 227.56C225.186 213.877 213.145 202.041 201.169 190.07C202.99 188.191 204.277 185.86 204.896 183.318C205.515 180.776 205.444 178.115 204.691 175.609C203.437 171.856 201.434 166.978 197.19 165.968C196.965 165.911 196.726 165.944 196.525 166.06C196.323 166.176 196.175 166.366 196.11 166.589C196.046 166.813 196.071 167.052 196.179 167.258C196.288 167.463 196.473 167.618 196.694 167.691C200.604 168.762 202.701 175.379 202.662 178.938C202.623 182.532 200.472 185.378 198.568 188.195C198.383 188.448 198.29 188.757 198.304 189.07C198.318 189.383 198.438 189.682 198.644 189.918C200.188 191.395 201.654 192.951 203.037 194.58C195.118 199.132 186.091 204.833 179.853 211.565C175.713 202.473 176.299 200.755 174.384 194.35C174.34 194.197 174.262 194.056 174.155 193.937C174.048 193.819 173.916 193.727 173.768 193.668C173.62 193.609 173.461 193.584 173.302 193.596C173.143 193.609 172.989 193.657 172.852 193.738C170.246 195.219 167.656 196.848 164.933 198.175C157.906 201.606 148.203 201.445 142.821 195.001C142.211 194.272 140.909 195.231 141.482 196.033C145.162 201.195 152.31 202.968 158.431 202.384C163.557 201.896 168.339 198.826 172.739 196.188C180.274 223.169 197.692 247.565 212.104 259.617C232.024 276.274 257.478 263.557 272.513 246.686C273.201 246.111 272.134 245.044 271.48 245.769Z" fill="#212941"/>
<path d="M165.66 187.273C165.835 187.223 165.986 187.112 166.086 186.96C166.185 186.808 166.228 186.625 166.205 186.445C166.182 186.264 166.095 186.098 165.96 185.976C165.825 185.854 165.651 185.785 165.469 185.78C158.583 185.743 149.829 186.634 145.346 180.157C145.246 179.998 145.088 179.884 144.905 179.839C144.722 179.794 144.529 179.821 144.366 179.915C144.203 180.008 144.083 180.162 144.03 180.342C143.977 180.523 143.997 180.717 144.084 180.884C148.166 188.004 158.334 190.15 165.66 187.273Z" fill="#212941"/>
<path d="M166.731 177.79C167.651 177.56 167.458 175.987 166.501 176.106C160.291 176.879 152.214 175.559 148.791 169.717C148.297 168.873 147.195 169.597 147.568 170.444C150.565 177.286 160.183 179.446 166.731 177.79Z" fill="#212941"/>
<path d="M357.1 255.76C357.09 255.569 357.007 255.39 356.868 255.258C356.729 255.127 356.545 255.054 356.354 255.054C356.163 255.054 355.979 255.127 355.84 255.258C355.702 255.39 355.618 255.569 355.608 255.76C355.026 263.104 356.562 275.915 347.535 278.599C343.502 279.691 339.267 279.809 335.179 278.944C335.807 278.483 336.395 277.97 336.939 277.412C341.062 273.086 340.639 264.992 338.622 259.854C338.275 258.973 336.858 259.281 337.129 260.275C338.335 264.679 338.33 271.149 335.791 275.156C333.091 279.413 326.165 281.046 321.558 279.326C321.14 279.169 318.318 278.256 318.421 277.642C318.66 275.343 318.724 273.028 318.612 270.719C318.787 258.925 318.513 246.627 317.734 231.274C317.812 227.248 317.4 223.227 316.508 219.3C316.454 219.15 316.351 219.024 316.214 218.942C316.078 218.859 315.918 218.827 315.76 218.849C315.603 218.872 315.458 218.948 315.35 219.065C315.243 219.182 315.179 219.332 315.169 219.491C315.583 229.588 316.234 239.692 316.432 249.83C316.616 259.203 318.127 269.995 316.28 279.289C316.089 280.243 312.952 280.478 312.301 280.512C306.631 280.816 304.267 279.721 300.249 273.932C299.117 272.337 298.337 270.519 297.962 268.599C297.586 266.68 297.622 264.702 298.069 262.798C298.118 262.573 298.079 262.339 297.959 262.142C297.84 261.946 297.649 261.803 297.427 261.744C297.205 261.684 296.969 261.713 296.767 261.824C296.566 261.935 296.415 262.119 296.346 262.338C295.567 265.308 295.628 268.436 296.522 271.374C297.415 274.312 299.106 276.944 301.406 278.978C294.439 277.828 288.188 277.725 287.482 277.368C271.412 273.962 278.146 245.96 278.185 234.558C278.185 233.602 276.853 233.68 276.768 234.558C275.784 244.858 270.342 272.242 283.503 277.713C279.823 286.971 273.364 391.757 273.364 391.757L318.085 392.177L315.785 320.714C313.633 320.849 311.474 320.861 309.32 320.751C308.593 320.638 308.708 319.562 309.32 319.371C311.114 318.824 327.762 317.881 329.673 317.881C330.4 317.881 330.593 319.031 329.864 319.18C328.564 319.451 325.388 320.1 325.121 320.176L332.428 393.208H377.991C377.991 393.208 357.944 289.876 350.791 279.891C358.476 275.724 357.942 263.095 357.1 255.76Z" fill="#212941"/>
<path d="M287.164 179.276C286.667 178.666 285.642 179.464 286.095 180.117C289.876 186.116 294.59 191.473 300.058 195.987C301.277 196.907 302.544 194.803 301.282 193.917C295.92 189.714 291.169 184.786 287.164 179.276Z" fill="#212941"/>
<path d="M421.141 265.816C415.481 276.085 405.731 280.871 394.093 280.582C391.225 280.51 387.361 279.816 383.612 279.662C379.626 274.602 376.984 272.69 377.402 261.604C378.36 261.38 379.331 261.214 380.309 261.107C381.266 260.995 381.305 259.576 380.309 259.576C365.803 259.576 355.748 272.794 357.279 286.815C358.659 299.402 369.377 318.095 384.518 310.649C385.592 310.12 384.824 308.349 383.716 308.699C368.766 313.313 359.918 297.183 359.421 284.482C359.192 279.488 360.658 274.564 363.581 270.508C366.503 266.452 370.711 263.503 375.521 262.14C374.993 265.291 375.206 268.521 376.142 271.575C377.078 274.629 378.712 277.424 380.914 279.737C376.514 279.967 372.611 281.382 371.236 286.088C370.967 287.008 372.186 287.385 372.689 286.7C379.465 277.479 391.193 287.472 407.16 280.95C413.928 278.19 420.24 273.59 422.425 266.374C422.453 266.215 422.426 266.051 422.35 265.909C422.273 265.767 422.151 265.654 422.003 265.589C421.855 265.525 421.689 265.512 421.533 265.553C421.377 265.594 421.239 265.687 421.141 265.816Z" fill="#212941"/>
<path d="M385.02 299.441C382.633 300.135 380.079 299.987 377.789 299.02C375.383 297.755 373.441 295.76 372.241 293.321C372.138 293.167 371.981 293.059 371.801 293.017C371.621 292.975 371.431 293.003 371.271 293.095C371.111 293.187 370.992 293.337 370.938 293.514C370.884 293.691 370.899 293.882 370.981 294.048C372.423 297.19 373.729 300.221 377.101 301.47C379.813 302.475 383.566 303.117 385.862 300.895C385.993 300.758 386.077 300.582 386.099 300.394C386.122 300.206 386.083 300.015 385.988 299.851C385.893 299.687 385.747 299.559 385.573 299.485C385.398 299.411 385.204 299.395 385.02 299.441Z" fill="#212941"/>
<path d="M388.852 292.44C386.68 293.539 384.21 293.903 381.814 293.475C379.175 292.891 378.025 291.102 376.266 289.335C375.691 288.763 374.962 289.49 375.233 290.138C378.242 297.314 386.922 297.901 389.723 293.62C389.803 293.486 389.842 293.33 389.834 293.174C389.826 293.018 389.772 292.867 389.679 292.741C389.586 292.615 389.458 292.519 389.311 292.466C389.164 292.412 389.004 292.403 388.852 292.44Z" fill="#212941"/>
<path d="M338.392 165.427C332.757 170.158 326.158 174.045 320.946 179.2C320.823 179.338 320.752 179.515 320.746 179.7C320.739 179.885 320.798 180.066 320.913 180.212C321.027 180.358 321.188 180.459 321.37 180.498C321.551 180.536 321.74 180.51 321.903 180.423C327.797 176.462 333.456 172.162 338.85 167.543C341.989 165.098 340.69 164.726 344.857 166.511C348.523 167.942 352.067 169.669 355.453 171.674C354.46 172.479 353.613 173.514 352.693 174.39C352.579 174.511 352.497 174.659 352.455 174.821C352.414 174.982 352.414 175.151 352.456 175.312C352.499 175.473 352.581 175.621 352.696 175.742C352.811 175.862 352.955 175.951 353.114 176C362.774 179.51 372.968 181.357 382.57 185.221C397.605 191.268 412.829 200.001 418.494 216.055C418.805 216.933 420.173 216.593 419.911 215.673C415.559 200.505 400.556 190.796 386.894 184.837C376.531 180.317 365.585 178.296 355.065 174.662C357.02 172.52 359.122 171.925 357.595 170.874C353.323 168.407 348.903 166.21 344.358 164.293C341.09 162.596 341.407 162.895 338.392 165.427Z" fill="#212941"/>
<path d="M348.722 181.916C346.751 184.039 344.587 185.973 342.256 187.693C338.505 190.138 334.31 191.702 330.434 193.968C330.315 194.042 330.226 194.157 330.184 194.292C330.142 194.426 330.149 194.571 330.205 194.7C330.26 194.83 330.36 194.935 330.487 194.997C330.614 195.058 330.758 195.073 330.894 195.037C337.438 193.427 347.749 188.763 349.984 182.682C350.327 181.955 349.248 181.41 348.722 181.916Z" fill="#212941"/>
<path d="M307.51 184.251C303.117 186.178 313.554 199.661 313.554 199.661L314.509 200.617C315.466 201.574 327.327 192.353 325.413 187.342C323.5 182.33 311.924 182.316 307.51 184.251Z" fill="#212941"/>
<path d="M316.432 110.032C315.399 110.179 314.403 110.45 313.409 110.568C312.459 110.616 311.513 110.73 310.578 110.91C309.888 111.094 309.815 112.249 310.578 112.364C311.572 112.463 312.572 112.476 313.568 112.403C314.64 112.385 315.709 112.472 316.788 112.364C316.949 112.35 317.106 112.303 317.248 112.226C317.391 112.149 317.516 112.044 317.616 111.917C317.716 111.79 317.789 111.644 317.83 111.487C317.871 111.331 317.88 111.167 317.855 111.007C317.831 110.848 317.774 110.694 317.688 110.557C317.602 110.42 317.489 110.302 317.355 110.211C317.222 110.119 317.071 110.056 316.912 110.026C316.753 109.995 316.59 109.997 316.432 110.032Z" fill="#212941"/>
<path d="M318.421 106.819C317.577 105.935 316.505 105.302 315.323 104.991C314.141 104.68 312.896 104.703 311.726 105.057C310.923 105.365 310.962 106.667 311.956 106.625C312.845 106.524 313.746 106.642 314.58 106.969C315.413 107.296 316.154 107.821 316.738 108.5C317.699 109.682 319.601 107.87 318.421 106.819Z" fill="#212941"/>
<path d="M308.398 143.276C306.473 149.311 305.102 155.509 304.304 161.793C304.219 162.863 305.727 162.906 306.063 162.023C308.066 156.016 309.312 149.784 309.775 143.469C309.858 142.666 308.598 142.551 308.398 143.276Z" fill="#212941"/>
<path d="M451.977 236.969C444.87 232.881 438.526 227.589 433.23 221.329C432.563 220.611 431.696 220.111 430.741 219.892C429.787 219.673 428.788 219.747 427.876 220.103C410.24 225.714 391.433 226.56 373.366 222.552C370.42 218.632 366.558 215.493 362.119 213.41C361.947 213.314 361.744 213.289 361.553 213.34C361.363 213.392 361.201 213.515 361.1 213.685C361 213.855 360.971 214.057 361.018 214.249C361.065 214.44 361.185 214.605 361.353 214.709C364.367 216.717 367.129 219.081 369.577 221.75C341.421 215.36 320.15 201.894 317.241 202.582C316.365 202.814 315.595 203.339 315.059 204.071C314.524 204.802 314.255 205.694 314.297 206.6C314.225 207.804 314.409 209.01 314.838 210.137C315.266 211.265 315.93 212.289 316.783 213.141C354.043 251.73 426.387 266.922 435.15 263.87C441.538 261.645 449.537 249.593 453.59 243.059C453.907 242.56 454.117 242 454.208 241.415C454.298 240.831 454.267 240.233 454.116 239.661C453.964 239.089 453.696 238.555 453.328 238.091C452.96 237.628 452.5 237.246 451.977 236.969ZM428.49 230.313C412.684 233.652 395.6 232.095 379.672 230.618C378.794 230.536 378.83 229.165 379.711 229.239C396.085 230.658 412.001 229.025 428.299 228.473C428.522 228.484 428.733 228.575 428.895 228.729C429.057 228.882 429.159 229.089 429.182 229.311C429.205 229.533 429.148 229.756 429.021 229.94C428.894 230.123 428.706 230.256 428.49 230.313Z" fill="#212941"/>
<path d="M188.616 176.904C189.536 176.785 189.306 175.28 188.386 175.294C176.136 175.524 167.891 169.482 158.774 162.21C158.157 161.717 157.292 162.467 157.895 163.088C165.864 171.313 176.743 178.48 188.616 176.904Z" fill="#212941"/>
</svg>
