<svg preserveAspectRatio="xMidYMid meet" width="460px" height="100%" viewBox="0 0 460 460" fill="none" xmlns="http://www.w3.org/2000/svg">

    <g class="svg-animation--coin svg-animation--coin-1">
        <path d="M231.564 196.611C230.099 196.18 228.57 196.013 227.047 196.119C221.251 196.691 219.181 204.442 225.306 205.71C227.654 206.19 229.924 205.192 231.24 205.864C231.847 206.167 231.902 207.014 231.575 207.244C229.316 208.267 226.892 208.881 224.418 209.056C224.258 209.054 224.1 209.086 223.953 209.149C223.806 209.212 223.674 209.304 223.565 209.421C223.456 209.538 223.373 209.676 223.32 209.826C223.268 209.977 223.247 210.137 223.259 210.296C223.272 210.455 223.317 210.61 223.393 210.75C223.468 210.891 223.572 211.014 223.698 211.113C223.824 211.211 223.969 211.282 224.124 211.321C224.279 211.36 224.44 211.366 224.597 211.34C227.737 211.372 230.577 211.814 233.392 210.321C234.069 209.896 234.621 209.298 234.989 208.588C235.358 207.879 235.53 207.084 235.489 206.286C235.447 205.487 235.193 204.715 234.753 204.047C234.313 203.38 233.703 202.842 232.985 202.49C231.345 201.788 229.531 201.602 227.783 201.956C226.226 202.096 224.986 202.131 225.632 200.976C226.483 199.414 229.678 198.922 231.315 198.858C231.463 198.875 231.613 198.864 231.756 198.823C231.899 198.782 232.033 198.714 232.149 198.621C232.266 198.529 232.363 198.414 232.435 198.284C232.507 198.154 232.552 198.011 232.569 197.863C232.585 197.715 232.572 197.565 232.53 197.423C232.489 197.28 232.419 197.147 232.326 197.031C232.232 196.915 232.117 196.819 231.986 196.748C231.855 196.677 231.712 196.633 231.564 196.618V196.611Z"  fill="#FF9500" />
        <path d="M228.482 187.195C226.213 187.126 223.954 187.511 221.837 188.328C219.72 189.144 217.786 190.374 216.151 191.947C214.515 193.52 213.21 195.404 212.312 197.488C211.414 199.572 210.941 201.814 210.921 204.084C210.894 206.412 211.33 208.724 212.203 210.883C213.076 213.042 214.368 215.007 216.006 216.663C217.643 218.319 219.593 219.634 221.742 220.532C223.891 221.429 226.197 221.891 228.526 221.891C230.855 221.891 233.161 221.429 235.311 220.532C237.46 219.634 239.41 218.319 241.047 216.663C242.684 215.007 243.977 213.042 244.85 210.883C245.723 208.724 246.158 206.412 246.132 204.084C246.157 201.794 245.711 199.523 244.823 197.412C243.935 195.302 242.623 193.396 240.968 191.812C239.314 190.229 237.352 189.003 235.204 188.208C233.056 187.414 230.768 187.069 228.482 187.195ZM228.482 189.467C240.35 190.054 247.268 204.895 238.268 213.87C235.67 216.467 232.148 217.927 228.474 217.931C224.801 217.935 221.276 216.482 218.672 213.891C216.712 211.899 215.376 209.38 214.828 206.64C214.279 203.901 214.541 201.061 215.582 198.468C216.624 195.876 218.399 193.643 220.69 192.044C222.981 190.445 225.689 189.55 228.482 189.467Z"  fill="#FF9500"/>
    </g>
<g class="svg-animation--coin svg-animation--coin-2">
    <path d="M68.1202 114.384C68.0153 113.594 67.7545 112.832 67.353 112.144C66.9516 111.456 66.4174 110.854 65.7815 110.373C65.1456 109.893 64.4207 109.544 63.6487 109.346C62.8768 109.148 62.0732 109.105 61.2846 109.22C61.2524 107.746 61.1581 104.864 61.1489 104.62C61.8682 104.526 62.5924 104.474 63.3178 104.466C63.4649 104.483 63.6138 104.47 63.7561 104.429C63.8983 104.388 64.0311 104.32 64.1469 104.228C64.2627 104.135 64.3591 104.021 64.4307 103.892C64.5024 103.762 64.5478 103.62 64.5644 103.473C64.581 103.325 64.5685 103.177 64.5276 103.034C64.4866 102.892 64.4181 102.759 64.3258 102.643C64.2335 102.528 64.1194 102.431 63.9898 102.36C63.8603 102.288 63.7179 102.243 63.5708 102.226C62.6971 102.025 61.8124 101.876 60.9212 101.78C60.726 100.663 60.4695 99.5583 60.153 98.47C60.1269 98.1795 59.9893 97.9103 59.7691 97.7189C59.5489 97.5275 59.2632 97.4287 58.9719 97.4433C58.6805 97.4579 58.4061 97.5846 58.2061 97.797C58.0061 98.0094 57.896 98.291 57.899 98.5827C57.7334 99.7327 57.5287 100.602 57.439 101.814C49.7455 103.049 48.6346 113.411 57.5586 113.3C57.6138 114.812 57.6759 116.399 57.8231 117.9C56.6179 118.073 55.438 118.206 54.3731 118.36C54.2147 118.361 54.058 118.394 53.9129 118.457C53.7678 118.521 53.6374 118.614 53.5299 118.73C53.4224 118.847 53.3402 118.984 53.2883 119.134C53.2364 119.284 53.216 119.442 53.2284 119.6C53.2408 119.758 53.2857 119.912 53.3603 120.052C53.4349 120.192 53.5376 120.315 53.6619 120.413C53.7863 120.511 53.9295 120.582 54.0828 120.623C54.236 120.663 54.396 120.671 54.5525 120.647C55.6772 120.647 56.9261 120.672 58.198 120.665C58.3774 121.776 58.5821 122.878 58.7868 123.995C58.7831 124.156 58.8129 124.315 58.8743 124.463C58.9356 124.611 59.0272 124.744 59.1432 124.855C59.2591 124.965 59.3969 125.05 59.5476 125.104C59.6984 125.158 59.8588 125.181 60.0185 125.169C60.1783 125.158 60.3339 125.113 60.4754 125.038C60.6169 124.963 60.7412 124.859 60.8402 124.733C60.9393 124.607 61.0109 124.462 61.0506 124.307C61.0903 124.152 61.0972 123.99 61.0707 123.832C61.119 122.714 61.2018 121.615 61.2662 120.504C65.259 120.06 68.5112 118.381 68.1202 114.384ZM55.2402 108.891C54.5916 108.401 55.599 106.789 56.1947 106.242C56.532 105.943 56.922 105.709 57.3447 105.552C57.3631 106.863 57.4068 108.171 57.4298 109.482C56.6546 109.549 55.8809 109.339 55.2448 108.891H55.2402ZM63.8951 116.15C63.118 116.635 62.2709 116.998 61.3835 117.227C61.4088 115.833 61.3835 114.54 61.3513 113.02C62.0716 112.967 62.7932 113.101 63.4466 113.409C64.4954 113.935 64.8082 115.575 63.8951 116.15Z"  fill="#FF9500"/>
    <path d="M59.6065 90.0175C56.7225 89.9503 53.854 90.4577 51.168 91.5101C48.4821 92.5625 46.0324 94.139 43.9618 96.1475C41.8911 98.1561 40.2409 100.557 39.1073 103.209C37.9736 105.862 37.3792 108.714 37.3586 111.598C37.3286 114.545 37.8832 117.469 38.9902 120.2C40.0972 122.931 41.7347 125.416 43.808 127.51C45.8812 129.605 48.3491 131.267 51.069 132.402C53.7888 133.537 56.7066 134.121 59.6536 134.121C62.6007 134.121 65.5185 133.537 68.2383 132.402C70.9581 131.267 73.426 129.605 75.4993 127.51C77.5725 125.416 79.21 122.931 80.317 120.2C81.424 117.469 81.9786 114.545 81.9487 111.598C81.9703 108.694 81.4013 105.815 80.2763 103.136C79.1514 100.458 77.4939 98.0361 75.4044 96.0179C73.315 93.9997 70.8373 92.4271 68.1216 91.3956C65.4059 90.3641 62.5089 89.8953 59.6065 90.0175ZM59.6065 92.2922C75.6421 92.9017 84.6581 112.762 72.7165 124.702C69.2389 128.175 64.5259 130.128 59.6107 130.132C54.6956 130.136 49.9795 128.19 46.4965 124.722C43.8834 122.075 42.1022 118.721 41.3727 115.074C40.6432 111.427 40.9973 107.646 42.3913 104.198C43.7853 100.749 46.1583 97.7846 49.2174 95.669C52.2765 93.5534 55.8881 92.3795 59.6065 92.2922Z"  fill="#FF9500" />
</g>

    <g class="svg-animation--coin svg-animation--coin-3">
        <path d="M391.514 82.3261C391.234 79.5431 388.954 77.2661 384.826 77.4271C384.789 76.0724 384.739 74.7361 384.667 73.455C385.416 73.3368 386.171 73.2692 386.928 73.2526C387.224 73.2831 387.52 73.1954 387.751 73.0086C387.983 72.8219 388.131 72.5513 388.164 72.2558C388.196 71.9602 388.111 71.6637 387.926 71.4308C387.741 71.1979 387.472 71.0475 387.177 71.0124C386.28 70.7983 385.37 70.6446 384.453 70.5524C384.357 69.4944 384.237 68.5054 384.092 67.6153C384.077 67.3168 383.944 67.0363 383.723 66.8358C383.501 66.6352 383.209 66.5309 382.91 66.5458C382.612 66.5608 382.331 66.6937 382.131 66.9154C381.93 67.1371 381.826 67.4294 381.841 67.728C381.795 68.5652 381.755 69.5128 381.728 70.5501C380.336 70.6982 379.019 71.2507 377.938 72.1394C376.699 73.2399 375.885 74.7399 375.638 76.3783C375.341 79.0256 377.39 81.6154 381.829 81.4889C381.889 82.8022 381.967 84.1362 382.059 85.4771C380.865 85.6611 379.685 85.7991 378.63 85.9601C378.343 86.0049 378.084 86.1562 377.905 86.3838C377.725 86.6114 377.638 86.8984 377.661 87.1875C377.684 87.4765 377.815 87.7462 378.029 87.9425C378.242 88.1389 378.522 88.2474 378.812 88.2463C379.89 88.2463 381.084 88.2854 382.303 88.2808C382.404 89.2836 382.517 90.2818 382.646 91.2708C382.69 91.5558 382.84 91.8137 383.066 91.9934C383.291 92.1731 383.576 92.2614 383.864 92.2408C384.152 92.2203 384.421 92.0924 384.619 91.8824C384.817 91.6725 384.928 91.3959 384.932 91.1075C384.932 90.2128 384.918 89.2215 384.918 88.1635C388.741 87.7587 391.892 86.1556 391.514 82.3261ZM379.554 77.1465C379.237 76.905 379.446 76.5186 379.584 76.1805C379.759 75.7119 380.04 75.2897 380.404 74.9467C380.768 74.6038 381.206 74.3491 381.684 74.2025C381.684 75.3019 381.684 76.4588 381.712 77.6525C380.951 77.7539 380.18 77.574 379.543 77.1465H379.554ZM387.409 83.8602C386.643 84.342 385.804 84.6969 384.925 84.9113C384.925 83.7153 384.925 82.4779 384.904 81.2313C388.14 81.0243 388.219 83.3519 387.397 83.8602H387.409Z"  fill="#FF9500" />
        <path d="M383.497 59.7011C380.812 59.6332 378.141 60.1008 375.638 61.0766C373.136 62.0524 370.853 63.5169 368.923 65.3846C366.993 67.2523 365.454 69.4857 364.396 71.9545C363.339 74.4234 362.783 77.0782 362.763 79.764C362.734 82.5108 363.25 85.2362 364.281 87.7823C365.312 90.3284 366.838 92.6448 368.77 94.5975C370.703 96.5501 373.003 98.1002 375.538 99.1581C378.073 100.216 380.793 100.761 383.54 100.761C386.287 100.761 389.007 100.216 391.542 99.1581C394.077 98.1002 396.377 96.5501 398.309 94.5975C400.242 92.6448 401.767 90.3284 402.799 87.7823C403.83 85.2362 404.346 82.5108 404.317 79.764C404.341 77.0581 403.813 74.3758 402.765 71.8809C401.717 69.386 400.172 67.1309 398.224 65.2532C396.275 63.3756 393.964 61.9148 391.432 60.9602C388.9 60.0056 386.2 59.5772 383.497 59.7011ZM383.497 61.9758C398.158 62.5761 406.543 80.799 395.526 91.7953C392.333 94.9865 388.005 96.7809 383.49 96.7848C378.976 96.7887 374.644 95.0017 371.445 91.816C369.042 89.381 367.404 86.2959 366.732 82.9412C366.061 79.5864 366.386 76.1084 367.667 72.9361C368.948 69.7638 371.13 67.0357 373.943 65.0881C376.756 63.1406 380.077 62.0586 383.497 61.9758Z"  fill="#FF9500" />
    </g>
<path d="M146.629 85.5001C145.044 86.7053 143.821 86.3787 129.342 91.7929C122.589 94.3873 117.927 97.6556 118.415 104.974C116.935 105.656 115.704 106.782 114.892 108.195C114.081 109.608 113.729 111.239 113.886 112.861C114.445 115.393 115.663 117.733 117.417 119.644C116.364 120.256 115.536 121.19 115.055 122.308C114.573 123.426 114.464 124.669 114.742 125.854C115.021 127.039 115.672 128.104 116.602 128.89C117.531 129.677 118.688 130.144 119.903 130.224C118.983 132.294 118.498 133.69 117.672 135.702C117.554 135.964 117.538 136.261 117.628 136.534C117.718 136.808 117.907 137.037 118.158 137.178C118.409 137.318 118.704 137.36 118.983 137.294C119.263 137.228 119.509 137.06 119.671 136.822C121.607 134.374 123.283 131.731 124.673 128.936C124.837 128.601 124.898 128.225 124.849 127.855C124.799 127.485 124.642 127.138 124.396 126.858C124.151 126.577 123.828 126.375 123.468 126.278C123.108 126.18 122.727 126.191 122.373 126.309C120.105 127.045 117.414 125.75 118.693 123.186C119.638 120.398 120.098 122.822 121.621 121.169C124.15 118.349 125.49 114.659 125.358 110.874C133.935 109.404 140.718 105.862 145.109 98.2237C146.537 95.8853 147.536 93.3101 148.057 90.6199C148.508 87.8921 148.738 83.6946 146.629 85.5001Z" fill="#212941"/>
<path d="M149.269 120.724C146.787 116.245 143.569 112.216 139.75 108.804C139.559 108.575 139.284 108.431 138.987 108.404C138.69 108.376 138.394 108.468 138.165 108.659C137.935 108.849 137.791 109.123 137.763 109.42C137.735 109.717 137.826 110.013 138.016 110.243C144.752 120.738 143.319 118.293 145.049 121.12L143.579 122.121C141.691 123.411 143.876 125.209 142.542 129.991C142.117 131.809 141.044 133.409 139.524 134.492C136.744 136.445 133.372 135.709 130.248 134.759C130.018 134.69 127.806 134.207 127.314 134.812C126.624 135.693 127.721 138.425 131.387 139.152L130.911 142.027C130.857 142.313 130.913 142.608 131.067 142.854C131.222 143.1 131.465 143.278 131.746 143.353C132.026 143.428 132.325 143.393 132.582 143.256C132.838 143.12 133.033 142.891 133.128 142.616L134.165 139.285C135.494 139.271 136.82 139.141 138.126 138.897C144.582 137.517 147.413 131.229 146.733 124.616L148.706 123.25C149.099 122.976 149.375 122.564 149.479 122.097C149.584 121.629 149.509 121.139 149.269 120.724Z" fill="#212941"/>
<path d="M133.077 115.318C133.293 115.932 133.661 116.464 134.1 116.798C134.539 117.131 135.014 117.238 135.419 117.096C135.824 116.953 136.126 116.572 136.26 116.037C136.394 115.503 136.347 114.857 136.131 114.243C135.915 113.629 135.547 113.097 135.108 112.764C134.668 112.43 134.194 112.323 133.789 112.466C133.384 112.608 133.081 112.989 132.948 113.524C132.814 114.059 132.86 114.704 133.077 115.318Z" fill="#212941"/>
<path d="M126.04 156.356C128.462 153.486 129.012 152.23 130.157 152.964C131.721 153.964 129.317 155.937 127.857 160.006C127.736 160.269 127.552 160.498 127.322 160.674C127.092 160.85 126.823 160.967 126.537 161.016C126.252 161.064 125.959 161.042 125.684 160.951C125.409 160.861 125.16 160.704 124.959 160.496C123.593 159.093 122.231 157.685 120.952 156.2C112.856 146.802 113.466 146.843 111.918 144.571C111.707 144.357 111.59 144.069 111.592 143.769C111.594 143.469 111.715 143.182 111.928 142.971C112.142 142.76 112.43 142.643 112.73 142.645C113.03 142.647 113.317 142.768 113.528 142.982C118.045 146.001 117.958 146.841 126.04 156.356Z" fill="#212941"/>
<path d="M179.807 100.179C180.487 96.55 182.381 93.2604 185.178 90.8499C185.322 90.7813 185.45 90.6835 185.554 90.5626C185.658 90.4417 185.736 90.3005 185.783 90.1479C185.83 89.9953 185.844 89.8347 185.825 89.6762C185.806 89.5177 185.755 89.3649 185.674 89.2274C185.593 89.09 185.484 88.9709 185.354 88.8778C185.225 88.7846 185.077 88.7195 184.921 88.6865C184.765 88.6535 184.604 88.6533 184.447 88.686C184.291 88.7188 184.144 88.7836 184.014 88.8765C181.874 89.8199 180.093 91.4243 178.931 93.4542C177.77 95.4841 177.289 97.8328 177.56 100.156C177.831 101.644 179.471 101.711 179.807 100.179Z" fill="#212941"/>
<path d="M46.4907 233.972C50.0902 236.502 55.9782 236.146 60.2125 230.996C60.3364 230.894 60.4377 230.768 60.51 230.625C60.5823 230.483 60.624 230.326 60.6324 230.166C60.6408 230.007 60.6157 229.847 60.5588 229.697C60.5019 229.547 60.4143 229.411 60.3018 229.298C60.1892 229.184 60.0541 229.095 59.9052 229.036C59.7562 228.977 59.5967 228.95 59.4367 228.957C59.2768 228.964 59.1199 229.004 58.9763 229.074C58.8327 229.145 58.7054 229.245 58.6025 229.367C57.1594 230.784 55.3519 231.773 53.3808 232.224C51.4096 232.676 49.3519 232.572 47.436 231.925C45.9295 231.557 45.2441 233.096 46.4907 233.972Z" fill="#212941"/>

<g class="svg-animation--coin svg-animation--coin-4">
    <path d="M283.778 95.0127C283.472 92.0733 281.087 89.6721 276.609 89.8607C276.567 88.3243 276.505 86.7902 276.418 85.3113C277.265 85.1839 278.119 85.1148 278.975 85.1043C279.126 85.1278 279.28 85.1206 279.427 85.083C279.575 85.0455 279.714 84.9784 279.835 84.8859C279.956 84.7934 280.057 84.6773 280.132 84.5446C280.207 84.4119 280.255 84.2655 280.272 84.114C280.289 83.9625 280.275 83.8091 280.231 83.6632C280.187 83.5172 280.114 83.3816 280.016 83.2646C279.919 83.1476 279.798 83.0516 279.662 82.9824C279.527 82.9132 279.378 82.8721 279.226 82.8618C278.23 82.6336 277.219 82.4737 276.202 82.3834C276.096 81.215 275.972 80.111 275.811 79.1082C275.784 78.8176 275.647 78.5485 275.427 78.3571C275.206 78.1657 274.921 78.0669 274.629 78.0815C274.338 78.0961 274.064 78.2228 273.864 78.4352C273.664 78.6476 273.554 78.9292 273.557 79.2209C273.515 80.0903 273.476 81.1644 273.446 82.4018C271.948 82.5632 270.529 83.1525 269.357 84.0992C268.054 85.2719 267.192 86.8556 266.914 88.5865C266.613 91.3902 268.791 94.1065 273.55 93.9294C273.612 95.4221 273.699 96.9539 273.814 98.4949C272.492 98.6927 271.185 98.8376 270.019 99.0101C269.859 99.0081 269.701 99.0395 269.554 99.1021C269.407 99.1647 269.275 99.2572 269.166 99.3737C269.057 99.4903 268.973 99.6283 268.92 99.779C268.867 99.9296 268.846 100.09 268.858 100.249C268.871 100.408 268.916 100.563 268.992 100.704C269.067 100.845 269.171 100.968 269.297 101.066C269.423 101.165 269.568 101.236 269.723 101.275C269.877 101.314 270.039 101.321 270.196 101.294C271.385 101.294 272.708 101.326 274.053 101.312C274.164 102.428 274.283 103.541 274.433 104.643C274.48 104.925 274.631 105.18 274.856 105.357C275.081 105.534 275.364 105.62 275.649 105.6C275.935 105.58 276.202 105.453 276.4 105.246C276.597 105.039 276.71 104.766 276.717 104.48C276.701 103.619 276.701 102.49 276.703 101.177C280.776 100.751 284.176 99.0722 283.778 95.0127ZM270.898 89.5203C270.247 89.0304 271.257 87.4181 271.852 86.8684C272.3 86.4823 272.826 86.1961 273.393 86.0289C273.393 87.3008 273.393 88.6647 273.425 90.093C272.543 90.2179 271.645 90.0141 270.902 89.5203H270.898ZM279.546 96.7745C278.667 97.316 277.706 97.7099 276.701 97.9406C276.701 96.5905 276.701 95.1484 276.678 93.6603C278.251 93.5522 279.852 93.8903 280.068 95.4451C280.121 95.693 280.101 95.9512 280.009 96.1875C279.917 96.4238 279.757 96.6279 279.55 96.7745H279.546Z"  fill="#FF9500" />
    <path d="M275.263 70.6465C272.379 70.5793 269.511 71.0866 266.825 72.1389C264.139 73.1911 261.689 74.7673 259.618 76.7756C257.548 78.7839 255.897 81.1841 254.763 83.8366C253.629 86.489 253.034 89.3405 253.013 92.2251C252.983 95.172 253.538 98.0956 254.645 100.827C255.752 103.558 257.389 106.043 259.462 108.137C261.536 110.232 264.003 111.894 266.723 113.029C269.443 114.164 272.361 114.748 275.308 114.748C278.255 114.748 281.173 114.164 283.893 113.029C286.612 111.894 289.08 110.232 291.154 108.137C293.227 106.043 294.864 103.558 295.971 100.827C297.078 98.0956 297.633 95.172 297.603 92.2251C297.625 89.3204 297.056 86.4416 295.932 83.7634C294.807 81.0852 293.149 78.6636 291.06 76.6455C288.971 74.6274 286.493 73.055 283.778 72.0238C281.062 70.9925 278.165 70.524 275.263 70.6465ZM275.263 72.9189C291.299 73.5284 300.312 93.3889 288.373 105.328C284.896 108.802 280.183 110.755 275.267 110.758C270.352 110.762 265.636 108.817 262.153 105.349C259.538 102.702 257.755 99.3475 257.024 95.6991C256.294 92.0508 256.647 88.2683 258.042 84.8186C259.436 81.3688 261.81 78.4028 264.87 76.2865C267.93 74.1703 271.543 72.9964 275.263 72.9097V72.9189Z"  fill="#FF9500" />
</g>

<path d="M345.132 105.943C343.678 105.874 342.225 106.099 340.86 106.604C339.495 107.109 338.246 107.883 337.186 108.881C336.126 109.878 335.278 111.079 334.692 112.411C334.106 113.744 333.794 115.18 333.775 116.635C333.753 118.147 334.032 119.648 334.596 121.051C335.16 122.453 335.996 123.73 337.058 124.807C338.119 125.883 339.384 126.738 340.778 127.321C342.173 127.905 343.67 128.205 345.181 128.205C346.693 128.205 348.19 127.905 349.584 127.321C350.979 126.738 352.244 125.883 353.305 124.807C354.367 123.73 355.203 122.453 355.767 121.051C356.331 119.648 356.61 118.147 356.588 116.635C356.616 115.158 356.332 113.691 355.756 112.33C355.18 110.969 354.323 109.745 353.243 108.736C352.163 107.728 350.882 106.958 349.485 106.477C348.087 105.995 346.604 105.813 345.132 105.943ZM345.132 108.217C351.446 108.728 355.65 116.957 350.542 122.04C349.105 123.474 347.16 124.28 345.131 124.284C343.101 124.288 341.153 123.489 339.711 122.061C338.613 120.939 337.863 119.523 337.55 117.984C337.238 116.446 337.376 114.85 337.948 113.388C338.521 111.926 339.503 110.66 340.778 109.743C342.052 108.826 343.564 108.296 345.132 108.217Z" fill="#212941"/>
<path d="M397.925 105.673C395.015 110.876 396.421 121.313 401.883 121.341C405.883 121.352 407.509 115.791 407.463 111.699C407.362 102.745 400.981 100.209 397.925 105.673ZM402.373 105.547C404.645 108.01 403.495 117.507 401.883 117.507C400.402 117.507 398.808 108.537 401.193 105.666C401.876 104.852 401.936 105.062 402.373 105.547Z" fill="#212941"/>
<path d="M402.729 138.718C402.723 138.417 402.599 138.13 402.384 137.919C402.169 137.709 401.88 137.591 401.579 137.591L355.972 137.184C355.566 137.184 355.176 137.346 354.888 137.634C354.601 137.921 354.439 138.311 354.438 138.718C354.171 195.813 354.029 335.747 354.059 392.776C354.059 393.027 354.108 393.276 354.204 393.508C354.301 393.74 354.442 393.95 354.619 394.128C354.797 394.305 355.008 394.446 355.24 394.542C355.472 394.638 355.721 394.687 355.972 394.687H401.579C402.085 394.686 402.571 394.485 402.929 394.126C403.287 393.768 403.488 393.282 403.488 392.776C403.49 310.04 402.977 221.663 402.729 138.718ZM400.429 139.868L357.52 140.249C358.033 201.335 357.957 315.638 357.888 390.878H399.675C399.668 309.228 399.87 229.931 400.429 139.856V139.868Z" fill="#212941"/>
<path d="M311.42 222.582C311.414 222.281 311.29 221.995 311.075 221.784C310.86 221.573 310.571 221.455 310.27 221.455L264.664 220.922C264.446 220.922 264.23 220.965 264.028 221.048C263.827 221.132 263.644 221.254 263.49 221.408C263.336 221.563 263.214 221.746 263.131 221.947C263.048 222.149 263.005 222.365 263.005 222.582C262.791 307.013 262.787 337.684 262.75 393.507C262.75 393.758 262.8 394.006 262.896 394.238C262.992 394.47 263.133 394.68 263.311 394.858C263.489 395.035 263.7 395.175 263.932 395.27C264.164 395.366 264.413 395.415 264.664 395.414H310.27C310.775 395.412 311.258 395.21 311.613 394.853C311.969 394.495 312.168 394.011 312.168 393.507C312.11 360.081 311.956 378.725 311.42 222.582ZM309.12 223.732L266.34 224.232C266.635 254.201 266.57 328.882 266.57 391.609H308.364C308.38 343.017 308.557 293.305 309.12 223.723V223.732Z" fill="#212941"/>
<path d="M205.601 285.766C205.595 285.465 205.471 285.178 205.256 284.967C205.041 284.757 204.752 284.639 204.451 284.639C196.134 284.556 187.624 284.381 179.13 284.227C182.541 283.169 183.61 279.878 180.344 278.277C175.847 276.774 171.244 275.608 166.574 274.788C164.879 274.48 160.824 273.521 161.576 271.973C164.382 266.223 167.556 260.413 169.912 254.325C173.642 244.651 176.202 233.942 172.198 224.492C164.196 205.602 137.286 207.819 137.521 206.689C137.981 204.486 137.856 201.94 138.475 199.983C141.051 191.917 144.154 184.343 145.318 175.918C152.261 179.345 163.575 179.807 173.863 174.846C189.503 167.316 200.067 149.229 196.35 125.196C195.726 119.736 194.111 114.436 191.584 109.556C191.438 109.301 191.233 109.084 190.988 108.923C190.742 108.761 190.462 108.659 190.17 108.624C188.767 102.605 188.721 96.5931 192.675 91.4434C192.885 91.2299 193.003 90.9414 193.001 90.6414C192.999 90.3414 192.878 90.0545 192.664 89.8437C192.451 89.633 192.162 89.5157 191.862 89.5176C191.562 89.5195 191.275 89.6406 191.065 89.8541C188.275 92.3741 186.448 95.7854 185.896 99.5041C185.344 103.223 186.102 107.018 188.04 110.239C186.398 115.069 180.103 117.399 178.87 116.555C178.302 116.166 178.378 115.706 178.134 114.715C176.655 108.505 169.217 100.774 174.544 92.3588C174.7 92.1173 174.76 91.826 174.712 91.5425C174.664 91.259 174.511 91.0037 174.285 90.827C174.058 90.6503 173.773 90.5651 173.486 90.5881C173.199 90.6111 172.932 90.7406 172.736 90.9512C167.924 95.9721 168.175 101.331 170.967 107.674C172.055 110.161 174.256 114.604 175.404 116.608C175.812 117.362 175.996 118.218 175.935 119.073C177.228 132.462 164.628 142.993 151.518 144.681C143.878 145.657 142.052 145.797 136.276 141.328C136.041 141.147 135.766 141.024 135.475 140.966C135.184 140.909 134.883 140.92 134.597 140.999C134.31 141.077 134.046 141.221 133.824 141.418C133.602 141.616 133.429 141.862 133.319 142.138L130.752 148.058C130.522 147.883 116.637 136.712 115.965 136.045C115.657 135.737 115.253 135.544 114.819 135.496C114.386 135.449 113.95 135.551 113.582 135.785C111.883 136.859 110.204 138.17 108.633 139.38C77.4378 134.495 41.3991 169.087 53.205 210.054C53.7112 211.653 54.6215 213.094 55.8477 214.238C54.8909 220.172 53.5155 226.828 45.9347 224.505C45.7962 224.428 45.6432 224.38 45.4853 224.365C45.3275 224.35 45.1682 224.367 45.0174 224.417C44.8667 224.466 44.7277 224.546 44.6093 224.651C44.491 224.757 44.3957 224.886 44.3295 225.03C44.2633 225.174 44.2277 225.33 44.2248 225.489C44.2219 225.647 44.2519 225.805 44.3128 225.951C44.3736 226.098 44.4642 226.23 44.5786 226.34C44.6931 226.449 44.829 226.534 44.9779 226.589C51.0637 230.499 56.9609 226.86 58.5893 220.197C58.9209 219.015 59.0469 217.784 58.9619 216.559C61.8725 218.272 65.2774 218.949 68.6219 218.479C66.614 239.409 56.0938 237.894 56.862 240.681C57.2737 242.169 60.3235 241.192 61.7564 240.617C67.1982 238.423 72.9344 228.643 71.2393 217.617C72.4756 216.98 73.4947 215.991 74.1672 214.774C74.3811 214.431 76.642 206.321 79.8574 192.31C82.7393 191.337 85.5844 190.228 88.3904 188.959C86.2741 192.767 84.4184 196.715 82.8359 200.774C81.0465 205.951 80.2254 211.72 83.8272 215.88C85.3361 217.574 87.2975 218.803 89.4806 219.42C89.2782 226.639 91.2043 233.758 95.019 239.89C94.789 252.508 87.2427 314.444 77.3642 342.47C77.3046 342.747 77.309 343.034 77.3772 343.309C77.4453 343.584 77.5754 343.84 77.7575 344.057C80.1648 346.738 82.7629 349.242 85.5315 351.548C86.4208 352.301 87.409 352.929 88.4686 353.413C79.0754 353.199 70.3515 353.022 60.9744 353.038C60.4703 353.038 59.9867 353.238 59.6294 353.594C59.2721 353.949 59.0701 354.432 59.0677 354.936V393.99C59.0668 394.241 59.1154 394.49 59.2108 394.722C59.3062 394.954 59.4464 395.166 59.6236 395.344C59.8007 395.521 60.0112 395.663 60.243 395.759C60.4747 395.856 60.7233 395.906 60.9744 395.906C75.4805 395.906 92.1164 395.816 106.581 395.756C106.814 395.757 107.044 395.712 107.259 395.624C107.474 395.535 107.669 395.405 107.834 395.241C107.998 395.077 108.129 394.882 108.218 394.667C108.307 394.453 108.352 394.222 108.352 393.99C107.982 352.613 107.927 354.816 107.501 354.262C108.006 353.699 108.373 353.026 108.573 352.296C108.773 351.566 108.801 350.8 108.655 350.058C108.508 349.316 108.191 348.618 107.729 348.019C107.266 347.42 106.671 346.937 105.99 346.608C102.719 344.747 99.6926 345.688 96.7647 344.892C93.7172 344.112 92.9973 339.186 91.3252 335.273C91.3114 335.149 113.734 273.546 120.717 229.89C127.566 228.406 138.402 228.086 144.361 229.85C155.5 233.149 158.602 237.601 156.141 249.959C154.28 260.624 150.459 270.851 144.871 280.124C144.795 280.455 144.787 280.799 144.848 281.134C144.909 281.468 145.037 281.787 145.225 282.071C145.414 282.354 145.657 282.596 145.942 282.782C146.227 282.968 146.547 283.094 146.882 283.153C147.905 283.477 157.791 284.16 158.021 284.176C156.611 284.912 156.889 278.753 156.937 395.46C156.938 395.71 156.987 395.958 157.084 396.189C157.18 396.42 157.322 396.63 157.499 396.806C157.677 396.983 157.888 397.122 158.12 397.217C158.352 397.311 158.6 397.359 158.851 397.357H204.451C204.952 397.354 205.431 397.153 205.784 396.797C206.137 396.442 206.335 395.961 206.334 395.46C206.327 360.628 205.796 320.675 205.601 285.766ZM104.845 392.201C94.3267 392.122 82.4587 392.067 62.8811 392.065V356.827C78.9075 356.827 89.5335 356.666 105.417 356.093L104.845 392.201ZM95.8102 348.158C98.0366 348.848 104.955 348.784 104.955 350.86C96.1943 351.509 97.1511 351.55 95.9321 351.53C93.116 351.325 90.4105 350.35 88.1121 348.71C85.8719 346.679 83.2476 344.551 81.2282 342.348L81.8492 339.768C84.4061 338.997 86.8879 337.996 89.2644 336.777C90.649 341.375 91.0216 346.589 95.8102 348.158ZM128.712 211.853C125.765 212.957 122.741 213.846 119.666 214.512C121.796 209.518 125.059 200.942 126.377 198.129C131.364 186.999 138.496 174.949 136.534 162.198C136.096 159.554 135.417 156.956 134.505 154.436C134.429 154.147 134.242 153.9 133.984 153.749C133.725 153.598 133.418 153.556 133.129 153.632C132.84 153.708 132.593 153.896 132.442 154.154C132.291 154.412 132.249 154.719 132.325 155.008C132.766 157.493 133.028 160.005 133.109 162.527C133.606 175.771 129.549 181.663 122.989 196.627C120.335 202.959 118.72 209.521 116.798 215.257C115.273 215.662 113.746 216.069 112.198 216.432C106.832 217.695 90.2741 219.868 85.6557 214.305C80.3473 207.913 88.1098 195.643 92.1486 188.289C92.9375 186.857 92.7995 187.369 96.7256 184.699C99.3914 183.157 101.619 180.96 103.195 178.314C103.759 177.544 104.198 174.961 99.1199 178.342C90.58 183.959 91.8013 184.736 80.4899 188.579C80.7199 187.342 81.081 184.221 79.8804 183.809C76.8375 182.753 77.5942 188.791 70.9817 212.994C68.5414 217.343 58.1707 213.967 56.7677 209.024C45.6495 169.956 80.5152 138.23 108.807 143.313C110.164 143.557 110.45 142.623 114.419 139.863C114.689 140.111 128.997 151.593 130.519 152.605C130.76 152.763 131.033 152.866 131.318 152.905C131.603 152.943 131.893 152.918 132.167 152.829C132.441 152.741 132.692 152.592 132.901 152.394C133.109 152.196 133.271 151.954 133.374 151.685L135.929 145.831C136.793 146.423 137.687 146.97 138.606 147.471C138.465 147.521 138.336 147.599 138.225 147.699C138.114 147.799 138.024 147.92 137.96 148.055C137.896 148.19 137.859 148.336 137.851 148.486C137.844 148.635 137.866 148.784 137.916 148.925C138.167 150.459 137.916 149.472 138.698 154.719C138.468 154.629 138.185 154.528 137.861 154.401C137.745 154.309 137.612 154.24 137.47 154.199C137.327 154.158 137.178 154.146 137.03 154.162C136.883 154.179 136.74 154.224 136.611 154.296C136.481 154.368 136.367 154.465 136.274 154.581C135.124 156.025 139.02 159.215 139.869 159.937C140.162 160.171 140.518 160.313 140.892 160.346C141.266 160.379 141.641 160.302 141.971 160.123C142.3 159.944 142.57 159.672 142.747 159.341C142.923 159.01 142.998 158.634 142.962 158.261C142.856 155.711 142.356 153.192 141.481 150.795C139.535 146.48 138.875 148.704 144.292 149.031C146.876 149.089 149.46 148.908 152.011 148.49C166.34 146.65 180.107 135.38 179.841 120.61C183.831 120.054 187.444 117.958 189.908 114.77C193.327 124.295 194.207 134.546 192.461 144.514C187.891 167.21 167.377 178.597 150.385 174.255C148.825 173.873 147.321 173.29 145.911 172.521C145.925 170.407 145.292 165.867 143.229 166.285C141.732 166.591 141.944 169.929 142.033 171.299C142.599 179.747 138.919 188.393 135.628 199.09C133.891 204.7 137.033 208.403 128.712 211.853ZM148.871 279.613C149.014 279.33 156.056 275.906 158.607 274.7C158.86 274.581 159.143 274.542 159.418 274.59C159.694 274.637 159.948 274.768 160.146 274.965C163.685 278.47 171.846 279.356 176.462 280.927C173.485 281.104 170.5 281.094 167.524 280.897C147.516 280.053 148.699 279.958 148.871 279.613ZM202.576 393.553H160.769C160.804 342.415 160.744 317.607 160.661 287.548C175.323 287.396 187.987 287.212 203.305 286.916C202.944 317.122 202.608 357.698 202.576 393.553Z" fill="#212941"/>
<path d="M26.7231 382.182C25.8725 377.828 26.2313 373.324 27.7604 369.159C31.0747 360.419 39.8009 359.394 45.4198 373.893C46.5445 370.933 48.212 368.159 51.1905 369.35C54.2472 370.574 56.7289 376.437 57.4005 379.431C57.4414 379.715 57.3745 380.004 57.213 380.242C57.0515 380.479 56.8071 380.647 56.5278 380.714C56.2485 380.78 55.9546 380.739 55.7037 380.6C55.4528 380.46 55.2631 380.232 55.1718 379.96C54.5186 377.311 50.9973 370.735 49.5851 372.301C48.2051 373.824 47.4875 378.417 47.3725 380.993C47.3482 381.4 47.1777 381.786 46.8923 382.078C46.6069 382.37 46.2257 382.549 45.8187 382.583C45.4118 382.617 45.0062 382.503 44.6765 382.262C44.3468 382.021 44.1151 381.669 44.0237 381.271C43.6923 379.862 43.2854 378.471 42.8047 377.106C41.588 373.617 37.9356 365.882 34.5247 366.565C33.1447 366.846 32.1212 368.35 31.3047 370.503C29.4855 375.848 29.7634 381.684 32.0821 386.833C32.2486 387.236 32.2729 387.684 32.1512 388.103C32.0295 388.523 31.7689 388.888 31.4121 389.14C31.0554 389.391 30.6238 389.514 30.188 389.488C29.7523 389.462 29.3383 389.289 29.0139 388.997C24.2851 384.664 13.919 378.12 9.69395 379.666C7.77805 380.388 15.828 392.776 22.1484 397.767C22.3721 397.952 22.5158 398.215 22.5497 398.504C22.5837 398.792 22.5052 399.082 22.3307 399.313C22.1562 399.545 21.899 399.701 21.6127 399.748C21.3264 399.795 21.0331 399.729 20.7937 399.565C15.5497 395.8 4.44305 384.779 5.84375 378.932C6.80975 374.896 12.079 375.404 16.0557 376.648C19.8816 377.917 23.4821 379.785 26.7231 382.182Z" fill="#212941"/>
<path d="M20.1558 389.953C23.8252 393.926 28.0541 397.343 32.7092 400.096C32.9527 400.246 33.243 400.299 33.5235 400.245C33.8041 400.192 34.0548 400.037 34.2269 399.809C34.3991 399.581 34.4803 399.297 34.4549 399.013C34.4294 398.729 34.299 398.464 34.0892 398.27C30.1838 394.658 26.034 391.32 21.6692 388.279C20.3628 387.442 19.2082 388.799 20.1558 389.953Z" fill="#212941"/>
<path d="M34.7296 379.318C37.0716 385.226 39.9486 390.906 43.3247 396.29C43.4781 396.536 43.7185 396.714 43.9979 396.79C44.2773 396.866 44.5751 396.834 44.8318 396.7C45.0885 396.566 45.2853 396.341 45.3829 396.068C45.4804 395.795 45.4715 395.496 45.3579 395.23C42.9547 389.354 40.0698 383.686 36.7329 378.286C36.6663 378.152 36.5738 378.033 36.4608 377.936C36.3478 377.838 36.2166 377.764 36.0747 377.718C35.9329 377.672 35.7833 377.654 35.6345 377.666C35.4858 377.678 35.3409 377.719 35.2083 377.787C35.0756 377.856 34.9579 377.95 34.8619 378.064C34.7659 378.178 34.6935 378.31 34.649 378.453C34.6045 378.595 34.5887 378.745 34.6025 378.894C34.6164 379.042 34.6596 379.187 34.7296 379.318Z" fill="#212941"/>
<path d="M120.467 372.004C122.186 365.854 127.584 356.065 132.356 353.604C133.139 353.19 134 352.943 134.884 352.879C135.767 352.816 136.655 352.937 137.489 353.235C138.323 353.532 139.087 354.001 139.73 354.61C140.374 355.218 140.884 355.955 141.227 356.771C143.893 361.615 143.244 369.449 142.469 374.93C147.575 372.756 152.313 375.585 152.983 381.413C153.571 386.533 151.485 391.152 149.717 395.989C149.603 396.257 149.392 396.473 149.125 396.591C148.859 396.71 148.557 396.723 148.281 396.628C148.006 396.532 147.777 396.336 147.64 396.078C147.504 395.82 147.471 395.52 147.548 395.239C148.928 391.069 150.551 386.122 149.827 381.86C149.326 378.906 147.474 377.03 144.443 378.067C143.239 378.619 142.096 379.295 141.032 380.082C140.73 380.269 140.38 380.366 140.025 380.361C139.67 380.356 139.323 380.249 139.027 380.053C138.73 379.857 138.496 379.581 138.351 379.256C138.207 378.932 138.159 378.572 138.212 378.221C139.001 373.053 140.878 360.051 136.547 357.093C133.603 355.069 129.764 361.482 127.885 364.469C125.636 368.1 124.024 372.089 123.119 376.264C123.057 376.61 122.893 376.929 122.646 377.18C122.4 377.431 122.084 377.601 121.74 377.67C121.395 377.738 121.038 377.701 120.714 377.564C120.391 377.426 120.117 377.194 119.927 376.899C117.954 373.679 115.619 370.744 111.921 370.026C111.624 369.986 111.356 369.83 111.174 369.592C110.993 369.354 110.914 369.054 110.953 368.758C110.993 368.461 111.15 368.193 111.387 368.011C111.625 367.83 111.925 367.751 112.222 367.79C115.409 368.086 118.361 369.594 120.467 372.004Z" fill="#212941"/>
<path d="M130.223 370.544C129.614 372.614 128.701 374.09 127.608 385.938C127.482 387.29 126.543 397.642 128.846 397.654C130.023 397.654 129.913 398.167 131.884 382.244C132.949 373.651 132.804 374.488 132.466 370.769C132.491 370.474 132.4 370.181 132.211 369.952C132.022 369.724 131.751 369.58 131.456 369.55C131.161 369.52 130.866 369.608 130.636 369.794C130.405 369.98 130.257 370.249 130.223 370.544Z" fill="#212941"/>
<path d="M145.09 351.638C152.004 343.452 152.153 350.8 154.38 349.423C154.634 349.261 154.816 349.006 154.884 348.712C154.952 348.418 154.903 348.109 154.745 347.852C154.297 346.644 153.52 345.584 152.503 344.793C149.163 342.228 144.255 345.768 142.07 349.506C141.472 350.531 140.366 353.374 141.539 354.004C142.433 354.483 144.439 352.408 145.09 351.638Z" fill="#212941"/>
<path d="M212.702 369.38C218.836 353.004 221.168 351.132 228.446 334.774C228.559 334.509 228.569 334.212 228.473 333.94C228.377 333.669 228.184 333.443 227.93 333.307C227.676 333.172 227.38 333.136 227.101 333.208C226.822 333.28 226.581 333.454 226.424 333.695C222.479 340.009 221.06 342.053 217.511 348.85C214.172 355.052 211.401 361.543 209.231 368.244C208.861 369.527 207.01 376.549 208.755 376.947C210.027 377.225 210.181 376.1 212.702 369.38Z" fill="#212941"/>
<path d="M251.304 340.145C251.505 343.895 252.071 347.617 252.994 351.258C254.181 356.503 256.319 361.486 259.303 365.96C259.364 366.108 259.454 366.241 259.569 366.352C259.684 366.463 259.82 366.549 259.97 366.604C260.12 366.659 260.279 366.683 260.439 366.673C260.598 366.663 260.754 366.62 260.896 366.547C261.037 366.474 261.162 366.372 261.263 366.248C261.363 366.123 261.436 365.98 261.478 365.825C261.52 365.671 261.529 365.51 261.505 365.352C261.481 365.195 261.424 365.044 261.339 364.909C259.552 360.136 258.008 355.276 256.713 350.347C254.48 340.952 254.965 334.135 252.84 334.178C251.329 334.208 251.283 338.654 251.304 340.145Z" fill="#212941"/>
<path d="M331.565 318.897C327.668 349.287 330.488 374.771 330.32 384.764C330.308 385.069 330.418 385.367 330.625 385.591C330.832 385.815 331.119 385.948 331.424 385.961C331.729 385.973 332.027 385.863 332.251 385.656C332.475 385.449 332.608 385.161 332.62 384.856C333.034 378.129 333.271 372.759 333.264 366.089C333.232 337.088 334.375 340.202 333.828 319.012C333.831 318.72 333.722 318.438 333.522 318.225C333.322 318.012 333.048 317.885 332.756 317.87C332.465 317.855 332.178 317.954 331.958 318.145C331.738 318.337 331.6 318.606 331.574 318.897H331.565Z" fill="#212941"/>
<path d="M406.833 288.558C407.875 286.343 411.224 280.683 413.515 280.952C421.44 281.872 417.82 308.579 414.545 320.385C414.345 321.094 414.351 321.844 414.561 322.549C414.904 323.72 415.851 326.742 417.068 326.579C417.368 326.537 417.639 326.378 417.823 326.137C418.006 325.895 418.087 325.592 418.048 325.291C417.956 324.173 417.33 323.042 417.128 321.947C416.948 320.976 418.455 318.892 420.219 311.542C422.717 301.155 424.221 278.205 413.906 277.239C408.951 276.779 406.086 282.989 404.706 287.769C404.654 287.909 404.63 288.057 404.636 288.206C404.641 288.355 404.676 288.501 404.738 288.637C404.8 288.772 404.889 288.894 404.998 288.995C405.107 289.096 405.235 289.175 405.375 289.227C405.515 289.279 405.663 289.303 405.812 289.297C405.961 289.291 406.107 289.257 406.243 289.194C406.378 289.132 406.5 289.044 406.601 288.935C406.702 288.826 406.781 288.697 406.833 288.558Z" fill="#212941"/>
<path d="M407.647 307.33C405.839 318.632 405.019 330.069 405.195 341.513C405.183 341.818 405.292 342.115 405.499 342.34C405.706 342.564 405.993 342.698 406.298 342.71C406.603 342.723 406.901 342.613 407.125 342.407C407.35 342.2 407.483 341.912 407.495 341.607C408.236 332.637 409.485 316.583 409.897 307.59C409.931 307.292 409.846 306.992 409.659 306.757C409.472 306.522 409.2 306.37 408.902 306.336C408.603 306.301 408.304 306.387 408.068 306.573C407.833 306.76 407.682 307.032 407.647 307.33Z" fill="#212941"/>
<path d="M427.31 318.681C426.687 308.368 431.324 298.483 438.325 290.66C442.405 286.099 448.781 282.787 452.297 287.79C454.747 291.277 454.597 298.409 453.523 302.542C451.448 310.861 447.941 318.755 443.157 325.871C443.656 330.73 443.025 335.638 441.312 340.212C439.599 344.786 436.851 348.902 433.283 352.238C432.984 364.76 427.869 376.684 419.003 385.531C418.783 385.715 418.503 385.81 418.217 385.798C417.931 385.786 417.659 385.668 417.455 385.467C417.252 385.266 417.131 384.995 417.116 384.709C417.101 384.424 417.193 384.142 417.374 383.921C425.605 375.194 430.096 363.595 429.889 351.601C429.878 351.358 429.921 351.116 430.013 350.891C430.105 350.666 430.245 350.463 430.422 350.297C433.773 347.216 436.334 343.374 437.888 339.095C439.443 334.816 439.945 330.226 439.353 325.712C439.276 325.242 439.384 324.76 439.654 324.367C444.377 317.445 447.821 309.733 449.823 301.597C450.674 298.287 450.931 290.617 448.427 289.342C444.517 287.339 436.197 298.531 433.375 305.479C431.509 309.907 430.746 314.721 431.151 319.509C431.186 319.866 431.117 320.226 430.954 320.546C430.791 320.866 430.54 321.132 430.231 321.315C426.412 323.454 423.158 326.474 420.739 330.123C418.321 333.773 416.807 337.946 416.325 342.298C416.217 343.779 414.357 343.758 410.764 349.198C409.294 351.345 408.171 353.711 407.436 356.208C407.351 356.486 407.163 356.721 406.909 356.863C406.656 357.006 406.357 357.045 406.075 356.972C405.794 356.899 405.551 356.72 405.399 356.473C405.246 356.226 405.195 355.929 405.256 355.644C406.619 350.31 409.369 345.431 413.225 341.502C413.611 336.858 415.089 332.371 417.536 328.405C419.984 324.44 423.332 321.108 427.31 318.681Z" fill="#212941"/>
<path d="M417.319 365.946C428.239 338.452 431.202 335.245 441.043 312.455C441.141 312.184 441.134 311.886 441.023 311.62C440.912 311.354 440.705 311.139 440.443 311.019C440.181 310.898 439.884 310.88 439.61 310.968C439.335 311.057 439.104 311.245 438.962 311.496C435.62 318.359 420.028 346.545 413.892 364.692C413.811 364.922 409.887 376.452 411.778 377.011C413.011 377.372 412.903 377.066 417.319 365.946Z" fill="#212941"/>
<path d="M404.718 287.769C406.087 282.978 408.953 276.78 413.918 277.24C417.785 277.603 419.99 281.053 421.106 285.77C421.378 285.671 421.603 285.472 421.735 285.214C421.867 284.956 421.897 284.658 421.819 284.379C421.403 282.608 420.639 280.938 419.572 279.466C419.604 279.236 426.899 180.485 407.113 159.434C406.839 159.143 406.481 158.945 406.089 158.867C405.698 158.789 405.292 158.835 404.927 158.998C404.563 159.162 404.258 159.434 404.056 159.779C403.854 160.123 403.764 160.522 403.798 160.919C405.82 183.889 404.548 207.609 404.385 230.839C404.343 249.207 405.716 269.636 403.853 287.81C403.828 288.054 403.866 288.3 403.963 288.525C404.06 288.749 404.213 288.945 404.408 289.094C404.603 289.243 404.832 289.339 405.074 289.373C405.317 289.408 405.564 289.38 405.792 289.292C405.609 289.295 405.427 289.253 405.263 289.17C405.099 289.086 404.958 288.964 404.853 288.814C404.747 288.664 404.679 288.49 404.656 288.308C404.632 288.126 404.654 287.941 404.718 287.769Z" fill="#3A5AB7"/>
<path d="M351.18 313.72C350.998 291.573 352.415 268.64 352.454 246.33C352.47 218.898 351.723 189.29 352.075 162.578C352.078 162.324 352.03 162.072 351.932 161.838C351.835 161.603 351.69 161.391 351.508 161.215C351.325 161.039 351.109 160.901 350.871 160.812C350.634 160.722 350.38 160.682 350.127 160.694C339.984 161.168 332.026 173.022 330.034 182.903C327.228 196.889 329.818 214.109 322.775 226.476C320.174 230.257 316.915 233.539 313.152 236.166C312.917 236.36 312.731 236.607 312.611 236.887C312.491 237.167 312.44 237.472 312.462 237.776C312.478 238.006 313.628 301.877 313.295 327.071C313.104 341.895 313.361 356.705 313.295 371.512C313.216 391.929 312.556 390.945 313.564 391.922C313.753 392.107 313.979 392.25 314.227 392.344C314.475 392.437 314.739 392.478 315.003 392.465L322.062 391.846C322.378 391.818 322.681 391.711 322.945 391.536C323.21 391.361 323.426 391.123 323.576 390.844C323.725 390.564 323.803 390.252 323.801 389.935C323.8 389.619 323.72 389.307 323.569 389.029C321.566 385.276 320.521 381.087 320.528 376.834C320.534 372.581 321.591 368.395 323.605 364.649C323.781 364.281 323.833 363.868 323.756 363.468C323.679 363.069 323.475 362.705 323.175 362.429C322.632 361.929 322.129 361.386 321.673 360.805C322.086 361.578 322.547 362.324 323.053 363.039C323.226 363.278 323.333 363.559 323.363 363.853C323.393 364.147 323.346 364.443 323.226 364.713C319.808 372.241 318.513 381.043 322.076 388.546C322.191 388.812 322.199 389.112 322.099 389.384C321.998 389.657 321.796 389.879 321.535 390.006C321.275 390.133 320.975 390.155 320.699 390.067C320.422 389.979 320.191 389.787 320.052 389.532C318.232 385.574 317.264 381.278 317.211 376.922C317.159 372.566 318.022 368.247 319.746 364.246C312.411 353.273 314.698 338.026 320.862 326.476C325.703 317.404 318.941 303.457 324.972 293.096C333.006 279.296 342.187 282.38 345.646 296.21C348.176 306.351 346.081 315.99 342.854 325.926C345.519 331.592 346.981 337.75 347.148 344.009C347.315 350.269 346.182 356.496 343.822 362.296C348.485 371.224 345.833 383.578 340.255 391.623C340.161 391.759 340.04 391.872 339.898 391.957C339.756 392.041 339.598 392.094 339.435 392.112C339.271 392.13 339.105 392.112 338.949 392.06C338.792 392.009 338.649 391.924 338.528 391.812C338.557 391.96 338.613 392.101 338.693 392.228C339.45 393.452 340.474 392.292 346.927 392.366C347.229 392.366 348.705 392.414 350.246 392.596C350.438 392.618 350.632 392.601 350.818 392.547C351.003 392.493 351.176 392.403 351.326 392.281C351.476 392.159 351.6 392.009 351.691 391.839C351.782 391.669 351.838 391.482 351.856 391.29C354.269 365.511 351.38 339.494 351.18 313.72Z" fill="#3A5AB7"/>
<path d="M319.741 364.267C312.407 353.294 314.693 338.047 320.857 326.496C325.698 317.425 318.936 303.478 324.967 293.117C333.003 279.317 342.183 282.401 345.642 296.231C348.172 306.371 346.076 316.011 342.85 325.947C345.515 331.613 346.977 337.771 347.143 344.03C347.31 350.29 346.178 356.516 343.818 362.317C348.48 371.245 345.828 383.599 340.251 391.644C340.069 391.87 339.809 392.02 339.522 392.062C339.235 392.105 338.943 392.038 338.704 391.874C338.464 391.71 338.296 391.462 338.232 391.179C338.167 390.897 338.212 390.6 338.358 390.349C343.418 382.817 345.46 370.976 340.747 363.168C340.616 362.949 340.542 362.701 340.53 362.446C340.518 362.191 340.57 361.937 340.681 361.707C345.488 351.539 344.328 336.782 339.216 326.947C339.103 326.729 339.035 326.49 339.015 326.245C338.995 325.999 339.024 325.753 339.101 325.519C342.132 316.142 344.368 306.756 341.941 297.16C338.972 285.412 333.903 285.43 328.293 295.053C323.044 304.058 329.742 318 324.22 328.295C318.591 338.785 316.151 353.287 323.056 363.06C323.228 363.299 323.335 363.58 323.365 363.874C323.395 364.168 323.348 364.464 323.228 364.734C319.81 372.26 318.518 381.064 322.078 388.567C322.193 388.833 322.202 389.133 322.101 389.405C322 389.677 321.799 389.9 321.538 390.027C321.277 390.154 320.977 390.176 320.701 390.088C320.425 389.999 320.193 389.808 320.054 389.553C318.233 385.596 317.264 381.3 317.21 376.943C317.156 372.587 318.019 368.268 319.741 364.267Z" fill="#212941"/>
<path d="M261.682 372.549C260.212 372.025 262.545 372.588 261.859 373.973C261.725 374.24 261.49 374.442 261.206 374.536C260.922 374.63 260.613 374.608 260.346 374.474C257.435 373.451 254.823 371.722 252.743 369.444C250.663 367.165 249.18 364.407 248.425 361.415C239.161 359.115 238.001 343.567 245.062 337.548C243.999 333.247 244.041 328.746 245.184 324.465C247.378 316.993 254.154 313.971 258.655 321.071C259.413 322.274 259.992 323.581 260.373 324.951C260.631 324.633 260.775 324.239 260.783 323.831C261.553 296.155 259.826 266.712 260.898 239.554C260.916 239.051 260.735 238.561 260.395 238.19C260.054 237.819 259.582 237.596 259.079 237.571C249.499 237.088 239.207 239.03 233.891 246.972C227.327 256.772 229.521 270.954 226.368 281.472C223.636 290.561 218.116 292.852 209.074 295.092C208.635 295.2 208.249 295.461 207.985 295.827C207.72 296.194 207.594 296.643 207.63 297.093C208.715 311.652 208.299 327.009 208.154 341.449C208.154 341.738 208.092 342.024 207.973 342.288C207.375 343.576 207.586 344.326 208.145 344.664C208.867 341.998 210.225 339.547 212.101 337.52C212.463 326.913 216.602 316.784 223.771 308.959C232.353 299.441 238.165 302.728 240.616 311.05C242.203 316.45 242.822 329.91 239.552 342.357C237.791 349.274 234.847 355.835 230.851 361.748C224.151 371.459 227.985 379.755 217.741 386.839C217.541 390.241 216.245 393.486 214.047 396.09L219.125 395.466C219.408 395.428 219.665 395.283 219.846 395.062C220.026 394.841 220.117 394.56 220.098 394.275C220.485 392.808 221.071 391.4 221.839 390.091C221.032 391.161 220.465 392.393 220.179 393.702C220.159 393.849 220.111 393.991 220.037 394.119C219.963 394.247 219.864 394.359 219.746 394.449C219.629 394.539 219.495 394.605 219.352 394.643C219.209 394.682 219.059 394.691 218.913 394.672C218.766 394.652 218.624 394.604 218.496 394.53C218.368 394.456 218.256 394.357 218.166 394.239C218.076 394.122 218.01 393.988 217.971 393.845C217.933 393.702 217.924 393.552 217.943 393.406C218.313 387.476 223.017 383.212 228.362 380.618C227.75 375.697 228.89 370.717 231.582 366.553C232.374 365.172 233.592 364.085 235.055 363.457C236.518 362.828 238.145 362.692 239.692 363.069C241.498 363.751 243.13 364.825 244.472 366.213C245.814 367.601 246.832 369.268 247.454 371.096C256.266 373.591 260.005 382.52 261.254 391.536C261.277 391.824 261.189 392.111 261.01 392.338C260.83 392.565 260.571 392.716 260.285 392.761C259.999 392.805 259.707 392.741 259.467 392.579C259.226 392.418 259.056 392.172 258.989 391.89C258.212 386.181 255.447 380.929 251.18 377.057C255.376 380.88 257.335 386.662 259.191 392.824C259.3 393.176 259.53 393.479 259.841 393.679C260.151 393.878 260.522 393.962 260.888 393.915C261.255 393.867 261.592 393.692 261.842 393.42C262.091 393.148 262.237 392.797 262.253 392.428C262.531 386.434 262.333 380.192 262.782 374.226C262.807 373.865 262.713 373.505 262.514 373.202C262.316 372.899 262.024 372.67 261.682 372.549Z" fill="#3A5AB7"/>
<path d="M212.102 337.516C212.463 326.909 216.602 316.78 223.772 308.954C232.353 299.437 238.165 302.721 240.617 311.045C242.204 316.445 242.823 329.905 239.552 342.353C237.791 349.27 234.847 355.83 230.851 361.744C224.151 371.455 227.985 379.751 217.741 386.835C217.487 390.963 215.643 394.832 212.596 397.629C212.372 397.81 212.088 397.901 211.8 397.883C211.512 397.865 211.242 397.74 211.042 397.532C210.842 397.324 210.728 397.048 210.722 396.76C210.716 396.471 210.818 396.191 211.009 395.975C212.312 394.685 213.336 393.143 214.019 391.441C214.702 389.74 215.029 387.917 214.979 386.085C214.977 385.855 215.032 385.629 215.139 385.425C215.246 385.222 215.401 385.048 215.591 384.919C225.29 378.212 220.517 370.659 227.843 359.699C235.08 348.286 238.63 334.923 238.011 321.423C237.498 308.945 234.998 302.261 226.587 311.503C221.644 317.048 218.104 323.699 216.265 330.896C214.613 337.412 215.65 338.401 214.611 339.28C212.088 341.514 210.37 344.517 209.723 347.824C209.662 348.113 209.489 348.366 209.243 348.529C208.997 348.692 208.697 348.752 208.407 348.696C208.117 348.64 207.861 348.472 207.694 348.229C207.526 347.986 207.46 347.687 207.511 347.397C208.024 343.72 209.623 340.279 212.102 337.516Z" fill="#212941"/>
<path d="M228.364 380.613C227.752 375.692 228.892 370.713 231.584 366.549C232.376 365.167 233.595 364.08 235.057 363.452C236.52 362.823 238.147 362.687 239.694 363.064C241.5 363.747 243.132 364.82 244.474 366.208C245.816 367.596 246.835 369.263 247.457 371.091C256.268 373.587 260.008 382.515 261.257 391.531C261.279 391.82 261.192 392.106 261.012 392.333C260.832 392.56 260.574 392.711 260.288 392.756C260.002 392.801 259.709 392.736 259.469 392.575C259.229 392.413 259.058 392.167 258.991 391.885C257.627 384.167 253.292 375.939 245.651 374.495C245.318 374.43 245.01 374.275 244.758 374.047C244.507 373.819 244.323 373.527 244.225 373.202C243.524 370.771 241.988 368.665 239.887 367.255C237.781 366.019 236.136 366.838 234.692 368.819C232.379 372.642 231.504 377.164 232.224 381.574C232.264 381.973 232.176 382.374 231.972 382.719C231.768 383.064 231.459 383.334 231.09 383.49C226.586 385.383 221.17 388.861 220.181 393.698C220.161 393.845 220.113 393.986 220.039 394.114C219.965 394.242 219.866 394.355 219.749 394.445C219.631 394.535 219.497 394.601 219.354 394.639C219.211 394.677 219.062 394.687 218.915 394.667C218.768 394.648 218.626 394.599 218.498 394.525C218.37 394.451 218.258 394.352 218.168 394.235C218.078 394.117 218.012 393.983 217.974 393.84C217.935 393.697 217.926 393.548 217.945 393.401C218.316 387.472 223.019 383.207 228.364 380.613Z" fill="#212941"/>
<path d="M245.063 337.548C243.999 333.247 244.041 328.746 245.185 324.465C247.379 316.993 254.155 313.97 258.656 321.071C260.773 324.927 261.618 329.355 261.068 333.721C261.063 333.872 261.029 334.02 260.966 334.158C260.904 334.295 260.815 334.419 260.705 334.523C260.594 334.626 260.465 334.706 260.323 334.76C260.182 334.813 260.032 334.838 259.88 334.833C259.729 334.828 259.581 334.793 259.443 334.731C259.306 334.668 259.182 334.579 259.078 334.469C258.975 334.359 258.895 334.229 258.841 334.088C258.788 333.946 258.763 333.796 258.768 333.645C259.019 329.844 258.065 326.062 256.043 322.835C250.723 315.431 245.941 327.587 249.072 337.764C249.198 338.171 249.184 338.609 249.031 339.007C248.879 339.406 248.598 339.741 248.232 339.961C242.59 343.36 242.896 357.178 250.157 357.935C250.559 357.975 250.936 358.144 251.233 358.417C251.53 358.69 251.73 359.052 251.804 359.448C252.287 362.206 253.399 364.816 255.055 367.074C256.71 369.332 258.864 371.178 261.349 372.469C261.481 372.535 261.599 372.627 261.696 372.739C261.793 372.851 261.867 372.981 261.913 373.122C261.96 373.262 261.978 373.41 261.967 373.558C261.957 373.706 261.917 373.85 261.85 373.982C261.784 374.114 261.692 374.232 261.58 374.329C261.468 374.426 261.338 374.5 261.198 374.546C260.914 374.64 260.604 374.618 260.337 374.484C257.426 373.46 254.815 371.731 252.735 369.453C250.654 367.174 249.171 364.416 248.416 361.424C239.161 359.122 238.002 343.567 245.063 337.548Z" fill="#212941"/>
<path d="M112.221 367.782C115.41 368.079 118.362 369.591 120.467 372.004C122.185 365.854 127.583 356.068 132.356 353.604C133.139 353.19 134 352.943 134.883 352.879C135.767 352.816 136.654 352.937 137.489 353.235C138.323 353.533 139.086 354.001 139.73 354.61C140.373 355.219 140.883 355.955 141.227 356.771C142.377 358.841 140.916 358.064 143.738 353.02C142.952 353.71 142.059 354.292 141.54 354.014C140.367 353.384 141.473 350.541 142.071 349.515C144.256 345.777 149.164 342.235 152.504 344.802C153.501 345.578 154.267 346.612 154.719 347.792C154.974 330.749 154.758 317.94 154.36 300.398C154.354 300.137 154.294 299.88 154.186 299.643C154.077 299.405 153.921 299.192 153.727 299.017C153.534 298.842 153.306 298.708 153.059 298.624C152.812 298.539 152.55 298.506 152.29 298.526C137.763 299.63 129.665 308.715 128.039 323.366C127.273 330.174 127.896 337.143 126.458 343.891C125.921 346.163 124.88 348.285 123.413 350.101C119.783 354.419 115.517 358.16 110.763 361.197C110.546 361.289 110.358 361.438 110.219 361.628C110.079 361.818 109.994 362.043 109.972 362.278C109.846 364.55 110.001 366.83 110.432 369.065C110.584 370.008 110.812 369.893 111.481 369.877C111.251 369.746 111.075 369.538 110.983 369.29C110.891 369.042 110.888 368.769 110.976 368.52C111.065 368.271 111.238 368.06 111.465 367.925C111.693 367.79 111.96 367.739 112.221 367.782Z" fill="#3A5AB7"/>
<path d="M149.5 347.884C150.88 348.432 151.605 350.794 153.479 350.125C153.847 349.993 154.164 349.747 154.383 349.423C152.798 350.424 152.221 346.895 149.5 347.884Z" fill="#3A5AB7"/>
<path d="M57.9234 360.019C57.9183 359.532 57.7257 359.066 57.3855 358.717C57.0453 358.369 56.5838 358.165 56.0972 358.149C49.5422 357.967 42.7756 359.241 38.6172 363.947C41.839 366.499 44.2131 369.966 45.4275 373.892C46.5522 370.932 48.2197 368.159 51.1982 369.35C54.6482 370.73 57.5922 378.623 57.4335 379.87C57.7877 379.093 57.9602 362.328 57.9234 360.019Z" fill="#3A5AB7"/>
</svg>
