<svg width="232" height="48" viewBox="0 0 232 48" fill="none" xmlns="http://www.w3.org/2000/svg">
<path fill-rule="evenodd" clip-rule="evenodd" d="M33.1591 46.1852L53.8733 34.2766C56.4278 32.8081 58 30.1037 58 27.1779L57.9998 3.99378C57.9998 1.46101 55.227 -0.117856 53.0175 1.1568L33.1702 12.6082C30.5926 14.0953 27.4071 14.0953 24.8296 12.6082L4.98245 1.1568C2.77297 -0.117856 6.98935e-05 1.46101 6.98935e-05 3.99378L0 27.1779C0 30.1037 1.57218 32.8081 4.12672 34.2766L24.8409 46.1852C27.4128 47.6637 30.5872 47.6637 33.1591 46.1852ZM28.1755 21.4315L12.344 12.4286C11.7915 12.1146 11.1028 12.5094 11.1028 13.1404V31.0527C11.1028 31.6366 11.4159 32.1766 11.9249 32.4706L14.8283 34.1482C15.3805 34.4673 16.0742 34.0727 16.0742 33.4394V21.6798C16.0742 21.0481 16.7645 20.6532 17.3168 20.9689L28.171 27.1719C28.6841 27.4649 29.3157 27.4647 29.8285 27.1714L46.1 17.8568C46.6125 17.5635 46.928 17.0219 46.928 16.4356V13.1393C46.928 12.5085 46.24 12.1134 45.6875 12.4272L29.8245 21.4322C29.3138 21.722 28.6862 21.7217 28.1755 21.4315ZM28.1673 29.6494L18.8098 24.2759C18.2576 23.9589 17.5658 24.3537 17.5658 24.9862V28.3582C17.5658 28.9436 17.8803 29.4845 18.3915 29.7782L28.167 35.3944C28.6819 35.6903 29.3178 35.6898 29.8322 35.393L39.5655 29.7787C40.0753 29.4845 40.3889 28.9443 40.3889 28.3601V24.989C40.3889 24.3558 39.6959 23.9612 39.1434 24.2797L29.832 29.648C29.3176 29.9446 28.6822 29.9453 28.1673 29.6494Z" fill="white"/>
<path d="M88.1305 14.7484H76.5809V21.6496H87.8005V27.1374H76.5809V38.3623H70.8887V9.2606H88.1305V14.7484ZM94.6707 15.0809C93.7908 15.0809 93.0207 14.7621 92.3607 14.1247C91.7283 13.4596 91.412 12.6834 91.412 11.7966C91.412 10.9098 91.7283 10.1337 92.3607 9.46848C93.0207 8.80329 93.7908 8.4707 94.6707 8.4707C95.5781 8.4707 96.3482 8.80329 96.9806 9.46848C97.6405 10.1337 97.9705 10.9098 97.9705 11.7966C97.9705 12.6834 97.6405 13.4596 96.9806 14.1247C96.3482 14.7621 95.5781 15.0809 94.6707 15.0809ZM92.0308 38.3623V17.5754H97.3518V38.3623H92.0308ZM113.689 16.9933C115.944 16.9933 117.8 17.7554 119.258 19.2799C120.743 20.8044 121.485 22.9106 121.485 25.5991V38.3623H116.164V26.2643C116.164 24.8786 115.793 23.8252 115.05 23.1047C114.308 22.3564 113.318 21.9822 112.08 21.9822C110.705 21.9822 109.606 22.4117 108.781 23.271C107.956 24.1303 107.543 25.4191 107.543 27.1374V38.3623H102.222V17.5754H107.543V19.9035C108.836 17.9633 110.884 16.9933 113.689 16.9933ZM154.531 9.2606V38.3623H148.88V19.4878L140.754 32.9993H140.094L131.968 19.5293V38.3623H126.276V9.2606H132.133L140.424 23.0215L148.674 9.2606H154.531ZM175.338 17.5754H180.659V38.3623H175.338V35.9094C173.743 37.9328 171.502 38.9443 168.615 38.9443C165.865 38.9443 163.5 37.8912 161.52 35.7847C159.567 33.6507 158.591 31.0453 158.591 27.9688C158.591 24.8924 159.567 22.301 161.52 20.1945C163.5 18.0605 165.865 16.9933 168.615 16.9933C171.502 16.9933 173.743 18.0049 175.338 20.0282V17.5754ZM165.521 32.2094C166.593 33.2903 167.955 33.8307 169.605 33.8307C171.254 33.8307 172.616 33.2903 173.688 32.2094C174.788 31.1007 175.338 29.6871 175.338 27.9688C175.338 26.2505 174.788 24.8508 173.688 23.7699C172.616 22.6612 171.254 22.1069 169.605 22.1069C167.955 22.1069 166.593 22.6612 165.521 23.7699C164.448 24.8508 163.912 26.2505 163.912 27.9688C163.912 29.6871 164.448 31.1007 165.521 32.2094ZM188.423 15.0809C187.516 15.0809 186.732 14.7621 186.072 14.1247C185.44 13.4596 185.123 12.6834 185.123 11.7966C185.123 10.9098 185.44 10.1337 186.072 9.46848C186.732 8.80329 187.516 8.4707 188.423 8.4707C189.303 8.4707 190.06 8.80329 190.692 9.46848C191.352 10.1337 191.682 10.9098 191.682 11.7966C191.682 12.6834 191.352 13.4596 190.692 14.1247C190.06 14.7621 189.303 15.0809 188.423 15.0809ZM185.742 38.778V17.5754H191.063V38.778C191.063 41.8267 190.321 44.0441 188.836 45.4298C187.378 46.8434 185.123 47.4532 182.071 47.2591V42.1039C183.336 42.1871 184.257 41.9654 184.835 41.4388C185.44 40.9121 185.742 40.0253 185.742 38.778ZM213.489 35.7847C211.371 37.8912 208.787 38.9443 205.734 38.9443C202.682 38.9443 200.097 37.8912 197.979 35.7847C195.889 33.6507 194.845 31.0453 194.845 27.9688C194.845 24.8924 195.889 22.301 197.979 20.1945C200.097 18.0605 202.682 16.9933 205.734 16.9933C208.787 16.9933 211.371 18.0605 213.489 20.1945C215.607 22.301 216.664 24.8924 216.664 27.9688C216.664 31.0453 215.607 33.6507 213.489 35.7847ZM201.733 32.0846C202.805 33.1656 204.139 33.706 205.734 33.706C207.329 33.706 208.663 33.1656 209.735 32.0846C210.808 31.0037 211.343 29.6318 211.343 27.9688C211.343 26.3059 210.808 24.9339 209.735 23.853C208.663 22.7721 207.329 22.2316 205.734 22.2316C204.139 22.2316 202.805 22.7721 201.733 23.853C200.688 24.9339 200.166 26.3059 200.166 27.9688C200.166 29.6318 200.688 31.0037 201.733 32.0846ZM225.729 21.1507C226.225 19.8204 227.036 18.8226 228.162 18.1574C229.319 17.4922 230.595 17.1596 232 17.1596V23.1463C230.378 22.9522 228.92 23.2848 227.627 24.144C226.362 25.0033 225.729 26.4306 225.729 28.4261V38.3623H220.409V17.5754H225.729V21.1507Z" fill="white"/>
</svg>
