<svg width="180" height="36" viewBox="0 0 180 36" fill="none" xmlns="http://www.w3.org/2000/svg">
<path fill-rule="evenodd" clip-rule="evenodd" d="M25.7269 35.1432L41.7982 25.941C43.7802 24.8063 45 22.7165 45 20.4557L44.9998 2.5407C44.9998 0.583566 42.8485 -0.636469 41.1343 0.348489L25.7355 9.19728C23.7357 10.3464 21.2642 10.3464 19.2643 9.19728L3.8657 0.348489C2.15144 -0.636469 5.42277e-05 0.583566 5.42277e-05 2.5407L0 20.4557C0 22.7165 1.2198 24.8063 3.20176 25.941L19.2731 35.1432C21.2685 36.2856 23.7315 36.2856 25.7269 35.1432ZM21.8603 16.0153L9.57722 9.0585C9.14857 8.81586 8.61422 9.12096 8.61422 9.60858V23.4498C8.61422 23.9011 8.85715 24.3183 9.25209 24.5455L11.5047 25.8418C11.9332 26.0884 12.4713 25.7835 12.4713 25.2941V16.2072C12.4713 15.719 13.007 15.4139 13.4354 15.6578L21.8568 20.451C22.2549 20.6775 22.7449 20.6773 23.1428 20.4507L35.7672 13.253C36.1649 13.0264 36.4097 12.6079 36.4097 12.1549V9.60768C36.4097 9.12024 35.8758 8.81496 35.4472 9.05742L23.1397 16.0158C22.7435 16.2398 22.2565 16.2396 21.8603 16.0153ZM21.8539 22.3655L14.5938 18.2133C14.1654 17.9683 13.6286 18.2734 13.6286 18.7621V21.3678C13.6286 21.8201 13.8727 22.2381 14.2692 22.4651L21.8537 26.8049C22.2532 27.0335 22.7466 27.0331 23.1457 26.8038L30.6974 22.4654C31.0929 22.2381 31.3362 21.8207 31.3362 21.3692V18.7643C31.3362 18.275 30.7986 17.9701 30.3699 18.2162L23.1455 22.3644C22.7464 22.5936 22.2534 22.5941 21.8539 22.3655Z" fill="#122E82"/>
<path d="M68.3773 10.8509H59.4164V16.1837H68.1212V20.4242H59.4164V29.098H55V6.61038H68.3773V10.8509ZM73.4515 11.1079C72.7689 11.1079 72.1714 10.8616 71.6594 10.369C71.1687 9.85503 70.9233 9.2553 70.9233 8.57002C70.9233 7.88474 71.1687 7.28501 71.6594 6.77101C72.1714 6.257 72.7689 6 73.4515 6C74.1556 6 74.7531 6.257 75.2437 6.77101C75.7558 7.28501 76.0118 7.88474 76.0118 8.57002C76.0118 9.2553 75.7558 9.85503 75.2437 10.369C74.7531 10.8616 74.1556 11.1079 73.4515 11.1079ZM71.4033 29.098V13.0354H75.5317V29.098H71.4033ZM88.2073 12.5857C89.9566 12.5857 91.3968 13.1746 92.5277 14.3526C93.6798 15.5305 94.2558 17.1581 94.2558 19.2356V29.098H90.1274V19.7496C90.1274 18.6788 89.8394 17.8649 89.2634 17.3081C88.6873 16.7298 87.9192 16.4407 86.9591 16.4407C85.8923 16.4407 85.039 16.7726 84.3989 17.4366C83.7588 18.1006 83.4388 19.0964 83.4388 20.4242V29.098H79.3104V13.0354H83.4388V14.8344C84.4415 13.3352 86.0311 12.5857 88.2073 12.5857ZM119.895 6.61038V29.098H115.511V14.5132L109.206 24.9539H108.694L102.389 14.5453V29.098H97.9729V6.61038H102.517L108.95 17.2438L115.35 6.61038H119.895ZM136.038 13.0354H140.167V29.098H136.038V27.2027C134.801 28.7661 133.062 29.5478 130.822 29.5478C128.688 29.5478 126.853 28.734 125.317 27.1063C123.802 25.4572 123.045 23.444 123.045 21.0667C123.045 18.6895 123.802 16.6871 125.317 15.0593C126.853 13.4103 128.688 12.5857 130.822 12.5857C133.062 12.5857 134.801 13.3673 136.038 14.9308V13.0354ZM128.422 24.3435C129.254 25.1788 130.31 25.5964 131.59 25.5964C132.87 25.5964 133.926 25.1788 134.758 24.3435C135.611 23.4868 136.038 22.3945 136.038 21.0667C136.038 19.739 135.611 18.6573 134.758 17.8221C133.926 16.9654 132.87 16.5371 131.59 16.5371C130.31 16.5371 129.254 16.9654 128.422 17.8221C127.589 18.6573 127.173 19.739 127.173 21.0667C127.173 22.3945 127.589 23.4868 128.422 24.3435ZM146.191 11.1079C145.487 11.1079 144.878 10.8616 144.366 10.369C143.876 9.85503 143.63 9.2553 143.63 8.57002C143.63 7.88474 143.876 7.28501 144.366 6.77101C144.878 6.257 145.487 6 146.191 6C146.873 6 147.46 6.257 147.951 6.77101C148.463 7.28501 148.719 7.88474 148.719 8.57002C148.719 9.2553 148.463 9.85503 147.951 10.369C147.46 10.8616 146.873 11.1079 146.191 11.1079ZM144.11 29.4193V13.0354H148.239V29.4193C148.239 31.7751 147.663 33.4886 146.511 34.5593C145.38 35.6516 143.63 36.1228 141.262 35.9728V31.9893C142.244 32.0536 142.958 31.8823 143.406 31.4753C143.876 31.0683 144.11 30.3831 144.11 29.4193ZM165.638 27.1063C163.995 28.734 161.99 29.5478 159.621 29.5478C157.253 29.5478 155.248 28.734 153.605 27.1063C151.983 25.4572 151.173 23.444 151.173 21.0667C151.173 18.6895 151.983 16.6871 153.605 15.0593C155.248 13.4103 157.253 12.5857 159.621 12.5857C161.99 12.5857 163.995 13.4103 165.638 15.0593C167.281 16.6871 168.101 18.6895 168.101 21.0667C168.101 23.444 167.281 25.4572 165.638 27.1063ZM156.517 24.2471C157.349 25.0824 158.384 25.5 159.621 25.5C160.859 25.5 161.894 25.0824 162.726 24.2471C163.558 23.4119 163.973 22.3517 163.973 21.0667C163.973 19.7817 163.558 18.7216 162.726 17.8863C161.894 17.0511 160.859 16.6335 159.621 16.6335C158.384 16.6335 157.349 17.0511 156.517 17.8863C155.706 18.7216 155.301 19.7817 155.301 21.0667C155.301 22.3517 155.706 23.4119 156.517 24.2471ZM175.135 15.7982C175.52 14.7702 176.149 13.9992 177.023 13.4852C177.92 12.9712 178.91 12.7142 180 12.7142V17.3402C178.741 17.1902 177.611 17.4472 176.607 18.1112C175.626 18.7752 175.135 19.8781 175.135 21.4201V29.098H171.007V13.0354H175.135V15.7982Z" fill="#122E82"/>
</svg>
