<svg width="48" height="48" viewBox="0 0 48 48" fill="none" xmlns="http://www.w3.org/2000/svg">
<path d="M12 26H4C3.46957 26 2.96086 26.2107 2.58579 26.5858C2.21071 26.9609 2 27.4696 2 28V44C2 44.5304 2.21071 45.0391 2.58579 45.4142C2.96086 45.7893 3.46957 46 4 46H12C12.5304 46 13.0391 45.7893 13.4142 45.4142C13.7893 45.0391 14 44.5304 14 44V28C14 27.4696 13.7893 26.9609 13.4142 26.5858C13.0391 26.2107 12.5304 26 12 26ZM10 42H6V30H10V42ZM44 18H36C35.4696 18 34.9609 18.2107 34.5858 18.5858C34.2107 18.9609 34 19.4696 34 20V44C34 44.5304 34.2107 45.0391 34.5858 45.4142C34.9609 45.7893 35.4696 46 36 46H44C44.5304 46 45.0391 45.7893 45.4142 45.4142C45.7893 45.0391 46 44.5304 46 44V20C46 19.4696 45.7893 18.9609 45.4142 18.5858C45.0391 18.2107 44.5304 18 44 18ZM42 42H38V22H42V42ZM28 2H20C19.4696 2 18.9609 2.21071 18.5858 2.58579C18.2107 2.96086 18 3.46957 18 4V44C18 44.5304 18.2107 45.0391 18.5858 45.4142C18.9609 45.7893 19.4696 46 20 46H28C28.5304 46 29.0391 45.7893 29.4142 45.4142C29.7893 45.0391 30 44.5304 30 44V4C30 3.46957 29.7893 2.96086 29.4142 2.58579C29.0391 2.21071 28.5304 2 28 2ZM26 42H22V6H26V42Z" fill="#122E82"/>
</svg>
