<svg width="48" height="48" viewBox="0 0 48 48" fill="none" xmlns="http://www.w3.org/2000/svg">
<path d="M39.26 7.30001C39.0277 7.11205 38.7561 6.97855 38.4654 6.90933C38.1747 6.84011 37.8721 6.83692 37.58 6.90001C35.4429 7.34789 33.2367 7.3536 31.0973 6.91677C28.9579 6.47995 26.9305 5.60983 25.14 4.36001C24.8052 4.12775 24.4075 4.0033 24 4.0033C23.5925 4.0033 23.1948 4.12775 22.86 4.36001C21.0695 5.60983 19.0422 6.47995 16.9027 6.91677C14.7633 7.3536 12.5571 7.34789 10.42 6.90001C10.1279 6.83692 9.82534 6.84011 9.53461 6.90933C9.24388 6.97855 8.97236 7.11205 8.74001 7.30001C8.50797 7.48824 8.32105 7.72608 8.193 7.99604C8.06494 8.266 7.999 8.56122 8.00001 8.86001V23.76C7.99823 26.6275 8.68156 29.4539 9.99308 32.0039C11.3046 34.5539 13.2064 36.7537 15.54 38.42L22.84 43.62C23.1787 43.8612 23.5842 43.9908 24 43.9908C24.4158 43.9908 24.8213 43.8612 25.16 43.62L32.46 38.42C34.7937 36.7537 36.6954 34.5539 38.0069 32.0039C39.3185 29.4539 40.0018 26.6275 40 23.76V8.86001C40.001 8.56122 39.9351 8.266 39.807 7.99604C39.679 7.72608 39.4921 7.48824 39.26 7.30001ZM36 23.76C36.0015 25.9895 35.4706 28.1872 34.4513 30.17C33.432 32.1529 31.9539 33.8637 30.14 35.16L24 39.54L17.86 35.16C16.0461 33.8637 14.568 32.1529 13.5487 30.17C12.5294 28.1872 11.9985 25.9895 12 23.76V11.16C16.1929 11.5189 20.3921 10.5461 24 8.38001C27.6079 10.5461 31.8072 11.5189 36 11.16V23.76ZM27.08 19.18L21.7 24.58L19.92 22.78C19.5434 22.4034 19.0326 22.1918 18.5 22.1918C17.9674 22.1918 17.4566 22.4034 17.08 22.78C16.7034 23.1566 16.4918 23.6674 16.4918 24.2C16.4918 24.7326 16.7034 25.2434 17.08 25.62L20.28 28.82C20.4659 29.0075 20.6871 29.1563 20.9309 29.2578C21.1746 29.3593 21.436 29.4116 21.7 29.4116C21.964 29.4116 22.2254 29.3593 22.4692 29.2578C22.7129 29.1563 22.9341 29.0075 23.12 28.82L30 22C30.3766 21.6234 30.5882 21.1126 30.5882 20.58C30.5882 20.0474 30.3766 19.5366 30 19.16C29.6234 18.7834 29.1126 18.5718 28.58 18.5718C28.0474 18.5718 27.5366 18.7834 27.16 19.16L27.08 19.18Z" fill="#122E82"/>
</svg>
