<svg width="48" height="48" viewBox="0 0 48 48" fill="none" xmlns="http://www.w3.org/2000/svg">
<path d="M44 34H4C3.46957 34 2.96086 34.2107 2.58579 34.5858C2.21071 34.9609 2 35.4696 2 36C2 36.5304 2.21071 37.0391 2.58579 37.4142C2.96086 37.7893 3.46957 38 4 38H44C44.5304 38 45.0391 37.7893 45.4142 37.4142C45.7893 37.0391 46 36.5304 46 36C46 35.4696 45.7893 34.9609 45.4142 34.5858C45.0391 34.2107 44.5304 34 44 34ZM44 42H4C3.46957 42 2.96086 42.2107 2.58579 42.5858C2.21071 42.9609 2 43.4696 2 44C2 44.5304 2.21071 45.0391 2.58579 45.4142C2.96086 45.7893 3.46957 46 4 46H44C44.5304 46 45.0391 45.7893 45.4142 45.4142C45.7893 45.0391 46 44.5304 46 44C46 43.4696 45.7893 42.9609 45.4142 42.5858C45.0391 42.2107 44.5304 42 44 42ZM12 14C11.6044 14 11.2178 14.1173 10.8889 14.3371C10.56 14.5568 10.3036 14.8692 10.1522 15.2346C10.0009 15.6001 9.96126 16.0022 10.0384 16.3902C10.1156 16.7781 10.3061 17.1345 10.5858 17.4142C10.8655 17.6939 11.2219 17.8844 11.6098 17.9616C11.9978 18.0387 12.3999 17.9991 12.7654 17.8478C13.1308 17.6964 13.4432 17.44 13.6629 17.1111C13.8827 16.7822 14 16.3956 14 16C14 15.4696 13.7893 14.9609 13.4142 14.5858C13.0391 14.2107 12.5304 14 12 14ZM40 2H8C6.4087 2 4.88258 2.63214 3.75736 3.75736C2.63214 4.88258 2 6.4087 2 8V24C2 25.5913 2.63214 27.1174 3.75736 28.2426C4.88258 29.3679 6.4087 30 8 30H40C41.5913 30 43.1174 29.3679 44.2426 28.2426C45.3679 27.1174 46 25.5913 46 24V8C46 6.4087 45.3679 4.88258 44.2426 3.75736C43.1174 2.63214 41.5913 2 40 2ZM42 24C42 24.5304 41.7893 25.0391 41.4142 25.4142C41.0391 25.7893 40.5304 26 40 26H8C7.46957 26 6.96086 25.7893 6.58579 25.4142C6.21071 25.0391 6 24.5304 6 24V8C6 7.46957 6.21071 6.96086 6.58579 6.58579C6.96086 6.21071 7.46957 6 8 6H40C40.5304 6 41.0391 6.21071 41.4142 6.58579C41.7893 6.96086 42 7.46957 42 8V24ZM24 10C22.8133 10 21.6533 10.3519 20.6666 11.0112C19.6799 11.6705 18.9108 12.6075 18.4567 13.7039C18.0026 14.8003 17.8838 16.0067 18.1153 17.1705C18.3468 18.3344 18.9182 19.4035 19.7574 20.2426C20.5965 21.0818 21.6656 21.6532 22.8295 21.8847C23.9933 22.1162 25.1997 21.9974 26.2961 21.5433C27.3925 21.0892 28.3295 20.3201 28.9888 19.3334C29.6481 18.3467 30 17.1867 30 16C30 14.4087 29.3679 12.8826 28.2426 11.7574C27.1174 10.6321 25.5913 10 24 10ZM24 18C23.6044 18 23.2178 17.8827 22.8889 17.6629C22.56 17.4432 22.3036 17.1308 22.1522 16.7654C22.0009 16.3999 21.9613 15.9978 22.0384 15.6098C22.1156 15.2219 22.3061 14.8655 22.5858 14.5858C22.8655 14.3061 23.2219 14.1156 23.6098 14.0384C23.9978 13.9613 24.3999 14.0009 24.7654 14.1522C25.1308 14.3036 25.4432 14.56 25.6629 14.8889C25.8827 15.2178 26 15.6044 26 16C26 16.5304 25.7893 17.0391 25.4142 17.4142C25.0391 17.7893 24.5304 18 24 18ZM36 14C35.6044 14 35.2178 14.1173 34.8889 14.3371C34.56 14.5568 34.3036 14.8692 34.1522 15.2346C34.0009 15.6001 33.9613 16.0022 34.0384 16.3902C34.1156 16.7781 34.3061 17.1345 34.5858 17.4142C34.8655 17.6939 35.2219 17.8844 35.6098 17.9616C35.9978 18.0387 36.3999 17.9991 36.7654 17.8478C37.1308 17.6964 37.4432 17.44 37.6629 17.1111C37.8827 16.7822 38 16.3956 38 16C38 15.4696 37.7893 14.9609 37.4142 14.5858C37.0391 14.2107 36.5304 14 36 14Z" fill="#122E82"/>
</svg>
