<svg width="41" height="42" viewBox="0 0 41 42" fill="none" xmlns="http://www.w3.org/2000/svg">
<path d="M1.33478 14.7203L19.3348 25.1203C19.6388 25.2958 19.9837 25.3882 20.3348 25.3882C20.6859 25.3882 21.0307 25.2958 21.3348 25.1203L39.3348 14.7203C39.6371 14.5457 39.8884 14.2952 40.0638 13.9934C40.2393 13.6917 40.3327 13.3493 40.3348 13.0003C40.3362 12.6478 40.2444 12.3013 40.0688 11.9957C39.8932 11.6902 39.64 11.4365 39.3348 11.2603L21.3348 0.880254C21.0307 0.704717 20.6859 0.612305 20.3348 0.612305C19.9837 0.612305 19.6388 0.704717 19.3348 0.880254L1.33478 11.2603C1.02957 11.4365 0.776341 11.6902 0.600734 11.9957C0.425128 12.3013 0.333379 12.6478 0.334778 13.0003C0.336885 13.3493 0.430296 13.6917 0.605727 13.9934C0.781159 14.2952 1.0325 14.5457 1.33478 14.7203ZM20.3348 5.00025L34.3348 13.0003L20.3348 21.0003L6.33478 13.0003L20.3348 5.00025ZM37.3348 19.3403L20.3348 29.0003L3.33478 19.2603C3.10651 19.128 2.85434 19.0422 2.59278 19.0079C2.33122 18.9735 2.06545 18.9912 1.81077 19.06C1.55609 19.1288 1.31753 19.2473 1.10884 19.4086C0.900145 19.57 0.725438 19.7711 0.594778 20.0003C0.334033 20.4595 0.2655 21.0032 0.404134 21.5128C0.542768 22.0224 0.877315 22.4564 1.33478 22.7203L19.3348 33.1203C19.6388 33.2958 19.9837 33.3882 20.3348 33.3882C20.6859 33.3882 21.0307 33.2958 21.3348 33.1203L39.3348 22.7203C39.7922 22.4564 40.1268 22.0224 40.2654 21.5128C40.4041 21.0032 40.3355 20.4595 40.0748 20.0003C39.9441 19.7711 39.7694 19.57 39.5607 19.4086C39.352 19.2473 39.1135 19.1288 38.8588 19.06C38.6041 18.9912 38.3383 18.9735 38.0768 19.0079C37.8152 19.0422 37.563 19.128 37.3348 19.2603V19.3403ZM37.3348 27.3403L20.3348 37.0003L3.33478 27.2603C3.10651 27.128 2.85434 27.0422 2.59278 27.0079C2.33122 26.9735 2.06545 26.9912 1.81077 27.06C1.55609 27.1288 1.31753 27.2473 1.10884 27.4086C0.900145 27.57 0.725438 27.7711 0.594778 28.0003C0.334033 28.4595 0.2655 29.0032 0.404134 29.5128C0.542768 30.0224 0.877315 30.4564 1.33478 30.7203L19.3348 41.1203C19.6388 41.2958 19.9837 41.3882 20.3348 41.3882C20.6859 41.3882 21.0307 41.2958 21.3348 41.1203L39.3348 30.7203C39.7922 30.4564 40.1268 30.0224 40.2654 29.5128C40.4041 29.0032 40.3355 28.4595 40.0748 28.0003C39.9441 27.7711 39.7694 27.57 39.5607 27.4086C39.352 27.2473 39.1135 27.1288 38.8588 27.06C38.6041 26.9912 38.3383 26.9735 38.0768 27.0079C37.8152 27.0422 37.563 27.128 37.3348 27.2603V27.3403Z" fill="#122E82"/>
</svg>
