<svg width="37" height="41" viewBox="0 0 37 41" fill="none" xmlns="http://www.w3.org/2000/svg">
<path d="M34.9805 0.00390659C34.7178 0.00375673 34.4576 0.0553858 34.2149 0.155842C33.9722 0.256298 33.7517 0.403612 33.5659 0.589359C33.3802 0.775106 33.2329 0.995643 33.1324 1.23836C33.032 1.48108 32.9803 1.74122 32.9805 2.00391V3.27735C31.2937 5.36875 29.1618 7.05773 26.74 8.22134C24.3181 9.38496 21.6673 9.99392 18.9805 10.0039H6.98047C5.3897 10.0056 3.86459 10.6383 2.73975 11.7632C1.6149 12.888 0.982205 14.4131 0.980469 16.0039V20.0039C0.982205 21.5947 1.6149 23.1198 2.73975 24.2446C3.86459 25.3695 5.3897 26.0022 6.98047 26.0039H7.94805L3.14259 37.2167C3.012 37.5208 2.95898 37.8526 2.98829 38.1823C3.01761 38.512 3.12833 38.8292 3.31053 39.1055C3.49273 39.3818 3.7407 39.6086 4.03217 39.7654C4.32364 39.9222 4.64949 40.0041 4.98047 40.0039H12.9805C13.372 40.0041 13.7549 39.8893 14.0817 39.6737C14.4084 39.458 14.6646 39.1511 14.8184 38.791L20.2659 26.0799C22.7272 26.2606 25.1253 26.944 27.3121 28.0878C29.499 29.2316 31.4281 30.8115 32.9805 32.73V34.0039C32.9805 34.5343 33.1912 35.043 33.5663 35.4181C33.9413 35.7932 34.45 36.0039 34.9805 36.0039C35.5109 36.0039 36.0196 35.7932 36.3947 35.4181C36.7698 35.043 36.9805 34.5343 36.9805 34.0039V2.00391C36.9806 1.74122 36.929 1.48108 36.8285 1.23836C36.7281 0.995639 36.5808 0.7751 36.395 0.589353C36.2093 0.403605 35.9887 0.256292 35.746 0.155837C35.5033 0.0553815 35.2432 0.0037541 34.9805 0.00390659V0.00390659ZM6.98047 22.0039C6.45014 22.0036 5.94164 21.7927 5.56665 21.4177C5.19165 21.0427 4.98082 20.5342 4.98047 20.0039V16.0039C4.98083 15.4736 5.19166 14.9651 5.56665 14.5901C5.94165 14.2151 6.45015 14.0043 6.98047 14.0039H8.98047V22.0039H6.98047ZM11.6621 36.0039H8.01367L12.2988 26.0039H15.9473L11.6621 36.0039ZM32.9805 27.0475C29.037 23.7987 24.0898 22.0165 18.9805 22.0038H12.9805V14.0038H18.9805C24.0899 13.9907 29.0371 12.2081 32.9805 8.95913V27.0475Z" fill="#122E82"/>
</svg>
