<svg width="45" height="40" viewBox="0 0 45 40" fill="none" xmlns="http://www.w3.org/2000/svg">
<path d="M22.668 20C21.4813 20 20.3212 20.3519 19.3345 21.0112C18.3479 21.6705 17.5788 22.6075 17.1247 23.7039C16.6706 24.8003 16.5517 26.0067 16.7833 27.1705C17.0148 28.3344 17.5862 29.4035 18.4253 30.2426C19.2644 31.0818 20.3335 31.6532 21.4974 31.8847C22.6613 32.1162 23.8677 31.9974 24.9641 31.5433C26.0604 31.0892 26.9975 30.3201 27.6568 29.3334C28.3161 28.3467 28.668 27.1867 28.668 26C28.668 24.4087 28.0358 22.8826 26.9106 21.7574C25.7854 20.6321 24.2593 20 22.668 20ZM22.668 28C22.2724 28 21.8857 27.8827 21.5568 27.6629C21.2279 27.4432 20.9716 27.1308 20.8202 26.7654C20.6688 26.3999 20.6292 25.9978 20.7064 25.6098C20.7836 25.2219 20.9741 24.8655 21.2538 24.5858C21.5335 24.3061 21.8898 24.1156 22.2778 24.0384C22.6658 23.9613 23.0679 24.0009 23.4333 24.1522C23.7988 24.3036 24.1111 24.56 24.3309 24.8889C24.5507 25.2178 24.668 25.6044 24.668 26C24.668 26.5304 24.4573 27.0391 24.0822 27.4142C23.7071 27.7893 23.1984 28 22.668 28ZM21.248 15.42C21.4382 15.6021 21.6625 15.7448 21.908 15.84C22.1474 15.9458 22.4062 16.0005 22.668 16.0005C22.9297 16.0005 23.1886 15.9458 23.428 15.84C23.6735 15.7448 23.8978 15.6021 24.088 15.42L28.668 10.92C29.0552 10.5328 29.2727 10.0076 29.2727 9.46C29.2727 8.91239 29.0552 8.38722 28.668 8C28.2808 7.61278 27.7556 7.39525 27.208 7.39525C26.6604 7.39525 26.1352 7.61278 25.748 8L24.668 9.18V2C24.668 1.46957 24.4573 0.960859 24.0822 0.585786C23.7071 0.210714 23.1984 0 22.668 0C22.1375 0 21.6288 0.210714 21.2538 0.585786C20.8787 0.960859 20.668 1.46957 20.668 2V9.18L19.588 8C19.2008 7.61278 18.6756 7.39525 18.128 7.39525C17.5804 7.39525 17.0552 7.61278 16.668 8C16.2808 8.38722 16.0632 8.91239 16.0632 9.46C16.0632 10.0076 16.2808 10.5328 16.668 10.92L21.248 15.42ZM36.668 26C36.668 25.6044 36.5507 25.2178 36.3309 24.8889C36.1111 24.56 35.7988 24.3036 35.4333 24.1522C35.0679 24.0009 34.6657 23.9613 34.2778 24.0384C33.8898 24.1156 33.5335 24.3061 33.2538 24.5858C32.974 24.8655 32.7836 25.2219 32.7064 25.6098C32.6292 25.9978 32.6688 26.3999 32.8202 26.7654C32.9716 27.1308 33.2279 27.4432 33.5568 27.6629C33.8857 27.8827 34.2724 28 34.668 28C35.1984 28 35.7071 27.7893 36.0822 27.4142C36.4573 27.0391 36.668 26.5304 36.668 26ZM38.668 12H32.668C32.1375 12 31.6288 12.2107 31.2538 12.5858C30.8787 12.9609 30.668 13.4696 30.668 14C30.668 14.5304 30.8787 15.0391 31.2538 15.4142C31.6288 15.7893 32.1375 16 32.668 16H38.668C39.1984 16 39.7071 16.2107 40.0822 16.5858C40.4573 16.9609 40.668 17.4696 40.668 18V34C40.668 34.5304 40.4573 35.0391 40.0822 35.4142C39.7071 35.7893 39.1984 36 38.668 36H6.66797C6.13754 36 5.62883 35.7893 5.25376 35.4142C4.87868 35.0391 4.66797 34.5304 4.66797 34V18C4.66797 17.4696 4.87868 16.9609 5.25376 16.5858C5.62883 16.2107 6.13754 16 6.66797 16H12.668C13.1984 16 13.7071 15.7893 14.0822 15.4142C14.4573 15.0391 14.668 14.5304 14.668 14C14.668 13.4696 14.4573 12.9609 14.0822 12.5858C13.7071 12.2107 13.1984 12 12.668 12H6.66797C5.07667 12 3.55055 12.6321 2.42533 13.7574C1.30011 14.8826 0.667969 16.4087 0.667969 18V34C0.667969 35.5913 1.30011 37.1174 2.42533 38.2426C3.55055 39.3679 5.07667 40 6.66797 40H38.668C40.2593 40 41.7854 39.3679 42.9106 38.2426C44.0358 37.1174 44.668 35.5913 44.668 34V18C44.668 16.4087 44.0358 14.8826 42.9106 13.7574C41.7854 12.6321 40.2593 12 38.668 12ZM8.66797 26C8.66797 26.3956 8.78527 26.7822 9.00503 27.1111C9.22479 27.44 9.53715 27.6964 9.9026 27.8478C10.2681 27.9991 10.6702 28.0387 11.0581 27.9616C11.4461 27.8844 11.8025 27.6939 12.0822 27.4142C12.3619 27.1345 12.5524 26.7781 12.6295 26.3902C12.7067 26.0022 12.6671 25.6001 12.5157 25.2346C12.3644 24.8692 12.108 24.5568 11.7791 24.3371C11.4502 24.1173 11.0635 24 10.668 24C10.1375 24 9.62883 24.2107 9.25376 24.5858C8.87868 24.9609 8.66797 25.4696 8.66797 26Z" fill="#122E82"/>
</svg>
