<svg width="16" height="16" viewBox="0 0 16 16" fill="none" xmlns="http://www.w3.org/2000/svg">
<path d="M8 15.875C12.3492 15.875 15.875 12.3492 15.875 8C15.875 3.65076 12.3492 0.125 8 0.125C3.65076 0.125 0.125 3.65076 0.125 8C0.125 12.3492 3.65076 15.875 8 15.875Z" fill="url(#paint0_linear)"/>
<path d="M10.7633 5.23748L6.66334 9.34998C6.63834 9.37498 6.61334 9.37498 6.57584 9.37498C6.55084 9.37498 6.51334 9.36248 6.50084 9.33748L5.23834 8.01248C5.12584 7.88748 4.96334 7.82498 4.80084 7.81248C4.62584 7.81248 4.47584 7.87498 4.35084 7.99998L4.32584 8.02497C4.11334 8.26248 4.13834 8.63748 4.36334 8.87498L6.12584 10.75C6.23834 10.875 6.38834 10.9375 6.56334 10.95C6.72584 10.95 6.88834 10.8875 7.01334 10.7625L11.6383 6.12498C11.8758 5.88748 11.8758 5.48748 11.6383 5.24998C11.4008 4.99998 11.0133 4.99998 10.7633 5.23748Z" fill="white"/>
<defs>
<linearGradient id="paint0_linear" x1="0.125" y1="0.125" x2="16.9159" y2="1.32635" gradientUnits="userSpaceOnUse">
<stop stop-color="#3A5AB7"/>
<stop offset="1" stop-color="#6683D8"/>
</linearGradient>
</defs>
</svg>
