<svg width="20" height="30" viewBox="0 0 20 30" fill="none" xmlns="http://www.w3.org/2000/svg">
<path d="M19.1053 11.5868C18.983 11.4059 18.8181 11.2578 18.6251 11.1555C18.4322 11.0532 18.217 10.9998 17.9986 11.0002H13.9986V8.3335H16.9319C17.2856 8.3335 17.6247 8.19302 17.8748 7.94297C18.1248 7.69292 18.2653 7.35378 18.2653 7.00016V1.66683C18.2653 1.31321 18.1248 0.974069 17.8748 0.72402C17.6247 0.473972 17.2856 0.333496 16.9319 0.333496H12.6653C10.6143 0.333496 8.64727 1.14826 7.19699 2.59854C5.74671 4.04882 4.93195 6.01582 4.93195 8.06683V11.0002H1.99862C1.64499 11.0002 1.30586 11.1406 1.05581 11.3907C0.805759 11.6407 0.665283 11.9799 0.665283 12.3335V17.6668C0.665283 18.0205 0.805759 18.3596 1.05581 18.6096C1.30586 18.8597 1.64499 19.0002 1.99862 19.0002H4.93195V28.3335C4.93195 28.6871 5.07243 29.0263 5.32247 29.2763C5.57252 29.5264 5.91166 29.6668 6.26528 29.6668H12.6653C13.0189 29.6668 13.358 29.5264 13.6081 29.2763C13.8581 29.0263 13.9986 28.6871 13.9986 28.3335V19.0002H15.8653C16.1323 19.0004 16.3933 18.9205 16.6144 18.7707C16.8355 18.621 17.0065 18.4082 17.1053 18.1602L19.2386 12.8268C19.3192 12.6249 19.3491 12.4064 19.3259 12.1903C19.3026 11.9742 19.2269 11.767 19.1053 11.5868ZM14.9586 16.3335H12.6653C12.3117 16.3335 11.9725 16.474 11.7225 16.724C11.4724 16.9741 11.3319 17.3132 11.3319 17.6668V27.0002H7.59862V17.6668C7.59862 17.3132 7.45814 16.9741 7.20809 16.724C6.95804 16.474 6.6189 16.3335 6.26528 16.3335H3.33195V13.6668H6.26528C6.6189 13.6668 6.95804 13.5264 7.20809 13.2763C7.45814 13.0263 7.59862 12.6871 7.59862 12.3335V8.06683C7.60214 6.72415 8.13707 5.43747 9.0865 4.48804C10.0359 3.53862 11.3226 3.00368 12.6653 3.00016H15.5986V5.66683H14.5319C14.0805 5.60106 13.6204 5.62866 13.18 5.74792C12.7397 5.86718 12.3285 6.07556 11.9719 6.36016C11.7556 6.58669 11.5873 6.85469 11.4773 7.14801C11.3673 7.44133 11.3179 7.75388 11.3319 8.06683V12.3335C11.3319 12.6871 11.4724 13.0263 11.7225 13.2763C11.9725 13.5264 12.3117 13.6668 12.6653 13.6668H16.0253L14.9586 16.3335Z" fill="#1B3992"/>
</svg>
