<svg width="28" height="28" viewBox="0 0 28 28" fill="none" xmlns="http://www.w3.org/2000/svg">
<path d="M13.9986 7.33317C12.6801 7.33317 11.3911 7.72416 10.2948 8.45671C9.19849 9.18925 8.344 10.2304 7.83942 11.4486C7.33484 12.6668 7.20281 14.0072 7.46005 15.3004C7.71728 16.5936 8.35222 17.7815 9.28457 18.7139C10.2169 19.6462 11.4048 20.2812 12.698 20.5384C13.9912 20.7956 15.3317 20.6636 16.5498 20.159C17.768 19.6545 18.8092 18.8 19.5417 17.7036C20.2743 16.6073 20.6653 15.3184 20.6653 13.9998C20.6653 12.2317 19.9629 10.536 18.7127 9.28579C17.4624 8.03555 15.7667 7.33317 13.9986 7.33317ZM13.9986 17.9998C13.2075 17.9998 12.4341 17.7652 11.7763 17.3257C11.1185 16.8862 10.6058 16.2615 10.3031 15.5306C10.0003 14.7997 9.92113 13.9954 10.0755 13.2195C10.2298 12.4436 10.6108 11.7308 11.1702 11.1714C11.7296 10.612 12.4423 10.231 13.2183 10.0767C13.9942 9.92235 14.7984 10.0016 15.5294 10.3043C16.2603 10.6071 16.885 11.1198 17.3245 11.7776C17.764 12.4354 17.9986 13.2087 17.9986 13.9998C17.9986 15.0607 17.5772 16.0781 16.827 16.8283C16.0769 17.5784 15.0595 17.9998 13.9986 17.9998ZM20.6653 5.99984C20.4016 5.99984 20.1438 6.07804 19.9245 6.22454C19.7053 6.37105 19.5344 6.57929 19.4334 6.82293C19.3325 7.06656 19.3061 7.33465 19.3576 7.59329C19.409 7.85193 19.536 8.08951 19.7225 8.27598C19.9089 8.46245 20.1465 8.58944 20.4052 8.64088C20.6638 8.69233 20.9319 8.66593 21.1755 8.56501C21.4192 8.46409 21.6274 8.2932 21.7739 8.07393C21.9204 7.85467 21.9986 7.59688 21.9986 7.33317C21.9986 6.97955 21.8581 6.64041 21.6081 6.39036C21.358 6.14031 21.0189 5.99984 20.6653 5.99984ZM27.252 8.9865C27.2299 7.84707 27.0134 6.71977 26.6119 5.65317C26.2397 4.68259 25.6674 3.80116 24.9324 3.0661C24.1973 2.33104 23.3159 1.75879 22.3453 1.3865C21.2787 0.985036 20.1514 0.768594 19.012 0.746504C17.7186 0.666504 17.292 0.666504 13.9986 0.666504C10.7053 0.666504 10.2786 0.666504 8.98528 0.746504C7.84585 0.768594 6.71854 0.985036 5.65195 1.3865C4.68137 1.75879 3.79994 2.33104 3.06488 3.0661C2.32982 3.80116 1.75757 4.68259 1.38528 5.65317C0.983816 6.71977 0.767373 7.84707 0.745283 8.9865C0.665283 10.2932 0.665283 10.7198 0.665283 13.9998C0.665283 17.2798 0.665283 17.7065 0.745283 19.0132C0.767373 20.1526 0.983816 21.2799 1.38528 22.3465C1.75757 23.3171 2.32982 24.1985 3.06488 24.9336C3.79994 25.6686 4.68137 26.2409 5.65195 26.6132C6.71854 27.0146 7.84585 27.2311 8.98528 27.2532C10.3186 27.2532 10.7053 27.3332 13.9986 27.3332C17.292 27.3332 17.7186 27.3332 19.012 27.2532C20.1514 27.2311 21.2787 27.0146 22.3453 26.6132C23.3159 26.2409 24.1973 25.6686 24.9324 24.9336C25.6674 24.1985 26.2397 23.3171 26.6119 22.3465C27.0134 21.2799 27.2299 20.1526 27.252 19.0132C27.252 17.6798 27.332 17.2798 27.332 13.9998C27.332 10.7198 27.332 10.2932 27.252 8.9865ZM24.5853 18.8932C24.5619 19.7393 24.4044 20.5764 24.1186 21.3732C23.8823 22.003 23.5089 22.5723 23.0253 23.0398C22.5605 23.5236 21.9901 23.8933 21.3586 24.1198C20.56 24.4173 19.7173 24.5795 18.8653 24.5998C17.6119 24.5998 17.2253 24.6665 13.9853 24.6665C10.7453 24.6665 10.372 24.6665 9.11862 24.6665C8.26798 24.6445 7.42629 24.487 6.62528 24.1998C5.99549 23.9636 5.42618 23.5901 4.95862 23.1065C4.47482 22.6417 4.10518 22.0713 3.87862 21.4398C3.58236 20.6455 3.42015 19.8074 3.39862 18.9598C3.39862 17.6265 3.39862 17.2932 3.39862 14.0665C3.39862 10.8398 3.39862 10.4532 3.39862 9.17317C3.4216 8.32145 3.58374 7.47922 3.87862 6.67984C4.10869 6.05401 4.47799 5.48866 4.95862 5.0265C5.42338 4.54271 5.99383 4.17306 6.62528 3.9465C7.42394 3.64903 8.2666 3.48681 9.11862 3.4665C10.372 3.33317 10.7586 3.33317 13.9986 3.33317C17.2386 3.33317 17.6253 3.33317 18.8786 3.33317C19.7348 3.35494 20.5816 3.5171 21.3853 3.81317C22.0111 4.04325 22.5765 4.41255 23.0386 4.89317C23.5224 5.35794 23.8921 5.92838 24.1186 6.55984C24.445 7.37125 24.6299 8.23261 24.6653 9.1065C24.6653 10.4398 24.7319 10.7732 24.7319 13.9998C24.7319 17.2265 24.6653 17.6132 24.6653 18.8932H24.5853Z" fill="#1B3992"/>
</svg>
