<svg width="21" height="21" viewBox="0 0 21 21" fill="none" xmlns="http://www.w3.org/2000/svg">
<path d="M16.9987 13.0001C16.4079 13.004 15.8252 13.1388 15.2927 13.3947C14.7601 13.6506 14.2909 14.0213 13.9187 14.4801L8.81869 12.1301C9.05847 11.3959 9.05847 10.6044 8.81869 9.87011L13.9187 7.52011C14.5203 8.24608 15.359 8.73619 16.2868 8.90395C17.2146 9.07172 18.1719 8.90634 18.9896 8.43702C19.8074 7.96769 20.4331 7.22459 20.7562 6.33886C21.0794 5.45312 21.0793 4.4817 20.756 3.59602C20.4326 2.71035 19.8068 1.96736 18.989 1.49818C18.1712 1.02901 17.2139 0.863808 16.2861 1.03174C15.3583 1.19967 14.5197 1.68993 13.9182 2.41601C13.3167 3.14208 12.9911 4.05729 12.9987 5.00011C13.0017 5.23835 13.0251 5.47588 13.0687 5.71011L7.78869 8.14011C7.22576 7.58969 6.51293 7.21763 5.73949 7.07054C4.96605 6.92345 4.1664 7.00788 3.44074 7.31325C2.71507 7.61861 2.09565 8.13133 1.66009 8.78718C1.22452 9.44302 0.992187 10.2128 0.992188 11.0001C0.992187 11.7874 1.22452 12.5572 1.66009 13.2131C2.09565 13.8689 2.71507 14.3816 3.44074 14.687C4.1664 14.9923 4.96605 15.0768 5.73949 14.9297C6.51293 14.7826 7.22576 14.4105 7.78869 13.8601L13.0687 16.2901C13.0251 16.5243 13.0017 16.7619 12.9987 17.0001C12.9987 17.7912 13.2333 18.5646 13.6728 19.2224C14.1123 19.8802 14.737 20.3929 15.468 20.6956C16.1989 20.9984 17.0031 21.0776 17.779 20.9233C18.555 20.7689 19.2677 20.388 19.8271 19.8285C20.3865 19.2691 20.7675 18.5564 20.9218 17.7805C21.0762 17.0046 20.997 16.2003 20.6942 15.4694C20.3915 14.7385 19.8788 14.1138 19.221 13.6742C18.5632 13.2347 17.7898 13.0001 16.9987 13.0001ZM16.9987 3.00011C17.3942 3.00011 17.7809 3.11741 18.1098 3.33718C18.4387 3.55694 18.6951 3.8693 18.8464 4.23475C18.9978 4.6002 19.0374 5.00233 18.9603 5.3903C18.8831 5.77826 18.6926 6.13462 18.4129 6.41433C18.1332 6.69403 17.7768 6.88451 17.3889 6.96169C17.0009 7.03886 16.5988 6.99925 16.2333 6.84787C15.8679 6.6965 15.5555 6.44015 15.3357 6.11125C15.116 5.78236 14.9987 5.39568 14.9987 5.00011C14.9987 4.46968 15.2094 3.96097 15.5845 3.5859C15.9595 3.21083 16.4683 3.00011 16.9987 3.00011ZM4.99869 13.0001C4.60312 13.0001 4.21644 12.8828 3.88755 12.6631C3.55865 12.4433 3.3023 12.1309 3.15093 11.7655C2.99955 11.4 2.95994 10.9979 3.03711 10.6099C3.11428 10.222 3.30477 9.86561 3.58447 9.5859C3.86418 9.3062 4.22054 9.11571 4.6085 9.03854C4.99647 8.96137 5.3986 9.00098 5.76405 9.15236C6.1295 9.30373 6.44186 9.56008 6.66162 9.88897C6.88139 10.2179 6.99869 10.6046 6.99869 11.0001C6.99869 11.5305 6.78797 12.0393 6.4129 12.4143C6.03783 12.7894 5.52912 13.0001 4.99869 13.0001ZM16.9987 19.0001C16.6031 19.0001 16.2164 18.8828 15.8875 18.6631C15.5586 18.4433 15.3023 18.1309 15.1509 17.7655C14.9996 17.4 14.9599 16.9979 15.0371 16.6099C15.1143 16.222 15.3048 15.8656 15.5845 15.5859C15.8642 15.3062 16.2205 15.1157 16.6085 15.0385C16.9965 14.9614 17.3986 15.001 17.7641 15.1524C18.1295 15.3037 18.4419 15.5601 18.6616 15.889C18.8814 16.2179 18.9987 16.6046 18.9987 17.0001C18.9987 17.5305 18.788 18.0393 18.4129 18.4143C18.0378 18.7894 17.5291 19.0001 16.9987 19.0001Z" fill="white"/>
</svg>
