<svg width="28" height="28" viewBox="0 0 28 28" fill="none" xmlns="http://www.w3.org/2000/svg">
<path d="M13.994 0.666504C11.3569 0.666504 8.77904 1.44849 6.58638 2.91358C4.39372 4.37866 2.68476 6.46104 1.67559 8.89739C0.666422 11.3337 0.402377 14.0146 0.916847 16.601C1.43132 19.1875 2.70119 21.5632 4.56589 23.4279C6.43059 25.2926 8.80637 26.5625 11.3928 27.077C13.9792 27.5914 16.6601 27.3274 19.0964 26.3182C21.5328 25.3091 23.6152 23.6001 25.0802 21.4074C26.5453 19.2148 27.3273 16.6369 27.3273 13.9998C27.3275 12.2488 26.9827 10.515 26.3127 8.89722C25.6427 7.27948 24.6605 5.80957 23.4224 4.57142C22.1843 3.33328 20.7143 2.35116 19.0966 1.68115C17.4789 1.01114 15.745 0.666359 13.994 0.666504ZM18.2333 20.8698C18.1834 20.9942 18.1075 21.1066 18.0106 21.1993C17.9137 21.292 17.7982 21.3629 17.6717 21.4073C17.5452 21.4516 17.4106 21.4685 17.2771 21.4566C17.1435 21.4447 17.014 21.4045 16.8973 21.3385L13.2778 18.526L10.9547 20.6692C10.9008 20.709 10.8377 20.7346 10.7713 20.7437C10.7049 20.7528 10.6373 20.745 10.5747 20.7211L11.02 16.7365L11.0343 16.7478L11.0434 16.6691C11.0434 16.6691 17.5567 10.7391 17.822 10.4864C18.0907 10.2344 18.002 10.1798 18.002 10.1798C18.0173 9.87241 17.52 10.1798 17.52 10.1798L8.88998 15.7318L5.296 14.5078C5.296 14.5078 4.744 14.3098 4.692 13.8745C4.63733 13.4425 5.31398 13.2078 5.31398 13.2078L19.6033 7.53116C19.6033 7.53116 20.778 7.0078 20.778 7.8745L18.2333 20.8698Z" fill="#1B3992"/>
</svg>
