<svg width="616" height="616" viewBox="0 0 616 616" fill="none" xmlns="http://www.w3.org/2000/svg">
<path d="M573.188 224.634C575.9 236.179 574.793 248.292 570.035 259.154C569.799 259.763 569.429 260.311 568.953 260.757C568.477 261.204 567.906 261.538 567.284 261.735C567.284 264.101 562.781 287.7 561.247 298.572C565.251 302.576 569.61 315.321 568.122 325.812C563.274 360.067 511.952 364.118 477.277 364.66C475.5 371.128 467.193 407.404 464.649 419.484C456.801 456.943 452.908 484.293 450.931 492.985C449.627 496.883 449.556 501.088 450.728 505.028C451.035 505.96 451.538 506.816 452.204 507.537C452.869 508.259 453.682 508.83 454.586 509.211C455.491 509.593 456.467 509.776 457.448 509.749C458.429 509.721 459.394 509.484 460.276 509.053C465.148 506.216 469.99 482.005 470.304 480.409C477.841 442.131 482.359 413.213 487.86 377.845C485.522 378.149 483.145 377.86 480.949 377.004C480.79 376.903 480.663 376.759 480.584 376.588C480.504 376.418 480.475 376.228 480.499 376.041C480.524 375.854 480.601 375.679 480.722 375.534C480.843 375.39 481.003 375.284 481.183 375.227C482.742 374.94 484.345 374.997 485.88 375.393C494.482 376.345 524.789 376.955 541.837 376.604C553.741 376.357 567.441 373.524 570.62 362.109C571.685 358.284 600.579 271.865 600.579 252.914C600.6 233.196 587.129 221.76 573.188 224.634ZM582.582 286.36C575.736 312.99 574.987 318.487 572.686 322.223C572.612 322.338 572.503 322.427 572.375 322.475C572.247 322.523 572.107 322.529 571.975 322.491C571.843 322.453 571.727 322.374 571.644 322.266C571.561 322.157 571.515 322.025 571.513 321.888C571.656 318.375 572.277 314.899 573.361 311.554C574.122 308.631 578.597 290.484 580.205 284.346C585.647 263.66 590.153 251.713 583.928 230.874C583.889 230.74 583.9 230.597 583.96 230.471C584.02 230.345 584.124 230.245 584.252 230.191C584.38 230.137 584.524 230.132 584.656 230.177C584.788 230.223 584.898 230.315 584.966 230.436C595.056 245.997 585.89 273.504 582.586 286.36H582.582Z" fill="#3A5AB7"/>
<path d="M564.838 373.549C561.04 375.822 556.815 377.29 552.426 377.861C555.635 395.035 569.467 467.636 574.968 486.486C577.694 495.815 580.472 511.351 589.327 507.251C597.745 503.355 592.651 491.282 591.342 484.807C583.968 448.297 575.714 409.301 564.838 373.549Z" fill="#3A5AB7"/>
<path d="M437.191 510.356C426.27 509.543 436.779 510.171 273.48 508.311C270.779 480.397 272.196 470.683 270.708 321.355C311.5 321.155 416.238 320.56 427.788 320.351C428.104 320.351 428.407 320.225 428.631 320.002C428.855 319.778 428.98 319.475 428.98 319.159C428.98 318.843 428.855 318.54 428.631 318.316C428.407 318.092 428.104 317.967 427.788 317.967C386.359 317.249 280.382 317.659 268.842 317.631C268.347 317.641 267.875 317.843 267.524 318.193C267.174 318.543 266.973 319.015 266.963 319.51C266.963 319.969 267.271 482.728 270.317 509.993C270.326 510.435 270.505 510.857 270.818 511.17C271.131 511.483 271.553 511.662 271.996 511.671C314.768 511.89 424.973 513.726 437.216 513.045C437.573 513.042 437.913 512.897 438.163 512.642C438.413 512.388 438.551 512.045 438.548 511.688C438.545 511.332 438.4 510.991 438.146 510.741C437.891 510.491 437.548 510.353 437.191 510.356Z" fill="#212941"/>
<path d="M430.751 321.922C430.548 320.881 428.965 321.148 428.937 322.156C428.758 329.369 430.409 340.722 432.596 392.537C433.588 416.053 435.778 497.257 436.486 504.218C436.486 504.507 436.601 504.784 436.806 504.989C437.01 505.193 437.287 505.308 437.576 505.308C437.866 505.308 438.143 505.193 438.347 504.989C438.552 504.784 438.667 504.507 438.667 504.218C438.83 498.128 435.513 346.602 430.751 321.922Z" fill="#212941"/>
<path d="M270.424 315.392C276.642 311.931 282.611 308.041 288.288 303.75C294.159 299.69 329.311 275.395 332.237 273.356C338.507 268.979 336.401 269.833 358.065 269.833C360.021 269.977 361.988 269.874 363.917 269.525C364.158 269.45 364.368 269.301 364.517 269.099C364.666 268.897 364.747 268.652 364.747 268.4C364.747 268.149 364.666 267.904 364.517 267.702C364.368 267.5 364.158 267.35 363.917 267.276C362.316 266.882 362.556 266.968 342.783 266.968C334.864 266.968 334.195 268.508 325.304 274.717C274.52 310.276 273.433 310.695 269.515 314.339C268.983 314.841 269.756 315.7 270.424 315.392Z" fill="#212941"/>
<path d="M370.5 273.174C372.268 278.925 371.945 276.615 386.535 277C387.675 277.136 388.83 277.091 389.956 276.867C392.112 276.214 392.728 273.846 393.511 272.001C396.902 263.967 399.258 255.536 400.524 246.908C400.58 246.685 400.585 246.453 400.539 246.228C400.493 246.003 400.398 245.791 400.26 245.608C400.122 245.424 399.944 245.274 399.74 245.168C399.537 245.062 399.312 245.003 399.083 244.996C394.484 244.996 389.842 244.962 385.222 244.928C385.995 237.551 386.365 230.138 386.331 222.721C386.315 222.44 386.213 222.172 386.039 221.951C385.865 221.731 385.627 221.569 385.358 221.489C385.024 221.4 384.669 221.445 384.369 221.614C384.068 221.783 383.845 222.063 383.747 222.394C383.331 226.17 383.173 229.969 383.276 233.766C383.098 237.501 383.155 241.243 383.445 244.971H379.42C376.364 228.163 377.101 225.838 375.628 215.381C375.502 214.476 374.122 214.747 374.088 215.585C373.884 225.467 374.83 235.34 376.907 245.005C376.291 245.005 375.733 245.005 375.129 245.039C375.129 244.749 372.003 234.259 371.707 233.264C370.762 229.52 369.505 225.861 367.95 222.327C367.87 222.199 367.752 222.099 367.612 222.043C367.472 221.987 367.318 221.977 367.172 222.015C367.026 222.052 366.896 222.135 366.8 222.251C366.705 222.368 366.649 222.512 366.641 222.662C367.899 230.285 369.818 237.783 372.376 245.073C371.002 245.106 369.625 245.131 368.286 245.174C367.902 245.192 367.539 245.356 367.273 245.634C367.008 245.912 366.86 246.282 366.86 246.666C366.86 247.051 367.008 247.421 367.273 247.698C367.539 247.976 367.902 248.141 368.286 248.159C377.948 248.359 387.606 248.159 397.268 248.023C396.021 256.446 393.676 264.668 390.292 272.481C389.956 273.251 389.759 274.108 388.817 274.329C388.136 274.487 389.023 274.228 382.173 274.228C371.895 274.228 373.928 275.651 372.949 272.485C372.148 269.9 366.265 250.758 364.941 247.826C364.469 246.788 363.053 247.592 363.231 248.565C363.653 250.925 369.798 270.892 370.5 273.174Z" fill="#212941"/>
<path d="M442.288 267.07C438.768 266.71 435.225 266.62 431.69 266.802C402.686 267.19 400.678 267.239 397.37 267.843C396.631 267.975 396.6 269.241 397.37 269.352C404.688 270.409 434.795 269.118 440.545 269.66C433.193 300.768 428.841 310.713 428.736 314.915C428.744 315.105 428.812 315.288 428.931 315.437C429.05 315.585 429.213 315.692 429.397 315.741C429.581 315.79 429.776 315.779 429.953 315.709C430.13 315.639 430.28 315.514 430.381 315.352C433.289 310.988 442.19 275.62 443.665 268.844C443.711 268.635 443.71 268.418 443.663 268.209C443.615 268 443.523 267.804 443.392 267.635C443.26 267.466 443.093 267.327 442.903 267.23C442.712 267.132 442.502 267.078 442.288 267.07Z" fill="#212941"/>
<path d="M323.296 288.34C323.998 287.666 323.124 286.616 322.292 287.031C315.735 290.29 303.661 301.381 298.268 306.355C298.093 306.541 297.976 306.773 297.932 307.024C297.887 307.275 297.916 307.533 298.016 307.768C298.115 308.002 298.281 308.203 298.493 308.345C298.704 308.486 298.953 308.564 299.207 308.567C304.413 308.779 347.037 310.024 355.901 309.642C356.206 309.626 356.494 309.494 356.704 309.272C356.915 309.051 357.032 308.757 357.032 308.451C357.032 308.146 356.915 307.852 356.704 307.63C356.494 307.408 356.206 307.276 355.901 307.261C346.51 306.645 336.98 306.802 327.565 306.589C319.178 306.398 310.825 306.053 302.438 305.952C312.131 296.804 318.165 293.29 323.296 288.34Z" fill="#212941"/>
<path d="M358.722 308.872C362.505 306.032 366.071 302.914 369.391 299.545C372.968 296.274 376.536 292.997 380.094 289.714C380.272 289.525 380.391 289.29 380.439 289.035C380.487 288.78 380.46 288.517 380.363 288.277C380.266 288.037 380.102 287.829 379.89 287.68C379.679 287.53 379.429 287.444 379.17 287.432C371.92 286.816 328.917 283.782 323.749 285.556C323.578 285.605 323.428 285.709 323.322 285.851C323.215 285.993 323.157 286.165 323.157 286.343C323.157 286.52 323.215 286.693 323.322 286.835C323.428 286.977 323.578 287.08 323.749 287.13C325.901 287.557 328.102 287.693 330.291 287.533C348.044 287.804 358.574 288.574 375.982 289.85C361.306 303.451 360.419 303.328 357.364 307.125C356.628 308.018 357.616 309.611 358.722 308.872Z" fill="#212941"/>
<path d="M337.922 290.487C335.344 292.252 333.207 294.112 327.724 298.637C326.751 299.441 325.679 300.047 325.343 301.323C325.311 301.443 325.306 301.569 325.329 301.691C325.352 301.813 325.402 301.929 325.476 302.028C325.55 302.128 325.646 302.21 325.757 302.268C325.867 302.325 325.989 302.357 326.113 302.361C327.542 302.284 328.248 301.461 332.455 297.968C334.811 296.117 337 294.062 338.997 291.827C339.582 291.137 338.8 289.886 337.922 290.487Z" fill="#212941"/>
<path d="M338.594 301.455C340.295 301.082 341.135 300.097 347.72 293.447C348.186 292.976 347.582 292.098 346.981 292.474C345.171 293.634 343.423 294.888 341.745 296.231C340.016 297.273 338.619 298.786 337.72 300.593C337.523 301.088 338.092 301.566 338.594 301.455Z" fill="#212941"/>
<path d="M356.375 292.163C354.157 293.903 352.035 295.64 349.999 297.565C348.459 299.031 345.61 300.953 345.204 303.134C345.174 303.249 345.176 303.371 345.207 303.486C345.239 303.601 345.3 303.706 345.385 303.79C345.469 303.875 345.574 303.936 345.689 303.967C345.804 303.999 345.926 304.001 346.041 303.971C348.25 303.599 350.295 300.845 351.813 299.351C353.815 297.365 355.632 295.323 357.45 293.213C357.519 293.142 357.573 293.059 357.61 292.967C357.646 292.876 357.665 292.778 357.664 292.679C357.662 292.58 357.642 292.483 357.603 292.392C357.564 292.301 357.508 292.219 357.437 292.15C357.367 292.081 357.283 292.027 357.192 291.99C357.1 291.954 357.002 291.935 356.904 291.936C356.805 291.938 356.707 291.958 356.617 291.997C356.526 292.036 356.444 292.092 356.375 292.163Z" fill="#212941"/>
<path d="M147.742 179.256C147.943 179.029 148.093 178.76 148.179 178.468C148.266 178.177 148.287 177.871 148.243 177.57C148.198 177.269 148.088 176.982 147.921 176.729C147.754 176.475 147.533 176.261 147.274 176.102C146.99 175.904 146.655 175.791 146.31 175.779C145.964 175.766 145.621 175.853 145.324 176.03C145.026 176.207 144.786 176.466 144.632 176.776C144.478 177.086 144.417 177.434 144.456 177.778C144.401 178.179 144.478 178.588 144.674 178.942C144.871 179.297 145.177 179.578 145.546 179.745C145.916 179.911 146.33 179.953 146.725 179.865C147.121 179.777 147.478 179.563 147.742 179.256Z" fill="#212941"/>
<path d="M178.332 220.405C177.072 219.58 175.575 219.191 174.072 219.299C168.781 218.976 163.471 219.485 158.337 220.808C157.53 221.067 157.634 222.416 158.54 222.348C173.047 221.304 176.127 222.93 178.163 221.877C178.282 221.801 178.384 221.699 178.459 221.578C178.534 221.458 178.582 221.322 178.598 221.181C178.614 221.04 178.599 220.897 178.553 220.763C178.507 220.629 178.431 220.506 178.332 220.405Z" fill="#212941"/>
<path d="M170.632 225C167.4 224.804 164.165 225.343 161.171 226.577C161.01 226.675 160.885 226.822 160.815 226.997C160.745 227.172 160.734 227.365 160.783 227.547C160.833 227.729 160.94 227.89 161.089 228.005C161.237 228.121 161.42 228.185 161.608 228.188C164.894 228.092 168.184 227.88 171.436 227.784C176.349 227.646 177.405 227.828 178.382 226.552C178.476 226.401 178.515 226.22 178.49 226.043C178.465 225.865 178.379 225.702 178.246 225.582C177.436 224.612 176.657 224.624 170.632 225Z" fill="#212941"/>
<path d="M443.733 315.682C447.241 312.091 451.569 309.409 456.345 307.864C465.145 304.661 486.757 298.655 490.028 297.063C491.898 295.954 493.287 294.188 493.926 292.111C494.565 290.033 494.407 287.792 493.484 285.824C493.438 285.678 493.342 285.552 493.212 285.47C493.083 285.387 492.929 285.353 492.777 285.373C492.625 285.392 492.484 285.465 492.38 285.578C492.277 285.691 492.216 285.837 492.209 285.99C492.515 288.38 492.25 290.807 491.436 293.074C490.065 295.461 486.606 295.862 484.192 296.598C478.454 298.347 472.743 300.066 467.014 301.797C458.597 304.341 444.983 307.366 442.257 314.881C441.952 315.7 443.135 316.156 443.733 315.682Z" fill="#212941"/>
<path d="M511.262 174.177C511.462 173.961 511.595 173.692 511.647 173.402C511.699 173.112 511.666 172.814 511.553 172.542C511.44 172.27 511.252 172.036 511.01 171.868C510.769 171.7 510.484 171.604 510.19 171.593C509.991 171.592 509.795 171.631 509.611 171.706C509.428 171.782 509.261 171.893 509.121 172.033C508.981 172.173 508.869 172.34 508.794 172.524C508.718 172.707 508.68 172.904 508.681 173.102C508.684 173.4 508.774 173.69 508.941 173.936C509.107 174.183 509.342 174.375 509.617 174.49C509.892 174.604 510.194 174.635 510.486 174.58C510.779 174.524 511.048 174.384 511.262 174.177Z" fill="#212941"/>
<path d="M521.629 173.037C521.269 173.037 520.923 173.181 520.668 173.435C520.414 173.69 520.271 174.036 520.271 174.396C520.271 174.756 520.414 175.101 520.668 175.356C520.923 175.611 521.269 175.754 521.629 175.754C521.989 175.754 522.334 175.611 522.589 175.356C522.844 175.101 522.987 174.756 522.987 174.396C522.987 174.036 522.844 173.69 522.589 173.435C522.334 173.181 521.989 173.037 521.629 173.037Z" fill="#212941"/>
<path d="M514.717 184.578C514.914 184.574 515.105 184.513 515.267 184.402C515.429 184.291 515.556 184.135 515.631 183.953C515.706 183.771 515.726 183.571 515.689 183.378C515.652 183.185 515.559 183.007 515.423 182.866C514.785 182.228 512.669 181.757 512.838 180.71C515.085 177.908 516.388 174.468 516.562 170.881C516.554 170.696 516.482 170.519 516.356 170.382C516.231 170.246 516.062 170.157 515.878 170.133C515.694 170.109 515.507 170.15 515.351 170.25C515.194 170.349 515.078 170.501 515.022 170.678C514.155 174.051 512.58 177.201 510.402 179.918C508.988 182.234 512.574 184.822 514.717 184.578Z" fill="#212941"/>
<path d="M519.316 184.677C516.522 188.194 512.928 187.757 510.492 188.736C509.891 188.98 509.722 189.944 510.492 190.113C512.034 190.348 513.609 190.261 515.116 189.856C516.623 189.452 518.03 188.739 519.248 187.763C519.494 189.834 519.216 191.934 518.441 193.871C517.825 195.281 516.688 196.864 515.121 195.546C514.295 194.679 513.656 193.651 513.242 192.528C512.746 191.517 511.289 192.09 511.231 193.064C511.301 194.009 511.585 194.926 512.061 195.746C512.538 196.565 513.194 197.266 513.981 197.794C514.703 198.348 515.601 198.619 516.509 198.557C517.416 198.495 518.269 198.105 518.909 197.459C522.091 194.434 521.7 189.115 521.124 185.139C521.073 184.956 520.976 184.79 520.84 184.658C520.705 184.525 520.537 184.43 520.354 184.383C520.17 184.337 519.978 184.339 519.795 184.39C519.613 184.442 519.448 184.541 519.316 184.677Z" fill="#212941"/>
<path d="M488.014 247.324C491.19 248.32 494.527 248.695 497.845 248.43C498.074 248.364 498.276 248.225 498.419 248.034C498.562 247.844 498.64 247.612 498.64 247.373C498.64 247.135 498.562 246.903 498.419 246.712C498.276 246.522 498.074 246.383 497.845 246.317C495.13 246.127 492.43 245.768 489.76 245.242C492.742 232.306 497.614 213.148 510.658 210.287C511.567 210.087 511.329 208.747 510.458 208.71C502.878 208.464 497.673 216.188 494.623 222.194C491.143 229.731 488.629 237.678 487.142 245.846C487.067 246.157 487.115 246.486 487.278 246.762C487.441 247.038 487.705 247.239 488.014 247.324Z" fill="#212941"/>
<path d="M502.607 236.171C502.551 235.994 502.435 235.843 502.278 235.743C502.122 235.643 501.935 235.602 501.751 235.626C501.567 235.65 501.398 235.739 501.272 235.876C501.147 236.013 501.074 236.189 501.067 236.375C501.067 240.97 499.037 245.162 498.35 249.659C497.799 253.281 497.734 258.751 500.161 261.769C500.301 261.903 500.476 261.994 500.667 262.029C500.857 262.064 501.054 262.043 501.232 261.968C501.411 261.893 501.563 261.768 501.671 261.607C501.779 261.446 501.838 261.257 501.84 261.064C501.581 257.51 499.517 255.098 501.134 247.98C502.508 244.205 503.011 240.168 502.607 236.171Z" fill="#212941"/>
<path d="M451.649 255.332C453.016 256.681 455.206 258.991 457.153 259.256C457.312 259.291 457.478 259.28 457.631 259.224C457.784 259.169 457.918 259.07 458.017 258.94C458.116 258.811 458.175 258.656 458.189 258.493C458.202 258.331 458.169 258.168 458.092 258.024C457.255 256.278 454.874 255.135 453.472 253.866C451.865 252.418 450.762 250.567 449.277 249.067C448.711 248.494 447.938 249.101 448.045 249.806C448.647 251.976 449.906 253.906 451.649 255.332Z" fill="#212941"/>
<path d="M457.455 252.711C458.263 253.689 459.195 254.557 460.227 255.295C460.309 255.339 460.402 255.36 460.495 255.358C460.588 255.356 460.679 255.33 460.76 255.283C460.84 255.236 460.907 255.169 460.955 255.089C461.002 255.008 461.028 254.917 461.031 254.824C461.031 251.482 457.824 251.507 451.874 243.252C451.409 242.609 450.118 242.987 450.463 243.868C452.099 247.304 454.489 250.326 457.455 252.711Z" fill="#212941"/>
<path d="M460.608 247.848C462.012 249.36 464.362 252.511 466.712 252.311C466.886 252.301 467.054 252.243 467.196 252.142C467.339 252.041 467.449 251.902 467.516 251.741C467.583 251.58 467.603 251.404 467.573 251.232C467.544 251.06 467.466 250.9 467.35 250.771C466.589 249.887 465.409 249.385 464.532 248.556C461.027 245.242 458.707 242.356 456.246 239.732C456.121 239.611 455.957 239.539 455.784 239.529C455.61 239.519 455.439 239.571 455.301 239.677C455.162 239.782 455.067 239.934 455.031 240.104C454.994 240.274 455.02 240.451 455.104 240.603C456.682 243.203 458.526 245.631 460.608 247.848Z" fill="#212941"/>
<path d="M477.649 260.528C477.722 260.776 477.871 260.994 478.076 261.151C478.281 261.308 478.531 261.395 478.789 261.4C483.851 261.174 488.917 261.775 493.786 263.18C517.659 269.063 527.447 278.789 532.396 280.354C532.905 280.514 533.471 279.886 533.136 279.415C531.677 277.645 529.888 276.175 527.869 275.087C510.516 263.95 489.471 258.486 479.627 259.019C477.083 252.398 473.095 246.427 467.954 241.54C467.39 240.964 466.318 241.734 466.814 242.411C471.403 247.81 475.064 253.931 477.649 260.528Z" fill="#212941"/>
<path d="M493.616 249.893C493.189 252.18 493.223 254.53 493.718 256.804C493.765 256.95 493.857 257.076 493.981 257.166C494.105 257.256 494.253 257.304 494.406 257.304C494.559 257.304 494.708 257.256 494.832 257.166C494.955 257.076 495.047 256.95 495.095 256.804C495.412 254.513 495.445 252.192 495.193 249.893C495.193 249.684 495.11 249.483 494.962 249.335C494.814 249.187 494.614 249.104 494.405 249.104C494.196 249.104 493.995 249.187 493.847 249.335C493.699 249.483 493.616 249.684 493.616 249.893Z" fill="#212941"/>
<path d="M575.652 210.543C572.723 208.784 571.91 205.103 571.158 202.02C567.573 187.295 571.343 177.996 572.735 166.024C574.226 153.178 570.219 133.94 554.255 133.115C551.684 132.999 549.122 133.488 546.774 134.542C544.427 135.596 542.359 137.187 540.737 139.185C542.574 139.727 544.141 140.935 545.132 142.573C547.008 146.02 545.256 148.459 543.823 147.972C542.93 147.664 543.226 146.608 541.473 144.584C528.584 129.702 500.081 143.925 507.692 162.063C507.863 162.323 508.054 162.569 508.262 162.8C504.767 171.866 503.313 181.591 504.002 191.283C504.926 197.699 508.129 204.598 514.4 204.737C515.324 207.801 513.932 208.599 514.708 209.868C515.287 210.82 517.28 210.536 517.126 207.152C517.086 206.264 516.893 205.39 516.556 204.567C518.693 204.116 520.693 203.166 522.393 201.795C525.571 199.066 528.389 195.944 530.78 192.503C530.478 195.483 531.343 198.464 533.194 200.819C533.33 201.042 533.534 201.214 533.776 201.311C534.019 201.408 534.286 201.423 534.537 201.355C534.713 201.308 534.876 201.22 535.012 201.099C535.149 200.978 535.255 200.827 535.323 200.658C535.391 200.489 535.419 200.307 535.405 200.125C535.39 199.944 535.334 199.768 535.24 199.612C533.516 197.434 532.572 194.741 532.557 191.964C532.561 191.84 532.535 191.717 532.482 191.605C532.429 191.493 532.35 191.395 532.251 191.32C532.153 191.244 532.038 191.193 531.916 191.171C531.794 191.148 531.668 191.155 531.55 191.191C531.761 190.811 531.951 190.419 532.12 190.018C535.344 191.819 539.527 188.542 539.167 183.476C543.06 182.45 546.49 180.131 548.893 176.9C549.466 185.619 550.818 196.676 555.638 203.905C549.957 201.016 543.619 199.663 537.254 199.981C537.017 199.983 536.785 200.046 536.579 200.163C536.374 200.281 536.202 200.45 536.08 200.653C534.255 205.293 531.06 209.268 526.92 212.049C524.953 213.272 522.626 213.786 520.326 213.506C518.026 213.226 515.891 212.168 514.274 210.509C513.467 209.637 511.955 210.78 512.629 211.784C514.237 213.885 516.523 215.364 519.098 215.969C521.673 216.575 524.379 216.269 526.754 215.104C531.9 212.483 535.935 208.103 538.126 202.759C544.026 202.521 549.875 203.95 555.001 206.884C566.446 214.531 574.048 233.458 565.233 256.102C554.777 253.85 544.082 252.914 533.395 253.315C536.29 245.873 537.439 244.663 538.597 241.173C539.028 239.861 537.257 239.362 536.549 240.299C533.885 244.807 531.64 249.549 529.84 254.467C529.782 254.683 529.775 254.91 529.818 255.13C529.862 255.35 529.955 255.557 530.091 255.736C530.227 255.914 530.402 256.059 530.602 256.159C530.803 256.26 531.024 256.313 531.248 256.315C532.357 256.278 533.428 256.25 534.537 256.216C533.632 258.732 532.997 261.387 531.919 263.864C529.643 269.069 528.106 269.907 528.128 271.952C528.13 272.05 528.154 272.146 528.198 272.234C528.242 272.322 528.305 272.399 528.382 272.459C528.459 272.52 528.548 272.563 528.644 272.585C528.74 272.607 528.839 272.607 528.935 272.586C530.191 271.951 531.17 270.877 531.685 269.568C534.095 265.429 535.796 260.916 536.718 256.216C544.632 256.174 552.535 256.826 560.335 258.163C557.215 267.711 552.496 276.66 546.38 284.629C541.76 290.281 535.621 296.09 516.923 291.676C501.566 288.051 489.662 278.395 477.942 267.96C476.023 266.254 465.314 270.698 457.713 266.99C455.351 265.751 453.237 264.09 451.473 262.09C448.424 258.837 448.152 257.525 446.372 256.854C446.234 256.819 446.089 256.815 445.95 256.844C445.81 256.873 445.678 256.934 445.565 257.021C445.452 257.108 445.361 257.22 445.297 257.348C445.234 257.476 445.2 257.616 445.199 257.759C445.39 259.015 445.992 260.171 446.911 261.048C449.46 264.651 452.841 267.586 456.767 269.602C462.787 271.916 469.444 271.951 475.488 269.7C483.913 277.805 493.446 284.673 503.802 290.099C502.284 290.225 503.226 292.415 503.432 295.834C499.573 295.03 497.272 300.454 496.348 304.322C486.117 306.087 462.635 310.735 452.612 314.388C442.313 318.136 437.668 322.547 434.262 327.74C436.264 344.834 438.01 384.815 438.623 402.584C443.48 417.368 449.502 431.717 456.179 450.256C456.589 451.392 458.489 451.663 458.763 450.256C459.601 445.925 460.5 440.141 461.843 435.761C468.148 447.268 474.687 458.661 481.164 470.082C481.314 470.337 481.542 470.536 481.814 470.651C482.087 470.766 482.389 470.79 482.676 470.719L485.735 469.506C486.166 471.61 486.784 473.672 487.583 475.666C486.808 475.897 486.095 476.301 485.499 476.847C484.904 477.393 484.439 478.068 484.142 478.82C482.675 482.082 480.84 485.165 478.672 488.011C471.185 497.414 465.32 497.867 460.155 501.898C454.99 505.93 456.019 512.315 458.11 512.266C462.271 512.164 466.463 511.884 470.621 511.696C484.943 511.043 484.758 512.081 489.575 504.516C491.393 501.667 493.201 498.846 494.876 495.929C494.944 500.287 495.046 504.615 495.079 508.976C495.087 509.3 495.22 509.609 495.449 509.839C495.678 510.068 495.987 510.2 496.311 510.208C499.391 510.029 502.471 509.675 505.551 509.284C505.815 509.212 506.048 509.053 506.212 508.834C506.376 508.615 506.462 508.347 506.457 508.074C506.583 499.128 506.214 490.182 505.351 481.278C505.108 478.897 505.379 473.806 502.364 472.891C499.123 471.905 502.801 476.109 497.627 464.815C497.904 464.663 498.127 464.429 498.266 464.145C498.406 463.861 498.454 463.541 498.406 463.229C491.824 426.004 486.415 396.485 473.412 362.855C473.647 362.732 473.844 362.546 473.981 362.319C507.96 361.894 560.68 358.651 565.266 325.716C566.391 317.628 563.11 303.112 558.182 299.952C559.892 287.305 562.615 274.856 564.389 262.247C564.428 262.06 564.395 261.865 564.296 261.702C564.196 261.539 564.039 261.42 563.855 261.368C563.672 261.317 563.475 261.338 563.306 261.426C563.137 261.514 563.007 261.663 562.944 261.843C559.337 274.069 556.863 286.601 555.552 299.281C554.779 299.348 554.012 299.524 553.236 299.616C543.328 300.796 511.191 300.282 505.496 296.764C505.496 287.487 499.715 290.555 514.822 294.417C522.056 296.45 529.69 296.6 536.998 294.855C544.138 292.893 548.598 286.631 552.463 280.687C557.118 274.111 560.216 266.562 561.521 258.612C562.861 258.846 564.204 259.111 565.547 259.419C565.925 259.512 566.324 259.455 566.661 259.262C566.998 259.068 567.248 258.751 567.358 258.378C573.773 242.455 573.9 225.019 563.662 211.513C567.231 213.288 571.275 213.876 575.203 213.191C575.477 213.119 575.724 212.969 575.915 212.76C576.106 212.551 576.233 212.291 576.281 212.012C576.328 211.732 576.294 211.445 576.183 211.185C576.071 210.924 575.887 210.701 575.652 210.543ZM532.868 187.264C532.021 185.893 529.883 187.03 530.487 188.37C528.47 190.526 524.835 196.794 519.92 200.178C514.835 203.68 510.134 202.464 507.6 195.25C506.054 189.947 505.79 184.352 506.83 178.926C507.492 173.706 508.417 168.522 509.602 163.394C510.067 163.335 518.876 156.421 527.047 163.394C531.771 167.426 532.16 173.952 531.408 179.718C531.263 180.824 532.042 181.874 533.256 181.566C535.631 180.928 536.872 181.914 536.743 184.082C536.678 185.481 534.466 189.851 532.868 187.264ZM550.446 175.354C550.326 175.564 550.134 175.725 549.905 175.805C549.676 175.885 549.426 175.88 549.201 175.791C548.976 175.701 548.79 175.533 548.68 175.317C548.569 175.101 548.539 174.853 548.598 174.618C550.078 170.473 550.728 166.077 550.51 161.682C550.188 157.159 548.907 152.757 546.753 148.767C546.66 148.594 546.637 148.392 546.69 148.203C546.743 148.014 546.867 147.852 547.036 147.752C547.205 147.652 547.406 147.622 547.597 147.667C547.789 147.712 547.955 147.829 548.062 147.994C554 156.772 554.028 169.243 550.446 175.351V175.354ZM499.01 474.194C497.704 476.106 497.383 476.79 496.582 477.348C496.036 477.809 495.356 478.081 494.643 478.123C493.93 478.166 493.222 477.977 492.625 477.585C491.777 476.686 490.729 476.002 489.566 475.586C489.235 473.226 488.568 470.926 487.586 468.754C497.426 464.855 493.974 466.238 495.708 465.539C497.768 470.852 497.827 472.835 498.997 474.191L499.01 474.194ZM519.932 315.179C520.233 315.195 520.517 315.325 520.725 315.544C520.932 315.763 521.048 316.053 521.048 316.355C521.048 316.656 520.932 316.946 520.725 317.165C520.517 317.384 520.233 317.514 519.932 317.53C495.72 318.558 456.687 321.534 444.684 342.588C436.06 357.711 443.071 380.053 448.072 396.165C454.288 416.185 458.27 422.961 461.56 432.531C461.825 433.301 460.682 433.707 460.285 433.066C454.155 423.21 446.914 401.958 443.677 390.83C440.166 378.781 436.436 366.141 438.244 353.458C441.457 330.9 464.711 321.226 487.087 316.806C497.901 314.73 508.953 314.181 519.92 315.176L519.932 315.179Z" fill="#212941"/>
<path d="M120.702 168.809C121.509 168.639 121.407 167.503 120.702 167.269C116.239 165.769 114.964 172.539 115.974 175.523C116.589 177.245 117.77 178.707 119.323 179.67C120.877 180.633 122.712 181.04 124.527 180.824C124.761 182.567 124.989 184.279 125.165 186.023C125.231 187.993 125.444 189.955 125.802 191.893C126.184 193.365 128.159 192.9 128.319 191.558C128.171 187.306 127.734 183.069 127.01 178.877C126.912 178.529 126.683 178.232 126.37 178.05C126.057 177.868 125.685 177.816 125.334 177.904C118.149 179.9 115.685 169.862 120.702 168.809Z" fill="#212941"/>
<path d="M152.069 151.129C151.635 150.014 149.266 143.947 148.616 142.912C151.407 139.712 153.61 136.044 155.124 132.077C155.807 130.225 155.879 128.203 155.329 126.307C154.779 124.412 153.637 122.742 152.069 121.543C148.509 119.27 143.913 120.659 140.531 122.615C136.666 124.851 133.417 128.045 129.425 130.062C124.728 132.437 119.732 131.473 114.733 132.175C112.644 132.345 110.639 133.073 108.928 134.283C107.216 135.493 105.861 137.14 105.004 139.053C100.645 149.152 107.351 160.354 113.828 167.805C114.465 168.676 115.83 167.574 115.269 166.662C110.923 159.578 105.105 152.186 106.645 143.254C106.843 141.327 107.649 139.512 108.945 138.073C110.242 136.633 111.963 135.643 113.859 135.246C118.017 134.322 122.378 135.178 126.539 134.208C134.334 132.385 139.537 124.931 145.943 123.539C146.815 123.274 147.741 123.241 148.629 123.443C149.518 123.645 150.338 124.076 151.009 124.693C151.68 125.309 152.179 126.09 152.455 126.959C152.732 127.827 152.777 128.752 152.587 129.643C152.255 131.642 151.513 133.549 150.406 135.246C147.4 140.389 146.276 142.083 141.28 143.599C133.913 145.827 126.336 147.289 118.67 147.96C117.832 148.034 116.803 148.884 117.228 149.873C119.384 154.801 121.087 159.892 118.737 165.137C118.226 166.277 119.64 167.651 120.585 166.579C124.562 162.07 122.868 155.913 120.819 150.781C127.672 150.058 142.65 147.35 147.153 144.172C148.367 149.974 155.078 162.652 156.212 173.358C156.724 175.744 156.526 178.228 155.642 180.503C153.526 184.344 147.193 184.963 140.411 186.439C138.999 186.552 137.627 186.965 136.386 187.649C136.23 187.749 136.106 187.891 136.029 188.058C135.951 188.226 135.923 188.412 135.947 188.595C135.972 188.778 136.048 188.951 136.167 189.092C136.286 189.233 136.443 189.337 136.62 189.392C140.922 188.905 145.182 188.105 149.368 186.999C150.794 189.974 151.238 193.335 152.79 192.445C154.277 191.591 152.078 188.271 150.834 186.574C159.892 183.774 162.606 178.113 152.069 151.129Z" fill="#212941"/>
<path d="M129.595 165.556C130.05 165.966 130.593 166.267 131.183 166.434C131.773 166.601 132.393 166.63 132.996 166.52C133.598 166.409 134.168 166.162 134.66 165.797C135.152 165.432 135.554 164.958 135.835 164.414C136.306 163.376 136.531 161.506 135.567 160.69C135.466 160.592 135.344 160.518 135.21 160.475C135.076 160.431 134.934 160.419 134.795 160.438C134.655 160.458 134.522 160.509 134.406 160.588C134.289 160.667 134.192 160.771 134.122 160.893C133.343 162.082 134.627 164.358 132.345 164.414C130.666 164.457 130.17 162.689 128.821 162.168C128.095 161.885 127.272 163.613 129.595 165.556Z" fill="#212941"/>
<path d="M146.501 159.72C145.731 159.673 145.121 158.752 144.523 158.377C144.39 158.3 144.237 158.265 144.084 158.275C143.931 158.284 143.784 158.339 143.662 158.433C143.54 158.526 143.448 158.653 143.398 158.798C143.348 158.943 143.342 159.1 143.381 159.248C143.624 160.051 144.13 160.749 144.817 161.23C145.505 161.711 146.334 161.947 147.172 161.9C148.015 161.697 148.746 161.173 149.209 160.44C149.673 159.707 149.832 158.822 149.655 157.973C149.501 156.501 147.191 156.498 147.341 157.973C147.409 158.62 147.443 159.772 146.501 159.72Z" fill="#212941"/>
<path d="M137.645 153.815C137.106 153.415 136.574 154.148 136.808 154.653C138.221 157.702 140.371 160.453 142.074 163.342C145.65 169.415 144.8 168.658 142.946 168.775C141.973 168.836 141 168.821 140.026 168.876C139.706 168.876 139.399 169.004 139.172 169.23C138.946 169.456 138.819 169.764 138.819 170.084C138.819 170.404 138.946 170.711 139.172 170.937C139.399 171.164 139.706 171.291 140.026 171.291C141.426 171.351 142.828 171.306 144.221 171.159C145.043 171.21 145.861 171.011 146.568 170.589C148.108 169.237 146.707 166.659 145.998 165.22C144.113 160.836 141.257 156.936 137.645 153.815Z" fill="#212941"/>
<path d="M161.832 207.992C158.546 206.649 155.189 205.442 151.767 204.404C151.767 204.37 151.801 204.37 151.801 204.336C152.346 203.305 156.729 192.167 157.068 191.219C157.508 189.947 155.429 189.041 154.856 190.295C153.221 193.821 151.884 197.502 150.461 201.13C150.051 202.168 149.845 203.594 148.447 203.412C147.586 203.18 146.753 202.854 145.964 202.439C137.487 199.346 129.394 195.288 121.845 190.344C120.566 189.611 116.67 196.59 115.303 198.731C114.126 200.579 116.951 200.012 143.112 217.583C143.625 216.948 144.199 216.364 144.825 215.84C136.034 209.868 127.044 204.164 117.785 198.9C118.993 196.855 120.194 194.838 121.241 192.74C121.743 191.724 119.504 192.432 131.137 198.577C136.711 201.379 142.434 203.874 148.28 206.052C148.588 206.052 148.502 205.71 146.1 214.91C147.025 214.253 148.013 213.691 149.05 213.231C149.62 211.075 150.193 208.904 150.763 206.763C162.858 210.349 159.06 210.521 164.383 210.521C163.851 204.757 163.029 199.024 161.919 193.344C161.66 192.069 159.455 192.337 159.602 193.652C160.206 198.352 161.062 203.163 161.832 207.992Z" fill="#212941"/>
<path d="M266.836 510.692C265.94 510.692 230.963 510.208 221.582 510.156C218.4 510.137 219.534 511.114 217.085 503.95C217.005 503.701 216.849 503.484 216.638 503.33C216.427 503.176 216.173 503.093 215.912 503.093C215.65 503.093 215.396 503.176 215.185 503.33C214.974 503.484 214.818 503.701 214.738 503.95C214.156 506.106 213.565 508.243 212.992 510.39C209.872 510.122 206.785 509.854 203.665 509.617C206.558 493.986 208.439 490.678 209 484.792C208.996 484.628 208.938 484.47 208.837 484.341C208.735 484.212 208.594 484.12 208.435 484.079C208.276 484.037 208.108 484.048 207.956 484.11C207.804 484.172 207.677 484.282 207.592 484.422C204.839 489.929 202.079 504.279 200.915 510.424C200.869 510.611 200.865 510.806 200.903 510.995C200.941 511.183 201.021 511.361 201.137 511.515C201.252 511.67 201.401 511.796 201.571 511.886C201.742 511.976 201.93 512.026 202.122 512.035C206.043 512.426 209.939 512.734 213.866 513.008C214.141 513.007 214.408 512.917 214.626 512.75C214.844 512.583 215.002 512.349 215.074 512.084C215.382 510.913 215.69 509.771 215.979 508.597C216.185 509.578 216.524 510.526 216.986 511.415C218.114 513.199 221.111 512.647 222.857 512.691C228.758 512.869 266.972 513.393 267.07 513.393C267.036 513.1 266.836 511.021 266.836 510.692Z" fill="#212941"/>
<path d="M233.557 489.455C231.947 487.357 229.727 485.809 227.203 485.023C227.529 482.091 228.435 473.732 228.764 470.627C236.255 471.064 244.642 471.551 250.734 471.878C251.079 471.872 251.409 471.732 251.653 471.488C251.898 471.244 252.037 470.914 252.043 470.569C252.043 413.034 251.073 385.231 255.767 359.125C258.785 363.452 261.769 367.78 264.791 372.061C264.588 354.717 264.406 336.97 264.387 319.461C264.391 318.444 264.732 317.457 265.358 316.655C265.983 315.853 266.858 315.282 267.843 315.032C262.327 305.268 253.164 289.378 242.181 288.427C240.243 288.298 238.298 288.526 236.443 289.098C237.576 287.778 238.545 286.325 239.329 284.771C244.645 274.354 242.171 262.539 239.461 251.223C233.175 224.951 223.396 210.259 205.729 193.122C202.064 189.509 198.205 186.099 194.17 182.906C188.758 178.757 182.774 176.17 176.259 178.19C172.542 179.345 159.218 187.738 162.47 189.765C162.492 189.864 165.612 203.683 167.133 210.463C168.424 210.549 169.683 210.904 170.829 211.504C171.717 211.925 172.405 212.674 172.75 213.594C173.095 214.513 173.069 215.531 172.677 216.432C173.007 216.432 175.258 216.515 175.865 216.598C179.25 215.739 182.75 215.428 186.232 215.674C187.304 215.736 188.228 215.674 188.983 216.598C189.112 216.733 189.184 216.913 189.184 217.1C189.184 217.287 189.112 217.467 188.983 217.602C187.56 218.8 187.326 217.667 180.026 218.218C180.424 218.543 180.749 218.948 180.979 219.407C181.209 219.866 181.34 220.369 181.362 220.882C181.384 221.395 181.297 221.907 181.107 222.384C180.918 222.862 180.629 223.293 180.26 223.651C180.412 223.783 180.537 223.942 180.63 224.119C181.194 223.556 182.786 223.688 183.75 223.651C186.719 223.54 186.879 225.558 183.75 225.499C182.872 225.558 181.991 225.491 181.132 225.299C181.324 226.287 181.142 227.311 180.621 228.172C180.1 229.033 179.278 229.67 178.314 229.959C178.495 230.275 178.631 230.615 178.717 230.969C180.063 230.595 181.43 230.303 182.811 230.094C182.98 230.051 183.158 230.047 183.329 230.082C183.501 230.117 183.662 230.191 183.801 230.298C183.94 230.405 184.053 230.542 184.131 230.699C184.209 230.855 184.251 231.028 184.252 231.203C183.944 236.236 192.636 239.054 191.364 241.164C194.684 239.051 198.14 237.142 201.596 235.195C199.446 233.15 198.141 230.372 197.94 227.412C197.243 221.089 199.618 217.556 198.174 214.966C196.199 211.439 190.76 211.599 187.304 211.645C185.215 211.657 183.133 211.904 181.098 212.381C179.416 213.065 177.612 213.396 175.797 213.355C175.664 213.315 175.542 213.245 175.44 213.151C175.337 213.057 175.257 212.941 175.206 212.812C175.154 212.683 175.133 212.544 175.142 212.406C175.152 212.267 175.193 212.132 175.262 212.012C176.802 209.348 183.667 208.688 186.735 208.624C190.594 208.544 195.42 208.559 198.577 211.14C202.23 214.128 201.124 218.052 200.656 222.145C200.18 224.224 200.195 226.385 200.7 228.457C201.206 230.528 202.187 232.454 203.567 234.08C204.035 233.812 204.537 233.544 205.008 233.242C205.194 233.129 205.407 233.069 205.624 233.069C205.842 233.069 206.055 233.129 206.24 233.242C214.533 238.369 221.98 244.752 228.315 252.163C230.503 254.346 232.266 256.917 233.514 259.746C233.822 260.651 232.673 261.055 232.072 260.583C228.019 257.396 223.485 247.299 205.569 235.792C199.766 239.079 193.997 242.667 187.923 245.387C187.615 245.488 200.798 273.31 211.507 284.906C213.017 286.844 214.917 288.442 217.085 289.598C219.252 290.754 221.638 291.441 224.089 291.614C225.096 291.812 224.825 293.09 224.089 293.392C219.592 295.24 214.233 291.316 211.107 288.396C203.693 280.587 197.617 271.609 193.122 261.825C190.593 256.866 188.397 251.744 186.55 246.492C186.562 245.634 186.772 244.791 187.166 244.028C188.284 243.24 189.411 242.488 190.554 241.746C189.279 241.916 188.367 240.881 187.434 240.138C184.727 238.405 182.783 235.706 181.997 232.589C177.793 233.116 178.998 232.485 178.609 233.261C177.291 235.891 175.914 235.294 172.271 235.977C172.372 236.285 175.514 256.579 176.832 282.778C173.21 278.852 169.441 275.072 165.526 271.437C165.686 270.455 166.567 258.418 166.668 250.638C166.668 249.489 165.418 249.252 164.552 248.861C164.709 248.553 166.4 244.475 166.835 243.191C167.927 240.194 167.856 236.897 166.634 233.951C169.585 233.584 172.57 233.27 175.523 232.811C176.629 232.642 176.263 231.052 175.289 230.963C171.681 230.733 168.059 230.902 164.488 231.468C163.545 231.591 162.68 232.571 163.311 233.513C166.718 238.577 163.573 243.89 161.87 247.771C155.762 245.479 149.162 243.548 148.854 243.477C151.034 234.333 144.163 227.282 147.846 221.871C150.729 217.642 159.073 216.57 164.152 216.438C166.043 216.712 167.969 216.607 169.819 216.13C169.96 216.047 170.081 215.933 170.17 215.796C170.26 215.659 170.317 215.503 170.337 215.341C170.356 215.178 170.338 215.014 170.284 214.859C170.229 214.705 170.14 214.565 170.022 214.451C168.235 213.423 166.167 212.992 164.118 213.219C158.226 213.019 150.187 214.325 145.968 218.588C144.578 220.283 143.663 222.316 143.316 224.481C142.969 226.645 143.201 228.863 143.99 230.908C145.934 238.315 145.897 237.068 145.632 243.52C145.389 243.633 145.163 243.779 144.96 243.954C144.474 243.338 120.893 210.466 115.608 202.759C106.809 189.925 110.153 194.514 108.703 192.5C107.803 191.253 105.641 191.742 104.203 191.884C89.6221 193.369 77.5208 204.82 77.2282 229.02C76.8771 258.471 83.3697 302.37 106.618 320.271C112.42 324.882 119.062 328.322 126.176 330.401C126.57 331.279 126.976 332.163 127.38 333.043C134.464 331.679 144.357 331.371 161.669 330.971C186.112 330.407 213.875 328.035 223.885 350.427C230.413 346.883 236.56 342.679 242.23 337.882C242.376 337.744 242.551 337.64 242.742 337.578C242.933 337.516 243.135 337.497 243.335 337.522C243.534 337.548 243.725 337.618 243.894 337.726C244.063 337.835 244.206 337.98 244.312 338.15C247.908 342.885 251.191 347.849 254.14 353.011C254.682 354.117 253.195 355.497 252.329 354.422C248.934 350.054 245.776 345.508 242.868 340.802C237.52 345.661 231.312 349.479 224.563 352.059C229.035 363.686 227.643 378.855 224.418 394.545C224.11 396.054 221.166 409.689 219.25 410.142C216.988 410.687 214.69 411.067 212.372 411.279C208.572 430.76 204.531 450.087 203.585 467.88C203.594 468.232 203.738 468.568 203.987 468.818C204.237 469.067 204.572 469.211 204.925 469.219C207.472 469.407 210.025 469.527 212.61 469.657C212.44 470.796 211.609 477.237 211.334 479.319C210.971 481.146 210.757 483 210.697 484.863C207.096 485.263 214.639 495.843 220.553 491.673C224.662 488.778 225.268 485.621 230.449 490.801C234.73 495.605 240.471 498.87 246.788 500.093C253.537 501.941 264.218 503.906 266.143 504.387C266.011 503.38 265.943 502.339 265.909 501.335C252.942 498.304 240.989 497.26 233.557 489.455ZM111.681 240.634C117.687 221.677 117.484 223.195 117.314 222.887C110.04 220.931 102.643 219.463 95.1723 218.492C94.467 218.397 93.7339 217.79 94.0296 216.983C96.6186 209.596 99.7939 202.427 103.525 195.546C103.996 194.711 105.475 195.281 105.102 196.218C102.395 202.994 99.398 209.569 96.8139 216.345C103.39 217.328 106.67 217.916 113.588 219.398C116.939 220.118 120.515 220.229 119.695 223.559C119.501 224.344 114.428 240.123 114.327 240.434C120.799 244.133 127.019 248.257 132.945 252.779C133.521 253.447 132.976 254.799 132.021 254.423C128.655 252.608 125.426 250.549 122.359 248.263C112.312 241.832 111.311 242.103 111.681 240.634ZM125.849 287.367C123.32 294.867 123.111 298.323 121.824 300.919C121.389 301.794 120.213 301.289 120.145 300.485C119.837 296.971 122.991 287.216 124.204 283.976C122.119 282.587 119.871 277.111 119.005 275.022C117.454 272.149 116.799 268.877 117.127 265.628C117.305 264.825 118.472 265.056 118.503 265.829C118.719 271.422 124.377 279.981 125.178 281.497C129.968 269.561 135.746 258.047 142.453 247.075C142.6 246.825 142.84 246.645 143.121 246.573C143.401 246.5 143.698 246.542 143.947 246.69C144.196 246.837 144.377 247.077 144.449 247.357C144.521 247.637 144.479 247.934 144.332 248.183C141.437 254.888 131.978 269.146 125.837 287.364L125.849 287.367ZM163.958 286.394C161.867 297.768 157.444 312.035 150.338 321.115C145.61 327.155 137.815 332.249 129.909 329.535C129.738 329.483 129.591 329.371 129.495 329.22C129.399 329.07 129.359 328.89 129.383 328.713C129.407 328.536 129.493 328.373 129.626 328.253C129.759 328.134 129.93 328.065 130.109 328.06C139.145 327.854 145.894 325.522 152.519 312.728C156.54 304.526 159.418 295.811 161.075 286.828C162.35 280.052 161.947 279.513 162.818 277.588C162.93 277.405 163.093 277.257 163.287 277.165C163.481 277.072 163.698 277.038 163.911 277.066C164.124 277.095 164.325 277.185 164.488 277.325C164.651 277.465 164.77 277.65 164.83 277.856C165.069 280.732 164.77 283.628 163.946 286.394H163.958ZM225.016 296.222C215.463 300.224 206.2 304.888 197.296 310.178C181.84 319.932 176.968 326.656 172.875 329.234C172.692 329.334 172.481 329.372 172.274 329.343C172.068 329.313 171.876 329.218 171.729 329.07C171.581 328.923 171.486 328.731 171.456 328.525C171.427 328.318 171.465 328.107 171.566 327.925C175.175 322.113 200.471 301.018 224.369 294.713C225.238 294.482 225.878 295.828 225.004 296.222H225.016ZM224.424 485.026C222.198 485.537 221.12 486.806 218.338 489.409C216.389 490.382 213.928 487.93 212.468 486.286C213.172 484.384 213.547 482.376 213.577 480.348C213.863 478.031 214.682 471.021 214.809 469.814C217.562 469.962 221.649 470.196 226.236 470.464C225.916 475.355 225.307 480.223 224.412 485.041L224.424 485.026Z" fill="#212941"/>
<path d="M203.333 333.361C191.74 329.831 178.231 330.629 161.666 331.011C144.354 331.411 134.47 331.719 127.377 333.084C126.973 332.203 126.567 331.319 126.173 330.441C119.06 328.365 112.417 324.928 106.615 320.32C83.2989 302.376 76.8741 258.338 77.2252 229.069C77.5178 204.857 89.6191 193.418 104.2 191.933C109.026 191.444 107.628 191.052 112.63 198.441C112.92 197.516 113.358 196.643 113.926 195.857C115.318 193.503 116.842 191.229 118.491 189.047C118.932 188.407 119.571 187.928 120.31 187.686C121.049 187.444 121.847 187.452 122.581 187.708C122.51 186.633 122.51 186.131 122.147 183.396C120.678 183.23 119.261 182.753 117.991 181.996C116.721 181.24 115.627 180.221 114.782 179.008C113.936 177.796 113.359 176.416 113.089 174.963C112.819 173.51 112.862 172.015 113.215 170.58C112.626 170.378 112.103 170.019 111.703 169.542C102.084 157.958 98.5819 146.928 102.444 137.972C103.49 135.643 105.136 133.633 107.214 132.149C109.291 130.665 111.726 129.76 114.268 129.526C119.153 128.827 124.207 129.643 128.128 127.648C131.741 125.8 135.409 122.412 139.096 120.256C151.416 113.03 160.795 122.042 157.616 132.837C156.186 136.594 154.215 140.122 151.764 143.309C155.63 152.09 161.257 166.477 161.494 176.019C161.721 178.156 161.348 180.314 160.418 182.252C159.488 184.19 158.037 185.83 156.227 186.99C157.019 187.074 157.769 187.389 158.383 187.895C158.998 188.402 159.45 189.078 159.683 189.839C160.63 189.57 161.643 189.652 162.535 190.07L162.467 189.762C159.215 187.729 172.539 179.342 176.256 178.187C187.197 174.799 196.892 184.566 205.726 193.119C204.824 186.24 203.53 179.418 201.851 172.686C195.873 148.986 181.523 117.197 159.313 107.267C120.943 90.1208 37.1113 122.131 19.8602 169.246C10.7341 194.166 17.3315 232.95 24.357 258.551C32.7175 288.064 44.2927 316.571 58.8745 343.559C77.9521 379.496 100.722 410.755 141.773 412.551C141.637 423.251 141.939 459.884 142.081 464.581C136.186 461.914 131.264 459.924 118.294 454.485C115.393 453.111 112.357 452.043 109.236 451.297C104.474 450.388 98.6373 451.466 96.0871 456.062C95.5619 457.094 95.2547 458.224 95.1844 459.38C95.1142 460.537 95.2824 461.695 95.6787 462.784C96.075 463.872 96.6909 464.868 97.4881 465.709C98.2853 466.549 99.2468 467.217 100.313 467.67C101.406 468.057 102.568 468.209 103.724 468.117C104.879 468.025 106.003 467.692 107.021 467.138C108.04 466.584 108.93 465.822 109.635 464.902C110.341 463.982 110.844 462.924 111.114 461.797C120.542 464.951 130.004 468.071 139.564 470.729C130.764 474.993 122.337 479.987 114.37 485.658C110.483 488.885 107.514 494.084 109.673 499.145C111.407 503.207 117.256 507.153 121.448 504.008C124.552 501.67 126.376 494.922 122.421 492.132C130.099 485.06 138.247 478.515 146.809 472.543C161.796 476.048 176.58 477.844 189.112 483.323C185.204 490.013 187.751 494.894 192.266 496.139C197.81 497.679 202.375 492.917 202.969 487.718C203.653 481.715 198.965 476.571 193.911 474.098C187.175 471.387 180.076 469.68 172.844 469.032C167.072 468.135 161.235 467.421 155.433 466.876C162.107 462.616 169.018 458.723 176.096 455.135C176.355 455.758 176.75 456.314 177.253 456.764C177.756 457.213 178.353 457.543 179.001 457.73C179.649 457.916 180.331 457.955 180.996 457.842C181.66 457.729 182.291 457.468 182.841 457.078C183.57 456.412 184.121 455.575 184.446 454.643C184.771 453.711 184.859 452.713 184.703 451.739C184.547 450.764 184.15 449.844 183.55 449.06C182.95 448.277 182.165 447.655 181.265 447.25C176.604 444.786 171.409 447.154 167.275 449.566C161.606 452.807 156.229 456.533 151.204 460.703C151.238 453.29 151.17 425.813 151.305 412.997C162.473 413.552 207.602 412.942 219.238 410.179C221.154 409.726 224.092 396.091 224.406 394.582C230.03 367.299 230.055 341.495 203.333 333.361ZM125.655 333.45C116.452 335.482 106.821 334.028 98.6281 329.369C77.3391 318.395 62.0623 287.626 53.4075 265.259C47.0401 248.812 42.626 231.675 40.2559 214.199C37.9521 197.157 36.7232 179.539 43.7117 163.409C50.0907 149.145 60.4301 137.012 73.5015 128.451C73.65 128.367 73.8236 128.339 73.9909 128.372C74.1583 128.405 74.3083 128.497 74.414 128.631C74.5196 128.765 74.5739 128.932 74.567 129.103C74.56 129.273 74.4923 129.435 74.3762 129.56C68.0253 135.227 62.1075 141.361 56.6723 147.911C46.1289 160.925 40.8531 177.422 41.8883 194.139C43.3945 239.153 63.2851 288.387 83.1172 311.795C101.228 333.164 116.779 330.324 124.719 331.386C124.947 331.409 125.166 331.492 125.352 331.625C125.539 331.759 125.688 331.939 125.783 332.147C125.879 332.356 125.918 332.586 125.897 332.814C125.876 333.043 125.796 333.262 125.664 333.45H125.655Z" fill="#3A5AB7"/>
</svg>
