<svg width="616" height="616" viewBox="0 0 616 616" fill="none" xmlns="http://www.w3.org/2000/svg">
<path d="M362.144 425.841C371.314 426.898 380.561 427.122 389.772 426.509C390.112 426.507 390.437 426.37 390.676 426.128C390.915 425.887 391.048 425.56 391.046 425.22C391.043 424.88 390.907 424.555 390.665 424.316C390.423 424.078 390.096 423.945 389.757 423.947C380.585 423.065 371.36 422.878 362.16 423.386C361.852 423.411 361.565 423.55 361.356 423.776C361.146 424.002 361.028 424.298 361.026 424.606C361.024 424.915 361.138 425.212 361.345 425.441C361.552 425.67 361.837 425.812 362.144 425.841Z" fill="#212941"/>
<path d="M456.98 288.288C451.128 288.377 431.607 288.75 427.72 288.87C427.257 288.885 426.817 289.075 426.489 289.402C426.162 289.729 425.971 290.169 425.955 290.632C425.173 314.502 426.196 337.71 426.137 361.681C426.088 383.288 425.275 389.093 425.213 393.387C425.209 393.768 425.353 394.137 425.616 394.413C425.879 394.69 426.239 394.853 426.621 394.868C427.622 394.899 428.616 394.893 429.614 394.868C442.147 394.542 446.52 395.118 453.555 394.754C453.75 394.85 453.966 394.894 454.183 394.883C454.399 394.872 454.61 394.807 454.794 394.693C454.979 394.579 455.131 394.42 455.238 394.231C455.344 394.042 455.401 393.829 455.403 393.612C455.526 372.742 456.897 305.253 458.791 290.308C458.823 290.053 458.8 289.794 458.724 289.548C458.647 289.303 458.519 289.076 458.347 288.885C458.175 288.693 457.964 288.541 457.728 288.438C457.493 288.335 457.237 288.284 456.98 288.288Z" fill="#3A5AB7"/>
<path d="M517.607 280.135C517.449 279.952 517.255 279.803 517.037 279.697C516.82 279.591 516.583 279.531 516.341 279.519C506.506 278.627 496.601 278.883 486.825 280.28C486.395 280.357 486.007 280.586 485.731 280.925C485.455 281.264 485.31 281.691 485.322 282.128C485.828 302.41 483.739 323.12 483.299 343.214C483.012 356.341 483.299 389.17 483.188 392.438C483.102 395.13 489.114 394.191 493.592 394.32C496.201 394.397 508.86 394.508 512.574 394.536C512.772 394.649 512.996 394.707 513.224 394.705C513.451 394.703 513.674 394.641 513.87 394.524C514.065 394.408 514.227 394.241 514.337 394.042C514.447 393.842 514.502 393.617 514.496 393.39C514.068 376.592 515.891 359.011 516.178 341.581C516.375 329.508 516.286 317.465 516.615 305.425C517.274 281.327 518.747 281.46 517.607 280.135Z" fill="#3A5AB7"/>
<path d="M576.481 260.343C576.466 259.881 576.275 259.443 575.946 259.118C575.617 258.794 575.175 258.608 574.713 258.6C564.383 258.406 552.617 257.288 542.373 258.729C541.97 258.786 541.597 258.977 541.315 259.271C541.032 259.564 540.856 259.944 540.815 260.349C537.867 289.224 538.754 317.853 539.62 346.934C541.114 396.997 539.78 393.473 540.763 394.446C542.09 395.762 540.883 393.47 572.105 394.508V394.56C572.269 394.564 572.433 394.534 572.586 394.474C572.74 394.414 572.88 394.324 572.998 394.209C573.117 394.095 573.211 393.958 573.277 393.807C573.342 393.656 573.377 393.493 573.38 393.328C573.697 393.338 577.744 302.823 576.481 260.343Z" fill="#3A5AB7"/>
<path d="M573.595 197.714C573.595 197.475 573.548 197.238 573.456 197.017C573.365 196.796 573.23 196.595 573.061 196.426C572.892 196.257 572.691 196.123 572.469 196.032C572.248 195.941 572.011 195.894 571.772 195.894C566.476 195.819 561.179 196.017 555.904 196.489C555.577 196.489 555.263 196.618 555.032 196.849C554.801 197.08 554.672 197.394 554.672 197.721C554.672 198.047 554.801 198.361 555.032 198.592C555.263 198.823 555.577 198.953 555.904 198.953C560.336 199.353 564.321 199.51 567.635 199.547C553.932 211.149 501.723 255.372 497.809 258.717L472.516 233.504C472.215 233.204 471.816 233.023 471.393 232.993C470.969 232.963 470.549 233.086 470.209 233.341L428.216 265.496C427.989 265.702 427.848 265.986 427.819 266.291C427.79 266.596 427.876 266.901 428.06 267.146C428.244 267.392 428.513 267.559 428.814 267.617C429.115 267.675 429.427 267.618 429.688 267.458C429.688 267.458 469.06 238.574 471.093 237.068L496.423 262.478C496.748 262.802 497.184 262.992 497.644 263.01C498.103 263.028 498.552 262.872 498.902 262.573L569.973 200.973C570.025 204.999 570.241 209.597 570.49 213.601C570.49 213.941 570.625 214.267 570.866 214.507C571.106 214.747 571.432 214.882 571.772 214.882C572.112 214.882 572.438 214.747 572.678 214.507C572.918 214.267 573.053 213.941 573.053 213.601C573.367 208.568 573.623 202.744 573.595 197.714Z" fill="#212941"/>
<path d="M418.381 394.677H587.643C587.975 394.677 588.294 394.545 588.529 394.31C588.764 394.075 588.896 393.756 588.896 393.424C588.896 393.091 588.764 392.772 588.529 392.537C588.294 392.302 587.975 392.17 587.643 392.17H418.381C418.049 392.17 417.73 392.302 417.495 392.537C417.26 392.772 417.128 393.091 417.128 393.424C417.128 393.756 417.26 394.075 417.495 394.31C417.73 394.545 418.049 394.677 418.381 394.677Z" fill="#212941"/>
<path d="M302.721 243.899C299.682 241.864 296.084 240.828 292.428 240.933C292.182 234.853 292.139 234.326 291.96 231.924C293.592 231.468 295.287 231.277 296.98 231.36C297.285 231.382 297.586 231.29 297.827 231.102C298.067 230.915 298.229 230.644 298.282 230.344C298.334 230.043 298.274 229.734 298.111 229.475C297.949 229.217 297.696 229.028 297.402 228.946C295.523 228.746 293.625 228.819 291.766 229.161C291.664 227.818 291.553 226.472 291.479 225.126C291.479 224.8 291.35 224.486 291.119 224.255C290.888 224.024 290.574 223.894 290.247 223.894C289.921 223.894 289.607 224.024 289.376 224.255C289.145 224.486 289.015 224.8 289.015 225.126C288.935 226.666 288.855 228.206 288.791 229.765C279.892 232.069 278.796 237.006 282.738 241.059C284.421 242.732 286.601 243.813 288.951 244.139C289.148 247.835 289.453 253.034 289.675 257.186C287.334 257.288 284.984 257.211 282.788 257.088C282.448 257.065 282.114 257.178 281.857 257.401C281.601 257.625 281.445 257.942 281.422 258.281C281.399 258.62 281.512 258.955 281.736 259.211C281.959 259.467 282.276 259.624 282.615 259.647C284.913 259.829 287.368 260.038 289.825 260.066C289.887 261.326 289.93 262.367 289.946 263.038C289.946 263.378 290.081 263.704 290.321 263.944C290.561 264.184 290.887 264.319 291.227 264.319C291.567 264.319 291.893 264.184 292.133 263.944C292.373 263.704 292.508 263.378 292.508 263.038C292.527 262.019 292.564 261.005 292.594 259.989C306.541 259.028 309.002 249.009 302.721 243.899ZM285.264 238.568C283.65 236.969 283.388 235.882 285.806 234.336C286.726 233.766 287.701 233.29 288.717 232.916C288.717 233.276 288.612 235.956 288.784 240.397C287.463 240.127 286.244 239.494 285.264 238.568ZM292.681 256.927C292.804 252.397 292.742 249.28 292.57 244.607C295.347 244.525 298.088 245.263 300.448 246.73C304.551 249.997 302.373 255.686 292.681 256.927Z" fill="#FF9500"/>
<path d="M245.864 191.594C244.102 190.332 241.983 189.664 239.815 189.688C239.698 187.018 239.744 187.359 239.532 185.271C240.284 185.062 241.064 184.967 241.845 184.988C242.151 185.014 242.457 184.924 242.701 184.736C242.944 184.548 243.109 184.275 243.162 183.972C243.215 183.669 243.152 183.357 242.987 183.097C242.821 182.838 242.564 182.65 242.267 182.57C241.265 182.431 240.25 182.431 239.248 182.57C239.18 181.954 239.107 181.338 239.051 180.722C239.051 180.395 238.921 180.082 238.69 179.851C238.459 179.62 238.146 179.49 237.819 179.49C237.492 179.49 237.179 179.62 236.948 179.851C236.717 180.082 236.587 180.395 236.587 180.722C236.517 181.511 236.45 182.298 236.384 183.084C228.588 185.071 230.621 191.49 236.347 192.866C236.489 196.131 236.452 196.196 236.778 199.686C235.598 199.732 234.428 199.719 233.319 199.667C232.983 199.65 232.655 199.766 232.403 199.989C232.152 200.212 231.998 200.525 231.976 200.86C231.953 201.196 232.063 201.527 232.282 201.782C232.501 202.037 232.812 202.195 233.147 202.224C234.379 202.334 235.7 202.464 237.021 202.532C237.058 202.95 237.101 203.372 237.132 203.794C237.132 204.134 237.267 204.46 237.508 204.7C237.748 204.941 238.074 205.076 238.414 205.076C238.753 205.076 239.079 204.941 239.32 204.7C239.56 204.46 239.695 204.134 239.695 203.794L239.769 202.513C248.029 201.882 250.352 195.272 245.864 191.594ZM235.287 188.41C234.502 187.646 234.718 187.553 234.868 187.366C235.243 186.971 235.695 186.656 236.196 186.442C236.171 187.304 236.196 188.166 236.196 189.026C235.861 188.873 235.554 188.665 235.287 188.41ZM243.111 198.17C242.136 198.76 241.058 199.162 239.935 199.353C240.04 196.904 240.049 196.464 239.96 193.353C241.248 193.343 242.511 193.711 243.591 194.413C245.168 195.672 244.641 197.2 243.111 198.17Z" fill="#FF9500"/>
<path d="M349.888 159.938C347.844 158.505 345.399 157.756 342.903 157.801C342.73 153.655 342.749 154.225 342.573 152.358C343.519 152.089 344.502 151.973 345.484 152.016C345.791 152.042 346.096 151.952 346.34 151.764C346.584 151.576 346.748 151.304 346.801 151.001C346.854 150.697 346.791 150.385 346.626 150.126C346.46 149.866 346.203 149.678 345.906 149.599C344.713 149.461 343.508 149.481 342.321 149.657C342.241 148.875 342.157 148.096 342.096 147.307C342.096 146.98 341.966 146.667 341.735 146.436C341.504 146.205 341.191 146.075 340.864 146.075C340.537 146.075 340.224 146.205 339.993 146.436C339.762 146.667 339.632 146.98 339.632 147.307C339.561 148.268 339.487 149.223 339.419 150.181C330.247 152.54 333.259 159.618 339.419 160.988C339.589 164.992 339.558 165.011 339.909 169.163C338.471 169.218 337.038 169.209 335.689 169.141C335.354 169.124 335.025 169.24 334.773 169.463C334.522 169.686 334.369 169.999 334.346 170.335C334.323 170.67 334.433 171.001 334.652 171.256C334.871 171.511 335.182 171.669 335.517 171.698C336.992 171.824 338.557 171.972 340.137 172.027C340.177 172.575 340.226 173.121 340.26 173.669C340.26 174.009 340.395 174.335 340.635 174.575C340.876 174.815 341.202 174.95 341.541 174.95C341.881 174.95 342.207 174.815 342.447 174.575C342.688 174.335 342.823 174.009 342.823 173.669C342.853 173.108 342.878 172.551 342.906 171.993C352.734 171.248 354.567 163.77 349.888 159.938ZM337.781 156.279C336.746 155.266 337.011 154.949 337.59 154.471C338.1 154.063 338.664 153.726 339.265 153.47C339.228 154.838 339.247 155.565 339.29 157.2C338.722 157.009 338.203 156.695 337.771 156.279H337.781ZM343.054 168.889C343.155 165.987 343.161 165.057 343.054 161.466C344.668 161.438 346.256 161.888 347.615 162.759C350.085 164.74 348.604 167.931 343.044 168.889H343.054Z" fill="#FF9500"/>
<path d="M314.878 217.297C305.278 211.476 289.117 211.137 280.493 214.189C274.512 216.352 269.306 220.239 265.534 225.36C261.762 230.481 259.593 236.605 259.301 242.959C259.01 249.312 260.609 255.609 263.896 261.054C267.184 266.499 272.012 270.846 277.77 273.547C287.801 277.22 298.739 277.614 309.008 274.671C314.666 272.615 319.631 269.006 323.333 264.258C327.034 259.51 329.322 253.814 329.935 247.825C330.548 241.836 329.461 235.795 326.797 230.396C324.134 224.996 320.003 220.456 314.878 217.297ZM279.307 270.273C274.139 267.875 269.801 263.995 266.842 259.126C263.883 254.258 262.437 248.62 262.688 242.928C262.938 237.237 264.874 231.748 268.25 227.158C271.626 222.569 276.289 219.085 281.647 217.151C287.006 215.216 292.818 214.916 298.347 216.291C303.876 217.665 308.872 220.651 312.701 224.869C316.53 229.088 319.02 234.349 319.854 239.985C320.688 245.621 319.829 251.377 317.385 256.524C314.154 263.392 308.329 268.696 301.189 271.272C294.05 273.849 286.179 273.486 279.307 270.264V270.273Z" fill="#FF9500"/>
<path d="M358.789 141.372C351.011 137.732 342.194 136.968 333.906 139.216C329.641 140.749 325.927 143.513 323.235 147.159C320.543 150.805 318.994 155.169 318.785 159.696C318.576 164.223 319.716 168.711 322.06 172.589C324.404 176.468 327.848 179.563 331.953 181.483C339.313 184.088 347.295 184.369 354.819 182.287C358.869 180.827 362.422 178.248 365.065 174.849C367.707 171.449 369.33 167.37 369.746 163.085C370.162 158.8 369.353 154.485 367.414 150.641C365.474 146.798 362.483 143.583 358.789 141.372ZM333.49 178.196C329.984 176.57 327.041 173.939 325.034 170.637C323.027 167.334 322.047 163.51 322.218 159.649C322.389 155.789 323.704 152.066 325.995 148.954C328.287 145.842 331.451 143.482 335.087 142.172C338.723 140.863 342.666 140.664 346.416 141.6C350.165 142.537 353.551 144.566 356.145 147.432C358.738 150.297 360.421 153.868 360.98 157.692C361.539 161.516 360.949 165.419 359.285 168.907C357.095 173.558 353.148 177.149 348.311 178.893C343.475 180.636 338.145 180.389 333.49 178.206V178.196Z" fill="#FF9500"/>
<path d="M257.109 185.702L257.161 185.684C256.307 183.214 254.972 180.937 253.234 178.985C251.496 177.033 249.389 175.444 247.034 174.31C240.092 171.854 232.578 171.504 225.437 173.305C221.822 174.609 218.656 176.922 216.314 179.969C213.973 183.016 212.553 186.67 212.223 190.499C211.893 194.328 212.667 198.171 214.453 201.573C216.239 204.976 218.963 207.796 222.302 209.699C229.613 212.823 237.752 213.441 245.451 211.457C247.914 210.54 250.171 209.145 252.092 207.351C254.013 205.558 255.56 203.402 256.644 201.008C257.728 198.614 258.327 196.028 258.407 193.402C258.486 190.775 258.045 188.158 257.109 185.702ZM231.477 207.546C227.471 205.662 224.373 202.269 222.861 198.107C221.349 193.946 221.545 189.356 223.408 185.339C224.83 182.309 227.113 179.765 229.973 178.025C232.833 176.286 236.143 175.429 239.487 175.56C242.832 175.692 246.064 176.806 248.779 178.765C251.493 180.723 253.57 183.438 254.75 186.571L254.802 186.553C255.873 189.715 255.993 193.122 255.149 196.352C254.304 199.582 252.532 202.493 250.05 204.727C247.568 206.96 244.487 208.418 241.186 208.919C237.885 209.42 234.51 208.942 231.477 207.546Z" fill="#FF9500"/>
<path d="M252.723 435.032C229.029 433.87 213.811 434.887 183.824 436.023C184.415 428.975 183.858 421.878 182.176 415.008C182.092 414.713 181.901 414.459 181.639 414.297C181.378 414.136 181.066 414.077 180.763 414.134C180.461 414.191 180.191 414.358 180.007 414.604C179.822 414.849 179.735 415.155 179.764 415.461C180.46 421.353 179.955 426.94 180.654 446.631C180.674 446.96 180.819 447.27 181.06 447.495C181.302 447.72 181.62 447.843 181.95 447.84C182.28 447.836 182.596 447.706 182.833 447.476C183.069 447.245 183.208 446.933 183.22 446.603C183.257 443.954 183.528 441.296 183.694 438.62C205.63 439.183 236.67 437.542 252.656 437.594C252.995 437.603 253.325 437.477 253.571 437.243C253.818 437.009 253.962 436.686 253.971 436.347C253.98 436.007 253.853 435.677 253.619 435.431C253.385 435.184 253.063 435.04 252.723 435.032Z" fill="#212941"/>
<path d="M340.699 418.409C339.251 418.409 326.749 418.717 320.623 418.892C320.525 417.574 320.42 416.259 320.337 414.938C320.34 414.611 320.214 414.296 319.986 414.062C319.757 413.829 319.445 413.695 319.119 413.692C318.792 413.688 318.477 413.814 318.243 414.043C318.01 414.271 317.876 414.583 317.873 414.91C317.756 416.259 317.632 417.605 317.522 418.951C301.114 418.926 256.538 418.695 233.188 420.839C224.038 421.97 214.823 422.484 205.604 422.379C205.296 422.386 205.002 422.508 204.78 422.721C204.558 422.933 204.424 423.222 204.403 423.529C204.383 423.835 204.478 424.139 204.67 424.379C204.862 424.62 205.136 424.779 205.44 424.827C214.783 425.37 224.154 425.188 233.468 424.282C247.128 423.34 303.692 421.886 317.343 421.532C317.124 428.453 317.329 435.38 317.959 442.276C317.963 442.615 318.103 442.94 318.346 443.177C318.59 443.414 318.917 443.544 319.257 443.54C319.597 443.535 319.921 443.396 320.158 443.153C320.395 442.909 320.526 442.582 320.521 442.242C320.617 439.975 321.23 430.723 320.796 421.483C327.495 421.859 334.215 421.685 340.886 420.962C341.215 420.924 341.515 420.76 341.726 420.506C341.936 420.251 342.04 419.925 342.016 419.595C341.992 419.266 341.841 418.959 341.596 418.737C341.35 418.516 341.029 418.399 340.699 418.409Z" fill="#212941"/>
<path d="M381.267 455.985C379.5 453.697 377.23 451.846 374.634 450.575C372.037 449.303 369.183 448.645 366.292 448.651L194.074 453.2C193.837 453.197 193.602 453.241 193.382 453.33C193.162 453.42 192.963 453.553 192.796 453.721C192.629 453.889 192.497 454.089 192.409 454.309C192.321 454.529 192.278 454.765 192.283 455.002C192.288 455.239 192.341 455.473 192.438 455.689C192.535 455.905 192.675 456.1 192.849 456.261C193.023 456.422 193.228 456.546 193.451 456.626C193.674 456.706 193.911 456.741 194.148 456.727L296.999 455.03C296.176 462.178 295.999 469.385 296.469 476.565C277.681 476.904 257.969 477.609 245.436 479.082C245.132 479.139 244.861 479.308 244.676 479.556C244.491 479.804 244.407 480.113 244.439 480.421C244.471 480.728 244.618 481.013 244.85 481.217C245.082 481.421 245.383 481.531 245.692 481.524C254.113 480.748 271.952 481.121 280.97 480.813L296.663 480.24C296.663 480.505 296.688 480.745 296.703 481.013C296.703 481.353 296.838 481.679 297.078 481.919C297.318 482.159 297.644 482.294 297.984 482.294C298.324 482.294 298.65 482.159 298.89 481.919C299.13 481.679 299.265 481.353 299.265 481.013C299.265 480.705 299.296 480.434 299.312 480.147L335.862 478.811C336.202 478.808 336.527 478.67 336.765 478.428C337.003 478.185 337.135 477.858 337.133 477.519C337.13 477.179 336.992 476.854 336.75 476.616C336.507 476.377 336.18 476.245 335.84 476.248C326.785 476.248 313.529 476.291 299.521 476.516C299.851 470.904 300.002 468.397 299.768 454.987L366.477 453.884C368.527 453.898 370.547 454.38 372.384 455.291C374.22 456.203 375.825 457.521 377.076 459.145C379.559 462.821 380.832 467.181 380.716 471.616C380.892 473.74 380.611 475.876 379.893 477.883C379.174 479.889 378.035 481.719 376.552 483.249C373.312 486.171 369.223 487.98 364.882 488.414C363.123 488.451 229.442 491.731 209.252 492.279C209.443 488.546 209.745 484.358 209.582 470.088C223.834 470.347 238.089 469.759 252.271 468.326C252.602 468.303 252.911 468.153 253.134 467.906C253.356 467.66 253.474 467.337 253.463 467.005C253.451 466.673 253.312 466.359 253.074 466.128C252.835 465.897 252.516 465.767 252.185 465.767C223.849 466.192 228.182 466.383 209.545 467.615C209.471 465.058 209.336 462.52 209.299 459.967C209.314 459.64 209.198 459.321 208.978 459.079C208.758 458.838 208.45 458.693 208.124 458.678C207.797 458.663 207.478 458.778 207.236 458.999C206.994 459.219 206.85 459.526 206.835 459.853C205.747 470.659 205.652 481.542 206.548 492.366L192.091 492.76C191.848 492.765 191.609 492.817 191.386 492.915C191.164 493.012 190.963 493.152 190.795 493.327C190.627 493.502 190.495 493.709 190.406 493.935C190.318 494.161 190.275 494.402 190.28 494.645C190.285 494.888 190.337 495.127 190.434 495.349C190.532 495.572 190.672 495.773 190.847 495.941C191.022 496.109 191.229 496.241 191.455 496.329C191.681 496.418 191.922 496.461 192.165 496.456L365.184 493.632C370.769 493.069 376.03 490.743 380.205 486.991C382.216 484.968 383.77 482.537 384.759 479.861C385.749 477.185 386.151 474.328 385.94 471.483C386.056 465.954 384.421 460.529 381.267 455.985Z" fill="#212941"/>
<path d="M26.7134 487.955C39.9574 488.62 65.0718 488.805 86.4654 487.955C86.7948 487.939 87.1053 487.797 87.3327 487.558C87.5601 487.319 87.6869 487.002 87.6869 486.672C87.6869 486.343 87.5601 486.025 87.3327 485.787C87.1053 485.548 86.7948 485.406 86.4654 485.389C68.9341 484.727 43.1021 484.644 26.7134 485.491C26.5517 485.491 26.3915 485.523 26.242 485.585C26.0925 485.647 25.9567 485.738 25.8423 485.852C25.7279 485.966 25.6371 486.102 25.5752 486.252C25.5133 486.401 25.4814 486.561 25.4814 486.723C25.4814 486.885 25.5133 487.045 25.5752 487.195C25.6371 487.344 25.7279 487.48 25.8423 487.594C25.9567 487.709 26.0925 487.799 26.242 487.861C26.3915 487.923 26.5517 487.955 26.7134 487.955Z" fill="#212941"/>
<path d="M392.146 483.2H565.063C565.771 483.2 566.341 482.276 566.338 481.558C566.335 480.84 565.759 480.686 565.051 480.689H392.136C391.459 480.689 390.904 481.657 390.904 482.334C390.904 483.012 391.468 483.203 392.146 483.2Z" fill="#212941"/>
<path d="M94.6274 300.528C172.08 246.4 166.681 249.834 167.744 250.078C167.957 250.127 168.158 250.22 168.334 250.351C168.51 250.482 168.657 250.648 168.766 250.838C176.706 264.879 180.644 280.828 180.151 296.95C179.659 313.072 174.755 328.751 165.972 342.281C157.19 355.81 144.866 366.673 130.341 373.687C115.816 380.7 99.6454 383.597 83.5887 382.061C67.532 380.525 52.2038 374.616 39.2715 364.976C26.3392 355.335 16.2979 342.334 10.2398 327.385C4.18167 312.436 2.33874 296.112 4.91144 280.188C7.48414 264.265 14.374 249.351 24.8315 237.071C24.9695 236.91 25.1381 236.779 25.3275 236.685C25.5168 236.591 25.7231 236.536 25.9341 236.522C26.9783 236.464 22.5153 232.632 94.6274 300.528ZM26.1805 240.354C15.9068 252.992 9.48527 268.318 7.68178 284.505C5.87829 300.692 8.76901 317.056 16.0091 331.646C23.2493 346.235 34.5332 358.434 48.515 366.787C62.4969 375.14 78.5864 379.295 94.8645 378.757C157.934 376.601 196.166 308.841 166.85 253.906L95.1972 303.146C94.9543 303.306 94.6656 303.381 94.3756 303.36C94.0856 303.34 93.8104 303.224 93.5925 303.032C93.5925 303.343 94.7352 304.135 26.1805 240.354Z" fill="#212941"/>
<path d="M90.9893 291.02C91.1931 291.241 91.4708 291.38 91.7698 291.41C92.0689 291.44 92.3688 291.36 92.613 291.185C92.8572 291.01 93.0289 290.751 93.0957 290.458C93.1625 290.165 93.1199 289.858 92.9759 289.594C93.2839 289.594 93.7828 291.334 57.8916 208.704C57.7122 208.299 57.3904 207.974 56.9873 207.791C56.5842 207.607 56.1279 207.578 55.7048 207.709C50.229 209.375 45.0624 211.925 40.4095 215.258C35.6387 218.558 31.5834 222.787 28.4868 227.692C28.2936 228.039 28.2192 228.439 28.2748 228.833C28.3304 229.226 28.513 229.59 28.7948 229.87C91.9317 291.91 90.9893 290.712 90.9893 291.02ZM55.2612 211.661C46.0995 214.708 38.114 220.533 32.4138 228.327C35.5215 231.434 80.8622 277.151 87.7799 284.195C83.6681 275.121 57.1185 215.88 55.2458 211.661H55.2612Z" fill="#212941"/>
<path d="M62.4697 187.88C62.2041 188.007 61.9945 188.227 61.8809 188.499C61.7673 188.77 61.7576 189.074 61.8537 189.352C62.1617 189.352 61.2377 187.338 91.3509 280.52C91.4866 280.922 91.7581 281.264 92.1186 281.487C92.479 281.71 92.906 281.801 93.326 281.743C93.7461 281.685 94.1329 281.483 94.42 281.171C94.7071 280.859 94.8765 280.457 94.8991 280.034L99.0879 185.438C99.1045 185.124 99.0248 184.813 98.8597 184.546C98.6946 184.279 98.4518 184.069 98.1639 183.944C92.2807 181.874 85.9787 181.282 79.8132 182.222C73.75 183.032 67.8823 184.928 62.4913 187.818L62.4697 187.88ZM95.9216 186.432C85.449 183.477 74.2438 184.623 64.5857 189.636C66.2058 194.354 88.8191 261.326 91.7113 270.051C92.2318 258.945 95.6937 190.627 95.9216 186.426V186.432Z" fill="#212941"/>
<path d="M181.123 229.408C176.407 215.964 167.103 204.612 154.847 197.348C142.579 190.354 128.667 186.759 114.545 186.934C114.132 186.955 113.738 187.116 113.43 187.392C113.122 187.668 112.917 188.041 112.851 188.45C112.851 188.45 96.8355 290.94 96.8355 291.014C96.7854 291.259 96.8111 291.513 96.909 291.743C97.0069 291.973 97.1725 292.168 97.3837 292.301C97.5949 292.435 97.8418 292.501 98.0915 292.491C98.3413 292.481 98.5821 292.396 98.782 292.246C99.09 292.246 180.223 231.665 180.531 231.434C180.834 231.205 181.056 230.884 181.162 230.519C181.269 230.154 181.255 229.764 181.123 229.408Z" fill="#3A5AB7"/>
<path d="M483.804 465.61C484.803 464.958 485.622 464.064 486.183 463.011C486.745 461.959 487.031 460.781 487.016 459.588H486.949C486.96 458.653 486.787 457.725 486.44 456.857C486.092 455.988 485.577 455.197 484.924 454.528C484.271 453.858 483.492 453.324 482.633 452.956C481.773 452.588 480.849 452.392 479.914 452.381C474.647 452.289 441.99 451.975 436.723 451.959C435.187 451.959 433.686 452.424 432.419 453.293C431.152 454.163 430.178 455.395 429.625 456.829C429.073 458.263 428.967 459.831 429.323 461.326C429.679 462.82 430.48 464.172 431.62 465.203C430.358 466.171 429.432 467.51 428.971 469.031C428.509 470.553 428.537 472.18 429.049 473.685C429.56 475.191 430.531 476.498 431.824 477.422C433.118 478.347 434.668 478.843 436.258 478.841C440.592 478.841 473.249 478.533 479.446 478.444C481.342 478.425 483.153 477.653 484.481 476.3C485.81 474.946 486.546 473.121 486.53 471.225H486.474C486.496 470.146 486.266 469.076 485.802 468.102C485.339 467.127 484.655 466.274 483.804 465.61ZM433.061 458.064C433.364 457.337 433.874 456.716 434.528 456.277C435.182 455.839 435.951 455.603 436.739 455.6C482.452 455.412 481.051 454.435 483.105 456.41C483.537 456.821 483.883 457.313 484.124 457.859C484.365 458.404 484.496 458.992 484.509 459.588H484.454C484.441 460.474 484.165 461.336 483.661 462.064C483.157 462.792 482.448 463.354 481.623 463.679C480.083 464.295 480.391 463.725 436.739 463.586C436.083 463.584 435.437 463.42 434.859 463.11C434.282 462.8 433.789 462.352 433.424 461.807C433.06 461.261 432.835 460.635 432.77 459.982C432.704 459.329 432.8 458.671 433.049 458.064H433.061ZM483.989 471.24C483.98 471.826 483.857 472.404 483.624 472.943C483.392 473.481 483.056 473.968 482.636 474.376C482.215 474.784 481.719 475.105 481.174 475.321C480.629 475.537 480.047 475.644 479.461 475.635C433.948 475.09 436.086 475.487 434.746 474.93C433.904 474.566 433.214 473.924 432.788 473.112C432.363 472.3 432.23 471.366 432.41 470.468C432.59 469.569 433.073 468.759 433.779 468.174C434.484 467.588 435.369 467.263 436.286 467.251C441.55 467.251 474.21 466.919 479.474 466.829C480.664 466.81 481.814 467.263 482.671 468.09C483.528 468.916 484.022 470.049 484.044 471.24H483.989Z" fill="#FF9500"/>
<path d="M149.214 464.63H149.158C149.17 463.695 148.997 462.767 148.65 461.899C148.303 461.03 147.789 460.239 147.136 459.57C146.483 458.9 145.704 458.366 144.845 457.998C143.985 457.63 143.061 457.434 142.126 457.423C136.86 457.343 104.202 457.026 98.9356 457.004C97.3554 456.997 95.8123 457.483 94.521 458.394C93.2298 459.305 92.2547 460.595 91.7314 462.087C91.2082 463.578 91.1629 465.195 91.6017 466.713C92.0406 468.231 92.9419 469.574 94.1801 470.556C93.6167 470.908 93.1271 471.366 92.7387 471.905C92.2233 470.581 91.3241 469.44 90.1564 468.631C88.9886 467.821 87.6055 467.378 86.1844 467.359C84.2102 467.328 81.8262 467.285 79.1867 467.239C80.0309 466.575 80.7104 465.725 81.172 464.756C81.6336 463.786 81.8649 462.723 81.8478 461.649H81.7924C81.8258 459.819 81.1401 458.05 79.8828 456.721C83.2338 456.678 85.7871 456.998 88.1987 454.522C89.5184 453.17 90.2483 451.35 90.2285 449.461H90.1761C90.1954 448.383 89.9637 447.315 89.4992 446.341C89.0346 445.368 88.3501 444.516 87.4996 443.853C88.5056 443.202 89.3302 442.307 89.8963 441.251C90.4624 440.196 90.7515 439.014 90.7367 437.816H90.6843C90.7116 435.939 89.9927 434.127 88.6854 432.78C87.093 431.126 87.2624 432.608 89.0858 430.732C90.4075 429.381 91.1387 427.561 91.1186 425.671H91.0631C91.075 424.736 90.9023 423.808 90.5551 422.939C90.2078 422.071 89.6928 421.279 89.0395 420.61C88.3862 419.94 87.6073 419.406 86.7475 419.038C85.8877 418.67 84.9637 418.475 84.0284 418.464C78.7647 418.384 46.1044 418.064 40.8407 418.042C39.3338 418.045 37.8616 418.495 36.6096 419.333C35.3576 420.172 34.382 421.363 33.8055 422.755C33.2291 424.147 33.0777 425.679 33.3705 427.157C33.6633 428.635 34.3871 429.994 35.4507 431.061C36.3315 431.945 36.3377 431.148 35.0626 432.417C33.6347 433.847 32.8327 435.785 32.8327 437.807C32.8327 439.828 33.6347 441.766 35.0626 443.197C35.4876 443.619 35.463 443.141 34.5482 444.056C33.2454 445.351 32.4589 447.076 32.3359 448.909C32.2129 450.741 32.7618 452.556 33.8799 454.014C32.1139 453.811 30.3249 454.005 28.6439 454.583C27.2539 455.164 26.0667 456.143 25.2317 457.396C24.3967 458.65 23.9512 460.123 23.9512 461.629C23.9512 463.135 24.3967 464.608 25.2317 465.861C26.0667 467.115 27.2539 468.094 28.6439 468.674C30.535 469.457 31.5575 469.25 37.5266 469.229C36.4842 470.303 35.7811 471.661 35.505 473.132C35.2289 474.604 35.392 476.124 35.974 477.503C36.5559 478.882 37.531 480.06 38.7776 480.889C40.0242 481.718 41.4873 482.162 42.9843 482.165C47.3179 482.143 79.9782 481.857 86.1752 481.767C87.1659 481.761 88.1442 481.546 89.0463 481.136C89.9484 480.726 90.7542 480.131 91.4112 479.39C91.7707 480.436 92.3685 481.385 93.1576 482.162C93.5826 482.584 93.558 482.106 92.6432 483.018C91.5813 484.086 90.8593 485.445 90.5679 486.922C90.2765 488.4 90.4289 489.931 91.0059 491.322C91.5828 492.713 92.5585 493.903 93.8101 494.741C95.0617 495.579 96.5332 496.028 98.0394 496.031C102.373 496.009 135.03 495.723 141.23 495.634C142.169 495.625 143.098 495.431 143.962 495.063C144.826 494.696 145.61 494.161 146.268 493.491C146.925 492.821 147.445 492.027 147.796 491.156C148.147 490.285 148.323 489.353 148.314 488.414H148.271C148.298 486.537 147.579 484.726 146.272 483.378C145.274 482.34 145.348 483.341 146.802 481.838C147.456 481.17 147.973 480.38 148.321 479.512C148.67 478.644 148.845 477.716 148.835 476.781H148.779C148.797 475.612 148.525 474.457 147.987 473.418C147.45 472.38 146.664 471.491 145.699 470.83C146.785 470.204 147.683 469.299 148.301 468.209C148.919 467.119 149.234 465.883 149.214 464.63ZM40.8376 421.67C85.2327 421.489 84.0284 420.876 85.7286 421.547C86.5613 421.871 87.2792 422.434 87.7913 423.166C88.3034 423.898 88.5867 424.766 88.6053 425.659H88.5529C88.5351 426.842 88.0482 427.97 87.1993 428.795C86.3504 429.62 85.2088 430.074 84.0253 430.057C38.6877 429.512 40.6713 429.919 39.3068 429.352C38.4644 428.989 37.7719 428.349 37.3453 427.537C36.9186 426.725 36.7836 425.791 36.9629 424.892C37.1421 423.992 37.6247 423.181 38.33 422.595C39.0353 422.009 39.9205 421.682 40.8376 421.67ZM38.9311 434.123C40.5542 433.445 39.4762 434.077 83.6465 433.396C84.2367 433.385 84.8233 433.49 85.3729 433.705C85.9225 433.92 86.4242 434.242 86.8495 434.651C87.2749 435.06 87.6154 435.549 87.8516 436.09C88.0879 436.631 88.2153 437.213 88.2265 437.803H88.171C88.1574 438.689 87.8811 439.551 87.3772 440.28C86.8733 441.009 86.1645 441.571 85.3405 441.897C83.6896 442.55 84.9185 442.026 40.4557 441.801C39.5404 441.786 38.6578 441.458 37.955 440.872C37.2521 440.285 36.7716 439.476 36.5933 438.578C36.415 437.68 36.5498 436.748 36.9752 435.937C37.4005 435.127 38.0909 434.486 38.9311 434.123ZM39.9475 445.46C84.3549 445.282 83.1321 444.666 84.8415 445.337C85.6742 445.661 86.3921 446.224 86.9042 446.956C87.4164 447.688 87.6997 448.556 87.7183 449.449H87.6628C87.6548 450.035 87.5314 450.614 87.2996 451.152C87.0678 451.69 86.7322 452.177 86.3121 452.586C85.8919 452.994 85.3953 453.316 84.8507 453.532C84.3061 453.749 83.7243 453.856 83.1383 453.847C37.8007 453.302 39.7842 453.709 38.4198 453.139C37.5794 452.775 36.8889 452.135 36.4636 451.324C36.0383 450.513 35.9037 449.581 36.0824 448.683C36.2611 447.785 36.7422 446.975 37.4455 446.388C38.1488 445.802 39.0319 445.475 39.9475 445.46ZM31.5699 465.634C30.5615 465.56 29.6185 465.107 28.9303 464.367C28.242 463.626 27.8595 462.652 27.8595 461.641C27.8595 460.63 28.242 459.656 28.9303 458.916C29.6185 458.175 30.5615 457.722 31.5699 457.648C76.0081 457.463 74.7576 456.856 76.4609 457.522C77.2939 457.845 78.0122 458.409 78.5248 459.14C79.0375 459.872 79.3214 460.74 79.3407 461.633H79.2852C79.2768 462.22 79.153 462.798 78.9209 463.336C78.6888 463.875 78.3529 464.362 77.9325 464.77C77.512 465.179 77.0153 465.5 76.4705 465.717C75.9258 465.933 75.3437 466.04 74.7576 466.032C68.5607 465.958 35.9034 465.656 31.5699 465.634ZM90.7059 474.551C90.688 475.734 90.2011 476.862 89.352 477.686C88.503 478.51 87.3614 478.963 86.1783 478.946C40.5296 478.398 42.8303 478.811 41.4597 478.241C40.7356 477.934 40.1179 477.421 39.6836 476.765C39.2493 476.109 39.0177 475.34 39.0177 474.554C39.0177 473.768 39.2493 472.999 39.6836 472.343C40.1179 471.687 40.7356 471.174 41.4597 470.867C43.0583 470.205 41.6569 470.821 86.1752 470.143C86.7653 470.132 87.352 470.237 87.9016 470.452C88.4511 470.668 88.9529 470.989 89.3782 471.398C89.8035 471.808 90.144 472.297 90.3803 472.838C90.6166 473.379 90.7439 473.961 90.7551 474.551H90.7059ZM145.81 488.411H145.755C145.741 489.297 145.465 490.159 144.961 490.888C144.457 491.616 143.748 492.179 142.924 492.504C141.341 493.12 142.924 492.637 98.0394 492.412C97.0268 492.343 96.0782 491.892 95.3854 491.151C94.6926 490.409 94.3072 489.432 94.3072 488.417C94.3072 487.402 94.6926 486.425 95.3854 485.684C96.0782 484.942 97.0268 484.491 98.0394 484.422C142.391 484.247 141.221 483.628 142.933 484.299C143.769 484.622 144.489 485.187 145.002 485.921C145.516 486.655 145.799 487.525 145.816 488.42L145.81 488.411ZM146.318 476.766H146.266C146.247 477.948 145.76 479.076 144.911 479.9C144.062 480.724 142.921 481.177 141.738 481.161C96.4624 480.619 98.4059 481.031 97.0199 480.455C96.2958 480.149 95.678 479.635 95.2437 478.98C94.8095 478.324 94.5779 477.555 94.5779 476.769C94.5779 475.982 94.8095 475.213 95.2437 474.557C95.678 473.902 96.2958 473.389 97.0199 473.082C98.6307 472.41 97.3063 473.039 141.735 472.355C142.328 472.341 142.918 472.446 143.47 472.661C144.023 472.877 144.527 473.2 144.954 473.612C145.38 474.024 145.721 474.517 145.957 475.061C146.192 475.605 146.317 476.191 146.325 476.784L146.318 476.766ZM146.645 464.621C146.636 465.207 146.513 465.786 146.28 466.324C146.048 466.862 145.713 467.35 145.292 467.758C144.872 468.166 144.375 468.488 143.83 468.704C143.285 468.921 142.703 469.028 142.117 469.019C96.8043 468.474 98.7724 468.881 97.4018 468.314C96.6777 468.007 96.0599 467.494 95.6256 466.838C95.1914 466.183 94.9598 465.414 94.9598 464.627C94.9598 463.841 95.1914 463.072 95.6256 462.416C96.0599 461.76 96.6777 461.247 97.4018 460.94C99.0404 460.26 98.3504 460.882 142.114 460.214C143.306 460.19 144.459 460.642 145.318 461.468C146.178 462.295 146.674 463.429 146.697 464.621H146.645Z" fill="#FF9500"/>
<path d="M152.261 486.11C156.117 485.827 197.413 485.688 197.721 485.688C198.061 485.694 198.389 485.564 198.633 485.327C198.877 485.091 199.017 484.767 199.023 484.427C199.028 484.087 198.898 483.759 198.662 483.515C198.425 483.271 198.101 483.131 197.761 483.126C190.776 482.898 184.052 482.032 170.349 482.202C164.213 482.253 158.087 482.743 152.02 483.668C151.718 483.725 151.448 483.893 151.263 484.14C151.079 484.386 150.993 484.693 151.023 484.999C151.054 485.305 151.197 485.589 151.426 485.795C151.655 486 151.953 486.113 152.261 486.11Z" fill="#212941"/>
<path d="M556.631 436.71C556.079 436.153 559.932 436.353 490.943 436.353C481.087 436.522 468.151 438.383 457.929 436.969C457.736 436.941 457.54 436.955 457.353 437.009C457.167 437.063 456.994 437.156 456.846 437.283C456.698 437.409 456.578 437.565 456.495 437.741C456.412 437.917 456.368 438.108 456.364 438.302V446.979C456.364 447.306 456.494 447.619 456.725 447.85C456.956 448.081 457.27 448.211 457.596 448.211C457.923 448.211 458.236 448.081 458.467 447.85C458.698 447.619 458.828 447.306 458.828 446.979L459.062 439.895C462.472 440.33 465.906 440.545 469.343 440.539L468.949 447.376C468.923 447.854 469.085 448.323 469.4 448.682C469.716 449.041 470.16 449.263 470.637 449.298C475.99 449.677 479.119 449.449 483.111 449.56C483.347 449.568 483.582 449.527 483.8 449.437C484.018 449.347 484.214 449.212 484.376 449.04C484.538 448.868 484.661 448.664 484.737 448.441C484.813 448.217 484.84 447.98 484.817 447.746C484.386 444.09 484.398 444.358 484.121 440.468C490.703 440.415 498.566 440.335 506.63 440.246C506.544 442.239 506.371 446.027 506.343 446.948C502.955 446.948 494.889 447.296 489.85 447.33C489.523 447.327 489.209 447.453 488.975 447.682C488.742 447.911 488.609 448.223 488.606 448.55C488.602 448.876 488.729 449.191 488.958 449.424C489.187 449.658 489.499 449.791 489.825 449.794C494.972 449.923 500.082 450.262 506.26 450.41C506.223 452.178 506.174 454.436 506.125 456.878C497.846 457.078 497.569 457.315 492.533 457.512C492.206 457.518 491.895 457.653 491.668 457.888C491.441 458.124 491.317 458.439 491.322 458.766C491.328 459.093 491.463 459.404 491.698 459.631C491.933 459.858 492.249 459.982 492.576 459.976C497.082 459.976 501.378 460.321 506.054 460.368C505.995 463.214 505.934 466.093 505.881 468.634C501.569 468.733 497.257 468.942 492.912 469.029C492.585 469.029 492.271 469.158 492.04 469.389C491.809 469.62 491.68 469.934 491.68 470.261C491.68 470.587 491.809 470.901 492.04 471.132C492.271 471.363 492.585 471.493 492.912 471.493C497.224 471.563 501.508 471.801 505.804 471.976C505.761 473.981 505.724 475.5 505.7 476.125C505.681 476.464 505.797 476.797 506.023 477.051C506.25 477.305 506.568 477.458 506.907 477.477C507.247 477.496 507.58 477.38 507.833 477.153C508.087 476.927 508.24 476.609 508.259 476.27C508.367 474.871 508.509 473.473 508.647 472.078C534.39 472.66 542.949 472.041 552.54 471.813C552.522 473.661 552.466 475.481 552.473 477.329C552.489 477.658 552.631 477.969 552.87 478.196C553.109 478.424 553.426 478.551 553.755 478.551C554.085 478.551 554.402 478.424 554.641 478.196C554.88 477.969 555.022 477.658 555.038 477.329C555.069 473.381 555.257 469.463 555.463 465.551C556.865 438.786 557.743 437.847 556.631 436.71ZM553.658 439.648C553.581 442.229 553.458 444.798 553.35 447.367C545.521 447.308 520.228 447.04 509.778 446.976C509.716 444.598 509.596 442.768 509.405 440.227C529.308 440.003 549.574 439.732 553.658 439.648ZM508.949 468.6C509.507 462.785 509.3 464.079 509.476 460.395C531.273 460.475 531.96 460.05 542.78 459.471C543.12 459.458 543.44 459.311 543.671 459.061C543.902 458.812 544.025 458.481 544.012 458.141C543.999 457.801 543.851 457.48 543.602 457.249C543.352 457.018 543.021 456.896 542.681 456.909C539.601 456.977 516.914 456.838 509.624 456.844C509.667 455.563 509.778 451.325 509.781 450.487C537.707 450.752 541.332 450.268 553.24 449.997C552.42 468.037 552.624 465.887 552.559 469.235C546.313 469.189 516.689 468.659 508.949 468.594V468.6Z" fill="#212941"/>
<path d="M400.841 409.086C398.864 406.917 396.455 405.185 393.769 404.002C391.083 402.819 388.179 402.211 385.244 402.217C385.244 402.217 365.224 402.732 337.504 403.502C345.241 396.353 357.764 383.827 362.858 374.55C372.677 372.643 379.306 362.562 378.874 352.635C378.511 344.449 372.2 336.619 363.718 337.165C360.568 333.358 357.637 329.375 354.94 325.236C358.636 316.572 363.936 304.784 359.72 296.284C359.048 294.463 357.683 292.982 355.922 292.166C354.162 291.35 352.149 291.264 350.326 291.929C344.446 293.777 337.205 302.123 334.424 307.15C333.614 308.616 332.912 310.119 332.246 311.656C329.64 311.197 327.008 310.907 324.365 310.787C324.133 304.606 322.444 298.566 319.437 293.161C315.827 287.669 309.63 287.105 305.801 292.545C302.059 297.854 299.429 307.572 297.467 313.935C297.397 314.265 297.2 314.553 296.919 314.739C296.637 314.924 296.295 314.991 295.964 314.926C295.634 314.86 295.342 314.667 295.153 314.388C294.964 314.109 294.893 313.767 294.954 313.436C294.998 309.554 295.899 305.73 297.593 302.237C269.519 295.862 237.777 313.372 226.156 339.598C225.12 340.411 223.894 340.946 222.593 341.154C221.293 341.361 219.961 341.234 218.724 340.783C221.834 338.846 223.652 335.856 221.462 332.982C217.233 327.515 210.235 332.44 212.086 338.566C210.794 337.721 209.649 336.669 208.698 335.452C208.595 335.322 208.467 335.213 208.322 335.132C208.176 335.052 208.017 335 207.851 334.981C207.686 334.962 207.519 334.976 207.359 335.022C207.199 335.067 207.05 335.144 206.92 335.247C206.789 335.351 206.681 335.479 206.6 335.624C206.519 335.769 206.468 335.929 206.449 336.094C206.43 336.259 206.443 336.427 206.489 336.586C206.535 336.746 206.611 336.896 206.715 337.026C207.513 338.463 208.643 339.687 210.011 340.598C211.379 341.509 212.945 342.08 214.578 342.262C215.881 343.467 217.502 344.272 219.25 344.582C220.997 344.891 222.797 344.692 224.434 344.008C216.146 368.288 227.807 394.212 253.01 406.033C210.278 407.385 173.706 408.657 173.706 408.657C173.464 408.656 173.223 408.704 172.999 408.797C172.775 408.891 172.573 409.028 172.403 409.201C172.233 409.375 172.1 409.581 172.011 409.806C171.922 410.032 171.88 410.274 171.886 410.516C171.893 410.759 171.948 410.998 172.048 411.219C172.149 411.439 172.293 411.638 172.471 411.802C172.65 411.966 172.86 412.093 173.088 412.174C173.317 412.256 173.56 412.291 173.802 412.276L385.447 407.616C387.571 407.618 389.672 408.063 391.614 408.922C393.557 409.781 395.299 411.036 396.729 412.606C403.062 420.05 403.246 442.115 386.189 442.611L375.175 442.95C373.906 434.942 370.605 427.646 363.496 423.765C361.14 423.32 358.731 423.225 356.347 423.482C337.541 424.098 334.562 424.387 334.439 426.321C334.422 426.646 334.508 426.967 334.684 427.24C334.861 427.513 335.119 427.723 335.422 427.84C342.456 430.584 345.022 436.359 346.1 443.856C332.665 444.284 171.723 449.809 171.723 449.809C171.231 449.837 170.769 450.056 170.436 450.42C170.103 450.783 169.925 451.262 169.94 451.754C169.955 452.247 170.162 452.714 170.516 453.057C170.87 453.399 171.344 453.59 171.837 453.588C171.837 453.588 333.136 449.467 346.655 449.089C347.674 461.298 348.108 474.107 348.099 486.357C348.101 486.763 348.239 487.157 348.491 487.476C348.742 487.795 349.093 488.021 349.487 488.119C349.881 488.216 350.297 488.18 350.668 488.014C351.039 487.849 351.345 487.565 351.536 487.207C352.614 485.162 358.737 473.039 360.776 469.013C365.171 474.782 368.901 481.029 371.895 487.635C372.075 487.983 372.367 488.261 372.723 488.424C373.079 488.588 373.48 488.628 373.862 488.538C374.243 488.447 374.584 488.232 374.829 487.926C375.074 487.62 375.21 487.241 375.215 486.849C375.773 459.206 375.921 451.781 375.745 448.254L386.313 447.946C389.203 447.904 392.05 447.237 394.658 445.99C397.266 444.743 399.573 442.946 401.42 440.723C407.62 432.777 407.657 417.1 400.841 409.086ZM351.084 345.533C353.794 342.853 357.436 341.323 361.248 341.264V341.209C371.464 341.44 376.081 344.538 375.474 355.435C374.984 366.348 370.626 369.212 361.248 369.206C358.477 369.273 355.749 368.508 353.417 367.012C351.084 365.515 349.253 363.354 348.16 360.807C347.066 358.26 346.76 355.444 347.281 352.722C347.802 350 349.127 347.496 351.084 345.533ZM216.081 338.6C214.248 335.929 216.595 332.492 218.718 335.132C219.605 336.219 217.193 337.996 216.081 338.6ZM263.849 405.664C265.083 402.896 265.904 399.962 266.288 396.957C277.157 398.735 288.29 397.979 298.819 394.748C299.25 397.212 300.445 404.17 300.516 404.558C288.695 404.903 277.887 405.229 263.849 405.664ZM335.721 387.852C334.217 388.129 332.694 388.293 331.165 388.342C328.416 393.955 324.979 399.205 320.933 403.97L316.005 404.108C316.4 403.708 316.8 403.295 317.222 402.858C321.443 397.508 325.262 391.853 328.649 385.939C329.487 384.347 330.789 385.487 335.425 385.305C335.763 385.266 336.102 385.362 336.369 385.573C336.635 385.785 336.807 386.093 336.846 386.431C336.885 386.768 336.789 387.108 336.578 387.375C336.367 387.641 336.058 387.813 335.721 387.852Z" fill="#3A5AB7"/>
<path d="M262.62 314.502C266.981 313.245 281.05 310.593 285.553 309.931C285.888 309.897 286.195 309.734 286.41 309.475C286.624 309.217 286.729 308.885 286.701 308.55C286.673 308.215 286.515 307.905 286.261 307.686C286.006 307.467 285.676 307.356 285.341 307.378C277.202 307.071 269.109 308.728 261.745 312.207C261.466 312.341 261.248 312.574 261.133 312.861C261.018 313.149 261.016 313.468 261.126 313.757C261.236 314.046 261.451 314.283 261.727 314.421C262.004 314.559 262.323 314.588 262.62 314.502Z" fill="#212941"/>
<path d="M329.055 331.802C331.211 331.719 333.059 334.417 333.179 337.821C333.299 341.224 331.676 344.054 329.532 344.138C327.389 344.221 325.528 341.523 325.405 338.119C325.282 334.716 326.908 331.885 329.055 331.802Z" fill="#212941"/>
<path d="M351.567 329.911C353.511 329.837 355.198 332.6 355.334 336.071C355.47 339.542 353.997 342.437 352.054 342.511C350.11 342.585 348.423 339.823 348.287 336.351C348.151 332.88 349.621 329.988 351.567 329.911Z" fill="#212941"/>
<path d="M306.883 315.879C308.275 311.348 310.083 306.956 312.282 302.758C312.38 302.625 312.956 301.926 313.113 301.963C314.321 302.24 315.408 304.852 315.818 306.023C315.928 306.325 316.147 306.575 316.432 306.723C316.718 306.871 317.049 306.906 317.359 306.821C317.669 306.737 317.936 306.539 318.107 306.266C318.278 305.994 318.34 305.667 318.282 305.351C317.706 302.456 316.468 299.09 313.523 298.575C307.942 297.593 305.515 309.752 304.486 315.312C304.424 315.625 304.486 315.949 304.659 316.218C304.831 316.486 305.101 316.677 305.411 316.75C305.722 316.824 306.048 316.774 306.323 316.611C306.597 316.449 306.798 316.186 306.883 315.879Z" fill="#212941"/>
<path d="M344.12 313.338C346.331 309.597 349.044 306.178 352.183 303.174C353.206 302.468 353.64 302.305 354.318 303.531L354.903 304.871C354.977 305.202 355.18 305.491 355.467 305.673C355.754 305.855 356.102 305.915 356.433 305.841C356.765 305.767 357.054 305.564 357.236 305.276C357.418 304.989 357.478 304.642 357.404 304.31C357.276 302.663 356.514 301.129 355.278 300.032C350.658 296.401 343.676 306.257 341.856 312.383C341.757 312.677 341.773 312.998 341.901 313.281C342.029 313.564 342.259 313.789 342.545 313.909C342.831 314.03 343.153 314.038 343.445 313.932C343.736 313.826 343.978 313.614 344.12 313.338Z" fill="#212941"/>
<path d="M357.49 353.054C357.417 354.417 357.459 355.783 357.616 357.138C357.924 359.602 358.131 361.087 359.427 361.065C360.724 361.044 360.872 359.587 361.084 357.061C361.251 355.059 361.044 349.491 359.021 349.611C357.896 349.669 357.715 350.852 357.49 353.054Z" fill="#212941"/>
<path d="M368.032 352.734C367.839 354.021 367.793 355.326 367.894 356.624C368.091 358.968 368.266 360.409 369.529 360.449C370.687 360.483 370.986 359.442 371.377 356.698C371.519 355.466 371.556 354.225 371.488 352.986C371.285 350.75 371.014 349.682 370 349.598C368.833 349.497 368.269 351.6 368.032 352.734Z" fill="#212941"/>
</svg>
