<svg width="616" height="616" viewBox="0 0 616 616" fill="none" xmlns="http://www.w3.org/2000/svg">
<path d="M504.713 69.1244C424.532 70.3872 94.1771 71.0741 11.5469 70.0238C6.64047 69.9622 6.26779 61.6 11.3467 61.6C96.5241 61.7047 390.975 60.0815 504.553 62.524C510.02 62.6349 508.536 69.0628 504.713 69.1244Z" fill="#212941"/>
<path d="M406.323 309.278C400.791 311.666 394.913 313.156 388.911 313.692C389.487 320.745 389.411 327.837 388.683 334.876C388.604 335.256 388.393 335.596 388.088 335.835C387.782 336.074 387.402 336.198 387.014 336.184C386.626 336.17 386.256 336.019 385.968 335.758C385.681 335.498 385.495 335.144 385.443 334.759C384.867 329.945 386.213 324.731 385.243 313.929C378.039 314.123 374.663 311.89 368.334 311.031C352.594 308.881 337.466 303.513 323.893 295.261C323.489 294.952 323.224 294.497 323.154 293.993C323.084 293.49 323.216 292.979 323.52 292.572C337.447 275.565 348.157 256.161 355.124 235.312C355.946 232.956 358.672 229.79 358.684 233.846C358.718 244.244 357.505 254.636 357.505 265.049C357.505 283.948 358.007 304.165 376.419 308.915C387.71 311.819 398.219 308.135 405.208 306.269C406.868 305.81 408.1 308.419 406.323 309.278Z" fill="#212941"/>
<path d="M379.668 268.841C378.054 271.967 383.555 271.597 386.854 271.755C387.27 271.789 387.661 271.97 387.957 272.266C388.252 272.561 388.434 272.952 388.469 273.368C388.504 273.784 388.39 274.2 388.148 274.54C387.906 274.881 387.551 275.125 387.146 275.229C384.965 275.522 382.748 275.397 380.614 274.859C376.801 274.068 373.89 272.663 375.966 268.391C377.308 265.508 378.833 262.713 380.531 260.023C380.739 259.697 381.059 259.458 381.43 259.351C381.802 259.244 382.199 259.275 382.549 259.439C382.899 259.604 383.177 259.89 383.332 260.244C383.486 260.599 383.507 260.997 383.389 261.366C382.34 263.948 381.096 266.447 379.668 268.841Z" fill="#212941"/>
<path d="M400.567 256.801C400.604 258.778 400.751 261.775 397.838 261.852C395.491 261.917 394.832 259.841 394.844 257.066C394.856 252.067 400.446 250.675 400.567 256.801Z" fill="#212941"/>
<path d="M373.09 256.675C373.041 258.566 372.237 260.349 370.053 260.26C368.23 260.186 367.574 257.722 367.626 256.099C367.703 253.703 368.458 252.48 369.973 252.147C372.298 251.636 373.155 254.303 373.09 256.675Z" fill="#212941"/>
<path d="M370.98 242.568C369.759 242.428 368.524 242.63 367.413 243.154C366.302 243.677 365.359 244.501 364.69 245.531C363.003 248.026 361.198 245.978 361.838 244.5C362.661 242.702 364.038 241.216 365.768 240.259C367.497 239.302 369.488 238.925 371.448 239.184C371.886 239.258 372.277 239.5 372.54 239.858C372.802 240.217 372.915 240.663 372.854 241.103C372.794 241.543 372.564 241.942 372.214 242.215C371.864 242.489 371.421 242.616 370.98 242.568Z" fill="#212941"/>
<path d="M396.07 242.143C395.685 242.141 395.314 242.002 395.023 241.751C394.731 241.5 394.539 241.153 394.479 240.773C394.42 240.393 394.498 240.004 394.699 239.676C394.9 239.348 395.211 239.103 395.577 238.983C397.928 238.479 400.382 238.843 402.485 240.007C404.589 241.171 406.201 243.056 407.022 245.316C407.531 247.081 405.174 248.528 404.281 246.548C403.573 245.024 402.39 243.772 400.909 242.978C399.429 242.184 397.731 241.891 396.07 242.143Z" fill="#212941"/>
<path d="M381.396 285.408C382.72 288.391 385.071 290.799 388.02 292.196C390.969 293.592 394.321 293.884 397.468 293.019C400.713 291.972 403.439 289.732 405.097 286.753C406.755 283.773 407.221 280.275 406.4 276.966C406.024 275.426 404.644 274.89 402.987 276.196C396.054 281.66 390.923 282.513 382.73 282.649C381.399 282.67 380.62 283.862 381.396 285.408Z" fill="#212941"/>
<path d="M157.351 344.726C158.084 346.115 156.032 347.606 154.887 346.574C148.255 340.571 136.114 332.098 132.689 324.09C128.069 313.31 130.592 299.81 121.45 291.088C121.121 290.806 120.912 290.408 120.868 289.976C120.824 289.545 120.948 289.113 121.214 288.771C121.479 288.428 121.867 288.201 122.296 288.136C122.725 288.071 123.162 288.174 123.517 288.423C133.619 295.529 131.703 309.441 136.382 319.532C141.125 329.748 152.152 334.898 157.351 344.726Z" fill="#212941"/>
<path d="M89.7852 328.993C80.3614 327.124 71.547 322.951 64.1288 316.846C61.7479 314.748 64.6 313.057 66.3371 314.231C73.7147 319.443 82.1581 322.952 91.0572 324.503C99.7431 325.788 108.586 325.56 117.194 323.831C119.316 323.548 119.27 326.652 117.81 327.527C111.17 331.516 97.2388 330.635 89.7852 328.993Z" fill="#212941"/>
<path d="M50.6234 324.192C49.3052 322.747 51.5228 320.828 52.9704 321.875C62.855 329.46 74.2043 334.913 86.3022 337.891C95.7516 340.047 93.1305 344.47 84.6482 342.721C71.6516 340.244 59.7548 333.766 50.6234 324.192Z" fill="#212941"/>
<path d="M87.336 357.942C76.1094 357.292 60.5616 352.118 52.1347 344.732C51.8383 344.462 51.6483 344.095 51.5988 343.697C51.5493 343.299 51.6436 342.896 51.8648 342.562C52.0859 342.227 52.4193 341.983 52.8049 341.873C53.1904 341.762 53.6026 341.793 53.9673 341.96C66.777 348.237 73.6084 351.425 87.9243 353.202C96.2341 354.237 95.9908 358.444 87.336 357.942Z" fill="#212941"/>
<path d="M136.955 372.313C139.213 373.853 136.647 377.645 134.347 376.284C122.205 369.135 108.379 373.512 95.1906 373.49C82.331 373.708 69.7332 369.844 59.2069 362.454C57.6885 361.318 59.3609 359.045 60.9656 359.781C73.0179 365.868 86.4047 368.833 99.8999 368.405C112.365 367.65 125.874 364.767 136.955 372.313Z" fill="#212941"/>
<path d="M604.216 554.428C480.939 555.928 129.939 552.838 54.9658 551.964C50.1364 551.908 46.3049 546.457 54.8272 546.42C151.231 545.924 460.651 546.041 604.037 547.362C609.683 547.399 609.698 554.36 604.216 554.428Z" fill="#3A5AB7"/>
<path d="M366.671 331.584C339.567 335.896 287.65 364.875 259.379 402.263C286.175 398.207 365.208 397.514 387.92 400.178C379.374 389.772 369.912 380.155 359.645 371.442C363.588 366.923 367.296 363.409 370.539 360.317C364.05 356.313 353.381 349.925 348.671 347.726C354.006 341.647 360.049 336.227 366.671 331.584Z" fill="#3A5AB7"/>
<path d="M425.933 361.706C429.408 365.17 432.372 369.111 434.736 373.41C425.234 378.855 406.806 389.053 395.685 400.871C406.304 402.263 413.241 407.416 416.937 423.047C418.526 429.752 420.719 440.511 422.893 452.588C443.015 448.19 463.47 445.485 484.044 444.503C480.434 435.259 475.608 426.537 469.694 418.569C468.425 416.89 470.778 414.759 472.179 416.388C479.323 424.587 484.85 434.064 488.47 444.318C497.685 443.773 506.928 443.904 516.125 444.709C518.219 444.946 518.244 448.078 516.076 448.026C485.017 447.014 453.955 449.941 423.633 456.736C426.728 474.391 429.642 494.118 430.556 507.932C478.296 507.467 555.746 531.057 567.749 502.601C594.631 438.872 512.986 338.289 454.894 329.483C459.798 336.27 463.231 344.005 464.975 352.195C458.612 354.403 434.28 360.197 425.933 361.706Z" fill="#3A5AB7"/>
<path d="M390.196 379.786C380.432 355.42 380.697 342.45 377.913 330.506C377.849 330.093 377.629 329.722 377.299 329.467C376.968 329.213 376.553 329.095 376.138 329.138C375.723 329.181 375.341 329.382 375.07 329.699C374.799 330.016 374.66 330.425 374.682 330.841C374.583 345.259 381.929 369.274 387.895 383.081C388.084 383.415 388.349 383.701 388.669 383.913C388.989 384.126 389.354 384.26 389.735 384.305C390.117 384.35 390.503 384.305 390.864 384.172C391.224 384.04 391.548 383.824 391.81 383.543C411.131 356.713 420.783 347.021 442.938 329.813C443.283 329.569 443.519 329.201 443.598 328.786C443.677 328.371 443.593 327.942 443.362 327.588C443.131 327.234 442.772 326.984 442.36 326.889C441.949 326.795 441.517 326.863 441.154 327.081C420.594 340.802 403.217 358.775 390.196 379.786Z" fill="#3A5AB7"/>
<path d="M233.112 405.045C214.109 393.458 181.895 364.952 168.688 346.919C155.416 360.457 143.608 375.357 133.462 391.373C157.504 426.829 195.579 465.08 219.44 476.193C216.668 464.372 215.963 431.696 216.668 421.267C217.373 410.838 225.234 406.668 233.112 405.045Z" fill="#3A5AB7"/>
<path d="M124.22 404.506C130.115 404.259 127.084 400.126 124.571 400.077C90.9986 399.417 55.0181 398.598 29.7066 398.992C31.6624 252.732 30.492 160.446 31.2928 78.0349C31.3144 75.8511 28.0404 76.1869 27.9418 78.2659C24.7448 145.265 26.7098 325.691 24.2458 398.493C24.1596 400.988 24.332 402.581 29.7282 402.821C44.8418 403.498 59.5703 403.526 74.7701 403.788C88.7379 404.031 110.683 405.072 124.22 404.506Z" fill="#3A5AB7"/>
<path d="M492.027 259.336C493.508 229.306 493.046 198.879 493.182 168.784C493.262 150.994 494.069 103.229 493.869 79.7874C493.835 75.7279 489.649 78.041 489.606 80.0954C488.796 119.898 486.698 219.284 488.22 259.379C488.349 262.755 491.876 262.705 492.027 259.336Z" fill="#3A5AB7"/>
<path d="M78.3741 167.552C78.3741 157.788 78.4573 148.031 78.3741 138.267C122.35 138.015 166.354 137.765 210.324 136.971C210.361 145.515 210.324 154.059 210.324 162.602C168.322 163.677 125.372 165.26 83.2436 166.015C80.5301 166.064 80.9706 170.118 83.5947 170.152C126.133 170.666 169.976 167.952 212.647 166.847C213.211 166.788 213.731 166.513 214.098 166.08C214.464 165.646 214.648 165.088 214.612 164.521C214.612 154.545 214.578 144.566 214.646 134.59C214.586 134.021 214.308 133.497 213.87 133.129C213.433 132.76 212.87 132.575 212.299 132.612C166.866 132.64 121.402 133.259 75.9687 133.866C75.3877 133.926 74.8527 134.209 74.476 134.655C74.0992 135.102 73.91 135.676 73.9482 136.259C74.2007 146.793 74.7367 157.302 75.1001 167.829C75.1525 169.97 78.3711 169.668 78.3741 167.552Z" fill="#3A5AB7"/>
<path d="M75.8114 237.952C121.74 236.159 169.028 235.95 214.676 232.805C215.01 232.813 215.342 232.746 215.647 232.609C215.952 232.473 216.223 232.27 216.44 232.016C216.658 231.762 216.815 231.462 216.902 231.14C216.989 230.817 217.003 230.479 216.943 230.15C216.136 223.639 215.326 217.128 214.479 210.623C214.125 207.922 210.072 208.845 210.367 211.497C210.983 217.149 211.667 222.798 212.339 228.437C167.746 230.319 122.76 231.591 78.3585 233.014C78.3585 224.184 78.3123 215.341 78.5618 206.526C123.453 206.061 167.574 205.334 212.958 205.704C213.395 205.711 213.819 205.548 214.139 205.249C214.458 204.95 214.649 204.538 214.671 204.101C214.693 203.664 214.545 203.235 214.256 202.905C213.968 202.576 213.563 202.371 213.127 202.334C167.568 200.237 121.817 201.161 76.067 201.253C75.7124 201.234 75.3575 201.285 75.0228 201.404C74.6881 201.523 74.3802 201.707 74.1168 201.945C73.8534 202.183 73.6398 202.471 73.4881 202.792C73.3365 203.113 73.25 203.461 73.2334 203.816C73.6122 214.328 73.4706 224.877 73.5075 235.401C73.4837 236.043 73.7112 236.668 74.1414 237.144C74.5717 237.621 75.1708 237.91 75.8114 237.952Z" fill="#3A5AB7"/>
<path d="M210.897 299.632C188.844 299.924 160.788 299.487 138.166 300.556C136.271 300.645 136.358 304.507 138.215 304.538C158.583 304.886 189.407 303.879 212.954 304.375C215.557 304.43 215.677 301.911 215.372 300.038C213.851 290.846 213.769 281.474 215.129 272.257C215.191 271.924 215.179 271.582 215.092 271.255C215.005 270.928 214.846 270.625 214.626 270.368C214.407 270.11 214.132 269.905 213.823 269.768C213.514 269.631 213.178 269.564 212.84 269.574C168.032 270.633 123.212 272.29 78.4074 273.008C77.805 273.049 77.242 273.322 76.8366 273.77C76.4311 274.217 76.2147 274.804 76.2329 275.407C76.1528 285.103 76.1713 294.811 76.1035 304.495C76.1455 305.133 76.4337 305.729 76.9073 306.158C77.3808 306.588 78.0026 306.816 78.6414 306.796C91.5774 306.321 101.763 306.392 114.702 305.594C116.858 305.462 116.676 301.572 114.539 301.566C102.41 301.532 93.0558 301.664 80.9299 301.917C80.8837 293.783 80.8744 285.648 80.819 277.514C124.007 275.974 167.228 275.297 210.425 274.089C209.415 282.585 209.573 291.179 210.897 299.632Z" fill="#3A5AB7"/>
<path d="M315.601 328.35C317.64 328.833 318.194 325.559 316.217 324.98C294.648 318.108 276.558 303.189 265.705 283.323C240.662 238.595 256.157 179.98 296.844 150.245C332.88 123.908 410.293 124.444 435.253 167.493C436.762 170.096 440.683 168.673 439.426 165.904C419.911 122.892 340.706 116.732 301.864 140.448C256.129 168.384 234.917 228.801 257.574 278.318C268.97 303.229 290.136 322.319 315.601 328.35Z" fill="#3A5AB7"/>
<path d="M491.667 337.365C492.449 330.724 491.753 313.033 491.781 302.681C491.781 298.966 488.294 300.331 488.168 301.886C487.427 313.702 487.396 325.551 488.075 337.371C488.214 339.136 491.463 339.108 491.667 337.365Z" fill="#3A5AB7"/>
<path d="M502.712 519.528C484.327 517.372 446.203 515.01 421.446 514.6C421.446 500.386 407.851 419.12 399.199 412.323C390.914 405.812 233.735 404.598 227.246 416.943C218.714 433.193 232.814 533.866 240.601 536.524C253.269 540.836 494.051 540.118 504.557 539.296C510.048 538.88 510.831 520.474 502.712 519.528ZM275.765 422.018C266.636 422.973 257.901 424.236 248.796 425.57C240.915 426.725 240.357 428.376 239.501 435.94C238.416 444.922 237.895 453.963 237.943 463.01C237.943 464.935 235.143 465.44 234.887 463.414C233.709 453.032 233.787 442.546 235.121 432.182C236.002 425.382 238.509 422.326 245.285 420.944C255.304 418.92 265.531 418.117 275.743 418.553C276.158 418.614 276.537 418.821 276.812 419.137C277.087 419.453 277.24 419.858 277.243 420.277C277.245 420.696 277.098 421.102 276.827 421.421C276.556 421.741 276.179 421.953 275.765 422.018ZM316.008 490.792C309.494 492.024 302.438 488.5 299.897 478.564C297.688 469.94 301.745 463.432 308.909 461.6C326.064 457.214 332.332 487.672 316.008 490.792Z" fill="#FF9500"/>
<path d="M494.094 285.165C464.803 256.142 482.264 215.452 463.531 195.762C459.988 191.943 455.205 189.506 450.033 188.886C444.861 188.265 439.636 189.501 435.291 192.374C420.861 168.907 391.428 163.228 366.369 171.035C339.059 179.545 329.274 212.886 351.197 223.617C362.686 229.241 403.018 229.719 415.628 227.276C416.637 237.717 420.542 247.669 426.904 256.01C427.557 256.795 428.468 257.882 429.553 256.934C430.725 255.877 432.104 255.076 433.602 254.58C435.1 254.084 436.685 253.905 438.256 254.054C439.828 254.203 441.351 254.676 442.729 255.444C444.108 256.213 445.312 257.259 446.265 258.517C447.141 259.812 447.753 261.267 448.065 262.8C448.377 264.332 448.384 265.911 448.084 267.446C447.785 268.981 447.185 270.441 446.319 271.743C445.454 273.046 444.339 274.164 443.04 275.035C439.273 277.526 436.587 277.163 432.368 276.951C431.046 276.886 430.8 277.992 430.711 279.002C429.408 293.675 427.963 310.418 430.202 325.011C430.26 325.416 430.474 325.783 430.797 326.033C431.121 326.283 431.53 326.397 431.936 326.35C432.343 326.304 432.715 326.1 432.974 325.783C433.233 325.467 433.358 325.061 433.323 324.654C433.353 320.699 433.205 316.744 433.076 312.786C453.697 315.093 479.806 303.032 494.156 289.243C496.429 287.084 494.802 285.867 494.094 285.165ZM383.152 184.769C378.125 184.679 373.15 185.809 368.655 188.062C363.662 190.458 355.186 196.415 355.756 202.661C355.925 204.534 353.233 205.679 352.534 203.748C349.162 194.44 358.549 187.169 364.808 183.753C370.383 180.711 376.629 179.107 382.98 179.087C391.105 179.096 387.751 184.963 383.152 184.769Z" fill="#212941"/>
</svg>
