<svg width="616" height="616" viewBox="0 0 616 616" fill="none" xmlns="http://www.w3.org/2000/svg">
<path d="M494.1 201.321C493.034 195.657 485.935 191.237 476.867 195.814C472.303 198.019 468.043 201.885 463.275 202.122C459.798 202.288 455.307 200.717 452.579 203.89C452.013 204.433 451.592 205.11 451.354 205.857C451.117 206.605 451.069 207.4 451.217 208.17C451.364 208.941 451.702 209.662 452.199 210.269C452.696 210.876 453.337 211.349 454.063 211.645C451.79 214.799 453.737 219.435 459.339 220.023C462.644 220.258 465.949 219.573 468.887 218.042C468.934 219.302 468.693 220.555 468.182 221.708C467.289 223.556 463.811 226.004 464.178 228.927C464.252 230.212 465.071 231.588 467.449 232.586L468.561 232.953C468.976 237.456 470.566 241.906 475.029 242.763L476.067 250.044C476.102 250.379 476.269 250.686 476.531 250.897C476.793 251.109 477.128 251.208 477.463 251.172C477.798 251.137 478.105 250.97 478.317 250.708C478.529 250.446 478.628 250.111 478.592 249.776C478.3 241.7 478.869 239.479 476.587 239.421C473.248 239.261 472.275 234.868 472.275 231.542C472.265 231.143 472.131 230.756 471.892 230.437C471.652 230.117 471.319 229.88 470.938 229.759C469.86 229.42 467.418 228.638 467.892 228.487C467.892 226.79 471.829 224.899 471.829 219.863C471.814 218.755 471.719 217.649 471.542 216.555C474.724 214.577 479.901 210.453 481.857 210.589C478.374 220.941 490.623 227.172 490.623 222.293C490.596 221.957 490.66 221.621 490.806 221.318C490.953 221.015 491.178 220.757 491.458 220.57C491.739 220.383 492.063 220.275 492.399 220.255C492.735 220.236 493.07 220.307 493.37 220.46C494.135 220.772 494.777 221.323 495.203 222.031C495.628 222.738 495.813 223.565 495.729 224.386C495.645 225.208 495.298 225.98 494.739 226.587C494.18 227.195 493.439 227.605 492.628 227.757C491.59 228.167 490.461 228.289 489.36 228.111C489.158 228.078 488.951 228.089 488.753 228.144C488.556 228.199 488.373 228.297 488.217 228.43C488.062 228.563 487.937 228.729 487.852 228.915C487.766 229.102 487.723 229.304 487.724 229.509C488.279 239.026 488.667 237.345 487.949 239.642C487.232 243.093 487.332 246.663 488.242 250.068C485.707 251.71 482.991 253.054 480.148 254.072C478.472 252.995 476.861 251.822 475.321 250.558C475.1 250.315 474.802 250.156 474.476 250.108C474.151 250.06 473.82 250.127 473.538 250.296L472.053 251.457C471.912 251.548 471.791 251.667 471.696 251.805C471.602 251.944 471.536 252.1 471.502 252.264C471.468 252.429 471.468 252.598 471.5 252.763C471.533 252.928 471.598 253.084 471.692 253.223C471.785 253.362 471.906 253.482 472.046 253.574C472.187 253.666 472.344 253.729 472.509 253.759C472.674 253.79 472.843 253.787 473.007 253.752C473.171 253.716 473.327 253.648 473.464 253.552C474.52 252.97 472.907 253.244 477.958 256.915C475.743 259.558 475.026 260.774 473.686 262.576C473.434 262.787 473.276 263.089 473.247 263.416C473.217 263.744 473.319 264.069 473.53 264.321C473.741 264.573 474.043 264.731 474.37 264.76C474.698 264.789 475.023 264.687 475.275 264.477L477.4 266.771C476.658 268.804 472.281 280.757 472.722 282.839C473.547 286.674 477.416 300.531 478.367 303.867C478.465 304.214 478.664 304.525 478.94 304.759C479.215 304.992 479.554 305.139 479.913 305.179C480.272 305.219 480.634 305.151 480.954 304.983C481.274 304.816 481.537 304.557 481.709 304.239C485.67 296.339 486.656 289.526 489.36 281.546C489.614 281.428 489.823 281.232 489.957 280.986C490.09 280.741 490.141 280.458 490.102 280.181C490.102 280.04 490.028 279.898 490.028 279.756C490.123 279.538 490.152 279.297 490.113 279.063C490.073 278.828 489.967 278.61 489.806 278.435C489.03 274.644 486.905 269.217 485.941 266.164L487.456 263.497C488.821 264.587 489.696 265.576 490.697 264.634C490.93 264.391 491.06 264.068 491.06 263.731C491.06 263.395 490.93 263.071 490.697 262.829C488.91 260.418 486.823 258.245 484.487 256.361C487.864 255.074 490.903 253.032 493.37 250.392C494.546 250.928 495.688 251.536 496.789 252.212C497.06 252.413 497.399 252.498 497.733 252.449C498.067 252.4 498.367 252.22 498.569 251.95C498.76 251.67 498.834 251.327 498.777 250.993C498.72 250.659 498.535 250.361 498.261 250.161C496.864 248.865 495.313 247.748 493.641 246.834C492.409 246.218 491.614 247.293 490.918 247.94C491.343 245.172 491.402 242.361 491.094 239.578C493.866 235.669 497.294 232.063 499.955 228.037C508.508 214.482 502.767 203.123 494.1 201.321Z" fill="#212941"/>
<path d="M511.185 430.433C510.71 365.116 512.287 367.949 510.07 367.909C509.746 367.904 509.431 368.018 509.185 368.229C508.939 368.44 508.778 368.734 508.733 369.055C507.991 369.449 507.175 369.819 506.358 370.176C489.033 377.876 465.086 387.464 450.352 374.627C450.13 374.428 449.856 374.296 449.562 374.248C449.268 374.2 448.967 374.237 448.693 374.355C448.419 374.473 448.185 374.667 448.019 374.914C447.852 375.16 447.759 375.45 447.752 375.748C445.578 414.519 453.73 455.498 456.441 494.091C456.466 494.352 456.545 494.606 456.673 494.836C456.801 495.066 456.974 495.267 457.183 495.427C458.227 496.176 458.344 495.643 463.343 495.07C467.132 494.639 470.994 494.454 474.782 493.912C475.257 493.85 475.687 493.602 475.98 493.224C476.272 492.845 476.403 492.366 476.344 491.891C474.982 476.599 474.243 462.089 472.629 448.697C470.738 432.912 467.701 414.485 471.216 399.109C472.823 392.312 481.044 389.666 484.737 396.71C489.883 406.548 489.246 420.118 490.231 431.231C491.568 445.544 495.655 486.363 496.025 492.495C496.056 492.96 496.266 493.394 496.61 493.707C496.955 494.02 497.408 494.187 497.873 494.174C502.216 493.977 506.873 493.515 511.021 493.425C511.49 493.399 511.931 493.192 512.25 492.847C512.569 492.502 512.741 492.047 512.731 491.577C512.3 471.218 511.41 450.838 511.185 430.433Z" fill="#212941"/>
<path d="M584.871 267.544C575.409 261.076 571.245 258.116 563.776 253.653C563.562 253.528 563.324 253.448 563.077 253.42C562.831 253.391 562.581 253.414 562.344 253.486C562.106 253.559 561.887 253.68 561.698 253.842C561.51 254.004 561.358 254.203 561.25 254.426L546.7 284.761C537.054 274.345 534.95 262.062 518.771 254.211C513.115 251.515 506.98 249.972 500.722 249.671C500.348 249.652 499.978 249.747 499.66 249.944C499.341 250.14 499.09 250.428 498.939 250.77C491.81 267.058 485.639 283.748 480.459 300.756C478.611 292.853 471.835 258.742 471.545 253.416C471.504 252.905 471.263 252.431 470.873 252.098C470.483 251.765 469.977 251.6 469.466 251.639C437.348 254.103 418.418 283.536 392.361 294.143C376.345 300.666 370.549 295.526 369.634 299.253C368.094 307.458 367.149 314.754 370.078 322.553C370.185 322.826 370.355 323.069 370.575 323.263C370.794 323.457 371.057 323.595 371.34 323.668C396.815 330.398 419.194 322.575 439.975 306.368C439.975 310.519 440.2 314.684 440.57 318.848C442.418 340.876 444.183 342.468 442.8 350.88C441.759 357.425 439.307 363.908 438.343 370.496C438.296 370.788 438.335 371.086 438.453 371.357C438.572 371.627 438.765 371.857 439.011 372.021C447.425 377.974 457.266 381.592 467.532 382.508C481.478 383.328 505.724 373.484 518.118 367.207C520.443 366.027 515.934 361.971 515.74 343.392C515.828 332.684 516.949 322.01 519.085 311.517C524.797 314.775 530.818 317.457 537.06 319.525C551.825 323.865 562.83 319.889 572.12 305.009C578.522 293.936 583.088 281.899 585.638 269.364C585.707 269.019 585.671 268.661 585.534 268.336C585.398 268.012 585.166 267.736 584.871 267.544ZM478.056 373.823C477.981 374.158 477.775 374.449 477.485 374.632C477.195 374.816 476.844 374.876 476.509 374.801C476.174 374.725 475.883 374.519 475.699 374.229C475.516 373.939 475.455 373.588 475.531 373.253C476.19 369.674 477.105 348.456 478.334 322.531C476.64 322.1 477.163 318.792 468.17 308.613C464.628 304.545 460.641 300.888 456.284 297.71C456.085 297.57 455.916 297.392 455.786 297.187C455.656 296.982 455.567 296.753 455.526 296.513C455.484 296.274 455.49 296.029 455.544 295.792C455.597 295.554 455.697 295.33 455.837 295.132C458.067 291.944 460.072 288.645 462.225 285.482C456.681 287.767 456.478 288.186 455.465 287.392C454.106 286.44 454.935 285.762 455.837 278.216C457.867 260.423 457.282 259.296 459.105 259.478C459.434 259.516 459.734 259.681 459.942 259.937C460.151 260.194 460.25 260.522 460.22 260.851C459.604 268.243 459.604 277.881 458.809 282.852C460.349 282.282 458.046 283.024 466.981 279.747C467.372 279.607 467.799 279.601 468.195 279.728C468.591 279.855 468.934 280.11 469.171 280.452C469.408 280.794 469.525 281.204 469.505 281.62C469.485 282.035 469.328 282.433 469.06 282.75C465.759 286.915 462.708 291.273 459.924 295.8C467.67 301.851 474.018 309.504 478.534 318.235C478.805 312.968 479.088 308.647 479.088 306.05C479.08 305.715 479.206 305.391 479.437 305.149C479.669 304.907 479.987 304.766 480.322 304.758C480.657 304.751 480.981 304.876 481.223 305.107C481.465 305.339 481.606 305.657 481.614 305.992C482.759 321.013 480.625 363.606 478.056 373.823ZM512.152 288.507C512.141 288.802 512.052 289.089 511.896 289.34C511.739 289.591 511.519 289.796 511.259 289.936C509.552 290.909 508.647 288.867 500.562 287.007C502.167 289.04 503.655 291.164 505.019 293.367C505.233 293.701 505.335 294.095 505.308 294.491C505.282 294.887 505.128 295.264 504.871 295.566C499.272 301.829 494.063 308.429 489.274 315.33C489.09 315.599 488.811 315.786 488.493 315.854C488.176 315.922 487.844 315.866 487.567 315.696C487.29 315.526 487.089 315.256 487.005 314.942C486.921 314.628 486.962 314.294 487.118 314.009C491.174 306.973 495.901 300.346 501.233 294.22C499.165 291.225 496.932 288.346 494.547 285.596C494.291 285.317 494.125 284.966 494.073 284.591C494.02 284.216 494.082 283.833 494.251 283.494C494.421 283.155 494.689 282.876 495.02 282.692C495.352 282.509 495.731 282.43 496.108 282.467C500.448 282.905 504.701 283.969 508.736 285.624C509.475 278.848 510.686 265.447 510.818 258.378C510.818 258.033 510.955 257.703 511.199 257.459C511.443 257.215 511.773 257.078 512.118 257.078C512.463 257.078 512.793 257.215 513.037 257.459C513.281 257.703 513.418 258.033 513.418 258.378C513.641 268.442 513.218 278.509 512.152 288.519V288.507Z" fill="#3A5AB7"/>
<path d="M439.208 511.643C440.365 512.322 441.659 512.736 442.996 512.854C446.453 513.214 449.938 513.214 453.394 512.854C469.161 511.585 471.44 512.453 468.994 497.817C468.807 496.083 471.348 495.791 471.52 497.395C472.567 502.086 474.083 507.378 471.594 511.403C468.606 516.236 459.037 516.119 453.693 516.59C447.564 517.129 436.411 517.696 434.973 511.702C433.802 506.814 449.831 505.483 459.56 496.206C459.801 495.994 460.112 495.879 460.433 495.885C460.754 495.891 461.061 496.018 461.293 496.239C461.525 496.461 461.666 496.761 461.687 497.081C461.709 497.401 461.609 497.718 461.408 497.968C454.845 505.135 446.969 507.489 439.208 511.643Z" fill="#212941"/>
<path d="M530.942 517.748C530.582 512.583 519.904 509.571 512.82 498.945C512.616 498.678 512.526 498.342 512.567 498.009C512.609 497.676 512.779 497.373 513.042 497.164C513.326 496.965 513.675 496.882 514.018 496.931C514.361 496.98 514.673 497.159 514.89 497.429C522.346 507.11 533.576 509.457 534.648 517.329C535.06 520.351 532.245 521.733 529.227 522.137C524.812 522.522 520.363 522.139 516.078 521.007C513.343 519.956 512.66 517.542 511.458 516.959C508.782 515.647 505.643 516.035 503.065 514.723C498.676 512.475 499.166 507.679 499.061 498.449C499.049 498.119 499.166 497.797 499.387 497.553C499.608 497.308 499.916 497.159 500.245 497.137C500.574 497.116 500.899 497.224 501.149 497.439C501.4 497.653 501.557 497.957 501.587 498.285C502.289 505.49 501.994 503.29 502.554 508.141C503.611 513.812 507.143 510.886 513.026 513.621C515.235 514.649 516.106 517.009 517.409 517.492C519.235 518.158 527.829 519.31 530.942 517.748ZM530.942 517.748C531.016 517.748 531.016 517.702 531.016 517.702L530.942 517.748Z" fill="#212941"/>
<path d="M571.5 253.395C572.555 251.666 573.721 250.009 574.993 248.433C577.503 245.428 580.873 243.264 584.649 242.23C586.497 241.614 588.437 240.967 590.664 240.416C590.991 240.359 591.284 240.178 591.479 239.909C591.674 239.64 591.756 239.306 591.708 238.977C591.659 238.648 591.485 238.352 591.22 238.15C590.956 237.949 590.624 237.859 590.294 237.899C588.071 238.026 585.861 238.319 583.682 238.774C579.061 239.77 574.966 242.424 572.168 246.234C570.914 248.137 569.916 250.196 569.199 252.36C569.08 252.662 569.082 252.998 569.204 253.299C569.327 253.599 569.56 253.841 569.856 253.975C570.152 254.108 570.488 254.122 570.794 254.014C571.1 253.906 571.353 253.684 571.5 253.395Z" fill="#212941"/>
<path d="M588.138 246.76C589.64 246.835 591.144 246.672 592.595 246.277C595.508 245.351 598.055 243.532 599.876 241.078C600.702 239.8 601.305 238.39 601.66 236.911C601.782 236.595 601.774 236.244 601.638 235.935C601.502 235.625 601.248 235.382 600.933 235.26C600.617 235.137 600.266 235.145 599.957 235.281C599.647 235.417 599.404 235.671 599.282 235.987C598.656 237.024 597.907 237.983 597.052 238.842C595.482 240.607 593.524 241.985 591.332 242.867C590.455 243.255 588.65 244.025 587.843 244.256C587.513 244.3 587.213 244.47 587.005 244.73C586.797 244.99 586.698 245.32 586.728 245.652C586.78 245.98 586.955 246.277 587.216 246.482C587.478 246.688 587.807 246.787 588.138 246.76Z" fill="#212941"/>
<path d="M594.378 249.733C595.752 249.677 597.106 249.387 598.382 248.876C600.847 247.703 602.968 245.916 604.542 243.687C605.258 242.557 605.832 241.343 606.252 240.074C606.33 239.927 606.378 239.767 606.394 239.602C606.41 239.437 606.393 239.27 606.344 239.112C606.296 238.953 606.217 238.806 606.111 238.678C606.006 238.55 605.876 238.444 605.73 238.366C605.583 238.288 605.423 238.24 605.258 238.224C605.093 238.208 604.926 238.225 604.768 238.273C604.609 238.322 604.462 238.401 604.334 238.506C604.206 238.612 604.1 238.741 604.022 238.888C603.316 239.799 602.548 240.66 601.721 241.463C599.564 243.967 596.873 245.955 593.845 247.281C593.52 247.352 593.237 247.548 593.057 247.828C592.877 248.108 592.815 248.448 592.886 248.773C592.957 249.098 593.154 249.382 593.433 249.562C593.713 249.742 594.053 249.803 594.378 249.733Z" fill="#212941"/>
<path d="M608.938 241.404C606.626 245.442 603.159 248.697 598.983 250.749C593.303 253.241 585.308 253.392 581.975 261.221C581.892 261.366 581.839 261.527 581.82 261.694C581.8 261.861 581.816 262.03 581.864 262.19C581.912 262.351 581.993 262.5 582.101 262.628C582.209 262.757 582.343 262.861 582.493 262.937C584.532 263.981 583.685 260.583 589.401 257.99C595.663 255.15 606.273 255.461 611.241 242.473C611.383 242.167 611.398 241.818 611.282 241.502C611.166 241.186 610.929 240.928 610.624 240.787C610.318 240.645 609.969 240.63 609.653 240.746C609.337 240.862 609.079 241.099 608.938 241.404Z" fill="#212941"/>
<path d="M354.083 296.863C356.182 296.279 358.384 296.17 360.529 296.543C362.675 296.916 364.711 297.762 366.49 299.019C366.609 299.134 366.749 299.225 366.904 299.286C367.058 299.347 367.223 299.376 367.389 299.373C367.555 299.369 367.718 299.333 367.87 299.266C368.022 299.199 368.159 299.102 368.273 298.982C368.495 298.728 368.61 298.399 368.596 298.062C368.582 297.726 368.438 297.408 368.196 297.174C366.81 295.271 364.85 293.861 362.605 293.152C360.36 292.442 357.947 292.47 355.719 293.231C354.818 293.592 353.948 294.027 353.119 294.531C352.966 294.594 352.827 294.687 352.71 294.804C352.593 294.921 352.5 295.06 352.436 295.213C352.308 295.522 352.308 295.87 352.436 296.179C352.563 296.488 352.809 296.734 353.118 296.862C353.427 296.99 353.774 296.991 354.083 296.863Z" fill="#212941"/>
<path d="M345.69 314.191C346.977 313.694 348.16 312.963 349.18 312.035C350.674 310.84 351.999 309.449 353.119 307.898C354.551 306.931 352.956 304.837 351.708 305.819C350.909 306.122 350.138 306.494 349.405 306.931C347.732 307.994 342.798 312.327 343.907 313.966C344.116 314.229 344.419 314.4 344.753 314.442C345.086 314.484 345.423 314.394 345.69 314.191Z" fill="#212941"/>
<path d="M350.667 318.669C352.202 317.99 353.609 317.053 354.825 315.897C355.714 315.148 356.49 314.274 357.129 313.304C357.268 313.204 357.386 313.078 357.474 312.932C357.563 312.785 357.621 312.623 357.646 312.454C357.67 312.284 357.659 312.112 357.615 311.947C357.571 311.782 357.494 311.627 357.388 311.493C357.283 311.358 357.151 311.247 357.001 311.164C356.851 311.082 356.686 311.031 356.516 311.015C356.346 310.998 356.174 311.016 356.011 311.067C355.848 311.119 355.697 311.203 355.568 311.314C354.173 311.779 352.886 312.52 351.782 313.492C350.54 314.352 349.542 315.519 348.884 316.88C348.672 317.121 348.559 317.434 348.569 317.755C348.579 318.076 348.711 318.382 348.938 318.61C349.164 318.837 349.469 318.97 349.791 318.981C350.112 318.992 350.425 318.881 350.667 318.669Z" fill="#212941"/>
<path d="M356.088 323.84C358.903 322.404 361.268 320.219 362.922 317.526C363.137 317.293 363.256 316.987 363.256 316.67C363.255 316.353 363.135 316.047 362.92 315.814C362.704 315.581 362.409 315.438 362.093 315.413C361.777 315.388 361.462 315.482 361.213 315.678C359.478 316.482 357.91 317.607 356.593 318.993C355.633 319.869 354.852 320.924 354.292 322.097C354.06 322.336 353.93 322.656 353.93 322.989C353.93 323.322 354.06 323.642 354.292 323.88C354.412 323.997 354.554 324.089 354.709 324.15C354.865 324.211 355.031 324.24 355.198 324.237C355.365 324.233 355.53 324.196 355.683 324.128C355.836 324.06 355.973 323.962 356.088 323.84Z" fill="#212941"/>
<path d="M324.148 256.7C325.671 260.244 327.46 263.669 329.498 266.944C337.525 279.572 342.049 288.901 350.963 300.59C351.853 301.994 353.932 300.59 353.045 299.163C351.351 296.45 349.315 292.474 336.034 270.39C332.809 265.031 328.618 259.82 326.378 255.643C326.314 255.493 326.22 255.358 326.102 255.245C325.984 255.133 325.844 255.045 325.692 254.987C325.539 254.93 325.376 254.904 325.213 254.911C325.05 254.917 324.89 254.957 324.743 255.027C324.447 255.175 324.22 255.432 324.109 255.744C323.998 256.055 324.012 256.398 324.148 256.7Z" fill="#212941"/>
<path d="M479.361 218.286C480.784 220.349 476.389 223.38 474.966 221.317C473.543 219.253 477.939 216.216 479.361 218.286Z" fill="#212941"/>
<path d="M483.924 226.688C489.468 236.307 481.586 240.194 477.314 237.567C475.303 236.054 473.906 233.867 473.378 231.407C473.213 230.965 473.23 230.475 473.425 230.046C473.619 229.616 473.975 229.281 474.416 229.112C479.652 227.35 483.012 224.723 483.924 226.688ZM481.992 229.029C479.602 230.369 480.508 230.017 477.372 231.748C478.173 233.732 479.473 235.226 481.376 234.259C482.972 233.553 482.421 230.674 481.992 229.013V229.029Z" fill="#212941"/>
<path d="M468.376 187.547V100.075C468.416 98.2458 468.089 96.4267 467.414 94.7257C466.739 93.0247 465.73 91.4764 464.446 90.1723C463.162 88.8683 461.629 87.835 459.939 87.1336C458.249 86.4323 456.435 86.0771 454.605 86.0891C436.562 86.009 154.693 85.741 134.436 85.7564C130.639 85.7605 126.999 87.2709 124.315 89.9561C121.631 92.6413 120.123 96.2818 120.12 100.078C120.12 109.827 120.594 216.358 120.671 246.492C120.671 246.86 120.817 247.213 121.077 247.472C121.337 247.732 121.69 247.878 122.057 247.878C122.425 247.878 122.778 247.732 123.037 247.472C123.297 247.213 123.443 246.86 123.443 246.492C123.483 216.358 123.958 109.827 123.995 100.078C124.01 97.3155 125.117 94.6706 127.074 92.7201C129.031 90.7695 131.679 89.6714 134.442 89.665C154.699 89.6804 436.569 89.4093 454.611 89.3323C457.483 89.3142 460.245 90.435 462.292 92.4492C464.339 94.4634 465.504 97.2067 465.533 100.078V187.55C465.57 187.902 465.736 188.227 465.999 188.463C466.261 188.7 466.602 188.83 466.956 188.83C467.309 188.829 467.65 188.698 467.912 188.461C468.174 188.224 468.34 187.899 468.376 187.547Z" fill="#3A5AB7"/>
<path d="M331.278 347.424C384.476 348.136 372.612 347.883 430.963 347.424C431.29 347.408 431.598 347.267 431.823 347.03C432.049 346.793 432.175 346.478 432.175 346.15C432.175 345.823 432.049 345.508 431.823 345.271C431.598 345.034 431.29 344.893 430.963 344.877C405.251 344.427 357.043 344.553 331.278 344.898C330.943 344.898 330.622 345.031 330.385 345.268C330.149 345.505 330.016 345.826 330.016 346.161C330.016 346.496 330.149 346.817 330.385 347.054C330.622 347.291 330.943 347.424 331.278 347.424Z" fill="#3A5AB7"/>
<path d="M149.965 126.191C157.441 127.063 164.999 126.96 172.449 125.883C172.814 125.866 173.158 125.709 173.41 125.445C173.662 125.181 173.803 124.829 173.803 124.464C173.803 124.099 173.662 123.748 173.41 123.484C173.158 123.22 172.814 123.063 172.449 123.046C164.971 122.183 157.412 122.306 149.965 123.409C149.594 123.422 149.242 123.576 148.98 123.84C148.719 124.104 148.569 124.458 148.561 124.829C148.569 125.195 148.722 125.543 148.984 125.797C149.247 126.052 149.599 126.193 149.965 126.191Z" fill="#3A5AB7"/>
<path d="M148.721 161.66C156.198 162.527 163.756 162.419 171.205 161.337C171.57 161.32 171.914 161.163 172.166 160.899C172.418 160.634 172.559 160.283 172.559 159.918C172.559 159.553 172.418 159.202 172.166 158.938C171.914 158.674 171.57 158.517 171.205 158.5C163.726 157.638 156.167 157.761 148.721 158.866C148.349 158.877 147.995 159.03 147.734 159.294C147.472 159.559 147.323 159.914 147.316 160.286C147.321 160.654 147.472 161.006 147.735 161.263C147.998 161.521 148.353 161.663 148.721 161.66Z" fill="#3A5AB7"/>
<path d="M149.883 142.829C166.075 143.549 182.296 143.291 198.457 142.056C198.648 142.057 198.837 142.02 199.013 141.947C199.189 141.873 199.349 141.765 199.482 141.629C199.616 141.492 199.72 141.33 199.79 141.153C199.859 140.975 199.892 140.785 199.886 140.594C199.881 140.404 199.837 140.216 199.757 140.043C199.677 139.869 199.563 139.714 199.422 139.585C199.281 139.457 199.116 139.359 198.935 139.296C198.755 139.233 198.564 139.207 198.374 139.219C182.209 138.507 166.015 138.78 149.883 140.035C149.523 140.052 149.185 140.207 148.936 140.467C148.688 140.727 148.55 141.073 148.55 141.432C148.55 141.792 148.688 142.137 148.936 142.397C149.185 142.657 149.523 142.812 149.883 142.829Z" fill="#3A5AB7"/>
<path d="M148.638 178.301C164.831 179.018 181.052 178.759 197.213 177.525C197.403 177.525 197.592 177.487 197.767 177.413C197.943 177.339 198.101 177.23 198.234 177.093C198.366 176.956 198.47 176.794 198.539 176.617C198.607 176.439 198.639 176.249 198.633 176.059C198.627 175.869 198.583 175.681 198.503 175.509C198.423 175.336 198.309 175.181 198.167 175.053C198.026 174.925 197.861 174.827 197.681 174.764C197.501 174.702 197.311 174.676 197.121 174.688C180.955 173.978 164.761 174.251 148.629 175.505C148.258 175.506 147.903 175.654 147.642 175.917C147.38 176.181 147.234 176.537 147.235 176.908C147.237 177.278 147.385 177.634 147.648 177.895C147.911 178.156 148.267 178.302 148.638 178.301Z" fill="#3A5AB7"/>
<path d="M422.699 108.552C425.498 109.123 428.355 109.354 431.209 109.238C433.149 109.299 435.09 109.128 436.99 108.73C437.367 108.73 437.728 108.581 437.994 108.314C438.26 108.048 438.41 107.687 438.41 107.31C438.41 106.934 438.26 106.573 437.994 106.306C437.728 106.04 437.367 105.89 436.99 105.89C435.206 105.43 433.379 105.159 431.539 105.08C428.545 104.726 425.512 104.957 422.607 105.761C422.423 105.767 422.243 105.809 422.076 105.885C421.909 105.961 421.759 106.069 421.634 106.202C421.508 106.336 421.411 106.493 421.346 106.665C421.282 106.837 421.252 107.019 421.258 107.202C421.264 107.386 421.306 107.566 421.381 107.733C421.457 107.9 421.565 108.05 421.699 108.176C421.833 108.301 421.99 108.398 422.162 108.463C422.333 108.527 422.516 108.558 422.699 108.552Z" fill="#3A5AB7"/>
<path d="M413.284 117.93C416.28 118.472 419.327 118.688 422.37 118.577C432.152 118.525 434.69 119.809 439.31 118.817C439.499 118.806 439.684 118.757 439.855 118.673C440.025 118.59 440.176 118.472 440.3 118.329C440.424 118.185 440.518 118.018 440.576 117.838C440.635 117.657 440.656 117.467 440.639 117.278C440.623 117.089 440.568 116.905 440.479 116.738C440.39 116.57 440.268 116.422 440.121 116.303C439.974 116.183 439.804 116.094 439.622 116.042C439.44 115.989 439.249 115.973 439.06 115.996C435.364 115.996 431.998 114.028 422.622 114.422C417.519 114.638 416.154 115.038 413.533 115.14C413.169 115.118 412.811 115.239 412.535 115.476C412.259 115.714 412.086 116.051 412.053 116.414C412.021 116.777 412.131 117.138 412.361 117.422C412.591 117.705 412.922 117.887 413.284 117.93Z" fill="#3A5AB7"/>
<path d="M377.832 152.152C373.181 138.198 363.696 126.366 351.089 118.79C338.481 111.215 323.581 108.394 309.077 110.838C294.573 113.282 281.419 120.829 271.99 132.117C262.561 143.406 257.476 157.692 257.654 172.4C258.017 208.113 287.394 235.099 319.476 234.089C333.751 233.64 344.294 228.336 344.294 227.523C344.294 226.71 331.217 230.603 319.476 231.154C305.415 230.892 291.92 225.575 281.458 216.177C270.997 206.778 264.27 193.927 262.509 179.975C260.747 166.023 264.068 151.903 271.865 140.2C279.662 128.496 291.412 119.992 304.966 116.242C309.148 135.628 312.389 150.233 318.589 174.793C318.673 175.122 318.835 175.425 319.061 175.679C319.286 175.932 319.569 176.128 319.885 176.25C335.713 181.969 358.496 190.261 373.098 194.299C368.384 206.296 359.856 216.411 348.828 223.084C348.506 223.299 348.28 223.629 348.197 224.007C348.113 224.385 348.179 224.78 348.381 225.11C348.582 225.44 348.903 225.679 349.277 225.778C349.651 225.876 350.049 225.826 350.387 225.638C362.732 218.43 372.207 207.179 377.208 193.787C382.21 180.396 382.43 165.687 377.832 152.152Z" fill="#FF9500"/>
<path d="M386.555 128.091L382.754 132.381C382.522 132.667 382.185 132.849 381.819 132.887C381.452 132.925 381.086 132.816 380.8 132.583C380.514 132.351 380.332 132.014 380.294 131.648C380.257 131.281 380.366 130.915 380.598 130.629C385 125.014 384.867 124.444 386.142 124.604C399.18 126.252 425.545 126.144 449.917 126.539C450.282 126.556 450.626 126.713 450.878 126.977C451.13 127.241 451.271 127.592 451.271 127.957C451.271 128.322 451.13 128.673 450.878 128.937C450.626 129.202 450.282 129.358 449.917 129.375C438.08 129.588 410.761 132.169 386.555 128.091Z" fill="#212941"/>
<path d="M215.197 224.988C212.398 224.416 209.541 224.186 206.687 224.301C204.745 224.241 202.804 224.413 200.903 224.812C200.538 224.829 200.194 224.986 199.942 225.25C199.689 225.514 199.549 225.865 199.549 226.231C199.549 226.596 199.689 226.947 199.942 227.211C200.194 227.475 200.538 227.632 200.903 227.649C202.688 228.109 204.518 228.381 206.36 228.459C209.354 228.812 212.387 228.582 215.292 227.781C215.655 227.757 215.993 227.593 216.237 227.324C216.48 227.055 216.61 226.701 216.597 226.338C216.585 225.976 216.432 225.632 216.17 225.38C215.909 225.128 215.56 224.987 215.197 224.988Z" fill="#3A5AB7"/>
<path d="M224.612 215.6C221.615 215.058 218.569 214.84 215.526 214.95C205.744 215.006 203.206 213.718 198.586 214.71C198.397 214.721 198.211 214.77 198.041 214.854C197.871 214.937 197.72 215.055 197.596 215.198C197.472 215.342 197.378 215.509 197.319 215.689C197.261 215.87 197.24 216.06 197.256 216.249C197.273 216.438 197.328 216.622 197.417 216.789C197.506 216.957 197.627 217.105 197.775 217.224C197.922 217.344 198.092 217.433 198.274 217.485C198.456 217.538 198.647 217.554 198.835 217.531C202.531 217.531 205.898 219.499 215.273 219.105C220.377 218.889 221.757 218.489 224.363 218.387C224.546 218.404 224.73 218.384 224.905 218.329C225.081 218.274 225.244 218.185 225.385 218.067C225.526 217.95 225.642 217.805 225.727 217.642C225.812 217.479 225.865 217.301 225.881 217.118C225.897 216.935 225.877 216.751 225.823 216.576C225.768 216.4 225.679 216.237 225.561 216.096C225.443 215.955 225.299 215.839 225.136 215.754C224.973 215.669 224.795 215.616 224.612 215.6Z" fill="#3A5AB7"/>
<path d="M251.328 205.436L255.129 201.146C255.361 200.86 255.698 200.678 256.065 200.64C256.432 200.603 256.798 200.713 257.084 200.945C257.37 201.178 257.552 201.515 257.589 201.882C257.627 202.249 257.517 202.615 257.285 202.901C252.883 208.516 253.016 209.083 251.741 208.923C238.7 207.275 212.338 207.383 187.966 206.988C187.601 206.971 187.257 206.814 187.005 206.55C186.753 206.286 186.612 205.935 186.612 205.57C186.612 205.205 186.753 204.854 187.005 204.59C187.257 204.325 187.601 204.169 187.966 204.152C199.812 203.951 227.134 201.37 251.328 205.436Z" fill="#212941"/>
<path d="M295.699 276.221C294.952 283.418 295.178 290.683 296.37 297.821C296.376 297.988 296.415 298.152 296.485 298.304C296.554 298.456 296.654 298.593 296.777 298.706C296.9 298.819 297.044 298.907 297.201 298.964C297.358 299.021 297.525 299.047 297.692 299.039C297.859 299.031 298.023 298.99 298.174 298.918C298.325 298.846 298.461 298.745 298.572 298.62C298.684 298.496 298.77 298.351 298.825 298.193C298.88 298.035 298.903 297.867 298.893 297.7C299.044 295.896 299.228 294.115 299.265 292.301C299.307 286.902 298.959 281.508 298.224 276.159C298.216 275.824 298.075 275.506 297.833 275.275C297.59 275.044 297.266 274.919 296.931 274.927C296.596 274.935 296.278 275.076 296.047 275.319C295.816 275.561 295.691 275.886 295.699 276.221Z" fill="#212941"/>
<path d="M288.867 307.193C299.706 306.291 308.234 306.904 320.138 304.751C320.474 304.71 320.78 304.537 320.988 304.271C321.197 304.005 321.291 303.666 321.25 303.331C321.209 302.995 321.037 302.689 320.771 302.481C320.504 302.272 320.166 302.178 319.83 302.219C312.669 302.456 299.777 301.911 288.485 304.714C288.156 304.764 287.861 304.943 287.665 305.212C287.468 305.48 287.386 305.816 287.437 306.144C287.487 306.473 287.666 306.768 287.935 306.965C288.203 307.162 288.538 307.244 288.867 307.193Z" fill="#212941"/>
<path d="M290.135 312.706C292.049 313.218 294.022 313.473 296.003 313.464C298.904 313.638 301.816 313.514 304.691 313.091C305.029 313.111 305.361 312.996 305.614 312.772C305.867 312.547 306.021 312.231 306.041 311.893C306.061 311.555 305.946 311.223 305.721 310.97C305.496 310.717 305.18 310.564 304.842 310.544C300.039 309.434 295.061 309.312 290.209 310.187C290.044 310.182 289.879 310.21 289.724 310.269C289.57 310.327 289.428 310.416 289.308 310.53C289.187 310.643 289.09 310.779 289.023 310.93C288.955 311.081 288.918 311.244 288.913 311.41C288.908 311.575 288.936 311.74 288.994 311.894C289.053 312.049 289.142 312.191 289.255 312.311C289.369 312.432 289.505 312.528 289.656 312.596C289.807 312.664 289.97 312.701 290.135 312.706Z" fill="#212941"/>
<path d="M290.277 319.972C291.523 320.233 292.803 320.285 294.066 320.126C295.963 320.072 297.841 319.735 299.637 319.125C299.961 319.095 300.261 318.943 300.477 318.7C300.692 318.456 300.807 318.14 300.798 317.815C300.788 317.49 300.655 317.181 300.426 316.951C300.197 316.72 299.888 316.586 299.564 316.575C297.17 315.983 294.667 316.001 292.282 316.627C291.488 316.832 290.716 317.116 289.979 317.474C289.647 317.514 289.345 317.683 289.139 317.946C288.933 318.208 288.839 318.541 288.879 318.872C288.919 319.204 289.088 319.506 289.35 319.712C289.613 319.918 289.946 320.012 290.277 319.972Z" fill="#212941"/>
<path d="M225.357 296.358C226.824 295.25 227.935 293.737 228.551 292.006C228.833 292.495 229.081 293.004 229.293 293.527C229.412 293.799 229.607 294.031 229.853 294.195C230.1 294.36 230.389 294.451 230.685 294.457C230.982 294.463 231.274 294.384 231.527 294.23C231.78 294.076 231.984 293.852 232.114 293.586C236.066 286.283 230.479 276.162 222.905 273.643C219.118 272.691 215.178 272.507 211.318 273.101C209.89 269.679 207.386 266.816 204.185 264.945C190.839 258.477 182.231 280.591 195.124 286.129C197.053 286.903 199.077 287.415 201.142 287.65C200.153 295.486 200.785 304.898 205.3 311.302C208.82 316.288 208.047 313.639 208.047 315.869C208.047 316.177 208.211 319.455 208.494 321.336C208.671 322.197 208.894 323.047 209.162 323.884C209.189 324.228 209.351 324.548 209.614 324.773C209.876 324.998 210.217 325.11 210.562 325.083C210.907 325.057 211.227 324.894 211.452 324.632C211.677 324.369 211.788 324.028 211.762 323.683C212.112 321.552 212.137 319.379 211.836 317.24C211.768 316.559 211.694 317.169 213.619 317.203C220.33 317.351 224.55 306.676 225.505 300.534C225.505 300.128 225.526 300.833 225.357 296.358Z" fill="#212941"/>
<path d="M231.745 296.047C231.739 295.712 231.599 295.393 231.358 295.161C231.116 294.929 230.793 294.802 230.458 294.808C230.123 294.815 229.804 294.954 229.572 295.196C229.34 295.437 229.213 295.761 229.219 296.096C229.198 296.404 228.702 302.746 228.625 303.377C227.276 317.545 219.859 313.091 219.859 316.732L220.38 322.547C220.368 322.882 220.49 323.208 220.718 323.453C220.947 323.698 221.263 323.842 221.598 323.854C221.933 323.866 222.259 323.744 222.504 323.516C222.749 323.288 222.894 322.971 222.905 322.636C223.254 318.802 223.069 319.353 223.213 318.115C229.681 316.313 232.025 310.27 232.201 303.608C232.232 301.08 232.079 298.553 231.745 296.047Z" fill="#212941"/>
<path d="M60.6299 296.173C55.782 295.468 55.5356 290.894 59.6289 290.287C59.8649 290.274 60.0957 290.213 60.3075 290.109C60.5194 290.004 60.7077 289.857 60.8612 289.677C61.0147 289.498 61.1301 289.289 61.2004 289.063C61.2708 288.838 61.2947 288.6 61.2705 288.365C61.0404 287.122 60.5023 285.956 59.7055 284.974C58.9087 283.992 57.8785 283.225 56.7091 282.744C52.5449 280.776 44.0041 281.395 41.0165 282.039C34.185 283.539 32.5341 289.052 35.8174 292.511C32.2723 296.318 33.0454 301.858 38.2814 302.746C37.6315 308.04 43.1109 309.654 48.4454 309.318C48.2079 312.91 48.6617 316.514 49.7821 319.935C50.0131 321.7 53.0931 321.386 52.8837 319.787C53.5521 316.103 53.3003 312.312 52.1507 308.748C54.6446 308.074 56.8877 306.686 58.6054 304.756C60.3231 302.826 61.4408 300.438 61.8219 297.882V297.836C62.136 297.562 61.8588 296.327 60.6299 296.173Z" fill="#212941"/>
<path d="M104.622 277.526C104.462 268.388 106.162 259.274 114.736 255.966C122.184 253.102 128.775 259.918 133.796 256.077C134.159 255.872 134.464 255.577 134.682 255.221C134.9 254.864 135.025 254.459 135.043 254.041C135.018 253.704 135.126 253.37 135.343 253.111C135.56 252.851 135.87 252.687 136.207 252.652C137.938 252.461 138.446 255.135 136.287 257.488C130.232 264.082 122.319 256.659 116.135 259.219C108.653 262.314 108.435 271.049 108.589 278.993C108.578 279.504 108.369 279.99 108.006 280.35C107.642 280.709 107.153 280.913 106.642 280.918C103.747 281.025 101.585 286.154 107.498 286.874C107.971 286.911 108.414 287.119 108.743 287.459C109.073 287.8 109.267 288.249 109.288 288.722C109.083 291.812 109.965 294.875 111.78 297.383C112.408 297.941 113.152 298.354 113.958 298.593C114.764 298.831 115.613 298.89 116.444 298.765C117.275 298.639 118.069 298.333 118.768 297.867C119.468 297.401 120.057 296.787 120.493 296.068C121.488 294.019 121.994 291.767 121.971 289.489C121.974 289.181 122.073 288.882 122.254 288.633C122.435 288.384 122.69 288.198 122.982 288.1C123.797 287.958 124.545 287.559 125.116 286.96C125.687 286.362 126.052 285.596 126.155 284.775C126.258 283.954 126.096 283.122 125.691 282.4C125.286 281.679 124.66 281.106 123.906 280.767C123.761 280.681 123.636 280.566 123.537 280.43C123.439 280.293 123.369 280.138 123.333 279.974C123.296 279.81 123.294 279.64 123.326 279.475C123.358 279.31 123.423 279.153 123.518 279.014C124.586 276.947 129.576 280.733 129.12 285.091C128.968 286.256 128.524 287.363 127.83 288.311C127.136 289.258 126.214 290.015 125.15 290.512C125.15 297.904 121.867 301.443 116.905 302.33C111.441 303.309 106.291 300.066 105.389 290.296C103.911 290.068 102.557 289.34 101.55 288.235C100.544 287.129 99.9461 285.713 99.8565 284.221C99.7669 282.728 100.191 281.25 101.058 280.033C101.925 278.815 103.182 277.93 104.622 277.526Z" fill="#212941"/>
<path d="M114.345 267.529C118.411 265.77 124.124 270.427 129.671 270.144C131.814 269.956 133.846 269.11 135.489 267.723C137.133 266.336 138.307 264.475 138.853 262.394C138.919 262.052 138.852 261.697 138.665 261.402C138.478 261.108 138.186 260.896 137.848 260.81C137.51 260.723 137.152 260.77 136.847 260.939C136.542 261.108 136.313 261.388 136.207 261.72C135.564 262.991 134.617 264.083 133.45 264.899C132.282 265.715 130.932 266.23 129.517 266.398C124.897 266.589 118.716 261.492 113.024 265.345C111.536 266.161 112.827 268.363 114.345 267.529Z" fill="#212941"/>
<path d="M121.426 274.289C122.793 275.196 124.288 275.892 125.862 276.353C127.585 276.837 129.394 276.93 131.158 276.624C132.921 276.318 134.594 275.622 136.053 274.585C137.359 273.47 138.397 272.074 139.087 270.501C139.225 270.194 139.241 269.847 139.132 269.529C139.024 269.211 138.799 268.946 138.503 268.788C138.207 268.629 137.861 268.588 137.536 268.674C137.212 268.76 136.931 268.966 136.752 269.251C135.154 271.139 132.957 272.422 130.528 272.888C127.853 273.062 125.167 272.767 122.594 272.016C122.444 271.94 122.282 271.893 122.114 271.879C121.947 271.866 121.779 271.885 121.619 271.937C121.459 271.988 121.311 272.07 121.183 272.179C121.055 272.287 120.95 272.42 120.874 272.569C120.797 272.718 120.75 272.881 120.737 273.049C120.723 273.216 120.742 273.384 120.794 273.544C120.845 273.704 120.927 273.852 121.036 273.98C121.144 274.107 121.277 274.213 121.426 274.289Z" fill="#212941"/>
<path d="M113.652 279.301C112.882 281.314 112.719 283.509 113.184 285.615C113.427 286.337 113.713 287.045 114.04 287.734C114.413 289.378 117.065 288.904 116.686 287.219C117.171 284.581 117.038 281.866 116.298 279.288C116.28 278.948 116.132 278.629 115.884 278.395C115.637 278.161 115.309 278.032 114.969 278.034C114.629 278.035 114.302 278.168 114.057 278.404C113.812 278.639 113.667 278.961 113.652 279.301Z" fill="#212941"/>
<path d="M76.412 283.425C74.2098 262.826 47.7279 266.001 46.3081 278.737C46.1202 280.419 49.1971 280.637 49.4096 279.02C50.7956 271.561 65.0868 268.265 70.1473 277.93C67.6032 277.111 63.8856 278.019 63.0941 280.394C61.9237 281.805 64.4893 283.206 65.5581 281.9C67.0817 281.523 68.6426 281.316 70.2119 281.284C70.583 281.503 71.0172 281.59 71.4439 281.53C71.5987 282.241 71.7078 282.962 71.7704 283.686C72.1031 286.924 77.5855 290.315 77.0619 291.879C76.3913 293.033 75.3676 293.94 74.142 294.466C72.448 295.332 73.526 296.567 72.7375 301.55C71.8643 302.016 70.882 302.237 69.8936 302.192C68.9052 302.147 67.947 301.837 67.1196 301.295C66.6884 299.755 63.5222 300.454 64.1998 302.089C64.5632 305.373 68.2038 306.531 71.3977 305.847C69.0323 310.208 65.749 309.426 65.749 311.299L66.0231 318.423C66.0231 320.144 69.1247 320.175 69.1247 318.518L69.3988 312.272C75.7529 309.518 77.2343 303.956 77.6101 297.038C87.5185 290.937 76.412 285.732 76.412 283.425Z" fill="#212941"/>
<path d="M68.5669 291.645C70.9138 291.645 70.9138 286.317 68.5669 286.317C66.2199 286.317 66.2199 291.645 68.5669 291.645Z" fill="#212941"/>
<path d="M322.812 323.194C325.901 321.585 328.751 319.553 331.279 317.157C331.427 317.079 331.558 316.972 331.664 316.844C331.771 316.715 331.851 316.567 331.901 316.407C331.95 316.247 331.967 316.079 331.952 315.913C331.936 315.746 331.888 315.584 331.81 315.437C331.732 315.289 331.625 315.158 331.497 315.051C331.368 314.944 331.22 314.864 331.06 314.815C330.737 314.715 330.388 314.748 330.09 314.905C326.432 315.948 323.253 318.236 321.102 321.373C320.894 321.607 320.781 321.911 320.785 322.224C320.789 322.537 320.911 322.837 321.125 323.065C321.339 323.293 321.631 323.433 321.943 323.457C322.256 323.481 322.565 323.387 322.812 323.194Z" fill="#212941"/>
<path d="M326.079 326.997C329.216 326.151 332.15 324.678 334.703 322.667C336.243 322.134 335.374 319.676 333.887 320.252C331.259 320.554 328.765 321.575 326.68 323.203C326.072 323.673 325.501 324.188 324.97 324.743C324.818 324.813 324.681 324.913 324.568 325.037C324.455 325.161 324.368 325.306 324.312 325.464C324.256 325.622 324.232 325.79 324.241 325.957C324.251 326.125 324.294 326.288 324.368 326.439C324.442 326.589 324.546 326.724 324.672 326.833C324.799 326.943 324.946 327.027 325.106 327.079C325.265 327.131 325.434 327.151 325.601 327.137C325.768 327.123 325.93 327.075 326.079 326.997Z" fill="#212941"/>
<path d="M338.337 325.756C338.104 325.517 337.786 325.38 337.451 325.375C337.117 325.37 336.795 325.497 336.554 325.728C316.063 340.747 315.139 341.347 315.139 341.347C314.308 338.128 312.944 335.07 311.104 332.301C313.326 330.651 315.04 328.41 316.051 325.833C317.38 322.462 319.235 319.324 321.548 316.535C321.81 316.333 321.983 316.037 322.032 315.71C322.08 315.382 322 315.049 321.808 314.78C321.615 314.511 321.326 314.327 321.001 314.266C320.676 314.206 320.34 314.274 320.064 314.456C313.854 317.844 313.26 324.992 309.592 330.182C309.453 329.966 309.271 329.781 309.057 329.639C308.843 329.498 308.602 329.402 308.349 329.359C308.096 329.315 307.837 329.325 307.588 329.387C307.339 329.449 307.106 329.563 306.903 329.72C305.009 331.277 303.227 332.963 301.568 334.768C301.297 334.491 301.023 334.214 300.737 333.94C300.414 333.617 299.983 333.426 299.527 333.405C299.071 333.384 298.624 333.534 298.273 333.826C291.946 339.346 285.325 344.521 278.441 349.327C270.741 354.406 268.609 354.48 259.425 345.296C254.908 340.7 250.071 336.43 244.949 332.52C226.265 318.441 195.111 324.312 183.444 344.88C183.295 345.174 183.264 345.514 183.359 345.83C183.454 346.146 183.667 346.413 183.954 346.576C184.241 346.739 184.58 346.784 184.899 346.704C185.219 346.623 185.496 346.422 185.671 346.143C196.802 327.413 225.954 322.535 242.719 335.446C257.035 346.226 261.279 355.33 269.459 356.461C276.922 357.465 289.581 345.73 299.335 337.814C302.914 341.837 305.215 346.833 305.945 352.167C304.356 355.863 290.003 371.694 282.537 376.167C280.417 377.572 278.032 378.531 275.529 378.983C273.025 379.435 270.456 379.372 267.978 378.797C264.02 377.984 263.632 377.121 262.48 377.873C262.291 378.019 262.144 378.211 262.052 378.432C261.961 378.652 261.929 378.893 261.96 379.13C262.403 384.614 263.148 390.069 264.189 395.472C264.248 395.807 264.437 396.105 264.715 396.3C264.993 396.496 265.338 396.573 265.672 396.515C266.007 396.456 266.305 396.267 266.501 395.989C266.696 395.711 266.773 395.366 266.715 395.032C265.87 390.42 265.299 385.762 265.006 381.082C268.149 382.21 271.507 382.609 274.827 382.248C278.147 381.888 281.341 380.779 284.169 379.003C291.337 374.922 303.512 362.149 307.79 356.267C308.924 355.023 309.559 353.404 309.573 351.721C309.398 350.67 309.367 351.065 309.724 350.741C312.247 348.798 313.269 347.846 315.367 346.121C315.604 345.855 315.763 345.53 315.829 345.18C315.895 344.83 315.864 344.468 315.739 344.135C324.044 339.783 331.634 334.185 338.245 327.536C338.49 327.311 338.637 326.998 338.654 326.665C338.671 326.332 338.558 326.006 338.337 325.756ZM308.816 348.003C307.881 343.915 306.03 340.092 303.404 336.823L307.658 333.743C309.739 337.001 311.269 340.579 312.188 344.335L308.816 348.003Z" fill="#212941"/>
<path d="M293.983 425.191C294.291 418.754 295.055 412.471 291.876 406.96C286.8 398.13 270.396 398.503 260.306 399.738C257.432 400.095 254.507 400.582 251.571 401.044C250.099 391.209 246.335 366.046 244.262 356.926C242.026 347.051 233.51 343.1 224.058 344.267C176.388 350.159 192.485 347.347 188.924 347.692C166.84 351.567 181.892 417.411 187.883 439.168C188.111 440.333 188.597 441.433 189.304 442.386C190.011 443.34 190.922 444.124 191.97 444.681C194.954 446.098 198.261 446.694 201.552 446.409C201.552 446.409 213.721 445.149 229.127 443.542C229.198 446.501 229.685 450.9 230.073 453.847C230.131 454.311 230.362 454.736 230.72 455.036C231.079 455.336 231.537 455.489 232.004 455.464C233.234 455.389 234.457 455.239 235.669 455.018C237.311 477.147 236.987 485.818 238.949 497.863C226.294 498.874 216.268 499.453 210.29 504.088C205.491 507.741 204.999 511.893 204.164 516.029C202.446 516.162 200.839 516.929 199.656 518.182C198.473 519.435 197.798 521.083 197.764 522.805C197.764 524.766 198.542 526.646 199.929 528.032C201.315 529.419 203.195 530.197 205.156 530.197C207.116 530.197 208.996 529.419 210.383 528.032C211.769 526.646 212.548 524.766 212.548 522.805C212.491 521.217 211.9 519.694 210.87 518.483C209.841 517.272 208.433 516.443 206.874 516.131C207.074 514.286 207.653 512.501 208.575 510.89C209.497 509.279 210.741 507.876 212.23 506.768C217.774 502.933 227.818 502.524 238.614 501.664C238.395 505.576 238.732 509.499 239.615 513.316C238.389 513.609 237.265 514.226 236.361 515.104C235.456 515.981 234.805 517.086 234.475 518.302C234.146 519.519 234.15 520.801 234.487 522.015C234.825 523.229 235.483 524.33 236.393 525.202C237.786 526.581 239.668 527.355 241.629 527.355C243.59 527.355 245.472 526.581 246.865 525.202C247.821 524.269 248.491 523.083 248.796 521.782C249.102 520.482 249.03 519.122 248.59 517.861C248.15 516.6 247.359 515.491 246.31 514.663C245.262 513.836 243.999 513.325 242.67 513.19C242.698 509.898 242.535 506.607 242.183 503.334C242.106 502.739 241.949 501.47 241.943 501.418C248.302 500.85 254.703 500.96 261.039 501.744C267.378 502.745 272.762 505.012 275.352 510.984C273.706 511.202 272.192 512.004 271.087 513.244C269.982 514.483 269.359 516.078 269.331 517.739C269.331 518.709 269.522 519.671 269.893 520.568C270.265 521.464 270.809 522.279 271.496 522.966C272.182 523.652 272.997 524.197 273.894 524.568C274.791 524.94 275.752 525.131 276.723 525.131C277.693 525.131 278.655 524.94 279.551 524.568C280.448 524.197 281.263 523.652 281.949 522.966C282.636 522.279 283.18 521.464 283.552 520.568C283.923 519.671 284.115 518.709 284.115 517.739C284.058 516.131 283.453 514.591 282.402 513.374C281.351 512.156 279.915 511.334 278.333 511.043C274.172 496.906 256.401 496.591 241.521 497.657C240.816 485.069 241.189 468.138 238.383 454.457C239.707 454.174 241.041 453.884 242.421 453.684C242.893 453.596 243.314 453.334 243.603 452.951C243.892 452.567 244.026 452.089 243.979 451.611C243.502 448.574 243.431 446.039 242.747 442.103C243.055 442.069 293.641 436.707 292.027 436.867C293.459 436.889 294.851 436.396 295.951 435.479C297.051 434.563 297.786 433.282 298.022 431.869C298.259 430.457 297.982 429.007 297.24 427.782C296.499 426.556 295.344 425.637 293.983 425.191ZM233.492 451.556C233.082 448.836 232.746 447.773 231.918 443.24L240.067 442.387C240.126 444.543 239.963 446.671 240.027 448.824C240.027 449.32 240.101 449.819 240.101 450.314C237.93 450.73 235.564 451.266 233.492 451.556ZM255.403 427.304C254.873 423.608 253.555 414.368 251.959 403.662C262.031 402.941 283.745 400.523 288.756 408.824C291.359 413.182 291.22 419.933 291.396 424.972L255.403 427.304Z" fill="#212941"/>
<path d="M287.826 412.501C284.676 411.791 281.469 411.361 278.244 411.217C275.825 410.969 273.393 410.887 270.963 410.971C269.475 411.026 270.039 411.303 269.626 409.739C269.318 408.528 268.958 407.382 268.662 406.166C268.645 406 268.595 405.839 268.515 405.693C268.436 405.546 268.328 405.417 268.198 405.312C268.069 405.207 267.92 405.128 267.76 405.081C267.6 405.033 267.433 405.018 267.267 405.035C267.101 405.053 266.94 405.103 266.794 405.182C266.647 405.262 266.518 405.369 266.413 405.499C266.308 405.628 266.229 405.777 266.182 405.937C266.134 406.097 266.119 406.265 266.136 406.431C266.048 408.003 266.097 409.58 266.284 411.143C265.628 411.349 262.243 412.32 261.159 412.683C259.748 413.182 258.338 413.783 256.924 414.325C256.599 414.413 256.319 414.62 256.14 414.906C255.961 415.191 255.897 415.534 255.96 415.865C256.053 416.189 256.266 416.465 256.555 416.637C256.845 416.809 257.19 416.863 257.519 416.789C261.387 416.493 265.191 415.633 268.81 414.235C270.923 413.505 267.525 414.235 277.945 414.984C281.181 415.298 284.438 415.32 287.678 415.052C288.016 415.071 288.348 414.956 288.601 414.73C288.854 414.505 289.007 414.189 289.027 413.85C289.047 413.512 288.931 413.18 288.706 412.927C288.48 412.674 288.164 412.521 287.826 412.501Z" fill="#212941"/>
<path d="M300.156 417.559C315.349 425.551 302.462 441.995 293.173 456.564C291.396 459.336 288.793 464.963 286.785 467.572C286.577 467.838 286.482 468.176 286.523 468.512C286.564 468.848 286.736 469.154 287.002 469.363C287.269 469.571 287.607 469.666 287.943 469.625C288.279 469.584 288.585 469.412 288.793 469.146C291.257 466.241 293.564 462.166 296.145 458.48C300.903 452.032 305.056 445.159 308.552 437.948C312.796 428.138 311.071 419.675 301.271 415.307C299.835 414.568 298.76 416.819 300.156 417.559Z" fill="#212941"/>
<path d="M262.794 475.407C260.357 479.134 258.339 483.118 256.776 487.287C256.255 488.688 255.812 490.108 255.365 491.534C255.224 491.839 255.209 492.188 255.323 492.504C255.437 492.82 255.672 493.078 255.975 493.222C256.279 493.367 256.628 493.385 256.945 493.274C257.262 493.162 257.522 492.93 257.669 492.628C258.485 491.349 259.299 490.136 260.044 488.824C262.272 484.921 263.97 480.74 265.095 476.39C265.225 476.085 265.229 475.74 265.106 475.432C265.044 475.28 264.954 475.141 264.839 475.024C264.724 474.906 264.587 474.813 264.436 474.748C264.131 474.618 263.787 474.614 263.479 474.738C263.171 474.861 262.925 475.102 262.794 475.407Z" fill="#212941"/>
<path d="M260.938 445.725C261.356 447.706 262.702 454.91 264.652 461.874C265.69 465.588 274.751 495.732 275.571 498.689C275.652 499.021 275.86 499.307 276.151 499.486C276.442 499.665 276.792 499.722 277.124 499.644C277.457 499.567 277.746 499.361 277.928 499.072C278.109 498.783 278.17 498.434 278.096 498.101C275.272 484.663 276.686 489.132 263.389 445.146C263.308 444.826 263.104 444.55 262.822 444.378C262.539 444.207 262.2 444.153 261.878 444.229C261.557 444.305 261.277 444.504 261.101 444.784C260.925 445.064 260.867 445.402 260.938 445.725Z" fill="#212941"/>
<path d="M277.649 442.116C278.341 449.242 279.508 456.314 281.142 463.284C283.033 474.086 283.261 479.99 286.785 498.51C286.833 498.845 287.012 499.147 287.283 499.35C287.554 499.553 287.894 499.64 288.229 499.591C288.564 499.543 288.866 499.364 289.069 499.093C289.272 498.822 289.358 498.482 289.31 498.147C283.988 447.635 282.793 458.584 280.101 441.884C280.092 441.72 280.05 441.56 279.978 441.413C279.905 441.266 279.803 441.135 279.677 441.028C279.552 440.922 279.407 440.842 279.25 440.794C279.093 440.746 278.928 440.73 278.764 440.748C278.436 440.783 278.134 440.946 277.926 441.202C277.717 441.458 277.618 441.787 277.649 442.116Z" fill="#212941"/>
<path d="M314.566 496.681C312.903 493.471 308.502 495.141 305.505 495.658C302.681 496.139 299.638 496.542 296.739 497.263C289.369 499.04 288.525 501.415 285.599 503.315C282.965 505.025 281.672 503.799 281.065 505.292C280.163 506.943 282.648 508.083 285.152 511.887C285.952 513.035 286.507 514.335 286.785 515.706C286.926 516.018 287.184 516.263 287.503 516.389C287.822 516.515 288.177 516.512 288.494 516.381C294.962 513.864 309.087 509.897 313.599 502.828C314.246 501.959 314.672 500.945 314.841 499.874C315.009 498.803 314.915 497.707 314.566 496.681Z" fill="#212941"/>
<path d="M174.346 381.898C173.893 378.826 173.844 375.707 174.198 372.621C174.259 372.35 174.257 372.068 174.191 371.797C174.125 371.527 173.998 371.275 173.819 371.061C173.641 370.848 173.415 370.678 173.16 370.566C172.906 370.453 172.629 370.401 172.35 370.413C141.643 371.282 143.417 371.152 142.93 371.38L120.646 382.367C120.39 382.497 120.185 382.711 120.065 382.972C119.945 383.234 119.917 383.529 119.986 383.808C120.055 384.088 120.217 384.336 120.444 384.512C120.672 384.688 120.953 384.782 121.241 384.778L172.575 384.088C172.843 384.082 173.106 384.017 173.347 383.899C173.587 383.78 173.799 383.611 173.967 383.403C174.136 383.195 174.257 382.952 174.322 382.692C174.388 382.433 174.396 382.162 174.346 381.898Z" fill="#212941"/>
<path d="M417.729 373.69C417.464 367.921 412.431 365.95 406.745 366.44C405.332 366.458 301.363 368.596 301.363 368.596C301.166 368.59 300.971 368.629 300.792 368.711C300.613 368.793 300.455 368.914 300.331 369.067C295.99 373.654 291.189 377.783 286.003 381.387C285.777 381.545 285.608 381.773 285.521 382.035C285.435 382.298 285.437 382.581 285.526 382.843C285.615 383.105 285.786 383.33 286.015 383.486C286.243 383.642 286.516 383.719 286.792 383.706C286.792 383.706 300.778 383.629 319.175 383.466C323.813 388.93 332.265 400.372 340.149 409.338C340.122 411.802 340.916 495.865 341 501.021C340.998 501.186 341.03 501.351 341.092 501.504C341.155 501.658 341.246 501.798 341.363 501.916C341.479 502.034 341.618 502.128 341.771 502.193C341.923 502.257 342.087 502.291 342.253 502.293C342.419 502.294 342.583 502.262 342.737 502.2C342.891 502.138 343.031 502.046 343.149 501.929C343.267 501.813 343.361 501.674 343.425 501.521C343.49 501.369 343.524 501.205 343.525 501.039C343.55 495.575 343.424 386.977 343.525 383.229C344.594 383.214 371.997 382.841 382.392 382.671C388.188 389.807 394.546 396.466 401.405 402.587C401.532 402.729 401.691 402.839 401.87 402.907C402.048 402.975 402.24 402.999 402.43 402.978C402.43 406.566 404.152 495.686 404.041 498.963C403.884 500.623 406.588 500.783 406.57 499.083C407.857 480.101 405.47 396.735 405.763 382.268L406.748 382.25C412.452 382.166 417.836 379.437 417.729 373.69ZM340.217 404.586C335.239 396.948 329.477 389.851 323.025 383.411C328.732 383.358 334.778 383.297 340.904 383.226C340.414 390.559 340.3 399.611 340.217 404.586ZM402.433 399.812C397.545 393.699 392.235 387.936 386.544 382.564C393.726 382.444 399.52 382.342 403.031 382.277C402.763 386.441 402.556 392.537 402.439 399.812H402.433Z" fill="#212941"/>
<path d="M137.928 349.06C136.425 347.113 133.746 349.494 117.354 352.059C102.302 340.306 89.9634 322.183 68.4773 321.056C60.3357 321.045 52.3019 322.919 45.0047 326.529C40.4633 329.25 36.5214 332.864 33.4177 337.152C33.2471 337.42 33.183 337.742 33.2379 338.054C33.2929 338.367 33.4631 338.647 33.7148 338.841C33.9665 339.034 34.2815 339.126 34.5976 339.099C34.9138 339.071 35.2082 338.926 35.4228 338.692C38.4058 334.784 42.144 331.515 46.4153 329.08C49.8984 327.392 53.5989 326.197 57.4109 325.528C83.6248 319.627 96.7887 340.34 115.718 355.531C117.03 356.584 119.18 355.429 135.628 352.257C138.365 356.437 139.376 361.515 138.449 366.425C135.409 368.331 119.525 376.989 118.318 377.494C117.063 378.128 115.692 378.503 114.289 378.596C112.886 378.689 111.478 378.499 110.15 378.036C105.622 376.662 88.4296 366.024 84.5857 363.64C84.2998 363.453 83.9513 363.387 83.6169 363.457C83.2825 363.527 82.9895 363.727 82.8024 364.013C82.6154 364.299 82.5495 364.647 82.6194 364.982C82.6893 365.316 82.8892 365.609 83.1751 365.796C86.443 367.912 93.9767 372.72 94.5157 373.053C94.0965 375.622 94.0302 378.236 94.3185 380.824C94.4844 385.091 94.9558 389.341 95.7292 393.541C95.741 393.876 95.8854 394.192 96.1306 394.421C96.3758 394.649 96.7017 394.771 97.0366 394.759C97.3716 394.747 97.688 394.603 97.9165 394.358C98.1449 394.112 98.2666 393.786 98.2548 393.452C98.6074 387.245 98.3433 381.018 97.4663 374.864C105.835 379.961 111.246 384.051 119.642 380.688C120.702 380.266 133.444 373.681 141.033 369.153C141.244 369.037 141.427 368.876 141.568 368.681C141.71 368.486 141.807 368.263 141.852 368.026C142.63 364.77 142.681 361.384 142.003 358.106C141.325 354.828 139.934 351.739 137.928 349.06Z" fill="#212941"/>
<path d="M103.18 406.745C98.6954 412.591 92.1185 416.471 84.8322 417.568C84.5142 417.63 84.1846 417.567 83.9118 417.392C83.6391 417.217 83.4442 416.944 83.3677 416.629C83.2912 416.314 83.3389 415.982 83.5009 415.701C83.6629 415.421 83.9268 415.213 84.2378 415.122C90.8569 413.031 96.6667 408.943 100.87 403.418C101.116 403.036 101.492 402.755 101.928 402.625C102.364 402.496 102.832 402.527 103.248 402.713L116.023 408.032C116.181 408.086 116.327 408.17 116.453 408.28C116.578 408.39 116.681 408.523 116.754 408.673C116.828 408.823 116.872 408.985 116.883 409.152C116.894 409.318 116.872 409.485 116.818 409.643C116.764 409.801 116.68 409.947 116.57 410.072C116.46 410.198 116.327 410.3 116.177 410.374C116.028 410.448 115.865 410.491 115.699 410.502C115.532 410.513 115.365 410.491 115.207 410.438C111.129 409.444 107.113 408.21 103.18 406.745Z" fill="#212941"/>
<path d="M121.318 423.001C121.626 416.564 122.39 410.281 119.211 404.767C114.135 395.94 97.7345 396.31 87.6413 397.548C84.7708 397.905 81.8417 398.389 78.9064 398.854C77.4311 388.976 73.692 363.914 71.5976 354.733C69.3554 344.831 60.8176 340.913 51.3928 342.077C3.72673 347.969 19.8167 345.157 16.2593 345.502C-5.87055 349.386 9.30153 415.492 15.2182 436.978C15.4475 438.142 15.9333 439.241 16.6403 440.194C17.3472 441.147 18.2577 441.931 19.3054 442.488C22.2887 443.906 25.5962 444.504 28.8873 444.219C28.8873 444.219 41.0563 442.959 56.4656 441.349C56.5364 444.333 57.02 448.704 57.4111 451.654C57.4682 452.119 57.6992 452.544 58.0576 452.845C58.416 453.145 58.8751 453.299 59.3423 453.274C60.571 453.199 61.7939 453.049 63.0044 452.825C64.1625 468.416 64.3997 484.105 66.2846 495.674C53.6289 496.681 43.6035 497.263 37.6406 501.898C32.8389 505.551 32.3461 509.703 31.5114 513.839C29.791 513.973 28.1819 514.742 26.9984 515.998C25.8149 517.254 25.142 518.906 25.1112 520.631C25.1112 521.602 25.3024 522.563 25.6739 523.46C26.0453 524.356 26.5898 525.171 27.2762 525.858C27.9626 526.544 28.7775 527.089 29.6744 527.46C30.5712 527.832 31.5324 528.023 32.5032 528.023C33.4739 528.023 34.4351 527.832 35.332 527.46C36.2288 527.089 37.0437 526.544 37.7301 525.858C38.4165 525.171 38.961 524.356 39.3325 523.46C39.704 522.563 39.8952 521.602 39.8952 520.631C39.8357 519.043 39.2443 517.522 38.2159 516.311C37.1875 515.1 35.7819 514.269 34.2249 513.953C34.4207 512.108 34.9975 510.323 35.919 508.712C36.8404 507.1 38.0864 505.698 39.5779 504.593C45.1219 500.759 55.1658 500.346 65.9612 499.49C65.7423 503.4 66.0793 507.322 66.9622 511.138C65.7362 511.431 64.6117 512.048 63.7071 512.926C62.8024 513.803 62.1511 514.908 61.8217 516.125C61.4923 517.341 61.4969 518.624 61.8351 519.838C62.1734 521.053 62.8326 522.153 63.7436 523.024C65.1358 524.406 67.0179 525.182 68.9796 525.182C70.9413 525.182 72.8234 524.406 74.2156 523.024C75.1714 522.091 75.8414 520.905 76.147 519.605C76.4527 518.305 76.3813 516.945 75.9413 515.684C75.5013 514.423 74.7109 513.314 73.6628 512.487C72.6146 511.659 71.3523 511.148 70.0237 511.012C70.0166 507.079 69.7729 503.15 69.2938 499.246C71.1941 499.105 73.7813 498.92 75.6632 498.905C76.3223 502.601 77.2032 505.065 81.0471 504.843C85.1711 504.009 89.1493 502.571 92.8527 500.574C95.0112 501.11 97.0191 502.132 98.7237 503.56C100.428 504.989 101.785 506.787 102.69 508.819C101.385 509.001 100.158 509.547 99.1489 510.394C98.14 511.242 97.3906 512.357 96.9867 513.611C96.5828 514.865 96.5407 516.208 96.8653 517.485C97.1898 518.762 97.868 519.922 98.8217 520.831C100.215 522.211 102.097 522.985 104.058 522.985C106.019 522.985 107.9 522.211 109.294 520.831C110.219 519.933 110.88 518.797 111.202 517.548C111.525 516.299 111.497 514.985 111.122 513.751C110.748 512.517 110.04 511.41 109.077 510.551C108.115 509.693 106.934 509.116 105.665 508.884C105.003 506.565 103.842 504.419 102.263 502.596C100.684 500.773 98.7251 499.318 96.524 498.332C99.6595 496.219 103.396 493.647 103.106 490.81C102.699 486.843 95.714 486.76 91.2295 486.726C92.7385 471.551 93.2314 456.291 92.7048 441.05C92.7028 440.715 92.5678 440.395 92.3295 440.159C92.0913 439.924 91.7693 439.793 91.4343 439.795C91.0994 439.797 90.779 439.932 90.5437 440.17C90.3083 440.408 90.1772 440.73 90.1792 441.065C89.939 453.613 88.6978 472.906 87.5058 485.747C83.7574 485.978 80.4218 486.193 77.1816 486.517C75.7495 476.454 75.5985 472.737 73.7628 455.84C73.7628 454.226 71.0863 454.3 71.2373 456.056C72.0535 465.434 71.807 476.156 73.7628 488.814C73.7918 489.181 73.9376 489.528 74.1788 489.805C74.42 490.083 74.7438 490.275 75.1027 490.354C75.1027 491.953 75.1335 493.57 75.2351 495.181C73.769 495.196 71.4559 495.323 68.8533 495.51C68.2373 484.367 68.5299 466.038 65.7148 452.31C67.0392 452.027 68.3728 451.737 69.7527 451.537C70.2249 451.449 70.6471 451.188 70.9362 450.804C71.2252 450.421 71.3601 449.943 71.3142 449.464C70.843 446.489 70.7629 443.88 70.0823 439.956C74.462 439.498 119.449 434.699 119.449 434.699C120.998 434.561 122.472 433.966 123.684 432.989C124.412 432.262 124.942 431.361 125.223 430.371C125.504 429.381 125.528 428.336 125.29 427.335C125.053 426.333 124.564 425.409 123.868 424.651C123.173 423.892 122.295 423.324 121.318 423.001ZM116.082 406.634C118.682 410.98 118.546 417.707 118.725 422.782L82.7287 425.114C82.199 421.418 80.8807 412.178 79.2884 401.472C89.5047 400.742 111.092 398.355 116.091 406.634H116.082ZM67.3626 446.646C67.3626 447.145 67.4365 447.641 67.4365 448.14C65.2621 448.54 62.9028 449.064 60.8269 449.372C60.4172 446.649 60.0784 445.571 59.253 441.071L67.4027 440.218C67.4519 442.359 67.2979 444.493 67.3626 446.646Z" fill="#212941"/>
<path d="M143.054 350.938C147.674 347.159 149.559 340.574 154.419 338.994C154.585 338.965 154.743 338.903 154.885 338.813C155.026 338.723 155.149 338.606 155.245 338.468C155.342 338.331 155.41 338.175 155.446 338.012C155.483 337.848 155.486 337.678 155.457 337.513C155.428 337.347 155.367 337.189 155.277 337.047C155.186 336.906 155.069 336.783 154.932 336.687C154.794 336.59 154.639 336.522 154.475 336.486C154.311 336.449 154.141 336.445 153.976 336.475C146.103 336.887 143.248 346.74 141.197 349.223C140.99 349.472 140.886 349.792 140.907 350.115C140.928 350.439 141.073 350.742 141.311 350.962C141.549 351.182 141.863 351.302 142.187 351.298C142.512 351.293 142.822 351.165 143.054 350.938Z" fill="#212941"/>
<path d="M153.304 347.15C155.513 345.15 157.873 343.324 160.364 341.689C160.69 341.6 160.969 341.386 161.137 341.092C161.305 340.798 161.35 340.45 161.261 340.123C161.173 339.796 160.958 339.518 160.664 339.35C160.371 339.181 160.022 339.136 159.695 339.225C158.734 339.265 157.783 339.44 156.871 339.746C155.524 340.257 154.309 341.067 153.319 342.114C152.329 343.161 151.588 344.418 151.151 345.792C150.971 346.077 150.912 346.422 150.986 346.752C151.061 347.081 151.263 347.367 151.549 347.547C151.834 347.727 152.18 347.787 152.509 347.712C152.838 347.638 153.124 347.435 153.304 347.15Z" fill="#212941"/>
<path d="M165.264 341.535C156.575 347.815 156.113 352.826 151.447 358.195C150.216 359.812 148.611 361.104 146.768 361.962C146.464 362.091 146.222 362.332 146.091 362.636C145.96 362.939 145.952 363.281 146.067 363.591C146.182 363.9 146.412 364.154 146.709 364.298C147.006 364.443 147.347 364.468 147.661 364.367C156.837 361.857 159.104 351.123 166.899 343.472C167.139 343.251 167.284 342.945 167.304 342.619C167.325 342.293 167.218 341.972 167.007 341.722C166.797 341.472 166.498 341.314 166.173 341.279C165.848 341.244 165.523 341.336 165.264 341.535Z" fill="#212941"/>
<path d="M103.765 302.031C97.1216 304.039 87.6599 308.659 83.7699 314.376C82.7966 315.805 80.6621 314.425 81.5122 313.054C86.2708 305.394 95.6802 300.337 104.387 297.922C104.863 297.784 105.372 297.827 105.817 298.043C106.263 298.259 106.612 298.631 106.799 299.09C112.13 312.595 117.212 324.684 118.78 338.674C118.806 339.016 118.699 339.356 118.482 339.622C118.265 339.889 117.954 340.062 117.613 340.106C115.343 340.414 117.123 338.612 111.779 323.415C109.158 315.971 108.887 315.392 103.765 302.031Z" fill="#212941"/>
<path d="M119.947 308.634C118.639 310.099 117.208 311.449 115.669 312.669C114.711 314.055 112.494 312.512 113.569 311.212C114.777 308.892 116.324 306.764 118.158 304.898C118.479 304.524 118.926 304.283 119.415 304.22C119.904 304.156 120.398 304.276 120.804 304.557C123.021 305.977 125.037 307.692 126.794 309.654C128.223 310.803 126.431 312.672 125.159 311.665C123.991 311.018 122.827 310.461 121.66 309.771C121.115 309.408 120.569 309.023 119.947 308.634Z" fill="#212941"/>
<path d="M131.694 300.137C136.086 312.055 138.016 324.741 137.368 337.426C137.345 337.768 137.19 338.087 136.937 338.317C136.684 338.547 136.351 338.671 136.009 338.661C135.667 338.652 135.342 338.51 135.102 338.266C134.862 338.022 134.726 337.695 134.722 337.352C134.36 324.208 131.783 311.219 127.099 298.932C127.004 298.654 126.975 298.358 127.014 298.066C127.054 297.775 127.162 297.497 127.328 297.255C127.494 297.012 127.715 296.812 127.973 296.67C128.23 296.528 128.518 296.449 128.811 296.438C137.51 295.782 146.152 298.294 153.144 303.51C160.136 308.727 165.006 316.295 166.856 324.82C166.908 325.15 166.832 325.489 166.645 325.766C166.457 326.043 166.172 326.239 165.845 326.314C162.972 326.877 165.359 322.226 157.985 313.091C154.805 309.154 150.806 305.956 146.266 303.719C141.726 301.482 136.754 300.26 131.694 300.137Z" fill="#212941"/>
<path d="M146.244 318.032C143.345 314.011 140.72 309.799 138.387 305.425C138.231 305.127 138.196 304.78 138.29 304.457C138.384 304.134 138.6 303.86 138.892 303.693C139.184 303.526 139.53 303.479 139.856 303.561C140.182 303.643 140.464 303.849 140.642 304.135C145.2 310.458 144.486 308.801 150.991 318.189C151.149 318.446 151.245 318.738 151.272 319.039C151.299 319.341 151.255 319.644 151.145 319.926C150.606 321.253 149.297 320.948 145.468 322.227C146.411 322.984 147.692 324.438 151.379 327.555C152.78 328.738 151.591 329.923 148.813 335.449C148.028 337.011 145.61 335.923 146.321 334.411C146.962 333.05 147.664 331.054 148.268 329.381C145.518 327.373 142.918 325.168 140.488 322.784C140.274 322.559 140.12 322.284 140.038 321.985C139.956 321.685 139.949 321.37 140.019 321.068C140.088 320.765 140.231 320.484 140.434 320.25C140.638 320.016 140.897 319.836 141.187 319.726C142.823 319.023 144.515 318.457 146.244 318.032Z" fill="#212941"/>
<path d="M96.2965 309.355C95.1715 312.554 94.5926 315.919 94.584 319.31C94.584 320.459 94.7411 321.567 94.8181 322.719C94.8061 323.059 94.9245 323.39 95.1491 323.646C95.3738 323.901 95.6875 324.06 96.0259 324.091C96.3644 324.122 96.702 324.023 96.9693 323.813C97.2367 323.603 97.4136 323.299 97.4638 322.963C97.8233 321.892 98.1083 320.798 98.317 319.689C99.0367 316.382 99.2444 312.984 98.9329 309.614C99.1301 307.954 96.4782 307.717 96.2965 309.355Z" fill="#212941"/>
<path d="M193.292 475.404C191.019 472.666 180.294 471.896 176.74 471.724C178.147 438.398 178.505 403.751 147.511 388.924C147.212 388.802 146.877 388.801 146.577 388.92C146.278 389.039 146.035 389.269 145.901 389.562C145.767 389.856 145.752 390.19 145.858 390.495C145.965 390.799 146.185 391.051 146.473 391.197C174.719 404.355 174.596 439.966 172.988 470.723C166.859 471.243 166.52 471.825 161.521 471.911C160.234 453.373 156.815 437.683 144.782 423.669C144.166 414.121 140.919 404.376 132.804 399.451C131.572 398.478 130.004 400.446 131.319 401.478C132.851 402.816 134.177 404.373 135.255 406.098C138.422 411.196 140.463 416.912 141.243 422.862C140.934 423.248 140.785 423.738 140.827 424.23C142.918 441.225 147.187 458.655 146.694 474.653C145.512 474.77 145.496 474.711 145.333 474.77C143.244 474.399 141.116 474.309 139.004 474.502C137.848 474.549 136.733 474.94 135.8 475.624C134.868 476.308 134.16 477.255 133.768 478.342C136.657 450.93 138.255 446.39 138.08 436.926C138.335 429.99 136.096 423.193 131.769 417.768C130.009 415.932 128.122 414.221 126.123 412.649C125.866 412.435 125.535 412.331 125.201 412.359C124.868 412.387 124.558 412.544 124.34 412.797C122.985 414.402 125.861 415.092 129.687 419.594C138.776 430.501 133.075 450.906 131.1 468.16C130.281 475.296 129.539 482.451 128.723 489.581C124.591 490.836 120.329 491.613 116.021 491.898C114.946 483.917 116.036 479.223 113.942 461.073C112.975 453.638 111.786 446.24 111.043 438.783C110.999 438.447 110.829 438.139 110.567 437.924C110.305 437.708 109.971 437.6 109.633 437.622C107.477 437.84 108.65 439.596 111.043 464.624C112.891 491.038 110.209 496.077 115.574 495.677C115.574 501.492 117.037 508.505 122.261 511.055C127.614 513.698 135.813 510.852 141.871 509.072C145.659 507.92 149.299 506.327 152.716 504.325C154.367 503.235 156.054 501.781 155.017 499.952C152.038 495.008 139.253 494.509 131.692 492.492C132.459 491.522 132.265 492.298 133.022 485.408C133.241 486.281 133.706 487.074 134.36 487.692C135.015 488.309 135.834 488.727 136.718 488.895C142.774 490.059 162.144 489.886 165.27 484.604C169.274 485.87 174.932 484.814 179.98 484.256C183.586 483.96 187.118 483.061 190.427 481.598C192.848 480.246 194.906 477.637 193.292 475.404ZM145.21 430.156C154.601 443.286 157.022 458.492 157.912 474.628C158.266 477.197 161.996 475.58 149.491 474.97C150.187 459.829 147.203 445.026 145.21 430.156Z" fill="#212941"/>
</svg>
