<svg width="616" height="616" viewBox="0 0 616 616" fill="none" xmlns="http://www.w3.org/2000/svg">
<path d="M480.067 50.3703C475.714 47.9144 470.774 46.689 465.778 46.8255C460.781 46.9619 455.916 48.4552 451.703 51.1451C447.49 53.8351 444.089 57.6205 441.863 62.0958C439.636 66.5711 438.67 71.5677 439.066 76.5503C439.608 87.0008 442.864 100.353 437.187 112.278C436.772 113.15 438.013 113.901 438.496 113.042C446.239 99.2992 440.52 81.9342 441.268 72.2814C441.593 68.3103 442.848 64.4715 444.933 61.0758C447.017 57.6801 449.872 54.823 453.266 52.7358C456.659 50.6487 460.497 49.3901 464.468 49.0621C468.439 48.7341 472.431 49.3458 476.122 50.8477C481.114 52.8871 485.241 56.5994 487.796 61.3483C490.351 66.0973 491.175 71.5871 490.126 76.8768C489.139 83.1193 485.739 88.7241 480.658 92.4832C474.634 97.288 468.483 99.0928 462.6 101.843C455.369 105.231 448.854 110.507 448.328 118.518C448.328 118.789 448.435 119.048 448.626 119.239C448.817 119.43 449.077 119.538 449.347 119.538C449.618 119.538 449.877 119.43 450.068 119.239C450.259 119.048 450.367 118.789 450.367 118.518C450.752 112.71 455.744 107.988 460.839 105.179C468.847 100.762 486.711 96.8414 491.534 80.5759C493.318 74.9862 493.155 68.9571 491.073 63.4717C488.99 57.9863 485.111 53.3681 480.067 50.3703Z" fill="#FF9500"/>
<path d="M456.514 42.6519C456.954 43.2679 458.156 42.9167 457.838 42.0913C456.962 40.0168 455.974 37.9913 454.878 36.0237C447.018 20.7438 447.357 20.134 445.435 18.4369C445.361 18.3668 445.268 18.3196 445.167 18.3011C445.067 18.2826 444.963 18.2936 444.869 18.3326C444.775 18.3717 444.693 18.4372 444.635 18.5213C444.577 18.6053 444.545 18.7044 444.542 18.8065C444.921 21.02 445.743 23.1342 446.96 25.0219C447.995 27.0671 454.684 40.0893 456.514 42.6519Z" fill="#FF9500"/>
<path d="M476.429 21.7972C476.537 23.7961 477.128 37.9425 477.23 40.0185C477.242 40.1963 477.321 40.3629 477.451 40.4847C477.581 40.6065 477.752 40.6742 477.931 40.6742C478.109 40.6742 478.28 40.6065 478.41 40.4847C478.541 40.3629 478.619 40.1963 478.631 40.0185C478.947 35.9526 479.017 31.8713 478.841 27.797C478.767 24.6462 478.533 20.097 478.431 18.8003C478.447 17.7258 478.198 16.664 477.707 15.708C477.65 15.6163 477.571 15.5407 477.477 15.4882C477.382 15.4358 477.276 15.4083 477.168 15.4083C477.06 15.4083 476.954 15.4358 476.86 15.4882C476.766 15.5407 476.686 15.6163 476.629 15.708C476.117 17.6985 476.048 19.7774 476.429 21.7972Z" fill="#FF9500"/>
<path d="M510.047 38.5585C511.971 37.5192 513.656 36.0905 514.997 34.3636C515.047 34.2692 515.07 34.1623 515.061 34.0556C515.053 33.9488 515.014 33.8468 514.949 33.7617C514.884 33.6766 514.796 33.612 514.695 33.5756C514.594 33.5392 514.485 33.5327 514.381 33.5566C510.95 34.0617 502.517 42.4886 493.745 46.3294C492.987 46.662 493.529 47.8694 494.305 47.6507C499.612 46.0922 503.887 42.812 510.047 38.5585Z" fill="#FF9500"/>
<path d="M524.33 70.532C523.169 69.7713 522.74 69.8514 505.757 68.5824C503.66 68.4284 501.562 68.3976 499.459 68.3945C498.67 68.3945 498.439 69.6851 499.265 69.8206C503.269 70.4366 504.744 70.6707 521.228 71.9365C522.019 71.9953 522.813 71.987 523.603 71.9119C523.852 71.8449 524.093 71.7498 524.32 71.6285C524.416 71.5729 524.496 71.4933 524.551 71.3977C524.607 71.302 524.636 71.1935 524.637 71.0829C524.638 70.9723 524.61 70.8634 524.556 70.7668C524.502 70.6702 524.424 70.5893 524.33 70.532Z" fill="#FF9500"/>
<path d="M185.07 195.109C185.308 195.435 185.622 195.697 185.986 195.871C186.35 196.046 186.752 196.126 187.155 196.106C187.558 196.086 187.95 195.965 188.294 195.756C188.639 195.546 188.926 195.254 189.13 194.905C189.455 194.327 189.545 193.645 189.381 193.002C189.216 192.359 188.809 191.804 188.246 191.453C187.75 191.163 187.169 191.056 186.602 191.149C186.035 191.243 185.519 191.531 185.143 191.965C184.766 192.398 184.553 192.95 184.54 193.524C184.526 194.098 184.714 194.658 185.07 195.109Z" fill="#212941"/>
<path d="M193.279 205.605C194.068 205.962 194.921 206.156 195.786 206.175C196.554 206.28 197.335 206.259 198.096 206.114C198.888 205.931 199.607 205.514 200.158 204.917C200.71 204.321 201.07 203.572 201.192 202.769C201.268 201.768 201.068 200.765 200.613 199.87C199.778 197.695 198.747 195.6 197.533 193.612C196.568 192.007 195.598 190.393 194.511 188.869C194.411 188.704 194.251 188.585 194.065 188.538C193.878 188.49 193.68 188.518 193.514 188.615C193.348 188.712 193.227 188.871 193.176 189.056C193.126 189.242 193.151 189.44 193.245 189.608C194.665 192.725 196.67 195.522 197.951 198.715C198.7 200.597 199.858 202.43 198.336 203.533C197.052 204.457 195.075 203.305 193.855 203.446C193.606 203.457 193.366 203.547 193.172 203.703C192.977 203.859 192.837 204.073 192.773 204.314C192.709 204.555 192.723 204.81 192.814 205.043C192.905 205.275 193.068 205.472 193.279 205.605Z" fill="#212941"/>
<path d="M190.904 218.329C191.254 218.814 191.704 219.219 192.223 219.518C192.742 219.816 193.318 220 193.914 220.058C194.51 220.117 195.111 220.047 195.678 219.855C196.245 219.663 196.765 219.353 197.203 218.945C197.753 218.415 198.19 217.778 198.487 217.074C198.784 216.37 198.935 215.613 198.93 214.848C198.884 214.689 198.797 214.545 198.678 214.429C198.559 214.313 198.412 214.23 198.252 214.187C198.091 214.145 197.923 214.145 197.762 214.187C197.601 214.228 197.454 214.311 197.335 214.427C196.494 215.227 196.343 217.916 194.387 217.916C191.809 217.916 191.076 213.851 191.283 211.285C191.36 210.361 189.98 210.247 189.724 211.072C189.339 212.29 189.244 213.581 189.449 214.841C189.654 216.102 190.152 217.296 190.904 218.329Z" fill="#212941"/>
<path d="M180.505 189.993C180.587 188.936 180.787 187.891 181.103 186.879C182.052 184.107 184.651 184.942 185.624 183.864C185.763 183.737 185.875 183.584 185.954 183.413C186.033 183.242 186.077 183.057 186.083 182.869C186.089 182.681 186.058 182.494 185.991 182.318C185.924 182.143 185.822 181.982 185.692 181.846C184.857 181.042 183.585 181.52 182.612 181.822C181.37 182.19 180.273 182.936 179.474 183.956C178.675 184.976 178.213 186.219 178.152 187.513C178.08 188.444 178.211 189.38 178.537 190.255C178.604 190.485 178.752 190.684 178.953 190.816C179.154 190.947 179.396 191.002 179.634 190.97C179.872 190.938 180.091 190.822 180.251 190.643C180.411 190.464 180.501 190.233 180.505 189.993Z" fill="#212941"/>
<path d="M201.204 230.674C209.889 230.824 218.217 234.153 224.612 240.031C233.769 248.214 238.327 259.743 241.096 271.585C242.134 276.054 242.076 276.612 242.328 277.545C242.519 278.247 242.812 278.934 243.037 279.621C243.047 279.702 243.074 279.78 243.115 279.85C243.156 279.921 243.21 279.983 243.275 280.033C243.34 280.082 243.413 280.119 243.492 280.14C243.571 280.161 243.653 280.166 243.734 280.155C243.815 280.145 243.893 280.118 243.964 280.077C244.034 280.036 244.096 279.982 244.146 279.917C244.196 279.852 244.232 279.778 244.253 279.7C244.274 279.621 244.279 279.539 244.269 279.458C244.412 278.199 244.35 276.926 244.084 275.688C241.173 257.14 233.362 239.261 216.148 231.588C211.503 229.362 206.328 228.479 201.207 229.038C200.999 229.05 200.803 229.142 200.66 229.293C200.517 229.445 200.437 229.646 200.437 229.854C200.436 230.063 200.515 230.264 200.658 230.416C200.801 230.568 200.996 230.66 201.204 230.674Z" fill="#212941"/>
<path d="M189.469 466.882C189.468 466.655 189.412 466.432 189.306 466.232C189.199 466.032 189.045 465.861 188.858 465.734C188.67 465.607 188.454 465.528 188.229 465.504C188.003 465.479 187.776 465.51 187.565 465.594C187.459 465.513 187.338 465.455 187.209 465.422C187.08 465.39 186.946 465.384 186.815 465.405C186.683 465.426 186.557 465.473 186.445 465.545C186.332 465.616 186.236 465.709 186.161 465.819C183.038 470.904 177.463 483.095 175.116 488.429C163.2 515.455 153.342 543.342 145.625 571.851C144.531 575.898 143.349 579.955 142.526 584.063C142.323 585.095 142.292 586.17 142.188 587.224C142.192 587.454 142.279 587.676 142.433 587.848C142.586 588.02 142.796 588.132 143.025 588.163C143.254 588.194 143.486 588.142 143.68 588.016C143.874 587.891 144.016 587.701 144.082 587.479C144.945 585.578 145.595 583.588 146.019 581.544C153.729 551.085 163.876 521.296 176.363 492.464C179.708 484.764 186.835 469.004 186.918 468.794C188.629 482.745 190.489 496.669 192.499 510.569C193.34 516.371 201.567 569.942 203.843 578.19C204.102 579.114 205.691 578.981 205.592 577.956C204.819 569.162 197.119 532.353 189.469 466.882Z" fill="#212941"/>
<path d="M475.185 71.5576C471.797 69.8883 467.959 73.6397 465.593 76.5626C463.553 76.0185 461.66 75.0274 460.049 73.6613C460.428 71.3724 460.064 69.0223 459.008 66.9561C457.354 64.3258 454.696 64.2734 453.6 65.8442C452.122 67.9263 454.776 70.3626 456.036 71.804C456.797 72.688 457.608 73.5272 458.466 74.3173C457.732 81.2898 455.466 88.0137 451.829 94.0078C444.745 108.049 444.508 108.832 442.53 112.365C439.758 111.69 441.092 111.924 438.366 111.148C434.276 109.978 431.827 112.408 432.579 115.047C432.041 115.205 431.544 115.478 431.122 115.847C430.7 116.216 430.362 116.672 430.133 117.184C429.904 117.696 429.789 118.251 429.796 118.812C429.802 119.372 429.93 119.925 430.17 120.431C429.621 120.74 429.174 121.201 428.883 121.76C428.591 122.318 428.468 122.949 428.529 123.576C428.763 126.04 430.891 127.423 432.918 128.418C435.078 129.451 437.352 130.227 439.694 130.728C442.035 131.467 444.518 131.646 446.941 131.248C447.384 131.147 447.796 130.938 448.139 130.638C448.481 130.339 448.744 129.96 448.904 129.534C449.063 129.108 449.115 128.649 449.053 128.198C448.992 127.747 448.82 127.319 448.552 126.951C449.031 126.801 449.472 126.55 449.847 126.217C450.222 125.883 450.522 125.474 450.728 125.016C450.934 124.558 451.04 124.062 451.04 123.56C451.041 123.058 450.935 122.562 450.729 122.104C451.373 121.743 451.897 121.202 452.237 120.547C452.577 119.893 452.719 119.153 452.644 118.419C452.569 117.685 452.282 116.989 451.817 116.416C451.352 115.843 450.73 115.419 450.027 115.195C449.093 114.705 448.134 114.264 447.153 113.874C448.663 110.661 450.129 107.43 451.7 104.246C455.957 95.2631 460.854 86.5983 466.354 78.3182C475.551 80.0122 478.804 73.3502 475.185 71.5576ZM455.242 68.4284C454.801 67.7723 454.318 66.6296 455.436 66.3617C456.36 66.143 457.2 66.9777 457.656 67.6614C458.451 69.0801 458.788 70.71 458.62 72.3276C457.413 71.1004 456.285 69.798 455.242 68.4284ZM445.718 113.307C445.119 113.102 444.513 112.908 443.901 112.725C445.623 109.808 446.882 107.125 448.724 103.485C454.983 91.0941 458.7 85.4916 459.889 75.4569C461.298 76.5268 462.887 77.3363 464.58 77.847C459.473 84.2411 449.294 105.428 445.718 113.307ZM474.224 75.4415C473.265 76.148 472.17 76.6462 471.008 76.904C469.846 77.1618 468.642 77.1735 467.475 76.9384C473.192 70.2918 476.808 72.9467 474.224 75.4415Z" fill="#FF9500"/>
<path d="M410.369 96.5272C408.262 95.4057 405.818 95.0895 403.494 95.6376C401.171 96.1856 399.126 97.5605 397.741 99.5056C396.415 100.984 395.527 102.803 395.174 104.757C394.822 106.712 395.019 108.726 395.745 110.575C396.471 112.424 397.696 114.035 399.285 115.227C400.873 116.42 402.761 117.148 404.739 117.33C407.276 117.535 409.801 116.809 411.841 115.288C413.882 113.767 415.299 111.555 415.827 109.066C416.368 106.667 416.131 104.158 415.149 101.904C414.168 99.6492 412.494 97.7659 410.369 96.5272Z" fill="#3A5AB7"/>
<path d="M410.092 180.642C407.984 179.52 405.541 179.204 403.217 179.752C400.893 180.3 398.848 181.675 397.464 183.62C396.138 185.099 395.249 186.917 394.897 188.872C394.544 190.827 394.742 192.841 395.468 194.69C396.194 196.539 397.419 198.149 399.007 199.342C400.595 200.535 402.484 201.263 404.462 201.444C406.999 201.649 409.523 200.924 411.564 199.403C413.605 197.882 415.021 195.67 415.55 193.181C416.091 190.782 415.854 188.273 414.873 186.018C413.891 183.763 412.217 181.88 410.092 180.642Z" fill="#3A5AB7"/>
<path d="M403.905 376.515C406.441 376.72 408.966 375.994 411.007 374.473C413.047 372.952 414.464 370.741 414.993 368.251C415.531 365.849 415.29 363.338 414.304 361.083C413.318 358.828 411.639 356.945 409.51 355.709C407.402 354.589 404.958 354.273 402.635 354.822C400.311 355.37 398.267 356.746 396.882 358.691C395.555 360.171 394.667 361.991 394.315 363.948C393.964 365.905 394.164 367.92 394.892 369.77C395.621 371.62 396.85 373.23 398.441 374.421C400.033 375.612 401.925 376.337 403.905 376.515Z" fill="#3A5AB7"/>
<path d="M409.677 446.076C407.569 444.955 405.125 444.639 402.801 445.188C400.477 445.737 398.433 447.112 397.049 449.058C395.724 450.537 394.836 452.355 394.484 454.309C394.132 456.264 394.33 458.277 395.056 460.126C395.782 461.974 397.006 463.585 398.594 464.778C400.181 465.971 402.069 466.699 404.046 466.882C406.583 467.087 409.108 466.361 411.148 464.84C413.189 463.32 414.606 461.108 415.134 458.618C415.676 456.219 415.439 453.71 414.458 451.454C413.476 449.199 411.801 447.315 409.677 446.076Z" fill="#3A5AB7"/>
<path d="M409.6 531.014C407.491 529.893 405.048 529.578 402.724 530.126C400.401 530.675 398.356 532.05 396.972 533.995C395.647 535.474 394.759 537.292 394.407 539.247C394.055 541.201 394.253 543.215 394.979 545.063C395.704 546.911 396.929 548.522 398.517 549.715C400.104 550.908 401.992 551.636 403.969 551.819C406.506 552.024 409.031 551.298 411.071 549.778C413.112 548.257 414.529 546.045 415.057 543.555C415.6 541.156 415.363 538.647 414.381 536.391C413.4 534.136 411.725 532.252 409.6 531.014Z" fill="#3A5AB7"/>
<path d="M404.035 119.812C403.536 123.218 403.579 135.157 403.563 138.449C403.382 174.433 403.514 173.105 403.751 174.082L403.779 174.159C403.822 174.396 403.946 174.611 404.129 174.768C404.313 174.925 404.545 175.013 404.786 175.019C405.027 175.024 405.263 174.946 405.453 174.798C405.643 174.649 405.776 174.44 405.83 174.205C405.999 173.543 406.067 172.86 406.033 172.178C406.052 170.82 405.91 120.126 405.916 120.061C405.984 118.99 404.195 118.719 404.035 119.812Z" fill="#3A5AB7"/>
<path d="M404.035 206.502C403.536 209.911 403.579 221.849 403.563 225.142C403.382 261.125 403.514 259.798 403.751 260.771L403.779 260.848C403.822 261.086 403.946 261.301 404.129 261.458C404.313 261.614 404.545 261.703 404.786 261.708C405.027 261.714 405.263 261.636 405.453 261.487C405.643 261.339 405.776 261.13 405.83 260.894C405.999 260.233 406.067 259.55 406.033 258.868C406.052 257.51 405.91 206.816 405.916 206.754C405.984 205.692 404.195 205.421 404.035 206.502Z" fill="#3A5AB7"/>
<path d="M403.747 346.713L403.772 346.79C403.815 347.027 403.939 347.242 404.122 347.399C404.306 347.556 404.538 347.644 404.779 347.649C405.02 347.655 405.256 347.577 405.446 347.429C405.636 347.28 405.77 347.071 405.823 346.836C405.994 346.175 406.063 345.493 406.03 344.812C406.03 343.451 405.906 292.76 405.91 292.696C405.971 291.633 404.179 291.356 404.025 292.44C403.51 295.951 403.171 344.375 403.747 346.713Z" fill="#3A5AB7"/>
<path d="M406.085 390.852C406.008 386.574 405.901 384.076 405.922 383.768C405.984 382.708 404.188 382.431 404.034 383.512C403.31 388.459 403.517 434.801 403.52 435.118C403.496 436.012 403.573 436.905 403.751 437.782L403.778 437.859C403.822 438.096 403.945 438.312 404.129 438.468C404.312 438.625 404.544 438.713 404.785 438.719C405.026 438.724 405.262 438.646 405.452 438.498C405.643 438.35 405.776 438.14 405.83 437.905C405.998 437.245 406.067 436.562 406.033 435.882C406.052 434.511 406.165 395.244 406.085 390.852Z" fill="#3A5AB7"/>
<path d="M404.035 470.652C403.536 474.061 403.579 486.006 403.563 489.289C403.382 525.272 403.514 523.945 403.751 524.921L403.779 524.998C403.822 525.236 403.946 525.451 404.129 525.608C404.313 525.764 404.545 525.853 404.786 525.858C405.027 525.864 405.263 525.786 405.453 525.637C405.643 525.489 405.776 525.28 405.83 525.045C405.999 524.383 406.067 523.7 406.033 523.018C406.052 521.66 405.91 470.966 405.916 470.901C405.984 469.842 404.195 469.568 404.035 470.652Z" fill="#3A5AB7"/>
<path d="M338.941 400.138C334.757 395.487 329.606 391.808 323.849 389.358C320.283 387.966 316.032 387.131 313.069 389.568C310.208 391.927 309.33 396.621 308.841 399.963C308.126 404.272 308.238 408.677 309.17 412.945C309.407 414.131 309.632 416.188 311.018 416.561C311.202 416.611 311.395 416.612 311.579 416.563C311.763 416.514 311.931 416.418 312.065 416.284C318.86 409.384 329.424 405.436 338.643 402.205C338.81 402.155 338.952 402.042 339.038 401.89C339.124 401.738 339.148 401.558 339.105 401.389C339.224 401.193 339.273 400.962 339.244 400.735C339.214 400.507 339.107 400.297 338.941 400.138Z" fill="#3A5AB7"/>
<path d="M340.364 438.463C342.399 437.469 344.016 435.787 344.927 433.713C345.837 431.64 345.983 429.311 345.338 427.141C344.713 424.942 343.388 423.007 341.564 421.63C339.739 420.252 337.516 419.508 335.23 419.508C333.093 419.587 331.056 420.429 329.487 421.882C327.919 423.335 326.924 425.303 326.683 427.427C326.264 429.215 326.359 431.085 326.955 432.821C327.552 434.558 328.627 436.091 330.056 437.243C331.485 438.396 333.211 439.122 335.034 439.338C336.858 439.554 338.705 439.25 340.364 438.463Z" fill="#212941"/>
<path d="M377.383 451.263C377.435 449.613 377.276 447.963 376.911 446.354C376.301 444.9 375.182 443.719 373.764 443.03C369.378 440.033 364.741 437.421 359.904 435.226C359.052 429.084 356.978 423.175 353.805 417.848C350.338 411.793 345.773 406.438 340.343 402.057C339.668 401.543 338.886 402.63 339.452 403.206C341.688 405.445 343.962 407.666 346.019 410.077C352.495 417.377 356.632 426.452 357.895 436.128C358.298 439.721 358.242 443.351 357.729 446.93C351.287 448.721 345.271 451.791 340.041 455.957C339.479 456.386 338.954 456.861 338.47 457.377C338.008 457.112 337.521 456.896 337.035 456.644C329.272 452.584 322.892 446.31 318.702 438.617C315.326 432.166 313.031 425.205 311.908 418.011C311.858 417.844 311.749 417.7 311.602 417.605C311.455 417.51 311.279 417.471 311.106 417.495C310.933 417.519 310.773 417.604 310.657 417.735C310.541 417.866 310.476 418.034 310.473 418.209C311.68 431.291 317.621 443.483 327.182 452.495C326.729 454.225 326.458 455.997 326.372 457.783C326.082 461.233 325.956 464.612 325.947 468.086C325.727 469.685 325.961 471.313 326.621 472.786C327.619 474.045 328.838 475.112 330.219 475.934C333.523 478.302 351.24 489.486 353.319 490.743C353.523 490.854 353.759 490.896 353.99 490.863C354.22 490.829 354.434 490.722 354.599 490.557C354.764 490.392 354.871 490.178 354.905 489.948C354.938 489.717 354.896 489.481 354.785 489.277C348.729 479.685 343.558 469.562 339.335 459.034C339.548 458.726 338.812 459.45 341.131 457.722C346.268 453.751 352.116 450.799 358.361 449.024C360.784 452.455 363.119 455.963 365.241 459.595C368.977 465.982 373.175 474.292 375.048 478.423C375.516 479.454 377.01 478.854 377.044 477.884C377.299 471.114 377.453 453.718 377.383 451.263ZM350.651 486.434C342.431 481.093 333.403 475.718 329.288 472.457C327.828 471.289 328.056 470.898 328.056 468.958C327.986 461.72 328.672 455.369 328.672 453.752C331.303 455.887 334.187 457.689 337.259 459.117C340.991 468.564 345.47 477.698 350.651 486.434ZM359.71 447.518C360.324 444.148 360.465 440.71 360.128 437.302C362.229 438.604 365.158 439.926 371.29 443.914C373.754 445.5 374.454 445.944 374.728 446.585C375.516 448.457 375.014 464.563 374.916 473.411C370.5 464.415 365.417 455.762 359.71 447.524V447.518Z" fill="#212941"/>
<path d="M374.651 489.72L374.913 489.831C375.1 489.932 375.313 489.976 375.525 489.959C375.738 489.941 375.94 489.863 376.108 489.732C376.277 489.602 376.404 489.425 376.473 489.224C376.543 489.023 376.553 488.806 376.502 488.599C374.915 483.131 372.342 477.998 368.91 473.455C369.102 473.33 369.25 473.147 369.333 472.933C369.415 472.719 369.428 472.484 369.369 472.263C368.078 469.089 366.168 466.203 363.751 463.774C359.736 459.985 355.138 456.865 350.134 454.534C349.976 454.446 349.8 454.394 349.619 454.383C349.438 454.372 349.257 454.402 349.089 454.47C348.921 454.538 348.77 454.644 348.649 454.778C348.527 454.912 348.437 455.072 348.385 455.246C346.852 459.586 346.443 464.244 347.197 468.785C347.951 473.325 349.843 477.601 352.697 481.213C352.862 481.386 353.074 481.507 353.307 481.561C353.54 481.615 353.784 481.6 354.009 481.518C354.233 481.436 354.429 481.291 354.573 481.099C354.716 480.908 354.8 480.679 354.816 480.44C355.148 479.858 355.481 479.276 355.82 478.694C357.789 484.149 360.666 489.232 364.33 493.727C364.48 493.869 364.667 493.964 364.87 494.002C365.073 494.039 365.282 494.017 365.473 493.938C365.663 493.859 365.826 493.726 365.943 493.555C366.059 493.385 366.124 493.185 366.129 492.979C366.156 492.631 366.181 492.286 366.203 491.938C369.155 495.35 372.111 498.761 375.07 502.169C375.223 502.317 375.415 502.417 375.624 502.457C375.832 502.496 376.048 502.474 376.244 502.393C376.441 502.312 376.609 502.175 376.729 502C376.848 501.824 376.914 501.618 376.918 501.406C376.909 497.402 376.14 493.436 374.651 489.72ZM360.483 478.49L360.36 480.431C358.253 477.829 356.605 474.886 355.487 471.73L354.237 473.947C352.097 471.069 351.047 467.526 351.271 463.947C351.508 464.707 351.089 463.595 352.035 460.679C356.372 462.29 359.941 465.48 362.026 469.611C361.747 469.484 361.45 469.404 361.145 469.374C363.256 472.005 364.854 475.01 365.855 478.232L364.293 477.563C365.467 479.812 366.082 482.311 366.086 484.847C364.217 482.739 362.352 480.624 360.489 478.503L360.483 478.49Z" fill="#FF9500"/>
<path d="M452.34 229.9C452.069 229.633 451.702 229.483 451.321 229.483C450.94 229.483 450.573 229.633 450.302 229.9C436.529 246.021 421.637 261.15 405.737 275.176C395.653 268.585 385.954 261.424 376.686 253.727C376.503 253.562 376.272 253.46 376.026 253.436C375.78 253.412 375.534 253.468 375.322 253.595C375.117 253.649 374.93 253.755 374.779 253.903C374.627 254.051 374.516 254.235 374.456 254.438C374.397 254.641 374.39 254.856 374.438 255.062C374.485 255.268 374.585 255.459 374.728 255.615C384.169 265.519 394.199 274.843 404.764 283.539C405.032 283.796 405.389 283.94 405.76 283.94C406.132 283.94 406.489 283.796 406.756 283.539C417.61 271.862 433.722 254.143 452.34 231.924C452.596 231.649 452.739 231.288 452.739 230.912C452.739 230.537 452.596 230.175 452.34 229.9Z" fill="#212941"/>
<path d="M497.614 342.616C497.574 342.126 497.02 341.6 496.536 341.011C493.397 337.174 478.45 320.4 476.824 318.802C476.833 318.728 476.827 318.653 476.804 318.582C476.782 318.511 476.745 318.445 476.695 318.39C476.646 318.334 476.585 318.29 476.517 318.26C476.449 318.23 476.375 318.215 476.3 318.216H476.177C476.103 318.149 476.009 318.106 475.909 318.095C475.809 318.083 475.708 318.103 475.62 318.152C474.351 317.969 473.07 317.872 471.788 317.862C469.106 317.724 436.174 317.841 435.392 317.862C435.317 317.749 435.211 317.661 435.086 317.61C434.961 317.558 434.823 317.545 434.69 317.572C434.558 317.599 434.437 317.665 434.342 317.762C434.247 317.859 434.184 317.982 434.16 318.115C433.544 318.697 434.551 399.168 434.597 399.633C434.54 399.727 434.508 399.834 434.504 399.943C434.499 400.053 434.523 400.162 434.573 400.259C434.623 400.357 434.697 400.441 434.788 400.502C434.879 400.563 434.984 400.6 435.093 400.609C439.522 400.976 493.946 401.182 495.865 400.979C496.859 400.874 498.439 400.754 497.673 399.747C498.218 391.631 497.882 346.232 497.614 342.616ZM494.596 341.282C492.255 341.107 479.263 340.925 476.969 341.221C477.468 337.688 476.602 324.364 476.581 320.135C482.22 326.917 494.13 340.796 494.596 341.282ZM496.662 399.377C493.961 398.992 436.67 399.328 435.577 399.377C436.029 391.696 435.607 320.052 435.577 319.673C435.885 319.673 471.406 319.981 474.917 319.488C474.717 321.574 475.444 341.307 475.549 342.228C475.548 342.3 475.564 342.371 475.594 342.436C475.625 342.501 475.669 342.558 475.725 342.603C475.781 342.648 475.846 342.681 475.915 342.697C475.985 342.714 476.058 342.715 476.128 342.699C476.624 342.77 493.739 343.158 496.222 342.918C496.065 344.67 495.754 399.205 496.662 399.377Z" fill="#3A5AB7"/>
<path d="M441.077 344.597C441.106 344.754 441.191 344.895 441.316 344.994C441.441 345.094 441.598 345.145 441.757 345.139C443.538 345.139 445.312 345.086 447.092 345.055C448.832 345.116 450.575 345.054 452.306 344.871C452.404 344.881 452.503 344.871 452.596 344.84C452.689 344.809 452.774 344.759 452.846 344.693C452.918 344.626 452.975 344.545 453.014 344.454C453.052 344.364 453.07 344.266 453.067 344.168C453.067 341.621 452.965 339.324 452.984 337.534C453.939 336.627 454.873 335.696 455.787 334.744C456.175 334.34 457.262 333.302 457.139 332.779C456.849 331.525 454.712 334.171 452.975 335.877C453.006 335.069 452.934 334.261 452.759 333.472C452.793 333.396 452.81 333.313 452.809 333.23C452.808 333.147 452.789 333.066 452.752 332.991C452.716 332.916 452.664 332.85 452.6 332.797C452.536 332.745 452.461 332.707 452.38 332.686C450.624 332.534 448.859 332.506 447.098 332.603C445.321 332.603 443.544 332.603 441.763 332.64C441.669 332.64 441.575 332.658 441.488 332.695C441.401 332.732 441.323 332.785 441.257 332.853C441.191 332.921 441.14 333.002 441.107 333.09C441.073 333.178 441.057 333.273 441.061 333.367C440.801 337.106 440.807 340.858 441.077 344.597ZM451.61 333.927C451.513 335.04 451.489 336.157 451.539 337.272C450.254 338.461 448.919 339.591 447.535 340.66C447.098 340.115 446.658 339.579 446.202 339.043C445.746 338.507 445.207 337.586 444.514 337.377C444.462 337.363 444.407 337.361 444.354 337.371C444.301 337.382 444.251 337.404 444.207 337.437C444.164 337.47 444.129 337.512 444.105 337.56C444.081 337.608 444.068 337.662 444.067 337.716C444.138 338.109 444.322 338.473 444.597 338.763C445.65 340.198 446.368 341.092 447.018 341.902C447.111 341.995 447.232 342.055 447.362 342.072C447.493 342.088 447.625 342.061 447.739 341.994C449.069 340.993 450.335 339.937 451.567 338.828C451.567 340.429 451.567 342.034 451.598 343.636C450.11 343.519 448.583 343.636 447.095 343.636C445.53 343.636 443.96 343.636 442.395 343.66C442.395 343.352 442.296 334.944 442.195 334.091C443.827 334.091 445.456 334.038 447.095 334.014C448.58 333.998 450.116 334.075 451.61 333.927Z" fill="#212941"/>
<path d="M441.703 366.788C442.011 366.788 450.992 366.72 452.252 366.523C452.349 366.533 452.448 366.522 452.541 366.491C452.634 366.46 452.72 366.41 452.792 366.343C452.864 366.276 452.921 366.195 452.959 366.104C452.997 366.014 453.015 365.916 453.012 365.818C453.012 365.51 452.942 356.732 452.788 355.571C452.68 354.736 452.787 354.406 452.325 354.339C451.06 354.16 442.023 354.286 441.706 354.292C441.09 354.292 440.969 354.85 440.889 355.463C440.809 356.076 440.769 365.889 441.031 366.243C441.055 366.401 441.137 366.545 441.261 366.646C441.385 366.747 441.543 366.797 441.703 366.788ZM451.559 355.571C451.451 356.575 451.559 364.983 451.559 365.291C450.912 365.239 442.667 365.313 442.359 365.316C442.359 365.008 442.26 356.596 442.158 355.746C442.454 355.74 450.782 355.651 451.555 355.571H451.559Z" fill="#212941"/>
<path d="M441.813 389.808C442.139 389.808 451.102 389.737 452.365 389.54C452.462 389.55 452.561 389.539 452.653 389.508C452.746 389.477 452.831 389.427 452.903 389.361C452.975 389.294 453.031 389.213 453.069 389.123C453.107 389.033 453.125 388.935 453.123 388.838C453.123 388.53 453.055 379.749 452.901 378.591C452.79 377.756 452.901 377.426 452.436 377.359C451.173 377.183 442.136 377.306 441.819 377.312C441.203 377.312 441.083 377.87 441.003 378.486C440.923 379.102 440.88 388.912 441.142 389.266C441.168 389.423 441.251 389.564 441.374 389.664C441.498 389.764 441.654 389.815 441.813 389.808ZM451.669 378.591C451.561 379.592 451.654 388.003 451.669 388.311C451.022 388.259 442.777 388.333 442.469 388.336C442.469 388.028 442.367 379.613 442.269 378.766C442.568 378.763 450.911 378.671 451.666 378.591H451.669Z" fill="#212941"/>
<path d="M455.017 344.366C455.614 344.366 468.997 344.584 472.548 344.282C473.999 344.159 473.524 343.466 472.548 343.417C471.43 343.355 456.683 343.291 454.897 343.636C454.493 343.728 454.607 344.344 455.017 344.366Z" fill="#212941"/>
<path d="M487.515 366.015C488.703 365.978 489.396 365.233 487.659 365.159C482.319 364.928 457.876 364.977 455.011 365.285C454.913 365.285 454.818 365.324 454.748 365.394C454.678 365.464 454.639 365.559 454.639 365.658C454.639 365.756 454.678 365.851 454.748 365.921C454.818 365.991 454.913 366.03 455.011 366.03C467.408 366.16 486.594 366.046 487.515 366.015Z" fill="#212941"/>
<path d="M487.061 388.102C481.517 387.923 457.343 388.065 455.125 388.305C455.032 388.313 454.946 388.356 454.884 388.425C454.821 388.493 454.786 388.583 454.786 388.676C454.786 388.769 454.821 388.859 454.884 388.927C454.946 388.996 455.032 389.039 455.125 389.047C458.987 389.09 486.011 389.069 487.031 389.047C489.793 388.955 489.168 388.169 487.061 388.102Z" fill="#212941"/>
<path d="M373.169 202.393C366.057 192.583 366.202 191.983 365.247 191.785C364.523 191.822 363.826 192.077 363.248 192.515C362.802 191.899 360.359 188.493 359.94 187.88C365.812 183.458 369.908 177.082 371.49 169.904C373.071 162.726 372.034 155.219 368.564 148.739C365.484 143.466 361.121 139.056 355.881 135.92C350.641 132.783 344.693 131.022 338.59 130.798C312.518 130.121 299.098 158.965 311.581 178.332C311.551 178.437 311.547 178.547 311.567 178.654C311.587 178.761 311.632 178.862 311.698 178.948C322.595 193.553 342.754 198.765 357.649 189.472C357.834 189.734 360.898 193.818 361.071 193.988C360.545 194.308 360.16 194.816 359.995 195.409C359.829 196.001 359.894 196.635 360.178 197.182C362.112 200.474 364.4 203.52 366.605 206.628C366.667 206.714 373.742 217.023 373.745 217.128C374.903 218.856 376.381 217.399 377.539 216.512C378.217 215.988 378.858 215.424 379.505 214.864C379.945 214.485 380.737 213.998 380.737 213.324C380.687 212.708 379.018 210.472 373.169 202.393ZM355.253 184.674C343.632 191.638 326.211 188.37 317.014 176.974C317.033 176.797 316.986 176.619 316.882 176.475C314.277 172.612 312.767 168.114 312.515 163.461C312.263 158.809 313.277 154.174 315.449 150.052C317.621 145.93 320.87 142.474 324.851 140.051C328.832 137.629 333.394 136.331 338.054 136.296C343.614 136.286 349.061 137.873 353.745 140.87C358.429 143.867 362.153 148.146 364.474 153.199C367.061 158.664 367.551 164.888 365.851 170.691C364.151 176.493 360.379 181.469 355.253 184.674Z" fill="#212941"/>
<path d="M338.768 151.299C336.574 158.673 334.758 166.153 333.326 173.712C333.062 174.788 332.972 175.9 333.058 177.005C333.113 177.399 333.699 177.414 333.874 177.112C334.798 175.48 334.635 173.9 338.285 157.967C338.889 155.861 339.355 153.718 339.68 151.551C339.723 151.074 338.959 150.865 338.768 151.299Z" fill="#212941"/>
<path d="M344.621 159.704C343.324 164.869 342.773 169.603 340.429 178.779C339.785 181.31 339.224 182.552 339.933 182.97C341.039 183.633 341.473 180.719 341.63 180.14C343.481 173.484 344.766 166.684 345.471 159.812C345.467 159.709 345.427 159.611 345.357 159.535C345.288 159.459 345.193 159.411 345.091 159.398C344.989 159.385 344.886 159.408 344.8 159.465C344.714 159.521 344.65 159.606 344.621 159.704Z" fill="#212941"/>
<path d="M268.591 401.078C266.29 390.381 260.962 366.933 257.457 355.521C257.428 355.418 257.38 355.321 257.314 355.237C257.248 355.152 257.166 355.081 257.073 355.028C256.979 354.976 256.877 354.942 256.77 354.928C256.664 354.915 256.556 354.923 256.453 354.952C256.349 354.98 256.253 355.029 256.168 355.095C256.083 355.16 256.013 355.242 255.96 355.336C255.907 355.429 255.873 355.532 255.86 355.638C255.846 355.744 255.854 355.852 255.883 355.956C256.921 360.603 269.093 408.698 269.65 418.6C269.958 424.073 268.576 430.455 263.521 433.495C257.817 436.923 247.94 434.157 243.326 435.263C242.858 430.643 242.362 426.374 241.847 422.77C243.054 422.528 244.241 422.197 245.399 421.781C245.674 421.705 245.918 421.541 246.093 421.315C246.268 421.088 246.365 420.811 246.369 420.525C246.083 417.475 245.989 414.411 246.088 411.349C255.821 398.047 256.018 382.089 251.223 366.194C250.818 364.831 250.303 363.503 249.683 362.223C249.147 361.127 247.551 361.915 247.792 363.018C249.888 369.526 251.225 376.254 251.777 383.069C252.498 392.578 249.764 402.028 244.077 409.683C227.746 410.533 211.382 410.546 195.05 409.723C129.298 406.979 126.033 405.451 121.773 408.621C119.067 407.571 116.626 405.937 114.625 403.834C107.276 395.965 107.639 384.942 108.489 374.642C111.409 339.111 115.065 316.704 116.867 300.355C116.969 299.431 115.389 299.204 115.213 300.131C111.625 318.888 107.898 353.19 106.059 373.435C105.024 384.791 104.421 396.535 112.269 405.387C114.379 407.882 117.157 409.724 120.277 410.696C119.152 413.388 118.188 416.151 117.218 418.908C117.166 419.106 117.159 419.313 117.199 419.514C117.239 419.715 117.324 419.904 117.448 420.067C117.573 420.23 117.732 420.362 117.916 420.454C118.099 420.546 118.301 420.594 118.506 420.596L118.848 420.556C117.471 425.456 92.7599 557.378 91.6973 565.097C91.5279 566.329 91.4571 567.561 91.3523 568.793C91.2538 569.985 93.1511 570.219 93.4283 569.073C93.687 568.02 118.897 433.097 120.84 420.309C143.601 417.793 166.803 418.929 189.832 420.549C189.639 421.236 189.498 421.936 189.41 422.644C186.099 444.552 185.619 444.512 185.477 448.399C185.358 449.635 185.307 450.877 185.326 452.119C185.369 452.615 186.102 452.933 186.364 452.397C186.786 451.427 187.139 450.428 187.421 449.409C187.729 448.405 188.126 447.438 188.345 446.403C188.93 443.659 192.25 423.303 192.105 420.713C193.892 420.842 195.622 420.971 197.295 421.101C196.907 422.57 196.91 424.871 195.792 432.592C194.789 439.749 193.333 446.835 191.431 453.807C191.206 454.263 191.064 454.755 191.009 455.261C190.367 456 189.79 456.794 189.284 457.633C188.613 458.575 189.974 459.97 190.913 459.256C191.969 458.58 192.745 457.547 193.1 456.345C193.807 455.566 194.286 454.607 194.483 453.573C195.268 451.263 196.525 445.448 196.999 443.049C198.258 436.622 199.111 430.123 199.553 423.589C199.541 422.793 199.754 422.009 200.169 421.329C220.072 422.915 231.742 424.295 240.101 423.057C240.498 433.221 241.435 443.677 242.177 453.81C247.622 527.798 247.247 573.265 248.029 579.927C248.044 580.201 248.163 580.459 248.362 580.648C248.561 580.836 248.825 580.941 249.099 580.941C249.374 580.941 249.637 580.836 249.836 580.648C250.036 580.459 250.155 580.201 250.169 579.927C250.477 575.233 247.382 492.212 247.142 487.786C246.609 477.945 245.62 461.606 244.351 446.566C245.275 446.566 252.107 446.203 256.416 445.784C256.408 446.969 256.48 448.153 256.631 449.329C258.11 464.63 262.252 466.136 258.932 472.681C257.263 475.98 253.514 482.824 252.772 484.891C252.381 485.975 253.942 486.483 254.531 485.633C255.519 484.182 259.714 475.721 260.503 474.129C264.436 466.204 261.017 466.463 258.744 449.665C258.559 448.309 258.492 446.927 258.239 445.581C258.795 445.536 259.344 445.426 259.875 445.254C260.263 445.003 260.57 444.645 260.759 444.223C260.948 443.801 261.011 443.333 260.94 442.876C260.95 440.941 260.77 439.01 260.401 437.111C267.3 435.469 270.981 429.435 271.625 422.542C272.167 416.896 270.559 410.216 268.591 401.078ZM221.236 420.343C187.171 418.076 153.969 413.943 120.48 417.71C120.702 417.094 122.661 411.473 122.661 410.817C125.879 408.155 129.129 409.394 191.037 412.19C208.548 413.189 226.101 413.248 243.618 412.366C243.559 414.76 243.592 417.157 243.717 419.558C236.408 421.652 228.708 420.839 221.236 420.343ZM258.898 443.443C248.346 444.059 245.722 443.85 244.136 443.905C243.939 441.663 243.738 439.461 243.52 437.323C248.612 437.679 253.721 437.719 258.818 437.443C258.964 439.435 258.991 441.433 258.898 443.428V443.443Z" fill="#212941"/>
<path d="M250.403 462.616C250.346 462.419 250.22 462.249 250.048 462.137C249.876 462.025 249.669 461.978 249.466 462.006C249.262 462.033 249.075 462.133 248.939 462.287C248.803 462.441 248.727 462.639 248.725 462.844C248.725 464.948 248.934 468.111 249.033 468.788C249.077 469.463 249.342 470.105 249.787 470.615C249.88 470.706 250.005 470.757 250.135 470.757C250.265 470.757 250.391 470.706 250.483 470.615C251.321 469.568 250.976 467.932 250.874 466.7C250.757 465.317 250.613 463.968 250.403 462.616Z" fill="#212941"/>
<path d="M326.649 267.754C319.692 266.337 312.521 266.337 305.563 267.754C304.512 267.883 303.533 268.355 302.776 269.097C302.645 269.235 302.557 269.408 302.522 269.595C302.488 269.783 302.508 269.976 302.581 270.152C302.654 270.328 302.776 270.479 302.934 270.587C303.091 270.695 303.276 270.755 303.466 270.76C307.212 270.057 310.991 269.543 314.788 269.22C319.06 269.063 321.589 269.423 326.434 269.386C327.321 269.349 327.582 267.923 326.649 267.754Z" fill="#212941"/>
<path d="M325.109 274.268C325.285 274.268 325.453 274.198 325.577 274.074C325.701 273.95 325.771 273.781 325.771 273.606C325.771 273.43 325.701 273.262 325.577 273.137C325.453 273.013 325.285 272.943 325.109 272.943C320.524 272.516 315.899 272.971 311.486 274.286C310.759 274.487 310.029 274.693 309.33 274.958C308.576 275.247 307.636 275.595 307.417 276.458C307.369 276.659 307.384 276.871 307.462 277.064C307.54 277.256 307.676 277.419 307.852 277.53C309.404 278.614 311.649 275.719 325.109 274.268Z" fill="#212941"/>
<path d="M325.555 278.062C322.027 278.31 318.55 279.042 315.222 280.237C313.01 280.961 312.758 281.678 312.166 283.868C311.78 286.717 310.772 289.446 309.213 291.861C306.176 295.27 300.638 295.443 296.616 296.813C295.078 297.237 293.642 297.967 292.394 298.96C291.146 299.953 290.111 301.189 289.353 302.592C285.137 298.24 281.547 293.322 278.687 287.98C286.926 284.025 285.155 269.74 292.855 264.997C298.422 262.029 304.718 260.708 311.008 261.187C314.565 261.407 318.074 262.111 321.44 263.278C322.55 263.83 323.75 264.177 324.982 264.304C325.196 264.298 325.403 264.23 325.578 264.109C325.754 263.988 325.891 263.819 325.973 263.622C326.055 263.424 326.079 263.208 326.04 262.998C326.002 262.788 325.904 262.593 325.758 262.438C324.883 261.654 323.824 261.105 322.678 260.842C313.216 257.336 302.765 257.617 293.505 261.628C282.244 266.716 285.839 278.451 277.818 286.576L277.553 286.151C277.387 285.883 277.124 285.69 276.819 285.61C276.515 285.531 276.191 285.571 275.915 285.722C274.218 286.646 272.527 287.527 270.854 288.494C270.698 288.352 270.512 288.246 270.309 288.186C260.53 285.525 248.58 287.57 238.437 289.8C238.53 288.916 237.794 284.586 236.623 276.575C236.488 275.651 234.852 275.857 234.972 276.8C235.33 281.286 235.941 285.749 236.802 290.167C224.019 292.76 211.804 297.622 200.735 304.523C198.247 306.174 197.939 306.95 196.556 306.398C179.428 299.564 175.479 287.284 173.111 285.593C172.986 285.522 172.845 285.486 172.702 285.486C172.559 285.486 172.418 285.524 172.294 285.595C172.17 285.666 172.066 285.768 171.993 285.892C171.92 286.015 171.881 286.155 171.879 286.298C171.682 290.093 181.679 303.546 195.675 308.034C193.478 309.663 191.372 311.411 189.367 313.27C188.054 314.342 186.945 315.642 186.093 317.108C185.97 317.328 185.931 317.584 185.982 317.831C186.033 318.078 186.171 318.298 186.371 318.451C186.57 318.605 186.819 318.681 187.07 318.667C187.322 318.653 187.56 318.549 187.741 318.373C188.249 317.967 188.769 317.588 189.299 317.209C192.818 313.842 196.61 310.773 200.637 308.034C215.053 299.049 231.198 293.193 248.022 290.848C254.791 289.418 261.775 289.343 268.572 290.626C268.684 294.813 269.677 298.929 271.487 302.707C273.297 306.484 275.882 309.838 279.075 312.549C280.608 314.001 282.429 315.117 284.419 315.823C284.671 319.633 280.56 325.858 278.305 328.876C270.245 339.06 260.077 347.378 248.498 353.26C236.919 359.143 224.205 362.449 211.228 362.953C198.25 363.457 185.318 361.146 173.318 356.18C161.318 351.213 150.535 343.708 141.71 334.18C134.774 326.332 128.94 317.575 124.37 308.151C119.389 298.535 114.304 288.507 112.841 277.64C112.037 272.181 112.435 266.612 114.008 261.323C115.58 256.034 118.289 251.152 121.945 247.019C125.601 242.886 130.116 239.601 135.174 237.395C140.232 235.189 145.711 234.114 151.227 234.246C153.582 235.933 156.178 237.255 158.927 238.167C175.67 244.145 192.142 236.935 194.554 233.439C194.972 232.823 194.406 232.602 193.322 229.482C195.925 229.161 198.428 228.277 200.655 226.891C206.473 223.217 208.186 218.095 207.995 211.273C207.577 197.57 204.181 184.122 198.043 171.864C198.124 171.788 198.198 171.706 198.265 171.618C200.342 168.475 201.324 164.734 201.059 160.976C200.931 155.452 199.619 150.02 197.212 145.046C194.804 140.073 191.357 135.674 187.103 132.147C168.186 116.775 137.457 124.183 121.262 140.285C113.171 148.078 107.925 158.358 106.362 169.483C104.799 180.608 107.008 191.935 112.638 201.657C116.793 208.661 122.788 214.393 129.971 218.229C137.154 222.066 145.251 223.861 153.383 223.42C153.132 226.331 152.464 229.191 151.4 231.912C141.155 231.445 131.124 234.944 123.391 241.681C115.658 248.417 110.817 257.874 109.875 268.086C108.736 279.439 112.733 290.524 117.504 300.63C127.24 321.266 136.437 336.666 155.478 349.635C171.719 360.832 191.124 366.521 210.839 365.867C230.554 365.213 249.54 358.249 265.002 346.001C272.24 340.371 280.969 331.648 284.872 323.345C285.534 321.937 287.643 316.569 287.092 315.367C289.38 312.55 291.236 309.408 292.599 306.044C292.649 305.871 292.641 305.687 292.574 305.519C292.508 305.352 292.388 305.212 292.233 305.12C291.989 304.97 291.755 304.805 291.534 304.624C292.178 303.214 293.13 301.967 294.321 300.975C299.489 297.55 309.398 298.914 312.903 291.14C313.784 288.787 314.489 286.372 315.012 283.914C315.32 282.867 314.498 283.406 320.174 281.58C321.098 281.272 324.825 279.978 325.765 279.667C326.578 279.356 326.504 277.961 325.555 278.062ZM154.437 230.8C156.16 225.372 156.387 219.579 155.093 214.032C156.326 213.834 157.455 213.218 158.29 212.289C158.461 212.052 158.542 211.761 158.519 211.469C158.495 211.177 158.368 210.903 158.161 210.696C157.954 210.489 157.68 210.363 157.388 210.34C157.096 210.317 156.805 210.399 156.568 210.57C152.435 213.983 145.788 206.717 150.229 201.133C153.75 196.692 158.619 200.825 158.93 200.896C159.682 201.066 160.467 201.02 161.194 200.764C161.921 200.509 162.561 200.054 163.042 199.452C165.309 196.707 163.923 192.408 165.346 185.548C166.79 178.563 170.166 175.665 177.222 172.138C181.963 169.423 187.585 168.692 192.863 170.105C194.624 170.678 195.903 171.131 196.528 172.877C197.273 174.944 198.028 177.005 198.761 179.074C198.025 178.843 197.247 178.779 196.483 178.885C195.719 178.992 194.989 179.267 194.344 179.69C193.889 180.055 193.515 180.51 193.245 181.027C193.142 181.198 193.09 181.395 193.096 181.594C193.102 181.793 193.164 181.987 193.276 182.152C193.388 182.317 193.545 182.446 193.728 182.524C193.912 182.603 194.114 182.627 194.31 182.595C195.164 182.271 196.061 182.076 196.971 182.016C198.305 182.065 198.391 182.653 199.435 182.684C199.625 182.692 199.814 182.668 199.996 182.613C201.305 186.537 201.736 188.367 202.004 189.328C201.717 188.938 201.318 188.645 200.86 188.487C200.403 188.328 199.908 188.312 199.442 188.441C198.986 188.597 198.584 188.878 198.28 189.251C197.977 189.625 197.784 190.076 197.723 190.553C197.663 191.031 197.738 191.516 197.939 191.953C198.141 192.39 198.46 192.762 198.863 193.027C199.209 193.221 199.597 193.329 199.993 193.342C200.39 193.354 200.784 193.27 201.142 193.098C201.499 192.925 201.81 192.668 202.047 192.35C202.284 192.031 202.44 191.66 202.503 191.268C203.969 197.329 206.322 210.835 204.89 216.903C203.279 223.654 195.715 228.807 185.615 226.38C180.602 224.985 175.942 222.538 171.946 219.204C170.642 217.981 169.2 216.915 167.65 216.025C166.757 215.619 165.512 216.512 166.165 217.507C166.574 218.269 167.171 218.915 167.899 219.382C174.842 225.114 182.468 230.033 191.532 229.633C191.705 230.648 192.041 231.629 192.527 232.537C190.311 233.704 188.032 234.747 185.702 235.663C180.422 237.565 174.793 238.296 169.203 237.806C163.613 237.316 158.196 235.617 153.328 232.826C153.919 232.298 154.31 231.582 154.437 230.8ZM285.515 314.086C285.207 313.871 281.93 311.484 281.382 311.025C278.284 308.503 275.778 305.331 274.044 301.732C272.309 298.134 271.387 294.198 271.344 290.204C272.915 289.588 274.458 288.935 276.001 288.27C278.791 293.559 282.291 298.443 286.402 302.786C287.762 303.998 289.216 305.099 290.751 306.078C289.356 308.961 287.596 311.652 285.515 314.086Z" fill="#212941"/>
<path d="M287.084 262.973C291.043 259.544 295.902 257.321 301.085 256.567C298.621 255.581 281.955 248.867 279.605 248.017C275.398 246.495 272.081 247.509 271.031 251.996C270.719 253.25 270.908 254.576 271.557 255.692C272.224 256.715 273.251 257.45 274.434 257.75C279.55 259.792 274.896 257.845 287.084 262.973Z" fill="#212941"/>
<path d="M341.917 278.432C340.171 275.712 338.255 273.105 336.179 270.627L329.766 268.056C329.864 268.805 329.711 269.566 329.332 270.22C328.953 270.874 328.368 271.384 327.669 271.671C328.144 272.3 328.371 273.083 328.304 273.869C328.238 274.654 327.883 275.388 327.309 275.928C327.883 276.279 328.338 276.796 328.613 277.411C328.888 278.026 328.97 278.709 328.849 279.371C329.726 279.679 330.604 279.987 331.485 280.311C331.885 280.449 338.045 280.345 340.725 280.505C340.967 280.503 341.204 280.438 341.412 280.316C341.621 280.194 341.794 280.019 341.915 279.81C342.035 279.6 342.099 279.363 342.099 279.121C342.1 278.88 342.037 278.642 341.917 278.432Z" fill="#212941"/>
<path d="M517.113 515.108C513.774 508.246 506.893 505.973 501.784 508.77L501.999 504.954C501.998 504.721 501.936 504.493 501.82 504.292C501.705 504.09 501.539 503.922 501.339 503.803C501.139 503.684 500.912 503.619 500.68 503.614C500.447 503.609 500.218 503.664 500.013 503.774C493.385 502.755 471.412 504.23 456.375 503.645C450.797 503.426 449.806 503.201 448.472 503.143C448.24 503.116 448.005 503.142 447.784 503.218C447.564 503.294 447.363 503.419 447.197 503.583C447.03 503.747 446.903 503.946 446.823 504.166C446.744 504.385 446.715 504.62 446.738 504.852C446.692 505.985 446.686 507.128 446.698 508.268C440.988 506.056 435.166 509.552 432.459 515.115C428.233 523.791 430.389 540.121 440.492 547.313C441.694 548.222 443.064 548.884 444.523 549.259C446.101 549.564 447.731 549.45 449.251 548.931C450.771 548.411 452.129 547.503 453.191 546.297C454.86 549.93 457.346 553.128 460.456 555.642C463.565 558.156 467.214 559.917 471.116 560.788C471.189 566.178 469.709 571.475 466.853 576.046C465.13 576.059 463.41 576.226 461.716 576.545C460.699 576.726 459.759 577.206 459.016 577.923C458.273 578.641 457.761 579.564 457.546 580.574C455.91 580.643 454.282 580.83 452.673 581.134C451.477 581.299 450.363 581.838 449.491 582.674C448.092 585.061 447.565 587.861 448.001 590.593C448.053 592.26 448.207 593.922 448.463 595.57C449.19 600.098 454.379 600.12 457.986 600.304C469.272 600.866 480.585 600.602 491.832 599.513C494.021 599.519 496.181 599.004 498.131 598.01C499.059 597.43 499.776 596.566 500.173 595.546C500.544 594.227 500.641 592.847 500.459 591.489C499.843 580.01 497.071 580.278 491.361 580.278C490.261 575.113 486.507 575.47 481.57 575.498C478.475 571.286 476.841 566.178 476.916 560.951C485.953 559.787 491.669 553.353 495.208 544.991C495.216 544.96 495.229 544.931 495.245 544.904C496.249 546.532 497.72 547.819 499.467 548.598C501.214 549.377 503.155 549.61 505.036 549.269C510.854 547.966 518.813 539.293 519.109 525.91C519.315 522.202 518.631 518.498 517.113 515.108ZM440.988 538.621C438.772 536.246 437.218 533.33 436.482 530.167C435.134 526.643 435.17 522.74 436.583 519.242C437.005 518.129 437.676 517.128 438.544 516.315C439.413 515.501 440.456 514.898 441.594 514.551C443.47 514.229 445.398 514.62 447 515.647C447.241 523.945 448.482 532.183 450.696 540.183C449.132 541.029 447.332 541.335 445.576 541.052C443.821 540.77 442.207 539.915 440.988 538.621ZM453.84 526.489C453.276 524.003 452.94 521.471 452.836 518.925C452.488 516.467 452.488 513.972 452.836 511.514C453.037 510.528 454.321 510.75 454.623 511.514C455.357 513.827 455.83 516.214 456.033 518.632C456.512 521.086 456.832 523.569 456.991 526.064C456.99 526.452 456.849 526.826 456.593 527.117C456.338 527.409 455.985 527.598 455.601 527.65C455.217 527.702 454.827 527.613 454.503 527.399C454.18 527.186 453.944 526.863 453.84 526.489ZM465.273 549.564C465.129 550.824 463.395 551.354 461.519 549.109C459.837 547.124 458.549 544.837 457.724 542.369C457.473 541.543 457.368 540.679 457.416 539.816C457.42 539.625 457.486 539.44 457.604 539.289C457.722 539.138 457.886 539.03 458.07 538.98C458.255 538.929 458.451 538.94 458.629 539.01C458.807 539.081 458.957 539.207 459.058 539.37C459.292 539.77 459.6 540.127 459.831 540.534C460.062 540.94 460.185 541.35 460.416 541.831C461.597 544.06 463.056 546.13 464.759 547.991C465.087 548.45 465.266 549 465.273 549.564ZM513.103 530.16C512.367 533.325 510.812 536.241 508.594 538.615C507.916 539.427 507.075 540.086 506.125 540.551C505.175 541.015 504.137 541.273 503.08 541.309C502.024 541.345 500.971 541.157 499.992 540.758C499.013 540.359 498.129 539.758 497.398 538.994C499.528 531.646 500.835 524.085 501.294 516.448C502.217 515.684 503.289 515.119 504.442 514.791C505.594 514.462 506.802 514.376 507.99 514.539C509.128 514.887 510.171 515.491 511.04 516.305C511.908 517.118 512.579 518.12 513.001 519.233C514.413 522.734 514.449 526.639 513.103 530.167V530.16Z" fill="#FF9500"/>
</svg>
