<svg width="616" height="616" viewBox="0 0 616 616" fill="none" xmlns="http://www.w3.org/2000/svg">
<path d="M485.611 273.251C480.526 271.49 473.957 273.421 472.854 279.254C471.684 285.442 474.961 293.047 479.107 294.43C482.083 294.835 485.109 294.214 487.685 292.668C490.261 291.122 492.233 288.743 493.275 285.926C495.88 279.836 491.119 275.158 485.611 273.251Z" fill="#3A5AB7"/>
<path d="M488.695 300.685H476.523C476.269 300.684 476.019 300.742 475.791 300.855C475.564 300.967 475.366 301.13 475.212 301.332C475.058 301.534 474.954 301.768 474.906 302.017C474.858 302.266 474.868 302.523 474.936 302.767C471.019 315.444 465.154 327.58 462.764 340.71C462.709 340.942 462.705 341.183 462.754 341.417C462.802 341.651 462.901 341.871 463.045 342.062C463.188 342.252 463.371 342.409 463.582 342.521C463.793 342.633 464.026 342.697 464.264 342.709C467.849 342.973 472.525 342.709 475.688 344.711C478.694 346.62 479.005 350.384 479.356 353.643C480.126 361.765 480.209 369.937 479.606 378.073C479.611 378.335 479.682 378.592 479.814 378.819C479.946 379.045 480.134 379.234 480.359 379.368C480.585 379.502 480.841 379.576 481.103 379.584C481.365 379.591 481.625 379.531 481.857 379.41C486.262 377.044 490.278 374.482 490.789 369.32C492.14 347.071 492.001 324.757 490.373 302.527C490.278 301.433 489.696 300.685 488.695 300.685Z" fill="#3A5AB7"/>
<path d="M116.967 186.78C115.027 187.282 113.172 188.069 111.463 189.115C110.269 189.694 108.962 190.002 107.636 190.016C106.309 190.03 104.996 189.751 103.79 189.198C102.3 188.428 100.954 190.618 102.457 191.45C104.818 192.762 107.582 193.148 110.212 192.534C113.137 192.089 115.818 190.645 117.798 188.447C117.922 188.294 117.999 188.109 118.021 187.914C118.042 187.719 118.007 187.521 117.919 187.346C117.832 187.17 117.695 187.023 117.526 186.923C117.357 186.823 117.163 186.773 116.967 186.78Z" fill="#3A5AB7"/>
<path d="M90.6997 150.092C91.1877 150.315 91.6886 150.51 92.1997 150.674C91.3493 154.464 90.7637 158.309 90.4472 162.181C89.8003 165.695 90.0882 169.318 91.2819 172.686C91.8594 173.753 92.6974 174.657 93.7178 175.314C94.7382 175.97 95.908 176.358 97.1185 176.441C98.5267 176.651 99.9481 176.762 101.372 176.774C101.196 176.99 101.081 177.249 101.039 177.525C100.873 179.681 100.747 181.859 100.79 184.027C100.781 184.213 100.81 184.399 100.875 184.573C100.94 184.748 101.04 184.907 101.169 185.042C101.297 185.177 101.452 185.284 101.623 185.358C101.794 185.431 101.979 185.469 102.165 185.469C102.351 185.469 102.536 185.431 102.707 185.358C102.878 185.284 103.033 185.177 103.161 185.042C103.29 184.907 103.39 184.748 103.455 184.573C103.52 184.399 103.549 184.213 103.54 184.027C103.54 181.871 103.331 179.693 103.291 177.525C103.272 177.283 103.185 177.052 103.041 176.857C105.831 176.874 108.618 176.679 111.379 176.275C111.604 176.208 111.801 176.071 111.941 175.883C112.082 175.695 112.158 175.467 112.158 175.232C112.158 174.997 112.082 174.769 111.941 174.581C111.801 174.393 111.604 174.256 111.379 174.189C105.881 173.315 94.214 176.188 92.9512 168.935C92.2083 163.003 92.5474 156.986 93.9522 151.176C101.727 152.104 109.574 152.271 117.382 151.675C116.966 161.931 117.933 172.351 116.966 182.61C116.794 184.458 119.624 184.458 119.8 182.61C120.108 179.275 120.302 175.856 120.302 172.446C122.969 172.363 125.904 167.706 127.222 165.944C128.838 163.934 129.984 161.587 130.576 159.077C131.167 156.566 131.19 153.955 130.641 151.434C130.017 149.046 128.781 146.861 127.056 145.096C125.408 143.574 123.887 144.172 121.802 144.095C116.107 143.919 114.979 138.009 104.458 137.091C89.6556 135.791 82.9597 146.429 90.6997 150.092Z" fill="#3A5AB7"/>
<path d="M57.596 176.275C58.5648 179.648 59.7342 182.961 61.098 186.195C61.8158 188.935 62.8809 191.571 64.2673 194.04C62.8447 195.184 61.7035 196.639 60.9316 198.293C55.3876 210.413 72.8543 221.557 81.0256 211.537C81.4629 211.097 81.0256 211.574 87.9463 214.122C90.4154 215.247 92.9839 216.14 95.6186 216.789C98.8772 233.895 120.69 225.786 119.134 212.705C121.441 212.279 123.703 211.637 125.889 210.786C135.255 207.918 135.745 208.322 136.228 207.617C136.625 208.813 137.156 209.96 137.812 211.035C144.896 222.074 163.976 210.897 158.241 198.278C157.433 196.53 156.235 194.989 154.739 193.775C154.822 193.692 154.822 193.609 154.906 193.442C157.276 187.878 159.118 182.103 160.409 176.194C168.581 177.192 177.704 168.34 173.583 159.184C172.554 156.958 170.887 155.088 168.794 153.811C166.701 152.534 164.276 151.907 161.826 152.01C161.144 149.91 160.28 147.873 159.242 145.924C158.201 143.25 156.858 140.704 155.238 138.335C157.254 136.746 158.684 134.532 159.303 132.041C159.922 129.55 159.695 126.924 158.657 124.577C157.874 122.834 156.689 121.301 155.199 120.103C153.71 118.906 151.958 118.078 150.088 117.688C148.217 117.297 146.28 117.355 144.436 117.856C142.592 118.358 140.893 119.289 139.478 120.573C137.142 119.426 134.68 118.559 132.141 117.989C129.154 117.025 121.512 114.293 121.053 114.068C120.762 112.26 120.069 110.54 119.024 109.036C117.979 107.531 116.61 106.281 115.017 105.377C113.425 104.472 111.65 103.937 109.822 103.811C107.995 103.684 106.163 103.97 104.461 104.646C102.079 105.602 100.087 107.329 98.8022 109.552C97.5179 111.774 97.0162 114.363 97.3773 116.904C92.0121 118.276 86.912 120.53 82.2853 123.573C81.1457 121.619 79.4933 120.015 77.5071 118.934C75.5209 117.853 73.2767 117.336 71.0176 117.439C68.7586 117.542 66.5708 118.261 64.6914 119.519C62.8119 120.777 61.3126 122.525 60.3557 124.574C59.2362 127.068 59.0401 129.88 59.8024 132.505C60.5646 135.131 62.2356 137.401 64.5168 138.908C62.0772 143.053 60.3041 147.555 59.2623 152.251C56.497 151.601 53.5922 151.926 51.0395 153.172C48.4868 154.418 46.4432 156.508 45.2544 159.088C41.272 167.996 49.6742 176.358 57.596 176.275ZM63.0137 200.788C63.7361 198.397 65.3537 196.377 67.5291 195.15C69.7046 193.923 72.2698 193.582 74.69 194.2C81.8633 196.276 83.277 203.791 79.5256 209.545C79.4372 209.636 79.3791 209.752 79.3593 209.877C72.7712 216.133 60.2479 210.29 63.0137 200.788ZM100.122 220.633C99.1893 219.574 98.5074 218.319 98.1266 216.96C97.7459 215.602 97.6759 214.175 97.922 212.786C98.1681 211.397 98.7239 210.081 99.5482 208.936C100.373 207.791 101.444 206.847 102.683 206.173C103.923 205.498 105.298 205.112 106.707 205.042C108.116 204.972 109.523 205.221 110.823 205.769C112.122 206.317 113.282 207.151 114.216 208.209C115.149 209.267 115.832 210.521 116.215 211.879C118.823 220.931 106.226 228.136 100.122 220.633ZM156.405 200.788C159.017 209.884 146.349 217.149 140.229 209.628C139.302 208.564 138.626 207.305 138.25 205.945C137.874 204.584 137.807 203.157 138.056 201.767C138.305 200.378 138.862 199.062 139.686 197.917C140.511 196.771 141.582 195.825 142.82 195.148C144.059 194.471 145.433 194.081 146.843 194.006C148.252 193.931 149.66 194.173 150.964 194.714C152.267 195.255 153.433 196.082 154.375 197.133C155.317 198.184 156.01 199.433 156.405 200.788ZM171.75 161.672C174.359 170.768 161.694 178.03 155.574 170.512C154.647 169.448 153.97 168.189 153.594 166.829C153.218 165.468 153.152 164.041 153.401 162.651C153.649 161.262 154.206 159.946 155.031 158.801C155.855 157.655 156.926 156.709 158.165 156.032C159.403 155.355 160.778 154.965 162.187 154.89C163.597 154.815 165.005 155.057 166.309 155.598C167.612 156.139 168.778 156.966 169.719 158.017C170.661 159.068 171.355 160.317 171.75 161.672ZM144.064 121.072C145.294 120.546 146.622 120.289 147.959 120.317C149.297 120.344 150.613 120.657 151.82 121.233C153.027 121.809 154.098 122.636 154.961 123.658C155.824 124.68 156.459 125.874 156.824 127.161C159.433 136.256 146.697 143.574 140.645 135.997C139.681 134.865 138.995 133.523 138.641 132.078C138.288 130.634 138.277 129.126 138.609 127.677C138.941 126.227 139.607 124.875 140.554 123.728C141.501 122.581 142.703 121.672 144.064 121.072ZM105.542 107.397C106.772 106.871 108.1 106.614 109.437 106.641C110.774 106.669 112.09 106.982 113.297 107.558C114.504 108.134 115.575 108.961 116.437 109.983C117.3 111.005 117.935 112.199 118.3 113.486C120.908 122.581 108.176 129.899 102.124 122.322C101.156 121.191 100.466 119.849 100.11 118.404C99.7547 116.958 99.7425 115.45 100.075 113.999C100.407 112.548 101.075 111.195 102.024 110.048C102.974 108.902 104.179 107.993 105.542 107.397ZM62.5979 127.161C63.321 124.771 64.9382 122.752 67.1127 121.525C69.2873 120.298 71.8514 119.957 74.2711 120.573C75.833 120.969 77.2676 121.758 78.439 122.865C79.6104 123.971 80.4796 125.359 80.9643 126.896C81.449 128.432 81.5331 130.067 81.2085 131.646C80.884 133.224 80.1615 134.693 79.1098 135.914C73.0699 143.356 59.869 136.49 62.5979 127.161ZM81.3582 137.325C82.4523 135.737 83.2029 133.937 83.5619 132.042C83.921 130.148 83.8806 128.199 83.4434 126.32C88.4484 124.472 93.1176 121.9 98.2859 120.4C98.6851 121.569 99.2173 122.688 99.8721 123.736C105.281 132.175 118.993 127.666 121.124 117.982C126.487 120.092 131.974 121.873 137.553 123.317C136.367 125.511 135.817 127.993 135.964 130.482C136.111 132.972 136.949 135.372 138.384 137.411C140.039 139.655 142.49 141.182 145.234 141.678C147.978 142.174 150.808 141.601 153.144 140.078C157.268 149.208 157.123 150.72 158.398 152.919C158.315 152.919 158.232 153.002 158.149 153.002C155.958 153.948 154.089 155.511 152.771 157.5C151.452 159.489 150.741 161.819 150.723 164.205C150.706 166.592 151.383 168.932 152.671 170.94C153.96 172.949 155.806 174.539 157.982 175.517C155.674 180.923 153.696 186.463 152.06 192.109C150.113 191.302 147.986 191.03 145.899 191.322C143.812 191.614 141.842 192.459 140.191 193.77C138.541 195.08 137.271 196.808 136.514 198.774C135.756 200.74 135.539 202.874 135.883 204.952C135.543 204.798 135.159 204.769 134.799 204.869C129.298 206.286 124.127 208.371 118.706 209.954C118.123 208.448 117.247 207.072 116.128 205.907C115.01 204.742 113.671 203.81 112.189 203.166C110.707 202.522 109.113 202.179 107.498 202.156C105.882 202.134 104.279 202.432 102.78 203.034C100.768 203.84 99.027 205.201 97.7578 206.957C96.4887 208.714 95.7437 210.794 95.6094 212.957C94.4328 212.452 85.2636 209.308 83.1015 208.787C84.2918 206.504 84.7213 203.901 84.3273 201.357C83.9333 198.813 82.7365 196.461 80.9115 194.646C79.0864 192.83 76.7288 191.645 74.1828 191.264C71.6368 190.883 69.0356 191.326 66.759 192.528C62.7796 181.819 62.9675 178.902 60.5035 175.85C62.7893 175.048 64.8287 173.669 66.4233 171.846C70.6706 165.307 69.6758 157.086 62.4193 153.335C64.5044 149.331 65.8381 144.745 67.9232 140.657C70.2035 141.733 72.785 141.99 75.2323 141.384C77.6797 140.778 79.8432 139.346 81.3582 137.331V137.325ZM47.432 161.682C48.1538 159.291 49.7708 157.271 51.9457 156.043C54.1206 154.816 56.6854 154.476 59.1052 155.093C66.2785 157.169 67.6953 164.681 63.9408 170.435C57.0324 177.334 44.7031 171.017 47.432 161.682Z" fill="#FF9500"/>
<path d="M96.2866 159.68C96.1193 161.729 96.1193 163.79 96.2866 165.84C96.3698 166.674 97.8698 166.674 98.0361 165.84C98.1604 163.788 98.1604 161.731 98.0361 159.68C97.9437 158.595 96.2866 158.595 96.2866 159.68Z" fill="#3A5AB7"/>
<path d="M174.584 215.381C173.907 215.201 173.2 215.166 172.509 215.278C171.818 215.391 171.158 215.648 170.574 216.033C169.989 216.419 169.493 216.924 169.118 217.515C168.742 218.106 168.496 218.77 168.395 219.462C168.295 220.155 168.342 220.862 168.534 221.535C168.725 222.209 169.058 222.834 169.508 223.37C169.959 223.905 170.518 224.34 171.149 224.644C171.779 224.949 172.467 225.116 173.167 225.136C174.099 225.103 175.004 224.812 175.781 224.295C176.557 223.778 177.175 223.055 177.564 222.208C177.953 221.36 178.099 220.42 177.985 219.494C177.871 218.568 177.502 217.693 176.918 216.964C182.173 210.376 187.424 203.874 193.095 197.702C193.835 198.19 194.696 198.463 195.582 198.49C196.467 198.518 197.344 198.3 198.113 197.859C198.882 197.419 199.514 196.774 199.938 195.995C200.363 195.217 200.563 194.337 200.517 193.452C207.355 193.369 214.109 193.369 220.947 193.618C221.25 194.558 221.857 195.371 222.672 195.928C223.487 196.486 224.464 196.757 225.45 196.698C226.343 196.676 227.214 196.416 227.973 195.945C228.732 195.474 229.351 194.809 229.767 194.018C230.183 193.228 230.381 192.341 230.34 191.449C230.299 190.557 230.021 189.691 229.534 188.943C242.396 170.567 241.518 174.075 247.463 166.511C248.125 166.641 248.807 166.634 249.466 166.49C250.125 166.346 250.748 166.068 251.295 165.673C251.842 165.278 252.303 164.776 252.648 164.196C252.993 163.616 253.215 162.971 253.301 162.302C253.387 161.633 253.334 160.953 253.147 160.305C252.959 159.657 252.64 159.054 252.21 158.534C251.78 158.014 251.248 157.588 250.646 157.282C250.045 156.977 249.387 156.798 248.713 156.757C247.785 156.779 246.882 157.058 246.104 157.564C245.325 158.069 244.702 158.781 244.305 159.62C243.907 160.458 243.75 161.391 243.852 162.313C243.953 163.236 244.309 164.112 244.879 164.845C238.348 171.693 232.484 179.148 227.366 187.107C226.743 186.813 226.063 186.658 225.374 186.654C224.685 186.65 224.004 186.795 223.377 187.081C222.75 187.367 222.193 187.786 221.745 188.309C221.296 188.832 220.967 189.447 220.781 190.11C213.791 189.902 206.794 190.152 199.837 190.858C199.442 190.103 198.84 189.475 198.103 189.047C197.365 188.619 196.522 188.409 195.67 188.441C194.862 188.452 194.069 188.66 193.361 189.048C192.653 189.436 192.05 189.991 191.606 190.666C191.162 191.34 190.889 192.113 190.813 192.917C190.736 193.721 190.858 194.532 191.167 195.278C185.141 201.552 179.597 208.272 174.584 215.381Z" fill="#3A5AB7"/>
<path d="M274.231 308.105C273.923 308.105 227.784 308.166 227.784 307.855C228.283 282.599 229.558 257.115 227.282 231.89C227.285 231.714 227.252 231.54 227.186 231.377C227.12 231.214 227.022 231.066 226.897 230.942C226.773 230.817 226.625 230.719 226.462 230.653C226.299 230.587 226.125 230.554 225.949 230.556C224.535 230.677 223.198 230.64 221.781 230.64C221.695 237.394 221.279 244.152 220.947 250.82C220.879 252.153 218.791 252.156 218.862 250.82C219.151 244.238 218.862 237.394 219.111 230.723C211.941 230.806 204.854 230.473 197.68 230.39C197.351 230.397 197.037 230.531 196.804 230.764C196.571 230.997 196.437 231.311 196.43 231.641C196.639 256.992 196.18 282.424 198.016 307.689C197.65 307.689 175.036 307.443 174.667 307.439C175.086 288.593 176.047 269.728 174.168 250.903C174.091 250.151 173.583 249.486 172.834 249.569C164.995 249.736 157.074 249.652 149.235 249.569C149.734 254.571 149.506 259.829 149.817 264.744C149.888 265.829 148.234 265.745 148.151 264.744C147.735 259.743 146.817 254.58 146.651 249.486H144.649C144.319 249.492 144.005 249.626 143.772 249.859C143.539 250.093 143.405 250.407 143.399 250.737C143.608 269.586 143.731 288.343 144.233 307.187C137.728 307.104 131.223 307.104 124.718 307.021C125.054 295.098 125.387 283.175 125.22 271.249C125.222 271.063 125.186 270.878 125.115 270.706C125.044 270.533 124.94 270.377 124.808 270.245C124.676 270.113 124.52 270.009 124.347 269.938C124.175 269.867 123.99 269.831 123.804 269.833C116.464 269.873 109.211 269.916 101.871 269.916C102.133 273.413 102.133 276.925 101.871 280.422C101.857 280.677 101.745 280.917 101.559 281.093C101.373 281.269 101.127 281.367 100.871 281.367C100.616 281.367 100.369 281.269 100.184 281.093C99.9976 280.917 99.8862 280.677 99.872 280.422C99.3445 276.918 99.1209 273.375 99.2036 269.833H95.7017C95.3717 269.838 95.0569 269.972 94.8236 270.205C94.5903 270.438 94.4567 270.753 94.4512 271.083C94.6606 283.012 94.7007 294.932 94.9501 306.854C74.6221 306.854 60.5034 307.002 46.9206 307.27C46.6992 307.27 46.4869 307.358 46.3304 307.515C46.1739 307.671 46.0859 307.883 46.0859 308.105C46.0859 308.326 46.1739 308.538 46.3304 308.695C46.4869 308.851 46.6992 308.939 46.9206 308.939C101.055 308.114 244.244 311.665 274.061 309.691C275.312 309.691 275.312 308.105 274.231 308.105ZM149.235 274.668C148.856 273.532 148.545 272.066 149.734 271.915C150.981 271.761 150.988 273.261 150.988 274.419C150.995 274.638 150.922 274.853 150.781 275.021C150.639 275.19 150.441 275.3 150.224 275.331C150.006 275.362 149.785 275.312 149.602 275.189C149.42 275.067 149.289 274.881 149.235 274.668Z" fill="#3A5AB7"/>
<path d="M308.669 145.838C306.619 144.825 304.368 144.284 302.081 144.255C302.081 148.896 302.426 160.798 302.916 165.199C313.526 163.548 317.45 150.763 308.669 145.838Z" fill="#FF9500"/>
<path d="M293.074 136.081C293.454 137.43 294.258 138.62 295.368 139.477C296.477 140.333 297.833 140.81 299.234 140.836C299.068 136.499 298.902 132.08 298.902 127.743C294.993 128.827 291.781 131.34 293.074 136.081Z" fill="#FF9500"/>
<path d="M342.437 141.585C340.309 122.504 325.944 108.453 300.913 108.321C293.761 108.037 286.699 109.987 280.707 113.901C274.715 117.815 270.09 123.498 267.476 130.161C262.271 142.823 262.065 159.005 270.726 170.269C280.662 183.186 299.484 185.743 314.255 181.357C331.836 176.145 344.532 160.345 342.437 141.585ZM272.645 133.164C269.47 140.88 269.292 149.504 272.146 157.345C272.197 157.527 272.18 157.722 272.097 157.893C272.014 158.063 271.871 158.197 271.696 158.269C271.521 158.342 271.325 158.347 271.146 158.284C270.967 158.222 270.818 158.096 270.726 157.93C268.932 153.874 268.04 149.477 268.112 145.042C268.185 140.607 269.219 136.241 271.145 132.246C271.579 131.254 273.073 132.169 272.645 133.164ZM275.725 166.767C274.883 166.27 274.171 165.579 273.649 164.753C273.127 163.927 272.809 162.988 272.721 162.014C272.537 160.933 274.144 160.428 274.391 161.515C274.892 162.95 275.655 164.278 276.642 165.433C276.981 166.101 276.479 167.102 275.731 166.767H275.725ZM316.584 154.511C316.14 161.595 309.912 166.767 303.158 168.186C303.287 170.163 303.204 172.148 302.909 174.106C302.745 175.03 301.418 174.935 301.156 174.106C300.62 172.286 300.285 170.412 300.155 168.519C298.065 168.615 295.979 168.246 294.048 167.44C292.117 166.634 290.389 165.41 288.987 163.856C288.331 163.098 289.147 161.866 290.071 162.436C293.042 164.248 296.434 165.254 299.912 165.356C299.912 165.048 299.243 148.17 299.243 144.008C287.084 141.982 287.73 127.629 298.828 125.165C298.912 122.096 299.163 119.034 299.579 115.993C299.748 114.742 301.563 115.244 301.664 116.242C301.948 119.082 302.163 121.996 302.163 124.832C304.021 124.86 305.869 125.111 307.667 125.581C308.924 125.889 308.329 127.768 307.165 127.5C305.545 127.162 303.883 127.078 302.237 127.25C302.237 131.919 302.071 136.589 301.988 141.258C303.5 141.353 305.004 141.547 306.491 141.84C309.387 142.444 311.981 144.041 313.825 146.354C315.669 148.668 316.647 151.553 316.59 154.511H316.584Z" fill="#FF9500"/>
<path d="M472.518 208.128C475.1 209.301 477.773 210.463 480.527 211.46C478.109 219.299 475.478 227.15 473.19 235.059C472.78 236.479 474.853 236.975 475.346 235.645C478.15 227.94 480.434 220.056 482.184 212.046C486.886 213.759 491.792 214.853 496.777 215.298C496.981 215.298 497.179 215.225 497.334 215.092C497.489 214.958 497.591 214.773 497.621 214.571C497.652 214.369 497.608 214.162 497.499 213.989C497.39 213.816 497.222 213.688 497.026 213.629C489.513 211.95 482.172 209.578 475.096 206.545C469.269 203.773 461.236 200.046 457.848 194.286C454.005 187.791 458.258 177.774 460.519 171.186C463.138 163.651 466.431 156.368 470.356 149.423C470.435 149.28 470.456 149.111 470.415 148.953C470.373 148.795 470.272 148.658 470.133 148.573C469.993 148.487 469.826 148.458 469.666 148.491C469.506 148.525 469.365 148.62 469.272 148.755C464.602 156.323 460.771 164.379 457.848 172.779C455.538 179.373 451.559 188.345 455.181 195.207C458.554 201.601 466.34 205.313 472.518 208.128Z" fill="#212941"/>
<path d="M599.014 355.635C595.318 329.554 590.307 301.209 575.332 280.837C561.947 262.625 548.37 255.945 527.722 251.402C526.587 249.072 525.305 246.817 523.884 244.651C523.849 244.564 523.792 244.488 523.719 244.429C523.647 244.37 523.56 244.331 523.468 244.315C523.273 244.098 523.009 243.956 522.721 243.91C522.433 243.865 522.138 243.92 521.885 244.065C519.655 245.279 517.299 246.4 514.961 247.484C513.635 232.375 515.192 217.152 519.547 202.624C522.674 203.251 525.908 203.084 528.953 202.137C531.999 201.19 534.758 199.493 536.977 197.203C542.656 191.293 549.325 182.863 551.57 174.023C555.669 157.85 542.638 158.18 542.638 158.18C542.638 158.18 553.979 137.236 526.126 121.072C498.274 104.908 470.07 128.325 468.758 138.917C468.419 141.668 471.592 143.845 473.51 145.253C479.784 149.873 494.048 150.68 500.695 150.008C501.973 149.879 510.44 148.619 510.785 147.587C509.733 150.246 509.586 153.177 510.366 155.928C512.787 163.431 522.868 164.552 529.379 163.767C529.548 163.776 529.711 163.833 529.851 163.929C529.99 164.025 530.101 164.158 530.17 164.313C530.239 164.468 530.264 164.639 530.242 164.807C530.22 164.975 530.153 165.134 530.047 165.267C528.622 166.355 526.908 166.998 525.119 167.115L523.12 181.957C522.452 182.207 521.87 182.379 521.201 182.622C520.037 183.051 520.527 184.945 521.7 184.47C523.787 183.336 526.192 182.925 528.538 183.303C532.459 184.467 531.371 188.718 528.455 190.473C526.763 191.497 524.849 192.1 522.876 192.231C520.902 192.361 518.926 192.017 517.114 191.225C516.113 190.815 515.432 192.238 516.116 192.891C517.137 193.828 518.414 194.438 519.784 194.644C511.428 212.905 511.123 246.77 512.7 248.343C503.891 252.395 494.807 255.823 485.516 258.6C477.852 252.188 470.837 245.038 464.572 237.252C463.744 236.267 463.34 236.84 457.568 240.838C452.613 244.278 453.644 243.918 453.232 243.918C416.21 241.164 379.771 262.345 360.675 293.866C343.359 266.454 330.931 228.379 328.643 227.239C328.645 227.103 328.617 226.968 328.561 226.844C328.505 226.72 328.422 226.61 328.318 226.522C328.215 226.434 328.093 226.37 327.961 226.334C327.83 226.298 327.693 226.292 327.559 226.315C324.725 226.76 322.005 227.752 319.551 229.235C318.785 222.892 317.643 216.6 316.132 210.392C324.556 206.973 329.751 197.431 331.892 189.044C331.942 188.869 331.922 188.681 331.836 188.52C331.749 188.36 331.603 188.239 331.429 188.185C331.255 188.13 331.067 188.145 330.904 188.228C330.742 188.31 330.617 188.453 330.558 188.625C327.972 197.315 322.193 204.704 314.382 209.308C314.292 209.372 314.216 209.453 314.159 209.547C314.102 209.641 314.064 209.746 314.049 209.856C314.033 209.965 314.04 210.076 314.069 210.182C314.097 210.289 314.147 210.388 314.216 210.475C314.768 216.937 316.054 223.314 318.051 229.485C318.114 229.61 318.198 229.724 318.3 229.82C310.195 234.362 302.346 239.344 294.787 244.746C291.951 238.158 289.117 231.487 286.114 224.899C286.108 224.741 286.065 224.588 285.989 224.45C285.913 224.312 285.807 224.194 285.677 224.104C285.548 224.015 285.4 223.957 285.244 223.934C285.089 223.911 284.93 223.925 284.78 223.975C272.901 228.77 260.107 230.877 248.008 225.478C247.257 225.142 246.582 226.238 247.34 226.645C259.17 232.99 272.688 230.895 284.608 225.977C284.74 226.285 292.705 245.667 293.029 245.997C289.426 248.625 286.028 251.523 282.865 254.667C282.724 254.829 282.647 255.036 282.647 255.25C282.647 255.465 282.724 255.672 282.865 255.834C282.994 292.967 291.313 324.419 316.886 351.394C323.046 357.899 331.563 366.988 341.4 365.562C342.324 387.329 343.661 422.598 344.154 432.106C344.276 433.716 344.959 435.232 346.085 436.39C347.211 437.548 348.707 438.274 350.314 438.441C350.982 438.534 351.647 438.611 352.316 438.694C351.166 431.303 350.802 423.812 351.231 416.345C351.231 407.506 350.535 398.318 351.315 389.494C351.382 388.742 352.648 388.413 352.731 389.327C354.401 399.753 352.842 412.166 353.655 427.852C353.846 431.52 354.49 435.275 354.579 439.026C382.915 441.777 442.975 439.747 464.314 439.359C466.162 439.398 467.958 438.744 469.347 437.524C470.737 436.305 471.619 434.609 471.82 432.771C473.726 407.41 474.57 381.908 474.404 356.476C474.367 350.809 472.941 347.898 463.981 347.051C451.227 345.847 431.293 345.385 411.116 345.302C413.248 331.98 416.971 318.963 422.204 306.528C422.549 305.696 421.357 304.935 420.953 305.776C414.997 318.297 410.869 331.608 408.695 345.302C384.85 345.302 360.998 345.872 348.743 346.719C346.466 346.872 344.339 347.908 342.813 349.605C341.287 351.302 340.483 353.527 340.572 355.808C340.655 358.226 340.821 361.062 340.904 364.229C329.73 363.979 321.072 353.877 314.305 346.057C291.479 319.667 284.429 290.444 284.035 255.834C294.088 248.488 298.893 243.329 313.637 234.89C317.724 232.555 322.393 229.303 327.229 228.73C336.817 251.325 345.573 274.841 358.75 295.603C359.233 296.57 359.726 294.158 355.913 301.942C355.503 302.779 356.665 303.442 357.08 302.607C366.052 287.222 378.068 273.828 392.393 263.245C409.897 250.712 431.196 244.619 452.68 245.997C454.645 245.997 461.847 240.299 462.687 239.658C468.746 247.458 475.876 254.364 483.865 260.171C483.934 260.323 484.06 260.444 484.216 260.506C484.371 260.568 484.545 260.567 484.7 260.503C497.608 257.357 510.112 252.741 521.968 246.745C522.8 248.664 523.801 250.416 524.802 252.249C524.785 252.478 524.852 252.706 524.99 252.89C525.128 253.074 525.328 253.202 525.553 253.25C541.622 257.753 555.931 263.315 567.327 276.097C579.955 290.247 586.066 307.541 590.261 325.796C593.277 339.221 595.531 352.806 597.012 366.486C599.861 391.684 589.854 402.568 565.578 409.015C539.499 415.936 512.543 415.434 485.778 415.434C485.557 415.434 485.344 415.521 485.188 415.678C485.031 415.835 484.943 416.047 484.943 416.268C484.943 416.49 485.031 416.702 485.188 416.858C485.344 417.015 485.557 417.103 485.778 417.103C511.316 419.313 537.039 417.853 562.162 412.766C583.956 407.903 598.913 399.307 600.185 377.245C600.844 370.023 600.45 362.744 599.014 355.635ZM440 352.965C446.588 351.465 456.189 350.6 462.681 352.965C464.936 353.79 465.509 355.303 465.598 357.637C465.555 361.713 465.22 365.781 464.597 369.809C464.597 369.997 464.522 370.178 464.389 370.31C464.257 370.443 464.076 370.518 463.889 370.518C463.701 370.518 463.52 370.443 463.388 370.31C463.255 370.178 463.18 369.997 463.18 369.809C462.937 366.314 464.153 359.987 462.256 356.969C459.296 352.241 444.993 355.275 440.243 354.967C440.01 354.944 439.792 354.842 439.624 354.678C439.457 354.514 439.35 354.298 439.321 354.065C439.293 353.832 439.345 353.597 439.468 353.397C439.592 353.198 439.779 353.047 440 352.968V352.965ZM350.779 375.313C350.779 373.73 350.779 372.144 350.862 370.561C350.891 370.338 351 370.134 351.168 369.986C351.337 369.838 351.554 369.756 351.778 369.756C352.003 369.756 352.219 369.838 352.388 369.986C352.557 370.134 352.665 370.338 352.694 370.561C352.694 374.935 353.803 378.261 353.196 379.9C353.142 380.077 353.039 380.236 352.898 380.357C352.757 380.478 352.584 380.557 352.4 380.583C352.216 380.609 352.028 380.582 351.859 380.505C351.689 380.428 351.545 380.305 351.444 380.149C350.82 378.618 350.591 376.956 350.779 375.313Z" fill="#212941"/>
<path d="M486.779 385.154C506.886 371.165 530.266 362.605 554.653 360.305C556.156 360.154 556.156 357.822 554.653 357.97C549.698 358.425 544.771 359.145 539.893 360.126C541.038 356.374 541.546 352.456 541.396 348.536C541.699 342.171 541.614 335.794 541.144 329.44C541.144 329.23 541.06 329.029 540.912 328.88C540.763 328.732 540.562 328.648 540.352 328.648C540.142 328.648 539.941 328.732 539.792 328.88C539.644 329.029 539.561 329.23 539.561 329.44C539.043 351.197 539.973 355.401 537.405 360.375C537.405 360.459 537.321 360.542 537.321 360.625C518.837 364.731 501.404 372.624 486.123 383.805C485.192 384.402 485.947 385.739 486.779 385.154Z" fill="#212941"/>
<path d="M281.235 216.964C281.35 216.937 281.459 216.886 281.554 216.815C281.649 216.744 281.729 216.654 281.788 216.551C281.848 216.448 281.885 216.334 281.899 216.216C281.912 216.098 281.902 215.979 281.867 215.865C281.833 215.751 281.776 215.646 281.699 215.555C281.623 215.464 281.529 215.39 281.422 215.337C281.316 215.284 281.2 215.253 281.082 215.246C280.963 215.24 280.844 215.257 280.733 215.298C269.795 218.16 258.186 216.883 248.131 211.713C248.043 211.656 247.944 211.618 247.841 211.6C247.738 211.583 247.632 211.586 247.53 211.611C247.429 211.636 247.333 211.682 247.25 211.745C247.166 211.809 247.097 211.888 247.045 211.98C246.994 212.071 246.961 212.172 246.95 212.276C246.94 212.38 246.95 212.486 246.981 212.586C247.013 212.686 247.064 212.778 247.133 212.857C247.201 212.937 247.285 213.001 247.379 213.047C257.359 218.618 270.264 221.07 281.235 216.964Z" fill="#212941"/>
<path d="M288.073 206.459C281.974 207.898 275.644 208.069 269.476 206.961C263.301 205.66 257.544 202.852 252.718 198.786C251.951 198.136 250.799 199.205 251.633 199.87C260.873 208.294 276.649 213.114 288.738 208.042C289.656 207.543 288.904 206.311 288.073 206.459Z" fill="#212941"/>
<path d="M300.581 199.787C301.505 199.387 301.166 197.961 300.162 198.204C293.655 199.741 286.854 199.481 280.484 197.453C274.214 195.916 268.182 193.532 262.555 190.369C261.794 189.885 261.138 191.12 261.806 191.619C267.852 195.425 274.467 198.24 281.401 199.957C287.636 202.033 294.384 201.973 300.581 199.787Z" fill="#212941"/>
<path d="M493.031 433.184C486.785 437.443 480.523 441.601 474.105 445.608C471.878 447.257 469.201 448.187 466.432 448.276C462.903 448.46 401.916 449.178 399.141 449.2C381.963 449.289 364.86 449.2 347.705 448.276C346.368 448.205 346.371 450.281 347.705 450.361C380.802 452.31 413.925 451.51 447.099 451.195C454.489 451.627 461.901 451.514 469.275 450.86C471.633 450.337 473.852 449.314 475.78 447.86C482.738 443.498 489.455 438.928 496.127 434.268C497.793 433.1 500.525 431.757 501.295 429.765C502.269 426.714 502.385 423.455 501.631 420.343C501.543 420.188 501.426 420.051 501.285 419.942C501.145 419.832 500.984 419.751 500.812 419.705C500.64 419.658 500.46 419.646 500.284 419.669C500.107 419.693 499.937 419.751 499.783 419.841C492.612 424.769 484.983 428.872 477.853 433.932C476.344 435.004 477.773 437.443 479.27 436.436C485.793 432.044 492.529 427.929 499.034 423.5C499.034 424.292 498.782 426.752 498.698 427.587C498.698 428.003 498.366 429.17 498.532 429.004C497.534 430.766 494.617 432.102 493.031 433.184Z" fill="#212941"/>
<path d="M17.3192 96.4749C21.5726 96.5149 25.9093 96.6412 30.1628 96.6412C28.7429 152.592 26.1588 296.678 25.9924 312.691C26.0081 313.001 26.1423 313.293 26.3673 313.507C26.5923 313.721 26.8909 313.84 27.2013 313.84C27.5118 313.84 27.8104 313.721 28.0354 313.507C28.2604 313.293 28.3946 313.001 28.4102 312.691C28.8692 256.327 31.4902 112.318 31.6627 96.6412C124.303 98.1411 355.448 97.3896 378.212 97.1401C377.627 124.993 378.166 152.925 377.876 180.778C377.584 209.043 376.376 237.394 376.21 265.662C376.226 265.994 376.369 266.307 376.61 266.536C376.85 266.765 377.17 266.893 377.502 266.893C377.834 266.893 378.154 266.765 378.394 266.536C378.635 266.307 378.778 265.994 378.794 265.662C380.334 234.662 381.452 128.883 380.211 97.057C384.464 96.9738 388.718 96.9338 392.885 96.8907C393.257 96.8784 393.611 96.7253 393.874 96.4623C394.138 96.1993 394.292 95.846 394.305 95.4739V80.7977C394.295 80.4246 394.142 80.0696 393.878 79.806C393.614 79.5424 393.258 79.3902 392.885 79.3809C359.988 79.6273 51.3624 78.2967 17.6549 78.2967C17.4008 78.2967 17.1572 78.3976 16.9776 78.5773C16.7979 78.7569 16.697 79.0005 16.697 79.2546C16.697 79.5086 16.7979 79.7523 16.9776 79.9319C17.1572 80.1115 17.4008 80.2125 17.6549 80.2125C17.9629 80.2125 329.554 81.965 391.468 81.965V93.8877C294.408 95.1381 45.7537 93.632 18.4803 93.3887C18.314 89.6372 18.0768 85.8827 17.8982 82.2145C17.8212 80.6313 15.3202 80.5482 15.3972 82.2145C15.5851 86.3848 15.6652 90.5551 15.8962 94.7223C15.967 95.8927 16.5707 96.4656 17.3192 96.4749Z" fill="#212941"/>
<path d="M25.1581 323.708C24.904 323.708 24.6604 323.809 24.4808 323.989C24.3011 324.168 24.2002 324.412 24.2002 324.666C24.2002 324.92 24.3011 325.164 24.4808 325.343C24.6604 325.523 24.904 325.624 25.1581 325.624C49.8474 325.959 267.727 329.545 291.156 329.545C291.488 329.545 291.806 329.413 292.04 329.178C292.275 328.944 292.407 328.626 292.407 328.294C292.407 327.962 292.275 327.644 292.04 327.41C291.806 327.175 291.488 327.044 291.156 327.044C149.997 324.383 45.8156 322.448 25.1581 323.708Z" fill="#212941"/>
<path d="M276.314 439.938C263.165 407.977 248.963 376.49 235.79 344.544C242.917 344.544 247.968 344.627 254.384 344.627C264.24 371.731 275.079 398.801 286.071 425.511C286.413 426.343 287.919 425.758 287.571 424.843C277.407 398.025 267.308 371.06 256.053 344.627C269.978 344.627 283.909 344.67 297.744 343.876C297.998 343.876 298.242 343.775 298.422 343.595C298.601 343.416 298.702 343.172 298.702 342.918C298.702 342.664 298.601 342.42 298.422 342.241C298.242 342.061 297.998 341.96 297.744 341.96C261.296 341.458 224.699 341.708 188.259 341.292C151.737 340.876 38.6669 338.791 18.6562 338.541C18.4036 333.453 18.1603 328.377 17.9047 323.363C17.8215 321.78 15.3359 321.697 15.4037 323.363C15.6224 328.867 15.8626 334.451 15.9858 339.958C15.9866 340.334 16.1362 340.693 16.4017 340.959C16.6672 341.225 17.0271 341.374 17.4026 341.375C67.0245 341.794 116.631 343.127 166.247 343.793C142.913 389.657 121.045 436.273 101.04 483.714C100.618 484.712 102.041 485.562 102.54 484.549C123.136 436.852 145.66 389.993 169.666 343.876L193.264 344.128C172.096 392.454 148.574 433.492 121.719 488.134C121.226 489.138 122.72 489.982 123.136 488.968C147.514 439.688 178.314 384.175 196.264 344.208C208.855 344.375 221.52 344.458 234.121 344.541C247.463 376.644 261.138 408.664 274.897 440.683C275.063 441.604 276.726 440.939 276.314 439.938Z" fill="#212941"/>
<path d="M515.38 450.444C509.867 454.599 504.378 460.124 498.286 463.38C491.534 466.974 481.691 464.957 474.262 464.713C458.585 464.199 298.985 457.71 282.476 456.792C292.314 446.705 303.072 437.696 313.584 428.36C314.336 427.692 313.338 426.364 312.5 426.94C300.251 435.742 288.935 445.773 278.728 456.878C278.525 456.951 278.351 457.088 278.231 457.268C278.111 457.447 278.052 457.66 278.063 457.876C277.213 511.853 275.639 521.632 276.646 537.426C276.646 537.636 276.729 537.837 276.878 537.986C277.026 538.134 277.228 538.218 277.437 538.218C277.647 538.218 277.849 538.134 277.997 537.986C278.146 537.837 278.229 537.636 278.229 537.426C279.362 524.25 279.224 510.91 279.479 497.651C279.726 484.894 280.148 472.219 280.314 459.459C345.022 462.795 483.286 467.803 487.694 467.963C490.171 468.146 492.662 468.034 495.113 467.63C494.947 477.052 495.363 486.56 495.363 495.982C495.363 505.989 494.784 516.002 495.28 525.916C495.28 526.161 495.377 526.396 495.55 526.57C495.724 526.743 495.959 526.84 496.204 526.84C496.449 526.84 496.684 526.743 496.857 526.57C497.03 526.396 497.128 526.161 497.128 525.916C498.281 506.257 498.393 486.55 497.46 466.879C500.633 465.223 503.531 463.085 506.05 460.543C509.552 457.623 513.054 454.691 516.556 451.704C516.88 451.109 516.045 449.942 515.38 450.444Z" fill="#212941"/>
<path d="M550.485 420.509C550.485 420.264 550.388 420.029 550.215 419.856C550.041 419.683 549.806 419.585 549.561 419.585C549.316 419.585 549.081 419.683 548.908 419.856C548.735 420.029 548.637 420.264 548.637 420.509C547.88 432.426 548.721 444.607 549.053 456.53C549.389 468.542 549.503 480.619 550.473 492.566C550.473 492.82 550.574 493.064 550.754 493.243C550.933 493.423 551.177 493.524 551.431 493.524C551.685 493.524 551.929 493.423 552.108 493.243C552.288 493.064 552.389 492.82 552.389 492.566C553.039 480.554 552.182 468.468 551.89 456.53C552.033 444.507 551.564 432.485 550.485 420.509Z" fill="#212941"/>
<path d="M477.272 265.745C470.151 270.981 463.683 277.336 456.676 282.923C455.05 272.619 453.993 262.234 453.509 251.815C453.491 251.606 453.396 251.411 453.241 251.269C453.087 251.127 452.884 251.049 452.675 251.049C452.465 251.049 452.263 251.127 452.108 251.269C451.954 251.411 451.858 251.606 451.84 251.815C450.761 263.095 451.722 274.478 454.677 285.417C454.727 285.592 454.816 285.754 454.937 285.89C455.057 286.027 455.207 286.135 455.374 286.207C455.541 286.279 455.722 286.312 455.904 286.306C456.086 286.299 456.264 286.253 456.426 286.169C460.147 283.397 463.775 280.345 467.268 277.413C471.277 274.411 475.015 271.062 478.439 267.406C479.197 266.503 478.282 265.003 477.272 265.745Z" fill="#212941"/>
<path d="M508.626 292.93C515.469 283.511 523.453 275.093 530.638 265.912C531.298 265.071 529.979 264.252 529.305 264.828C521.269 272.239 514.081 280.521 507.874 289.52C504.123 280.764 497.513 273.11 491.947 265.496C491.81 265.318 491.613 265.196 491.393 265.153C491.172 265.109 490.943 265.148 490.749 265.261C490.555 265.375 490.409 265.555 490.338 265.768C490.267 265.981 490.277 266.213 490.364 266.42C495.154 275.404 502.684 282.824 506.208 292.517C506.274 292.766 506.411 292.992 506.602 293.166C506.793 293.34 507.03 293.456 507.284 293.499C507.539 293.542 507.801 293.512 508.038 293.411C508.276 293.31 508.48 293.143 508.626 292.93Z" fill="#212941"/>
<path d="M468.182 177.272C468.798 178.431 470.936 179.358 472.02 179.943C473.52 180.867 475.356 182.194 477.188 181.443C477.396 181.299 477.545 181.084 477.607 180.839C477.668 180.594 477.639 180.334 477.524 180.109C476.729 178.526 475.06 178.711 471.268 176.191C471.352 176.105 471.352 176.022 471.435 175.939C474.536 172.792 477.433 169.451 480.108 165.935C480.527 165.27 479.695 164.358 479.024 164.851C476.211 167.135 473.614 169.675 471.268 172.437C470.101 173.521 467.215 175.421 468.182 177.272Z" fill="#212941"/>
<path d="M491.115 166.351C491.144 168.719 491.966 171.009 493.45 172.856C494.196 173.397 495.119 173.634 496.034 173.521C497.579 173.592 499.126 173.424 500.62 173.022C500.839 172.949 501.029 172.809 501.163 172.622C501.298 172.435 501.37 172.21 501.37 171.98C501.37 171.749 501.298 171.524 501.163 171.337C501.029 171.15 500.839 171.01 500.62 170.937C498.412 170.296 495.942 171.359 495.116 170.771C494.534 170.352 494.288 169.181 494.032 168.615C493.625 167.691 493.179 166.871 492.782 165.947C492.69 165.773 492.543 165.634 492.363 165.553C492.184 165.472 491.982 165.453 491.791 165.5C491.6 165.546 491.429 165.655 491.307 165.809C491.184 165.963 491.117 166.154 491.115 166.351Z" fill="#212941"/>
<path d="M473.353 158.18C473.182 157.187 472.931 156.211 472.602 155.26C472.164 154.185 470.603 154.259 470.603 155.509C470.596 156.405 470.68 157.3 470.852 158.18C470.861 158.93 471.16 159.648 471.687 160.182C472.334 160.57 473.098 160.717 473.843 160.597C474.708 160.706 475.586 160.65 476.43 160.431C476.649 160.358 476.839 160.218 476.973 160.031C477.108 159.844 477.18 159.619 477.18 159.388C477.18 159.158 477.108 158.933 476.973 158.746C476.839 158.559 476.649 158.419 476.43 158.346C475.417 158.149 474.382 158.093 473.353 158.18Z" fill="#212941"/>
<path d="M478.017 194.785C477.837 194.689 477.63 194.657 477.43 194.697C477.231 194.737 477.051 194.845 476.923 195.003C476.794 195.161 476.725 195.359 476.727 195.563C476.728 195.767 476.801 195.963 476.933 196.119C480.893 199.997 490.522 199.738 493.528 194.536C494.014 193.692 492.936 192.358 492.025 193.033C490.13 194.687 487.784 195.737 485.288 196.049C482.793 196.362 480.261 195.921 478.017 194.785Z" fill="#212941"/>
<path d="M501.116 161.598C502.603 162.646 503.925 163.911 505.037 165.35C505.221 165.529 505.46 165.642 505.715 165.671C505.97 165.7 506.228 165.643 506.447 165.509C506.667 165.375 506.836 165.172 506.927 164.932C507.019 164.692 507.028 164.428 506.953 164.182C505.576 159.501 498.788 156.944 494.448 158.512C494.327 158.545 494.213 158.601 494.113 158.678C494.014 158.755 493.93 158.85 493.868 158.959C493.741 159.179 493.707 159.441 493.773 159.686C493.839 159.931 494 160.139 494.22 160.266C494.44 160.392 494.702 160.426 494.947 160.36C497.084 160.05 499.264 160.487 501.116 161.598Z" fill="#212941"/>
<path d="M474.355 149.257C473.523 149.352 473.52 150.593 474.105 150.923C476.458 152.26 479.236 152.063 481.189 156.094C481.759 157.268 483.69 156.427 483.274 155.17C482.647 153.34 481.433 151.767 479.819 150.698C478.206 149.628 476.285 149.122 474.355 149.257Z" fill="#212941"/>
</svg>
