<svg width="616" height="616" viewBox="0 0 616 616" fill="none" xmlns="http://www.w3.org/2000/svg">
<path d="M105.589 448.112C95.0895 431.847 80.2654 421.483 62.9835 413.419C51.2025 407.921 36.0305 406.027 29.313 393.55C25.3552 386.201 26.1098 374.312 36.4955 373.299C42.0499 373.252 47.4546 375.099 51.8185 378.535C69.2205 390.282 84.7745 415.418 95.4005 433.997" fill="#3A5AB7"/>
<path d="M106.46 446.138C112.595 438.412 119.565 431.388 127.244 425.194C140.334 415.184 155.361 407.924 167.284 396.411C173.964 389.968 185.4 379.077 182.992 368.559C179.912 355.149 159.276 367.943 154.286 372.511C135.228 390.463 121.153 413.053 113.436 438.071" fill="#3A5AB7"/>
<path d="M281.894 81.0348C283.375 81.0348 284.58 82.698 284.58 84.7493C284.58 86.8006 283.375 88.4638 281.894 88.4638C280.412 88.4638 279.205 86.8006 279.205 84.7493C279.205 82.698 280.409 81.0348 281.894 81.0348Z" fill="#212941"/>
<path d="M260.774 82.0696C262.258 82.0696 263.459 83.7328 263.459 85.7841C263.459 87.8354 262.258 89.4986 260.774 89.4986C259.289 89.4986 258.088 87.8354 258.088 85.7841C258.088 83.7328 259.289 82.0696 260.774 82.0696Z" fill="#212941"/>
<path d="M265.11 110.098C265.228 110.894 265.493 111.662 265.892 112.361C266.077 112.682 266.312 112.972 266.588 113.218C267.293 113.859 268.127 114.344 269.033 114.639C269.939 114.934 270.898 115.033 271.846 114.93C273.92 114.802 275.908 114.06 277.559 112.799C278.179 112.341 278.738 111.806 279.222 111.206C279.944 110.307 280.521 109.3 280.932 108.222C281.108 107.891 281.154 107.507 281.062 107.144C280.969 106.781 280.745 106.466 280.433 106.259C280.12 106.052 279.742 105.97 279.372 106.027C279.002 106.084 278.666 106.277 278.431 106.568C278.058 106.864 277.67 107.14 277.267 107.393C276.706 107.794 276.081 108.071 275.477 108.434C274.593 108.995 273.635 109.43 272.631 109.728C271.961 109.928 271.252 109.965 270.565 109.836C270.174 109.739 269.797 109.593 269.443 109.402C268.892 109.112 268.27 109.121 267.682 108.632C267.589 108.454 267.462 108.297 267.307 108.17C267.153 108.043 266.974 107.949 266.782 107.893C266.59 107.837 266.388 107.82 266.189 107.844C265.991 107.868 265.799 107.932 265.626 108.032C265.452 108.132 265.301 108.267 265.181 108.427C265.061 108.587 264.975 108.77 264.928 108.964C264.88 109.159 264.873 109.361 264.906 109.558C264.939 109.756 265.011 109.944 265.119 110.113L265.11 110.098Z" fill="#212941"/>
<path d="M304.486 89.5849C304.718 88.7455 304.905 87.8941 305.046 87.0346C305.381 85.0902 305.308 83.0976 304.834 81.1826C304.478 79.538 303.872 77.9579 303.035 76.4979C302.394 75.0104 301.359 73.7261 300.042 72.7833C298.724 71.8406 297.175 71.2752 295.56 71.148C295.501 70.3965 295.468 69.6388 295.366 68.9027C294.911 64.6489 293.239 60.6164 290.552 57.288C287.996 54.4766 284.769 52.3603 281.172 51.1374C277.575 49.9145 273.726 49.6251 269.987 50.2964C266.29 50.7627 262.729 51.9837 259.524 53.8837C256.319 55.7836 253.539 58.322 251.356 61.3413C249.266 64.5963 247.906 68.2656 247.37 72.0966C247.219 73.0576 247.136 74.0339 247.062 75.0103C245.508 75.3402 244.061 76.0539 242.853 77.0863C241.646 78.1187 240.715 79.4369 240.148 80.9208C239.304 82.6852 238.792 84.5894 238.635 86.5387C238.495 87.776 238.495 89.0252 238.635 90.2625C238.788 91.6035 239.119 92.9181 239.621 94.171C239.338 97.1409 239.323 100.13 239.578 103.103C239.79 105.909 240.245 108.692 240.939 111.419C242.3 117.117 245.125 122.361 249.135 126.631C252.681 130.086 257.099 132.511 261.917 133.647C261.762 135.539 261.804 137.441 262.043 139.324C262.114 140.162 262.213 140.993 262.284 141.831C262.16 141.92 262.034 142.013 261.911 142.108C261.051 142.813 260.234 143.57 259.465 144.375C259.296 144.48 259.15 144.617 259.034 144.779C258.918 144.94 258.835 145.123 258.791 145.317C258.746 145.511 258.74 145.712 258.773 145.908C258.807 146.104 258.879 146.291 258.985 146.459C259.091 146.628 259.229 146.773 259.392 146.887C259.555 147.002 259.738 147.083 259.933 147.126C260.127 147.169 260.327 147.173 260.523 147.138C260.719 147.103 260.906 147.03 261.073 146.922C262.071 146.571 263.041 146.352 264.045 145.998C264.695 145.77 265.302 145.496 265.933 145.256C266.354 145.046 266.706 144.718 266.944 144.312C267.182 143.907 267.298 143.441 267.276 142.97C267.249 141.609 267.196 140.251 267.082 138.896C266.959 137.417 266.839 135.939 266.599 134.476C269.057 134.723 271.535 134.708 273.991 134.43C276.883 134.086 279.724 133.396 282.451 132.372C282.333 134.202 282.369 136.037 282.559 137.861C282.664 139.253 282.815 140.633 282.932 142.031C282.963 142.557 283.164 143.059 283.503 143.462C283.843 143.865 284.304 144.147 284.817 144.267C285.316 144.35 285.796 144.47 286.286 144.575C287.115 144.741 287.915 144.883 288.75 144.997C289.4 145.093 290.007 145.157 290.663 145.21C291.044 145.329 291.457 145.292 291.812 145.106C292.166 144.921 292.432 144.602 292.551 144.221C292.67 143.839 292.633 143.426 292.447 143.072C292.262 142.718 291.944 142.452 291.562 142.333C290.469 141.717 289.526 141.024 288.42 140.454C288.199 140.34 287.977 140.235 287.755 140.146C287.709 139.265 287.666 138.384 287.601 137.507C287.52 135.156 287.21 132.818 286.677 130.527C290.626 128.49 294.071 125.6 296.764 122.067C298.794 119.246 300.293 116.08 301.187 112.722C302.277 108.034 302.794 103.231 302.727 98.4183C303.414 97.5059 303.935 96.4801 304.267 95.3876C304.747 93.7563 304.692 92.0142 304.11 90.4165C304.321 90.1869 304.453 89.8953 304.486 89.5849ZM295.732 75.4322C297.283 76.8548 298.523 78.5817 299.376 80.505C300.048 82.3683 300.553 84.2874 300.885 86.24C300.263 85.8453 299.603 85.5141 298.914 85.2513C297.824 84.8521 296.694 84.5713 295.545 84.4135C295.591 81.543 295.735 78.4876 295.732 75.4322ZM244.032 84.8571C244.381 83.6074 244.954 82.4313 245.722 81.3859C246.096 80.9399 246.508 80.5277 246.954 80.1539C247.03 82.3196 247.231 84.4792 247.555 86.6219C245.915 87.3664 244.466 88.4757 243.32 89.8651C243.36 88.1737 243.599 86.4928 244.032 84.8571ZM297.288 111.514C295.399 117.225 291.509 122.059 286.335 125.125C282.397 127.482 277.994 128.953 273.43 129.437C269.716 129.986 265.927 129.7 262.337 128.599C258.748 127.499 255.449 125.612 252.68 123.077C249.941 120.191 247.842 116.759 246.52 113.005C245.641 110.694 244.912 108.327 244.34 105.921C243.914 104.187 243.566 102.462 243.265 100.759C243.736 101.229 244.252 101.652 244.805 102.022C246.472 103.044 248.35 103.675 250.296 103.868C252.243 104.061 254.207 103.811 256.044 103.137C257.053 102.754 258.024 102.278 258.945 101.714C260.198 100.959 261.366 100.048 262.567 99.293C264.346 98.0809 266.271 97.0978 268.296 96.367C270.209 95.6872 272.241 95.4012 274.268 95.5262C276.059 95.6471 277.83 95.9768 279.544 96.5087C281.267 97.0278 282.921 97.7516 284.472 98.6647C287.048 100.396 289.825 101.809 292.742 102.872C293.836 103.237 295.002 103.337 296.143 103.163C297.283 102.989 298.366 102.546 299.302 101.871C298.966 105.147 298.291 108.378 297.288 111.514ZM300.984 94.5036C300.786 95.3756 300.41 96.1974 299.88 96.9176C299.35 97.6378 298.677 98.2409 297.904 98.6893C295.314 100.14 294.365 99.795 290.607 97.1493C289.289 96.2253 288.054 95.2705 286.994 94.5621C285.141 93.3838 283.147 92.4432 281.059 91.7624C278.971 91.0804 276.807 90.6563 274.616 90.4996C274 90.4596 273.384 90.4596 272.786 90.475C272.854 89.8374 272.876 89.1968 272.919 88.553C272.971 87.5151 273.033 86.4771 273.061 85.4361C273.114 84.81 273.114 84.1803 273.061 83.5542C272.89 82.8747 272.637 82.2188 272.306 81.6015C272.334 81.2094 272.205 80.8223 271.947 80.5254C271.689 80.2285 271.324 80.0461 270.932 80.0184C270.54 79.9906 270.153 80.1197 269.856 80.3773C269.559 80.6349 269.377 81 269.349 81.3921C268.922 81.9562 268.578 82.5785 268.327 83.24C268.185 83.8227 268.101 84.418 268.077 85.0172C267.988 85.9166 267.945 86.8221 267.926 87.7245C267.871 88.8135 267.901 89.905 268.015 90.9893C268.015 91.0633 268.056 91.131 268.068 91.2049C267.597 91.3343 267.125 91.4636 266.663 91.6238C264.248 92.5111 261.957 93.7035 259.844 95.172C253.376 99.6934 252.409 101.831 248.534 100.211C247.932 99.9544 247.369 99.6143 246.862 99.2006C246.033 98.6922 245.436 97.8798 245.199 96.9371C244.961 95.9944 245.101 94.9961 245.59 94.1556C246.171 93.2206 246.934 92.4118 247.833 91.7769C248.733 91.1421 249.75 90.6941 250.826 90.4596C251.412 90.3109 251.92 89.9452 252.247 89.4363C252.574 88.9275 252.696 88.3135 252.588 87.7184C251.863 83.624 251.663 79.4539 251.993 75.3091C252.221 71.3477 253.439 67.5067 255.535 64.1379C257.321 61.7043 259.588 59.6631 262.194 58.1406C264.801 56.618 267.692 55.6464 270.689 55.286C273.597 54.7272 276.6 54.9143 279.416 55.8299C282.232 56.7455 284.771 58.3598 286.794 60.522C288.891 63.1336 290.211 66.282 290.604 69.608C291.173 75.1689 291.411 80.7587 291.316 86.3478C291.331 86.8818 291.548 87.3902 291.922 87.7708C292.297 88.1514 292.802 88.3759 293.336 88.3991C294.549 88.4007 295.757 88.537 296.94 88.8056C297.955 89.0051 298.901 89.461 299.69 90.13C300.281 90.6741 300.714 91.3678 300.943 92.1377C301.172 92.9077 301.188 93.7252 300.99 94.5036H300.984Z" fill="#212941"/>
<path d="M319.799 309.438C329.472 295.719 340.055 282.666 351.477 270.365C351.03 264.279 350.479 258.156 349.687 252.116C366.646 243.261 385.628 236.661 401.508 226.053C394.732 187.898 343.155 147.304 306.86 140.004C296.567 149.204 287.179 159.812 277.508 169.662C268.268 162.205 260.022 153.661 251.149 145.823C212.033 155.987 185.705 191.539 164.093 223.269C176.413 241.9 185.819 262.465 198.57 280.908C200.633 278.659 203.07 276.784 205.771 275.364C205.396 286.015 205.112 299.247 214.642 306.328C222.456 312.13 235.444 310.288 244.601 310.501C255.723 310.76 266.777 309.355 277.865 309.247C291.636 309.109 306.078 310.815 319.799 309.438Z" fill="#3A5AB7"/>
<path d="M258.794 186.725C259.062 186.377 259.317 186.029 259.585 185.693C260.592 184.403 261.606 183.137 262.665 181.905C264.79 179.441 267.008 177.075 269.266 174.713C269.389 174.553 269.543 174.419 269.719 174.32C269.895 174.221 270.089 174.158 270.29 174.135C270.491 174.112 270.694 174.13 270.888 174.188C271.081 174.245 271.262 174.341 271.417 174.47C271.573 174.599 271.702 174.757 271.795 174.936C271.888 175.116 271.945 175.312 271.96 175.513C271.976 175.715 271.952 175.917 271.888 176.109C271.824 176.301 271.722 176.477 271.588 176.629L260.725 192.463C260.497 192.791 260.192 193.059 259.836 193.242C259.481 193.425 259.086 193.518 258.686 193.513C258.286 193.509 257.894 193.409 257.541 193.221C257.188 193.034 256.886 192.764 256.659 192.435C253.231 187.461 249.859 182.327 246.424 177.269C245.411 175.766 244.37 174.282 243.366 172.779C242.929 172.132 242.51 171.488 242.1 170.826C240.963 168.956 239.944 167.081 238.783 165.245C238.534 164.942 238.415 164.552 238.453 164.162C238.491 163.771 238.683 163.412 238.986 163.163C239.289 162.914 239.679 162.795 240.069 162.833C240.46 162.872 240.819 163.063 241.068 163.366C242.528 164.749 243.979 166.098 245.331 167.604C246.212 168.59 247.04 169.631 247.841 170.684C250.163 173.73 252.289 176.946 254.423 180.134C255.892 182.336 257.343 184.535 258.794 186.725Z" fill="#212941"/>
<path d="M302.493 183.716C304.458 180.525 306.189 177.226 307.957 173.931C309.46 171.079 310.944 168.217 312.53 165.408C314.246 162.356 316.097 159.402 318.056 156.476C318.257 156.131 318.586 155.879 318.972 155.777C319.358 155.674 319.769 155.729 320.115 155.93C320.461 156.13 320.712 156.46 320.815 156.846C320.917 157.232 320.862 157.643 320.662 157.989C318.814 161.685 317.274 165.485 315.589 169.252C314.459 171.787 313.27 174.294 312.041 176.78C309.973 181.009 307.647 185.106 305.074 189.047C304.865 189.356 304.592 189.616 304.273 189.808C303.954 190 303.596 190.12 303.226 190.159C302.856 190.199 302.482 190.157 302.13 190.033C301.779 189.91 301.46 189.71 301.196 189.448C299.585 187.861 297.904 186.297 296.194 184.738C294.229 182.952 292.162 181.252 290.154 179.502C289.138 178.618 288.171 177.707 287.173 176.82C286.175 175.933 285.18 175.012 284.158 174.149C283.994 174.043 283.854 173.906 283.743 173.745C283.633 173.585 283.556 173.404 283.516 173.214C283.475 173.023 283.473 172.827 283.508 172.635C283.544 172.444 283.617 172.261 283.723 172.098C283.829 171.935 283.967 171.794 284.127 171.684C284.288 171.574 284.468 171.496 284.659 171.456C284.849 171.416 285.046 171.413 285.237 171.449C285.429 171.485 285.611 171.558 285.775 171.664C287.752 172.656 289.717 173.678 291.627 174.879C292.437 175.384 293.219 175.917 293.995 176.484C296.968 178.725 299.805 181.139 302.493 183.716Z" fill="#212941"/>
<path d="M276.697 178.48C276.528 184.135 276.217 189.768 276.011 195.42C275.94 197.45 275.903 199.485 275.86 201.515C275.77 206.258 275.699 211.002 275.601 215.742C275.271 231.591 274.8 247.429 274.4 263.251C274.31 268.57 274.347 273.954 274.446 279.356C274.544 284.675 274.677 290.016 274.64 295.329C274.606 299.884 274.471 304.421 274.07 308.924C274.042 309.123 274.055 309.325 274.106 309.518C274.157 309.712 274.247 309.894 274.369 310.052C274.492 310.211 274.645 310.344 274.819 310.443C274.993 310.541 275.186 310.604 275.385 310.628C275.584 310.652 275.785 310.635 275.978 310.58C276.171 310.524 276.35 310.431 276.506 310.305C276.663 310.18 276.792 310.024 276.887 309.848C276.982 309.671 277.041 309.478 277.061 309.278C277.948 303.17 278.512 297.019 278.752 290.851C278.949 286.252 279.044 281.651 279.109 277.058C279.174 272.466 279.18 267.905 279.34 263.374C279.614 253.487 279.956 243.585 280.221 233.683C280.486 223.78 280.726 213.847 280.711 203.936C280.711 200.526 280.683 197.129 280.566 193.72C280.39 188.604 280.015 183.522 279.66 178.418C279.653 178.025 279.49 177.651 279.207 177.379C278.924 177.106 278.544 176.957 278.151 176.964C277.758 176.972 277.384 177.135 277.112 177.418C276.839 177.701 276.69 178.081 276.697 178.474V178.48Z" fill="#212941"/>
<path d="M208.414 265.924C208.608 264.67 208.91 263.516 209.07 262.25C209.169 261.449 209.197 260.639 209.24 259.832C209.347 257.411 209.409 254.99 209.548 252.56C209.686 250.13 209.893 247.712 210.08 245.291C210.185 243.991 210.284 242.701 210.336 241.401C210.435 239.418 210.425 237.471 210.524 235.494C210.557 235.299 210.552 235.1 210.508 234.907C210.465 234.715 210.384 234.533 210.27 234.372C210.04 234.046 209.69 233.825 209.297 233.758C208.904 233.691 208.5 233.782 208.175 234.012C207.849 234.242 207.628 234.593 207.561 234.985C207.253 235.993 206.945 236.972 206.637 237.995C206.227 239.516 205.842 241.028 205.55 242.587C205.112 245.167 204.804 247.768 204.626 250.379C204.438 252.578 204.318 254.778 204.318 256.983C204.262 258.451 204.291 259.922 204.404 261.387C204.493 262.188 204.647 262.952 204.814 263.737C204.98 264.523 205.214 265.277 205.43 266.069C205.439 266.264 205.487 266.455 205.57 266.631C205.654 266.807 205.771 266.965 205.915 267.096C206.06 267.227 206.228 267.328 206.412 267.394C206.596 267.46 206.79 267.489 206.985 267.479C207.18 267.47 207.371 267.422 207.547 267.339C207.723 267.256 207.882 267.138 208.013 266.994C208.144 266.849 208.245 266.681 208.311 266.497C208.376 266.314 208.405 266.119 208.396 265.924H208.414Z" fill="#212941"/>
<path d="M342.339 225.795C342.373 226.737 342.311 227.584 342.425 228.536C342.504 229.116 342.62 229.69 342.773 230.255C343.192 231.933 343.716 233.609 344.19 235.29C344.664 236.972 345.114 238.645 345.595 240.317C345.853 241.207 346.121 242.097 346.432 242.969C346.913 244.33 347.483 245.584 347.972 246.92C348.045 247.313 348.27 247.661 348.599 247.888C348.928 248.115 349.334 248.202 349.726 248.129C350.119 248.057 350.467 247.832 350.694 247.503C350.921 247.174 351.008 246.768 350.935 246.375C350.935 245.602 350.935 244.872 350.911 244.099C350.876 242.966 350.781 241.835 350.624 240.711C350.317 238.863 349.91 237.033 349.408 235.229C349.013 233.689 348.579 232.186 348.099 230.701C347.806 229.696 347.453 228.709 347.039 227.747C346.789 227.231 346.5 226.734 346.177 226.26C345.838 225.755 345.508 225.336 345.154 224.846C345.094 224.658 344.997 224.485 344.869 224.335C344.741 224.185 344.585 224.062 344.409 223.974C344.233 223.885 344.041 223.832 343.845 223.818C343.648 223.804 343.451 223.83 343.264 223.893C343.078 223.956 342.906 224.056 342.758 224.186C342.61 224.316 342.49 224.475 342.404 224.652C342.318 224.829 342.269 225.022 342.258 225.219C342.247 225.415 342.276 225.612 342.342 225.798L342.339 225.795Z" fill="#212941"/>
<path d="M106.174 161.762C105.681 162.501 105.227 163.266 104.813 164.053C104.398 164.84 104.047 165.659 103.763 166.502C103.272 168.097 102.95 169.739 102.802 171.402C102.511 173.926 102.568 176.479 102.971 178.988C103.412 182.046 104.475 184.981 106.094 187.612C106.595 188.391 107.157 189.128 107.776 189.817C109.2 191.385 110.842 192.739 112.652 193.84C112.806 193.972 112.986 194.072 113.181 194.133C113.375 194.193 113.58 194.214 113.782 194.194C113.985 194.173 114.181 194.112 114.36 194.013C114.538 193.915 114.694 193.781 114.819 193.62C114.944 193.459 115.035 193.275 115.087 193.078C115.139 192.881 115.15 192.676 115.12 192.474C115.091 192.273 115.02 192.08 114.913 191.906C114.807 191.733 114.666 191.583 114.5 191.465C112.747 189.632 111.292 187.536 110.188 185.253C109.061 183.051 108.304 180.68 107.945 178.233C107.656 176.131 107.602 174.003 107.785 171.889C107.902 170.466 108.167 169.046 108.383 167.614C108.497 166.825 108.552 166.052 108.648 165.257C108.743 164.463 108.799 163.656 108.934 162.836C109.004 162.654 109.038 162.46 109.033 162.265C109.028 162.07 108.985 161.878 108.906 161.7C108.827 161.522 108.713 161.361 108.572 161.226C108.431 161.092 108.264 160.986 108.082 160.916C107.9 160.846 107.706 160.812 107.511 160.817C107.316 160.822 107.124 160.865 106.946 160.944C106.768 161.023 106.607 161.137 106.472 161.278C106.338 161.419 106.232 161.586 106.162 161.768L106.174 161.762Z" fill="#212941"/>
<path d="M118.65 163.933C117.52 168.555 117.278 173.349 117.938 178.061C118.773 182.931 120.9 187.487 124.098 191.253C132.568 201.183 141.02 211.611 148.708 222.053C150.666 224.714 152.579 227.384 154.439 230.027C156.351 232.741 158.199 235.437 159.983 238.115C163.657 243.519 167.036 249.117 170.107 254.885C170.192 255.064 170.311 255.224 170.458 255.357C170.605 255.49 170.776 255.593 170.962 255.659C171.149 255.726 171.346 255.755 171.544 255.745C171.742 255.735 171.935 255.686 172.114 255.601C172.293 255.517 172.453 255.398 172.586 255.251C172.719 255.104 172.821 254.933 172.888 254.746C172.954 254.56 172.983 254.363 172.973 254.165C172.964 253.967 172.915 253.774 172.83 253.595C170.286 247.711 167.392 241.984 164.163 236.445C162.053 232.842 159.759 229.229 157.328 225.635C152.092 217.904 146.207 210.235 140.13 202.67C136.126 197.705 132.005 192.814 127.902 188.022C126.03 185.853 124.557 183.37 123.55 180.688C123.106 179.533 122.735 178.351 122.438 177.149C121.425 172.978 121.136 168.664 121.585 164.395C121.62 164.201 121.616 164.002 121.573 163.809C121.53 163.617 121.449 163.435 121.335 163.274C121.22 163.113 121.075 162.977 120.908 162.873C120.74 162.769 120.553 162.699 120.358 162.669C120.163 162.638 119.964 162.646 119.773 162.693C119.581 162.741 119.401 162.826 119.243 162.943C119.084 163.061 118.951 163.209 118.851 163.379C118.751 163.549 118.686 163.737 118.659 163.933H118.65Z" fill="#212941"/>
<path d="M90.4869 167.084C88.9491 170.365 88.3786 174.017 88.8422 177.611C89.3907 181.539 90.3075 185.406 91.5803 189.161C92.7723 192.612 93.5437 196.195 93.878 199.83C94.6586 212.999 96.8571 226.046 100.435 238.743C103.876 251.64 109.658 263.794 117.492 274.6C121.808 280.384 127.222 285.26 133.424 288.949C139.626 292.638 146.494 295.067 153.636 296.099C160.753 296.987 167.976 296.377 174.843 294.309C181.71 292.24 188.068 288.758 193.51 284.087C193.664 283.963 193.793 283.81 193.888 283.636C193.983 283.463 194.043 283.272 194.064 283.075C194.086 282.878 194.068 282.679 194.013 282.489C193.957 282.299 193.865 282.122 193.741 281.968C193.617 281.813 193.464 281.685 193.29 281.59C193.117 281.495 192.926 281.435 192.729 281.413C192.532 281.392 192.333 281.41 192.143 281.465C191.953 281.52 191.776 281.613 191.622 281.737C186.408 285.858 180.401 288.86 173.976 290.555C167.551 292.251 160.845 292.604 154.277 291.593C141.145 289.464 129.368 282.277 121.469 271.573C114.037 261.24 108.546 249.642 105.265 237.345C101.753 225.002 99.5528 212.324 98.7013 199.519C98.374 196.27 97.65 193.072 96.5453 189.999C94.8736 185.814 93.5207 181.508 92.4981 177.118C91.8933 174.166 92.1335 171.104 93.1911 168.282C93.2801 168.102 93.3318 167.906 93.3431 167.706C93.3544 167.506 93.325 167.306 93.2567 167.117C93.1884 166.929 93.0827 166.756 92.9459 166.61C92.809 166.463 92.6439 166.346 92.4605 166.265C92.2771 166.184 92.0792 166.141 91.8788 166.138C91.6783 166.136 91.4794 166.174 91.2942 166.251C91.1089 166.327 90.941 166.441 90.8007 166.584C90.6603 166.727 90.5505 166.897 90.4777 167.084H90.4869Z" fill="#212941"/>
<path d="M399.267 233.492C399.208 233.3 399.11 233.123 398.981 232.97C398.851 232.818 398.692 232.693 398.513 232.603C398.334 232.514 398.138 232.462 397.939 232.449C397.739 232.437 397.538 232.466 397.35 232.533C397.161 232.601 396.988 232.705 396.841 232.841C396.694 232.977 396.576 233.142 396.494 233.325C396.413 233.507 396.368 233.705 396.365 233.905C396.361 234.105 396.398 234.304 396.474 234.49C401.359 250.198 403.622 281.13 396.039 297.938C380.356 332.868 334.439 333.693 319.612 335.424C318.578 335.452 317.563 335.143 316.72 334.543C315.624 333.814 314.615 332.96 313.714 331.999C313.174 331.406 312.765 330.705 312.516 329.942C315.935 325.208 319.532 320.665 323.145 316.125C325.609 313.045 328.073 309.965 330.537 306.885C335.2 301.136 339.904 295.409 344.65 289.705C357.444 274.24 363.394 267.279 364.706 264.852C365.923 262.662 366.681 261.498 365.677 260.58C364.54 259.542 361.836 261.658 360.656 262.662C359.913 263.362 359.22 264.113 358.583 264.911C358.075 260.934 357.601 258.301 357 254.263C356.99 254.066 356.941 253.872 356.855 253.694C356.77 253.516 356.649 253.357 356.501 253.226C356.353 253.095 356.18 252.996 355.992 252.933C355.805 252.87 355.607 252.845 355.41 252.86C355.213 252.875 355.02 252.929 354.845 253.019C354.669 253.109 354.513 253.234 354.386 253.385C354.259 253.536 354.163 253.712 354.105 253.901C354.047 254.09 354.027 254.288 354.047 254.485C354.047 257.814 353.991 261.125 354.09 264.452C354.142 266.321 354.259 268.188 354.376 270.067C349.873 275.592 345.281 281.01 340.753 286.474C335.992 292.212 331.248 297.953 326.693 303.842C325.218 305.748 323.813 307.707 322.381 309.648C322.381 309.317 322.314 308.99 322.183 308.686C322.052 308.382 321.86 308.108 321.62 307.881C321.379 307.654 321.095 307.479 320.784 307.366C320.473 307.253 320.143 307.204 319.812 307.224C312.907 307.51 306.002 307.615 299.096 307.624C282.902 307.652 266.701 307.153 250.488 307.316C245.985 307.362 241.491 307.138 236.997 307.104C235.014 307.085 233.036 307.104 231.053 307.199C230.442 307.231 229.864 307.483 229.426 307.909C228.987 308.335 228.718 308.906 228.669 309.515C228.225 315.041 228.001 320.576 227.887 326.12C227.637 338.932 228.01 351.77 227.807 364.567C227.166 404.653 227.326 444.73 226.658 484.798C226.374 501.954 225.937 519.1 225.216 536.234C225.204 536.503 225.236 536.773 225.312 537.032C224.468 537.734 223.599 538.405 222.706 539.055C219.931 541.07 216.983 542.835 213.897 544.331C208.648 546.83 203.184 548.852 197.573 550.374C194.897 551.12 192.094 551.511 189.377 552.179C188.09 552.488 186.824 552.883 185.589 553.362C184.433 553.795 183.326 554.351 182.287 555.019C181.362 555.63 180.598 556.456 180.064 557.428C179.758 557.976 179.589 558.589 179.57 559.216C179.551 559.843 179.684 560.466 179.956 561.031C180.893 562.609 182.379 563.788 184.129 564.342C185.484 564.764 186.886 565.022 188.303 565.109C191.176 565.312 194.247 565.001 196.942 565.072C205.021 565.223 213.244 565.029 221.437 564.398C229.63 563.766 237.761 562.713 245.711 561.487C246.191 561.423 246.629 561.181 246.938 560.808C247.247 560.435 247.404 559.959 247.377 559.476C247.217 557.437 247.109 555.401 247.01 553.353C246.912 551.305 246.853 549.33 246.779 547.316C247.076 547.278 247.363 547.186 247.626 547.045C247.988 546.814 248.284 546.495 248.488 546.118C248.692 545.74 248.796 545.318 248.791 544.889C248.55 528.275 249.099 511.77 250.038 495.301C251.443 470.491 253.676 445.756 255.348 420.823C256.408 404.986 256.195 388.773 257.467 372.809C257.932 366.622 258.707 360.463 259.789 354.354C264.514 353.883 269.408 353.652 274.355 353.562C282.055 353.411 289.875 353.599 297.304 353.756C304.388 384.963 310.942 416.32 316.523 447.847C322.144 479.627 326.752 511.576 329.832 543.725C329.59 543.951 329.432 544.252 329.384 544.579C329.336 544.907 329.4 545.241 329.567 545.526C329.691 545.727 329.859 545.897 330.056 546.025C329.952 548.73 329.862 551.443 329.748 554.147C329.65 556.196 329.542 558.231 329.385 560.27C329.357 560.754 329.513 561.23 329.821 561.603C330.13 561.976 330.568 562.219 331.048 562.282C339.004 563.514 347.144 564.558 355.322 565.192C363.499 565.827 371.738 566.018 379.817 565.867C382.515 565.796 385.583 566.107 388.459 565.904C389.875 565.817 391.276 565.559 392.63 565.137C394.38 564.583 395.866 563.405 396.803 561.826C397.075 561.26 397.207 560.638 397.189 560.011C397.171 559.384 397.003 558.771 396.698 558.222C396.161 557.251 395.397 556.425 394.472 555.814C393.434 555.146 392.328 554.59 391.173 554.157C389.937 553.678 388.67 553.283 387.381 552.974C384.668 552.306 381.865 551.914 379.186 551.169C373.575 549.646 368.111 547.624 362.862 545.126C359.777 543.628 356.829 541.863 354.053 539.85C352.213 538.533 350.479 537.075 348.866 535.489C348.826 535.449 348.774 535.424 348.731 535.384C348.577 533.228 348.047 524.89 347.44 516.701C347.086 511.967 346.713 507.285 346.374 503.851C345.475 494.756 344.674 485.654 343.91 476.544C342.121 455.267 340.553 433.975 338.674 412.708C337.365 398.383 336.752 383.629 335.354 369.055C334.498 359.263 333.058 349.532 331.042 339.912C330.934 339.421 330.677 338.976 330.306 338.637C329.934 338.297 329.468 338.081 328.969 338.018C328.818 337.999 328.661 337.968 328.523 337.947C359.298 336.357 388.115 328.146 400.706 300.004C408.975 281.512 406.869 252.209 399.267 233.492ZM243.481 557.862C236.123 558.672 228.62 559.251 221.12 559.642C213.05 560.076 204.978 560.301 197.05 560.061C194.774 560.005 192.22 560.221 189.756 560.15C188.372 560.146 186.996 559.945 185.669 559.553C185.456 559.467 185.25 559.364 185.053 559.245C185.179 559.155 185.312 559.075 185.444 558.995C186.087 558.637 186.757 558.328 187.446 558.071C188.471 557.674 189.52 557.345 190.588 557.086C193.36 556.402 196.212 555.989 198.935 555.207C206.049 553.313 212.909 550.568 219.364 547.029C222.952 544.98 226.282 542.51 229.285 539.671C230.936 540.346 232.574 541.051 234.198 541.806C237.367 543.284 240.49 544.864 243.598 546.404C243.558 548.745 243.508 551.083 243.487 553.421C243.462 554.899 243.462 556.377 243.481 557.862ZM256.783 322.953C255.302 325.912 253.549 328.727 251.547 331.362C250.469 332.865 249.391 334.368 248.307 335.855C247.147 337.784 245.591 339.446 243.743 340.731C243.644 340.911 243.51 341.069 243.348 341.195C243.186 341.32 242.999 341.411 242.8 341.46C242.601 341.51 242.394 341.518 242.192 341.483C241.989 341.449 241.796 341.372 241.625 341.259C241.454 341.146 241.308 340.999 241.197 340.827C241.086 340.654 241.011 340.461 240.979 340.258C240.946 340.056 240.956 339.849 241.008 339.65C241.059 339.452 241.151 339.266 241.279 339.105C242.363 335.465 244.259 332.118 246.823 329.317C248.941 326.198 251.515 323.415 254.458 321.059C254.58 320.9 254.733 320.766 254.908 320.667C255.083 320.567 255.276 320.504 255.476 320.48C255.675 320.456 255.878 320.473 256.071 320.528C256.264 320.584 256.444 320.678 256.601 320.805C256.757 320.931 256.886 321.088 256.981 321.265C257.076 321.442 257.134 321.637 257.153 321.837C257.171 322.037 257.15 322.239 257.089 322.431C257.028 322.623 256.929 322.8 256.799 322.953H256.783ZM314.524 340.633C314.359 340.741 314.174 340.816 313.98 340.852C313.786 340.889 313.586 340.887 313.393 340.847C313.2 340.807 313.016 340.729 312.853 340.617C312.69 340.506 312.55 340.364 312.442 340.198C311.216 339.023 310.063 337.775 308.989 336.459C306.076 332.687 303.597 328.598 301.597 324.272C301.049 322.424 300.578 321.192 301.696 320.514C302.814 319.836 303.575 320.739 305.068 322.143C308.007 325.837 310.629 329.772 312.907 333.906C313.893 335.785 314.78 338.122 314.952 338.526C315.065 338.693 315.144 338.88 315.183 339.078C315.223 339.276 315.223 339.479 315.183 339.677C315.143 339.874 315.064 340.062 314.951 340.228C314.838 340.395 314.693 340.538 314.524 340.648V340.633ZM357.367 547.821C363.823 551.358 370.683 554.104 377.797 555.998C380.519 556.781 383.387 557.193 386.143 557.877C387.212 558.134 388.261 558.464 389.285 558.863C390.124 559.16 390.927 559.552 391.678 560.03C390.196 560.678 388.589 560.993 386.972 560.954C384.508 561.025 381.955 560.809 379.675 560.865C371.747 561.105 363.678 560.865 355.605 560.446C348.105 560.055 340.602 559.476 333.244 558.666C333.263 557.178 333.263 555.703 333.244 554.218C333.22 551.308 333.143 548.394 333.106 545.477C334.149 544.933 335.191 544.381 336.232 543.82C337.375 543.29 338.486 542.736 339.651 542.24C341.948 541.27 344.271 540.392 346.547 539.634C349.777 542.829 353.415 545.581 357.367 547.821Z" fill="#212941"/>
<path d="M112.404 92.2552C107.878 92.1658 103.379 92.9747 99.1678 94.6353C94.9564 96.2959 91.116 98.7751 87.869 101.93C82.9274 106.789 79.5453 113.01 78.1542 119.799C76.7631 126.589 77.4261 133.639 80.0586 140.05C82.6912 146.461 87.1738 151.943 92.9348 155.795C98.6957 159.648 105.474 161.697 112.404 161.682C117.028 161.682 121.606 160.771 125.877 159.001C130.149 157.231 134.029 154.637 137.297 151.366C140.565 148.095 143.157 144.213 144.923 139.94C146.69 135.667 147.597 131.088 147.593 126.465C147.597 119.983 145.783 113.63 142.357 108.126C140.894 105.789 139.146 103.641 137.155 101.732C133.868 98.5911 129.987 96.1371 125.74 94.5141C121.492 92.891 116.964 92.1314 112.42 92.2799L112.404 92.2552ZM112.404 95.2459C120.573 95.5206 128.303 99.0122 133.909 104.96C135.557 106.687 137.01 108.591 138.239 110.637C141.087 115.491 142.521 121.045 142.378 126.671C142.234 132.297 140.52 137.771 137.428 142.473C134.337 147.176 129.992 150.92 124.883 153.282C119.775 155.644 114.108 156.531 108.523 155.841C102.937 155.15 97.6564 152.912 93.2769 149.377C88.8973 145.843 85.5939 141.153 83.74 135.84C81.8861 130.526 81.5557 124.799 82.7861 119.308C84.0165 113.816 86.7587 108.778 90.7026 104.763C93.5189 101.833 96.8851 99.486 100.609 97.8572C104.333 96.2285 108.341 95.3495 112.404 95.2705V95.2459Z" fill="#FF9500"/>
<path d="M408.158 208.017C403.637 198.164 397.78 188.98 390.753 180.725C408.389 160.644 427.21 141.636 447.117 123.804C448.614 133.352 448.195 143.032 449.325 152.589C459.576 141.138 471.526 129.077 484.828 115.478C484.08 104.119 483.325 92.7665 483.689 81.3705C507.718 75.9608 532.168 72.6283 556.768 71.4098C552.456 87.9494 544.661 103.731 537.435 119.15C525.198 145.29 511.381 170.318 497.118 195.377C495.445 182.154 493.024 169.037 491.013 155.863C472.444 171.31 455.007 188.068 438.835 206.009C438.364 196.769 437.846 187.501 437.153 178.27C426.866 187.51 417.441 197.699 407.354 207.13" fill="#3A5AB7"/>
<path d="M43.1201 483.44C52.9176 476.106 64.8033 472.395 75.303 466.309C80.7238 463.161 87.5738 458.56 89.123 452.055C91.9689 440.086 77.3944 443.594 71.7549 447.348C59.1762 455.714 50.9094 470.867 43.1201 483.44Z" fill="#3A5AB7"/>
<path d="M114.492 343.029C113.211 341.954 111.656 341.254 110.002 341.008C108.099 340.781 106.173 340.858 104.294 341.236C104.279 338.985 104.273 336.733 104.242 334.485C104.242 334.226 104.224 333.967 104.221 333.709C106.872 333.336 109.552 333.173 111.77 333.053C112.163 333.063 112.544 332.917 112.829 332.647C113.114 332.377 113.28 332.004 113.291 331.611C113.302 331.218 113.156 330.837 112.886 330.552C112.615 330.267 112.243 330.1 111.85 330.09C110.356 329.911 108.674 329.671 106.894 329.529C105.924 329.452 104.935 329.418 103.949 329.415C103.817 328.371 103.672 327.33 103.558 326.264C103.566 325.88 103.423 325.507 103.161 325.226C102.899 324.944 102.538 324.775 102.154 324.754C101.77 324.733 101.393 324.862 101.102 325.114C100.811 325.366 100.63 325.721 100.595 326.104C100.321 327.336 100.035 328.51 99.8069 329.748C97.9114 330.075 96.0951 330.759 94.4538 331.762C93.0727 332.676 91.9405 333.919 91.1593 335.379C90.3781 336.84 89.9723 338.471 89.9786 340.127C90.0412 341.389 90.4553 342.609 91.1743 343.648C91.8932 344.687 92.8883 345.504 94.0473 346.007C95.7052 346.777 97.5298 347.12 99.3541 347.002C99.388 348.166 99.3911 349.33 99.4373 350.492C99.5266 352.389 99.6067 354.274 99.7668 356.171C99.8069 356.602 99.8685 357.027 99.9147 357.456C98.233 357.477 96.5852 357.428 95.0606 357.372C94.8638 357.355 94.6655 357.376 94.477 357.435C94.2884 357.494 94.1134 357.59 93.9618 357.717C93.8102 357.843 93.6851 357.999 93.5935 358.174C93.502 358.349 93.4458 358.54 93.4282 358.737C93.4106 358.934 93.4319 359.132 93.491 359.32C93.55 359.509 93.6456 359.684 93.7723 359.836C93.899 359.987 94.0543 360.112 94.2294 360.204C94.4045 360.295 94.5959 360.352 94.7926 360.369C96.5205 360.609 98.4024 360.853 100.337 361.007C100.371 361.278 100.395 361.549 100.429 361.82C100.598 363.083 100.792 364.321 100.98 365.574C100.983 365.775 101.026 365.974 101.106 366.158C101.187 366.342 101.303 366.508 101.449 366.646C101.594 366.785 101.766 366.893 101.954 366.964C102.142 367.035 102.343 367.067 102.543 367.06C102.744 367.052 102.941 367.004 103.123 366.919C103.305 366.834 103.469 366.714 103.603 366.565C103.738 366.416 103.842 366.241 103.908 366.052C103.974 365.862 104.002 365.661 103.99 365.46C104.076 364.016 104.153 362.574 104.239 361.133C104.667 361.133 105.101 361.133 105.526 361.118C108.134 361.014 110.694 360.391 113.057 359.285C114.505 358.547 115.734 357.443 116.624 356.084C117.513 354.724 118.031 353.155 118.127 351.533C118.237 349.929 117.964 348.322 117.333 346.843C116.701 345.365 115.727 344.058 114.492 343.029ZM96.271 341.489C95.825 341.307 95.4555 340.976 95.2254 340.553C94.9952 340.13 94.9185 339.64 95.0082 339.167C95.27 337.817 96.0522 336.624 97.1858 335.846C97.8528 335.395 98.5781 335.036 99.3418 334.781C99.2463 337.161 99.2401 339.548 99.2463 341.942V341.985C98.2283 342.08 97.203 341.909 96.271 341.489ZM110.879 355.244C109.099 356.227 107.143 356.855 105.123 357.092C104.889 357.126 104.649 357.138 104.415 357.166C104.439 355.996 104.467 354.822 104.467 353.649C104.467 351.209 104.402 348.764 104.356 346.321C105.507 346.089 106.673 345.945 107.846 345.89C109.089 345.773 110.33 346.126 111.326 346.879C111.966 347.406 112.473 348.076 112.809 348.834C113.144 349.592 113.298 350.418 113.257 351.246C113.237 352.061 113.008 352.856 112.591 353.556C112.175 354.256 111.585 354.838 110.879 355.244Z" fill="#FF9500"/>
<path d="M122.474 125.11C121.191 124.035 119.636 123.336 117.98 123.089C116.077 122.865 114.151 122.941 112.273 123.317C112.273 121.066 112.254 118.817 112.224 116.569C112.224 116.307 112.205 116.051 112.202 115.793C114.851 115.417 117.533 115.257 119.751 115.137C120.135 115.133 120.503 114.98 120.777 114.711C121.051 114.441 121.21 114.076 121.221 113.692C121.231 113.308 121.092 112.935 120.833 112.651C120.574 112.367 120.215 112.195 119.831 112.17C118.334 111.995 116.653 111.755 114.875 111.613C113.902 111.536 112.917 111.499 111.931 111.499C111.795 110.452 111.651 109.411 111.537 108.345C111.544 107.96 111.402 107.588 111.14 107.306C110.878 107.025 110.517 106.856 110.133 106.835C109.748 106.814 109.371 106.943 109.08 107.195C108.79 107.447 108.608 107.802 108.574 108.185C108.3 109.417 108.013 110.59 107.785 111.832C105.89 112.158 104.075 112.841 102.435 113.846C101.054 114.759 99.921 116.001 99.1396 117.461C98.3583 118.921 97.9529 120.552 97.9601 122.208C98.0218 123.47 98.4352 124.69 99.1536 125.73C99.8721 126.769 100.867 127.587 102.026 128.091C103.685 128.861 105.51 129.202 107.336 129.083C107.366 130.247 107.369 131.411 107.419 132.575C107.505 134.47 107.588 136.358 107.745 138.252C107.785 138.683 107.85 139.108 107.893 139.536C106.211 139.558 104.564 139.512 103.039 139.453C102.84 139.431 102.638 139.45 102.446 139.507C102.254 139.564 102.075 139.659 101.92 139.786C101.765 139.913 101.637 140.07 101.544 140.247C101.45 140.424 101.393 140.618 101.375 140.818C101.357 141.018 101.38 141.219 101.441 141.41C101.502 141.6 101.601 141.777 101.731 141.929C101.861 142.082 102.021 142.206 102.2 142.296C102.379 142.386 102.574 142.44 102.774 142.453C104.502 142.69 106.381 142.937 108.303 143.091C108.337 143.362 108.361 143.63 108.395 143.904C108.564 145.167 108.762 146.402 108.946 147.658C108.95 147.859 108.993 148.057 109.074 148.241C109.154 148.424 109.271 148.59 109.417 148.728C109.563 148.866 109.734 148.974 109.922 149.044C110.11 149.115 110.31 149.147 110.511 149.139C110.711 149.132 110.908 149.084 111.09 148.999C111.272 148.914 111.435 148.793 111.57 148.644C111.704 148.496 111.808 148.321 111.874 148.132C111.94 147.942 111.968 147.742 111.956 147.541C112.042 146.1 112.119 144.655 112.205 143.214C112.636 143.214 113.067 143.214 113.496 143.214C116.102 143.111 118.661 142.488 121.023 141.381C122.471 140.643 123.7 139.54 124.59 138.181C125.48 136.822 125.999 135.254 126.096 133.632C126.21 132.026 125.941 130.416 125.312 128.934C124.682 127.453 123.709 126.142 122.474 125.11ZM104.249 123.57C103.803 123.388 103.434 123.057 103.204 122.634C102.974 122.21 102.897 121.721 102.987 121.247C103.249 119.897 104.032 118.704 105.167 117.927C105.834 117.476 106.559 117.118 107.323 116.864C107.228 119.242 107.222 121.629 107.228 124.022V124.065C106.209 124.164 105.182 123.993 104.249 123.57ZM118.852 137.325C117.07 138.306 115.115 138.934 113.095 139.173C112.861 139.207 112.621 139.216 112.384 139.247C112.411 138.073 112.436 136.903 112.436 135.729C112.436 133.287 112.371 130.845 112.328 128.402C113.479 128.17 114.645 128.025 115.818 127.968C117.06 127.854 118.299 128.207 119.295 128.956C119.935 129.484 120.444 130.154 120.779 130.913C121.114 131.672 121.267 132.498 121.226 133.327C121.207 134.141 120.978 134.936 120.562 135.637C120.146 136.337 119.557 136.918 118.852 137.325Z" fill="#FF9500"/>
<path d="M26.161 450.779C26.2338 450.793 26.3057 450.81 26.3766 450.832C27.3568 451.029 28.3755 450.837 29.2163 450.296C30.2979 449.784 31.4172 449.356 32.5643 449.015C33.5243 448.756 34.5255 448.687 35.5119 448.811C36.5219 448.962 37.476 449.371 38.2817 449.998C39.0873 450.626 39.7172 451.451 40.1103 452.393C40.4978 453.257 40.6922 454.195 40.68 455.141C40.6678 456.087 40.4492 457.02 40.0395 457.873C39.3582 459.128 38.4124 460.22 37.2675 461.073C35.7557 462.116 34.116 462.959 32.3887 463.583C32.2141 463.677 32.0227 463.734 31.8255 463.753C31.6283 463.772 31.4293 463.752 31.2402 463.693C31.051 463.634 30.8754 463.538 30.7236 463.411C30.5718 463.284 30.4468 463.128 30.3559 462.952C30.1702 462.598 30.1324 462.185 30.2508 461.803C30.3691 461.422 30.634 461.102 30.9873 460.916C32.2939 460.103 33.5021 459.142 34.5879 458.051C35.1524 457.448 35.5874 456.735 35.8661 455.957C35.9418 455.705 35.9637 455.44 35.9303 455.179C35.8969 454.918 35.8089 454.666 35.672 454.442C35.6008 454.268 35.4875 454.116 35.3422 453.997C35.197 453.879 35.0245 453.799 34.8404 453.764C33.6846 453.797 32.5594 454.143 31.5849 454.765C30.3833 455.351 29.0979 455.745 27.7749 455.935C26.7428 456.045 25.6992 455.924 24.7195 455.581C23.9913 455.379 23.3191 455.012 22.7548 454.509C22.1904 454.006 21.7488 453.38 21.464 452.68C21.0973 451.7 21.0648 450.627 21.3716 449.628C21.8412 448.114 22.6757 446.739 23.8017 445.624C24.5282 444.907 25.3271 444.268 26.1856 443.717C27.0682 443.117 28.0248 442.633 29.0315 442.279C29.2063 442.193 29.3962 442.142 29.5905 442.13C29.7849 442.117 29.9798 442.143 30.1641 442.206C30.3484 442.268 30.5186 442.367 30.6648 442.495C30.8111 442.624 30.9306 442.78 31.0166 442.955C31.1025 443.129 31.1532 443.319 31.1658 443.514C31.1783 443.708 31.1525 443.903 31.0897 444.087C31.0269 444.272 30.9284 444.442 30.7999 444.588C30.6714 444.734 30.5153 444.854 30.3405 444.94C29.8641 445.395 29.4263 445.888 29.0315 446.415C28.4155 447.148 27.7995 448.044 27.1835 448.932C26.7533 449.475 26.3603 450.047 26.007 450.644H25.9854C25.97 450.644 25.97 450.675 25.9854 450.687C25.9115 450.884 25.9331 450.995 26.1271 450.995C26.201 450.995 26.1795 450.86 26.1271 450.755C26.0754 450.747 26.0266 450.725 25.9854 450.693L26.007 450.647C26.084 450.644 26.1333 450.706 26.161 450.779Z" fill="#FF9500"/>
<path d="M79.276 503.672C79.2052 502.062 79.1066 500.46 78.968 498.858C78.7709 496.456 78.4968 494.063 78.2381 491.67C77.8623 488.084 77.4896 484.49 77.08 480.89C76.8397 478.755 76.6611 476.611 76.3161 474.492C76.1468 473.418 75.9065 472.376 75.657 471.317C75.4075 470.257 75.1211 469.238 74.8439 468.16C74.8096 467.768 74.6211 467.406 74.3199 467.154C74.0187 466.901 73.6294 466.778 73.2377 466.812C72.846 466.847 72.484 467.035 72.2313 467.336C71.9786 467.638 71.8559 468.027 71.8902 468.419C71.8009 469.592 71.6931 470.723 71.6407 471.905C71.5883 473.088 71.5606 474.212 71.6068 475.376C71.73 478.829 72.1735 482.263 72.5308 485.697C72.7156 487.499 72.9436 489.292 73.1468 491.087C69.8328 490.881 66.5341 490.684 63.2262 490.592C60.8422 490.521 58.4491 490.493 56.0621 490.521C53.1699 490.555 50.2778 490.656 47.3888 490.779C47.2933 489.732 47.1886 488.697 46.9976 487.65C46.6403 485.744 46.0983 483.877 45.5531 482.008C45.1014 480.443 44.6004 478.892 44.0501 477.354C43.72 476.32 43.3271 475.306 42.8735 474.32C42.5938 473.795 42.2789 473.29 41.931 472.808L41.8756 472.737C43.4888 471.78 44.9784 470.629 46.3108 469.309C48.4194 467.201 50.0901 464.696 51.2266 461.939C52.3631 459.183 52.943 456.228 52.9328 453.247C52.9298 450.278 52.3282 447.341 51.164 444.61C49.9997 441.879 48.2967 439.411 46.1568 437.354C44.0333 435.37 41.5312 433.835 38.8003 432.841C36.0694 431.847 33.166 431.414 30.264 431.57V431.548C27.3782 431.457 24.503 431.941 21.8061 432.972C19.1093 434.003 16.6447 435.561 14.556 437.554C12.4315 439.586 10.7316 442.019 9.55466 444.713C8.37775 447.407 7.74732 450.307 7.6999 453.247C7.67136 456.907 8.53485 460.518 10.2157 463.769C11.8966 467.021 14.3442 469.813 17.3468 471.906C20.3495 473.999 23.8167 475.329 27.4487 475.78C31.0807 476.232 34.7681 475.792 38.1919 474.499C38.2135 474.745 38.2227 474.985 38.2627 475.244C38.3729 475.842 38.5189 476.432 38.7001 477.012C39.1991 478.749 39.7843 480.458 40.3202 482.183C40.8561 483.908 41.3797 485.645 41.9372 487.37C42.2452 488.294 42.5532 489.203 42.9012 490.111C43.0152 490.419 43.1507 490.693 43.2708 490.983L38.1827 491.229C32.8019 491.568 27.2918 491.685 21.8587 492.396C20.3895 492.591 18.9388 492.84 17.4974 493.16C15.3263 493.659 13.1828 494.271 11.0756 494.993C10.882 495.031 10.6981 495.108 10.5346 495.218C10.371 495.329 10.2312 495.471 10.1233 495.636C10.0154 495.801 9.9416 495.986 9.90622 496.181C9.87084 496.375 9.8746 496.574 9.91727 496.767C9.95995 496.959 10.0407 497.141 10.1547 497.302C10.2688 497.463 10.4139 497.6 10.5814 497.704C10.749 497.808 10.9357 497.878 11.1306 497.909C11.3255 497.94 11.5246 497.932 11.7162 497.885C14.1802 497.596 16.6227 497.549 19.1082 497.414C19.0789 498.133 19.0933 498.853 19.1513 499.57C19.3639 501.75 19.8721 503.882 20.2971 506.038C20.6729 507.97 21.0763 509.892 21.5075 511.804C21.8155 513.085 22.0866 514.357 22.4315 515.61C22.7765 516.864 23.2139 518.121 23.6389 519.365C23.9253 520.212 24.2364 521.013 24.5383 521.847C24.6159 522.24 24.8464 522.586 25.1791 522.809C25.5118 523.032 25.9194 523.114 26.3123 523.036C26.7053 522.959 27.0513 522.728 27.2742 522.396C27.4972 522.063 27.5788 521.655 27.5012 521.262C27.4581 520.338 27.4304 519.43 27.3688 518.49C27.2702 517.11 27.1747 515.758 26.9869 514.388C26.6789 512.145 26.1953 509.922 25.7549 507.689C25.3883 505.819 25.0157 503.959 24.6153 502.102C24.3504 500.87 24.1348 499.61 23.7713 498.406C23.6358 497.968 23.4633 497.559 23.2878 497.143C24.7385 497.038 26.1861 496.93 27.6398 496.835C31.2619 496.641 34.8655 496.462 38.4352 496.274C42.6979 496.019 46.9607 495.821 51.2111 495.6C54.0601 495.449 56.8998 495.322 59.7365 495.144C61.7816 495.011 63.8206 494.851 65.8595 494.697C65.7076 495.091 65.5881 495.497 65.5023 495.911C65.2953 497.34 65.174 498.779 65.1388 500.223C65.0495 501.532 64.9787 502.828 64.9417 504.137C64.9171 505.009 64.8801 505.89 64.9232 506.762C64.9664 507.633 65.0834 508.514 65.2312 509.404C65.3113 510.02 65.4253 510.572 65.5392 511.175C65.5287 511.373 65.5572 511.571 65.6231 511.757C65.689 511.944 65.791 512.115 65.9233 512.263C66.0556 512.41 66.2155 512.529 66.394 512.615C66.5726 512.7 66.7661 512.749 66.9637 512.76C67.1613 512.77 67.359 512.742 67.5456 512.676C67.7322 512.61 67.9039 512.508 68.0511 512.376C68.1982 512.244 68.3179 512.084 68.4032 511.905C68.4885 511.727 68.5379 511.533 68.5484 511.335C68.7147 510.747 68.8841 510.205 69.035 509.62C69.2568 508.754 69.4724 507.92 69.6233 507.039C69.7742 506.158 69.8451 505.311 69.9313 504.439C70.0576 503.133 70.1438 501.824 70.2085 500.515C70.3414 499.057 70.3774 497.592 70.3163 496.129C70.2571 495.629 70.154 495.134 70.0083 494.651C69.9837 494.562 69.9559 494.488 69.9313 494.402C71.111 494.318 72.2906 494.229 73.4764 494.158C73.5103 494.42 73.5349 494.685 73.5688 494.947C73.8244 497.001 74.0832 499.055 74.422 501.107C74.7607 503.158 75.1796 505.191 75.5954 507.221C75.8726 508.591 76.1929 509.925 76.4855 511.286C76.5386 511.681 76.7445 512.039 77.0589 512.284C77.3734 512.529 77.7713 512.641 78.1672 512.595C78.364 512.572 78.5541 512.509 78.7266 512.412C78.8991 512.314 79.0506 512.184 79.1723 512.027C79.294 511.871 79.3835 511.692 79.4357 511.501C79.4879 511.31 79.5016 511.11 79.4762 510.913C79.427 508.508 79.39 506.102 79.276 503.672ZM17.7315 465.77C14.3705 462.465 12.4594 457.96 12.4185 453.247C12.3093 448.47 14.0993 443.846 17.3957 440.388C19.0514 438.619 21.0392 437.195 23.2456 436.195C25.452 435.195 27.8337 434.64 30.2547 434.56V434.536C35.1072 434.812 39.6561 436.986 42.9197 440.588C43.8714 441.619 44.7108 442.749 45.4237 443.957C47.1027 446.764 47.9825 449.976 47.9678 453.247C47.9569 456.745 46.9116 460.162 44.9635 463.067C43.0154 465.973 40.2515 468.238 37.0195 469.576C33.7876 470.915 30.2319 471.268 26.7998 470.59C23.3678 469.913 20.2127 468.236 17.7315 465.77Z" fill="#FF9500"/>
<path d="M144.856 461.273C140.193 461.184 135.567 460.925 130.919 460.811C127.814 460.731 124.71 460.722 121.605 460.731C116.742 460.731 111.878 460.845 107.012 461.008C107.514 455.393 107.791 449.748 107.776 444.068C107.757 440.224 107.606 436.368 107.468 432.546C107.246 426.805 106.935 421.085 106.852 415.397C106.71 409.046 106.993 402.682 107.181 396.322C107.261 393.55 107.36 390.803 107.323 388.055C107.304 386.072 107.209 384.094 107.073 382.111C107.018 381.23 106.916 380.358 106.839 379.487C115.744 378.898 124.091 374.94 130.183 368.418C136.275 361.896 139.655 353.299 139.635 344.375C139.633 337.89 137.813 331.536 134.381 326.033C132.919 323.695 131.172 321.548 129.182 319.639C125.894 316.499 122.013 314.045 117.766 312.422C113.519 310.799 108.991 310.039 104.446 310.187V310.162C99.9194 310.073 95.42 310.883 91.208 312.544C86.9961 314.205 83.1553 316.685 79.9079 319.84C75.0274 324.627 71.6633 330.744 70.2344 337.43C68.8055 344.115 69.375 351.073 71.872 357.437C74.369 363.801 78.6831 369.29 84.277 373.22C89.871 377.15 96.4975 379.348 103.331 379.539C103.263 380.383 103.208 381.224 103.14 382.071C102.989 384.021 102.805 385.961 102.678 387.908C102.42 391.816 102.259 395.731 102.062 399.645C101.822 404.931 101.687 410.207 101.785 415.492C101.973 423.109 102.383 430.806 102.854 438.493C103.162 443.566 103.513 448.63 103.679 453.693C103.766 456.176 103.814 458.654 103.824 461.128C101.961 461.205 100.097 461.252 98.2338 461.353C96.2596 461.486 94.196 461.495 92.1139 461.621C90.7063 461.701 89.2926 461.815 87.9035 462.022C85.5052 462.36 83.1494 462.951 80.875 463.783C80.6861 463.83 80.5083 463.913 80.352 464.029C80.1957 464.145 80.064 464.29 79.9645 464.457C79.8651 464.624 79.7999 464.81 79.7727 465.002C79.7455 465.195 79.7569 465.391 79.8062 465.579C79.9048 465.96 80.1505 466.287 80.4894 466.487C80.8283 466.687 81.2327 466.745 81.6142 466.648C82.6978 466.516 83.7875 466.438 84.879 466.417C86.6315 466.346 88.4117 466.435 90.2074 466.451C93.0194 466.488 95.8407 466.451 98.5234 466.337C105.01 465.97 111.487 465.884 117.964 465.748C122.307 465.653 126.65 465.597 130.993 465.385C131.741 465.348 132.49 465.28 133.238 465.231C133.13 465.591 133.004 465.945 132.93 466.318C132.761 467.03 132.622 467.741 132.52 468.474C132.157 470.994 131.978 473.538 131.729 476.076C131.559 477.763 131.421 479.464 131.267 481.164C131.168 482.396 131.07 483.6 131.017 484.829C130.98 485.648 130.953 486.458 130.962 487.293C130.99 489.366 131.122 491.383 131.248 493.453C131.231 493.847 131.37 494.233 131.634 494.526C131.898 494.819 132.267 494.997 132.661 495.022C133.055 495.046 133.442 494.914 133.741 494.656C134.039 494.397 134.223 494.031 134.254 493.638C134.562 491.947 134.951 490.311 135.262 488.62C135.465 487.499 135.662 486.387 135.813 485.266C136.044 483.585 136.213 481.894 136.392 480.203C136.657 477.659 136.916 475.105 137.122 472.561C137.236 471.021 137.405 469.481 137.387 467.969C137.368 467.194 137.307 466.421 137.202 465.653C137.174 465.425 137.128 465.206 137.097 464.984C139.728 464.775 142.361 464.538 144.994 464.292C145.386 464.267 145.753 464.09 146.017 463.799C146.28 463.508 146.42 463.125 146.407 462.733C146.393 462.341 146.227 461.969 145.944 461.697C145.661 461.425 145.282 461.274 144.89 461.276L144.856 461.273ZM74.0836 344.384C74.0278 340.376 74.762 336.396 76.2444 332.672C77.7267 328.948 79.9282 325.553 82.723 322.679C85.5401 319.749 88.9068 317.403 92.631 315.774C96.3552 314.145 100.364 313.266 104.428 313.187V313.162C112.597 313.437 120.327 316.93 125.932 322.879C127.58 324.606 129.032 326.508 130.263 328.553C132.677 332.543 134.137 337.037 134.529 341.684C134.921 346.331 134.234 351.006 132.521 355.344C130.809 359.682 128.117 363.566 124.657 366.692C121.196 369.819 117.06 372.104 112.572 373.369C108.083 374.634 103.362 374.844 98.7785 373.985C94.1947 373.125 89.8715 371.218 86.1461 368.412C82.4206 365.607 79.3937 361.979 77.3013 357.811C75.209 353.643 74.1077 349.048 74.0836 344.384Z" fill="#FF9500"/>
<path d="M138.092 539.105C138.163 535.67 138.35 532.27 138.625 528.864C138.663 528.344 138.586 527.822 138.398 527.336C138.211 526.85 137.918 526.411 137.54 526.052C137.162 525.695 136.708 525.428 136.212 525.27C135.716 525.113 135.191 525.07 134.676 525.143C134.781 520.588 134.959 516.023 135.021 511.468C135.561 511.509 136.104 511.442 136.617 511.269C137.131 511.096 137.604 510.822 138.009 510.462C138.415 510.103 138.743 509.665 138.976 509.176C139.209 508.687 139.341 508.156 139.364 507.615C139.462 505.151 139.524 502.687 139.595 500.201C139.617 499.458 139.489 498.718 139.221 498.025C138.953 497.332 138.548 496.699 138.032 496.164C137.515 495.63 136.897 495.204 136.213 494.912C135.529 494.619 134.794 494.467 134.051 494.463C128.34 494.482 122.618 494.731 116.923 494.845C108.265 495.024 99.4993 495.095 90.8322 495.815C89.443 495.943 88.1527 496.589 87.2171 497.624C86.2815 498.659 85.7689 500.007 85.781 501.402C85.781 505.49 85.6547 509.571 85.6825 513.658C74.6129 514.314 63.3217 513.907 52.2429 513.879C46.2277 513.861 40.1046 514.495 34.0709 514.36C33.3406 514.328 32.6115 514.447 31.9292 514.709C31.247 514.972 30.6262 515.372 30.1059 515.886C29.5855 516.399 29.1767 517.015 28.905 517.693C28.6333 518.372 28.5046 519.099 28.5269 519.83C28.7055 527.13 28.8349 534.451 29.3277 541.698L138.092 539.105Z" fill="#3A5AB7"/>
<path d="M21.6061 544.347C24.6584 544.569 27.7015 544.738 30.7722 544.809C33.843 544.88 36.8675 544.898 39.9291 544.809C45.587 544.63 51.2542 544.193 56.9245 543.749C65.376 543.118 73.8214 542.388 82.2205 542.034C91.3959 541.606 100.577 541.633 109.759 541.615C115.919 541.615 122.079 541.596 128.214 541.498C134.828 541.391 141.434 541.148 148.031 540.768C148.228 540.763 148.423 540.72 148.603 540.64C148.784 540.56 148.947 540.445 149.083 540.303C149.22 540.16 149.326 539.991 149.398 539.807C149.469 539.623 149.503 539.427 149.499 539.229C149.494 539.032 149.45 538.838 149.371 538.657C149.291 538.476 149.176 538.313 149.033 538.177C148.89 538.041 148.722 537.934 148.538 537.863C148.354 537.791 148.157 537.757 147.96 537.762C140.066 537.725 132.194 537.395 124.299 537.146C119.023 536.976 113.757 536.838 108.478 536.745C99.6533 536.594 90.8261 536.647 81.9895 537.001C77.9393 537.17 73.883 537.42 69.8266 537.722C60.1893 538.436 50.5089 539.262 40.8746 540.01C37.6714 540.26 34.4682 540.552 31.2743 540.793C28.0803 541.033 24.8679 541.264 21.6647 541.39C21.47 541.386 21.2764 541.42 21.0949 541.49C20.9134 541.561 20.7476 541.666 20.6071 541.801C20.4666 541.936 20.3541 542.097 20.276 542.276C20.198 542.454 20.156 542.646 20.1524 542.841C20.1498 543.232 20.3005 543.609 20.5722 543.89C20.8439 544.172 21.2151 544.336 21.6061 544.347Z" fill="#212941"/>
<path d="M85.3161 519.858C85.1374 520.267 85.0081 520.498 84.8695 520.874C84.7371 521.197 84.6421 521.534 84.5861 521.878C84.5305 522.53 84.5388 523.186 84.6108 523.837C84.774 526.609 84.5954 526.169 84.9188 529.132C84.9914 529.623 85.0943 530.11 85.2268 530.588C85.3962 531.248 85.6364 531.897 85.9198 532.769C85.9177 532.972 85.9566 533.173 86.0341 533.361C86.1115 533.548 86.226 533.718 86.3706 533.86C86.5152 534.002 86.687 534.114 86.8757 534.188C87.0644 534.263 87.2662 534.298 87.469 534.293C87.6717 534.287 87.8713 534.241 88.0558 534.157C88.2403 534.073 88.4059 533.952 88.5428 533.802C88.6797 533.653 88.7849 533.477 88.8523 533.286C88.9197 533.094 88.9479 532.891 88.9351 532.689C89.0798 532.19 89.2123 531.808 89.3108 531.38C89.4871 530.741 89.6208 530.09 89.7112 529.433C89.8528 528.339 89.8858 527.233 89.8098 526.132C89.7965 525.182 89.7245 524.233 89.5942 523.292C89.562 522.683 89.4702 522.078 89.3201 521.487C89.2091 521.156 89.0591 520.84 88.8735 520.545C88.6794 520.197 88.51 519.993 88.2575 519.621C88.2417 519.427 88.1879 519.238 88.0991 519.065C88.0103 518.891 87.8883 518.737 87.74 518.611C87.5917 518.486 87.42 518.39 87.2348 518.33C87.0496 518.271 86.8544 518.248 86.6605 518.264C86.4666 518.28 86.2776 518.333 86.1045 518.422C85.9313 518.511 85.7774 518.633 85.6514 518.781C85.5254 518.93 85.4299 519.101 85.3702 519.287C85.3106 519.472 85.288 519.667 85.3038 519.861L85.3161 519.858Z" fill="#212941"/>
<path d="M92.3998 513.852C93.7888 514.04 95.0239 514.28 96.2806 514.403C97.1707 514.483 98.0238 514.52 98.8524 514.529C102.259 514.572 105.16 514.403 107.831 514.342C109.922 514.298 111.878 514.234 113.818 514.172C115.241 514.12 116.649 514.083 118.105 513.993C119.029 513.932 119.984 513.861 120.964 513.762C123.16 513.531 125.457 513.174 128.1 512.811C128.297 512.804 128.492 512.759 128.671 512.677C128.851 512.596 129.013 512.48 129.148 512.336C129.283 512.192 129.389 512.022 129.458 511.837C129.528 511.653 129.56 511.456 129.554 511.258C129.547 511.061 129.502 510.867 129.421 510.687C129.339 510.507 129.223 510.345 129.079 510.21C128.935 510.075 128.765 509.97 128.58 509.9C128.396 509.831 128.199 509.798 128.001 509.805C126.791 509.706 125.67 509.589 124.567 509.497C122.719 509.364 121.053 509.247 119.424 509.189C117.653 509.127 115.971 509.155 114.28 509.161C111.798 509.161 109.306 509.216 106.549 509.306C103.987 509.386 101.184 509.367 97.953 509.715C97.029 509.82 96.105 509.989 95.104 510.196C94.18 510.381 93.2714 510.63 92.2673 510.87C92.0728 510.879 91.8818 510.926 91.7054 511.008C91.529 511.091 91.3706 511.207 91.2392 511.351C91.1077 511.495 91.0059 511.663 90.9395 511.846C90.8731 512.029 90.8434 512.224 90.8521 512.418C90.8608 512.613 90.9077 512.804 90.9902 512.98C91.0727 513.156 91.1891 513.315 91.3328 513.446C91.4765 513.578 91.6447 513.679 91.8278 513.746C92.0109 513.812 92.2052 513.842 92.3998 513.833V513.852Z" fill="#212941"/>
<path d="M95.4615 527.484C96.3855 527.696 97.1678 527.903 97.9871 528.054C98.9111 528.214 99.715 528.346 100.525 528.408C103.068 528.559 105.617 528.565 108.16 528.426C110.535 528.374 112.565 528.285 114.992 528.161C116.328 528.091 117.795 528.035 119.504 527.893C120.847 527.776 122.316 527.601 124.022 527.385C124.968 527.271 125.953 527.111 127.041 526.96C127.239 526.959 127.435 526.919 127.618 526.842C127.8 526.765 127.966 526.653 128.105 526.512C128.244 526.371 128.355 526.204 128.429 526.02C128.504 525.836 128.542 525.64 128.541 525.442C128.539 525.244 128.499 525.048 128.422 524.865C128.345 524.682 128.233 524.517 128.092 524.377C127.951 524.238 127.784 524.128 127.6 524.053C127.417 523.978 127.22 523.941 127.022 523.942C124.558 523.677 122.504 523.418 120.677 523.283C119.753 523.212 118.925 523.187 118.133 523.169C116.729 523.141 115.481 523.169 114.326 523.196C112.478 523.23 110.818 523.283 109.023 523.338C106.833 523.418 104.421 523.372 101.138 523.578C100.417 523.622 99.6688 523.692 98.8772 523.819C97.7931 523.988 96.7212 524.271 95.4707 524.521C95.2762 524.521 95.0835 524.559 94.9038 524.634C94.7241 524.708 94.5607 524.817 94.4232 524.955C94.2856 525.092 94.1765 525.256 94.102 525.435C94.0276 525.615 93.9893 525.808 93.9893 526.002C93.9893 526.197 94.0276 526.39 94.102 526.569C94.1765 526.749 94.2856 526.912 94.4232 527.05C94.5607 527.187 94.7241 527.297 94.9038 527.371C95.0835 527.446 95.2762 527.484 95.4707 527.484H95.4615Z" fill="#212941"/>
<path d="M34.2775 529.948C36.2271 530.093 37.9735 530.305 39.689 530.357C40.9426 530.404 42.1253 530.357 43.2741 530.314C47.2597 530.179 50.6661 529.948 53.9771 529.797C57.5007 529.637 60.8917 529.523 64.6832 529.335C66.4789 529.246 68.3792 529.147 70.4059 528.978C73.0023 528.765 75.7959 528.417 78.9898 528.097C79.1872 528.093 79.382 528.051 79.563 527.972C79.7441 527.894 79.9078 527.78 80.045 527.638C80.1821 527.496 80.2899 527.328 80.3623 527.145C80.4346 526.961 80.4701 526.765 80.4667 526.568C80.4632 526.37 80.421 526.175 80.3423 525.994C80.2635 525.813 80.1499 525.65 80.0079 525.512C79.8659 525.375 79.6983 525.267 79.5146 525.195C79.331 525.123 79.1348 525.087 78.9375 525.091C77.3543 524.967 75.8575 524.841 74.4437 524.752C72.0075 524.61 69.7899 524.484 67.6985 524.444C63.5806 524.373 59.9985 524.505 56.4535 524.632C53.4104 524.736 50.3828 524.881 47.004 525.121C45.0451 525.254 42.9723 525.343 40.7301 525.636C39.6428 525.778 38.5494 525.993 37.3913 526.224C36.3072 526.446 35.2353 526.723 34.0742 526.988C33.8749 526.994 33.6788 527.04 33.4977 527.124C33.3166 527.207 33.1543 527.326 33.0204 527.474C32.8865 527.622 32.7838 527.795 32.7185 527.983C32.6531 528.172 32.6265 528.372 32.6402 528.571C32.6539 528.769 32.7076 528.964 32.7981 529.141C32.8887 529.319 33.0141 529.477 33.167 529.605C33.3199 529.733 33.497 529.828 33.6878 529.886C33.8787 529.944 34.0792 529.963 34.2775 529.942V529.948Z" fill="#212941"/>
<path d="M43.3107 388.523C44.1454 389.315 44.9031 390.064 45.6854 390.757C46.5201 391.52 47.3209 392.226 48.1309 392.866C49.8403 394.209 51.4789 395.293 52.9449 396.362C55.5629 398.275 57.7867 399.956 59.9119 401.737C62.4129 403.819 64.7352 406.079 67.6119 408.836C69.0071 410.182 70.5471 411.608 72.2719 413.207C73.2606 414.131 74.3201 415.076 75.4413 416.108C75.7067 416.407 76.08 416.587 76.4788 416.611C76.8776 416.634 77.2694 416.498 77.568 416.233C77.8666 415.967 78.0474 415.594 78.0708 415.195C78.0942 414.796 77.9582 414.405 77.6927 414.106C76.7687 412.859 75.9464 411.704 75.1209 410.626C73.6518 408.722 72.3274 407.05 71.0184 405.571C68.5968 402.82 65.9736 400.254 63.1705 397.893C60.8332 395.9 58.3947 394.029 55.8648 392.287C54.3433 391.237 52.7232 390.064 50.8197 388.942C49.9204 388.416 48.9717 387.935 47.9369 387.43C46.9944 386.965 46.0242 386.549 44.9739 386.069C44.6471 385.849 44.2467 385.769 43.8605 385.845C43.4744 385.921 43.1342 386.147 42.9149 386.474C42.6956 386.801 42.615 387.201 42.691 387.587C42.7669 387.973 42.9932 388.313 43.3199 388.533L43.3107 388.523Z" fill="#212941"/>
<path d="M128.839 417.833C130.126 416.659 131.337 415.618 132.458 414.559C133.249 413.801 133.998 413.074 134.675 412.344C135.821 411.143 136.831 409.957 137.808 408.873C142.428 403.739 145.948 400.234 150.436 395.98C151.976 394.511 153.657 392.962 155.462 391.175C157.634 389.019 159.956 386.531 162.759 383.629C162.908 383.498 163.03 383.338 163.117 383.159C163.205 382.981 163.256 382.786 163.268 382.587C163.279 382.389 163.252 382.19 163.186 382.002C163.12 381.814 163.018 381.641 162.885 381.493C162.752 381.345 162.591 381.224 162.412 381.139C162.232 381.053 162.037 381.004 161.838 380.994C161.64 380.984 161.441 381.014 161.254 381.081C161.066 381.149 160.894 381.253 160.748 381.387C159.362 382.428 158.071 383.371 156.861 384.298C154.723 385.942 152.829 387.402 151.129 388.816C147.553 391.807 144.784 394.397 142.07 397.04C139.739 399.325 137.481 401.684 134.986 404.539C133.616 406.104 132.094 407.78 130.582 409.776C129.88 410.7 129.211 411.713 128.5 412.791C127.859 413.789 127.243 414.821 126.569 415.932C126.318 416.233 126.196 416.622 126.232 417.012C126.267 417.403 126.456 417.763 126.757 418.014C127.059 418.262 127.446 418.382 127.835 418.348C128.224 418.314 128.584 418.129 128.839 417.833Z" fill="#212941"/>
<path d="M226.023 527.182C223.744 527.148 221.462 527.111 219.173 527.083C219.562 520.532 219.891 513.362 220.045 506.848C220.159 502.108 220.178 497.365 220.187 492.631C220.211 481.604 220.107 470.581 220.445 459.573C220.456 459.234 220.397 458.896 220.274 458.58C220.15 458.264 219.963 457.976 219.725 457.735C219.487 457.493 219.202 457.302 218.888 457.173C218.574 457.044 218.238 456.981 217.898 456.986C211.812 457.047 205.729 457.198 199.649 457.439C193.569 457.679 187.498 457.996 181.434 458.39C178.259 458.597 175.003 458.64 171.8 458.908C170.349 459.031 168.914 459.191 167.51 459.422C166.935 459.514 166.411 459.807 166.032 460.249C165.653 460.69 165.442 461.252 165.437 461.834C165.381 468.302 165.375 474.77 165.474 481.268C165.535 485.58 165.638 489.892 165.782 494.204C166.124 504.639 166.65 517.85 167.208 528.429C165.957 528.463 164.701 528.509 163.45 528.543C161.232 528.605 159.027 528.639 156.819 528.756C153.474 528.935 150.181 529.264 146.864 529.452C146.481 529.457 146.115 529.61 145.842 529.88C145.57 530.149 145.412 530.513 145.403 530.896C145.393 531.279 145.532 531.651 145.791 531.934C146.05 532.216 146.408 532.388 146.79 532.412C148.919 532.646 151.019 532.892 153.154 533.071C155.288 533.25 157.389 533.379 159.526 533.437C165.868 533.604 172.24 533.367 178.622 533.17C184.335 532.991 190.048 532.748 195.762 532.44C199.569 532.242 203.37 532.048 207.158 531.78C210.947 531.513 214.757 531.186 218.539 530.856C221.077 530.644 223.593 530.401 226.122 530.188C226.324 530.188 226.524 530.147 226.71 530.068C226.896 529.989 227.064 529.873 227.205 529.728C227.345 529.582 227.455 529.41 227.528 529.222C227.601 529.033 227.635 528.832 227.628 528.63C227.621 528.428 227.574 528.229 227.49 528.045C227.405 527.862 227.284 527.697 227.134 527.561C226.984 527.426 226.809 527.321 226.618 527.254C226.427 527.188 226.225 527.16 226.023 527.173V527.182ZM202.193 527.244C195.725 527.438 189.257 527.733 182.789 527.974C178.604 528.128 174.427 528.232 170.251 528.349C170.128 517.766 170.103 504.572 170.128 494.161C170.128 489.849 170.143 485.546 170.174 481.25C170.198 475.512 170.226 469.771 170.325 464.042C171.375 463.925 172.441 463.845 173.5 463.774C176.251 463.614 179.016 463.562 181.73 463.401C187.763 463.036 193.798 462.733 199.837 462.493C204.999 462.299 210.161 462.145 215.33 462.065C215.151 470.236 215.142 478.404 215.222 486.581C215.286 491.99 215.348 497.398 215.481 502.81C215.579 506.866 215.721 510.917 215.847 514.964C215.955 518.767 216.069 523.197 216.133 527.08C214.658 527.08 213.18 527.056 211.698 527.08C208.547 527.074 205.372 527.145 202.193 527.244Z" fill="#212941"/>
<path d="M321.044 525.491C316.997 525.072 312.956 524.752 308.891 524.629C306.196 524.549 303.498 524.549 300.803 524.592C295.32 524.7 289.859 525.011 284.377 525.269C280.81 525.433 277.247 525.531 273.68 525.642C273.585 514.554 273.455 500.888 273.095 489.997C272.756 479.497 272.22 469.007 271.724 458.517C271.019 443.566 270.246 428.625 269.732 413.669C271.546 413.499 273.36 413.361 275.177 413.234C279.35 412.948 283.521 412.797 287.694 412.591C294.014 412.283 298.813 411.907 305.139 411.463C305.532 411.453 305.905 411.286 306.175 411.001C306.445 410.716 306.591 410.335 306.581 409.942C306.57 409.549 306.404 409.176 306.118 408.906C305.833 408.636 305.452 408.49 305.059 408.5C301.098 408.426 298.674 408.269 294.735 408.171C290.796 408.072 286.807 407.992 282.846 408.045C277.533 408.109 272.22 408.426 266.901 408.953C266.275 409.017 265.697 409.317 265.282 409.79C264.868 410.264 264.648 410.877 264.668 411.506C265.284 430.264 266.208 449.012 267.203 467.76C267.451 472.441 267.712 477.122 267.985 481.801C268.258 486.481 268.55 491.158 268.86 495.834C269.457 504.818 270.092 516.541 270.619 525.75C269.778 525.771 268.934 525.818 268.093 525.839C266.245 525.873 264.382 525.891 262.534 525.962C259.728 526.079 256.971 526.32 254.159 526.381C253.767 526.353 253.381 526.482 253.084 526.739C252.787 526.996 252.604 527.36 252.576 527.752C252.56 527.946 252.584 528.141 252.644 528.326C252.705 528.511 252.801 528.682 252.929 528.829C253.056 528.977 253.211 529.097 253.385 529.184C253.56 529.271 253.749 529.322 253.943 529.335C255.628 529.643 257.291 529.932 258.982 530.154C260.673 530.376 262.37 530.555 264.052 530.653C267.44 530.838 270.828 530.767 274.198 530.696C279.837 530.579 285.48 530.277 291.113 529.976C294.849 529.769 298.579 529.594 302.306 529.378C304.788 529.246 307.261 529.095 309.744 528.953C313.465 528.747 317.167 528.534 320.903 528.497C321.105 528.516 321.309 528.493 321.503 528.43C321.696 528.367 321.875 528.266 322.028 528.133C322.181 527.999 322.306 527.836 322.394 527.653C322.483 527.47 322.534 527.271 322.543 527.068C322.553 526.865 322.521 526.662 322.45 526.472C322.379 526.281 322.27 526.107 322.13 525.96C321.99 525.812 321.822 525.695 321.635 525.614C321.449 525.534 321.248 525.492 321.044 525.491Z" fill="#212941"/>
<path d="M567.459 527.937C563.344 527.937 559.238 527.989 555.139 528.02V527.974C556.18 512.779 557.015 497.575 557.646 482.362C558.276 467.149 558.751 451.93 559.072 436.707C559.515 415.412 559.666 394.101 559.817 372.791C560.156 323.086 560.264 273.381 562.426 223.83C562.44 223.496 562.389 223.163 562.274 222.85C562.16 222.536 561.984 222.249 561.757 222.003C561.301 221.515 560.673 221.222 560.005 221.187C547.291 220.661 534.596 220.365 521.921 220.297C509.246 220.229 496.548 220.416 483.827 220.858C483.179 220.881 482.564 221.154 482.113 221.62C481.662 222.087 481.408 222.71 481.406 223.358C481.363 241.081 481.265 284.441 481.453 333.764C481.542 357.646 481.702 382.927 481.942 407.376C482.444 458.532 483.304 505.982 484.406 529.316L482.829 529.35C471.557 529.526 460.268 529.56 448.949 529.372C449.565 514.086 450.181 498.809 450.625 483.517C450.929 473.088 451.178 462.662 451.373 452.239C452.069 413.123 452.131 373.98 451.971 334.91C451.967 334.25 451.705 333.618 451.241 333.149C450.777 332.68 450.148 332.411 449.488 332.4C436.371 332.178 422.286 330.968 408.494 331.066C399.202 330.993 389.93 331.922 380.838 333.838C380.297 333.962 379.812 334.264 379.46 334.694C379.109 335.125 378.911 335.66 378.898 336.216C378.365 355.543 378.445 374.956 378.898 394.428C379.326 412.483 380.047 430.565 380.795 448.636C381.898 474.89 383.071 501.131 383.382 527.265C374.777 527.46 366.192 528.19 357.677 529.449C357.3 529.512 356.962 529.718 356.733 530.024C356.504 530.33 356.402 530.713 356.448 531.092C356.494 531.471 356.685 531.818 356.98 532.061C357.276 532.303 357.653 532.422 358.034 532.393C366.823 531.732 375.641 531.535 384.451 531.805C390.611 531.931 396.802 532.113 402.996 532.421C417.641 533.105 432.296 534.121 446.532 534.423C462.726 534.716 478.872 534.546 495.011 534.075C504.69 533.792 514.365 533.43 524.034 532.991C538.51 532.332 552.986 531.512 567.502 530.98C567.7 530.976 567.895 530.933 568.077 530.853C568.258 530.773 568.423 530.659 568.56 530.516C568.697 530.373 568.805 530.204 568.877 530.02C568.949 529.835 568.984 529.638 568.98 529.44C568.976 529.241 568.933 529.046 568.853 528.864C568.774 528.683 568.659 528.519 568.516 528.382C568.373 528.244 568.205 528.136 568.02 528.064C567.835 527.992 567.638 527.957 567.44 527.961L567.459 527.937ZM393.411 527.191C391.089 527.157 388.791 527.191 386.462 527.231C386.582 501.051 385.939 474.77 385.172 448.47C384.648 430.396 384.088 412.335 383.767 394.308C383.438 375.584 383.33 356.907 383.857 338.301C391.994 336.77 400.26 336.032 408.54 336.096C421.423 336.006 434.575 337.075 446.935 337.395C447.058 362.602 447.037 387.834 446.87 413.09C446.79 426.768 446.649 440.443 446.516 454.118C446.463 459.983 446.416 465.844 446.375 471.702C446.261 490.924 446.187 510.125 445.965 529.323C428.788 528.99 411.028 527.453 393.411 527.191ZM508.187 528.802C501.265 528.962 494.345 529.11 487.425 529.246C486.766 510.695 486.501 476.846 486.371 438.007C486.282 410.644 486.291 380.827 486.291 352.149C486.291 297.633 486.344 247.265 486.424 225.795C498.265 225.421 510.094 225.267 521.908 225.333C533.68 225.394 545.467 225.664 557.27 226.143C554.966 282.005 555.089 338.045 554.778 394.058C554.708 406.22 554.617 418.383 554.504 430.547C554.387 442.713 554.264 454.879 554.048 467.03C553.694 487.308 553.152 507.562 552.2 527.804C552.205 527.884 552.217 527.963 552.234 528.041C543.199 528.119 534.165 528.243 525.13 528.411C519.479 528.524 513.836 528.654 508.199 528.802H508.187Z" fill="#212941"/>
<path d="M167.349 525.821C160.853 525.821 154.339 527.234 147.871 526.933C145.553 524.404 144.091 521.209 143.692 517.802C143.293 514.396 143.977 510.95 145.647 507.954C139.382 498.486 140.476 486.526 143.799 476.168C145.09 472.13 146.879 465.973 152.137 465.865C156.63 465.776 159.886 471.188 161.284 474.797C164.545 483.708 165.523 493.292 164.13 502.678C164.903 503.451 166.061 504.073 166.286 505.142C166.314 505.274 166.847 519.236 166.902 526.212" fill="#3A5AB7"/>
<path d="M149.642 481.552C149.468 482.548 149.346 483.552 149.276 484.561C149.205 485.556 149.205 486.554 149.276 487.549C149.516 490.388 150.274 493.145 150.745 495.985C151.296 498.966 151.814 501.948 152.374 504.917C152.756 506.9 153.11 508.893 153.557 510.867C154.004 512.842 154.518 514.81 155.051 516.778C155.408 518.093 155.799 519.374 156.181 520.692C156.252 521.087 156.477 521.436 156.806 521.665C157.135 521.893 157.541 521.982 157.935 521.911C158.329 521.84 158.679 521.615 158.908 521.286C159.136 520.957 159.224 520.551 159.153 520.157C159.046 518.795 158.975 517.452 158.845 516.1C158.667 514.07 158.479 512.059 158.229 510.048C157.98 508.037 157.632 506.044 157.305 504.042C156.806 501.045 156.246 498.054 155.695 495.058C155.134 492.286 154.583 489.529 153.942 486.806C153.739 485.919 153.462 485.072 153.24 484.182C153.018 483.292 152.769 482.448 152.599 481.53C152.599 481.137 152.443 480.761 152.165 480.483C151.887 480.205 151.511 480.049 151.118 480.049C150.725 480.049 150.348 480.205 150.07 480.483C149.792 480.761 149.636 481.137 149.636 481.53L149.642 481.552Z" fill="#212941"/>
<path d="M562.146 416.471C563.751 413.638 565.578 410.937 567.61 408.393C571.072 404.081 583.706 394.12 585.388 405.759C586.41 412.779 582.231 420.823 579.693 427.221C589.623 441.857 581.741 462.733 574.559 476.765C579.043 481.01 579.098 488.004 577.3 493.465C574.158 502.961 566.658 510.836 558.952 516.932" fill="#3A5AB7"/>
<path d="M573.838 525.448C573.838 525.448 564.204 526.31 559.079 526.255C559.307 524.223 559.428 522.18 559.443 520.135C569.155 515.383 576.79 507.237 580.904 497.238C582.385 494.012 583.069 490.478 582.9 486.933C582.732 483.388 581.714 479.935 579.934 476.864C580.593 475.537 581.166 474.175 581.757 472.823C583.897 472.351 586.104 472.273 588.271 472.592C592.303 468.659 605.519 459.727 608.079 470.359C608.329 471.565 608.371 472.804 608.205 474.024C607.324 481.98 600.197 488.5 595.134 494.195C599.59 508.523 584.018 518.943 573.838 525.448Z" fill="#3A5AB7"/>
<path d="M450.841 528.408C451.9 518.435 452.005 508.058 452.381 498.058C453.397 472.093 454.429 420.174 454.358 420.494C454.152 421.535 455.051 418.544 455.621 417.645C459.607 411.485 464.636 418.59 465.64 422.958C468.372 434.785 464.547 446.982 465.471 458.8C467.595 460.365 469.361 462.364 470.652 464.666C471.943 466.967 472.728 469.517 472.955 472.146C474.249 482.736 473.991 493.458 472.188 503.974C476.229 501.797 479.62 504.35 479.922 508.825C480.323 514.902 477.766 522.1 475.758 527.832" fill="#3A5AB7"/>
<path d="M481.219 505.256C480.23 502.961 478.647 500.229 475.702 500.398C476.581 492.821 476.929 485.192 476.743 477.566C476.377 469.407 474.812 461.941 468.575 455.969C468.485 450.383 469.022 444.804 470.177 439.337C470.639 438.019 469.589 440.6 470.177 439.337C472.089 435.235 475.915 433.981 478.416 438.678C480.781 443.12 480.489 448.734 480.55 453.629C480.757 471.185 480.116 489.086 481.166 506.605" fill="#3A5AB7"/>
<path d="M570.573 416.613C569.754 418.073 568.972 419.487 568.288 421.011C568.002 421.652 567.743 422.308 567.521 422.976C566.455 426.305 565.612 429.7 564.995 433.14C564.379 436.183 563.884 439.254 563.437 442.334C563.144 444.361 562.858 446.4 562.636 448.445C562.414 450.49 562.264 452.52 562.085 454.559C561.971 455.929 561.882 457.272 561.755 458.634C561.712 458.83 561.708 459.034 561.745 459.233C561.781 459.431 561.857 459.62 561.968 459.788C562.079 459.957 562.222 460.102 562.39 460.214C562.557 460.326 562.746 460.403 562.944 460.441C563.142 460.479 563.346 460.477 563.543 460.436C563.74 460.394 563.927 460.312 564.093 460.197C564.258 460.082 564.399 459.934 564.506 459.764C564.613 459.593 564.686 459.402 564.718 459.203C565.501 456.431 566.258 453.659 566.899 450.847C567.182 449.594 567.432 448.34 567.663 447.074C568.011 445.199 568.322 443.311 568.642 441.435C569.425 436.772 570.262 432.127 571.346 427.544C571.581 426.565 571.827 425.594 572.061 424.618C572.212 423.968 572.354 423.318 572.468 422.659C572.776 420.978 572.994 419.339 573.348 417.657C573.47 417.293 573.446 416.897 573.281 416.55C573.117 416.204 572.824 415.935 572.465 415.8C572.105 415.665 571.708 415.675 571.356 415.827C571.004 415.979 570.724 416.262 570.576 416.616L570.573 416.613Z" fill="#212941"/>
<path d="M596.858 475.192C596.217 475.408 595.588 475.657 594.973 475.937C594.725 476.061 594.489 476.208 594.268 476.374C593.218 477.226 592.231 478.153 591.314 479.146C590.461 480.009 589.632 480.89 588.85 481.807C588.304 482.403 587.79 483.027 587.31 483.677C586.844 484.348 586.413 485.043 586.019 485.759C585.736 486.249 585.514 486.711 585.256 487.219C585.125 487.367 585.024 487.539 584.96 487.726C584.896 487.912 584.869 488.11 584.881 488.307C584.893 488.504 584.943 488.697 585.03 488.874C585.116 489.052 585.237 489.21 585.385 489.341C585.533 489.472 585.705 489.572 585.892 489.637C586.078 489.701 586.276 489.728 586.473 489.716C586.67 489.704 586.863 489.653 587.04 489.567C587.217 489.48 587.376 489.36 587.507 489.212C588.299 488.651 589.047 488.171 589.829 487.573C590.328 487.201 590.8 486.819 591.262 486.4C591.939 485.784 592.561 485.109 593.202 484.45C594.163 483.471 595.124 482.491 596.057 481.496C596.643 480.931 597.193 480.331 597.705 479.698C597.936 479.342 598.142 478.971 598.321 478.586C598.533 478.161 598.65 477.813 598.854 477.354C599.012 477.227 599.143 477.068 599.238 476.888C599.333 476.708 599.389 476.51 599.404 476.307C599.418 476.104 599.391 475.9 599.323 475.708C599.256 475.516 599.149 475.34 599.01 475.192C598.871 475.043 598.703 474.924 598.517 474.843C598.33 474.763 598.129 474.721 597.925 474.722C597.722 474.722 597.52 474.765 597.334 474.847C597.148 474.929 596.98 475.048 596.842 475.198L596.858 475.192Z" fill="#212941"/>
<path d="M456.25 445.479C455.914 448.069 455.548 450.613 455.298 453.203C455.138 454.919 455.024 456.628 454.953 458.356C454.525 468.357 454.747 478.349 454.605 488.377C454.605 492.088 454.445 495.797 454.374 499.508C454.328 502.009 454.319 504.501 454.374 507.002C454.454 511.209 454.682 515.392 455.166 519.574C455.189 519.973 455.371 520.347 455.67 520.612C455.968 520.877 456.361 521.013 456.76 520.99C457.159 520.966 457.532 520.785 457.797 520.486C458.063 520.187 458.199 519.795 458.175 519.396C458.175 517.341 458.236 515.302 458.326 513.257C458.486 509.136 458.825 505.043 459.09 500.937C459.354 496.832 459.527 492.621 459.616 488.445C459.703 478.426 459.881 468.443 459.801 458.449C459.801 456.733 459.739 455.024 459.669 453.314C459.552 450.736 459.361 448.189 459.222 445.614C459.239 445.221 459.099 444.838 458.833 444.548C458.567 444.259 458.197 444.087 457.804 444.07C457.411 444.053 457.027 444.193 456.738 444.459C456.448 444.725 456.276 445.095 456.259 445.488L456.25 445.479Z" fill="#212941"/>
<path d="M370.928 524.502C364.112 524.69 357.428 526.169 350.569 525.972C349.599 492.772 345.844 459.77 343.112 426.697C342.598 420.414 340.913 408.152 340.941 407.909C341.865 400.665 349.873 399.251 353.23 407.293C356.871 415.988 356.024 426.016 355.953 435.235C361.37 433.793 364.903 438.537 366.095 443.314C368.488 452.8 365.812 463.851 364.601 473.433C365.226 472.61 365.942 471.861 366.736 471.2C373.25 465.905 376.062 476.806 376.222 481.398C376.03 491.051 374.692 500.648 372.237 509.986C371.248 514.73 370.857 519.812 369.523 524.462" fill="#3A5AB7"/>
<path d="M382.407 524.832C382.459 513.969 381.159 503.238 380.663 492.418C379.284 462.456 376.943 432.577 375.714 402.618C368.233 409.175 365.756 421.233 364.549 430.815C376.869 436.279 372.557 453.736 370.875 463.953C376.284 467.085 377.651 473.75 378.323 479.497C379.949 493.752 376.712 510.036 373.509 523.908C376.783 524.191 380.02 524.139 383.297 524.281" fill="#3A5AB7"/>
<path d="M346.244 424.461C345.971 426.824 345.851 429.203 345.887 431.582C345.921 433.938 346.081 436.29 346.367 438.629C347.214 445.46 348.896 452.261 349.635 458.957C350.301 464.633 350.852 470.353 351.379 476.042C351.995 482.698 352.463 489.369 353.008 496.034C353.553 502.699 354.191 509.383 354.653 516.054C354.678 516.445 354.854 516.811 355.144 517.075C355.435 517.339 355.816 517.479 356.208 517.466C356.6 517.453 356.972 517.288 357.244 517.006C357.516 516.724 357.669 516.348 357.668 515.955C357.723 510.199 357.785 504.433 357.668 498.658C357.582 494.814 357.428 490.969 357.206 487.124C356.655 477.505 355.74 467.914 354.643 458.366C353.87 452.048 352.543 445.624 351.317 439.226C350.809 436.556 350.285 433.904 349.9 431.246C349.553 429.032 349.325 426.801 349.216 424.563C349.224 424.368 349.193 424.174 349.126 423.991C349.059 423.808 348.956 423.641 348.824 423.498C348.692 423.355 348.533 423.239 348.356 423.158C348.179 423.076 347.988 423.03 347.793 423.023C347.599 423.015 347.405 423.046 347.222 423.113C347.039 423.18 346.872 423.283 346.729 423.415C346.586 423.547 346.47 423.706 346.389 423.883C346.307 424.06 346.261 424.251 346.253 424.446L346.244 424.461Z" fill="#212941"/>
<path d="M268.024 521.604C262.822 521.77 257.552 522.577 252.396 523.018C253.099 506.913 253.561 474.594 253.705 474.046C254.491 471.4 255.9 468.981 257.813 466.992C259.726 465.003 262.088 463.501 264.701 462.613C265.6 482.263 266.466 501.978 268.024 521.604Z" fill="#3A5AB7"/>
</svg>
